<?xml version="1.0" standalone="no"?>
 <!DOCTYPE svg PUBLIC "-//W3C//DTD SVG 1.1//EN" 
 "http://www.w3.org/Graphics/SVG/1.1/DTD/svg11.dtd"> 
<svg
  xmlns:svg="http://www.w3.org/2000/svg"
  xmlns="http://www.w3.org/2000/svg"
  xmlns:xlink="http://www.w3.org/1999/xlink"
  version="1.1"
  width="29.700220cm" height="21.000720cm" viewBox="0 0 116930 82680">
<title>SVG Picture created as JBC-T245 BEEIRON-F_SilkS.svg date 2020/09/06 20:15:26 </title>
  <desc>Picture generated by PCBNEW </desc>
<g style="fill:#000000; fill-opacity:1;stroke:#000000; stroke-opacity:1;
stroke-linecap:round; stroke-linejoin:round;"
 transform="translate(0 0) scale(1 1)">
</g>
<g style="fill:#000000; fill-opacity:0.0; 
stroke:#000000; stroke-width:-0.000393701; stroke-opacity:1; 
stroke-linecap:round; stroke-linejoin:round;">
</g>
<g style="fill:#000000; fill-opacity:0.0; 
stroke:#000000; stroke-width:118.11; stroke-opacity:1; 
stroke-linecap:round; stroke-linejoin:round;">
<text x="57775" y="53050.3"
textLength="3563.84" font-size="787.402" lengthAdjust="spacingAndGlyphs"
text-anchor="middle" opacity="0">REV 1.0</text>
<path d="M56509 53022
L56312 52740
" />
<path d="M56172 53022
L56172 52431
L56397 52431
L56453 52459
L56481 52487
L56509 52544
L56509 52628
L56481 52684
L56453 52712
L56397 52740
L56172 52740
" />
<path d="M56762 52712
L56959 52712
" />
<path d="M57043 53022
L56762 53022
L56762 52431
L57043 52431
" />
<path d="M57212 52431
L57409 53022
L57606 52431
" />
<path d="M58562 53022
L58224 53022
" />
<path d="M58393 53022
L58393 52431
L58337 52515
L58281 52572
L58224 52600
" />
<path d="M58815 52965
L58843 52994
L58815 53022
L58787 52994
L58815 52965
L58815 53022
" />
<path d="M59209 52431
L59265 52431
L59321 52459
L59349 52487
L59377 52544
L59406 52656
L59406 52797
L59377 52909
L59349 52965
L59321 52994
L59265 53022
L59209 53022
L59152 52994
L59124 52965
L59096 52909
L59068 52797
L59068 52656
L59096 52544
L59124 52487
L59152 52459
L59209 52431
" />
</g>
<g style="fill:#000000; fill-opacity:0.0; 
stroke:#000000; stroke-width:59.0551; stroke-opacity:1; 
stroke-linecap:round; stroke-linejoin:round;">
<path d="M47223 26292 A184.694 184.694 0.0 0 0 47577.4 26284" />
<path d="M47217 26277 A184.694 184.694 0.0 0 0 46862.6 26285" />
<path d="M42849 26250 A184.694 184.694 0.0 0 0 43203.4 26242" />
<path d="M42843 26235 A184.694 184.694 0.0 0 0 42488.6 26243" />
<text x="45590.6" y="39881.9"
textLength="1353.39" font-size="524.934" lengthAdjust="spacingAndGlyphs"
text-anchor="middle" opacity="0">GND</text>
<path d="M45290 39488
L45253 39469
L45196 39469
L45140 39488
L45103 39525
L45084 39563
L45065 39638
L45065 39694
L45084 39769
L45103 39806
L45140 39844
L45196 39863
L45234 39863
L45290 39844
L45309 39825
L45309 39694
L45234 39694
" />
<path d="M45478 39863
L45478 39469
L45703 39863
L45703 39469
" />
<path d="M45890 39863
L45890 39469
L45984 39469
L46040 39488
L46077 39525
L46096 39563
L46115 39638
L46115 39694
L46096 39769
L46077 39806
L46040 39844
L45984 39863
L45890 39863
" />
<text x="45787.4" y="40787.4"
textLength="1839.05" font-size="524.934" lengthAdjust="spacingAndGlyphs"
text-anchor="middle" opacity="0">+3.3V</text>
<path d="M45000 40618
L45299 40618
" />
<path d="M45149 40768
L45149 40468
" />
<path d="M45449 40374
L45693 40374
L45562 40524
L45618 40524
L45656 40543
L45674 40562
L45693 40599
L45693 40693
L45674 40731
L45656 40749
L45618 40768
L45506 40768
L45468 40749
L45449 40731
" />
<path d="M45862 40731
L45881 40749
L45862 40768
L45843 40749
L45862 40731
L45862 40768
" />
<path d="M46012 40374
L46256 40374
L46124 40524
L46181 40524
L46218 40543
L46237 40562
L46256 40599
L46256 40693
L46237 40731
L46218 40749
L46181 40768
L46068 40768
L46031 40749
L46012 40731
" />
<path d="M46368 40374
L46499 40768
L46631 40374
" />
<text x="44173.2" y="43149.6"
textLength="1276.62" font-size="524.934" lengthAdjust="spacingAndGlyphs"
text-anchor="middle" opacity="0">+5V</text>
<path d="M43667 42980
L43967 42980
" />
<path d="M43817 43130
L43817 42830
" />
<path d="M44341 42737
L44154 42737
L44135 42924
L44154 42905
L44191 42887
L44285 42887
L44323 42905
L44341 42924
L44360 42962
L44360 43055
L44341 43093
L44323 43112
L44285 43130
L44191 43130
L44154 43112
L44135 43093
" />
<path d="M44473 42737
L44604 43130
L44735 42737
" />
<g transform="rotate(-270 54645.7 55118.1)">
<text x="54645.7" y="55315"
textLength="1276.62" font-size="524.934" lengthAdjust="spacingAndGlyphs"
text-anchor="middle" opacity="0">+5V</text>
</g>
<path d="M54617 54611
L54617 54911
" />
<path d="M54467 54761
L54767 54761
" />
<path d="M54861 55286
L54861 55099
L54673 55080
L54692 55099
L54711 55136
L54711 55230
L54692 55268
L54673 55286
L54636 55305
L54542 55305
L54505 55286
L54486 55268
L54467 55230
L54467 55136
L54486 55099
L54505 55080
" />
<path d="M54861 55418
L54467 55549
L54861 55680
" />
<g transform="rotate(-270 53600 55375)">
<text x="53600" y="55571.9"
textLength="1839.05" font-size="524.934" lengthAdjust="spacingAndGlyphs"
text-anchor="middle" opacity="0">+3.3V</text>
</g>
<path d="M53571 54587
L53571 54887
" />
<path d="M53421 54737
L53721 54737
" />
<path d="M53815 55037
L53815 55281
L53665 55150
L53665 55206
L53646 55243
L53628 55262
L53590 55281
L53496 55281
L53459 55262
L53440 55243
L53421 55206
L53421 55093
L53440 55056
L53459 55037
" />
<path d="M53459 55449
L53440 55468
L53421 55449
L53440 55431
L53459 55449
L53421 55449
" />
<path d="M53815 55599
L53815 55843
L53665 55712
L53665 55768
L53646 55806
L53628 55824
L53590 55843
L53496 55843
L53459 55824
L53440 55806
L53421 55768
L53421 55656
L53440 55618
L53459 55599
" />
<path d="M53815 55956
L53421 56087
L53815 56218
" />
<g transform="rotate(-90 52500 55200)">
<text x="52500" y="55396.9"
textLength="1276.62" font-size="524.934" lengthAdjust="spacingAndGlyphs"
text-anchor="middle" opacity="0">GND</text>
</g>
<path d="M52303 55499
L52284 55537
L52284 55593
L52303 55649
L52340 55687
L52378 55706
L52453 55724
L52509 55724
L52584 55706
L52621 55687
L52659 55649
L52678 55593
L52678 55556
L52659 55499
L52640 55481
L52509 55481
L52509 55556
" />
<path d="M52678 55312
L52284 55312
L52678 55087
L52284 55087
" />
<path d="M52678 54900
L52284 54900
L52284 54806
L52303 54750
L52340 54712
L52378 54693
L52453 54675
L52509 54675
L52584 54693
L52621 54712
L52659 54750
L52678 54806
L52678 54900
" />
<text x="50200" y="53296.9"
textLength="432.977" font-size="524.934" lengthAdjust="spacingAndGlyphs"
text-anchor="middle" opacity="0">E</text>
<path d="M50115 53071
L50246 53071
" />
<path d="M50303 53278
L50115 53278
L50115 52884
L50303 52884
" />
<g transform="rotate(-90 49300 52800)">
<text x="49300" y="52996.9"
textLength="1276.62" font-size="524.934" lengthAdjust="spacingAndGlyphs"
text-anchor="middle" opacity="0">GND</text>
</g>
<path d="M49103 53099
L49084 53137
L49084 53193
L49103 53249
L49140 53287
L49178 53306
L49253 53324
L49309 53324
L49384 53306
L49421 53287
L49459 53249
L49478 53193
L49478 53156
L49459 53099
L49440 53081
L49309 53081
L49309 53156
" />
<path d="M49478 52912
L49084 52912
L49478 52687
L49084 52687
" />
<path d="M49478 52500
L49084 52500
L49084 52406
L49103 52350
L49140 52312
L49178 52293
L49253 52275
L49309 52275
L49384 52293
L49421 52312
L49459 52350
L49478 52406
L49478 52500
" />
<g transform="rotate(-90 48200 52900)">
<text x="48200" y="53096.9"
textLength="1276.62" font-size="524.934" lengthAdjust="spacingAndGlyphs"
text-anchor="middle" opacity="0">+5V</text>
</g>
<path d="M48228 53406
L48228 53106
" />
<path d="M48378 53256
L48078 53256
" />
<path d="M47984 52731
L47984 52918
L48171 52937
L48153 52918
L48134 52881
L48134 52787
L48153 52750
L48171 52731
L48209 52712
L48303 52712
L48340 52731
L48359 52750
L48378 52787
L48378 52881
L48359 52918
L48340 52937
" />
<path d="M47984 52600
L48378 52468
L47984 52337
" />
<g transform="rotate(-90 46000 52800)">
<text x="46000" y="52996.9"
textLength="1220.38" font-size="524.934" lengthAdjust="spacingAndGlyphs"
text-anchor="middle" opacity="0">RED</text>
</g>
<path d="M46178 53053
L45990 53184
" />
<path d="M46178 53278
L45784 53278
L45784 53128
L45803 53090
L45821 53071
L45859 53053
L45915 53053
L45953 53071
L45971 53090
L45990 53128
L45990 53278
" />
<path d="M45971 52884
L45971 52753
" />
<path d="M46178 52696
L46178 52884
L45784 52884
L45784 52696
" />
<path d="M46178 52528
L45784 52528
L45784 52434
L45803 52378
L45840 52340
L45878 52321
L45953 52303
L46009 52303
L46084 52321
L46121 52340
L46159 52378
L46178 52434
L46178 52528
" />
<g transform="rotate(-90 45000 52600)">
<text x="45000" y="52796.9"
textLength="1557.84" font-size="524.934" lengthAdjust="spacingAndGlyphs"
text-anchor="middle" opacity="0">BLUE</text>
</g>
<path d="M44971 53115
L44990 53059
L45009 53040
L45046 53021
L45103 53021
L45140 53040
L45159 53059
L45178 53096
L45178 53246
L44784 53246
L44784 53115
L44803 53078
L44821 53059
L44859 53040
L44896 53040
L44934 53059
L44953 53078
L44971 53115
L44971 53246
" />
<path d="M45178 52665
L45178 52853
L44784 52853
" />
<path d="M44784 52534
L45103 52534
L45140 52515
L45159 52496
L45178 52459
L45178 52384
L45159 52346
L45140 52328
L45103 52309
L44784 52309
" />
<path d="M44971 52121
L44971 51990
" />
<path d="M45178 51934
L45178 52121
L44784 52121
L44784 51934
" />
<g transform="rotate(-90 44000 52700)">
<text x="44000" y="52896.9"
textLength="1276.62" font-size="524.934" lengthAdjust="spacingAndGlyphs"
text-anchor="middle" opacity="0">GRN</text>
</g>
<path d="M43803 52999
L43784 53037
L43784 53093
L43803 53149
L43840 53187
L43878 53206
L43953 53224
L44009 53224
L44084 53206
L44121 53187
L44159 53149
L44178 53093
L44178 53056
L44159 52999
L44140 52981
L44009 52981
L44009 53056
" />
<path d="M44178 52587
L43990 52718
" />
<path d="M44178 52812
L43784 52812
L43784 52662
L43803 52625
L43821 52606
L43859 52587
L43915 52587
L43953 52606
L43971 52625
L43990 52662
L43990 52812
" />
<path d="M44178 52418
L43784 52418
L44178 52193
L43784 52193
" />
</g>
<g style="fill:#000000; fill-opacity:0.0; 
stroke:#000000; stroke-width:47.2441; stroke-opacity:1; 
stroke-linecap:round; stroke-linejoin:round;">
<path d="M42150 28600
L42300 28600
" />
<path d="M42150 28300
L42150 28600
" />
<path d="M47700 28600
L47600 28600
" />
<path d="M47950 28600
L47700 28600
" />
<path d="M47950 28300
L47950 28600
" />
</g>
<g style="fill:#000000; fill-opacity:0.0; 
stroke:#000000; stroke-width:59.0551; stroke-opacity:1; 
stroke-linecap:round; stroke-linejoin:round;">
<text x="45000" y="29146.9"
textLength="5494.84" font-size="524.934" lengthAdjust="spacingAndGlyphs"
text-anchor="middle" opacity="0">~      24VAC      ~</text>
<path d="M42290 28589
L42590 28589
" />
<path d="M42590 28589
L42890 28589
" />
<path d="M42890 28589
L43190 28589
" />
<path d="M43190 28589
L43490 28589
" />
<path d="M43490 28589
L43790 28589
" />
<path d="M43790 28589
L44090 28589
" />
<path d="M44090 28589
L44465 28589
" />
<path d="M44165 28771
L44184 28753
L44221 28734
L44315 28734
L44353 28753
L44371 28771
L44390 28809
L44390 28846
L44371 28903
L44146 29128
L44390 29128
" />
<path d="M44465 28589
L44840 28589
" />
<path d="M44728 28865
L44728 29128
" />
<path d="M44634 28715
L44540 28996
L44784 28996
" />
<path d="M44840 28589
L45178 28589
" />
<path d="M44878 28734
L45009 29128
L45140 28734
" />
<path d="M45178 28589
L45515 28589
" />
<path d="M45253 29015
L45440 29015
" />
<path d="M45215 29128
L45346 28734
L45478 29128
" />
<path d="M45515 28589
L45909 28589
" />
<path d="M45834 29090
L45815 29109
L45759 29128
L45721 29128
L45665 29109
L45628 29071
L45609 29034
L45590 28959
L45590 28903
L45609 28828
L45628 28790
L45665 28753
L45721 28734
L45759 28734
L45815 28753
L45834 28771
" />
<path d="M45909 28589
L46209 28589
" />
<path d="M46209 28589
L46509 28589
" />
<path d="M46509 28589
L46809 28589
" />
<path d="M46809 28589
L47109 28589
" />
<path d="M47109 28589
L47409 28589
" />
<path d="M47409 28589
L47709 28589
" />
<text x="44400" y="26346.9"
textLength="76.7717" font-size="524.934" lengthAdjust="spacingAndGlyphs"
text-anchor="middle" opacity="0">~</text>
<text x="43300" y="28846.9"
textLength="76.7717" font-size="524.934" lengthAdjust="spacingAndGlyphs"
text-anchor="middle" opacity="0">~</text>
<text x="43500" y="28496.9"
textLength="76.7717" font-size="524.934" lengthAdjust="spacingAndGlyphs"
text-anchor="middle" opacity="0">~</text>
<g transform="rotate(-90 61100 28500)">
<text x="61100" y="28696.9"
textLength="789.183" font-size="524.934" lengthAdjust="spacingAndGlyphs"
text-anchor="middle" opacity="0">A1</text>
</g>
<path d="M61165 28781
L61165 28593
" />
<path d="M61278 28818
L60884 28687
L61278 28556
" />
<path d="M61278 28218
L61278 28443
" />
<path d="M61278 28331
L60884 28331
L60940 28368
L60978 28406
L60996 28443
" />
<g transform="rotate(-90 60100 28500)">
<text x="60100" y="28696.9"
textLength="789.183" font-size="524.934" lengthAdjust="spacingAndGlyphs"
text-anchor="middle" opacity="0">A2</text>
</g>
<path d="M60165 28781
L60165 28593
" />
<path d="M60278 28818
L59884 28687
L60278 28556
" />
<path d="M59921 28443
L59903 28425
L59884 28387
L59884 28293
L59903 28256
L59921 28237
L59959 28218
L59996 28218
L60053 28237
L60278 28462
L60278 28218
" />
<g transform="rotate(-90 59100 28500)">
<text x="59100" y="28696.9"
textLength="789.183" font-size="524.934" lengthAdjust="spacingAndGlyphs"
text-anchor="middle" opacity="0">A3</text>
</g>
<path d="M59165 28781
L59165 28593
" />
<path d="M59278 28818
L58884 28687
L59278 28556
" />
<path d="M58884 28462
L58884 28218
L59034 28350
L59034 28293
L59053 28256
L59071 28237
L59109 28218
L59203 28218
L59240 28237
L59259 28256
L59278 28293
L59278 28406
L59259 28443
L59240 28462
" />
<g transform="rotate(-90 58100 28550)">
<text x="58100" y="28746.9"
textLength="789.183" font-size="524.934" lengthAdjust="spacingAndGlyphs"
text-anchor="middle" opacity="0">A4</text>
</g>
<path d="M58165 28831
L58165 28643
" />
<path d="M58278 28868
L57884 28737
L58278 28606
" />
<path d="M58015 28306
L58278 28306
" />
<path d="M57865 28400
L58146 28493
L58146 28250
" />
<g transform="rotate(-90 57100 28550)">
<text x="57100" y="28746.9"
textLength="789.183" font-size="524.934" lengthAdjust="spacingAndGlyphs"
text-anchor="middle" opacity="0">A5</text>
</g>
<path d="M57165 28831
L57165 28643
" />
<path d="M57278 28868
L56884 28737
L57278 28606
" />
<path d="M56884 28287
L56884 28475
L57071 28493
L57053 28475
L57034 28437
L57034 28343
L57053 28306
L57071 28287
L57109 28268
L57203 28268
L57240 28287
L57259 28306
L57278 28343
L57278 28437
L57259 28475
L57240 28493
" />
<g transform="rotate(-90 54800 28800)">
<text x="54800" y="28996.9"
textLength="1276.62" font-size="524.934" lengthAdjust="spacingAndGlyphs"
text-anchor="middle" opacity="0">GND</text>
</g>
<path d="M54603 29099
L54584 29137
L54584 29193
L54603 29249
L54640 29287
L54678 29306
L54753 29324
L54809 29324
L54884 29306
L54921 29287
L54959 29249
L54978 29193
L54978 29156
L54959 29099
L54940 29081
L54809 29081
L54809 29156
" />
<path d="M54978 28912
L54584 28912
L54978 28687
L54584 28687
" />
<path d="M54978 28500
L54584 28500
L54584 28406
L54603 28350
L54640 28312
L54678 28293
L54753 28275
L54809 28275
L54884 28293
L54921 28312
L54959 28350
L54978 28406
L54978 28500
" />
<g transform="rotate(-90 53900 28800)">
<text x="53900" y="28996.9"
textLength="1276.62" font-size="524.934" lengthAdjust="spacingAndGlyphs"
text-anchor="middle" opacity="0">+5V</text>
</g>
<path d="M53928 29306
L53928 29006
" />
<path d="M54078 29156
L53778 29156
" />
<path d="M53684 28631
L53684 28818
L53871 28837
L53853 28818
L53834 28781
L53834 28687
L53853 28650
L53871 28631
L53909 28612
L54003 28612
L54040 28631
L54059 28650
L54078 28687
L54078 28781
L54059 28818
L54040 28837
" />
<path d="M53684 28500
L54078 28368
L53684 28237
" />
<g transform="rotate(-90 52800 29700)">
<text x="52800" y="29896.9"
textLength="2982.66" font-size="524.934" lengthAdjust="spacingAndGlyphs"
text-anchor="middle" opacity="0">TEMP_POT</text>
</g>
<path d="M52584 31115
L52584 30890
" />
<path d="M52978 31002
L52584 31002
" />
<path d="M52771 30759
L52771 30628
" />
<path d="M52978 30571
L52978 30759
L52584 30759
L52584 30571
" />
<path d="M52978 30403
L52584 30403
L52865 30271
L52584 30140
L52978 30140
" />
<path d="M52978 29953
L52584 29953
L52584 29803
L52603 29765
L52621 29746
L52659 29728
L52715 29728
L52753 29746
L52771 29765
L52790 29803
L52790 29953
" />
<path d="M53015 29653
L53015 29353
" />
<path d="M52978 29259
L52584 29259
L52584 29109
L52603 29071
L52621 29053
L52659 29034
L52715 29034
L52753 29053
L52771 29071
L52790 29109
L52790 29259
" />
<path d="M52584 28790
L52584 28715
L52603 28678
L52640 28640
L52715 28622
L52846 28622
L52921 28640
L52959 28678
L52978 28715
L52978 28790
L52959 28828
L52921 28865
L52846 28884
L52715 28884
L52640 28865
L52603 28828
L52584 28790
" />
<path d="M52584 28509
L52584 28284
" />
<path d="M52978 28397
L52584 28397
" />
<g transform="rotate(-90 51800 29800)">
<text x="51800" y="29996.9"
textLength="3170.14" font-size="524.934" lengthAdjust="spacingAndGlyphs"
text-anchor="middle" opacity="0">BTN_RIGHT</text>
</g>
<path d="M51771 31121
L51790 31065
L51809 31046
L51846 31027
L51903 31027
L51940 31046
L51959 31065
L51978 31102
L51978 31252
L51584 31252
L51584 31121
L51603 31084
L51621 31065
L51659 31046
L51696 31046
L51734 31065
L51753 31084
L51771 31121
L51771 31252
" />
<path d="M51584 30915
L51584 30690
" />
<path d="M51978 30802
L51584 30802
" />
<path d="M51978 30559
L51584 30559
L51978 30334
L51584 30334
" />
<path d="M52015 30240
L52015 29940
" />
<path d="M51978 29621
L51790 29753
" />
<path d="M51978 29846
L51584 29846
L51584 29696
L51603 29659
L51621 29640
L51659 29621
L51715 29621
L51753 29640
L51771 29659
L51790 29696
L51790 29846
" />
<path d="M51978 29453
L51584 29453
" />
<path d="M51603 29059
L51584 29096
L51584 29153
L51603 29209
L51640 29246
L51678 29265
L51753 29284
L51809 29284
L51884 29265
L51921 29246
L51959 29209
L51978 29153
L51978 29115
L51959 29059
L51940 29040
L51809 29040
L51809 29115
" />
<path d="M51978 28871
L51584 28871
" />
<path d="M51771 28871
L51771 28647
" />
<path d="M51978 28647
L51584 28647
" />
<path d="M51584 28515
L51584 28290
" />
<path d="M51978 28403
L51584 28403
" />
<g transform="rotate(-90 50800 29600)">
<text x="50800" y="29796.9"
textLength="2795.18" font-size="524.934" lengthAdjust="spacingAndGlyphs"
text-anchor="middle" opacity="0">BTN_LEFT</text>
</g>
<path d="M50771 30734
L50790 30677
L50809 30659
L50846 30640
L50903 30640
L50940 30659
L50959 30677
L50978 30715
L50978 30865
L50584 30865
L50584 30734
L50603 30696
L50621 30677
L50659 30659
L50696 30659
L50734 30677
L50753 30696
L50771 30734
L50771 30865
" />
<path d="M50584 30528
L50584 30303
" />
<path d="M50978 30415
L50584 30415
" />
<path d="M50978 30171
L50584 30171
L50978 29946
L50584 29946
" />
<path d="M51015 29853
L51015 29553
" />
<path d="M50978 29271
L50978 29459
L50584 29459
" />
<path d="M50771 29140
L50771 29009
" />
<path d="M50978 28953
L50978 29140
L50584 29140
L50584 28953
" />
<path d="M50771 28653
L50771 28784
" />
<path d="M50978 28784
L50584 28784
L50584 28597
" />
<path d="M50584 28503
L50584 28278
" />
<path d="M50978 28390
L50584 28390
" />
<g transform="rotate(-90 49900 29650)">
<text x="49900" y="29846.9"
textLength="2926.42" font-size="524.934" lengthAdjust="spacingAndGlyphs"
text-anchor="middle" opacity="0">DOCK_SIG</text>
</g>
<path d="M50078 30981
L49684 30981
L49684 30887
L49703 30831
L49740 30793
L49778 30774
L49853 30756
L49909 30756
L49984 30774
L50021 30793
L50059 30831
L50078 30887
L50078 30981
" />
<path d="M49684 30512
L49684 30437
L49703 30399
L49740 30362
L49815 30343
L49946 30343
L50021 30362
L50059 30399
L50078 30437
L50078 30512
L50059 30549
L50021 30587
L49946 30606
L49815 30606
L49740 30587
L49703 30549
L49684 30512
" />
<path d="M50040 29949
L50059 29968
L50078 30024
L50078 30062
L50059 30118
L50021 30156
L49984 30174
L49909 30193
L49853 30193
L49778 30174
L49740 30156
L49703 30118
L49684 30062
L49684 30024
L49703 29968
L49721 29949
" />
<path d="M50078 29781
L49684 29781
" />
<path d="M50078 29556
L49853 29724
" />
<path d="M49684 29556
L49909 29781
" />
<path d="M50115 29481
L50115 29181
" />
<path d="M50059 29106
L50078 29050
L50078 28956
L50059 28918
L50040 28900
L50003 28881
L49965 28881
L49928 28900
L49909 28918
L49890 28956
L49871 29031
L49853 29068
L49834 29087
L49796 29106
L49759 29106
L49721 29087
L49703 29068
L49684 29031
L49684 28937
L49703 28881
" />
<path d="M50078 28712
L49684 28712
" />
<path d="M49703 28318
L49684 28356
L49684 28412
L49703 28468
L49740 28506
L49778 28525
L49853 28543
L49909 28543
L49984 28525
L50021 28506
L50059 28468
L50078 28412
L50078 28375
L50059 28318
L50040 28300
L49909 28300
L49909 28375
" />
</g>
<g style="fill:#000000; fill-opacity:0.0; 
stroke:#000000; stroke-width:118.11; stroke-opacity:1; 
stroke-linecap:round; stroke-linejoin:round;">
<g transform="rotate(-90 42126 48070.9)">
<text x="42126" y="48366.1"
textLength="4182.51" font-size="787.402" lengthAdjust="spacingAndGlyphs"
text-anchor="middle" opacity="0">MAX. 15V</text>
</g>
<path d="M42393 49983
L41802 49983
L42224 49786
L41802 49589
L42393 49589
" />
<path d="M42224 49336
L42224 49055
" />
<path d="M42393 49392
L41802 49195
L42393 48998
" />
<path d="M41802 48858
L42393 48464
" />
<path d="M41802 48464
L42393 48858
" />
<path d="M42336 48239
L42365 48211
L42393 48239
L42365 48267
L42336 48239
L42393 48239
" />
<path d="M42393 47199
L42393 47536
" />
<path d="M42393 47367
L41802 47367
L41886 47424
L41943 47480
L41971 47536
" />
<path d="M41802 46664
L41802 46946
L42083 46974
L42055 46946
L42027 46889
L42027 46749
L42055 46692
L42083 46664
L42140 46636
L42280 46636
L42336 46664
L42365 46692
L42393 46749
L42393 46889
L42365 46946
L42336 46974
" />
<path d="M41802 46467
L42393 46271
L41802 46074
" />
</g>
<g style="fill:#000000; fill-opacity:1.0; 
stroke:#000000; stroke-width:3.93701; stroke-opacity:1; 
stroke-linecap:round; stroke-linejoin:round;">
<path style="fill:#000000; fill-opacity:1.0; 
stroke:#000000; stroke-width:3.93701; stroke-opacity:1; 
stroke-linecap:round; stroke-linejoin:round;fill-rule:evenodd;"
d="M 61364.7,52495.5
61482.7,52555.5
61596.4,52653.5
61684.1,52767.9
61719.9,52850.8
61735,52945.7
61726.4,53035.4
61688.9,53129.7
61617.1,53238
61505.8,53370
61349.7,53535.3
61335.4,53549.9
61206.1,53683.9
61089.9,53807.3
60996.6,53909.7
60936,53980.2
60921.8,53999.1
60869.8,54119.9
60880.6,54238.1
60955.4,54360.1
60996.1,54403.9
61117.7,54499.8
61233.3,54532.1
61353.1,54501.9
61436.7,54450.3
61628,54334.6
61803.3,54278.6
61959,54282.7
62091.9,54347.1
62125.9,54377.4
62183.4,54453.3
62184.9,54499.2
62137.6,54506.4
62051.8,54467.8
61902.4,54408.1
61753.7,54414.7
61603.7,54487.8
61585.1,54501.4
61475.8,54570.5
61359.5,54624.3
61323.7,54635.9
61172.5,54644.2
61025.4,54594
60896.4,54492.5
60806.2,54361.3
60762.6,54256.5
60746.1,54161.1
60760.7,54065.8
60810.6,53961.5
60899.7,53839
61032.2,53689.3
61166,53550
61320.6,53390.6
61433.7,53268.6
61511.8,53175
61561,53100.8
61587.9,53037
61598.6,52974.4
61600,52932.2
61570.1,52818.7
61492.5,52713.7
61385.8,52635
61268.3,52600.4
61255.9,52600
61143.3,52625.9
61028.2,52691.6
60937.2,52779.5
60905.2,52835.3
60877.5,52872.9
60809.3,52952.2
60706.4,53067
60574.4,53211.1
60419,53378.2
60246,53562.1
60151.1,53662.2
59970.8,53852.8
59805.1,54030.7
59659.6,54189.4
59540.1,54322.5
59452.3,54423.6
59402.2,54486.4
59392.9,54501.6
59386.7,54588.5
59401.7,54636.5
59424.5,54713.7
59401.8,54755.9
59346.9,54759.3
59273.1,54720
59234,54684
59156.3,54601.4
58577.7,55167.5
58408,55332.1
58246.1,55486.4
58100.6,55622.6
57980.1,55732.4
57893.2,55808.1
57861.2,55833.5
57749.4,55904.5
57672.5,55931.8
57635.7,55914
57633.3,55898.3
57658.7,55812.6
57726.1,55708.4
57822.1,55604.7
57865.7,55567.5
57942.4,55499.6
57991.1,55442.9
58000,55421.8
58022.6,55387.3
58085.8,55313.8
58182.3,55209
58305.2,55080.6
58447.2,54936.1
58479.7,54903.7
58664.2,54722.2
58806.9,54588.5
58910,54500.4
58976,54455.8
59004.7,54450.7
59009.3,54443.9
58974.9,54399.8
58924.9,54345
58850.8,54258
58826.2,54202.1
58835.9,54177.4
58890,54157.9
58966,54176.6
59000.3,54188.7
59032.6,54194
59068.4,54188.3
59113.3,54167.5
59173,54127.2
59253,54063.3
59359,53971.5
59496.5,53847.7
59671.2,53687.5
59888.6,53486.9
59916.7,53461
60163.1,53234.3
60367.1,53048.9
60534.6,52900
60671.4,52782.9
60783.4,52692.9
60876.4,52625.2
60956.3,52575
61028.8,52537.8
61086.8,52513.6
61195.5,52479.6
61283,52476.6
Z" /> 
<path style="fill:#000000; fill-opacity:1.0; 
stroke:#000000; stroke-width:3.93701; stroke-opacity:1; 
stroke-linecap:round; stroke-linejoin:round;fill-rule:evenodd;"
d="M 65570,50602.4
65630.4,50613.1
65654.7,50637.1
65658.3,50666.7
65634.8,50722.4
65591.7,50733.3
65561.3,50737.9
65541.9,50759.7
65531,50810.7
65526.2,50903.1
65525,51048.8
65525,51066.7
65525.9,51218.4
65530.3,51315.5
65540.5,51370.1
65558.9,51394.2
65588.1,51400
65591.7,51400
65647.4,51423.6
65658.3,51466.7
65651,51503.9
65619,51524
65546.9,51532.1
65458.3,51533.3
65346.6,51530.9
65286.3,51520.2
65262,51496.2
65258.3,51466.7
65281.9,51411
65325,51400
65355.3,51395.4
65374.8,51373.7
65385.7,51322.6
65390.5,51230.3
65391.7,51084.5
65391.7,51066.7
65390.8,50915
65386.4,50817.8
65376.2,50763.2
65357.7,50739.1
65328.6,50733.4
65325,50733.3
65269.3,50709.8
65258.3,50666.7
65265.6,50629.4
65297.7,50609.3
65369.7,50601.2
65458.3,50600
Z" /> 
<path style="fill:#000000; fill-opacity:1.0; 
stroke:#000000; stroke-width:3.93701; stroke-opacity:1; 
stroke-linecap:round; stroke-linejoin:round;fill-rule:evenodd;"
d="M 64771.7,50772.4
64791.7,50783.3
64773.7,50816.9
64727,50888
64671,50967.7
64550.4,51135.6
64671,51317.3
64732.7,51412.6
64776.2,51484.4
64791.7,51516.2
64762.8,51528.5
64697.8,51533.3
64627.7,51519.7
64574.3,51467.8
64540.1,51408.3
64476.2,51283.3
64465.3,51408.3
64449.7,51494
64417,51529.4
64389.7,51533.3
64361.8,51528.8
64343.4,51507.8
64332.4,51459
64326.9,51371.1
64325.1,51233.1
64325,51150
64325.7,50985.3
64329.1,50876
64337.2,50810.8
64352,50778.4
64375.4,50767.5
64391.7,50766.7
64436.5,50778.8
64455.4,50826.9
64458.3,50891.1
64458.3,51015.5
64542.9,50891.1
64621.7,50800.2
64698.7,50767.1
64709.5,50766.7
Z" /> 
<path style="fill:#000000; fill-opacity:1.0; 
stroke:#000000; stroke-width:3.93701; stroke-opacity:1; 
stroke-linecap:round; stroke-linejoin:round;fill-rule:evenodd;"
d="M 64125,51150
64124.3,51314.7
64120.9,51424
64112.8,51489.2
64098,51521.6
64074.6,51532.5
64058.3,51533.3
64028,51528.8
64008.6,51507
63997.6,51456
63992.8,51363.6
63991.7,51217.9
63991.7,51200
63991.7,50866.7
63825,50866.7
63825,51200
63824.1,51351.7
63819.7,51448.8
63809.5,51503.4
63791.1,51527.6
63761.9,51533.3
63758.3,51533.3
63728,51528.8
63708.6,51507
63697.6,51456
63692.8,51363.6
63691.7,51217.9
63691.7,51200
63691.7,50866.7
63525,50866.7
63525,51200
63524.1,51351.7
63519.7,51448.8
63509.5,51503.4
63491.1,51527.6
63461.9,51533.3
63458.3,51533.3
63429.7,51529.3
63410.7,51509.6
63399.3,51462.9
63393.7,51378.1
63391.8,51243.7
63391.7,51150
63391.7,50766.7
64125,50766.7
Z" /> 
<path style="fill:#000000; fill-opacity:1.0; 
stroke:#000000; stroke-width:3.93701; stroke-opacity:1; 
stroke-linecap:round; stroke-linejoin:round;fill-rule:evenodd;"
d="M 61840.3,50106.7
61857.8,50138.4
61899.8,50217.1
61959.9,50330.8
62028.1,50460.4
62208.3,50804.1
62217.8,50468.7
62227.3,50133.3
62458.3,50133.3
62458.3,51533.3
62358.6,51533.3
62316.2,51529.7
62279.7,51512.6
62242,51472.5
62195.7,51399.9
62133.8,51285.3
62060.3,51141.7
61861.8,50750
61860.1,51141.7
61858.3,51533.3
61658.3,51533.3
61658.3,50140.6
61745.6,50118.7
61812.1,50105.8
Z" /> 
<path style="fill:#000000; fill-opacity:1.0; 
stroke:#000000; stroke-width:3.93701; stroke-opacity:1; 
stroke-linecap:round; stroke-linejoin:round;fill-rule:evenodd;"
d="M 61291.7,51533.3
60491.7,51533.3
60491.7,50300
60691.7,50300
60691.7,51333.3
61058.3,51333.3
61058.3,50300
60691.7,50300
60491.7,50300
60491.7,50133.3
61291.7,50133.3
Z" /> 
<path style="fill:#000000; fill-opacity:1.0; 
stroke:#000000; stroke-width:3.93701; stroke-opacity:1; 
stroke-linecap:round; stroke-linejoin:round;fill-rule:evenodd;"
d="M 60058.3,50900
59856,50900
60197.4,51533.3
59905.9,51533.3
59740.5,51217.2
59670.7,51088
59610.5,50984.3
59567.3,50918.1
59550,50900.5
59539.3,50931.2
59530.8,51014.1
59525.9,51134.8
59525,51216.7
59525,51533.3
59325,51533.3
59325,50300
59525,50300
59525,50733.3
59825,50733.3
59825,50300
59525,50300
59325,50300
59325,50133.3
60058.3,50133.3
Z" /> 
<path style="fill:#000000; fill-opacity:1.0; 
stroke:#000000; stroke-width:3.93701; stroke-opacity:1; 
stroke-linecap:round; stroke-linejoin:round;fill-rule:evenodd;"
d="M 58845.5,50134.1
58929.3,50139
58972.7,50151.9
58989.1,50176.6
58991.7,50216.7
58977.9,50280.1
58923.7,50299.6
58908.3,50300
58825,50300
58825,51366.7
58908.3,51366.7
58971.8,51380.4
58991.3,51434.6
58991.7,51450
58988.8,51491.3
58971.2,51516.1
58925.3,51528.5
58837.4,51532.8
58725,51533.3
58592.7,51532.4
58513.6,51526.9
58473.8,51512.6
58460,51485.1
58458.3,51450
58472.1,51386.6
58526.3,51367
58541.7,51366.7
58625,51366.7
58625,50300
58525,50300
58453.5,50291
58427.4,50252.9
58425,50216.7
58427.6,50176.3
58444.2,50151.7
58488,50138.9
58572.2,50134.1
58708.3,50133.3
Z" /> 
<path style="fill:#000000; fill-opacity:1.0; 
stroke:#000000; stroke-width:3.93701; stroke-opacity:1; 
stroke-linecap:round; stroke-linejoin:round;fill-rule:evenodd;"
d="M 57833.3,50100.5
58158.3,50100
58158.3,50300
57558.3,50300
57558.3,50633.3
57858.3,50633.3
58000.3,50634
58088.5,50638.4
58135.7,50650
58154.7,50672.5
58158.3,50709.3
58158.3,50716.7
58155.9,50756.1
58140.2,50780.6
58098.3,50793.7
58017.5,50799
57884.8,50800
57858.3,50800
57558.3,50800
57558.3,51333.3
58158.3,51333.3
58158.3,51533.3
57358.3,51533.3
57358.3,50837.2
57357.3,50596.8
57357.8,50414.9
57365,50283.4
57384.1,50194.3
57420.3,50139.3
57478.9,50110.6
57564.9,50099.9
57683.8,50099.2
Z" /> 
<path style="fill:#000000; fill-opacity:1.0; 
stroke:#000000; stroke-width:3.93701; stroke-opacity:1; 
stroke-linecap:round; stroke-linejoin:round;fill-rule:evenodd;"
d="M 56666.7,50100.5
56991.7,50100
56991.7,50300
56391.7,50300
56391.7,50633.3
56691.7,50633.3
56833.7,50634
56921.9,50638.4
56969,50650
56988,50672.5
56991.7,50709.3
56991.7,50716.7
56989.3,50756.1
56973.6,50780.6
56931.7,50793.7
56850.8,50799
56718.1,50800
56691.7,50800
56391.7,50800
56391.7,51333.3
56991.7,51333.3
56991.7,51533.3
56191.7,51533.3
56191.7,50837.2
56190.7,50596.8
56191.2,50414.9
56198.4,50283.4
56217.5,50194.3
56253.7,50139.3
56312.2,50110.6
56398.3,50099.9
56517.1,50099.2
Z" /> 
<path style="fill:#000000; fill-opacity:1.0; 
stroke:#000000; stroke-width:3.93701; stroke-opacity:1; 
stroke-linecap:round; stroke-linejoin:round;fill-rule:evenodd;"
d="M 55725,50416.7
55727.1,50558.3
55734.9,50645
55750.4,50688.4
55775,50700
55796.2,50709.8
55810.6,50746
55819.4,50818.6
55823.8,50937.6
55825,51113
55825,51116.7
55825,51533.3
55025,51533.3
55025,50866.7
55225,50866.7
55225,51333.3
55591.7,51333.3
55591.7,50866.7
55225,50866.7
55025,50866.7
55025,50300
55225,50300
55225,50700
55491.7,50700
55491.7,50300
55225,50300
55025,50300
55025,50133.3
55725,50133.3
Z" /> 
</g>
<g style="fill:#000000; fill-opacity:1.0; 
stroke:#000000; stroke-width:47.2441; stroke-opacity:1; 
stroke-linecap:round; stroke-linejoin:round;">
</g>
<g style="fill:#000000; fill-opacity:0.0; 
stroke:#000000; stroke-width:47.2441; stroke-opacity:1; 
stroke-linecap:round; stroke-linejoin:round;">
<path d="M53135 39578
L53421 39578
" />
<path d="M53421 39578
L53421 39864
" />
<path d="M50864 42421
L50578 42421
" />
<path d="M50578 42421
L50578 42135
" />
<path d="M53135 42421
L53421 42421
" />
<path d="M53421 42421
L53421 42135
" />
<path d="M50864 39578
L50578 39578
" />
<path d="M39386 37473
L39386 37709
" />
<path d="M39267 37591
L39386 37709
" />
<path d="M39267 37591
L39386 37473
" />
<path d="M39177 35556
L39177 35898
" />
<path d="M39177 38603
L38362 38603
" />
<path d="M39177 35556
L38362 35556
" />
<path d="M39177 38261
L39177 38603
" />
<path d="M37417 38603
L37319 38603
" />
<path d="M37417 35556
L37319 35556
" />
<path d="M54420 38632
L54420 38429
" />
<path d="M54979 38632
L54979 38429
" />
<path d="M54867 42154
L55070 42154
" />
<path d="M54867 41595
L55070 41595
" />
<path d="M46720 41020
L46517 41020
" />
<path d="M46720 41579
L46517 41579
" />
<path d="M38321 40209
L38118 40209
" />
<path d="M38321 39650
L38118 39650
" />
<path d="M41549 43509
L41752 43509
" />
<path d="M41549 42950
L41752 42950
" />
<path d="M41518 43950
L41721 43950
" />
<path d="M41518 44509
L41721 44509
" />
<path d="M47420 51629
L47420 51832
" />
<path d="M47979 51629
L47979 51832
" />
<path d="M50720 52129
L50720 52332
" />
<path d="M51279 52129
L51279 52332
" />
<path d="M46329 51420
L46532 51420
" />
<path d="M46329 51979
L46532 51979
" />
<path d="M53628 43925
L53628 44129
" />
<path d="M53068 43925
L53068 44129
" />
<path d="M50608 44129
L50608 43925
" />
<path d="M50048 44129
L50048 43925
" />
<path d="M47979 50370
L47979 50167
" />
<path d="M47420 50370
L47420 50167
" />
<path d="M47267 48520
L47470 48520
" />
<path d="M47267 49079
L47470 49079
" />
<path d="M51101 38220
L50898 38220
" />
<path d="M51101 38779
L50898 38779
" />
<path d="M49482 41279
L49279 41279
" />
<path d="M49482 40720
L49279 40720
" />
<path d="M52220 38232
L52220 38029
" />
<path d="M52779 38232
L52779 38029
" />
<path d="M43413 46644
L43413 48179
" />
<path d="M42626 46644
L42626 48179
" />
<path d="M43413 46644
L42626 46644
" />
<path d="M50781 45953
L49251 45953
" />
<path d="M49251 45953
L49251 46846
" />
<path d="M49251 46846
L50781 46846
" />
<path d="M53293 47114
L52506 47114
" />
<path d="M52506 47114
L52506 48649
" />
<path d="M53293 47114
L53293 48649
" />
<path d="M54293 47114
L54293 48649
" />
<path d="M53506 47114
L53506 48649
" />
<path d="M54293 47114
L53506 47114
" />
<path d="M55293 47114
L54506 47114
" />
<path d="M54506 47114
L54506 48649
" />
<path d="M55293 47114
L55293 48649
" />
<path d="M56293 47114
L55506 47114
" />
<path d="M55506 47114
L55506 48649
" />
<path d="M56293 47114
L56293 48649
" />
<path d="M60336 46530
L60336 46373
" />
<path d="M58407 46294
L58879 46294
" />
<path d="M58407 46806
L58407 46294
" />
<path d="M60336 47948
L60336 49286
" />
<path d="M58485 46373
L58485 49286
" />
<path d="M67698 46373
L58485 46373
" />
<path d="M67698 49286
L67698 46373
" />
<path d="M58485 49286
L67698 49286
" />
<path d="M48505 32395
L48505 33294
" />
<path d="M49084 32395
L48505 32395
" />
<path d="M49084 33294
L49084 32395
" />
<path d="M48284 33294
L48284 32395
" />
<path d="M48284 32395
L47705 32395
" />
<path d="M47705 32395
L47705 33294
" />
<path d="M46905 32415
L46905 33315
" />
<path d="M47484 32415
L46905 32415
" />
<path d="M47484 33315
L47484 32415
" />
<path d="M46684 33304
L46684 32405
" />
<path d="M46684 32405
L46105 32405
" />
<path d="M46105 32405
L46105 33304
" />
<path d="M43378 45141
L43378 45615
" />
<path d="M42661 45141
L42661 45615
" />
<path d="M42004 38723
L40912 38723
" />
<path d="M42004 37376
L40912 37376
" />
<path d="M55004 39299
L54875 39299
" />
<path d="M55004 39700
L54875 39700
" />
<path d="M43220 43765
L43220 43894
" />
<path d="M42819 43765
L42819 43894
" />
<path d="M50803 53476
L50803 54000
" />
<path d="M50280 53476
L50803 53476
" />
<path d="M49780 53476
L49780 54523
" />
<path d="M49780 54523
L47756 54523
" />
<path d="M49780 53476
L47756 53476
" />
<path d="M47756 53476
L47756 54523
" />
<path d="M46523 54523
L46523 53476
" />
<path d="M44500 54523
L46523 54523
" />
<path d="M44500 53476
L46523 53476
" />
<path d="M44500 54523
L44500 53476
" />
<path d="M44000 54523
L43476 54523
" />
<path d="M43476 54523
L43476 54000
" />
<path d="M45576 44923
L47623 44923
" />
<path d="M45576 42900
L45576 44923
" />
<path d="M47623 41876
L47623 44923
" />
<path d="M45576 42900
L46600 42900
" />
<path d="M46600 42900
L46600 41876
" />
<path d="M46600 41876
L47623 41876
" />
<path d="M45576 42400
L45576 41876
" />
<path d="M45576 41876
L46100 41876
" />
<path d="M54506 46683
L55553 46683
" />
<path d="M54506 43660
L54506 46683
" />
<path d="M55553 43660
L55553 46683
" />
<path d="M54506 43660
L55553 43660
" />
<path d="M54506 43160
L54506 42636
" />
<path d="M54506 42636
L55030 42636
" />
<path d="M49276 28023
L49276 27500
" />
<path d="M49800 28023
L49276 28023
" />
<path d="M50300 28023
L50300 26976
" />
<path d="M50300 26976
L55323 26976
" />
<path d="M50300 28023
L55323 28023
" />
<path d="M55323 28023
L55323 26976
" />
<path d="M48023 28023
L48023 26976
" />
<path d="M43000 28023
L48023 28023
" />
<path d="M43000 26976
L48023 26976
" />
<path d="M43000 28023
L43000 26976
" />
<path d="M42500 28023
L41976 28023
" />
<path d="M41976 28023
L41976 27500
" />
<path d="M65887 35584
L65887 39615
" />
<path d="M64060 35584
L64060 39615
" />
<path d="M65887 35584
L64060 35584
" />
<path d="M65887 39615
L64060 39615
" />
<path d="M65292 35584
L65292 39615
" />
<path d="M65887 36871
L65292 36871
" />
<path d="M65887 38328
L65292 38328
" />
<path d="M48532 46120
L48329 46120
" />
<path d="M48532 46679
L48329 46679
" />
<path d="M52020 51601
L52020 51398
" />
<path d="M52579 51601
L52579 51398
" />
<path d="M53379 51601
L53379 51398
" />
<path d="M52820 51601
L52820 51398
" />
<path d="M53620 51601
L53620 51398
" />
<path d="M54179 51601
L54179 51398
" />
<path d="M46570 50520
L46367 50520
" />
<path d="M46570 51079
L46367 51079
" />
<path d="M46570 50079
L46367 50079
" />
<path d="M46570 49520
L46367 49520
" />
<path d="M45598 49079
L45801 49079
" />
<path d="M45598 48520
L45801 48520
" />
<path d="M58848 36570
L59051 36570
" />
<path d="M58848 37129
L59051 37129
" />
<path d="M58848 37520
L59051 37520
" />
<path d="M58848 38079
L59051 38079
" />
<path d="M58470 31779
L58267 31779
" />
<path d="M58470 31220
L58267 31220
" />
<path d="M58817 38420
L59020 38420
" />
<path d="M58817 38979
L59020 38979
" />
<path d="M48515 35460
L48515 35257
" />
<path d="M49074 35460
L49074 35257
" />
<path d="M47715 35491
L47715 35288
" />
<path d="M48274 35491
L48274 35288
" />
<path d="M47474 35491
L47474 35288
" />
<path d="M46915 35491
L46915 35288
" />
<path d="M46115 35491
L46115 35288
" />
<path d="M46674 35491
L46674 35288
" />
<path d="M54867 41279
L55070 41279
" />
<path d="M54867 40720
L55070 40720
" />
<path d="M60229 44670
L60229 44467
" />
<path d="M59670 44670
L59670 44467
" />
<path d="M41967 35670
L42170 35670
" />
<path d="M41967 36229
L42170 36229
" />
<path d="M41967 37079
L42170 37079
" />
<path d="M41967 36520
L42170 36520
" />
<path d="M51304 48628
L48895 48628
" />
<path d="M48895 48628
L48895 47171
" />
<path d="M48895 47171
L51304 47171
" />
<path d="M51304 47171
L51304 48628
" />
<path d="M37865 41863
L38574 41863
" />
<path d="M38574 40596
L37609 40596
" />
<path d="M38368 42887
L38368 43383
" />
<path d="M38368 45572
L38368 45076
" />
<path d="M39848 42887
L38368 42887
" />
<path d="M40734 45572
L38368 45572
" />
<path d="M49800 51427
L50666 51427
" />
<path d="M49800 51427
L48933 51427
" />
<path d="M49800 49372
L50666 49372
" />
<path d="M49800 49372
L48382 49372
" />
<path d="M57364 35273
L57856 35273
" />
<path d="M57364 32226
L57364 35273
" />
<path d="M59135 32226
L57364 32226
" />
<path d="M59135 35273
L59135 32226
" />
<path d="M58643 35273
L59135 35273
" />
<path d="M58643.7 35273.6 A393.701 393.701 0.0 0 0 57856.3 35273.6" />
<path d="M58893 43223
L59385 43223
" />
<path d="M59385 43223
L59385 40176
" />
<path d="M59385 40176
L57614 40176
" />
<path d="M57614 40176
L57614 43223
" />
<path d="M57614 43223
L58106 43223
" />
<path d="M58893.7 43223.6 A393.701 393.701 0.0 0 0 58106.3 43223.6" />
<path d="M52902 45156
L52902 43385
" />
<path d="M52902 43385
L50776 43385
" />
<path d="M43077 42377
L43077 41294
" />
<path d="M43077 39022
L43077 40105
" />
<path d="M40142 39022
L43077 39022
" />
<path d="M40142 42377
L43077 42377
" />
<path d="M39723 41958
L39723 41294
" />
<path d="M39723 39441
L39723 40105
" />
<path d="M39723 39441
L40142 39022
" />
<path d="M39723 41958
L40142 42377
" />
<path d="M39235 39711
L39629 39711
" />
<path d="M39432 39514
L39432 39908
" />
<path d="M43548 37120
L43751 37120
" />
<path d="M43548 37679
L43751 37679
" />
</g>
<g style="fill:#000000; fill-opacity:0.0; 
stroke:#000000; stroke-width:59.0551; stroke-opacity:1; 
stroke-linecap:round; stroke-linejoin:round;">
<path d="M66820 38288
L66918 38288
" />
<path d="M66820 36911
L66918 36911
" />
<path d="M65835 36911
L65737 36911
" />
<path d="M65835 38288
L65737 38288
" />
<path d="M66229 38288
L66032 38288
" />
<path d="M66623 38288
L66426 38288
" />
<path d="M66229 36911
L66032 36911
" />
<path d="M66623 36911
L66426 36911
" />
<path d="M62194 43899
L61406 43899
" />
<path d="M63768 43899
L62981 43899
" />
<path d="M65343 43899
L64556 43899
" />
<path d="M66229 41733
L65343 41733
" />
<path d="M64556 41733
L63768 41733
" />
<path d="M62981 41733
L62194 41733
" />
<path d="M62194 31300
L61406 31300
" />
<path d="M62981 33466
L62194 33466
" />
<path d="M63768 31300
L62981 31300
" />
<path d="M65343 31300
L64556 31300
" />
<path d="M64556 33466
L63768 33466
" />
<path d="M66229 33466
L65343 33466
" />
<path d="M66229 31300
L66918 31300
" />
<path d="M66918 43899
L66229 43899
" />
<path d="M66229 33466
L66229 31300
" />
<path d="M63768 33466
L63768 31300
" />
<path d="M62981 31300
L62981 33466
" />
<path d="M62194 33466
L62194 31300
" />
<path d="M62981 41733
L62981 43899
" />
<path d="M63768 41733
L63768 43899
" />
<path d="M62194 41733
L62194 43899
" />
<path d="M66229 41733
L66229 43899
" />
<path d="M64556 41733
L64556 43899
" />
<path d="M65343 41733
L65343 43899
" />
<path d="M64556 31300
L64556 33466
" />
<path d="M65343 33466
L65343 31300
" />
<path d="M64556 40552
L61406 40552
" />
<path d="M64556 34647
L61406 34647
" />
<path d="M65737 34647
L65343 34647
" />
<path d="M65737 40552
L65343 40552
" />
<path d="M61406 40552
L61406 43899
" />
<path d="M61406 34647
L61406 31300
" />
<path d="M65737 34647
L65737 40552
" />
<path d="M66918 31300
L66918 43899
" />
</g>
<g style="fill:#000000; fill-opacity:0.0; 
stroke:#000000; stroke-width:47.2441; stroke-opacity:1; 
stroke-linecap:round; stroke-linejoin:round;">
<path d="M43548 38529
L43751 38529
" />
<path d="M43548 37970
L43751 37970
" />
<path d="M41353 46753
L41353 46340
" />
<path d="M40939 46340
L41353 46340
" />
<path d="M38951 50041
L35486 50041
" />
<path d="M35486 50041
L35486 46418
" />
<path d="M41274 48978
L41274 50041
" />
<path d="M41274 50041
L40526 50041
" />
<path d="M35486 46418
L41274 46418
" />
<path d="M41274 46418
L41274 47442
" />
<path d="M43726 42223
L44773 42223
" />
<path d="M43726 40200
L43726 42223
" />
<path d="M44773 40200
L44773 42223
" />
<path d="M43726 40200
L44773 40200
" />
<path d="M43726 39700
L43726 39176
" />
<path d="M43726 39176
L44250 39176
" />
<path d="M40887 35640
L40178 35640
" />
<path d="M40178 36907
L41143 36907
" />
<path d="M52076 54523
L52076 54000
" />
<path d="M52600 54523
L52076 54523
" />
<path d="M53100 54523
L53100 53476
" />
<path d="M53100 53476
L55123 53476
" />
<path d="M53100 54523
L55123 54523
" />
<path d="M55123 54523
L55123 53476
" />
<path d="M56576 28023
L56576 27500
" />
<path d="M57100 28023
L56576 28023
" />
<path d="M57600 28023
L57600 26976
" />
<path d="M57600 26976
L61623 26976
" />
<path d="M57600 28023
L61623 28023
" />
<path d="M61623 28023
L61623 26976
" />
</g>
<g style="fill:#000000; fill-opacity:0.0; 
stroke:#000000; stroke-width:59.0551; stroke-opacity:1; 
stroke-linecap:round; stroke-linejoin:round;">
<g transform="rotate(-90 48800 34000)">
<text x="48800" y="34196.9"
textLength="472.254" font-size="524.934" lengthAdjust="spacingAndGlyphs"
text-anchor="middle" opacity="0">L</text>
</g>
<path d="M48978 33878
L48978 34065
L48584 34065
" />
<g transform="rotate(-90 47995 34050)">
<text x="47995" y="34246.9"
textLength="845.426" font-size="524.934" lengthAdjust="spacingAndGlyphs"
text-anchor="middle" opacity="0">RX</text>
</g>
<path d="M48173 34115
L47985 34246
" />
<path d="M48173 34340
L47779 34340
L47779 34190
L47798 34153
L47816 34134
L47854 34115
L47910 34115
L47948 34134
L47966 34153
L47985 34190
L47985 34340
" />
<path d="M47779 33984
L48173 33721
" />
<path d="M47779 33721
L48173 33984
" />
<g transform="rotate(-90 47200 34050)">
<text x="47200" y="34246.9"
textLength="751.687" font-size="524.934" lengthAdjust="spacingAndGlyphs"
text-anchor="middle" opacity="0">TX</text>
</g>
<path d="M46984 34349
L46984 34124
" />
<path d="M47378 34237
L46984 34237
" />
<path d="M46984 34031
L47378 33768
" />
<path d="M46984 33768
L47378 34031
" />
<g transform="rotate(-90 46400 34100)">
<text x="46400" y="34296.9"
textLength="901.669" font-size="524.934" lengthAdjust="spacingAndGlyphs"
text-anchor="middle" opacity="0">ON</text>
</g>
<path d="M46184 34343
L46184 34268
L46203 34231
L46240 34193
L46315 34174
L46446 34174
L46521 34193
L46559 34231
L46578 34268
L46578 34343
L46559 34381
L46521 34418
L46446 34437
L46315 34437
L46240 34418
L46203 34381
L46184 34343
" />
<path d="M46578 34006
L46184 34006
L46578 33781
L46184 33781
" />
<g >
</g>
</g> 
</svg>
