<?xml version="1.0" standalone="no"?>
 <!DOCTYPE svg PUBLIC "-//W3C//DTD SVG 1.1//EN" 
 "http://www.w3.org/Graphics/SVG/1.1/DTD/svg11.dtd"> 
<svg
  xmlns:svg="http://www.w3.org/2000/svg"
  xmlns="http://www.w3.org/2000/svg"
  xmlns:xlink="http://www.w3.org/1999/xlink"
  version="1.1"
  width="29.700220cm" height="21.000720cm" viewBox="0 0 116930 82680">
<title>SVG Picture created as JBC-T245 BEEIRON-B_SilkS.svg date 2020/09/06 20:15:26 </title>
  <desc>Picture generated by PCBNEW </desc>
<g style="fill:#000000; fill-opacity:1;stroke:#000000; stroke-opacity:1;
stroke-linecap:round; stroke-linejoin:round;"
 transform="translate(0 0) scale(1 1)">
</g>
<g style="fill:#000000; fill-opacity:0.0; 
stroke:#000000; stroke-width:-0.000393701; stroke-opacity:1; 
stroke-linecap:round; stroke-linejoin:round;">
</g>
<g style="fill:#000000; fill-opacity:1.0; 
stroke:#000000; stroke-width:3.93701; stroke-opacity:1; 
stroke-linecap:round; stroke-linejoin:round;">
<path style="fill:#000000; fill-opacity:1.0; 
stroke:#000000; stroke-width:3.93701; stroke-opacity:1; 
stroke-linecap:round; stroke-linejoin:round;fill-rule:evenodd;"
d="M 48478.3,35653.3
41811.7,35653.3
41811.7,33820
42245,33820
42245,35220
43645,35220
43645,33820
42245,33820
41811.7,33820
41811.7,33420
42445,33420
42445,33620
43045,33620
43045,33520
43053.3,33449.2
43092.2,33423.1
43145,33420
43215.8,33428.3
43241.9,33467.2
43245,33520
43245,33620
43645,33620
43645,33420
43245,33420
43245,33320
43236.7,33249.2
43197.8,33223.1
43145,33220
43045,33220
43045,33420
42445,33420
41811.7,33420
41811.7,33120
42245,33120
42253.3,33190.8
42292.2,33216.9
42345,33220
42415.8,33211.7
42441.9,33172.8
42445,33120
42436.7,33049.2
42397.8,33023.1
42345,33020
42274.2,33028.3
42248.1,33067.2
42245,33120
41811.7,33120
41811.7,32620
42645,32620
42645,33220
43045,33220
43045,32820
42945,32820
42874.2,32811.7
42848.1,32772.8
42845,32720
42836.7,32649.2
42797.8,32623.1
42745,32620
42645,32620
41811.7,32620
41811.7,31620
42245,31620
42245,32220
42445,32220
42445,31620
42545,31620
42615.8,31611.7
42641.9,31572.8
42645,31520
42636.7,31449.2
42597.8,31423.1
42545,31420
42474.2,31428.3
42448.1,31467.2
42445,31520
42436.7,31590.8
42397.8,31616.9
42345,31620
42245,31620
41811.7,31620
41811.7,31020
42245,31020
42245,31220
42845,31220
42845,31620
42945,31620
43015.8,31628.3
43041.9,31667.2
43045,31720
43053.3,31790.8
43092.2,31816.9
43145,31820
43215.8,31828.3
43241.9,31867.2
43245,31920
43245,32020
42845,32020
42845,31920
42836.7,31849.2
42797.8,31823.1
42745,31820
42645,31820
42645,32420
42745,32420
42815.8,32411.7
42841.9,32372.8
42845,32320
42853.3,32249.2
42892.2,32223.1
42945,32220
43045,32220
43045,32820
43145,32820
43215.8,32828.3
43241.9,32867.2
43245,32920
43253.3,32990.8
43292.2,33016.9
43345,33020
43415.8,33028.3
43441.9,33067.2
43445,33120
43453.3,33190.8
43492.2,33216.9
43545,33220
43615.8,33211.7
43641.9,33172.8
43645,33120
43636.7,33049.2
43597.8,33023.1
43545,33020
43474.2,33011.7
43448.1,32972.8
43445,32920
43445,32820
43845,32820
43845,32920
43853.3,32990.8
43892.2,33016.9
43945,33020
44015.8,33011.7
44041.9,32972.8
44045,32920
44053.3,32849.2
44092.2,32823.1
44145,32820
44215.8,32811.7
44241.9,32772.8
44245,32720
44245,32620
44645,32620
44645,32720
44653.3,32790.8
44692.2,32816.9
44745,32820
44815.8,32811.7
44841.9,32772.8
44845,32720
44836.7,32649.2
44797.8,32623.1
44745,32620
44645,32620
44645,32220
44745,32220
44815.8,32228.3
44841.9,32267.2
44845,32320
44853.3,32390.8
44892.2,32416.9
44945,32420
45045,32420
45045,33020
44845,33020
44845,33620
45245,33620
45245,33720
45236.7,33790.8
45197.8,33816.9
45145,33820
45074.2,33828.3
45048.1,33867.2
45045,33920
45045,34020
44445,34020
44445,33620
44345,33620
44274.2,33611.7
44248.1,33572.8
44245,33520
44236.7,33449.2
44197.8,33423.1
44145,33420
44074.2,33411.7
44048.1,33372.8
44045,33320
44445,33320
44453.3,33390.8
44492.2,33416.9
44545,33420
44615.8,33411.7
44641.9,33372.8
44645,33320
44636.7,33249.2
44597.8,33223.1
44545,33220
44474.2,33228.3
44448.1,33267.2
44445,33320
44045,33320
44036.7,33249.2
43997.8,33223.1
43945,33220
43874.2,33228.3
43848.1,33267.2
43845,33320
43853.3,33390.8
43892.2,33416.9
43945,33420
44015.8,33428.3
44041.9,33467.2
44045,33520
44036.7,33590.8
43997.8,33616.9
43945,33620
43874.2,33628.3
43848.1,33667.2
43845,33720
43853.3,33790.8
43892.2,33816.9
43945,33820
44045,33820
44045,34420
43845,34420
43845,35220
43945,35220
44015.8,35211.7
44041.9,35172.8
44045,35120
44053.3,35049.2
44092.2,35023.1
44145,35020
44215.8,35028.3
44241.9,35067.2
44245,35120
44245,35220
44645,35220
44645,35020
45045,35020
45045,34920
45053.3,34849.2
45092.2,34823.1
45145,34820
45215.8,34811.7
45241.9,34772.8
45245,34720
45236.7,34649.2
45197.8,34623.1
45145,34620
45074.2,34611.7
45048.1,34572.8
45045,34520
45036.7,34449.2
44997.8,34423.1
44945,34420
44874.2,34428.3
44848.1,34467.2
44845,34520
44836.7,34590.8
44797.8,34616.9
44745,34620
44645,34620
44645,34220
45245,34220
45245,34320
45253.3,34390.8
45292.2,34416.9
45345,34420
45445,34420
45445,34820
46045,34820
46045,34720
46053.3,34649.2
46092.2,34623.1
46145,34620
46245,34620
46245,35020
45645,35020
45645,35220
46845,35220
46845,35120
46853.3,35049.2
46892.2,35023.1
46945,35020
47045,35020
47045,34620
47445,34620
47445,34720
47436.7,34790.8
47397.8,34816.9
47345,34820
47274.2,34828.3
47248.1,34867.2
47245,34920
47253.3,34990.8
47292.2,35016.9
47345,35020
47415.8,35011.7
47441.9,34972.8
47445,34920
47453.3,34849.2
47492.2,34823.1
47545,34820
47645,34820
47645,35220
47845,35220
47845,34820
47745,34820
47674.2,34811.7
47648.1,34772.8
47645,34720
47636.7,34649.2
47597.8,34623.1
47545,34620
47474.2,34611.7
47448.1,34572.8
47445,34520
47453.3,34449.2
47492.2,34423.1
47545,34420
47845,34420
47845,34820
48045,34820
48045,34420
47845,34420
47545,34420
47615.8,34411.7
47641.9,34372.8
47645,34320
47636.7,34249.2
47597.8,34223.1
47545,34220
47445,34220
47445,33820
47545,33820
47615.8,33828.3
47641.9,33867.2
47645,33920
47653.3,33990.8
47692.2,34016.9
47745,34020
47815.8,34028.3
47841.9,34067.2
47845,34120
47853.3,34190.8
47892.2,34216.9
47945,34220
48015.8,34211.7
48041.9,34172.8
48045,34120
48036.7,34049.2
47997.8,34023.1
47945,34020
47874.2,34011.7
47848.1,33972.8
47845,33920
47853.3,33849.2
47892.2,33823.1
47945,33820
48015.8,33811.7
48041.9,33772.8
48045,33720
48045,33620
47645,33620
47645,33020
47845,33020
47845,32420
48045,32420
48045,32020
47645,32020
47645,31820
47245,31820
47245,31720
47236.7,31649.2
47197.8,31623.1
47145,31620
47074.2,31611.7
47048.1,31572.8
47045,31520
47053.3,31449.2
47092.2,31423.1
47145,31420
47445,31420
47445,31620
47845,31620
47845,31720
47853.3,31790.8
47892.2,31816.9
47945,31820
48015.8,31811.7
48041.9,31772.8
48045,31720
48036.7,31649.2
47997.8,31623.1
47945,31620
47874.2,31611.7
47848.1,31572.8
47845,31520
47853.3,31449.2
47892.2,31423.1
47945,31420
48045,31420
48045,31020
47845,31020
47845,31420
47445,31420
47145,31420
47215.8,31411.7
47241.9,31372.8
47245,31320
47245,31220
47645,31220
47645,31020
47045,31020
47045,31220
46645,31220
46645,31120
46636.7,31049.2
46597.8,31023.1
46545,31020
46445,31020
46445,30620
46245,30620
46245,29820
45845,29820
45845,29920
45836.7,29990.8
45797.8,30016.9
45745,30020
45674.2,30028.3
45648.1,30067.2
45645,30120
45636.7,30190.8
45597.8,30216.9
45545,30220
45474.2,30228.3
45448.1,30267.2
45445,30320
45453.3,30390.8
45492.2,30416.9
45545,30420
45615.8,30411.7
45641.9,30372.8
45645,30320
45653.3,30249.2
45692.2,30223.1
45745,30220
45815.8,30211.7
45841.9,30172.8
45845,30120
45853.3,30049.2
45892.2,30023.1
45945,30020
46045,30020
46045,30620
45945,30620
45874.2,30628.3
45848.1,30667.2
45845,30720
45836.7,30790.8
45797.8,30816.9
45745,30820
45674.2,30811.7
45648.1,30772.8
45645,30720
45636.7,30649.2
45597.8,30623.1
45545,30620
45474.2,30628.3
45448.1,30667.2
45445,30720
45436.7,30790.8
45397.8,30816.9
45345,30820
45274.2,30811.7
45248.1,30772.8
45245,30720
45236.7,30649.2
45197.8,30623.1
45145,30620
45074.2,30611.7
45048.1,30572.8
45045,30520
45053.3,30449.2
45092.2,30423.1
45145,30420
45245,30420
45245,30020
45345,30020
45415.8,30011.7
45441.9,29972.8
45445,29920
45436.7,29849.2
45397.8,29823.1
45345,29820
45274.2,29828.3
45248.1,29867.2
45245,29920
45236.7,29990.8
45197.8,30016.9
45145,30020
45045,30020
45045,30420
44845,30420
44845,30020
44745,30020
44674.2,30028.3
44648.1,30067.2
44645,30120
44636.7,30190.8
44597.8,30216.9
44545,30220
44445,30220
44445,30320
44436.7,30390.8
44397.8,30416.9
44345,30420
44245,30420
44245,31420
43845,31420
43845,31320
43853.3,31249.2
43892.2,31223.1
43945,31220
44015.8,31211.7
44041.9,31172.8
44045,31120
44036.7,31049.2
43997.8,31023.1
43945,31020
43874.2,31028.3
43848.1,31067.2
43845,31120
43836.7,31190.8
43797.8,31216.9
43745,31220
43674.2,31211.7
43648.1,31172.8
43645,31120
43636.7,31049.2
43597.8,31023.1
43545,31020
43474.2,31028.3
43448.1,31067.2
43445,31120
43453.3,31190.8
43492.2,31216.9
43545,31220
43615.8,31228.3
43641.9,31267.2
43645,31320
43636.7,31390.8
43597.8,31416.9
43545,31420
43474.2,31428.3
43448.1,31467.2
43445,31520
43436.7,31590.8
43397.8,31616.9
43345,31620
43274.2,31611.7
43248.1,31572.8
43245,31520
43236.7,31449.2
43197.8,31423.1
43145,31420
43045,31420
43045,31020
42245,31020
41811.7,31020
41811.7,29420
42245,29420
42245,30820
43645,30820
43645,30720
43845,30720
43853.3,30790.8
43892.2,30816.9
43945,30820
44015.8,30811.7
44041.9,30772.8
44045,30720
44036.7,30649.2
43997.8,30623.1
43945,30620
43874.2,30628.3
43848.1,30667.2
43845,30720
43645,30720
43645,29520
43845,29520
43853.3,29590.8
43892.2,29616.9
43945,29620
44015.8,29628.3
44041.9,29667.2
44045,29720
44036.7,29790.8
43997.8,29816.9
43945,29820
43845,29820
43845,30420
43945,30420
44015.8,30411.7
44041.9,30372.8
44045,30320
44045,30220
44445,30220
44445,29820
45045,29820
45045,29520
45245,29520
45253.3,29590.8
45292.2,29616.9
45345,29620
45415.8,29611.7
45441.9,29572.8
45445,29520
45436.7,29449.2
45397.8,29423.1
45345,29420
46045,29420
46045,29620
46445,29620
46445,29420
46645,29420
46645,30820
48045,30820
48045,29420
46645,29420
46445,29420
46045,29420
45345,29420
45274.2,29428.3
45248.1,29467.2
45245,29520
45045,29520
45045,29420
44645,29420
44645,29520
44636.7,29590.8
44597.8,29616.9
44545,29620
44474.2,29611.7
44448.1,29572.8
44445,29520
44436.7,29449.2
44397.8,29423.1
44345,29420
44274.2,29428.3
44248.1,29467.2
44245,29520
44236.7,29590.8
44197.8,29616.9
44145,29620
44074.2,29611.7
44048.1,29572.8
44045,29520
44036.7,29449.2
43997.8,29423.1
43945,29420
43874.2,29428.3
43848.1,29467.2
43845,29520
43645,29520
43645,29420
42245,29420
41811.7,29420
41811.7,28986.7
48478.3,28986.7
Z" /> 
<path style="fill:#000000; fill-opacity:1.0; 
stroke:#000000; stroke-width:3.93701; stroke-opacity:1; 
stroke-linecap:round; stroke-linejoin:round;fill-rule:evenodd;"
d="M 43445,35020
42445,35020
42445,34220
42645,34220
42645,34820
43245,34820
43245,34220
42645,34220
42445,34220
42445,34020
43445,34020
Z" /> 
<path style="fill:#000000; fill-opacity:1.0; 
stroke:#000000; stroke-width:3.93701; stroke-opacity:1; 
stroke-linecap:round; stroke-linejoin:round;fill-rule:evenodd;"
d="M 44415.8,34428.3
44441.9,34467.2
44445,34520
44453.3,34590.8
44492.2,34616.9
44545,34620
44645,34620
44645,35020
44245,35020
44245,34920
44236.7,34849.2
44197.8,34823.1
44145,34820
44074.2,34811.7
44048.1,34772.8
44045,34720
44245,34720
44253.3,34790.8
44292.2,34816.9
44345,34820
44415.8,34811.7
44441.9,34772.8
44445,34720
44436.7,34649.2
44397.8,34623.1
44345,34620
44274.2,34628.3
44248.1,34667.2
44245,34720
44045,34720
44053.3,34649.2
44092.2,34623.1
44145,34620
44215.8,34611.7
44241.9,34572.8
44245,34520
44253.3,34449.2
44292.2,34423.1
44345,34420
Z" /> 
<path style="fill:#000000; fill-opacity:1.0; 
stroke:#000000; stroke-width:3.93701; stroke-opacity:1; 
stroke-linecap:round; stroke-linejoin:round;fill-rule:evenodd;"
d="M 43645,32620
43245,32620
43245,32420
43645,32420
Z" /> 
<path style="fill:#000000; fill-opacity:1.0; 
stroke:#000000; stroke-width:3.93701; stroke-opacity:1; 
stroke-linecap:round; stroke-linejoin:round;fill-rule:evenodd;"
d="M 45945,33020
46015.8,33011.7
46041.9,32972.8
46045,32920
46045,32820
46445,32820
46445,32620
47045,32620
47045,32720
47053.3,32790.8
47092.2,32816.9
47145,32820
47215.8,32828.3
47241.9,32867.2
47245,32920
47253.3,32990.8
47292.2,33016.9
47345,33020
47445,33020
47445,33420
47245,33420
47245,33020
47145,33020
47074.2,33011.7
47048.1,32972.8
47045,32920
47036.7,32849.2
46997.8,32823.1
46945,32820
46874.2,32828.3
46848.1,32867.2
46845,32920
46836.7,32990.8
46797.8,33016.9
46745,33020
46645,33020
46645,33420
46245,33420
46245,33820
46145,33820
46074.2,33828.3
46048.1,33867.2
46045,33920
46053.3,33990.8
46092.2,34016.9
46145,34020
46245,34020
46245,34420
46345,34420
46415.8,34428.3
46441.9,34467.2
46445,34520
46453.3,34590.8
46492.2,34616.9
46545,34620
46615.8,34611.7
46641.9,34572.8
46645,34520
46653.3,34449.2
46692.2,34423.1
46745,34420
46845,34420
46845,35020
46745,35020
46674.2,35011.7
46648.1,34972.8
46645,34920
46636.7,34849.2
46597.8,34823.1
46545,34820
46474.2,34811.7
46448.1,34772.8
46445,34720
46436.7,34649.2
46397.8,34623.1
46345,34620
46274.2,34611.7
46248.1,34572.8
46245,34520
46236.7,34449.2
46197.8,34423.1
46145,34420
46074.2,34428.3
46048.1,34467.2
46045,34520
46045,34620
45645,34620
45645,34520
45636.7,34449.2
45597.8,34423.1
45545,34420
45474.2,34411.7
45448.1,34372.8
45445,34320
45645,34320
45645,34420
46045,34420
46045,34020
45945,34020
45874.2,34028.3
45848.1,34067.2
45845,34120
45836.7,34190.8
45797.8,34216.9
45745,34220
45674.2,34228.3
45648.1,34267.2
45645,34320
45445,34320
45436.7,34249.2
45397.8,34223.1
45345,34220
45245,34220
45245,33820
45345,33820
45415.8,33828.3
45441.9,33867.2
45445,33920
45445,34020
45845,34020
45845,33920
45836.7,33849.2
45797.8,33823.1
45745,33820
45674.2,33811.7
45648.1,33772.8
45645,33720
45653.3,33649.2
45692.2,33623.1
45745,33620
45815.8,33628.3
45841.9,33667.2
45845,33720
45853.3,33790.8
45892.2,33816.9
45945,33820
46045,33820
46045,33220
45945,33220
45874.2,33211.7
45848.1,33172.8
45845,33120
46245,33120
46253.3,33190.8
46292.2,33216.9
46345,33220
46415.8,33211.7
46441.9,33172.8
46445,33120
46436.7,33049.2
46397.8,33023.1
46345,33020
46274.2,33028.3
46248.1,33067.2
46245,33120
45845,33120
45845,33020
Z" /> 
<path style="fill:#000000; fill-opacity:1.0; 
stroke:#000000; stroke-width:3.93701; stroke-opacity:1; 
stroke-linecap:round; stroke-linejoin:round;fill-rule:evenodd;"
d="M 45245,33020
45245,32920
45253.3,32849.2
45292.2,32823.1
45345,32820
45445,32820
45445,32420
45045,32420
45045,32320
45036.7,32249.2
44997.8,32223.1
44945,32220
44845,32220
44845,31820
45045,31820
45045,32220
45145,32220
45215.8,32211.7
45241.9,32172.8
45245,32120
45253.3,32049.2
45292.2,32023.1
45345,32020
45415.8,32028.3
45441.9,32067.2
45445,32120
45445,32220
45845,32220
45845,31920
46045,31920
46053.3,31990.8
46092.2,32016.9
46145,32020
46215.8,32011.7
46241.9,31972.8
46245,31920
46236.7,31849.2
46197.8,31823.1
46145,31820
46074.2,31828.3
46048.1,31867.2
46045,31920
45845,31920
45845,31820
45745,31820
45674.2,31811.7
45648.1,31772.8
45645,31720
45645,31620
45245,31620
45245,31720
45236.7,31790.8
45197.8,31816.9
45145,31820
45045,31820
44845,31820
44745,31820
44674.2,31828.3
44648.1,31867.2
44645,31920
44636.7,31990.8
44597.8,32016.9
44545,32020
44474.2,32028.3
44448.1,32067.2
44445,32120
44436.7,32190.8
44397.8,32216.9
44345,32220
44274.2,32228.3
44248.1,32267.2
44245,32320
44245,32420
43645,32420
43645,32220
43245,32220
43245,32020
44045,32020
44045,32120
44053.3,32190.8
44092.2,32216.9
44145,32220
44215.8,32211.7
44241.9,32172.8
44245,32120
44253.3,32049.2
44292.2,32023.1
44345,32020
44445,32020
44445,31620
45045,31620
45045,31420
45845,31420
45845,31520
45853.3,31590.8
45892.2,31616.9
45945,31620
46015.8,31611.7
46041.9,31572.8
46045,31520
46045,31420
46445,31420
46445,31820
46845,31820
46845,31720
46836.7,31649.2
46797.8,31623.1
46745,31620
46674.2,31611.7
46648.1,31572.8
46645,31520
46636.7,31449.2
46597.8,31423.1
46545,31420
46445,31420
46445,31320
46453.3,31249.2
46492.2,31223.1
46545,31220
46615.8,31228.3
46641.9,31267.2
46645,31320
46653.3,31390.8
46692.2,31416.9
46745,31420
46815.8,31428.3
46841.9,31467.2
46845,31520
46853.3,31590.8
46892.2,31616.9
46945,31620
47015.8,31628.3
47041.9,31667.2
47045,31720
47053.3,31790.8
47092.2,31816.9
47145,31820
47215.8,31828.3
47241.9,31867.2
47245,31920
47253.3,31990.8
47292.2,32016.9
47345,32020
47445,32020
47445,32420
47645,32420
47645,32820
47545,32820
47474.2,32811.7
47448.1,32772.8
47445,32720
47436.7,32649.2
47397.8,32623.1
47345,32620
47274.2,32611.7
47248.1,32572.8
47245,32520
47245,32420
46845,32420
46845,32020
46645,32020
46645,32420
46545,32420
46474.2,32411.7
46448.1,32372.8
46445,32320
46445,32220
46045,32220
46045,32620
45845,32620
45845,33020
Z" /> 
<path style="fill:#000000; fill-opacity:1.0; 
stroke:#000000; stroke-width:3.93701; stroke-opacity:1; 
stroke-linecap:round; stroke-linejoin:round;fill-rule:evenodd;"
d="M 45015.8,34628.3
45041.9,34667.2
45045,34720
45036.7,34790.8
44997.8,34816.9
44945,34820
44874.2,34811.7
44848.1,34772.8
44845,34720
44853.3,34649.2
44892.2,34623.1
44945,34620
Z" /> 
<path style="fill:#000000; fill-opacity:1.0; 
stroke:#000000; stroke-width:3.93701; stroke-opacity:1; 
stroke-linecap:round; stroke-linejoin:round;fill-rule:evenodd;"
d="M 47415.8,34228.3
47441.9,34267.2
47445,34320
47436.7,34390.8
47397.8,34416.9
47345,34420
47274.2,34411.7
47248.1,34372.8
47245,34320
47253.3,34249.2
47292.2,34223.1
47345,34220
Z" /> 
<path style="fill:#000000; fill-opacity:1.0; 
stroke:#000000; stroke-width:3.93701; stroke-opacity:1; 
stroke-linecap:round; stroke-linejoin:round;fill-rule:evenodd;"
d="M 47045,34220
46445,34220
46445,33920
46645,33920
46653.3,33990.8
46692.2,34016.9
46745,34020
46815.8,34011.7
46841.9,33972.8
46845,33920
46836.7,33849.2
46797.8,33823.1
46745,33820
46674.2,33828.3
46648.1,33867.2
46645,33920
46445,33920
46445,33620
47045,33620
Z" /> 
<path style="fill:#000000; fill-opacity:1.0; 
stroke:#000000; stroke-width:3.93701; stroke-opacity:1; 
stroke-linecap:round; stroke-linejoin:round;fill-rule:evenodd;"
d="M 45445,33620
45245,33620
45245,33220
45445,33220
Z" /> 
<path style="fill:#000000; fill-opacity:1.0; 
stroke:#000000; stroke-width:3.93701; stroke-opacity:1; 
stroke-linecap:round; stroke-linejoin:round;fill-rule:evenodd;"
d="M 44015.8,32628.3
44041.9,32667.2
44045,32720
44036.7,32790.8
43997.8,32816.9
43945,32820
43874.2,32811.7
43848.1,32772.8
43845,32720
43853.3,32649.2
43892.2,32623.1
43945,32620
Z" /> 
<path style="fill:#000000; fill-opacity:1.0; 
stroke:#000000; stroke-width:3.93701; stroke-opacity:1; 
stroke-linecap:round; stroke-linejoin:round;fill-rule:evenodd;"
d="M 43815.8,31428.3
43841.9,31467.2
43845,31520
43853.3,31590.8
43892.2,31616.9
43945,31620
44015.8,31628.3
44041.9,31667.2
44045,31720
44036.7,31790.8
43997.8,31816.9
43945,31820
43874.2,31811.7
43848.1,31772.8
43845,31720
43836.7,31649.2
43797.8,31623.1
43745,31620
43674.2,31628.3
43648.1,31667.2
43645,31720
43636.7,31790.8
43597.8,31816.9
43545,31820
43474.2,31811.7
43448.1,31772.8
43445,31720
43453.3,31649.2
43492.2,31623.1
43545,31620
43615.8,31611.7
43641.9,31572.8
43645,31520
43653.3,31449.2
43692.2,31423.1
43745,31420
Z" /> 
<path style="fill:#000000; fill-opacity:1.0; 
stroke:#000000; stroke-width:3.93701; stroke-opacity:1; 
stroke-linecap:round; stroke-linejoin:round;fill-rule:evenodd;"
d="M 44615.8,31228.3
44641.9,31267.2
44645,31320
44636.7,31390.8
44597.8,31416.9
44545,31420
44474.2,31411.7
44448.1,31372.8
44445,31320
44453.3,31249.2
44492.2,31223.1
44545,31220
Z" /> 
<path style="fill:#000000; fill-opacity:1.0; 
stroke:#000000; stroke-width:3.93701; stroke-opacity:1; 
stroke-linecap:round; stroke-linejoin:round;fill-rule:evenodd;"
d="M 44815.8,30428.3
44841.9,30467.2
44845,30520
44853.3,30590.8
44892.2,30616.9
44945,30620
45015.8,30628.3
45041.9,30667.2
45045,30720
45053.3,30790.8
45092.2,30816.9
45145,30820
45245,30820
45245,31220
45145,31220
45074.2,31211.7
45048.1,31172.8
45045,31120
45036.7,31049.2
44997.8,31023.1
44945,31020
44845,31020
44845,30620
44645,30620
44645,31020
44445,31020
44445,30620
44545,30620
44615.8,30611.7
44641.9,30572.8
44645,30520
44653.3,30449.2
44692.2,30423.1
44745,30420
Z" /> 
<path style="fill:#000000; fill-opacity:1.0; 
stroke:#000000; stroke-width:3.93701; stroke-opacity:1; 
stroke-linecap:round; stroke-linejoin:round;fill-rule:evenodd;"
d="M 46215.8,30628.3
46241.9,30667.2
46245,30720
46236.7,30790.8
46197.8,30816.9
46145,30820
46074.2,30828.3
46048.1,30867.2
46045,30920
46036.7,30990.8
45997.8,31016.9
45945,31020
45874.2,31011.7
45848.1,30972.8
45845,30920
45853.3,30849.2
45892.2,30823.1
45945,30820
46015.8,30811.7
46041.9,30772.8
46045,30720
46053.3,30649.2
46092.2,30623.1
46145,30620
Z" /> 
<path style="fill:#000000; fill-opacity:1.0; 
stroke:#000000; stroke-width:3.93701; stroke-opacity:1; 
stroke-linecap:round; stroke-linejoin:round;fill-rule:evenodd;"
d="M 43445,30620
42445,30620
42445,29820
42645,29820
42645,30420
43245,30420
43245,29820
42645,29820
42445,29820
42445,29620
43445,29620
Z" /> 
<path style="fill:#000000; fill-opacity:1.0; 
stroke:#000000; stroke-width:3.93701; stroke-opacity:1; 
stroke-linecap:round; stroke-linejoin:round;fill-rule:evenodd;"
d="M 47845,30620
46845,30620
46845,29820
47045,29820
47045,30420
47645,30420
47645,29820
47045,29820
46845,29820
46845,29620
47845,29620
Z" /> 
<g >
</g>
</g> 
</svg>
