M48
METRIC,TZ
T1C0.300
T2C0.400
T3C0.600
T4C0.800
T5C1.000
T6C1.200
T7C1.400
T8C1.500
T9C5.000
%
G90
G05
T1
X113300Y-106800
X114700Y-106200
X118999Y-97663
X119888Y-96901
X120904Y-98806
X122936Y-94488
X129000Y-84019
X130725Y-93125
X133860Y-96110
X134300Y-94500
X135500Y-96500
X135600Y-93200
X136000Y-88400
X136600Y-87600
X137400Y-87400
X139192Y-91694
X139800Y-82000
X139800Y-88600
X140208Y-92710
X140292Y-81502
X140600Y-89200
X141000Y-81000
X141027Y-93122
X141600Y-87000
X142800Y-79000
X142800Y-87000
X144000Y-88000
X144600Y-88600
X145400Y-80200
X146800Y-87400
X146939Y-97939
X147027Y-100832
X155194Y-99822
X156000Y-97800
X158453Y-95347
X159766Y-83058
X159857Y-91857
X160274Y-86868
X161036Y-83058
X161036Y-89154
X163068Y-96774
X163068Y-104140
X163068Y-110998
X163830Y-101854
X163830Y-109220
X163830Y-111506
X164592Y-104140
X164592Y-109474
X171704Y-102870
X177230Y-92477
X177292Y-88900
X177546Y-85344
X179070Y-85344
X179432Y-88900
X180032Y-92456
T2
X106125Y-114500
X111760Y-76200
X111760Y-79248
X112268Y-116840
X113284Y-76200
X113284Y-79248
X113284Y-82296
X113538Y-86360
X113792Y-88900
X113792Y-91440
X113792Y-116332
X114300Y-93726
X114808Y-76200
X114808Y-79248
X114808Y-82296
X115824Y-101600
X116332Y-82296
X116624Y-100800
X116840Y-116332
X118364Y-116332
X122936Y-116332
X123952Y-86360
X123952Y-88900
X123952Y-91440
X124200Y-74200
X124206Y-99568
X124460Y-116332
X126000Y-94200
X127508Y-59436
X127508Y-60960
X127508Y-62484
X127508Y-64008
X127800Y-96000
X129000Y-88600
X129032Y-64008
X129500Y-59500
X129500Y-61500
X130556Y-64008
X130800Y-85000
X131064Y-75946
X131500Y-59500
X131500Y-61500
X132080Y-64008
X133500Y-59500
X133500Y-61500
X133604Y-64008
X133604Y-116332
X133800Y-84000
X135128Y-116332
X135200Y-82400
X135500Y-59500
X135500Y-61500
X135636Y-64008
X136400Y-104600
X136652Y-116332
X136800Y-81000
X137500Y-59500
X137500Y-61500
X137922Y-71628
X138176Y-116332
X138800Y-63400
X139600Y-59200
X139700Y-116332
X140000Y-71600
X140600Y-62800
X140600Y-68800
X141224Y-116332
X142000Y-59200
X142400Y-63400
X142748Y-116332
X144000Y-59500
X144000Y-61500
X144200Y-68800
X144200Y-83200
X144272Y-116332
X145796Y-116332
X146000Y-59500
X147000Y-62200
X147000Y-71400
X147320Y-116332
X147400Y-82200
X147600Y-80200
X148000Y-59500
X148000Y-64800
X148800Y-83600
X148844Y-116332
X149000Y-62200
X149000Y-101600
X149200Y-71400
X150000Y-59500
X150200Y-85400
X150368Y-116332
X150600Y-100000
X151800Y-86600
X151892Y-116332
X152000Y-59500
X152000Y-61500
X153416Y-116332
X154400Y-105000
X154400Y-106400
X154500Y-59500
X154500Y-61500
X154940Y-116332
X156464Y-116332
X156500Y-59500
X156500Y-61500
X156600Y-113000
X156815Y-115349
X157400Y-112200
X157988Y-116332
X158800Y-106800
X159000Y-59500
X159000Y-61500
X159512Y-116332
X161000Y-59500
X161000Y-61500
X161036Y-116332
X161239Y-133782
X162560Y-116332
X163000Y-59500
X163000Y-61500
X163831Y-73746
X163831Y-75946
X163831Y-78146
X164084Y-116332
X164400Y-64200
X164400Y-66000
X165000Y-59500
X165000Y-61500
X167005Y-125857
X167132Y-59436
X167132Y-61468
X167132Y-63500
X167132Y-65532
X167355Y-116332
X169275Y-80743
X169926Y-111760
X170688Y-84582
X170688Y-87884
X170688Y-91440
X170688Y-94996
X170688Y-98806
X174244Y-102121
X174244Y-116332
X175768Y-116332
X176508Y-101368
X176530Y-83566
X176530Y-87122
X176530Y-90678
X176530Y-94234
X176530Y-97790
X178000Y-115800
X179600Y-115800
T3
X105250Y-64000
X105250Y-130000
X106348Y-61348
X106348Y-66652
X106348Y-127348
X106348Y-132652
X109000Y-60250
X109000Y-67750
X109000Y-126250
X109000Y-133750
X111652Y-61348
X111652Y-66652
X111652Y-127348
X111652Y-132652
X112750Y-64000
X112750Y-130000
X171250Y-64000
X171250Y-130000
X172348Y-61348
X172348Y-66652
X172348Y-127348
X172348Y-132652
X175000Y-60250
X175000Y-67750
X175000Y-126250
X175000Y-133750
X177652Y-61348
X177652Y-66652
X177652Y-127348
X177652Y-132652
X178750Y-64000
X178750Y-130000
T4
X113420Y-110500
X123580Y-110500
X129540Y-72644
X129540Y-76144
X132975Y-113180
X132975Y-120800
X135515Y-113180
X135515Y-120800
X138055Y-113180
X138055Y-120800
X146445Y-112880
X146445Y-120500
X148985Y-112880
X148985Y-120500
X150350Y-133500
X151525Y-112880
X151525Y-120500
X152650Y-126000
T5
X108200Y-75800
X108200Y-78340
X108200Y-80880
X108200Y-83420
X108200Y-85960
X108200Y-90260
X108200Y-92800
X108200Y-95340
X108200Y-97880
X108200Y-102600
X108200Y-105140
X108200Y-107680
X108200Y-110220
X120725Y-60750
X123265Y-60750
X137000Y-127000
X147000Y-127000
X151008Y-81008
X152184Y-94566
X152804Y-82804
X153980Y-92770
X153980Y-96362
X154600Y-84600
X155652Y-63875
X155652Y-66415
X155652Y-68955
X155776Y-90974
X155776Y-94566
X156396Y-86396
X157572Y-92770
X160000Y-63875
X160000Y-66415
X160000Y-68955
X172212Y-109474
X174752Y-109474
X175731Y-72966
X175731Y-75506
X175731Y-78046
X177292Y-109474
T6
X127518Y-121518
X132906Y-126906
T7
X119200Y-130000
X124200Y-130000
X158840Y-120700
X163920Y-120700
X169000Y-120700
T8
X133350Y-132750
X138800Y-132750
X144250Y-132750
T9
X109000Y-64000
X109000Y-130000
X175000Y-64000
X175000Y-130000
T0
M30
