%TF.GenerationSoftware,KiCad,Pcbnew,(6.0.1)*%
%TF.CreationDate,2022-01-24T11:40:52+04:00*%
%TF.ProjectId,BEEIRON v0.0,42454549-524f-44e2-9076-302e302e6b69,rev?*%
%TF.SameCoordinates,Original*%
%TF.FileFunction,Soldermask,Bot*%
%TF.FilePolarity,Negative*%
%FSLAX46Y46*%
G04 Gerber Fmt 4.6, Leading zero omitted, Abs format (unit mm)*
G04 Created by KiCad (PCBNEW (6.0.1)) date 2022-01-24 11:40:52*
%MOMM*%
%LPD*%
G01*
G04 APERTURE LIST*
G04 Aperture macros list*
%AMRoundRect*
0 Rectangle with rounded corners*
0 $1 Rounding radius*
0 $2 $3 $4 $5 $6 $7 $8 $9 X,Y pos of 4 corners*
0 Add a 4 corners polygon primitive as box body*
4,1,4,$2,$3,$4,$5,$6,$7,$8,$9,$2,$3,0*
0 Add four circle primitives for the rounded corners*
1,1,$1+$1,$2,$3*
1,1,$1+$1,$4,$5*
1,1,$1+$1,$6,$7*
1,1,$1+$1,$8,$9*
0 Add four rect primitives between the rounded corners*
20,1,$1+$1,$2,$3,$4,$5,0*
20,1,$1+$1,$4,$5,$6,$7,0*
20,1,$1+$1,$6,$7,$8,$9,0*
20,1,$1+$1,$8,$9,$2,$3,0*%
%AMHorizOval*
0 Thick line with rounded ends*
0 $1 width*
0 $2 $3 position (X,Y) of the first rounded end (center of the circle)*
0 $4 $5 position (X,Y) of the second rounded end (center of the circle)*
0 Add line between two ends*
20,1,$1,$2,$3,$4,$5,0*
0 Add two circle primitives to create the rounded ends*
1,1,$1,$2,$3*
1,1,$1,$4,$5*%
%AMRotRect*
0 Rectangle, with rotation*
0 The origin of the aperture is its center*
0 $1 length*
0 $2 width*
0 $3 Rotation angle, in degrees counterclockwise*
0 Add horizontal line*
21,1,$1,$2,0,0,$3*%
G04 Aperture macros list end*
%ADD10C,0.150000*%
%TA.AperFunction,Profile*%
%ADD11C,0.100000*%
%TD*%
%ADD12C,1.600000*%
%ADD13C,2.000000*%
%ADD14R,1.700000X1.700000*%
%ADD15O,1.700000X1.700000*%
%ADD16C,0.900000*%
%ADD17C,10.000000*%
%ADD18C,2.400000*%
%ADD19HorizOval,2.400000X0.000000X0.000000X0.000000X0.000000X0*%
%ADD20R,1.600000X1.600000*%
%ADD21O,1.600000X1.600000*%
%ADD22RoundRect,0.249999X-0.790001X-1.550001X0.790001X-1.550001X0.790001X1.550001X-0.790001X1.550001X0*%
%ADD23O,2.080000X3.600000*%
%ADD24RotRect,1.700000X1.700000X135.000000*%
%ADD25HorizOval,1.700000X0.000000X0.000000X0.000000X0.000000X0*%
%ADD26R,1.600000X2.400000*%
%ADD27O,1.600000X2.400000*%
%ADD28R,2.500000X4.500000*%
%ADD29O,2.500000X4.500000*%
%ADD30RoundRect,0.250000X0.750000X1.550000X-0.750000X1.550000X-0.750000X-1.550000X0.750000X-1.550000X0*%
%ADD31O,2.000000X3.600000*%
%ADD32C,1.800000*%
%ADD33RotRect,1.700000X1.700000X45.000000*%
%ADD34HorizOval,1.700000X0.000000X0.000000X0.000000X0.000000X0*%
G04 APERTURE END LIST*
D10*
X148971000Y-126365000D02*
X148971000Y-134493000D01*
X148971000Y-134493000D02*
X148717000Y-135128000D01*
X148717000Y-135128000D02*
X147955000Y-135382000D01*
X147955000Y-135382000D02*
X142113000Y-135382000D01*
X142113000Y-135382000D02*
X141605000Y-135001000D01*
X141605000Y-135001000D02*
X141478000Y-134493000D01*
X141478000Y-134493000D02*
X141478000Y-130048000D01*
X141478000Y-130048000D02*
X130937000Y-130048000D01*
X130937000Y-130048000D02*
X130937000Y-134620000D01*
X130937000Y-134620000D02*
X130683000Y-135255000D01*
X130683000Y-135255000D02*
X129921000Y-135509000D01*
X129921000Y-135509000D02*
X117094000Y-135509000D01*
X117094000Y-135509000D02*
X116586000Y-135255000D01*
X116586000Y-135255000D02*
X116332000Y-134620000D01*
X116332000Y-134620000D02*
X116332000Y-127762000D01*
X116332000Y-127762000D02*
X116459000Y-127254000D01*
X116459000Y-127254000D02*
X116840000Y-127000000D01*
X116840000Y-127000000D02*
X120904000Y-127000000D01*
X120904000Y-127000000D02*
X121412000Y-127127000D01*
X121412000Y-127127000D02*
X121793000Y-127762000D01*
X121793000Y-127762000D02*
X121793000Y-132334000D01*
X121793000Y-132334000D02*
X128397000Y-132334000D01*
X128397000Y-132334000D02*
X128397000Y-129286000D01*
X128397000Y-129286000D02*
X128524000Y-128651000D01*
X128524000Y-128651000D02*
X129159000Y-128397000D01*
X129159000Y-128397000D02*
X141478000Y-128397000D01*
X141478000Y-128397000D02*
X141478000Y-126365000D01*
X141478000Y-126365000D02*
X141732000Y-125857000D01*
X141732000Y-125857000D02*
X142240000Y-125476000D01*
X142240000Y-125476000D02*
X147955000Y-125476000D01*
X147955000Y-125476000D02*
X148590000Y-125857000D01*
X148590000Y-125857000D02*
X148971000Y-126365000D01*
G36*
X148590000Y-125857000D02*
G01*
X148971000Y-126365000D01*
X148971000Y-134493000D01*
X148717000Y-135128000D01*
X147955000Y-135382000D01*
X142113000Y-135382000D01*
X141605000Y-135001000D01*
X141478000Y-134493000D01*
X141478000Y-130048000D01*
X130937000Y-130048000D01*
X130937000Y-134620000D01*
X130683000Y-135255000D01*
X129921000Y-135509000D01*
X117094000Y-135509000D01*
X116586000Y-135255000D01*
X116332000Y-134620000D01*
X116332000Y-127762000D01*
X116459000Y-127254000D01*
X116840000Y-127000000D01*
X120904000Y-127000000D01*
X121412000Y-127127000D01*
X121793000Y-127762000D01*
X121793000Y-132334000D01*
X128397000Y-132334000D01*
X128397000Y-129286000D01*
X128524000Y-128651000D01*
X129159000Y-128397000D01*
X141478000Y-128397000D01*
X141478000Y-126365000D01*
X141732000Y-125857000D01*
X142240000Y-125476000D01*
X147955000Y-125476000D01*
X148590000Y-125857000D01*
G37*
X148590000Y-125857000D02*
X148971000Y-126365000D01*
X148971000Y-134493000D01*
X148717000Y-135128000D01*
X147955000Y-135382000D01*
X142113000Y-135382000D01*
X141605000Y-135001000D01*
X141478000Y-134493000D01*
X141478000Y-130048000D01*
X130937000Y-130048000D01*
X130937000Y-134620000D01*
X130683000Y-135255000D01*
X129921000Y-135509000D01*
X117094000Y-135509000D01*
X116586000Y-135255000D01*
X116332000Y-134620000D01*
X116332000Y-127762000D01*
X116459000Y-127254000D01*
X116840000Y-127000000D01*
X120904000Y-127000000D01*
X121412000Y-127127000D01*
X121793000Y-127762000D01*
X121793000Y-132334000D01*
X128397000Y-132334000D01*
X128397000Y-129286000D01*
X128524000Y-128651000D01*
X129159000Y-128397000D01*
X141478000Y-128397000D01*
X141478000Y-126365000D01*
X141732000Y-125857000D01*
X142240000Y-125476000D01*
X147955000Y-125476000D01*
X148590000Y-125857000D01*
X160147000Y-118618000D02*
X160441099Y-118829582D01*
X160441099Y-118829582D02*
X160655000Y-119380000D01*
X160655000Y-119380000D02*
X160658024Y-123302112D01*
X160658024Y-123302112D02*
X160528000Y-123698000D01*
X160528000Y-123698000D02*
X159385000Y-124841000D01*
X159385000Y-124841000D02*
X129921000Y-124841000D01*
X129921000Y-124841000D02*
X127558800Y-127381000D01*
X127558800Y-127381000D02*
X127553678Y-130946695D01*
X127553678Y-130946695D02*
X127557746Y-131175635D01*
X127557746Y-131175635D02*
X127394992Y-131441977D01*
X127394992Y-131441977D02*
X127127605Y-131686563D01*
X127127605Y-131686563D02*
X126800108Y-131786056D01*
X126800108Y-131786056D02*
X124030031Y-131801688D01*
X124030031Y-131801688D02*
X123410274Y-131797542D01*
X123410274Y-131797542D02*
X123169920Y-131682375D01*
X123169920Y-131682375D02*
X122992008Y-131547645D01*
X122992008Y-131547645D02*
X122874551Y-131406006D01*
X122874551Y-131406006D02*
X122785638Y-131266008D01*
X122785638Y-131266008D02*
X122709636Y-131050095D01*
X122709636Y-131050095D02*
X122682000Y-130810000D01*
X122682000Y-130810000D02*
X122682000Y-124460000D01*
X122682000Y-124460000D02*
X123317000Y-123571000D01*
X123317000Y-123571000D02*
X128397000Y-123571000D01*
X128397000Y-123571000D02*
X129921000Y-121920000D01*
X129921000Y-121920000D02*
X154178000Y-121920000D01*
X154178000Y-121920000D02*
X154178000Y-119253000D01*
X154178000Y-119253000D02*
X154940000Y-118618000D01*
X154940000Y-118618000D02*
X159852667Y-118508143D01*
X159852667Y-118508143D02*
X160147000Y-118618000D01*
G36*
X160147000Y-118618000D02*
G01*
X160441099Y-118829582D01*
X160655000Y-119380000D01*
X160658024Y-123302112D01*
X160528000Y-123698000D01*
X159385000Y-124841000D01*
X129921000Y-124841000D01*
X127558800Y-127381000D01*
X127553678Y-130946695D01*
X127557746Y-131175635D01*
X127394992Y-131441977D01*
X127127605Y-131686563D01*
X126800108Y-131786056D01*
X124030031Y-131801688D01*
X123410274Y-131797542D01*
X123169920Y-131682375D01*
X122992008Y-131547645D01*
X122874551Y-131406006D01*
X122785638Y-131266008D01*
X122709636Y-131050095D01*
X122682000Y-130810000D01*
X122682000Y-124460000D01*
X123317000Y-123571000D01*
X128397000Y-123571000D01*
X129921000Y-121920000D01*
X154178000Y-121920000D01*
X154178000Y-119253000D01*
X154940000Y-118618000D01*
X159852667Y-118508143D01*
X160147000Y-118618000D01*
G37*
X160147000Y-118618000D02*
X160441099Y-118829582D01*
X160655000Y-119380000D01*
X160658024Y-123302112D01*
X160528000Y-123698000D01*
X159385000Y-124841000D01*
X129921000Y-124841000D01*
X127558800Y-127381000D01*
X127553678Y-130946695D01*
X127557746Y-131175635D01*
X127394992Y-131441977D01*
X127127605Y-131686563D01*
X126800108Y-131786056D01*
X124030031Y-131801688D01*
X123410274Y-131797542D01*
X123169920Y-131682375D01*
X122992008Y-131547645D01*
X122874551Y-131406006D01*
X122785638Y-131266008D01*
X122709636Y-131050095D01*
X122682000Y-130810000D01*
X122682000Y-124460000D01*
X123317000Y-123571000D01*
X128397000Y-123571000D01*
X129921000Y-121920000D01*
X154178000Y-121920000D01*
X154178000Y-119253000D01*
X154940000Y-118618000D01*
X159852667Y-118508143D01*
X160147000Y-118618000D01*
D11*
X181000000Y-64000000D02*
G75*
G03*
X175000000Y-58000000I-5999999J1D01*
G01*
X181000000Y-130000000D02*
X181000000Y-64000000D01*
X103000000Y-64000000D02*
X103000000Y-130000000D01*
X109000000Y-58000000D02*
G75*
G03*
X103000000Y-64000000I-1J-5999999D01*
G01*
X132800000Y-117000000D02*
X165000000Y-117000000D01*
X129400000Y-117000000D02*
X113000000Y-117000000D01*
X132800000Y-117000000D02*
X132800000Y-118000000D01*
X113000000Y-117000000D02*
X113000000Y-118000000D01*
X165000000Y-118000000D02*
X132800000Y-118000000D01*
X103000000Y-130000000D02*
G75*
G03*
X109000000Y-136000000I5999999J-1D01*
G01*
X175000000Y-58000000D02*
X109000000Y-58000000D01*
X113000000Y-118000000D02*
X129400000Y-118000000D01*
X109000000Y-136000000D02*
X175000000Y-136000000D01*
X175000000Y-136000000D02*
G75*
G03*
X181000000Y-130000000I1J5999999D01*
G01*
X129400000Y-117000000D02*
X129400000Y-118000000D01*
X165000000Y-117000000D02*
X165000000Y-118000000D01*
D12*
%TO.C,C7*%
X129540000Y-72644000D03*
X129540000Y-76144000D03*
%TD*%
D13*
%TO.C,C20*%
X137000000Y-127000000D03*
X147000000Y-127000000D03*
%TD*%
D14*
%TO.C,J4*%
X175731000Y-78046000D03*
D15*
X175731000Y-75506000D03*
X175731000Y-72966000D03*
%TD*%
D14*
%TO.C,J5*%
X177292000Y-109474000D03*
D15*
X174752000Y-109474000D03*
X172212000Y-109474000D03*
%TD*%
D14*
%TO.C,J11*%
X160000000Y-63875000D03*
D15*
X160000000Y-66415000D03*
X160000000Y-68955000D03*
%TD*%
D14*
%TO.C,J1*%
X120725000Y-60750000D03*
D15*
X123265000Y-60750000D03*
%TD*%
D16*
%TO.C,H2*%
X177651650Y-66651650D03*
X175000000Y-60250000D03*
X172348350Y-61348350D03*
X178750000Y-64000000D03*
X171250000Y-64000000D03*
X172348350Y-66651650D03*
D17*
X175000000Y-64000000D03*
D16*
X177651650Y-61348350D03*
X175000000Y-67750000D03*
%TD*%
D18*
%TO.C,R32*%
X127518056Y-121518056D03*
D19*
X132906210Y-126906210D03*
%TD*%
D14*
%TO.C,J10*%
X155652393Y-63874870D03*
D15*
X155652393Y-66414870D03*
X155652393Y-68954870D03*
%TD*%
D20*
%TO.C,U9*%
X132975000Y-120800000D03*
D21*
X135515000Y-120800000D03*
X138055000Y-120800000D03*
X138055000Y-113180000D03*
X135515000Y-113180000D03*
X132975000Y-113180000D03*
%TD*%
D22*
%TO.C,J8*%
X158840000Y-120700000D03*
D23*
X163920000Y-120700000D03*
X169000000Y-120700000D03*
%TD*%
D24*
%TO.C,J7*%
X153979773Y-96362329D03*
D25*
X152183722Y-94566278D03*
X155775824Y-94566278D03*
X153979773Y-92770227D03*
X157571875Y-92770227D03*
X155775824Y-90974175D03*
%TD*%
D16*
%TO.C,H1*%
X106348350Y-61348350D03*
X112750000Y-64000000D03*
X106348350Y-66651650D03*
X109000000Y-67750000D03*
X111651650Y-66651650D03*
D17*
X109000000Y-64000000D03*
D16*
X105250000Y-64000000D03*
X111651650Y-61348350D03*
X109000000Y-60250000D03*
%TD*%
D26*
%TO.C,U8*%
X151525000Y-112880000D03*
D27*
X148985000Y-112880000D03*
X146445000Y-112880000D03*
X146445000Y-120500000D03*
X148985000Y-120500000D03*
X151525000Y-120500000D03*
%TD*%
D28*
%TO.C,Q7*%
X144250000Y-132750000D03*
D29*
X138800000Y-132750000D03*
X133350000Y-132750000D03*
%TD*%
D14*
%TO.C,J2*%
X108200000Y-110220000D03*
D15*
X108200000Y-107680000D03*
X108200000Y-105140000D03*
X108200000Y-102600000D03*
%TD*%
D16*
%TO.C,H3*%
X175000000Y-126250000D03*
D17*
X175000000Y-130000000D03*
D16*
X172348350Y-132651650D03*
X175000000Y-133750000D03*
X171250000Y-130000000D03*
X172348350Y-127348350D03*
X178750000Y-130000000D03*
X177651650Y-132651650D03*
X177651650Y-127348350D03*
%TD*%
D14*
%TO.C,J6*%
X108200000Y-97880000D03*
D15*
X108200000Y-95340000D03*
X108200000Y-92800000D03*
X108200000Y-90260000D03*
%TD*%
D30*
%TO.C,J12*%
X124200000Y-130000000D03*
D31*
X119200000Y-130000000D03*
%TD*%
D20*
%TO.C,D3*%
X123580000Y-110500000D03*
D21*
X113420000Y-110500000D03*
%TD*%
D14*
%TO.C,J9*%
X108200000Y-75800000D03*
D15*
X108200000Y-78340000D03*
X108200000Y-80880000D03*
X108200000Y-83420000D03*
X108200000Y-85960000D03*
%TD*%
D16*
%TO.C,H4*%
X112750000Y-130000000D03*
X106348350Y-127348350D03*
X109000000Y-126250000D03*
X109000000Y-133750000D03*
X106348350Y-132651650D03*
X111651650Y-127348350D03*
D17*
X109000000Y-130000000D03*
D16*
X111651650Y-132651650D03*
X105250000Y-130000000D03*
%TD*%
D32*
%TO.C,RV1*%
X150350000Y-133500000D03*
X152650000Y-126000000D03*
%TD*%
D33*
%TO.C,J3*%
X151007898Y-81007898D03*
D34*
X152803949Y-82803949D03*
X154600000Y-84600000D03*
X156396052Y-86396052D03*
%TD*%
M02*
