G04 #@! TF.GenerationSoftware,KiCad,Pcbnew,5.99.0-unknown-fecb53b64f~142~ubuntu21.04.1*
G04 #@! TF.CreationDate,2021-10-23T16:59:13+04:00*
G04 #@! TF.ProjectId,BEEIRON v0.03,42454549-524f-44e2-9076-302e30332e6b,rev?*
G04 #@! TF.SameCoordinates,Original*
G04 #@! TF.FileFunction,Copper,L2,Inr*
G04 #@! TF.FilePolarity,Positive*
%FSLAX46Y46*%
G04 Gerber Fmt 4.6, Leading zero omitted, Abs format (unit mm)*
G04 Created by KiCad (PCBNEW 5.99.0-unknown-fecb53b64f~142~ubuntu21.04.1) date 2021-10-23 16:59:13*
%MOMM*%
%LPD*%
G01*
G04 APERTURE LIST*
G04 Aperture macros list*
%AMRoundRect*
0 Rectangle with rounded corners*
0 $1 Rounding radius*
0 $2 $3 $4 $5 $6 $7 $8 $9 X,Y pos of 4 corners*
0 Add a 4 corners polygon primitive as box body*
4,1,4,$2,$3,$4,$5,$6,$7,$8,$9,$2,$3,0*
0 Add four circle primitives for the rounded corners*
1,1,$1+$1,$2,$3*
1,1,$1+$1,$4,$5*
1,1,$1+$1,$6,$7*
1,1,$1+$1,$8,$9*
0 Add four rect primitives between the rounded corners*
20,1,$1+$1,$2,$3,$4,$5,0*
20,1,$1+$1,$4,$5,$6,$7,0*
20,1,$1+$1,$6,$7,$8,$9,0*
20,1,$1+$1,$8,$9,$2,$3,0*%
%AMHorizOval*
0 Thick line with rounded ends*
0 $1 width*
0 $2 $3 position (X,Y) of the first rounded end (center of the circle)*
0 $4 $5 position (X,Y) of the second rounded end (center of the circle)*
0 Add line between two ends*
20,1,$1,$2,$3,$4,$5,0*
0 Add two circle primitives to create the rounded ends*
1,1,$1,$2,$3*
1,1,$1,$4,$5*%
%AMRotRect*
0 Rectangle, with rotation*
0 The origin of the aperture is its center*
0 $1 length*
0 $2 width*
0 $3 Rotation angle, in degrees counterclockwise*
0 Add horizontal line*
21,1,$1,$2,0,0,$3*%
G04 Aperture macros list end*
G04 #@! TA.AperFunction,ComponentPad*
%ADD10C,1.600000*%
G04 #@! TD*
G04 #@! TA.AperFunction,ComponentPad*
%ADD11C,2.000000*%
G04 #@! TD*
G04 #@! TA.AperFunction,ComponentPad*
%ADD12R,1.700000X1.700000*%
G04 #@! TD*
G04 #@! TA.AperFunction,ComponentPad*
%ADD13O,1.700000X1.700000*%
G04 #@! TD*
G04 #@! TA.AperFunction,ComponentPad*
%ADD14C,0.900000*%
G04 #@! TD*
G04 #@! TA.AperFunction,ComponentPad*
%ADD15C,10.000000*%
G04 #@! TD*
G04 #@! TA.AperFunction,ComponentPad*
%ADD16C,2.400000*%
G04 #@! TD*
G04 #@! TA.AperFunction,ComponentPad*
%ADD17HorizOval,2.400000X0.000000X0.000000X0.000000X0.000000X0*%
G04 #@! TD*
G04 #@! TA.AperFunction,ComponentPad*
%ADD18R,1.600000X1.600000*%
G04 #@! TD*
G04 #@! TA.AperFunction,ComponentPad*
%ADD19O,1.600000X1.600000*%
G04 #@! TD*
G04 #@! TA.AperFunction,ComponentPad*
%ADD20RoundRect,0.249999X-0.790001X-1.550001X0.790001X-1.550001X0.790001X1.550001X-0.790001X1.550001X0*%
G04 #@! TD*
G04 #@! TA.AperFunction,ComponentPad*
%ADD21O,2.080000X3.600000*%
G04 #@! TD*
G04 #@! TA.AperFunction,ComponentPad*
%ADD22RotRect,1.700000X1.700000X135.000000*%
G04 #@! TD*
G04 #@! TA.AperFunction,ComponentPad*
%ADD23HorizOval,1.700000X0.000000X0.000000X0.000000X0.000000X0*%
G04 #@! TD*
G04 #@! TA.AperFunction,ComponentPad*
%ADD24R,1.600000X2.400000*%
G04 #@! TD*
G04 #@! TA.AperFunction,ComponentPad*
%ADD25O,1.600000X2.400000*%
G04 #@! TD*
G04 #@! TA.AperFunction,ComponentPad*
%ADD26R,2.500000X4.500000*%
G04 #@! TD*
G04 #@! TA.AperFunction,ComponentPad*
%ADD27O,2.500000X4.500000*%
G04 #@! TD*
G04 #@! TA.AperFunction,ComponentPad*
%ADD28RoundRect,0.250000X0.750000X1.550000X-0.750000X1.550000X-0.750000X-1.550000X0.750000X-1.550000X0*%
G04 #@! TD*
G04 #@! TA.AperFunction,ComponentPad*
%ADD29O,2.000000X3.600000*%
G04 #@! TD*
G04 #@! TA.AperFunction,ComponentPad*
%ADD30C,1.800000*%
G04 #@! TD*
G04 #@! TA.AperFunction,ComponentPad*
%ADD31RotRect,1.700000X1.700000X45.000000*%
G04 #@! TD*
G04 #@! TA.AperFunction,ComponentPad*
%ADD32HorizOval,1.700000X0.000000X0.000000X0.000000X0.000000X0*%
G04 #@! TD*
G04 #@! TA.AperFunction,ViaPad*
%ADD33C,0.800000*%
G04 #@! TD*
G04 #@! TA.AperFunction,ViaPad*
%ADD34C,1.000000*%
G04 #@! TD*
G04 #@! TA.AperFunction,ViaPad*
%ADD35C,0.500000*%
G04 #@! TD*
G04 #@! TA.AperFunction,ViaPad*
%ADD36C,2.500000*%
G04 #@! TD*
G04 #@! TA.AperFunction,Conductor*
%ADD37C,0.300000*%
G04 #@! TD*
G04 APERTURE END LIST*
D10*
X119600000Y-79600000D03*
X123100000Y-79600000D03*
D11*
X137000000Y-127000000D03*
X147000000Y-127000000D03*
D12*
X176500000Y-88500000D03*
D13*
X176500000Y-85960000D03*
X176500000Y-83420000D03*
D12*
X169060000Y-100800000D03*
D13*
X171600000Y-100800000D03*
X174140000Y-100800000D03*
D12*
X160000000Y-63875000D03*
D13*
X160000000Y-66415000D03*
X160000000Y-68955000D03*
D12*
X120725000Y-60750000D03*
D13*
X123265000Y-60750000D03*
D14*
X177651650Y-66651650D03*
X175000000Y-60250000D03*
X172348350Y-61348350D03*
X178750000Y-64000000D03*
X171250000Y-64000000D03*
X172348350Y-66651650D03*
D15*
X175000000Y-64000000D03*
D14*
X177651650Y-61348350D03*
X175000000Y-67750000D03*
D16*
X127518056Y-121518056D03*
D17*
X132906210Y-126906210D03*
D12*
X155652393Y-63874870D03*
D13*
X155652393Y-66414870D03*
X155652393Y-68954870D03*
D18*
X132975000Y-120800000D03*
D19*
X135515000Y-120800000D03*
X138055000Y-120800000D03*
X138055000Y-113180000D03*
X135515000Y-113180000D03*
X132975000Y-113180000D03*
D20*
X158840000Y-120700000D03*
D21*
X163920000Y-120700000D03*
X169000000Y-120700000D03*
D22*
X153979773Y-96362329D03*
D23*
X152183722Y-94566278D03*
X155775824Y-94566278D03*
X153979773Y-92770227D03*
X157571875Y-92770227D03*
X155775824Y-90974175D03*
D14*
X106348350Y-61348350D03*
X112750000Y-64000000D03*
X106348350Y-66651650D03*
X109000000Y-67750000D03*
X111651650Y-66651650D03*
D15*
X109000000Y-64000000D03*
D14*
X105250000Y-64000000D03*
X111651650Y-61348350D03*
X109000000Y-60250000D03*
D24*
X151525000Y-112880000D03*
D25*
X148985000Y-112880000D03*
X146445000Y-112880000D03*
X146445000Y-120500000D03*
X148985000Y-120500000D03*
X151525000Y-120500000D03*
D26*
X144250000Y-132750000D03*
D27*
X138800000Y-132750000D03*
X133350000Y-132750000D03*
D12*
X108200000Y-110220000D03*
D13*
X108200000Y-107680000D03*
X108200000Y-105140000D03*
X108200000Y-102600000D03*
D14*
X175000000Y-126250000D03*
D15*
X175000000Y-130000000D03*
D14*
X172348350Y-132651650D03*
X175000000Y-133750000D03*
X171250000Y-130000000D03*
X172348350Y-127348350D03*
X178750000Y-130000000D03*
X177651650Y-132651650D03*
X177651650Y-127348350D03*
D12*
X108200000Y-97880000D03*
D13*
X108200000Y-95340000D03*
X108200000Y-92800000D03*
X108200000Y-90260000D03*
D28*
X124200000Y-130000000D03*
D29*
X119200000Y-130000000D03*
D18*
X123580000Y-110500000D03*
D19*
X113420000Y-110500000D03*
D12*
X108200000Y-75800000D03*
D13*
X108200000Y-78340000D03*
X108200000Y-80880000D03*
X108200000Y-83420000D03*
X108200000Y-85960000D03*
D14*
X112750000Y-130000000D03*
X106348350Y-127348350D03*
X109000000Y-126250000D03*
X109000000Y-133750000D03*
X106348350Y-132651650D03*
X111651650Y-127348350D03*
D15*
X109000000Y-130000000D03*
D14*
X111651650Y-132651650D03*
X105250000Y-130000000D03*
D30*
X150350000Y-133500000D03*
X152650000Y-126000000D03*
D31*
X151007898Y-81007898D03*
D32*
X152803949Y-82803949D03*
X154600000Y-84600000D03*
X156396052Y-86396052D03*
D33*
X147400000Y-82200000D03*
X148800000Y-83600000D03*
D34*
X147000000Y-71400000D03*
D33*
X154400000Y-105000000D03*
D34*
X157600000Y-135200000D03*
X149200000Y-71400000D03*
D33*
X158800000Y-106800000D03*
X106125000Y-114500000D03*
X133860000Y-96110000D03*
X139400000Y-91500000D03*
X136400000Y-104600000D03*
D34*
X144200000Y-68800000D03*
D33*
X135500000Y-96500000D03*
X140500000Y-92600000D03*
D34*
X124600000Y-79600000D03*
X124200000Y-74200000D03*
X164400000Y-66000000D03*
D33*
X134300000Y-94500000D03*
D34*
X148000000Y-64800000D03*
X179600000Y-115800000D03*
D33*
X147600000Y-80200000D03*
X157400000Y-112200000D03*
X154400000Y-106400000D03*
X151800000Y-86600000D03*
D35*
X144000000Y-88000000D03*
D34*
X154500000Y-59500000D03*
X159000000Y-61500000D03*
X144000000Y-61500000D03*
D33*
X164600000Y-88600000D03*
X136800000Y-81000000D03*
D34*
X131500000Y-61500000D03*
X161000000Y-61500000D03*
D33*
X150600000Y-100000000D03*
D34*
X165000000Y-59500000D03*
D33*
X126000000Y-94200000D03*
D35*
X141000000Y-93400000D03*
D34*
X159000000Y-59500000D03*
X140000000Y-71600000D03*
X142400000Y-63400000D03*
X131500000Y-59500000D03*
X154500000Y-61500000D03*
D33*
X164600000Y-84200000D03*
D34*
X138800000Y-63400000D03*
X135500000Y-59500000D03*
X165000000Y-61500000D03*
X137500000Y-59500000D03*
X152000000Y-61500000D03*
X149000000Y-62200000D03*
D33*
X135600000Y-93200000D03*
D34*
X140600000Y-62800000D03*
D33*
X149000000Y-101600000D03*
D34*
X137500000Y-61500000D03*
X133500000Y-59500000D03*
X150000000Y-59500000D03*
X163000000Y-59500000D03*
X146000000Y-59500000D03*
X163000000Y-61500000D03*
X147000000Y-62200000D03*
X142000000Y-59200000D03*
X161000000Y-59500000D03*
X133500000Y-61500000D03*
D33*
X130800000Y-85000000D03*
X144200000Y-83200000D03*
D34*
X178000000Y-115800000D03*
X140600000Y-68800000D03*
X156500000Y-61500000D03*
D35*
X144600000Y-88600000D03*
D34*
X144000000Y-59500000D03*
D33*
X133800000Y-84000000D03*
X150200000Y-85400000D03*
X164600000Y-86400000D03*
X129000000Y-88600000D03*
D34*
X129500000Y-61500000D03*
X148000000Y-59500000D03*
D33*
X127800000Y-96000000D03*
D34*
X139600000Y-59200000D03*
D33*
X135200000Y-82400000D03*
D34*
X164400000Y-64200000D03*
X135500000Y-61500000D03*
X156500000Y-59500000D03*
X129500000Y-59500000D03*
X152000000Y-59500000D03*
D35*
X158000000Y-100200000D03*
X159600000Y-99200000D03*
X158452641Y-95347359D03*
X156000000Y-97800000D03*
X136600000Y-87600000D03*
X137400000Y-87400000D03*
X140600000Y-89200000D03*
X139800000Y-88600000D03*
X146939303Y-97939303D03*
X113300000Y-106800000D03*
X150000000Y-102800000D03*
X114700000Y-106200000D03*
X130725000Y-93125000D03*
X139800000Y-82000000D03*
X136000000Y-88400000D03*
X141600000Y-87000000D03*
X145400000Y-80200000D03*
X146800000Y-87400000D03*
X141000000Y-81000000D03*
X142800000Y-79000000D03*
X129000000Y-83800000D03*
D33*
X156815204Y-115349500D03*
X156600000Y-113000000D03*
D35*
X160000000Y-101800000D03*
X163000000Y-98800000D03*
X167000000Y-97800000D03*
X140291689Y-81502460D03*
X164400000Y-108200000D03*
X163400000Y-113200000D03*
X142800000Y-87000000D03*
D33*
X165200000Y-126000000D03*
D36*
X130600000Y-129500000D03*
D37*
X136300000Y-104700000D02*
X136200000Y-104800000D01*
X136200000Y-104800000D02*
X134800000Y-106200000D01*
G04 #@! TA.AperFunction,NonConductor*
G36*
X141216583Y-93936393D02*
G01*
X141267316Y-93967316D01*
X142110905Y-94810905D01*
X142144931Y-94873217D01*
X142139866Y-94944032D01*
X142110905Y-94989095D01*
X140453288Y-96646712D01*
X140462115Y-96655968D01*
X140965184Y-97183490D01*
X140997721Y-97246592D01*
X141000000Y-97270447D01*
X141000000Y-97347810D01*
X140979998Y-97415931D01*
X140963095Y-97436905D01*
X138580000Y-99820000D01*
X138490000Y-100310000D01*
X139943216Y-101763216D01*
X139977242Y-101825528D01*
X139978048Y-101875073D01*
X139907088Y-102261411D01*
X139872256Y-102327744D01*
X137289920Y-104910080D01*
X137227608Y-104944106D01*
X137156793Y-104939041D01*
X137099957Y-104896494D01*
X137075146Y-104829974D01*
X137079063Y-104788946D01*
X137081601Y-104782634D01*
X137105490Y-104614778D01*
X137105645Y-104600000D01*
X137085276Y-104431680D01*
X137025345Y-104273077D01*
X136929312Y-104133349D01*
X136917514Y-104122837D01*
X136808392Y-104025612D01*
X136808388Y-104025610D01*
X136802721Y-104020560D01*
X136652881Y-103941224D01*
X136488441Y-103899919D01*
X136480843Y-103899879D01*
X136480841Y-103899879D01*
X136403668Y-103899475D01*
X136318895Y-103899031D01*
X136311508Y-103900805D01*
X136311504Y-103900805D01*
X136168162Y-103935220D01*
X136154032Y-103938612D01*
X136147288Y-103942093D01*
X136147285Y-103942094D01*
X136142089Y-103944776D01*
X136003369Y-104016375D01*
X135875604Y-104127831D01*
X135778113Y-104266547D01*
X135772798Y-104280180D01*
X135760790Y-104310978D01*
X135717408Y-104367179D01*
X135650529Y-104391005D01*
X135581385Y-104374891D01*
X135554302Y-104354302D01*
X130236905Y-99036905D01*
X130202879Y-98974593D01*
X130200000Y-98947810D01*
X130200000Y-98752190D01*
X130220002Y-98684069D01*
X130236905Y-98663095D01*
X132946054Y-95953946D01*
X133008366Y-95919920D01*
X133079181Y-95924985D01*
X133136017Y-95967532D01*
X133160828Y-96034052D01*
X133160071Y-96059486D01*
X133155385Y-96095079D01*
X133155385Y-96095084D01*
X133154394Y-96102611D01*
X133172999Y-96271135D01*
X133231266Y-96430356D01*
X133235502Y-96436659D01*
X133235502Y-96436660D01*
X133248574Y-96456113D01*
X133325830Y-96571083D01*
X133331442Y-96576190D01*
X133331445Y-96576193D01*
X133445612Y-96680077D01*
X133445616Y-96680080D01*
X133451233Y-96685191D01*
X133457906Y-96688814D01*
X133457910Y-96688817D01*
X133593558Y-96762467D01*
X133593560Y-96762468D01*
X133600235Y-96766092D01*
X133607584Y-96768020D01*
X133756883Y-96807188D01*
X133756885Y-96807188D01*
X133764233Y-96809116D01*
X133850609Y-96810473D01*
X133926161Y-96811660D01*
X133926164Y-96811660D01*
X133933760Y-96811779D01*
X133941165Y-96810083D01*
X133941166Y-96810083D01*
X134001586Y-96796245D01*
X134099029Y-96773928D01*
X134250498Y-96697747D01*
X134379423Y-96587634D01*
X134478361Y-96449947D01*
X134481194Y-96442900D01*
X134513769Y-96361869D01*
X134557736Y-96306125D01*
X134624861Y-96283000D01*
X134693833Y-96299837D01*
X134719771Y-96319771D01*
X134761883Y-96361883D01*
X134795909Y-96424195D01*
X134797710Y-96467423D01*
X134794394Y-96492611D01*
X134812999Y-96661135D01*
X134824593Y-96692816D01*
X134868084Y-96811660D01*
X134871266Y-96820356D01*
X134875502Y-96826659D01*
X134875502Y-96826660D01*
X134890617Y-96849153D01*
X134965830Y-96961083D01*
X134971442Y-96966190D01*
X134971445Y-96966193D01*
X135085612Y-97070077D01*
X135085616Y-97070080D01*
X135091233Y-97075191D01*
X135097906Y-97078814D01*
X135097910Y-97078817D01*
X135233558Y-97152467D01*
X135233560Y-97152468D01*
X135240235Y-97156092D01*
X135247584Y-97158020D01*
X135396883Y-97197188D01*
X135396885Y-97197188D01*
X135404233Y-97199116D01*
X135480354Y-97200312D01*
X135551198Y-97201425D01*
X135618996Y-97222494D01*
X135638314Y-97238314D01*
X136600000Y-98200000D01*
X136700000Y-98200000D01*
X140908923Y-93991077D01*
X140971235Y-93957051D01*
X140994601Y-93954539D01*
X141000000Y-93955250D01*
X141143709Y-93936330D01*
X141147522Y-93934751D01*
X141216583Y-93936393D01*
G37*
G04 #@! TD.AperFunction*
G04 #@! TA.AperFunction,Conductor*
G36*
X165415931Y-58520002D02*
G01*
X165436905Y-58536905D01*
X165963095Y-59063095D01*
X165997121Y-59125407D01*
X166000000Y-59152190D01*
X166000000Y-63647810D01*
X165979998Y-63715931D01*
X165963095Y-63736905D01*
X165036905Y-64663095D01*
X164974593Y-64697121D01*
X164947810Y-64700000D01*
X161484000Y-64700000D01*
X161415879Y-64679998D01*
X161369386Y-64626342D01*
X161358000Y-64574000D01*
X161358000Y-64147115D01*
X161353525Y-64131876D01*
X161352135Y-64130671D01*
X161344452Y-64129000D01*
X158660116Y-64129000D01*
X158644877Y-64133475D01*
X158643672Y-64134865D01*
X158642001Y-64142548D01*
X158642001Y-64574000D01*
X158621999Y-64642121D01*
X158568343Y-64688614D01*
X158516001Y-64700000D01*
X157136393Y-64700000D01*
X157068272Y-64679998D01*
X157021779Y-64626342D01*
X157010393Y-64574000D01*
X157010393Y-64146985D01*
X157005918Y-64131746D01*
X157004528Y-64130541D01*
X156996845Y-64128870D01*
X154312509Y-64128870D01*
X154297270Y-64133345D01*
X154296065Y-64134735D01*
X154294394Y-64142418D01*
X154294394Y-64574000D01*
X154274392Y-64642121D01*
X154220736Y-64688614D01*
X154168394Y-64700000D01*
X152002190Y-64700000D01*
X151934069Y-64679998D01*
X151913095Y-64663095D01*
X151300000Y-64050000D01*
X151300000Y-63602755D01*
X154294393Y-63602755D01*
X154298868Y-63617994D01*
X154300258Y-63619199D01*
X154307941Y-63620870D01*
X155380278Y-63620870D01*
X155395517Y-63616395D01*
X155396722Y-63615005D01*
X155398393Y-63607322D01*
X155398393Y-63602755D01*
X155906393Y-63602755D01*
X155910868Y-63617994D01*
X155912258Y-63619199D01*
X155919941Y-63620870D01*
X156992277Y-63620870D01*
X157007516Y-63616395D01*
X157008721Y-63615005D01*
X157010392Y-63607322D01*
X157010392Y-63602885D01*
X158642000Y-63602885D01*
X158646475Y-63618124D01*
X158647865Y-63619329D01*
X158655548Y-63621000D01*
X159727885Y-63621000D01*
X159743124Y-63616525D01*
X159744329Y-63615135D01*
X159746000Y-63607452D01*
X159746000Y-63602885D01*
X160254000Y-63602885D01*
X160258475Y-63618124D01*
X160259865Y-63619329D01*
X160267548Y-63621000D01*
X161339884Y-63621000D01*
X161355123Y-63616525D01*
X161356328Y-63615135D01*
X161357999Y-63607452D01*
X161357999Y-62980331D01*
X161357629Y-62973510D01*
X161352105Y-62922648D01*
X161348479Y-62907396D01*
X161303324Y-62786946D01*
X161294786Y-62771351D01*
X161218285Y-62669276D01*
X161205724Y-62656715D01*
X161103649Y-62580214D01*
X161088054Y-62571676D01*
X160967606Y-62526522D01*
X160952351Y-62522895D01*
X160901486Y-62517369D01*
X160894672Y-62517000D01*
X160272115Y-62517000D01*
X160256876Y-62521475D01*
X160255671Y-62522865D01*
X160254000Y-62530548D01*
X160254000Y-63602885D01*
X159746000Y-63602885D01*
X159746000Y-62535116D01*
X159741525Y-62519877D01*
X159740135Y-62518672D01*
X159732452Y-62517001D01*
X159105331Y-62517001D01*
X159098510Y-62517371D01*
X159047648Y-62522895D01*
X159032396Y-62526521D01*
X158911946Y-62571676D01*
X158896351Y-62580214D01*
X158794276Y-62656715D01*
X158781715Y-62669276D01*
X158705214Y-62771351D01*
X158696676Y-62786946D01*
X158651522Y-62907394D01*
X158647895Y-62922649D01*
X158642369Y-62973514D01*
X158642000Y-62980328D01*
X158642000Y-63602885D01*
X157010392Y-63602885D01*
X157010392Y-62980201D01*
X157010022Y-62973380D01*
X157004498Y-62922518D01*
X157000872Y-62907266D01*
X156955717Y-62786816D01*
X156947179Y-62771221D01*
X156870678Y-62669146D01*
X156858117Y-62656585D01*
X156756042Y-62580084D01*
X156740447Y-62571546D01*
X156619999Y-62526392D01*
X156604744Y-62522765D01*
X156553879Y-62517239D01*
X156547065Y-62516870D01*
X155924508Y-62516870D01*
X155909269Y-62521345D01*
X155908064Y-62522735D01*
X155906393Y-62530418D01*
X155906393Y-63602755D01*
X155398393Y-63602755D01*
X155398393Y-62534986D01*
X155393918Y-62519747D01*
X155392528Y-62518542D01*
X155384845Y-62516871D01*
X154757724Y-62516871D01*
X154750903Y-62517241D01*
X154700041Y-62522765D01*
X154684789Y-62526391D01*
X154564339Y-62571546D01*
X154548744Y-62580084D01*
X154446669Y-62656585D01*
X154434108Y-62669146D01*
X154357607Y-62771221D01*
X154349069Y-62786816D01*
X154303915Y-62907264D01*
X154300288Y-62922519D01*
X154294762Y-62973384D01*
X154294393Y-62980198D01*
X154294393Y-63602755D01*
X151300000Y-63602755D01*
X151300000Y-63400000D01*
X143300000Y-63400000D01*
X143300000Y-63950000D01*
X142786905Y-64463095D01*
X142724593Y-64497121D01*
X142697810Y-64500000D01*
X138402190Y-64500000D01*
X138334069Y-64479998D01*
X138313095Y-64463095D01*
X137800000Y-63950000D01*
X137800000Y-63400000D01*
X129352190Y-63400000D01*
X129284069Y-63379998D01*
X129263095Y-63363095D01*
X128336905Y-62436905D01*
X128302879Y-62374593D01*
X128300000Y-62347810D01*
X128300000Y-59152190D01*
X128320002Y-59084069D01*
X128336905Y-59063095D01*
X128863095Y-58536905D01*
X128925407Y-58502879D01*
X128952190Y-58500000D01*
X165347810Y-58500000D01*
X165415931Y-58520002D01*
G37*
G04 #@! TD.AperFunction*
G04 #@! TA.AperFunction,Conductor*
G36*
X128156825Y-58320002D02*
G01*
X128203318Y-58373658D01*
X128213422Y-58443932D01*
X128183928Y-58508512D01*
X128177799Y-58515095D01*
X127983352Y-58709542D01*
X127947594Y-58749348D01*
X127930691Y-58770322D01*
X127899375Y-58813749D01*
X127840255Y-58943204D01*
X127820253Y-59011325D01*
X127819613Y-59015774D01*
X127819612Y-59015780D01*
X127800639Y-59147742D01*
X127800638Y-59147749D01*
X127800000Y-59152190D01*
X127800000Y-62347810D01*
X127802864Y-62401249D01*
X127805743Y-62428032D01*
X127814307Y-62480882D01*
X127864043Y-62614223D01*
X127866196Y-62618166D01*
X127866197Y-62618168D01*
X127895913Y-62672587D01*
X127898069Y-62676535D01*
X127900764Y-62680135D01*
X127980655Y-62786856D01*
X127980659Y-62786861D01*
X127983352Y-62790458D01*
X128909542Y-63716648D01*
X128949348Y-63752406D01*
X128970322Y-63769309D01*
X129013749Y-63800625D01*
X129143204Y-63859745D01*
X129166958Y-63866720D01*
X129207002Y-63878478D01*
X129207006Y-63878479D01*
X129211325Y-63879747D01*
X129215774Y-63880387D01*
X129215780Y-63880388D01*
X129347742Y-63899361D01*
X129347749Y-63899362D01*
X129352190Y-63900000D01*
X137181445Y-63900000D01*
X137249566Y-63920002D01*
X137296059Y-63973658D01*
X137306723Y-64012531D01*
X137311427Y-64056283D01*
X137361161Y-64189624D01*
X137366560Y-64196836D01*
X137366561Y-64196838D01*
X137388733Y-64226456D01*
X137446447Y-64303553D01*
X137959542Y-64816648D01*
X137999348Y-64852406D01*
X138020322Y-64869309D01*
X138063749Y-64900625D01*
X138193204Y-64959745D01*
X138216958Y-64966720D01*
X138257002Y-64978478D01*
X138257006Y-64978479D01*
X138261325Y-64979747D01*
X138265774Y-64980387D01*
X138265780Y-64980388D01*
X138397742Y-64999361D01*
X138397749Y-64999362D01*
X138402190Y-65000000D01*
X142697810Y-65000000D01*
X142730829Y-64998230D01*
X142749555Y-64997227D01*
X142749563Y-64997226D01*
X142751249Y-64997136D01*
X142762383Y-64995939D01*
X142776368Y-64994436D01*
X142776373Y-64994435D01*
X142778032Y-64994257D01*
X142830882Y-64985693D01*
X142880199Y-64967298D01*
X142960009Y-64937529D01*
X142960011Y-64937528D01*
X142964223Y-64935957D01*
X142991067Y-64921299D01*
X143022587Y-64904087D01*
X143022589Y-64904086D01*
X143026535Y-64901931D01*
X143094204Y-64851274D01*
X143136856Y-64819345D01*
X143136861Y-64819341D01*
X143140458Y-64816648D01*
X143653553Y-64303553D01*
X143655666Y-64300930D01*
X143655674Y-64300922D01*
X143715682Y-64226456D01*
X143720627Y-64220320D01*
X143779746Y-64090866D01*
X143791651Y-64008068D01*
X143821144Y-63943487D01*
X143880870Y-63905104D01*
X143916368Y-63900000D01*
X150674000Y-63900000D01*
X150742121Y-63920002D01*
X150788614Y-63973658D01*
X150800000Y-64026000D01*
X150800000Y-64050000D01*
X150811427Y-64156283D01*
X150861161Y-64289624D01*
X150866560Y-64296836D01*
X150866561Y-64296838D01*
X150871588Y-64303553D01*
X150946447Y-64403553D01*
X151559542Y-65016648D01*
X151560798Y-65017777D01*
X151560803Y-65017781D01*
X151567284Y-65023603D01*
X151599348Y-65052406D01*
X151620322Y-65069309D01*
X151663749Y-65100625D01*
X151793204Y-65159745D01*
X151816958Y-65166720D01*
X151857002Y-65178478D01*
X151857006Y-65178479D01*
X151861325Y-65179747D01*
X151865774Y-65180387D01*
X151865780Y-65180388D01*
X151997742Y-65199361D01*
X151997749Y-65199362D01*
X152002190Y-65200000D01*
X154168394Y-65200000D01*
X154171741Y-65199640D01*
X154171744Y-65199640D01*
X154271310Y-65188936D01*
X154271316Y-65188935D01*
X154274674Y-65188574D01*
X154283372Y-65186682D01*
X154323735Y-65177902D01*
X154323740Y-65177901D01*
X154327016Y-65177188D01*
X154428443Y-65143430D01*
X154548166Y-65066489D01*
X154583621Y-65035767D01*
X154648202Y-65006274D01*
X154717082Y-65015752D01*
X154732066Y-65022376D01*
X154757747Y-65025370D01*
X155467381Y-65025370D01*
X155535502Y-65045372D01*
X155581995Y-65099028D01*
X155592099Y-65169302D01*
X155562605Y-65233882D01*
X155502879Y-65272266D01*
X155488719Y-65275550D01*
X155359043Y-65297832D01*
X155359042Y-65297832D01*
X155353346Y-65298811D01*
X155154968Y-65371997D01*
X155150007Y-65374949D01*
X155150006Y-65374949D01*
X155132482Y-65385375D01*
X154973249Y-65480108D01*
X154814274Y-65619525D01*
X154683369Y-65785578D01*
X154680680Y-65790689D01*
X154680678Y-65790692D01*
X154668097Y-65814605D01*
X154584916Y-65972706D01*
X154522213Y-66174643D01*
X154497360Y-66384624D01*
X154511189Y-66595619D01*
X154512610Y-66601215D01*
X154512611Y-66601220D01*
X154535177Y-66690070D01*
X154563238Y-66800560D01*
X154565655Y-66805803D01*
X154604409Y-66889868D01*
X154651762Y-66992584D01*
X154773798Y-67165261D01*
X154925258Y-67312807D01*
X154930054Y-67316012D01*
X154930057Y-67316014D01*
X155010922Y-67370046D01*
X155101070Y-67430281D01*
X155106378Y-67432562D01*
X155106379Y-67432562D01*
X155290043Y-67511470D01*
X155290046Y-67511471D01*
X155295346Y-67513748D01*
X155300975Y-67515022D01*
X155300976Y-67515022D01*
X155495943Y-67559139D01*
X155495946Y-67559139D01*
X155501579Y-67560414D01*
X155507350Y-67560641D01*
X155507352Y-67560641D01*
X155569382Y-67563078D01*
X155712863Y-67568716D01*
X155718572Y-67567888D01*
X155718576Y-67567888D01*
X155916408Y-67539203D01*
X155916412Y-67539202D01*
X155922123Y-67538374D01*
X156001380Y-67511470D01*
X156116876Y-67472265D01*
X156116881Y-67472263D01*
X156122348Y-67470407D01*
X156189693Y-67432692D01*
X156301788Y-67369916D01*
X156301792Y-67369913D01*
X156306835Y-67367089D01*
X156469405Y-67231882D01*
X156604612Y-67069312D01*
X156607436Y-67064269D01*
X156607439Y-67064265D01*
X156705106Y-66889868D01*
X156705107Y-66889866D01*
X156707930Y-66884825D01*
X156709786Y-66879358D01*
X156709788Y-66879353D01*
X156774040Y-66690070D01*
X156775897Y-66684600D01*
X156780867Y-66650327D01*
X156805707Y-66479010D01*
X156805707Y-66479008D01*
X156806239Y-66475340D01*
X156807822Y-66414870D01*
X156788474Y-66204310D01*
X156731079Y-66000801D01*
X156720010Y-65978354D01*
X156640112Y-65816339D01*
X156637558Y-65811160D01*
X156511044Y-65641737D01*
X156410679Y-65548960D01*
X156360015Y-65502127D01*
X156360013Y-65502125D01*
X156355774Y-65498207D01*
X156350891Y-65495126D01*
X156181827Y-65388454D01*
X156181826Y-65388454D01*
X156176947Y-65385375D01*
X155980553Y-65307022D01*
X155974896Y-65305897D01*
X155974890Y-65305895D01*
X155819309Y-65274949D01*
X155756399Y-65242042D01*
X155721267Y-65180347D01*
X155725067Y-65109452D01*
X155766592Y-65051866D01*
X155832659Y-65025872D01*
X155843890Y-65025370D01*
X156547039Y-65025370D01*
X156550743Y-65024929D01*
X156550746Y-65024929D01*
X156563854Y-65023369D01*
X156563855Y-65023369D01*
X156573239Y-65022252D01*
X156588841Y-65015322D01*
X156659215Y-65005947D01*
X156722502Y-65035247D01*
X156797952Y-65100625D01*
X156927407Y-65159745D01*
X156951161Y-65166720D01*
X156991205Y-65178478D01*
X156991209Y-65178479D01*
X156995528Y-65179747D01*
X156999977Y-65180387D01*
X156999983Y-65180388D01*
X157131945Y-65199361D01*
X157131952Y-65199362D01*
X157136393Y-65200000D01*
X158516001Y-65200000D01*
X158519348Y-65199640D01*
X158519351Y-65199640D01*
X158618917Y-65188936D01*
X158618923Y-65188935D01*
X158622281Y-65188574D01*
X158630979Y-65186682D01*
X158671342Y-65177902D01*
X158671347Y-65177901D01*
X158674623Y-65177188D01*
X158776050Y-65143430D01*
X158895773Y-65066489D01*
X158913332Y-65051274D01*
X158931131Y-65035852D01*
X158995712Y-65006360D01*
X159064588Y-65015837D01*
X159071007Y-65018675D01*
X159071009Y-65018675D01*
X159079673Y-65022506D01*
X159105354Y-65025500D01*
X159814988Y-65025500D01*
X159883109Y-65045502D01*
X159929602Y-65099158D01*
X159939706Y-65169432D01*
X159910212Y-65234012D01*
X159850486Y-65272396D01*
X159836326Y-65275680D01*
X159706650Y-65297962D01*
X159706649Y-65297962D01*
X159700953Y-65298941D01*
X159502575Y-65372127D01*
X159497614Y-65375079D01*
X159497613Y-65375079D01*
X159480089Y-65385505D01*
X159320856Y-65480238D01*
X159161881Y-65619655D01*
X159030976Y-65785708D01*
X159028287Y-65790819D01*
X159028285Y-65790822D01*
X158978400Y-65885638D01*
X158932523Y-65972836D01*
X158869820Y-66174773D01*
X158844967Y-66384754D01*
X158858796Y-66595749D01*
X158860217Y-66601345D01*
X158860218Y-66601350D01*
X158882784Y-66690200D01*
X158910845Y-66800690D01*
X158999369Y-66992714D01*
X159121405Y-67165391D01*
X159272865Y-67312937D01*
X159277661Y-67316142D01*
X159277664Y-67316144D01*
X159415397Y-67408174D01*
X159448677Y-67430411D01*
X159453985Y-67432692D01*
X159453986Y-67432692D01*
X159637650Y-67511600D01*
X159637653Y-67511601D01*
X159642953Y-67513878D01*
X159648582Y-67515152D01*
X159648583Y-67515152D01*
X159843550Y-67559269D01*
X159843553Y-67559269D01*
X159849186Y-67560544D01*
X159854957Y-67560771D01*
X159854959Y-67560771D01*
X159916989Y-67563208D01*
X160060470Y-67568846D01*
X160066179Y-67568018D01*
X160066183Y-67568018D01*
X160264015Y-67539333D01*
X160264019Y-67539332D01*
X160269730Y-67538504D01*
X160349370Y-67511470D01*
X160464483Y-67472395D01*
X160464488Y-67472393D01*
X160469955Y-67470537D01*
X160475230Y-67467583D01*
X160649395Y-67370046D01*
X160649399Y-67370043D01*
X160654442Y-67367219D01*
X160817012Y-67232012D01*
X160952219Y-67069442D01*
X160955043Y-67064399D01*
X160955046Y-67064395D01*
X161052713Y-66889998D01*
X161052714Y-66889996D01*
X161055537Y-66884955D01*
X161057393Y-66879488D01*
X161057395Y-66879483D01*
X161121647Y-66690200D01*
X161123504Y-66684730D01*
X161127801Y-66655099D01*
X161153314Y-66479140D01*
X161153314Y-66479138D01*
X161153846Y-66475470D01*
X161155429Y-66415000D01*
X161136081Y-66204440D01*
X161129296Y-66180380D01*
X161080255Y-66006496D01*
X161078686Y-66000931D01*
X161076067Y-65995619D01*
X160987719Y-65816469D01*
X160985165Y-65811290D01*
X160858651Y-65641867D01*
X160703381Y-65498337D01*
X160524554Y-65385505D01*
X160328160Y-65307152D01*
X160322503Y-65306027D01*
X160322497Y-65306025D01*
X160166916Y-65275079D01*
X160104006Y-65242172D01*
X160068874Y-65180477D01*
X160072674Y-65109582D01*
X160114199Y-65051996D01*
X160180266Y-65026002D01*
X160191497Y-65025500D01*
X160894646Y-65025500D01*
X160898350Y-65025059D01*
X160898353Y-65025059D01*
X160911461Y-65023499D01*
X160911462Y-65023499D01*
X160920846Y-65022382D01*
X160936547Y-65015408D01*
X161006921Y-65006033D01*
X161070207Y-65035332D01*
X161145559Y-65100625D01*
X161275014Y-65159745D01*
X161298768Y-65166720D01*
X161338812Y-65178478D01*
X161338816Y-65178479D01*
X161343135Y-65179747D01*
X161347584Y-65180387D01*
X161347590Y-65180388D01*
X161479552Y-65199361D01*
X161479559Y-65199362D01*
X161484000Y-65200000D01*
X164947810Y-65200000D01*
X164980829Y-65198230D01*
X164999555Y-65197227D01*
X164999563Y-65197226D01*
X165001249Y-65197136D01*
X165012383Y-65195939D01*
X165026368Y-65194436D01*
X165026373Y-65194435D01*
X165028032Y-65194257D01*
X165080882Y-65185693D01*
X165130199Y-65167298D01*
X165210009Y-65137529D01*
X165210011Y-65137528D01*
X165214223Y-65135957D01*
X165276535Y-65101931D01*
X165321540Y-65068240D01*
X165386856Y-65019345D01*
X165386861Y-65019341D01*
X165390458Y-65016648D01*
X166316648Y-64090458D01*
X166352406Y-64050652D01*
X166369309Y-64029678D01*
X166390710Y-64000000D01*
X169694450Y-64000000D01*
X169714639Y-64462409D01*
X169715000Y-64465148D01*
X169772670Y-64903196D01*
X169775053Y-64921299D01*
X169875232Y-65373177D01*
X169876060Y-65375802D01*
X169876061Y-65375807D01*
X170013369Y-65811290D01*
X170014414Y-65814605D01*
X170191539Y-66242222D01*
X170405259Y-66652775D01*
X170653948Y-67043138D01*
X170798776Y-67231882D01*
X170902624Y-67367219D01*
X170935713Y-67410342D01*
X171248410Y-67751590D01*
X171589658Y-68064287D01*
X171591820Y-68065946D01*
X171591826Y-68065951D01*
X171604874Y-68075963D01*
X171956862Y-68346052D01*
X172347225Y-68594741D01*
X172757778Y-68808461D01*
X172760319Y-68809513D01*
X172760320Y-68809514D01*
X172791654Y-68822493D01*
X173185395Y-68985586D01*
X173188015Y-68986412D01*
X173188023Y-68986415D01*
X173624193Y-69123939D01*
X173624198Y-69123940D01*
X173626823Y-69124768D01*
X174078701Y-69224947D01*
X174081420Y-69225305D01*
X174081426Y-69225306D01*
X174253504Y-69247960D01*
X174537591Y-69285361D01*
X175000000Y-69305550D01*
X175462409Y-69285361D01*
X175746496Y-69247960D01*
X175918574Y-69225306D01*
X175918580Y-69225305D01*
X175921299Y-69224947D01*
X176373177Y-69124768D01*
X176375802Y-69123940D01*
X176375807Y-69123939D01*
X176811977Y-68986415D01*
X176811985Y-68986412D01*
X176814605Y-68985586D01*
X177208346Y-68822493D01*
X177239680Y-68809514D01*
X177239681Y-68809513D01*
X177242222Y-68808461D01*
X177652775Y-68594741D01*
X178043138Y-68346052D01*
X178395126Y-68075963D01*
X178408174Y-68065951D01*
X178408180Y-68065946D01*
X178410342Y-68064287D01*
X178751590Y-67751590D01*
X179064287Y-67410342D01*
X179097377Y-67367219D01*
X179201224Y-67231882D01*
X179346052Y-67043138D01*
X179594741Y-66652775D01*
X179808461Y-66242222D01*
X179985586Y-65814605D01*
X179986632Y-65811290D01*
X180123939Y-65375807D01*
X180123940Y-65375802D01*
X180124768Y-65373177D01*
X180224947Y-64921299D01*
X180227331Y-64903196D01*
X180285000Y-64465148D01*
X180285361Y-64462409D01*
X180305550Y-64000000D01*
X180285361Y-63537591D01*
X180247960Y-63253504D01*
X180225306Y-63081426D01*
X180225305Y-63081420D01*
X180224947Y-63078701D01*
X180124768Y-62626823D01*
X180115408Y-62597137D01*
X179986415Y-62188023D01*
X179986412Y-62188015D01*
X179985586Y-62185395D01*
X179810293Y-61762201D01*
X179809514Y-61760320D01*
X179809513Y-61760319D01*
X179808461Y-61757778D01*
X179594741Y-61347225D01*
X179346052Y-60956862D01*
X179136798Y-60684156D01*
X179065951Y-60591826D01*
X179065946Y-60591820D01*
X179064287Y-60589658D01*
X178751590Y-60248410D01*
X178410342Y-59935713D01*
X178408180Y-59934054D01*
X178408174Y-59934049D01*
X178258301Y-59819048D01*
X178043138Y-59653948D01*
X177652775Y-59405259D01*
X177242222Y-59191539D01*
X176814605Y-59014414D01*
X176811985Y-59013588D01*
X176811977Y-59013585D01*
X176375807Y-58876061D01*
X176375802Y-58876060D01*
X176373177Y-58875232D01*
X175921299Y-58775053D01*
X175918580Y-58774695D01*
X175918574Y-58774694D01*
X175716479Y-58748088D01*
X175462409Y-58714639D01*
X175000000Y-58694450D01*
X174537591Y-58714639D01*
X174283521Y-58748088D01*
X174081426Y-58774694D01*
X174081420Y-58774695D01*
X174078701Y-58775053D01*
X173626823Y-58875232D01*
X173624198Y-58876060D01*
X173624193Y-58876061D01*
X173188023Y-59013585D01*
X173188015Y-59013588D01*
X173185395Y-59014414D01*
X172757778Y-59191539D01*
X172347225Y-59405259D01*
X171956862Y-59653948D01*
X171741699Y-59819048D01*
X171591826Y-59934049D01*
X171591820Y-59934054D01*
X171589658Y-59935713D01*
X171248410Y-60248410D01*
X170935713Y-60589658D01*
X170934054Y-60591820D01*
X170934049Y-60591826D01*
X170863202Y-60684156D01*
X170653948Y-60956862D01*
X170405259Y-61347225D01*
X170191539Y-61757778D01*
X170190487Y-61760319D01*
X170190486Y-61760320D01*
X170189707Y-61762201D01*
X170014414Y-62185395D01*
X170013588Y-62188015D01*
X170013585Y-62188023D01*
X169884592Y-62597137D01*
X169875232Y-62626823D01*
X169775053Y-63078701D01*
X169774695Y-63081420D01*
X169774694Y-63081426D01*
X169752040Y-63253504D01*
X169714639Y-63537591D01*
X169694450Y-64000000D01*
X166390710Y-64000000D01*
X166400625Y-63986251D01*
X166459745Y-63856796D01*
X166466720Y-63833042D01*
X166478478Y-63792998D01*
X166478479Y-63792994D01*
X166479747Y-63788675D01*
X166480388Y-63784220D01*
X166499361Y-63652258D01*
X166499362Y-63652251D01*
X166500000Y-63647810D01*
X166500000Y-59152190D01*
X166497136Y-59098751D01*
X166494257Y-59071968D01*
X166485693Y-59019118D01*
X166435957Y-58885777D01*
X166430652Y-58876061D01*
X166404087Y-58827413D01*
X166404086Y-58827411D01*
X166401931Y-58823465D01*
X166362148Y-58770322D01*
X166319345Y-58713144D01*
X166319341Y-58713139D01*
X166316648Y-58709542D01*
X166122201Y-58515095D01*
X166088175Y-58452783D01*
X166093240Y-58381968D01*
X166135787Y-58325132D01*
X166202307Y-58300321D01*
X166211296Y-58300000D01*
X174962729Y-58300000D01*
X174984608Y-58301914D01*
X174989144Y-58302714D01*
X174989145Y-58302714D01*
X175000000Y-58304628D01*
X175010859Y-58302713D01*
X175015203Y-58302713D01*
X175034973Y-58301374D01*
X175442267Y-58317377D01*
X175452130Y-58318153D01*
X175886766Y-58369595D01*
X175896537Y-58371143D01*
X176325785Y-58456526D01*
X176335406Y-58458836D01*
X176756631Y-58577634D01*
X176766039Y-58580691D01*
X177176652Y-58732173D01*
X177185790Y-58735958D01*
X177366744Y-58819379D01*
X177583245Y-58919188D01*
X177592060Y-58923679D01*
X177973926Y-59137534D01*
X177982362Y-59142704D01*
X178346266Y-59385856D01*
X178354254Y-59391660D01*
X178373383Y-59406740D01*
X178697964Y-59662620D01*
X178705487Y-59669045D01*
X178780003Y-59737926D01*
X179026885Y-59966141D01*
X179033859Y-59973115D01*
X179170292Y-60120708D01*
X179330955Y-60294513D01*
X179337380Y-60302036D01*
X179360016Y-60330749D01*
X179560631Y-60585227D01*
X179608334Y-60645738D01*
X179614144Y-60653734D01*
X179742651Y-60846059D01*
X179857296Y-61017638D01*
X179862466Y-61026074D01*
X180076321Y-61407940D01*
X180080812Y-61416755D01*
X180260901Y-61807395D01*
X180264041Y-61814207D01*
X180267827Y-61823348D01*
X180419309Y-62233961D01*
X180422366Y-62243369D01*
X180541164Y-62664594D01*
X180543474Y-62674215D01*
X180628857Y-63103463D01*
X180630405Y-63113234D01*
X180681847Y-63547870D01*
X180682623Y-63557733D01*
X180698626Y-63965027D01*
X180697287Y-63984797D01*
X180697287Y-63989141D01*
X180695372Y-64000000D01*
X180697286Y-64010855D01*
X180697286Y-64010856D01*
X180698086Y-64015392D01*
X180700000Y-64037271D01*
X180700000Y-117374000D01*
X180679998Y-117442121D01*
X180626342Y-117488614D01*
X180574000Y-117500000D01*
X165426000Y-117500000D01*
X165357879Y-117479998D01*
X165311386Y-117426342D01*
X165300000Y-117374000D01*
X165300000Y-117052256D01*
X165300562Y-117040756D01*
X165303740Y-117029782D01*
X165300470Y-116992025D01*
X165300000Y-116981153D01*
X165300000Y-116972095D01*
X165298779Y-116965538D01*
X165297121Y-116953352D01*
X165295101Y-116930033D01*
X165294097Y-116918440D01*
X165288988Y-116907989D01*
X165288080Y-116904714D01*
X165286864Y-116901563D01*
X165284735Y-116890130D01*
X165266338Y-116860284D01*
X165260412Y-116849528D01*
X165245017Y-116818034D01*
X165236485Y-116810120D01*
X165234467Y-116807403D01*
X165232197Y-116804900D01*
X165226091Y-116794993D01*
X165198195Y-116773781D01*
X165188784Y-116765871D01*
X165163083Y-116742029D01*
X165152277Y-116737717D01*
X165149410Y-116735905D01*
X165146389Y-116734386D01*
X165137131Y-116727346D01*
X165125963Y-116724112D01*
X165125957Y-116724109D01*
X165103475Y-116717599D01*
X165091833Y-116713602D01*
X165067541Y-116703910D01*
X165067535Y-116703909D01*
X165059280Y-116700615D01*
X165053007Y-116700000D01*
X165049918Y-116700000D01*
X165046855Y-116699850D01*
X165046861Y-116699736D01*
X165040756Y-116699438D01*
X165029782Y-116696260D01*
X165018189Y-116697264D01*
X165018188Y-116697264D01*
X164994482Y-116699317D01*
X164993538Y-116699399D01*
X164992025Y-116699530D01*
X164981153Y-116700000D01*
X132852256Y-116700000D01*
X132840756Y-116699438D01*
X132829782Y-116696260D01*
X132818189Y-116697264D01*
X132818188Y-116697264D01*
X132794482Y-116699317D01*
X132793538Y-116699399D01*
X132792025Y-116699530D01*
X132781153Y-116700000D01*
X132772095Y-116700000D01*
X132766394Y-116701062D01*
X132766391Y-116701062D01*
X132765539Y-116701221D01*
X132753352Y-116702879D01*
X132732860Y-116704654D01*
X132718440Y-116705903D01*
X132707989Y-116711012D01*
X132704714Y-116711920D01*
X132701563Y-116713136D01*
X132690130Y-116715265D01*
X132660284Y-116733662D01*
X132649528Y-116739588D01*
X132618034Y-116754983D01*
X132610120Y-116763515D01*
X132607403Y-116765533D01*
X132604900Y-116767803D01*
X132594993Y-116773909D01*
X132573782Y-116801803D01*
X132565871Y-116811216D01*
X132542029Y-116836917D01*
X132537717Y-116847723D01*
X132535905Y-116850590D01*
X132534386Y-116853611D01*
X132527346Y-116862869D01*
X132524112Y-116874037D01*
X132524109Y-116874043D01*
X132517599Y-116896525D01*
X132513602Y-116908167D01*
X132503910Y-116932459D01*
X132503909Y-116932465D01*
X132500615Y-116940720D01*
X132500000Y-116946993D01*
X132500000Y-116950082D01*
X132499850Y-116953145D01*
X132499736Y-116953139D01*
X132499438Y-116959244D01*
X132496260Y-116970218D01*
X132497264Y-116981811D01*
X132497264Y-116981812D01*
X132499530Y-117007975D01*
X132500000Y-117018847D01*
X132500000Y-117374000D01*
X132479998Y-117442121D01*
X132426342Y-117488614D01*
X132374000Y-117500000D01*
X129826000Y-117500000D01*
X129757879Y-117479998D01*
X129711386Y-117426342D01*
X129700000Y-117374000D01*
X129700000Y-117052256D01*
X129700562Y-117040756D01*
X129703740Y-117029782D01*
X129700470Y-116992025D01*
X129700000Y-116981153D01*
X129700000Y-116972095D01*
X129698779Y-116965538D01*
X129697121Y-116953352D01*
X129695101Y-116930033D01*
X129694097Y-116918440D01*
X129688988Y-116907989D01*
X129688080Y-116904714D01*
X129686864Y-116901563D01*
X129684735Y-116890130D01*
X129666338Y-116860284D01*
X129660412Y-116849528D01*
X129645017Y-116818034D01*
X129636485Y-116810120D01*
X129634467Y-116807403D01*
X129632197Y-116804900D01*
X129626091Y-116794993D01*
X129598195Y-116773781D01*
X129588784Y-116765871D01*
X129563083Y-116742029D01*
X129552277Y-116737717D01*
X129549410Y-116735905D01*
X129546389Y-116734386D01*
X129537131Y-116727346D01*
X129525963Y-116724112D01*
X129525957Y-116724109D01*
X129503475Y-116717599D01*
X129491833Y-116713602D01*
X129467541Y-116703910D01*
X129467535Y-116703909D01*
X129459280Y-116700615D01*
X129453007Y-116700000D01*
X129449918Y-116700000D01*
X129446855Y-116699850D01*
X129446861Y-116699736D01*
X129440756Y-116699438D01*
X129429782Y-116696260D01*
X129418189Y-116697264D01*
X129418188Y-116697264D01*
X129394482Y-116699317D01*
X129393538Y-116699399D01*
X129392025Y-116699530D01*
X129381153Y-116700000D01*
X113052256Y-116700000D01*
X113040756Y-116699438D01*
X113029782Y-116696260D01*
X113018189Y-116697264D01*
X113018188Y-116697264D01*
X112994482Y-116699317D01*
X112993538Y-116699399D01*
X112992025Y-116699530D01*
X112981153Y-116700000D01*
X112972095Y-116700000D01*
X112966394Y-116701062D01*
X112966391Y-116701062D01*
X112965539Y-116701221D01*
X112953352Y-116702879D01*
X112932860Y-116704654D01*
X112918440Y-116705903D01*
X112907989Y-116711012D01*
X112904714Y-116711920D01*
X112901563Y-116713136D01*
X112890130Y-116715265D01*
X112860284Y-116733662D01*
X112849528Y-116739588D01*
X112818034Y-116754983D01*
X112810120Y-116763515D01*
X112807403Y-116765533D01*
X112804900Y-116767803D01*
X112794993Y-116773909D01*
X112773782Y-116801803D01*
X112765871Y-116811216D01*
X112742029Y-116836917D01*
X112737717Y-116847723D01*
X112735905Y-116850590D01*
X112734386Y-116853611D01*
X112727346Y-116862869D01*
X112724112Y-116874037D01*
X112724109Y-116874043D01*
X112717599Y-116896525D01*
X112713602Y-116908167D01*
X112703910Y-116932459D01*
X112703909Y-116932465D01*
X112700615Y-116940720D01*
X112700000Y-116946993D01*
X112700000Y-116950082D01*
X112699850Y-116953145D01*
X112699736Y-116953139D01*
X112699438Y-116959244D01*
X112696260Y-116970218D01*
X112697264Y-116981811D01*
X112697264Y-116981812D01*
X112699530Y-117007975D01*
X112700000Y-117018847D01*
X112700000Y-117374000D01*
X112679998Y-117442121D01*
X112626342Y-117488614D01*
X112574000Y-117500000D01*
X103426000Y-117500000D01*
X103357879Y-117479998D01*
X103311386Y-117426342D01*
X103300000Y-117374000D01*
X103300000Y-115342111D01*
X156109598Y-115342111D01*
X156128203Y-115510635D01*
X156136071Y-115532134D01*
X156171346Y-115628527D01*
X156186470Y-115669856D01*
X156190706Y-115676159D01*
X156190706Y-115676160D01*
X156203778Y-115695613D01*
X156281034Y-115810583D01*
X156286646Y-115815690D01*
X156286649Y-115815693D01*
X156400816Y-115919577D01*
X156400820Y-115919580D01*
X156406437Y-115924691D01*
X156413110Y-115928314D01*
X156413114Y-115928317D01*
X156548762Y-116001967D01*
X156548764Y-116001968D01*
X156555439Y-116005592D01*
X156562788Y-116007520D01*
X156712087Y-116046688D01*
X156712089Y-116046688D01*
X156719437Y-116048616D01*
X156805813Y-116049973D01*
X156881365Y-116051160D01*
X156881368Y-116051160D01*
X156888964Y-116051279D01*
X156896369Y-116049583D01*
X156896370Y-116049583D01*
X156956790Y-116035745D01*
X157054233Y-116013428D01*
X157205702Y-115937247D01*
X157334627Y-115827134D01*
X157362207Y-115788753D01*
X177194514Y-115788753D01*
X177195201Y-115795760D01*
X177195201Y-115795763D01*
X177197434Y-115818532D01*
X177212039Y-115967486D01*
X177214262Y-115974168D01*
X177214262Y-115974169D01*
X177239349Y-116049583D01*
X177268726Y-116137896D01*
X177361759Y-116291512D01*
X177486514Y-116420699D01*
X177636789Y-116519036D01*
X177805116Y-116581636D01*
X177812097Y-116582567D01*
X177812099Y-116582568D01*
X177976149Y-116604457D01*
X177976153Y-116604457D01*
X177983130Y-116605388D01*
X177990142Y-116604750D01*
X177990146Y-116604750D01*
X178154960Y-116589751D01*
X178154961Y-116589751D01*
X178161981Y-116589112D01*
X178332782Y-116533615D01*
X178363714Y-116515176D01*
X178480992Y-116445265D01*
X178480994Y-116445264D01*
X178487044Y-116441657D01*
X178617099Y-116317807D01*
X178634570Y-116291512D01*
X178712582Y-116174093D01*
X178716483Y-116168222D01*
X178761872Y-116048735D01*
X178777757Y-116006919D01*
X178777758Y-116006914D01*
X178780257Y-116000336D01*
X178805251Y-115822493D01*
X178805417Y-115810583D01*
X178805510Y-115803963D01*
X178805510Y-115803958D01*
X178805565Y-115800000D01*
X178785546Y-115621528D01*
X178779427Y-115603955D01*
X178728803Y-115458584D01*
X178726485Y-115451927D01*
X178659915Y-115345392D01*
X178635049Y-115305599D01*
X178631316Y-115299625D01*
X178567771Y-115235635D01*
X178509733Y-115177190D01*
X178509729Y-115177187D01*
X178504770Y-115172193D01*
X178496484Y-115166934D01*
X178446860Y-115135442D01*
X178353136Y-115075963D01*
X178323352Y-115065357D01*
X178190586Y-115018081D01*
X178190581Y-115018080D01*
X178183951Y-115015719D01*
X178176965Y-115014886D01*
X178176961Y-115014885D01*
X178049177Y-114999648D01*
X178005624Y-114994455D01*
X177998621Y-114995191D01*
X177998620Y-114995191D01*
X177834025Y-115012490D01*
X177834021Y-115012491D01*
X177827017Y-115013227D01*
X177820346Y-115015498D01*
X177663677Y-115068832D01*
X177663674Y-115068833D01*
X177657007Y-115071103D01*
X177651009Y-115074793D01*
X177651007Y-115074794D01*
X177580526Y-115118154D01*
X177504045Y-115165206D01*
X177499014Y-115170132D01*
X177499011Y-115170135D01*
X177487358Y-115181547D01*
X177375732Y-115290859D01*
X177371913Y-115296784D01*
X177371912Y-115296786D01*
X177282265Y-115435891D01*
X177278446Y-115441817D01*
X177217022Y-115610578D01*
X177194514Y-115788753D01*
X157362207Y-115788753D01*
X157433565Y-115689447D01*
X157441441Y-115669856D01*
X157493970Y-115539187D01*
X157493971Y-115539185D01*
X157496805Y-115532134D01*
X157520694Y-115364278D01*
X157520849Y-115349500D01*
X157519044Y-115334580D01*
X157501392Y-115188720D01*
X157500480Y-115181180D01*
X157440549Y-115022577D01*
X157344516Y-114882849D01*
X157332718Y-114872337D01*
X157223596Y-114775112D01*
X157223592Y-114775110D01*
X157217925Y-114770060D01*
X157068085Y-114690724D01*
X156903645Y-114649419D01*
X156896047Y-114649379D01*
X156896045Y-114649379D01*
X156818872Y-114648975D01*
X156734099Y-114648531D01*
X156726712Y-114650305D01*
X156726708Y-114650305D01*
X156583366Y-114684720D01*
X156569236Y-114688112D01*
X156562492Y-114691593D01*
X156562489Y-114691594D01*
X156557293Y-114694276D01*
X156418573Y-114765875D01*
X156290808Y-114877331D01*
X156193317Y-115016047D01*
X156131728Y-115174013D01*
X156130736Y-115181546D01*
X156130736Y-115181547D01*
X156114405Y-115305599D01*
X156109598Y-115342111D01*
X103300000Y-115342111D01*
X103300000Y-113151069D01*
X131870164Y-113151069D01*
X131883392Y-113352894D01*
X131933178Y-113548928D01*
X132017856Y-113732607D01*
X132021189Y-113737323D01*
X132116304Y-113871908D01*
X132134588Y-113897780D01*
X132279466Y-114038913D01*
X132447637Y-114151282D01*
X132452940Y-114153560D01*
X132452943Y-114153562D01*
X132541291Y-114191519D01*
X132633470Y-114231122D01*
X132830740Y-114275760D01*
X132836509Y-114275987D01*
X132836512Y-114275987D01*
X132912683Y-114278979D01*
X133032842Y-114283700D01*
X133119132Y-114271189D01*
X133227286Y-114255508D01*
X133227291Y-114255507D01*
X133233007Y-114254678D01*
X133238479Y-114252820D01*
X133238481Y-114252820D01*
X133419067Y-114191519D01*
X133419069Y-114191518D01*
X133424531Y-114189664D01*
X133601001Y-114090837D01*
X133663433Y-114038913D01*
X133752073Y-113965191D01*
X133756505Y-113961505D01*
X133885837Y-113806001D01*
X133984664Y-113629531D01*
X133997194Y-113592621D01*
X134047820Y-113443481D01*
X134047820Y-113443479D01*
X134049678Y-113438007D01*
X134050507Y-113432291D01*
X134050508Y-113432286D01*
X134078167Y-113241516D01*
X134078700Y-113237842D01*
X134080215Y-113180000D01*
X134077557Y-113151069D01*
X134410164Y-113151069D01*
X134423392Y-113352894D01*
X134473178Y-113548928D01*
X134557856Y-113732607D01*
X134561189Y-113737323D01*
X134656304Y-113871908D01*
X134674588Y-113897780D01*
X134819466Y-114038913D01*
X134987637Y-114151282D01*
X134992940Y-114153560D01*
X134992943Y-114153562D01*
X135081291Y-114191519D01*
X135173470Y-114231122D01*
X135370740Y-114275760D01*
X135376509Y-114275987D01*
X135376512Y-114275987D01*
X135452683Y-114278979D01*
X135572842Y-114283700D01*
X135659132Y-114271189D01*
X135767286Y-114255508D01*
X135767291Y-114255507D01*
X135773007Y-114254678D01*
X135778479Y-114252820D01*
X135778481Y-114252820D01*
X135959067Y-114191519D01*
X135959069Y-114191518D01*
X135964531Y-114189664D01*
X136141001Y-114090837D01*
X136203433Y-114038913D01*
X136292073Y-113965191D01*
X136296505Y-113961505D01*
X136425837Y-113806001D01*
X136524664Y-113629531D01*
X136537194Y-113592621D01*
X136587820Y-113443481D01*
X136587820Y-113443479D01*
X136589678Y-113438007D01*
X136590507Y-113432291D01*
X136590508Y-113432286D01*
X136604980Y-113332469D01*
X145344500Y-113332469D01*
X145359439Y-113489046D01*
X145418553Y-113690549D01*
X145514705Y-113877239D01*
X145518409Y-113881954D01*
X145640718Y-114037662D01*
X145640722Y-114037667D01*
X145644424Y-114042379D01*
X145648954Y-114046310D01*
X145648955Y-114046311D01*
X145798498Y-114176079D01*
X145798503Y-114176083D01*
X145803029Y-114180010D01*
X145984799Y-114285166D01*
X146092527Y-114322575D01*
X146177509Y-114352086D01*
X146177511Y-114352086D01*
X146183174Y-114354053D01*
X146189109Y-114354914D01*
X146189111Y-114354914D01*
X146385056Y-114383325D01*
X146385059Y-114383325D01*
X146390996Y-114384186D01*
X146600767Y-114374477D01*
X146757670Y-114336663D01*
X146799085Y-114326682D01*
X146799087Y-114326681D01*
X146804918Y-114325276D01*
X146810376Y-114322794D01*
X146810380Y-114322793D01*
X146945466Y-114261373D01*
X146996081Y-114238360D01*
X147156388Y-114124646D01*
X150424500Y-114124646D01*
X150427618Y-114150846D01*
X150431456Y-114159486D01*
X150431456Y-114159487D01*
X150464950Y-114234893D01*
X150473061Y-114253153D01*
X150481294Y-114261372D01*
X150481295Y-114261373D01*
X150502831Y-114282871D01*
X150552287Y-114332241D01*
X150562924Y-114336944D01*
X150562926Y-114336945D01*
X150622462Y-114363265D01*
X150654673Y-114377506D01*
X150680354Y-114380500D01*
X152369646Y-114380500D01*
X152373350Y-114380059D01*
X152373353Y-114380059D01*
X152380746Y-114379179D01*
X152395846Y-114377382D01*
X152405550Y-114373072D01*
X152487518Y-114336663D01*
X152498153Y-114331939D01*
X152577241Y-114252713D01*
X152582491Y-114240840D01*
X152618675Y-114158992D01*
X152622506Y-114150327D01*
X152625500Y-114124646D01*
X152625500Y-112992611D01*
X155894394Y-112992611D01*
X155912999Y-113161135D01*
X155971266Y-113320356D01*
X155975502Y-113326659D01*
X155975502Y-113326660D01*
X155986958Y-113343709D01*
X156065830Y-113461083D01*
X156071442Y-113466190D01*
X156071445Y-113466193D01*
X156185612Y-113570077D01*
X156185616Y-113570080D01*
X156191233Y-113575191D01*
X156197906Y-113578814D01*
X156197910Y-113578817D01*
X156333558Y-113652467D01*
X156333560Y-113652468D01*
X156340235Y-113656092D01*
X156347584Y-113658020D01*
X156496883Y-113697188D01*
X156496885Y-113697188D01*
X156504233Y-113699116D01*
X156590609Y-113700473D01*
X156666161Y-113701660D01*
X156666164Y-113701660D01*
X156673760Y-113701779D01*
X156681165Y-113700083D01*
X156681166Y-113700083D01*
X156765094Y-113680861D01*
X156839029Y-113663928D01*
X156990498Y-113587747D01*
X157099320Y-113494804D01*
X157113651Y-113482564D01*
X157113652Y-113482563D01*
X157119423Y-113477634D01*
X157218361Y-113339947D01*
X157226237Y-113320356D01*
X157274620Y-113200000D01*
X162844750Y-113200000D01*
X162863670Y-113343709D01*
X162919139Y-113477625D01*
X163007379Y-113592621D01*
X163122375Y-113680861D01*
X163256291Y-113736330D01*
X163400000Y-113755250D01*
X163543709Y-113736330D01*
X163677625Y-113680861D01*
X163792621Y-113592621D01*
X163880861Y-113477625D01*
X163936330Y-113343709D01*
X163955250Y-113200000D01*
X163936330Y-113056291D01*
X163880861Y-112922375D01*
X163792621Y-112807379D01*
X163677625Y-112719139D01*
X163543709Y-112663670D01*
X163400000Y-112644750D01*
X163256291Y-112663670D01*
X163122375Y-112719139D01*
X163007379Y-112807379D01*
X162919139Y-112922375D01*
X162863670Y-113056291D01*
X162844750Y-113200000D01*
X157274620Y-113200000D01*
X157278766Y-113189687D01*
X157278767Y-113189685D01*
X157281601Y-113182634D01*
X157288877Y-113131511D01*
X157304909Y-113018862D01*
X157304909Y-113018859D01*
X157305490Y-113014778D01*
X157305645Y-113000000D01*
X157303840Y-112985080D01*
X157298952Y-112944696D01*
X157285276Y-112831680D01*
X157225345Y-112673077D01*
X157129312Y-112533349D01*
X157117514Y-112522837D01*
X157008392Y-112425612D01*
X157008388Y-112425610D01*
X157002721Y-112420560D01*
X156852881Y-112341224D01*
X156688441Y-112299919D01*
X156680843Y-112299879D01*
X156680841Y-112299879D01*
X156603668Y-112299475D01*
X156518895Y-112299031D01*
X156511508Y-112300805D01*
X156511504Y-112300805D01*
X156368162Y-112335220D01*
X156354032Y-112338612D01*
X156347288Y-112342093D01*
X156347285Y-112342094D01*
X156210117Y-112412892D01*
X156203369Y-112416375D01*
X156197647Y-112421367D01*
X156197645Y-112421368D01*
X156170451Y-112445091D01*
X156075604Y-112527831D01*
X156071237Y-112534045D01*
X155992675Y-112645828D01*
X155978113Y-112666547D01*
X155916524Y-112824513D01*
X155915532Y-112832046D01*
X155915532Y-112832047D01*
X155895482Y-112984348D01*
X155894394Y-112992611D01*
X152625500Y-112992611D01*
X152625500Y-111635354D01*
X152622382Y-111609154D01*
X152617696Y-111598603D01*
X152581663Y-111517482D01*
X152576939Y-111506847D01*
X152547882Y-111477840D01*
X152505945Y-111435977D01*
X152497713Y-111427759D01*
X152487076Y-111423056D01*
X152487074Y-111423055D01*
X152405356Y-111386928D01*
X152395327Y-111382494D01*
X152369646Y-111379500D01*
X150680354Y-111379500D01*
X150676650Y-111379941D01*
X150676647Y-111379941D01*
X150669254Y-111380821D01*
X150654154Y-111382618D01*
X150645514Y-111386456D01*
X150645513Y-111386456D01*
X150598933Y-111407146D01*
X150551847Y-111428061D01*
X150472759Y-111507287D01*
X150468056Y-111517924D01*
X150468055Y-111517926D01*
X150432928Y-111597382D01*
X150427494Y-111609673D01*
X150424500Y-111635354D01*
X150424500Y-114124646D01*
X147156388Y-114124646D01*
X147167360Y-114116863D01*
X147312575Y-113965169D01*
X147359135Y-113893060D01*
X147423233Y-113793791D01*
X147423234Y-113793788D01*
X147426485Y-113788754D01*
X147447613Y-113736330D01*
X147502739Y-113599545D01*
X147502740Y-113599542D01*
X147504981Y-113593981D01*
X147506129Y-113588100D01*
X147506131Y-113588095D01*
X147544362Y-113392324D01*
X147544362Y-113392321D01*
X147545230Y-113387878D01*
X147545500Y-113382357D01*
X147545500Y-112427531D01*
X147530561Y-112270954D01*
X147471447Y-112069451D01*
X147375295Y-111882761D01*
X147302824Y-111790501D01*
X147249282Y-111722338D01*
X147249278Y-111722333D01*
X147245576Y-111717621D01*
X147164728Y-111647464D01*
X147091502Y-111583921D01*
X147091497Y-111583917D01*
X147086971Y-111579990D01*
X146905201Y-111474834D01*
X146770508Y-111428061D01*
X146712491Y-111407914D01*
X146712489Y-111407914D01*
X146706826Y-111405947D01*
X146700891Y-111405086D01*
X146700889Y-111405086D01*
X146504944Y-111376675D01*
X146504941Y-111376675D01*
X146499004Y-111375814D01*
X146289233Y-111385523D01*
X146184197Y-111410837D01*
X146090915Y-111433318D01*
X146090913Y-111433319D01*
X146085082Y-111434724D01*
X146079624Y-111437206D01*
X146079620Y-111437207D01*
X145982482Y-111481373D01*
X145893919Y-111521640D01*
X145722640Y-111643137D01*
X145577425Y-111794831D01*
X145574174Y-111799866D01*
X145523694Y-111878046D01*
X145463515Y-111971246D01*
X145461273Y-111976809D01*
X145419348Y-112080839D01*
X145385019Y-112166019D01*
X145383871Y-112171900D01*
X145383869Y-112171905D01*
X145357469Y-112307094D01*
X145344770Y-112372122D01*
X145344500Y-112377643D01*
X145344500Y-113332469D01*
X136604980Y-113332469D01*
X136618167Y-113241516D01*
X136618700Y-113237842D01*
X136620215Y-113180000D01*
X136601708Y-112978591D01*
X136546807Y-112783926D01*
X136457351Y-112602527D01*
X136439079Y-112578057D01*
X136339788Y-112445091D01*
X136339787Y-112445090D01*
X136336335Y-112440467D01*
X136310956Y-112417007D01*
X136192053Y-112307094D01*
X136192051Y-112307092D01*
X136187812Y-112303174D01*
X136160374Y-112285862D01*
X136021637Y-112198325D01*
X136016757Y-112195246D01*
X135828898Y-112120298D01*
X135630526Y-112080839D01*
X135624752Y-112080763D01*
X135624748Y-112080763D01*
X135522257Y-112079422D01*
X135428286Y-112078192D01*
X135422589Y-112079171D01*
X135422588Y-112079171D01*
X135234646Y-112111465D01*
X135234645Y-112111465D01*
X135228949Y-112112444D01*
X135039193Y-112182449D01*
X135034232Y-112185401D01*
X135034231Y-112185401D01*
X134880383Y-112276931D01*
X134865371Y-112285862D01*
X134713305Y-112419220D01*
X134588089Y-112578057D01*
X134493914Y-112757053D01*
X134433937Y-112950213D01*
X134410164Y-113151069D01*
X134077557Y-113151069D01*
X134061708Y-112978591D01*
X134006807Y-112783926D01*
X133917351Y-112602527D01*
X133899079Y-112578057D01*
X133799788Y-112445091D01*
X133799787Y-112445090D01*
X133796335Y-112440467D01*
X133770956Y-112417007D01*
X133652053Y-112307094D01*
X133652051Y-112307092D01*
X133647812Y-112303174D01*
X133620374Y-112285862D01*
X133481637Y-112198325D01*
X133476757Y-112195246D01*
X133288898Y-112120298D01*
X133090526Y-112080839D01*
X133084752Y-112080763D01*
X133084748Y-112080763D01*
X132982257Y-112079422D01*
X132888286Y-112078192D01*
X132882589Y-112079171D01*
X132882588Y-112079171D01*
X132694646Y-112111465D01*
X132694645Y-112111465D01*
X132688949Y-112112444D01*
X132499193Y-112182449D01*
X132494232Y-112185401D01*
X132494231Y-112185401D01*
X132340383Y-112276931D01*
X132325371Y-112285862D01*
X132173305Y-112419220D01*
X132048089Y-112578057D01*
X131953914Y-112757053D01*
X131893937Y-112950213D01*
X131870164Y-113151069D01*
X103300000Y-113151069D01*
X103300000Y-107649754D01*
X107044967Y-107649754D01*
X107058796Y-107860749D01*
X107060217Y-107866345D01*
X107060218Y-107866350D01*
X107082784Y-107955200D01*
X107110845Y-108065690D01*
X107199369Y-108257714D01*
X107321405Y-108430391D01*
X107472865Y-108577937D01*
X107477661Y-108581142D01*
X107477664Y-108581144D01*
X107619375Y-108675832D01*
X107648677Y-108695411D01*
X107653985Y-108697692D01*
X107653986Y-108697692D01*
X107837650Y-108776600D01*
X107837653Y-108776601D01*
X107842953Y-108778878D01*
X107848582Y-108780152D01*
X107848583Y-108780152D01*
X108027368Y-108820607D01*
X108089395Y-108855150D01*
X108122899Y-108917743D01*
X108117245Y-108988514D01*
X108074226Y-109044994D01*
X108007501Y-109069249D01*
X107999560Y-109069500D01*
X107305354Y-109069500D01*
X107301650Y-109069941D01*
X107301647Y-109069941D01*
X107294254Y-109070821D01*
X107279154Y-109072618D01*
X107176847Y-109118061D01*
X107097759Y-109197287D01*
X107052494Y-109299673D01*
X107049500Y-109325354D01*
X107049500Y-111114646D01*
X107052618Y-111140846D01*
X107098061Y-111243153D01*
X107177287Y-111322241D01*
X107187924Y-111326944D01*
X107187926Y-111326945D01*
X107227965Y-111344646D01*
X107279673Y-111367506D01*
X107305354Y-111370500D01*
X109094646Y-111370500D01*
X109098350Y-111370059D01*
X109098353Y-111370059D01*
X109105746Y-111369179D01*
X109120846Y-111367382D01*
X109139913Y-111358913D01*
X109212518Y-111326663D01*
X109223153Y-111321939D01*
X109302241Y-111242713D01*
X109347506Y-111140327D01*
X109350500Y-111114646D01*
X109350500Y-110471069D01*
X112315164Y-110471069D01*
X112328392Y-110672894D01*
X112378178Y-110868928D01*
X112462856Y-111052607D01*
X112466189Y-111057323D01*
X112531324Y-111149487D01*
X112579588Y-111217780D01*
X112724466Y-111358913D01*
X112729270Y-111362123D01*
X112754516Y-111378992D01*
X112892637Y-111471282D01*
X112897940Y-111473560D01*
X112897943Y-111473562D01*
X113073163Y-111548842D01*
X113078470Y-111551122D01*
X113174361Y-111572820D01*
X113266526Y-111593675D01*
X113275740Y-111595760D01*
X113281509Y-111595987D01*
X113281512Y-111595987D01*
X113357683Y-111598979D01*
X113477842Y-111603700D01*
X113564132Y-111591189D01*
X113672286Y-111575508D01*
X113672291Y-111575507D01*
X113678007Y-111574678D01*
X113683479Y-111572820D01*
X113683481Y-111572820D01*
X113864067Y-111511519D01*
X113864069Y-111511518D01*
X113869531Y-111509664D01*
X114015784Y-111427759D01*
X114040964Y-111413658D01*
X114040965Y-111413657D01*
X114046001Y-111410837D01*
X114079931Y-111382618D01*
X114125587Y-111344646D01*
X122479500Y-111344646D01*
X122482618Y-111370846D01*
X122486456Y-111379486D01*
X122486456Y-111379487D01*
X122511548Y-111435977D01*
X122528061Y-111473153D01*
X122536294Y-111481372D01*
X122536295Y-111481373D01*
X122564636Y-111509664D01*
X122607287Y-111552241D01*
X122617924Y-111556944D01*
X122617926Y-111556945D01*
X122659915Y-111575508D01*
X122709673Y-111597506D01*
X122735354Y-111600500D01*
X124424646Y-111600500D01*
X124428350Y-111600059D01*
X124428353Y-111600059D01*
X124435746Y-111599179D01*
X124450846Y-111597382D01*
X124553153Y-111551939D01*
X124632241Y-111472713D01*
X124647939Y-111437207D01*
X124672612Y-111381397D01*
X124677506Y-111370327D01*
X124680500Y-111344646D01*
X124680500Y-109655354D01*
X124677382Y-109629154D01*
X124668729Y-109609672D01*
X124636663Y-109537482D01*
X124631939Y-109526847D01*
X124607499Y-109502449D01*
X124560945Y-109455977D01*
X124552713Y-109447759D01*
X124542076Y-109443056D01*
X124542074Y-109443055D01*
X124482538Y-109416735D01*
X124450327Y-109402494D01*
X124424646Y-109399500D01*
X122735354Y-109399500D01*
X122731650Y-109399941D01*
X122731647Y-109399941D01*
X122724741Y-109400763D01*
X122709154Y-109402618D01*
X122700514Y-109406456D01*
X122700513Y-109406456D01*
X122618117Y-109443055D01*
X122606847Y-109448061D01*
X122527759Y-109527287D01*
X122482494Y-109629673D01*
X122479500Y-109655354D01*
X122479500Y-111344646D01*
X114125587Y-111344646D01*
X114197073Y-111285191D01*
X114201505Y-111281505D01*
X114311304Y-111149487D01*
X114327146Y-111130439D01*
X114330837Y-111126001D01*
X114339248Y-111110983D01*
X114426845Y-110954564D01*
X114429664Y-110949531D01*
X114494678Y-110758007D01*
X114495507Y-110752291D01*
X114495508Y-110752286D01*
X114523167Y-110561516D01*
X114523700Y-110557842D01*
X114525215Y-110500000D01*
X114506708Y-110298591D01*
X114451807Y-110103926D01*
X114362351Y-109922527D01*
X114344079Y-109898057D01*
X114244788Y-109765091D01*
X114244787Y-109765090D01*
X114241335Y-109760467D01*
X114218350Y-109739220D01*
X114097053Y-109627094D01*
X114097051Y-109627092D01*
X114092812Y-109623174D01*
X114065374Y-109605862D01*
X113926637Y-109518325D01*
X113921757Y-109515246D01*
X113733898Y-109440298D01*
X113535526Y-109400839D01*
X113529752Y-109400763D01*
X113529748Y-109400763D01*
X113427257Y-109399422D01*
X113333286Y-109398192D01*
X113327589Y-109399171D01*
X113327588Y-109399171D01*
X113139646Y-109431465D01*
X113139645Y-109431465D01*
X113133949Y-109432444D01*
X112944193Y-109502449D01*
X112939232Y-109505401D01*
X112939231Y-109505401D01*
X112903184Y-109526847D01*
X112770371Y-109605862D01*
X112618305Y-109739220D01*
X112493089Y-109898057D01*
X112398914Y-110077053D01*
X112338937Y-110270213D01*
X112315164Y-110471069D01*
X109350500Y-110471069D01*
X109350500Y-109325354D01*
X109347382Y-109299154D01*
X109301939Y-109196847D01*
X109222713Y-109117759D01*
X109212076Y-109113056D01*
X109212074Y-109113055D01*
X109152538Y-109086735D01*
X109120327Y-109072494D01*
X109094646Y-109069500D01*
X108382291Y-109069500D01*
X108314170Y-109049498D01*
X108267677Y-108995842D01*
X108257573Y-108925568D01*
X108287067Y-108860988D01*
X108346793Y-108822604D01*
X108364211Y-108818804D01*
X108464013Y-108804333D01*
X108464014Y-108804333D01*
X108469730Y-108803504D01*
X108548987Y-108776600D01*
X108664483Y-108737395D01*
X108664488Y-108737393D01*
X108669955Y-108735537D01*
X108674998Y-108732713D01*
X108849395Y-108635046D01*
X108849399Y-108635043D01*
X108854442Y-108632219D01*
X109017012Y-108497012D01*
X109152219Y-108334442D01*
X109155043Y-108329399D01*
X109155046Y-108329395D01*
X109227511Y-108200000D01*
X163844750Y-108200000D01*
X163863670Y-108343709D01*
X163919139Y-108477625D01*
X164007379Y-108592621D01*
X164122375Y-108680861D01*
X164256291Y-108736330D01*
X164400000Y-108755250D01*
X164543709Y-108736330D01*
X164677625Y-108680861D01*
X164792621Y-108592621D01*
X164880861Y-108477625D01*
X164936330Y-108343709D01*
X164955250Y-108200000D01*
X164936330Y-108056291D01*
X164880861Y-107922375D01*
X164792621Y-107807379D01*
X164677625Y-107719139D01*
X164543709Y-107663670D01*
X164400000Y-107644750D01*
X164256291Y-107663670D01*
X164122375Y-107719139D01*
X164007379Y-107807379D01*
X163919139Y-107922375D01*
X163863670Y-108056291D01*
X163844750Y-108200000D01*
X109227511Y-108200000D01*
X109252713Y-108154998D01*
X109252714Y-108154996D01*
X109255537Y-108149955D01*
X109257393Y-108144488D01*
X109257395Y-108144483D01*
X109321647Y-107955200D01*
X109323504Y-107949730D01*
X109326365Y-107930004D01*
X109353314Y-107744140D01*
X109353314Y-107744138D01*
X109353846Y-107740470D01*
X109355429Y-107680000D01*
X109336081Y-107469440D01*
X109278686Y-107265931D01*
X109267553Y-107243354D01*
X109187719Y-107081469D01*
X109185165Y-107076290D01*
X109058651Y-106906867D01*
X108943043Y-106800000D01*
X112744750Y-106800000D01*
X112763670Y-106943709D01*
X112819139Y-107077625D01*
X112907379Y-107192621D01*
X113022375Y-107280861D01*
X113156291Y-107336330D01*
X113300000Y-107355250D01*
X113443709Y-107336330D01*
X113577625Y-107280861D01*
X113692621Y-107192621D01*
X113780861Y-107077625D01*
X113836330Y-106943709D01*
X113855250Y-106800000D01*
X113836330Y-106656291D01*
X113780861Y-106522375D01*
X113692621Y-106407379D01*
X113577625Y-106319139D01*
X113443709Y-106263670D01*
X113300000Y-106244750D01*
X113156291Y-106263670D01*
X113022375Y-106319139D01*
X112907379Y-106407379D01*
X112819139Y-106522375D01*
X112763670Y-106656291D01*
X112744750Y-106800000D01*
X108943043Y-106800000D01*
X108903381Y-106763337D01*
X108724554Y-106650505D01*
X108528160Y-106572152D01*
X108522503Y-106571027D01*
X108522497Y-106571025D01*
X108325234Y-106531788D01*
X108262324Y-106498881D01*
X108227192Y-106437186D01*
X108230992Y-106366291D01*
X108272517Y-106308705D01*
X108331734Y-106283513D01*
X108464015Y-106264333D01*
X108464019Y-106264332D01*
X108469730Y-106263504D01*
X108548987Y-106236600D01*
X108656809Y-106200000D01*
X114144750Y-106200000D01*
X114163670Y-106343709D01*
X114219139Y-106477625D01*
X114307379Y-106592621D01*
X114422375Y-106680861D01*
X114556291Y-106736330D01*
X114700000Y-106755250D01*
X114843709Y-106736330D01*
X114977625Y-106680861D01*
X115092621Y-106592621D01*
X115180861Y-106477625D01*
X115236330Y-106343709D01*
X115255250Y-106200000D01*
X115236330Y-106056291D01*
X115180861Y-105922375D01*
X115092621Y-105807379D01*
X114977625Y-105719139D01*
X114843709Y-105663670D01*
X114700000Y-105644750D01*
X114556291Y-105663670D01*
X114422375Y-105719139D01*
X114307379Y-105807379D01*
X114219139Y-105922375D01*
X114163670Y-106056291D01*
X114144750Y-106200000D01*
X108656809Y-106200000D01*
X108664483Y-106197395D01*
X108664488Y-106197393D01*
X108669955Y-106195537D01*
X108674998Y-106192713D01*
X108849395Y-106095046D01*
X108849399Y-106095043D01*
X108854442Y-106092219D01*
X109017012Y-105957012D01*
X109152219Y-105794442D01*
X109155043Y-105789399D01*
X109155046Y-105789395D01*
X109252713Y-105614998D01*
X109252714Y-105614996D01*
X109255537Y-105609955D01*
X109257393Y-105604488D01*
X109257395Y-105604483D01*
X109321647Y-105415200D01*
X109323504Y-105409730D01*
X109347663Y-105243116D01*
X109353314Y-105204140D01*
X109353314Y-105204138D01*
X109353846Y-105200470D01*
X109355429Y-105140000D01*
X109336081Y-104929440D01*
X109278686Y-104725931D01*
X109267553Y-104703354D01*
X109187719Y-104541469D01*
X109185165Y-104536290D01*
X109058651Y-104366867D01*
X108911103Y-104230475D01*
X108907622Y-104227257D01*
X108907620Y-104227255D01*
X108903381Y-104223337D01*
X108870014Y-104202284D01*
X108729434Y-104113584D01*
X108729433Y-104113584D01*
X108724554Y-104110505D01*
X108528160Y-104032152D01*
X108522503Y-104031027D01*
X108522497Y-104031025D01*
X108326442Y-103992028D01*
X108326440Y-103992028D01*
X108320775Y-103990901D01*
X108315000Y-103990825D01*
X108314996Y-103990825D01*
X108208976Y-103989437D01*
X108109346Y-103988133D01*
X108103649Y-103989112D01*
X108103648Y-103989112D01*
X107906650Y-104022962D01*
X107906649Y-104022962D01*
X107900953Y-104023941D01*
X107702575Y-104097127D01*
X107697614Y-104100079D01*
X107697613Y-104100079D01*
X107530123Y-104199725D01*
X107520856Y-104205238D01*
X107361881Y-104344655D01*
X107230976Y-104510708D01*
X107228287Y-104515819D01*
X107228285Y-104515822D01*
X107201657Y-104566434D01*
X107132523Y-104697836D01*
X107069820Y-104899773D01*
X107044967Y-105109754D01*
X107058796Y-105320749D01*
X107060217Y-105326345D01*
X107060218Y-105326350D01*
X107082784Y-105415200D01*
X107110845Y-105525690D01*
X107199369Y-105717714D01*
X107321405Y-105890391D01*
X107472865Y-106037937D01*
X107477661Y-106041142D01*
X107477664Y-106041144D01*
X107620936Y-106136875D01*
X107648677Y-106155411D01*
X107653985Y-106157692D01*
X107653986Y-106157692D01*
X107837650Y-106236600D01*
X107837653Y-106236601D01*
X107842953Y-106238878D01*
X107848582Y-106240152D01*
X107848583Y-106240152D01*
X108043550Y-106284269D01*
X108043553Y-106284269D01*
X108049186Y-106285544D01*
X108054958Y-106285771D01*
X108060687Y-106286525D01*
X108060327Y-106289257D01*
X108116604Y-106308216D01*
X108160950Y-106363659D01*
X108168282Y-106434276D01*
X108136271Y-106497647D01*
X108075081Y-106533651D01*
X108065704Y-106535632D01*
X107906650Y-106562962D01*
X107906649Y-106562962D01*
X107900953Y-106563941D01*
X107702575Y-106637127D01*
X107697614Y-106640079D01*
X107697613Y-106640079D01*
X107656599Y-106664480D01*
X107520856Y-106745238D01*
X107361881Y-106884655D01*
X107230976Y-107050708D01*
X107228287Y-107055819D01*
X107228285Y-107055822D01*
X107178400Y-107150638D01*
X107132523Y-107237836D01*
X107069820Y-107439773D01*
X107044967Y-107649754D01*
X103300000Y-107649754D01*
X103300000Y-95309754D01*
X107044967Y-95309754D01*
X107058796Y-95520749D01*
X107060217Y-95526345D01*
X107060218Y-95526350D01*
X107099287Y-95680180D01*
X107110845Y-95725690D01*
X107113262Y-95730933D01*
X107196951Y-95912469D01*
X107199369Y-95917714D01*
X107321405Y-96090391D01*
X107356846Y-96124916D01*
X107456560Y-96222053D01*
X107472865Y-96237937D01*
X107477661Y-96241142D01*
X107477664Y-96241144D01*
X107605648Y-96326660D01*
X107648677Y-96355411D01*
X107653985Y-96357692D01*
X107653986Y-96357692D01*
X107837650Y-96436600D01*
X107837653Y-96436601D01*
X107842953Y-96438878D01*
X107848582Y-96440152D01*
X107848583Y-96440152D01*
X107901929Y-96452223D01*
X108024571Y-96479974D01*
X108027368Y-96480607D01*
X108089395Y-96515150D01*
X108122899Y-96577743D01*
X108117245Y-96648514D01*
X108074226Y-96704994D01*
X108007501Y-96729249D01*
X107999560Y-96729500D01*
X107305354Y-96729500D01*
X107301650Y-96729941D01*
X107301647Y-96729941D01*
X107294254Y-96730821D01*
X107279154Y-96732618D01*
X107176847Y-96778061D01*
X107097759Y-96857287D01*
X107093056Y-96867924D01*
X107093055Y-96867926D01*
X107071681Y-96916273D01*
X107052494Y-96959673D01*
X107049500Y-96985354D01*
X107049500Y-98774646D01*
X107052618Y-98800846D01*
X107098061Y-98903153D01*
X107106294Y-98911372D01*
X107106295Y-98911373D01*
X107124959Y-98930004D01*
X107177287Y-98982241D01*
X107187924Y-98986944D01*
X107187926Y-98986945D01*
X107218578Y-99000496D01*
X107279673Y-99027506D01*
X107305354Y-99030500D01*
X109094646Y-99030500D01*
X109098350Y-99030059D01*
X109098353Y-99030059D01*
X109105746Y-99029179D01*
X109120846Y-99027382D01*
X109223153Y-98981939D01*
X109255560Y-98949476D01*
X109257223Y-98947810D01*
X129900000Y-98947810D01*
X129901718Y-98979873D01*
X129901898Y-98981544D01*
X129901899Y-98981561D01*
X129902448Y-98986663D01*
X129904597Y-99006656D01*
X129939577Y-99118371D01*
X129973603Y-99180683D01*
X129976298Y-99184283D01*
X130022076Y-99245435D01*
X130022080Y-99245440D01*
X130024773Y-99249037D01*
X135342170Y-104566434D01*
X135343764Y-104567826D01*
X135343773Y-104567834D01*
X135371134Y-104591721D01*
X135371144Y-104591729D01*
X135372744Y-104593126D01*
X135399827Y-104613715D01*
X135400527Y-104614219D01*
X135406960Y-104618854D01*
X135406963Y-104618856D01*
X135412348Y-104622735D01*
X135423792Y-104627760D01*
X135507961Y-104664720D01*
X135507963Y-104664721D01*
X135513295Y-104667062D01*
X135582439Y-104683176D01*
X135625187Y-104688685D01*
X135633389Y-104689742D01*
X135642321Y-104690893D01*
X135751207Y-104673607D01*
X135818086Y-104649781D01*
X135872631Y-104623900D01*
X135954888Y-104550491D01*
X135998270Y-104494290D01*
X136040296Y-104419956D01*
X136041740Y-104416251D01*
X136052262Y-104398206D01*
X136091409Y-104342506D01*
X136111664Y-104320011D01*
X136161731Y-104276335D01*
X136186769Y-104259319D01*
X136245818Y-104228841D01*
X136274194Y-104218288D01*
X136338800Y-104202777D01*
X136368875Y-104199297D01*
X136402098Y-104199471D01*
X136435319Y-104199645D01*
X136465353Y-104203439D01*
X136487684Y-104209048D01*
X136529796Y-104219626D01*
X136558058Y-104230475D01*
X136616786Y-104261570D01*
X136641643Y-104278846D01*
X136691252Y-104323046D01*
X136711271Y-104345753D01*
X136748909Y-104400517D01*
X136762935Y-104427346D01*
X136786421Y-104489500D01*
X136793642Y-104518901D01*
X136801975Y-104587761D01*
X136801631Y-104620651D01*
X136784594Y-104740364D01*
X136782918Y-104740125D01*
X136782314Y-104752654D01*
X136781491Y-104756037D01*
X136780421Y-104760434D01*
X136776504Y-104801462D01*
X136775170Y-104826195D01*
X136776393Y-104833226D01*
X136792160Y-104923876D01*
X136794062Y-104934814D01*
X136818873Y-105001334D01*
X136845557Y-105055493D01*
X136920173Y-105136656D01*
X136924838Y-105140148D01*
X136924840Y-105140150D01*
X136974458Y-105177294D01*
X136974467Y-105177300D01*
X136977009Y-105179203D01*
X137028739Y-105210338D01*
X137037456Y-105212622D01*
X137037457Y-105212622D01*
X137100777Y-105229210D01*
X137135390Y-105238277D01*
X137180842Y-105241528D01*
X137203042Y-105243116D01*
X137203047Y-105243116D01*
X137206205Y-105243342D01*
X137209372Y-105243249D01*
X137209380Y-105243249D01*
X137241760Y-105242296D01*
X137266562Y-105241566D01*
X137275132Y-105238773D01*
X137275134Y-105238773D01*
X137365853Y-105209211D01*
X137371386Y-105207408D01*
X137390881Y-105196763D01*
X137429750Y-105175538D01*
X137429752Y-105175537D01*
X137433698Y-105173382D01*
X137478090Y-105140150D01*
X137498450Y-105124909D01*
X137498455Y-105124905D01*
X137502052Y-105122212D01*
X139824264Y-102800000D01*
X149444750Y-102800000D01*
X149463670Y-102943709D01*
X149519139Y-103077625D01*
X149607379Y-103192621D01*
X149722375Y-103280861D01*
X149856291Y-103336330D01*
X150000000Y-103355250D01*
X150143709Y-103336330D01*
X150277625Y-103280861D01*
X150392621Y-103192621D01*
X150480861Y-103077625D01*
X150536330Y-102943709D01*
X150555250Y-102800000D01*
X150536330Y-102656291D01*
X150480861Y-102522375D01*
X150392621Y-102407379D01*
X150277625Y-102319139D01*
X150143709Y-102263670D01*
X150000000Y-102244750D01*
X149856291Y-102263670D01*
X149722375Y-102319139D01*
X149607379Y-102407379D01*
X149519139Y-102522375D01*
X149463670Y-102656291D01*
X149444750Y-102800000D01*
X139824264Y-102800000D01*
X140084388Y-102539876D01*
X140097269Y-102522375D01*
X140108771Y-102506747D01*
X140137864Y-102467217D01*
X140169286Y-102407379D01*
X140170482Y-102405101D01*
X140170484Y-102405097D01*
X140172696Y-102400884D01*
X140202152Y-102315606D01*
X140273112Y-101929268D01*
X140274986Y-101906663D01*
X140277751Y-101873299D01*
X140277751Y-101873291D01*
X140278008Y-101870193D01*
X140277202Y-101820648D01*
X140274702Y-101786574D01*
X140240544Y-101681750D01*
X140206518Y-101619438D01*
X140191967Y-101600000D01*
X140186436Y-101592611D01*
X148294394Y-101592611D01*
X148312999Y-101761135D01*
X148371266Y-101920356D01*
X148375502Y-101926659D01*
X148375502Y-101926660D01*
X148386848Y-101943544D01*
X148465830Y-102061083D01*
X148471442Y-102066190D01*
X148471445Y-102066193D01*
X148585612Y-102170077D01*
X148585616Y-102170080D01*
X148591233Y-102175191D01*
X148597906Y-102178814D01*
X148597910Y-102178817D01*
X148733558Y-102252467D01*
X148733560Y-102252468D01*
X148740235Y-102256092D01*
X148747584Y-102258020D01*
X148896883Y-102297188D01*
X148896885Y-102297188D01*
X148904233Y-102299116D01*
X148990609Y-102300473D01*
X149066161Y-102301660D01*
X149066164Y-102301660D01*
X149073760Y-102301779D01*
X149081165Y-102300083D01*
X149081166Y-102300083D01*
X149165094Y-102280861D01*
X149239029Y-102263928D01*
X149390498Y-102187747D01*
X149519423Y-102077634D01*
X149618361Y-101939947D01*
X149626237Y-101920356D01*
X149674620Y-101800000D01*
X159444750Y-101800000D01*
X159463670Y-101943709D01*
X159519139Y-102077625D01*
X159607379Y-102192621D01*
X159722375Y-102280861D01*
X159856291Y-102336330D01*
X160000000Y-102355250D01*
X160143709Y-102336330D01*
X160277625Y-102280861D01*
X160392621Y-102192621D01*
X160480861Y-102077625D01*
X160536330Y-101943709D01*
X160555250Y-101800000D01*
X160541380Y-101694646D01*
X167909500Y-101694646D01*
X167912618Y-101720846D01*
X167916456Y-101729486D01*
X167916456Y-101729487D01*
X167940063Y-101782634D01*
X167958061Y-101823153D01*
X167966294Y-101831372D01*
X167966295Y-101831373D01*
X167992363Y-101857395D01*
X168037287Y-101902241D01*
X168047924Y-101906944D01*
X168047926Y-101906945D01*
X168085382Y-101923504D01*
X168139673Y-101947506D01*
X168165354Y-101950500D01*
X169954646Y-101950500D01*
X169958350Y-101950059D01*
X169958353Y-101950059D01*
X169965746Y-101949179D01*
X169980846Y-101947382D01*
X170007552Y-101935520D01*
X170072518Y-101906663D01*
X170083153Y-101901939D01*
X170162241Y-101822713D01*
X170172283Y-101800000D01*
X170193265Y-101752538D01*
X170207506Y-101720327D01*
X170210500Y-101694646D01*
X170210500Y-101010673D01*
X170230502Y-100942552D01*
X170284158Y-100896059D01*
X170354432Y-100885955D01*
X170419012Y-100915449D01*
X170457396Y-100975175D01*
X170458658Y-100980784D01*
X170458796Y-100980749D01*
X170499142Y-101139608D01*
X170510845Y-101185690D01*
X170599369Y-101377714D01*
X170721405Y-101550391D01*
X170725539Y-101554418D01*
X170865727Y-101690983D01*
X170872865Y-101697937D01*
X170877661Y-101701142D01*
X170877664Y-101701144D01*
X170999623Y-101782634D01*
X171048677Y-101815411D01*
X171053985Y-101817692D01*
X171053986Y-101817692D01*
X171237650Y-101896600D01*
X171237653Y-101896601D01*
X171242953Y-101898878D01*
X171248582Y-101900152D01*
X171248583Y-101900152D01*
X171443550Y-101944269D01*
X171443553Y-101944269D01*
X171449186Y-101945544D01*
X171454957Y-101945771D01*
X171454959Y-101945771D01*
X171516989Y-101948208D01*
X171660470Y-101953846D01*
X171666179Y-101953018D01*
X171666183Y-101953018D01*
X171864015Y-101924333D01*
X171864019Y-101924332D01*
X171869730Y-101923504D01*
X171956579Y-101894023D01*
X172064483Y-101857395D01*
X172064488Y-101857393D01*
X172069955Y-101855537D01*
X172113103Y-101831373D01*
X172249395Y-101755046D01*
X172249399Y-101755043D01*
X172254442Y-101752219D01*
X172417012Y-101617012D01*
X172552219Y-101454442D01*
X172555043Y-101449399D01*
X172555046Y-101449395D01*
X172652713Y-101274998D01*
X172652714Y-101274996D01*
X172655537Y-101269955D01*
X172657393Y-101264488D01*
X172657395Y-101264483D01*
X172721647Y-101075200D01*
X172723504Y-101069730D01*
X172730517Y-101021368D01*
X172753314Y-100864140D01*
X172753314Y-100864138D01*
X172753846Y-100860470D01*
X172755429Y-100800000D01*
X172736081Y-100589440D01*
X172732063Y-100575191D01*
X172702810Y-100471470D01*
X172678686Y-100385931D01*
X172667553Y-100363354D01*
X172587719Y-100201469D01*
X172585165Y-100196290D01*
X172458651Y-100026867D01*
X172331236Y-99909086D01*
X172307622Y-99887257D01*
X172307620Y-99887255D01*
X172303381Y-99883337D01*
X172193377Y-99813929D01*
X172129434Y-99773584D01*
X172129433Y-99773584D01*
X172124554Y-99770505D01*
X171928160Y-99692152D01*
X171922503Y-99691027D01*
X171922497Y-99691025D01*
X171726442Y-99652028D01*
X171726440Y-99652028D01*
X171720775Y-99650901D01*
X171715000Y-99650825D01*
X171714996Y-99650825D01*
X171608976Y-99649437D01*
X171509346Y-99648133D01*
X171503649Y-99649112D01*
X171503648Y-99649112D01*
X171306650Y-99682962D01*
X171306649Y-99682962D01*
X171300953Y-99683941D01*
X171102575Y-99757127D01*
X171097614Y-99760079D01*
X171097613Y-99760079D01*
X170964589Y-99839220D01*
X170920856Y-99865238D01*
X170761881Y-100004655D01*
X170630976Y-100170708D01*
X170628287Y-100175819D01*
X170628285Y-100175822D01*
X170578400Y-100270638D01*
X170532523Y-100357836D01*
X170469820Y-100559773D01*
X170469141Y-100565510D01*
X170461627Y-100628995D01*
X170433756Y-100694292D01*
X170375008Y-100734156D01*
X170304034Y-100735930D01*
X170243367Y-100699051D01*
X170212269Y-100635227D01*
X170210500Y-100614185D01*
X170210500Y-99905354D01*
X170207382Y-99879154D01*
X170183112Y-99824513D01*
X170166663Y-99787482D01*
X170161939Y-99776847D01*
X170153444Y-99768366D01*
X170090945Y-99705977D01*
X170082713Y-99697759D01*
X170072076Y-99693056D01*
X170072074Y-99693055D01*
X169998051Y-99660330D01*
X169980327Y-99652494D01*
X169954646Y-99649500D01*
X168165354Y-99649500D01*
X168161650Y-99649941D01*
X168161647Y-99649941D01*
X168154254Y-99650821D01*
X168139154Y-99652618D01*
X168130514Y-99656456D01*
X168130513Y-99656456D01*
X168064131Y-99685942D01*
X168036847Y-99698061D01*
X167957759Y-99777287D01*
X167953056Y-99787924D01*
X167953055Y-99787926D01*
X167930378Y-99839220D01*
X167912494Y-99879673D01*
X167909500Y-99905354D01*
X167909500Y-101694646D01*
X160541380Y-101694646D01*
X160536330Y-101656291D01*
X160480861Y-101522375D01*
X160392621Y-101407379D01*
X160277625Y-101319139D01*
X160143709Y-101263670D01*
X160000000Y-101244750D01*
X159856291Y-101263670D01*
X159722375Y-101319139D01*
X159607379Y-101407379D01*
X159519139Y-101522375D01*
X159463670Y-101656291D01*
X159444750Y-101800000D01*
X149674620Y-101800000D01*
X149678766Y-101789687D01*
X149678767Y-101789685D01*
X149681601Y-101782634D01*
X149694645Y-101690983D01*
X149704909Y-101618862D01*
X149704909Y-101618859D01*
X149705490Y-101614778D01*
X149705645Y-101600000D01*
X149703840Y-101585080D01*
X149700129Y-101554418D01*
X149685276Y-101431680D01*
X149625345Y-101273077D01*
X149620857Y-101266547D01*
X149533614Y-101139608D01*
X149533613Y-101139607D01*
X149529312Y-101133349D01*
X149517514Y-101122837D01*
X149408392Y-101025612D01*
X149408388Y-101025610D01*
X149402721Y-101020560D01*
X149252881Y-100941224D01*
X149088441Y-100899919D01*
X149080843Y-100899879D01*
X149080841Y-100899879D01*
X149003668Y-100899475D01*
X148918895Y-100899031D01*
X148911508Y-100900805D01*
X148911504Y-100900805D01*
X148768162Y-100935220D01*
X148754032Y-100938612D01*
X148747288Y-100942093D01*
X148747285Y-100942094D01*
X148672393Y-100980749D01*
X148603369Y-101016375D01*
X148475604Y-101127831D01*
X148471237Y-101134045D01*
X148392675Y-101245828D01*
X148378113Y-101266547D01*
X148316524Y-101424513D01*
X148315532Y-101432046D01*
X148315532Y-101432047D01*
X148299387Y-101554686D01*
X148294394Y-101592611D01*
X140186436Y-101592611D01*
X140158045Y-101554686D01*
X140158041Y-101554681D01*
X140155348Y-101551084D01*
X138860306Y-100256042D01*
X138826280Y-100193730D01*
X138825474Y-100144185D01*
X138841618Y-100056291D01*
X138851100Y-100004664D01*
X138857429Y-99992611D01*
X149894394Y-99992611D01*
X149912999Y-100161135D01*
X149971266Y-100320356D01*
X149975502Y-100326659D01*
X149975502Y-100326660D01*
X149986958Y-100343709D01*
X150065830Y-100461083D01*
X150071442Y-100466190D01*
X150071445Y-100466193D01*
X150185612Y-100570077D01*
X150185616Y-100570080D01*
X150191233Y-100575191D01*
X150197906Y-100578814D01*
X150197910Y-100578817D01*
X150333558Y-100652467D01*
X150333560Y-100652468D01*
X150340235Y-100656092D01*
X150347584Y-100658020D01*
X150496883Y-100697188D01*
X150496885Y-100697188D01*
X150504233Y-100699116D01*
X150590609Y-100700473D01*
X150666161Y-100701660D01*
X150666164Y-100701660D01*
X150673760Y-100701779D01*
X150681165Y-100700083D01*
X150681166Y-100700083D01*
X150765094Y-100680861D01*
X150839029Y-100663928D01*
X150990498Y-100587747D01*
X151119423Y-100477634D01*
X151218361Y-100339947D01*
X151226237Y-100320356D01*
X151274620Y-100200000D01*
X157444750Y-100200000D01*
X157463670Y-100343709D01*
X157519139Y-100477625D01*
X157607379Y-100592621D01*
X157722375Y-100680861D01*
X157856291Y-100736330D01*
X158000000Y-100755250D01*
X158143709Y-100736330D01*
X158277625Y-100680861D01*
X158392621Y-100592621D01*
X158480861Y-100477625D01*
X158536330Y-100343709D01*
X158555250Y-100200000D01*
X158536330Y-100056291D01*
X158480861Y-99922375D01*
X158392621Y-99807379D01*
X158277625Y-99719139D01*
X158143709Y-99663670D01*
X158000000Y-99644750D01*
X157856291Y-99663670D01*
X157722375Y-99719139D01*
X157607379Y-99807379D01*
X157519139Y-99922375D01*
X157463670Y-100056291D01*
X157444750Y-100200000D01*
X151274620Y-100200000D01*
X151278766Y-100189687D01*
X151278767Y-100189685D01*
X151281601Y-100182634D01*
X151288877Y-100131511D01*
X151304909Y-100018862D01*
X151304909Y-100018859D01*
X151305490Y-100014778D01*
X151305645Y-100000000D01*
X151303840Y-99985080D01*
X151298182Y-99938332D01*
X151285276Y-99831680D01*
X151225345Y-99673077D01*
X151129312Y-99533349D01*
X151074124Y-99484178D01*
X151008392Y-99425612D01*
X151008388Y-99425610D01*
X151002721Y-99420560D01*
X150852881Y-99341224D01*
X150688441Y-99299919D01*
X150680843Y-99299879D01*
X150680841Y-99299879D01*
X150603668Y-99299475D01*
X150518895Y-99299031D01*
X150511508Y-99300805D01*
X150511504Y-99300805D01*
X150376703Y-99333169D01*
X150354032Y-99338612D01*
X150347288Y-99342093D01*
X150347285Y-99342094D01*
X150321796Y-99355250D01*
X150203369Y-99416375D01*
X150075604Y-99527831D01*
X150071237Y-99534045D01*
X149987990Y-99652494D01*
X149978113Y-99666547D01*
X149916524Y-99824513D01*
X149915532Y-99832046D01*
X149915532Y-99832047D01*
X149901540Y-99938332D01*
X149894394Y-99992611D01*
X138857429Y-99992611D01*
X138885932Y-99938332D01*
X139624264Y-99200000D01*
X159044750Y-99200000D01*
X159063670Y-99343709D01*
X159119139Y-99477625D01*
X159207379Y-99592621D01*
X159322375Y-99680861D01*
X159456291Y-99736330D01*
X159600000Y-99755250D01*
X159743709Y-99736330D01*
X159877625Y-99680861D01*
X159992621Y-99592621D01*
X160080861Y-99477625D01*
X160136330Y-99343709D01*
X160155250Y-99200000D01*
X160136330Y-99056291D01*
X160080861Y-98922375D01*
X159992621Y-98807379D01*
X159983005Y-98800000D01*
X162444750Y-98800000D01*
X162463670Y-98943709D01*
X162519139Y-99077625D01*
X162607379Y-99192621D01*
X162722375Y-99280861D01*
X162856291Y-99336330D01*
X163000000Y-99355250D01*
X163143709Y-99336330D01*
X163277625Y-99280861D01*
X163392621Y-99192621D01*
X163480861Y-99077625D01*
X163536330Y-98943709D01*
X163555250Y-98800000D01*
X163536330Y-98656291D01*
X163480861Y-98522375D01*
X163392621Y-98407379D01*
X163277625Y-98319139D01*
X163143709Y-98263670D01*
X163000000Y-98244750D01*
X162856291Y-98263670D01*
X162722375Y-98319139D01*
X162607379Y-98407379D01*
X162519139Y-98522375D01*
X162463670Y-98656291D01*
X162444750Y-98800000D01*
X159983005Y-98800000D01*
X159877625Y-98719139D01*
X159743709Y-98663670D01*
X159600000Y-98644750D01*
X159456291Y-98663670D01*
X159322375Y-98719139D01*
X159207379Y-98807379D01*
X159119139Y-98922375D01*
X159063670Y-99056291D01*
X159044750Y-99200000D01*
X139624264Y-99200000D01*
X140884961Y-97939303D01*
X146384053Y-97939303D01*
X146402973Y-98083012D01*
X146458442Y-98216928D01*
X146546682Y-98331924D01*
X146661678Y-98420164D01*
X146795594Y-98475633D01*
X146939303Y-98494553D01*
X147083012Y-98475633D01*
X147216928Y-98420164D01*
X147331924Y-98331924D01*
X147420164Y-98216928D01*
X147475633Y-98083012D01*
X147494553Y-97939303D01*
X147475633Y-97795594D01*
X147420164Y-97661678D01*
X147331924Y-97546682D01*
X147216928Y-97458442D01*
X147083012Y-97402973D01*
X146939303Y-97384053D01*
X146795594Y-97402973D01*
X146661678Y-97458442D01*
X146546682Y-97546682D01*
X146458442Y-97661678D01*
X146402973Y-97795594D01*
X146384053Y-97939303D01*
X140884961Y-97939303D01*
X141175227Y-97649037D01*
X141196682Y-97625153D01*
X141213585Y-97604179D01*
X141267846Y-97500450D01*
X141281109Y-97455282D01*
X141286582Y-97436641D01*
X141286582Y-97436640D01*
X141287848Y-97432329D01*
X141300000Y-97347810D01*
X141300000Y-97270447D01*
X141299626Y-97262592D01*
X141298712Y-97243419D01*
X141298711Y-97243404D01*
X141298640Y-97241916D01*
X141296361Y-97218061D01*
X141264362Y-97109105D01*
X141231825Y-97046003D01*
X141192218Y-96990391D01*
X141184898Y-96980113D01*
X141184895Y-96980109D01*
X141182288Y-96976449D01*
X141179184Y-96973194D01*
X140957497Y-96740730D01*
X140924960Y-96677628D01*
X140931703Y-96606952D01*
X140959586Y-96564678D01*
X142323037Y-95201227D01*
X142363279Y-95151290D01*
X142392240Y-95106227D01*
X142411163Y-95072086D01*
X142439102Y-94965435D01*
X142442787Y-94913915D01*
X142443941Y-94897783D01*
X142443941Y-94897778D01*
X142444167Y-94894620D01*
X142443488Y-94871527D01*
X142442656Y-94843276D01*
X142442391Y-94834263D01*
X142425627Y-94782816D01*
X142410036Y-94734972D01*
X142408233Y-94729439D01*
X142379945Y-94677634D01*
X142376363Y-94671075D01*
X142376362Y-94671073D01*
X142374207Y-94667127D01*
X142341204Y-94623041D01*
X142325734Y-94602375D01*
X142325730Y-94602370D01*
X142323037Y-94598773D01*
X142260296Y-94536032D01*
X151028689Y-94536032D01*
X151042518Y-94747027D01*
X151043939Y-94752623D01*
X151043940Y-94752628D01*
X151080819Y-94897836D01*
X151094567Y-94951968D01*
X151183091Y-95143992D01*
X151305127Y-95316669D01*
X151332879Y-95343704D01*
X151409126Y-95417980D01*
X151456587Y-95464215D01*
X151461383Y-95467420D01*
X151461386Y-95467422D01*
X151544321Y-95522837D01*
X151632399Y-95581689D01*
X151637707Y-95583970D01*
X151637708Y-95583970D01*
X151821372Y-95662878D01*
X151821375Y-95662879D01*
X151826675Y-95665156D01*
X151832304Y-95666430D01*
X151832305Y-95666430D01*
X152027272Y-95710547D01*
X152027275Y-95710547D01*
X152032908Y-95711822D01*
X152038679Y-95712049D01*
X152038681Y-95712049D01*
X152100711Y-95714486D01*
X152244192Y-95720124D01*
X152249901Y-95719296D01*
X152249905Y-95719296D01*
X152447737Y-95690611D01*
X152447741Y-95690610D01*
X152453452Y-95689782D01*
X152542937Y-95659406D01*
X152648205Y-95623673D01*
X152648210Y-95623671D01*
X152653677Y-95621815D01*
X152665489Y-95615200D01*
X152833117Y-95521324D01*
X152833121Y-95521321D01*
X152838164Y-95518497D01*
X152854532Y-95504884D01*
X152919696Y-95476703D01*
X152989752Y-95488227D01*
X153042456Y-95535796D01*
X153061075Y-95604307D01*
X153039699Y-95672009D01*
X153024196Y-95690853D01*
X152533636Y-96181413D01*
X152531329Y-96184343D01*
X152531324Y-96184349D01*
X152527122Y-96189687D01*
X152517315Y-96202144D01*
X152513920Y-96210965D01*
X152482284Y-96293166D01*
X152477106Y-96306619D01*
X152477116Y-96318249D01*
X152477116Y-96318250D01*
X152477129Y-96332900D01*
X152477204Y-96418564D01*
X152481401Y-96429413D01*
X152487836Y-96446048D01*
X152517594Y-96522969D01*
X152533636Y-96543245D01*
X153798857Y-97808466D01*
X153801787Y-97810773D01*
X153801793Y-97810778D01*
X153811765Y-97818628D01*
X153819588Y-97824787D01*
X153828409Y-97828182D01*
X153913209Y-97860819D01*
X153913211Y-97860819D01*
X153924063Y-97864996D01*
X153935693Y-97864986D01*
X153935694Y-97864986D01*
X153979822Y-97864947D01*
X154036008Y-97864898D01*
X154140413Y-97824508D01*
X154160689Y-97808466D01*
X154169155Y-97800000D01*
X155444750Y-97800000D01*
X155463670Y-97943709D01*
X155519139Y-98077625D01*
X155607379Y-98192621D01*
X155722375Y-98280861D01*
X155856291Y-98336330D01*
X156000000Y-98355250D01*
X156143709Y-98336330D01*
X156277625Y-98280861D01*
X156392621Y-98192621D01*
X156480861Y-98077625D01*
X156536330Y-97943709D01*
X156555250Y-97800000D01*
X166444750Y-97800000D01*
X166463670Y-97943709D01*
X166519139Y-98077625D01*
X166607379Y-98192621D01*
X166722375Y-98280861D01*
X166856291Y-98336330D01*
X167000000Y-98355250D01*
X167143709Y-98336330D01*
X167277625Y-98280861D01*
X167392621Y-98192621D01*
X167480861Y-98077625D01*
X167536330Y-97943709D01*
X167555250Y-97800000D01*
X167536330Y-97656291D01*
X167480861Y-97522375D01*
X167392621Y-97407379D01*
X167277625Y-97319139D01*
X167143709Y-97263670D01*
X167000000Y-97244750D01*
X166856291Y-97263670D01*
X166722375Y-97319139D01*
X166607379Y-97407379D01*
X166519139Y-97522375D01*
X166463670Y-97656291D01*
X166444750Y-97800000D01*
X156555250Y-97800000D01*
X156536330Y-97656291D01*
X156480861Y-97522375D01*
X156392621Y-97407379D01*
X156277625Y-97319139D01*
X156143709Y-97263670D01*
X156000000Y-97244750D01*
X155856291Y-97263670D01*
X155722375Y-97319139D01*
X155607379Y-97407379D01*
X155519139Y-97522375D01*
X155463670Y-97656291D01*
X155444750Y-97800000D01*
X154169155Y-97800000D01*
X155425910Y-96543245D01*
X155428217Y-96540315D01*
X155428222Y-96540309D01*
X155436384Y-96529941D01*
X155442231Y-96522514D01*
X155446851Y-96510510D01*
X155478263Y-96428893D01*
X155478263Y-96428891D01*
X155482440Y-96418039D01*
X155482342Y-96306094D01*
X155441952Y-96201689D01*
X155425910Y-96181413D01*
X154928710Y-95684213D01*
X154894684Y-95621901D01*
X154899749Y-95551086D01*
X154942296Y-95494250D01*
X155008816Y-95469439D01*
X155078190Y-95484530D01*
X155087807Y-95490353D01*
X155136423Y-95522837D01*
X155224501Y-95581689D01*
X155229809Y-95583970D01*
X155229810Y-95583970D01*
X155413474Y-95662878D01*
X155413477Y-95662879D01*
X155418777Y-95665156D01*
X155424406Y-95666430D01*
X155424407Y-95666430D01*
X155619374Y-95710547D01*
X155619377Y-95710547D01*
X155625010Y-95711822D01*
X155630781Y-95712049D01*
X155630783Y-95712049D01*
X155692813Y-95714486D01*
X155836294Y-95720124D01*
X155842003Y-95719296D01*
X155842007Y-95719296D01*
X156039839Y-95690611D01*
X156039843Y-95690610D01*
X156045554Y-95689782D01*
X156135039Y-95659406D01*
X156240307Y-95623673D01*
X156240312Y-95623671D01*
X156245779Y-95621815D01*
X156257591Y-95615200D01*
X156425219Y-95521324D01*
X156425223Y-95521321D01*
X156430266Y-95518497D01*
X156592836Y-95383290D01*
X156622719Y-95347359D01*
X157897391Y-95347359D01*
X157916311Y-95491068D01*
X157971780Y-95624984D01*
X158060020Y-95739980D01*
X158175016Y-95828220D01*
X158308932Y-95883689D01*
X158452641Y-95902609D01*
X158596350Y-95883689D01*
X158730266Y-95828220D01*
X158845262Y-95739980D01*
X158933502Y-95624984D01*
X158988971Y-95491068D01*
X159007891Y-95347359D01*
X158988971Y-95203650D01*
X158933502Y-95069734D01*
X158845262Y-94954738D01*
X158730266Y-94866498D01*
X158596350Y-94811029D01*
X158452641Y-94792109D01*
X158308932Y-94811029D01*
X158175016Y-94866498D01*
X158060020Y-94954738D01*
X157971780Y-95069734D01*
X157916311Y-95203650D01*
X157897391Y-95347359D01*
X156622719Y-95347359D01*
X156728043Y-95220720D01*
X156730867Y-95215677D01*
X156730870Y-95215673D01*
X156828537Y-95041276D01*
X156828538Y-95041274D01*
X156831361Y-95036233D01*
X156833217Y-95030766D01*
X156833219Y-95030761D01*
X156891295Y-94859672D01*
X156899328Y-94836008D01*
X156903107Y-94809951D01*
X156929138Y-94630418D01*
X156929138Y-94630416D01*
X156929670Y-94626748D01*
X156931253Y-94566278D01*
X156911905Y-94355718D01*
X156898551Y-94308366D01*
X156894514Y-94294053D01*
X156854510Y-94152209D01*
X156843377Y-94129632D01*
X156763543Y-93967747D01*
X156760989Y-93962568D01*
X156677560Y-93850843D01*
X156652829Y-93784296D01*
X156668003Y-93714939D01*
X156718265Y-93664797D01*
X156787657Y-93649788D01*
X156848521Y-93670691D01*
X156992850Y-93767128D01*
X157020552Y-93785638D01*
X157025860Y-93787919D01*
X157025861Y-93787919D01*
X157209525Y-93866827D01*
X157209528Y-93866828D01*
X157214828Y-93869105D01*
X157220457Y-93870379D01*
X157220458Y-93870379D01*
X157415425Y-93914496D01*
X157415428Y-93914496D01*
X157421061Y-93915771D01*
X157426832Y-93915998D01*
X157426834Y-93915998D01*
X157488864Y-93918435D01*
X157632345Y-93924073D01*
X157638054Y-93923245D01*
X157638058Y-93923245D01*
X157835890Y-93894560D01*
X157835894Y-93894559D01*
X157841605Y-93893731D01*
X157920862Y-93866827D01*
X158036358Y-93827622D01*
X158036363Y-93827620D01*
X158041830Y-93825764D01*
X158062783Y-93814030D01*
X158221270Y-93725273D01*
X158221274Y-93725270D01*
X158226317Y-93722446D01*
X158388887Y-93587239D01*
X158524094Y-93424669D01*
X158526918Y-93419626D01*
X158526921Y-93419622D01*
X158624588Y-93245225D01*
X158624589Y-93245223D01*
X158627412Y-93240182D01*
X158629268Y-93234715D01*
X158629270Y-93234710D01*
X158693522Y-93045427D01*
X158695379Y-93039957D01*
X158697619Y-93024513D01*
X158725189Y-92834367D01*
X158725189Y-92834365D01*
X158725721Y-92830697D01*
X158727304Y-92770227D01*
X158707956Y-92559667D01*
X158703757Y-92544776D01*
X158660527Y-92391496D01*
X158650561Y-92356158D01*
X158639428Y-92333581D01*
X158559594Y-92171696D01*
X158557040Y-92166517D01*
X158430526Y-91997094D01*
X158287885Y-91865238D01*
X158279497Y-91857484D01*
X158279495Y-91857482D01*
X158275256Y-91853564D01*
X158096429Y-91740732D01*
X157900035Y-91662379D01*
X157894378Y-91661254D01*
X157894372Y-91661252D01*
X157698317Y-91622255D01*
X157698315Y-91622255D01*
X157692650Y-91621128D01*
X157686875Y-91621052D01*
X157686871Y-91621052D01*
X157580851Y-91619664D01*
X157481221Y-91618360D01*
X157475524Y-91619339D01*
X157475523Y-91619339D01*
X157278525Y-91653189D01*
X157278524Y-91653189D01*
X157272828Y-91654168D01*
X157074450Y-91727354D01*
X157069489Y-91730306D01*
X157069488Y-91730306D01*
X157051964Y-91740732D01*
X156892731Y-91835465D01*
X156733756Y-91974882D01*
X156602851Y-92140935D01*
X156600162Y-92146046D01*
X156600160Y-92146049D01*
X156586667Y-92171696D01*
X156504398Y-92328063D01*
X156441695Y-92530000D01*
X156416842Y-92739981D01*
X156430671Y-92950976D01*
X156432092Y-92956572D01*
X156432093Y-92956577D01*
X156481299Y-93150322D01*
X156482720Y-93155917D01*
X156571244Y-93347941D01*
X156648534Y-93457303D01*
X156667722Y-93484454D01*
X156690703Y-93551628D01*
X156673719Y-93620563D01*
X156622161Y-93669373D01*
X156552400Y-93682560D01*
X156488339Y-93656648D01*
X156488029Y-93657052D01*
X156483445Y-93653535D01*
X156479205Y-93649615D01*
X156456558Y-93635326D01*
X156305258Y-93539862D01*
X156305257Y-93539862D01*
X156300378Y-93536783D01*
X156103984Y-93458430D01*
X156098327Y-93457305D01*
X156098321Y-93457303D01*
X155902266Y-93418306D01*
X155902264Y-93418306D01*
X155896599Y-93417179D01*
X155890824Y-93417103D01*
X155890820Y-93417103D01*
X155784800Y-93415715D01*
X155685170Y-93414411D01*
X155679473Y-93415390D01*
X155679472Y-93415390D01*
X155482474Y-93449240D01*
X155482473Y-93449240D01*
X155476777Y-93450219D01*
X155278399Y-93523405D01*
X155273438Y-93526357D01*
X155273437Y-93526357D01*
X155121068Y-93617007D01*
X155096680Y-93631516D01*
X155056133Y-93667075D01*
X154991728Y-93696951D01*
X154921395Y-93687264D01*
X154867465Y-93641091D01*
X154847058Y-93573090D01*
X154866655Y-93504852D01*
X154876178Y-93491779D01*
X154931992Y-93424669D01*
X154934816Y-93419626D01*
X154934819Y-93419622D01*
X155032486Y-93245225D01*
X155032487Y-93245223D01*
X155035310Y-93240182D01*
X155037166Y-93234715D01*
X155037168Y-93234710D01*
X155101420Y-93045427D01*
X155103277Y-93039957D01*
X155105517Y-93024513D01*
X155133087Y-92834367D01*
X155133087Y-92834365D01*
X155133619Y-92830697D01*
X155135202Y-92770227D01*
X155115854Y-92559667D01*
X155111655Y-92544776D01*
X155068425Y-92391496D01*
X155058459Y-92356158D01*
X155047326Y-92333581D01*
X154967492Y-92171696D01*
X154964938Y-92166517D01*
X154838424Y-91997094D01*
X154695783Y-91865238D01*
X154687395Y-91857484D01*
X154687393Y-91857482D01*
X154683154Y-91853564D01*
X154504327Y-91740732D01*
X154307933Y-91662379D01*
X154302276Y-91661254D01*
X154302270Y-91661252D01*
X154106215Y-91622255D01*
X154106213Y-91622255D01*
X154100548Y-91621128D01*
X154094773Y-91621052D01*
X154094769Y-91621052D01*
X153988749Y-91619664D01*
X153889119Y-91618360D01*
X153883422Y-91619339D01*
X153883421Y-91619339D01*
X153686423Y-91653189D01*
X153686422Y-91653189D01*
X153680726Y-91654168D01*
X153482348Y-91727354D01*
X153477387Y-91730306D01*
X153477386Y-91730306D01*
X153459862Y-91740732D01*
X153300629Y-91835465D01*
X153141654Y-91974882D01*
X153010749Y-92140935D01*
X153008060Y-92146046D01*
X153008058Y-92146049D01*
X152994565Y-92171696D01*
X152912296Y-92328063D01*
X152849593Y-92530000D01*
X152824740Y-92739981D01*
X152838569Y-92950976D01*
X152839990Y-92956572D01*
X152839991Y-92956577D01*
X152889197Y-93150322D01*
X152890618Y-93155917D01*
X152979142Y-93347941D01*
X153056432Y-93457303D01*
X153075620Y-93484454D01*
X153098601Y-93551628D01*
X153081617Y-93620563D01*
X153030059Y-93669373D01*
X152960298Y-93682560D01*
X152896237Y-93656648D01*
X152895927Y-93657052D01*
X152891343Y-93653535D01*
X152887103Y-93649615D01*
X152864456Y-93635326D01*
X152713156Y-93539862D01*
X152713155Y-93539862D01*
X152708276Y-93536783D01*
X152511882Y-93458430D01*
X152506225Y-93457305D01*
X152506219Y-93457303D01*
X152310164Y-93418306D01*
X152310162Y-93418306D01*
X152304497Y-93417179D01*
X152298722Y-93417103D01*
X152298718Y-93417103D01*
X152192698Y-93415715D01*
X152093068Y-93414411D01*
X152087371Y-93415390D01*
X152087370Y-93415390D01*
X151890372Y-93449240D01*
X151890371Y-93449240D01*
X151884675Y-93450219D01*
X151686297Y-93523405D01*
X151681336Y-93526357D01*
X151681335Y-93526357D01*
X151528966Y-93617007D01*
X151504578Y-93631516D01*
X151345603Y-93770933D01*
X151214698Y-93936986D01*
X151212009Y-93942097D01*
X151212007Y-93942100D01*
X151198514Y-93967747D01*
X151116245Y-94124114D01*
X151082034Y-94234292D01*
X151061607Y-94300079D01*
X151053542Y-94326051D01*
X151028689Y-94536032D01*
X142260296Y-94536032D01*
X141517263Y-93792999D01*
X141483237Y-93730687D01*
X141489949Y-93655687D01*
X141533168Y-93551343D01*
X141533169Y-93551340D01*
X141536330Y-93543709D01*
X141555250Y-93400000D01*
X141536330Y-93256291D01*
X141480861Y-93122375D01*
X141392621Y-93007379D01*
X141277625Y-92919139D01*
X141143709Y-92863670D01*
X141000000Y-92844750D01*
X140856291Y-92863670D01*
X140722375Y-92919139D01*
X140607379Y-93007379D01*
X140519139Y-93122375D01*
X140463670Y-93256291D01*
X140444750Y-93400000D01*
X140463670Y-93543709D01*
X140519139Y-93677625D01*
X140559855Y-93730687D01*
X140572994Y-93747810D01*
X140598595Y-93814030D01*
X140584330Y-93883579D01*
X140562127Y-93913609D01*
X136739095Y-97736641D01*
X136676783Y-97770667D01*
X136605968Y-97765602D01*
X136560905Y-97736641D01*
X135850446Y-97026182D01*
X135828389Y-97006211D01*
X135809071Y-96990391D01*
X135803737Y-96987520D01*
X135803732Y-96987517D01*
X135713367Y-96938884D01*
X135708025Y-96936009D01*
X135668102Y-96923603D01*
X135644517Y-96916273D01*
X135644515Y-96916272D01*
X135640227Y-96914940D01*
X135635791Y-96914231D01*
X135635787Y-96914230D01*
X135560356Y-96902172D01*
X135560349Y-96902171D01*
X135555911Y-96901462D01*
X135551414Y-96901391D01*
X135551410Y-96901391D01*
X135485068Y-96900349D01*
X135483838Y-96900330D01*
X135460490Y-96899963D01*
X135430500Y-96895855D01*
X135366224Y-96878993D01*
X135338079Y-96867849D01*
X135279683Y-96836143D01*
X135255004Y-96818605D01*
X135219496Y-96786295D01*
X135205862Y-96773889D01*
X135186086Y-96750977D01*
X135149021Y-96695820D01*
X135135278Y-96668846D01*
X135112443Y-96606445D01*
X135105530Y-96576972D01*
X135098132Y-96509963D01*
X135096968Y-96499418D01*
X135096332Y-96479974D01*
X135096437Y-96477634D01*
X135097450Y-96454935D01*
X135095649Y-96411707D01*
X135093369Y-96385241D01*
X135078610Y-96339947D01*
X135061014Y-96285950D01*
X135059211Y-96280417D01*
X135036015Y-96237937D01*
X135027341Y-96222053D01*
X135027340Y-96222051D01*
X135025185Y-96218105D01*
X134999872Y-96184291D01*
X134976712Y-96153353D01*
X134976708Y-96153348D01*
X134974015Y-96149751D01*
X134931903Y-96107639D01*
X134902579Y-96081903D01*
X134900976Y-96080671D01*
X134900965Y-96080662D01*
X134882936Y-96066807D01*
X134876641Y-96061969D01*
X134876098Y-96061572D01*
X134876075Y-96061554D01*
X134870740Y-96057647D01*
X134870741Y-96057647D01*
X134865455Y-96053776D01*
X134859490Y-96051082D01*
X134859485Y-96051079D01*
X134770286Y-96010792D01*
X134770282Y-96010791D01*
X134764978Y-96008395D01*
X134696006Y-95991558D01*
X134687766Y-95990408D01*
X134645133Y-95984460D01*
X134645130Y-95984460D01*
X134636206Y-95983215D01*
X134527145Y-95999360D01*
X134521645Y-96001255D01*
X134521644Y-96001255D01*
X134463014Y-96021453D01*
X134463004Y-96021457D01*
X134460020Y-96022485D01*
X134457150Y-96023810D01*
X134457143Y-96023813D01*
X134428669Y-96036961D01*
X134405206Y-96047795D01*
X134322186Y-96120340D01*
X134318581Y-96124911D01*
X134318576Y-96124916D01*
X134295964Y-96153586D01*
X134278219Y-96176084D01*
X134235419Y-96249970D01*
X134233739Y-96254149D01*
X134233738Y-96254151D01*
X134219239Y-96290218D01*
X134204655Y-96316746D01*
X134165881Y-96370707D01*
X134145387Y-96392994D01*
X134094861Y-96436146D01*
X134069647Y-96452898D01*
X134010292Y-96482751D01*
X133981806Y-96493007D01*
X133934611Y-96503816D01*
X133934606Y-96503818D01*
X133925713Y-96505855D01*
X133917031Y-96507843D01*
X133886929Y-96511006D01*
X133855324Y-96510510D01*
X133855322Y-96510510D01*
X133820489Y-96509963D01*
X133790500Y-96505855D01*
X133726224Y-96488993D01*
X133698079Y-96477849D01*
X133639683Y-96446143D01*
X133615004Y-96428605D01*
X133597937Y-96413075D01*
X133565861Y-96383888D01*
X133546085Y-96360976D01*
X133509022Y-96305822D01*
X133495279Y-96278849D01*
X133472443Y-96216446D01*
X133465530Y-96186972D01*
X133458096Y-96119640D01*
X133457741Y-96095702D01*
X133459810Y-96070000D01*
X133459938Y-96068411D01*
X133460142Y-96061554D01*
X133460514Y-96049073D01*
X133460514Y-96049068D01*
X133460695Y-96042977D01*
X133457142Y-96021453D01*
X133442905Y-95935226D01*
X133442905Y-95935225D01*
X133441912Y-95929212D01*
X133417101Y-95862692D01*
X133396291Y-95820455D01*
X133394400Y-95816617D01*
X133390417Y-95808533D01*
X133315801Y-95727370D01*
X133306083Y-95720095D01*
X133261516Y-95686732D01*
X133261507Y-95686726D01*
X133258965Y-95684823D01*
X133207235Y-95653688D01*
X133198518Y-95651404D01*
X133198517Y-95651404D01*
X133106218Y-95627225D01*
X133106219Y-95627225D01*
X133100584Y-95625749D01*
X133050895Y-95622195D01*
X133032932Y-95620910D01*
X133032927Y-95620910D01*
X133029769Y-95620684D01*
X133026602Y-95620777D01*
X133026594Y-95620777D01*
X132994214Y-95621730D01*
X132969412Y-95622460D01*
X132960842Y-95625253D01*
X132960840Y-95625253D01*
X132880589Y-95651404D01*
X132864588Y-95656618D01*
X132859484Y-95659405D01*
X132859482Y-95659406D01*
X132815943Y-95683181D01*
X132802276Y-95690644D01*
X132798676Y-95693339D01*
X132737524Y-95739117D01*
X132737519Y-95739121D01*
X132733922Y-95741814D01*
X130024773Y-98450963D01*
X130003318Y-98474847D01*
X129986415Y-98495821D01*
X129932154Y-98599550D01*
X129912152Y-98667671D01*
X129900000Y-98752190D01*
X129900000Y-98947810D01*
X109257223Y-98947810D01*
X109269491Y-98935520D01*
X109302241Y-98902713D01*
X109347506Y-98800327D01*
X109350500Y-98774646D01*
X109350500Y-96985354D01*
X109347382Y-96959154D01*
X109338379Y-96938884D01*
X109306663Y-96867482D01*
X109301939Y-96856847D01*
X109222713Y-96777759D01*
X109212076Y-96773056D01*
X109212074Y-96773055D01*
X109138956Y-96740730D01*
X109120327Y-96732494D01*
X109094646Y-96729500D01*
X108382291Y-96729500D01*
X108314170Y-96709498D01*
X108267677Y-96655842D01*
X108257573Y-96585568D01*
X108287067Y-96520988D01*
X108346793Y-96482604D01*
X108364211Y-96478804D01*
X108464013Y-96464333D01*
X108464014Y-96464333D01*
X108469730Y-96463504D01*
X108548987Y-96436600D01*
X108664483Y-96397395D01*
X108664488Y-96397393D01*
X108669955Y-96395537D01*
X108688340Y-96385241D01*
X108849395Y-96295046D01*
X108849399Y-96295043D01*
X108854442Y-96292219D01*
X109017012Y-96157012D01*
X109152219Y-95994442D01*
X109153244Y-95992611D01*
X127094394Y-95992611D01*
X127112999Y-96161135D01*
X127132530Y-96214505D01*
X127165948Y-96305823D01*
X127171266Y-96320356D01*
X127175502Y-96326659D01*
X127175502Y-96326660D01*
X127188574Y-96346113D01*
X127265830Y-96461083D01*
X127271442Y-96466190D01*
X127271445Y-96466193D01*
X127385612Y-96570077D01*
X127385616Y-96570080D01*
X127391233Y-96575191D01*
X127397906Y-96578814D01*
X127397910Y-96578817D01*
X127533558Y-96652467D01*
X127533560Y-96652468D01*
X127540235Y-96656092D01*
X127547584Y-96658020D01*
X127696883Y-96697188D01*
X127696885Y-96697188D01*
X127704233Y-96699116D01*
X127790609Y-96700473D01*
X127866161Y-96701660D01*
X127866164Y-96701660D01*
X127873760Y-96701779D01*
X127881165Y-96700083D01*
X127881166Y-96700083D01*
X127955039Y-96683164D01*
X128039029Y-96663928D01*
X128190498Y-96587747D01*
X128286381Y-96505855D01*
X128313651Y-96482564D01*
X128313652Y-96482563D01*
X128319423Y-96477634D01*
X128418361Y-96339947D01*
X128427083Y-96318250D01*
X128478766Y-96189687D01*
X128478767Y-96189685D01*
X128481601Y-96182634D01*
X128495937Y-96081903D01*
X128504909Y-96018862D01*
X128504909Y-96018859D01*
X128505490Y-96014778D01*
X128505562Y-96007932D01*
X128505602Y-96004135D01*
X128505602Y-96004129D01*
X128505645Y-96000000D01*
X128504973Y-95994442D01*
X128495687Y-95917714D01*
X128485276Y-95831680D01*
X128425345Y-95673077D01*
X128412019Y-95653688D01*
X128333614Y-95539608D01*
X128333613Y-95539607D01*
X128329312Y-95533349D01*
X128317514Y-95522837D01*
X128208392Y-95425612D01*
X128208388Y-95425610D01*
X128202721Y-95420560D01*
X128164778Y-95400470D01*
X128123948Y-95378852D01*
X128052881Y-95341224D01*
X127888441Y-95299919D01*
X127880843Y-95299879D01*
X127880841Y-95299879D01*
X127803668Y-95299475D01*
X127718895Y-95299031D01*
X127711508Y-95300805D01*
X127711504Y-95300805D01*
X127568162Y-95335220D01*
X127554032Y-95338612D01*
X127547288Y-95342093D01*
X127547285Y-95342094D01*
X127434184Y-95400470D01*
X127403369Y-95416375D01*
X127275604Y-95527831D01*
X127271237Y-95534045D01*
X127183132Y-95659406D01*
X127178113Y-95666547D01*
X127116524Y-95824513D01*
X127115532Y-95832046D01*
X127115532Y-95832047D01*
X127101949Y-95935226D01*
X127094394Y-95992611D01*
X109153244Y-95992611D01*
X109155043Y-95989399D01*
X109155046Y-95989395D01*
X109252713Y-95814998D01*
X109252714Y-95814996D01*
X109255537Y-95809955D01*
X109257393Y-95804488D01*
X109257395Y-95804483D01*
X109309358Y-95651404D01*
X109323504Y-95609730D01*
X109328036Y-95578479D01*
X109353314Y-95404140D01*
X109353314Y-95404138D01*
X109353846Y-95400470D01*
X109355429Y-95340000D01*
X109336081Y-95129440D01*
X109278686Y-94925931D01*
X109275189Y-94918838D01*
X109187719Y-94741469D01*
X109185165Y-94736290D01*
X109082476Y-94598773D01*
X109062104Y-94571491D01*
X109062103Y-94571490D01*
X109058651Y-94566867D01*
X108903381Y-94423337D01*
X108724554Y-94310505D01*
X108528160Y-94232152D01*
X108522503Y-94231027D01*
X108522497Y-94231025D01*
X108329372Y-94192611D01*
X125294394Y-94192611D01*
X125312999Y-94361135D01*
X125371266Y-94520356D01*
X125375502Y-94526659D01*
X125375502Y-94526660D01*
X125385037Y-94540850D01*
X125465830Y-94661083D01*
X125471442Y-94666190D01*
X125471445Y-94666193D01*
X125585612Y-94770077D01*
X125585616Y-94770080D01*
X125591233Y-94775191D01*
X125597906Y-94778814D01*
X125597910Y-94778817D01*
X125733558Y-94852467D01*
X125733560Y-94852468D01*
X125740235Y-94856092D01*
X125747584Y-94858020D01*
X125896883Y-94897188D01*
X125896885Y-94897188D01*
X125904233Y-94899116D01*
X125990609Y-94900473D01*
X126066161Y-94901660D01*
X126066164Y-94901660D01*
X126073760Y-94901779D01*
X126081165Y-94900083D01*
X126081166Y-94900083D01*
X126205849Y-94871527D01*
X126239029Y-94863928D01*
X126390498Y-94787747D01*
X126519423Y-94677634D01*
X126618361Y-94539947D01*
X126626237Y-94520356D01*
X126678766Y-94389687D01*
X126678767Y-94389685D01*
X126681601Y-94382634D01*
X126702713Y-94234292D01*
X126704909Y-94218862D01*
X126704909Y-94218859D01*
X126705490Y-94214778D01*
X126705645Y-94200000D01*
X126705117Y-94195632D01*
X126699862Y-94152209D01*
X126685276Y-94031680D01*
X126625345Y-93873077D01*
X126614567Y-93857395D01*
X126533614Y-93739608D01*
X126533613Y-93739607D01*
X126529312Y-93733349D01*
X126517075Y-93722446D01*
X126408392Y-93625612D01*
X126408388Y-93625610D01*
X126402721Y-93620560D01*
X126374960Y-93605861D01*
X126331406Y-93582801D01*
X126252881Y-93541224D01*
X126088441Y-93499919D01*
X126080843Y-93499879D01*
X126080841Y-93499879D01*
X126003668Y-93499475D01*
X125918895Y-93499031D01*
X125911508Y-93500805D01*
X125911504Y-93500805D01*
X125777824Y-93532900D01*
X125754032Y-93538612D01*
X125747288Y-93542093D01*
X125747285Y-93542094D01*
X125633483Y-93600832D01*
X125603369Y-93616375D01*
X125597647Y-93621367D01*
X125597645Y-93621368D01*
X125546261Y-93666193D01*
X125475604Y-93727831D01*
X125442319Y-93775191D01*
X125387836Y-93852713D01*
X125378113Y-93866547D01*
X125316524Y-94024513D01*
X125315532Y-94032046D01*
X125315532Y-94032047D01*
X125298835Y-94158881D01*
X125294394Y-94192611D01*
X108329372Y-94192611D01*
X108325234Y-94191788D01*
X108262324Y-94158881D01*
X108227192Y-94097186D01*
X108230992Y-94026291D01*
X108272517Y-93968705D01*
X108331734Y-93943513D01*
X108464015Y-93924333D01*
X108464019Y-93924332D01*
X108469730Y-93923504D01*
X108538726Y-93900083D01*
X108664483Y-93857395D01*
X108664488Y-93857393D01*
X108669955Y-93855537D01*
X108675437Y-93852467D01*
X108849395Y-93755046D01*
X108849399Y-93755043D01*
X108854442Y-93752219D01*
X109017012Y-93617012D01*
X109152219Y-93454442D01*
X109155043Y-93449399D01*
X109155046Y-93449395D01*
X109252713Y-93274998D01*
X109252714Y-93274996D01*
X109255537Y-93269955D01*
X109257393Y-93264488D01*
X109257395Y-93264483D01*
X109304742Y-93125000D01*
X130169750Y-93125000D01*
X130188670Y-93268709D01*
X130244139Y-93402625D01*
X130332379Y-93517621D01*
X130447375Y-93605861D01*
X130581291Y-93661330D01*
X130725000Y-93680250D01*
X130868709Y-93661330D01*
X131002625Y-93605861D01*
X131117621Y-93517621D01*
X131205861Y-93402625D01*
X131261330Y-93268709D01*
X131271349Y-93192611D01*
X134894394Y-93192611D01*
X134912999Y-93361135D01*
X134932523Y-93414487D01*
X134958128Y-93484454D01*
X134971266Y-93520356D01*
X134975502Y-93526659D01*
X134975502Y-93526660D01*
X134985289Y-93541224D01*
X135065830Y-93661083D01*
X135071442Y-93666190D01*
X135071445Y-93666193D01*
X135185612Y-93770077D01*
X135185616Y-93770080D01*
X135191233Y-93775191D01*
X135197906Y-93778814D01*
X135197910Y-93778817D01*
X135333558Y-93852467D01*
X135333560Y-93852468D01*
X135340235Y-93856092D01*
X135347584Y-93858020D01*
X135496883Y-93897188D01*
X135496885Y-93897188D01*
X135504233Y-93899116D01*
X135590609Y-93900473D01*
X135666161Y-93901660D01*
X135666164Y-93901660D01*
X135673760Y-93901779D01*
X135681165Y-93900083D01*
X135681166Y-93900083D01*
X135753227Y-93883579D01*
X135839029Y-93863928D01*
X135990498Y-93787747D01*
X136119423Y-93677634D01*
X136218361Y-93539947D01*
X136227336Y-93517621D01*
X136278766Y-93389687D01*
X136278767Y-93389685D01*
X136281601Y-93382634D01*
X136298416Y-93264483D01*
X136304909Y-93218862D01*
X136304909Y-93218859D01*
X136305490Y-93214778D01*
X136305645Y-93200000D01*
X136303840Y-93185080D01*
X136297560Y-93133188D01*
X136285276Y-93031680D01*
X136225345Y-92873077D01*
X136158296Y-92775520D01*
X136133614Y-92739608D01*
X136133613Y-92739607D01*
X136129312Y-92733349D01*
X136123119Y-92727831D01*
X136008392Y-92625612D01*
X136008388Y-92625610D01*
X136002721Y-92620560D01*
X135852881Y-92541224D01*
X135688441Y-92499919D01*
X135680843Y-92499879D01*
X135680841Y-92499879D01*
X135603668Y-92499475D01*
X135518895Y-92499031D01*
X135511508Y-92500805D01*
X135511504Y-92500805D01*
X135368162Y-92535220D01*
X135354032Y-92538612D01*
X135347288Y-92542093D01*
X135347285Y-92542094D01*
X135210117Y-92612892D01*
X135203369Y-92616375D01*
X135197647Y-92621367D01*
X135197645Y-92621368D01*
X135126069Y-92683808D01*
X135075604Y-92727831D01*
X135042088Y-92775520D01*
X134986226Y-92855004D01*
X134978113Y-92866547D01*
X134916524Y-93024513D01*
X134915532Y-93032046D01*
X134915532Y-93032047D01*
X134896042Y-93180095D01*
X134894394Y-93192611D01*
X131271349Y-93192611D01*
X131280250Y-93125000D01*
X131261330Y-92981291D01*
X131205861Y-92847375D01*
X131117621Y-92732379D01*
X131002625Y-92644139D01*
X130868709Y-92588670D01*
X130725000Y-92569750D01*
X130581291Y-92588670D01*
X130447375Y-92644139D01*
X130332379Y-92732379D01*
X130244139Y-92847375D01*
X130188670Y-92981291D01*
X130169750Y-93125000D01*
X109304742Y-93125000D01*
X109321647Y-93075200D01*
X109323504Y-93069730D01*
X109330061Y-93024513D01*
X109353314Y-92864140D01*
X109353314Y-92864138D01*
X109353846Y-92860470D01*
X109355429Y-92800000D01*
X109336081Y-92589440D01*
X109278686Y-92385931D01*
X109267553Y-92363354D01*
X109187719Y-92201469D01*
X109185165Y-92196290D01*
X109058651Y-92026867D01*
X108903381Y-91883337D01*
X108724554Y-91770505D01*
X108528160Y-91692152D01*
X108522503Y-91691027D01*
X108522497Y-91691025D01*
X108326442Y-91652028D01*
X108326440Y-91652028D01*
X108320775Y-91650901D01*
X108315000Y-91650825D01*
X108314996Y-91650825D01*
X108208976Y-91649437D01*
X108109346Y-91648133D01*
X108103649Y-91649112D01*
X108103648Y-91649112D01*
X107906650Y-91682962D01*
X107906649Y-91682962D01*
X107900953Y-91683941D01*
X107702575Y-91757127D01*
X107697614Y-91760079D01*
X107697613Y-91760079D01*
X107680089Y-91770505D01*
X107520856Y-91865238D01*
X107361881Y-92004655D01*
X107230976Y-92170708D01*
X107228287Y-92175819D01*
X107228285Y-92175822D01*
X107214792Y-92201469D01*
X107132523Y-92357836D01*
X107069820Y-92559773D01*
X107044967Y-92769754D01*
X107058796Y-92980749D01*
X107060217Y-92986345D01*
X107060218Y-92986350D01*
X107104615Y-93161160D01*
X107110845Y-93185690D01*
X107113262Y-93190933D01*
X107187818Y-93352657D01*
X107199369Y-93377714D01*
X107321405Y-93550391D01*
X107381590Y-93609021D01*
X107436394Y-93662408D01*
X107472865Y-93697937D01*
X107477661Y-93701142D01*
X107477664Y-93701144D01*
X107599895Y-93782816D01*
X107648677Y-93815411D01*
X107653985Y-93817692D01*
X107653986Y-93817692D01*
X107837650Y-93896600D01*
X107837653Y-93896601D01*
X107842953Y-93898878D01*
X107848582Y-93900152D01*
X107848583Y-93900152D01*
X108043550Y-93944269D01*
X108043553Y-93944269D01*
X108049186Y-93945544D01*
X108054958Y-93945771D01*
X108060687Y-93946525D01*
X108060327Y-93949257D01*
X108116604Y-93968216D01*
X108160950Y-94023659D01*
X108168282Y-94094276D01*
X108136271Y-94157647D01*
X108075081Y-94193651D01*
X108065704Y-94195632D01*
X107906650Y-94222962D01*
X107906649Y-94222962D01*
X107900953Y-94223941D01*
X107702575Y-94297127D01*
X107697614Y-94300079D01*
X107697613Y-94300079D01*
X107583001Y-94368266D01*
X107520856Y-94405238D01*
X107361881Y-94544655D01*
X107230976Y-94710708D01*
X107228287Y-94715819D01*
X107228285Y-94715822D01*
X107208921Y-94752628D01*
X107132523Y-94897836D01*
X107069820Y-95099773D01*
X107044967Y-95309754D01*
X103300000Y-95309754D01*
X103300000Y-88592611D01*
X128294394Y-88592611D01*
X128312999Y-88761135D01*
X128326361Y-88797647D01*
X128358027Y-88884178D01*
X128371266Y-88920356D01*
X128375502Y-88926659D01*
X128375502Y-88926660D01*
X128388574Y-88946113D01*
X128465830Y-89061083D01*
X128471442Y-89066190D01*
X128471445Y-89066193D01*
X128585612Y-89170077D01*
X128585616Y-89170080D01*
X128591233Y-89175191D01*
X128597906Y-89178814D01*
X128597910Y-89178817D01*
X128733558Y-89252467D01*
X128733560Y-89252468D01*
X128740235Y-89256092D01*
X128747584Y-89258020D01*
X128896883Y-89297188D01*
X128896885Y-89297188D01*
X128904233Y-89299116D01*
X128990609Y-89300473D01*
X129066161Y-89301660D01*
X129066164Y-89301660D01*
X129073760Y-89301779D01*
X129081165Y-89300083D01*
X129081166Y-89300083D01*
X129141586Y-89286245D01*
X129239029Y-89263928D01*
X129390498Y-89187747D01*
X129519423Y-89077634D01*
X129618361Y-88939947D01*
X129628059Y-88915822D01*
X129678766Y-88789687D01*
X129678767Y-88789685D01*
X129681601Y-88782634D01*
X129696546Y-88677625D01*
X129704909Y-88618862D01*
X129704909Y-88618859D01*
X129705490Y-88614778D01*
X129705645Y-88600000D01*
X129703840Y-88585080D01*
X129688254Y-88456291D01*
X129685276Y-88431680D01*
X129673305Y-88400000D01*
X135444750Y-88400000D01*
X135463670Y-88543709D01*
X135519139Y-88677625D01*
X135607379Y-88792621D01*
X135722375Y-88880861D01*
X135856291Y-88936330D01*
X136000000Y-88955250D01*
X136143709Y-88936330D01*
X136277625Y-88880861D01*
X136392621Y-88792621D01*
X136480861Y-88677625D01*
X136513014Y-88600000D01*
X139244750Y-88600000D01*
X139263670Y-88743709D01*
X139319139Y-88877625D01*
X139407379Y-88992621D01*
X139522375Y-89080861D01*
X139656291Y-89136330D01*
X139800000Y-89155250D01*
X139808188Y-89154172D01*
X139808189Y-89154172D01*
X139909867Y-89140786D01*
X139980016Y-89151725D01*
X140033114Y-89198854D01*
X140051235Y-89249261D01*
X140057545Y-89297188D01*
X140063670Y-89343709D01*
X140119139Y-89477625D01*
X140207379Y-89592621D01*
X140322375Y-89680861D01*
X140456291Y-89736330D01*
X140600000Y-89755250D01*
X140743709Y-89736330D01*
X140877625Y-89680861D01*
X140992621Y-89592621D01*
X141080861Y-89477625D01*
X141136330Y-89343709D01*
X141155250Y-89200000D01*
X141136330Y-89056291D01*
X141080861Y-88922375D01*
X140992621Y-88807379D01*
X140877625Y-88719139D01*
X140743709Y-88663670D01*
X140600000Y-88644750D01*
X140591812Y-88645828D01*
X140591811Y-88645828D01*
X140490133Y-88659214D01*
X140419984Y-88648275D01*
X140366886Y-88601146D01*
X140366474Y-88600000D01*
X144044750Y-88600000D01*
X144063670Y-88743709D01*
X144119139Y-88877625D01*
X144207379Y-88992621D01*
X144322375Y-89080861D01*
X144456291Y-89136330D01*
X144600000Y-89155250D01*
X144743709Y-89136330D01*
X144877625Y-89080861D01*
X144992621Y-88992621D01*
X145080861Y-88877625D01*
X145136330Y-88743709D01*
X145155250Y-88600000D01*
X145154277Y-88592611D01*
X163894394Y-88592611D01*
X163912999Y-88761135D01*
X163926361Y-88797647D01*
X163958027Y-88884178D01*
X163971266Y-88920356D01*
X163975502Y-88926659D01*
X163975502Y-88926660D01*
X163988574Y-88946113D01*
X164065830Y-89061083D01*
X164071442Y-89066190D01*
X164071445Y-89066193D01*
X164185612Y-89170077D01*
X164185616Y-89170080D01*
X164191233Y-89175191D01*
X164197906Y-89178814D01*
X164197910Y-89178817D01*
X164333558Y-89252467D01*
X164333560Y-89252468D01*
X164340235Y-89256092D01*
X164347584Y-89258020D01*
X164496883Y-89297188D01*
X164496885Y-89297188D01*
X164504233Y-89299116D01*
X164590609Y-89300473D01*
X164666161Y-89301660D01*
X164666164Y-89301660D01*
X164673760Y-89301779D01*
X164681165Y-89300083D01*
X164681166Y-89300083D01*
X164741586Y-89286245D01*
X164839029Y-89263928D01*
X164990498Y-89187747D01*
X165119423Y-89077634D01*
X165218361Y-88939947D01*
X165228059Y-88915822D01*
X165278766Y-88789687D01*
X165278767Y-88789685D01*
X165281601Y-88782634D01*
X165296546Y-88677625D01*
X165304909Y-88618862D01*
X165304909Y-88618859D01*
X165305490Y-88614778D01*
X165305645Y-88600000D01*
X165303840Y-88585080D01*
X165288254Y-88456291D01*
X165285276Y-88431680D01*
X165225345Y-88273077D01*
X165188855Y-88219984D01*
X165133614Y-88139608D01*
X165133613Y-88139607D01*
X165129312Y-88133349D01*
X165117514Y-88122837D01*
X165008392Y-88025612D01*
X165008388Y-88025610D01*
X165002721Y-88020560D01*
X164990198Y-88013929D01*
X164935080Y-87984746D01*
X164852881Y-87941224D01*
X164688441Y-87899919D01*
X164680843Y-87899879D01*
X164680841Y-87899879D01*
X164603668Y-87899475D01*
X164518895Y-87899031D01*
X164511508Y-87900805D01*
X164511504Y-87900805D01*
X164414194Y-87924168D01*
X164354032Y-87938612D01*
X164347288Y-87942093D01*
X164347285Y-87942094D01*
X164239654Y-87997647D01*
X164203369Y-88016375D01*
X164075604Y-88127831D01*
X163978113Y-88266547D01*
X163916524Y-88424513D01*
X163894394Y-88592611D01*
X145154277Y-88592611D01*
X145136330Y-88456291D01*
X145080861Y-88322375D01*
X144992621Y-88207379D01*
X144877625Y-88119139D01*
X144743709Y-88063670D01*
X144600000Y-88044750D01*
X144456291Y-88063670D01*
X144322375Y-88119139D01*
X144207379Y-88207379D01*
X144119139Y-88322375D01*
X144063670Y-88456291D01*
X144044750Y-88600000D01*
X140366474Y-88600000D01*
X140348765Y-88550739D01*
X140337408Y-88464480D01*
X140336330Y-88456291D01*
X140280861Y-88322375D01*
X140192621Y-88207379D01*
X140077625Y-88119139D01*
X139943709Y-88063670D01*
X139800000Y-88044750D01*
X139656291Y-88063670D01*
X139522375Y-88119139D01*
X139407379Y-88207379D01*
X139319139Y-88322375D01*
X139263670Y-88456291D01*
X139244750Y-88600000D01*
X136513014Y-88600000D01*
X136536330Y-88543709D01*
X136555250Y-88400000D01*
X136546035Y-88330004D01*
X136540786Y-88290133D01*
X136551725Y-88219984D01*
X136598854Y-88166886D01*
X136649261Y-88148765D01*
X136717215Y-88139818D01*
X136743709Y-88136330D01*
X136877625Y-88080861D01*
X136992621Y-87992621D01*
X137030132Y-87943736D01*
X137087470Y-87901869D01*
X137158341Y-87897647D01*
X137178311Y-87904031D01*
X137248657Y-87933168D01*
X137256291Y-87936330D01*
X137400000Y-87955250D01*
X137543709Y-87936330D01*
X137677625Y-87880861D01*
X137792621Y-87792621D01*
X137880861Y-87677625D01*
X137936330Y-87543709D01*
X137955250Y-87400000D01*
X137936330Y-87256291D01*
X137886306Y-87135520D01*
X137884021Y-87130004D01*
X137880861Y-87122375D01*
X137792621Y-87007379D01*
X137783005Y-87000000D01*
X141044750Y-87000000D01*
X141063670Y-87143709D01*
X141119139Y-87277625D01*
X141207379Y-87392621D01*
X141322375Y-87480861D01*
X141456291Y-87536330D01*
X141600000Y-87555250D01*
X141743709Y-87536330D01*
X141877625Y-87480861D01*
X141992621Y-87392621D01*
X142080861Y-87277625D01*
X142084022Y-87269994D01*
X142088152Y-87262841D01*
X142089546Y-87263646D01*
X142128138Y-87215754D01*
X142195501Y-87193332D01*
X142264293Y-87210890D01*
X142312672Y-87262851D01*
X142315766Y-87269627D01*
X142315979Y-87269996D01*
X142319139Y-87277625D01*
X142407379Y-87392621D01*
X142522375Y-87480861D01*
X142656291Y-87536330D01*
X142800000Y-87555250D01*
X142943709Y-87536330D01*
X143077625Y-87480861D01*
X143183005Y-87400000D01*
X146244750Y-87400000D01*
X146263670Y-87543709D01*
X146319139Y-87677625D01*
X146407379Y-87792621D01*
X146522375Y-87880861D01*
X146656291Y-87936330D01*
X146800000Y-87955250D01*
X146943709Y-87936330D01*
X147077625Y-87880861D01*
X147192621Y-87792621D01*
X147280861Y-87677625D01*
X147336330Y-87543709D01*
X147355250Y-87400000D01*
X147336330Y-87256291D01*
X147286306Y-87135520D01*
X147284021Y-87130004D01*
X147280861Y-87122375D01*
X147192621Y-87007379D01*
X147077625Y-86919139D01*
X146943709Y-86863670D01*
X146800000Y-86844750D01*
X146656291Y-86863670D01*
X146522375Y-86919139D01*
X146407379Y-87007379D01*
X146319139Y-87122375D01*
X146315979Y-87130004D01*
X146313694Y-87135520D01*
X146263670Y-87256291D01*
X146244750Y-87400000D01*
X143183005Y-87400000D01*
X143192621Y-87392621D01*
X143280861Y-87277625D01*
X143336330Y-87143709D01*
X143355250Y-87000000D01*
X143336330Y-86856291D01*
X143280861Y-86722375D01*
X143192621Y-86607379D01*
X143077625Y-86519139D01*
X142943709Y-86463670D01*
X142800000Y-86444750D01*
X142656291Y-86463670D01*
X142522375Y-86519139D01*
X142407379Y-86607379D01*
X142319139Y-86722375D01*
X142315979Y-86730004D01*
X142311848Y-86737159D01*
X142310454Y-86736354D01*
X142271862Y-86784246D01*
X142204499Y-86806668D01*
X142135707Y-86789110D01*
X142087328Y-86737149D01*
X142084234Y-86730373D01*
X142084021Y-86730004D01*
X142080861Y-86722375D01*
X141992621Y-86607379D01*
X141877625Y-86519139D01*
X141743709Y-86463670D01*
X141600000Y-86444750D01*
X141456291Y-86463670D01*
X141322375Y-86519139D01*
X141207379Y-86607379D01*
X141119139Y-86722375D01*
X141063670Y-86856291D01*
X141044750Y-87000000D01*
X137783005Y-87000000D01*
X137677625Y-86919139D01*
X137543709Y-86863670D01*
X137400000Y-86844750D01*
X137256291Y-86863670D01*
X137122375Y-86919139D01*
X137007379Y-87007379D01*
X137002353Y-87013929D01*
X136969868Y-87056264D01*
X136912530Y-87098131D01*
X136841659Y-87102353D01*
X136821689Y-87095969D01*
X136751343Y-87066832D01*
X136743709Y-87063670D01*
X136600000Y-87044750D01*
X136456291Y-87063670D01*
X136322375Y-87119139D01*
X136207379Y-87207379D01*
X136119139Y-87322375D01*
X136063670Y-87456291D01*
X136044750Y-87600000D01*
X136045828Y-87608188D01*
X136045828Y-87608189D01*
X136059214Y-87709867D01*
X136048275Y-87780016D01*
X136001146Y-87833114D01*
X135950739Y-87851235D01*
X135888390Y-87859444D01*
X135856291Y-87863670D01*
X135722375Y-87919139D01*
X135607379Y-88007379D01*
X135519139Y-88122375D01*
X135463670Y-88256291D01*
X135444750Y-88400000D01*
X129673305Y-88400000D01*
X129625345Y-88273077D01*
X129588855Y-88219984D01*
X129533614Y-88139608D01*
X129533613Y-88139607D01*
X129529312Y-88133349D01*
X129517514Y-88122837D01*
X129408392Y-88025612D01*
X129408388Y-88025610D01*
X129402721Y-88020560D01*
X129390198Y-88013929D01*
X129335080Y-87984746D01*
X129252881Y-87941224D01*
X129088441Y-87899919D01*
X129080843Y-87899879D01*
X129080841Y-87899879D01*
X129003668Y-87899475D01*
X128918895Y-87899031D01*
X128911508Y-87900805D01*
X128911504Y-87900805D01*
X128814194Y-87924168D01*
X128754032Y-87938612D01*
X128747288Y-87942093D01*
X128747285Y-87942094D01*
X128639654Y-87997647D01*
X128603369Y-88016375D01*
X128475604Y-88127831D01*
X128378113Y-88266547D01*
X128316524Y-88424513D01*
X128294394Y-88592611D01*
X103300000Y-88592611D01*
X103300000Y-85929754D01*
X107044967Y-85929754D01*
X107058796Y-86140749D01*
X107060217Y-86146345D01*
X107060218Y-86146350D01*
X107109424Y-86340095D01*
X107110845Y-86345690D01*
X107199369Y-86537714D01*
X107321405Y-86710391D01*
X107472865Y-86857937D01*
X107477661Y-86861142D01*
X107477664Y-86861144D01*
X107620936Y-86956875D01*
X107648677Y-86975411D01*
X107653985Y-86977692D01*
X107653986Y-86977692D01*
X107837650Y-87056600D01*
X107837653Y-87056601D01*
X107842953Y-87058878D01*
X107848582Y-87060152D01*
X107848583Y-87060152D01*
X108043550Y-87104269D01*
X108043553Y-87104269D01*
X108049186Y-87105544D01*
X108054957Y-87105771D01*
X108054959Y-87105771D01*
X108116989Y-87108208D01*
X108260470Y-87113846D01*
X108266179Y-87113018D01*
X108266183Y-87113018D01*
X108464015Y-87084333D01*
X108464019Y-87084332D01*
X108469730Y-87083504D01*
X108549977Y-87056264D01*
X108664483Y-87017395D01*
X108664488Y-87017393D01*
X108669955Y-87015537D01*
X108683078Y-87008188D01*
X108849395Y-86915046D01*
X108849399Y-86915043D01*
X108854442Y-86912219D01*
X109017012Y-86777012D01*
X109152219Y-86614442D01*
X109155043Y-86609399D01*
X109155046Y-86609395D01*
X109252713Y-86434998D01*
X109252714Y-86434996D01*
X109255537Y-86429955D01*
X109257393Y-86424488D01*
X109257395Y-86424483D01*
X109304173Y-86286676D01*
X109323504Y-86229730D01*
X109329919Y-86185492D01*
X109353314Y-86024140D01*
X109353314Y-86024138D01*
X109353846Y-86020470D01*
X109355429Y-85960000D01*
X109336081Y-85749440D01*
X109333243Y-85739375D01*
X109301703Y-85627543D01*
X109278686Y-85545931D01*
X109268050Y-85524362D01*
X109187719Y-85361469D01*
X109185165Y-85356290D01*
X109097745Y-85239220D01*
X109062104Y-85191491D01*
X109062103Y-85191490D01*
X109058651Y-85186867D01*
X108928784Y-85066819D01*
X108907622Y-85047257D01*
X108907620Y-85047255D01*
X108903381Y-85043337D01*
X108822985Y-84992611D01*
X130094394Y-84992611D01*
X130112999Y-85161135D01*
X130119066Y-85177714D01*
X130159088Y-85287077D01*
X130171266Y-85320356D01*
X130175502Y-85326659D01*
X130175502Y-85326660D01*
X130188280Y-85345676D01*
X130265830Y-85461083D01*
X130271442Y-85466190D01*
X130271445Y-85466193D01*
X130385612Y-85570077D01*
X130385616Y-85570080D01*
X130391233Y-85575191D01*
X130397906Y-85578814D01*
X130397910Y-85578817D01*
X130533558Y-85652467D01*
X130533560Y-85652468D01*
X130540235Y-85656092D01*
X130547584Y-85658020D01*
X130696883Y-85697188D01*
X130696885Y-85697188D01*
X130704233Y-85699116D01*
X130790609Y-85700473D01*
X130866161Y-85701660D01*
X130866164Y-85701660D01*
X130873760Y-85701779D01*
X130881165Y-85700083D01*
X130881166Y-85700083D01*
X130941586Y-85686245D01*
X131039029Y-85663928D01*
X131190498Y-85587747D01*
X131278343Y-85512720D01*
X131313651Y-85482564D01*
X131313652Y-85482563D01*
X131319423Y-85477634D01*
X131380518Y-85392611D01*
X149494394Y-85392611D01*
X149512999Y-85561135D01*
X149533696Y-85617692D01*
X149564468Y-85701779D01*
X149571266Y-85720356D01*
X149575502Y-85726659D01*
X149575502Y-85726660D01*
X149585289Y-85741224D01*
X149665830Y-85861083D01*
X149671442Y-85866190D01*
X149671445Y-85866193D01*
X149785612Y-85970077D01*
X149785616Y-85970080D01*
X149791233Y-85975191D01*
X149797906Y-85978814D01*
X149797910Y-85978817D01*
X149933558Y-86052467D01*
X149933560Y-86052468D01*
X149940235Y-86056092D01*
X149947584Y-86058020D01*
X150096883Y-86097188D01*
X150096885Y-86097188D01*
X150104233Y-86099116D01*
X150190609Y-86100473D01*
X150266161Y-86101660D01*
X150266164Y-86101660D01*
X150273760Y-86101779D01*
X150281165Y-86100083D01*
X150281166Y-86100083D01*
X150341586Y-86086245D01*
X150439029Y-86063928D01*
X150590498Y-85987747D01*
X150719423Y-85877634D01*
X150818361Y-85739947D01*
X150828689Y-85714256D01*
X150878766Y-85589687D01*
X150878767Y-85589685D01*
X150881601Y-85582634D01*
X150896295Y-85479389D01*
X150904909Y-85418862D01*
X150904909Y-85418859D01*
X150905490Y-85414778D01*
X150905645Y-85400000D01*
X150903840Y-85385080D01*
X150898378Y-85339947D01*
X150885276Y-85231680D01*
X150825345Y-85073077D01*
X150820857Y-85066547D01*
X150733614Y-84939608D01*
X150733613Y-84939607D01*
X150729312Y-84933349D01*
X150717514Y-84922837D01*
X150608392Y-84825612D01*
X150608388Y-84825610D01*
X150602721Y-84820560D01*
X150589673Y-84813651D01*
X150507375Y-84770077D01*
X150452881Y-84741224D01*
X150288441Y-84699919D01*
X150280843Y-84699879D01*
X150280841Y-84699879D01*
X150203668Y-84699475D01*
X150118895Y-84699031D01*
X150111508Y-84700805D01*
X150111504Y-84700805D01*
X149968162Y-84735220D01*
X149954032Y-84738612D01*
X149947288Y-84742093D01*
X149947285Y-84742094D01*
X149812256Y-84811788D01*
X149803369Y-84816375D01*
X149797647Y-84821367D01*
X149797645Y-84821368D01*
X149763649Y-84851025D01*
X149675604Y-84927831D01*
X149671237Y-84934045D01*
X149596591Y-85040256D01*
X149578113Y-85066547D01*
X149516524Y-85224513D01*
X149515532Y-85232046D01*
X149515532Y-85232047D01*
X149497419Y-85369636D01*
X149494394Y-85392611D01*
X131380518Y-85392611D01*
X131418361Y-85339947D01*
X131426237Y-85320356D01*
X131478766Y-85189687D01*
X131478767Y-85189685D01*
X131481601Y-85182634D01*
X131503459Y-85029048D01*
X131504909Y-85018862D01*
X131504909Y-85018859D01*
X131505490Y-85014778D01*
X131505645Y-85000000D01*
X131503840Y-84985080D01*
X131498337Y-84939608D01*
X131485276Y-84831680D01*
X131425345Y-84673077D01*
X131414133Y-84656763D01*
X131333614Y-84539608D01*
X131333613Y-84539607D01*
X131329312Y-84533349D01*
X131323119Y-84527831D01*
X131208392Y-84425612D01*
X131208388Y-84425610D01*
X131202721Y-84420560D01*
X131052881Y-84341224D01*
X130888441Y-84299919D01*
X130880843Y-84299879D01*
X130880841Y-84299879D01*
X130803668Y-84299475D01*
X130718895Y-84299031D01*
X130711508Y-84300805D01*
X130711504Y-84300805D01*
X130577824Y-84332900D01*
X130554032Y-84338612D01*
X130547288Y-84342093D01*
X130547285Y-84342094D01*
X130410117Y-84412892D01*
X130403369Y-84416375D01*
X130397647Y-84421367D01*
X130397645Y-84421368D01*
X130359341Y-84454783D01*
X130275604Y-84527831D01*
X130246489Y-84569257D01*
X130188009Y-84652467D01*
X130178113Y-84666547D01*
X130116524Y-84824513D01*
X130115532Y-84832046D01*
X130115532Y-84832047D01*
X130096042Y-84980095D01*
X130094394Y-84992611D01*
X108822985Y-84992611D01*
X108820326Y-84990933D01*
X108729434Y-84933584D01*
X108729433Y-84933584D01*
X108724554Y-84930505D01*
X108528160Y-84852152D01*
X108522503Y-84851027D01*
X108522497Y-84851025D01*
X108334600Y-84813651D01*
X108325234Y-84811788D01*
X108262324Y-84778881D01*
X108227192Y-84717186D01*
X108230992Y-84646291D01*
X108272517Y-84588705D01*
X108331734Y-84563513D01*
X108464015Y-84544333D01*
X108464019Y-84544332D01*
X108469730Y-84543504D01*
X108548987Y-84516600D01*
X108664483Y-84477395D01*
X108664488Y-84477393D01*
X108669955Y-84475537D01*
X108674998Y-84472713D01*
X108849395Y-84375046D01*
X108849399Y-84375043D01*
X108854442Y-84372219D01*
X109017012Y-84237012D01*
X109152219Y-84074442D01*
X109155043Y-84069399D01*
X109155046Y-84069395D01*
X109252713Y-83894998D01*
X109252714Y-83894996D01*
X109255537Y-83889955D01*
X109257393Y-83884488D01*
X109257395Y-83884483D01*
X109286073Y-83800000D01*
X128444750Y-83800000D01*
X128463670Y-83943709D01*
X128519139Y-84077625D01*
X128607379Y-84192621D01*
X128722375Y-84280861D01*
X128856291Y-84336330D01*
X129000000Y-84355250D01*
X129143709Y-84336330D01*
X129277625Y-84280861D01*
X129392621Y-84192621D01*
X129480861Y-84077625D01*
X129516074Y-83992611D01*
X133094394Y-83992611D01*
X133112999Y-84161135D01*
X133171266Y-84320356D01*
X133175502Y-84326659D01*
X133175502Y-84326660D01*
X133185289Y-84341224D01*
X133265830Y-84461083D01*
X133271442Y-84466190D01*
X133271445Y-84466193D01*
X133385612Y-84570077D01*
X133385616Y-84570080D01*
X133391233Y-84575191D01*
X133397906Y-84578814D01*
X133397910Y-84578817D01*
X133533558Y-84652467D01*
X133533560Y-84652468D01*
X133540235Y-84656092D01*
X133547584Y-84658020D01*
X133696883Y-84697188D01*
X133696885Y-84697188D01*
X133704233Y-84699116D01*
X133790609Y-84700473D01*
X133866161Y-84701660D01*
X133866164Y-84701660D01*
X133873760Y-84701779D01*
X133881165Y-84700083D01*
X133881166Y-84700083D01*
X133941586Y-84686245D01*
X134039029Y-84663928D01*
X134190498Y-84587747D01*
X134319423Y-84477634D01*
X134418361Y-84339947D01*
X134428828Y-84313910D01*
X134478766Y-84189687D01*
X134478767Y-84189685D01*
X134481601Y-84182634D01*
X134496999Y-84074442D01*
X134504909Y-84018862D01*
X134504909Y-84018859D01*
X134505490Y-84014778D01*
X134505645Y-84000000D01*
X134503840Y-83985080D01*
X134493759Y-83901779D01*
X134485276Y-83831680D01*
X134425345Y-83673077D01*
X134389806Y-83621368D01*
X134333614Y-83539608D01*
X134333613Y-83539607D01*
X134329312Y-83533349D01*
X134323119Y-83527831D01*
X134208392Y-83425612D01*
X134208388Y-83425610D01*
X134202721Y-83420560D01*
X134190198Y-83413929D01*
X134116877Y-83375108D01*
X134052881Y-83341224D01*
X133888441Y-83299919D01*
X133880843Y-83299879D01*
X133880841Y-83299879D01*
X133803668Y-83299475D01*
X133718895Y-83299031D01*
X133711508Y-83300805D01*
X133711504Y-83300805D01*
X133614194Y-83324168D01*
X133554032Y-83338612D01*
X133547288Y-83342093D01*
X133547285Y-83342094D01*
X133430536Y-83402353D01*
X133403369Y-83416375D01*
X133397647Y-83421367D01*
X133397645Y-83421368D01*
X133363878Y-83450825D01*
X133275604Y-83527831D01*
X133254143Y-83558367D01*
X133206883Y-83625612D01*
X133178113Y-83666547D01*
X133116524Y-83824513D01*
X133115532Y-83832046D01*
X133115532Y-83832047D01*
X133097278Y-83970708D01*
X133094394Y-83992611D01*
X129516074Y-83992611D01*
X129536330Y-83943709D01*
X129555250Y-83800000D01*
X129536330Y-83656291D01*
X129480861Y-83522375D01*
X129392621Y-83407379D01*
X129277625Y-83319139D01*
X129143709Y-83263670D01*
X129000000Y-83244750D01*
X128856291Y-83263670D01*
X128722375Y-83319139D01*
X128607379Y-83407379D01*
X128519139Y-83522375D01*
X128463670Y-83656291D01*
X128444750Y-83800000D01*
X109286073Y-83800000D01*
X109309606Y-83730673D01*
X109323504Y-83689730D01*
X109326866Y-83666547D01*
X109353314Y-83484140D01*
X109353314Y-83484138D01*
X109353846Y-83480470D01*
X109355429Y-83420000D01*
X109336081Y-83209440D01*
X109331335Y-83192611D01*
X143494394Y-83192611D01*
X143512999Y-83361135D01*
X143544836Y-83448133D01*
X143557582Y-83482962D01*
X143571266Y-83520356D01*
X143575502Y-83526659D01*
X143575502Y-83526660D01*
X143585289Y-83541224D01*
X143665830Y-83661083D01*
X143671442Y-83666190D01*
X143671445Y-83666193D01*
X143785612Y-83770077D01*
X143785616Y-83770080D01*
X143791233Y-83775191D01*
X143797906Y-83778814D01*
X143797910Y-83778817D01*
X143933558Y-83852467D01*
X143933560Y-83852468D01*
X143940235Y-83856092D01*
X143947584Y-83858020D01*
X144096883Y-83897188D01*
X144096885Y-83897188D01*
X144104233Y-83899116D01*
X144190609Y-83900473D01*
X144266161Y-83901660D01*
X144266164Y-83901660D01*
X144273760Y-83901779D01*
X144281165Y-83900083D01*
X144281166Y-83900083D01*
X144349280Y-83884483D01*
X144439029Y-83863928D01*
X144590498Y-83787747D01*
X144698856Y-83695200D01*
X144713651Y-83682564D01*
X144713652Y-83682563D01*
X144719423Y-83677634D01*
X144818361Y-83539947D01*
X144828059Y-83515822D01*
X144878766Y-83389687D01*
X144878767Y-83389685D01*
X144881601Y-83382634D01*
X144901071Y-83245828D01*
X144904909Y-83218862D01*
X144904909Y-83218859D01*
X144905490Y-83214778D01*
X144905645Y-83200000D01*
X144903840Y-83185080D01*
X144893759Y-83101779D01*
X144885276Y-83031680D01*
X144825345Y-82873077D01*
X144820614Y-82866193D01*
X144733614Y-82739608D01*
X144733613Y-82739607D01*
X144729312Y-82733349D01*
X144723119Y-82727831D01*
X144608392Y-82625612D01*
X144608388Y-82625610D01*
X144602721Y-82620560D01*
X144452881Y-82541224D01*
X144288441Y-82499919D01*
X144280843Y-82499879D01*
X144280841Y-82499879D01*
X144203668Y-82499475D01*
X144118895Y-82499031D01*
X144111508Y-82500805D01*
X144111504Y-82500805D01*
X143976703Y-82533169D01*
X143954032Y-82538612D01*
X143947288Y-82542093D01*
X143947285Y-82542094D01*
X143810117Y-82612892D01*
X143803369Y-82616375D01*
X143797647Y-82621367D01*
X143797645Y-82621368D01*
X143726069Y-82683808D01*
X143675604Y-82727831D01*
X143671237Y-82734045D01*
X143622108Y-82803949D01*
X143578113Y-82866547D01*
X143516524Y-83024513D01*
X143515532Y-83032046D01*
X143515532Y-83032047D01*
X143495522Y-83184044D01*
X143494394Y-83192611D01*
X109331335Y-83192611D01*
X109278686Y-83005931D01*
X109271402Y-82991159D01*
X109187719Y-82821469D01*
X109185165Y-82816290D01*
X109058651Y-82646867D01*
X108957740Y-82553586D01*
X108907622Y-82507257D01*
X108907620Y-82507255D01*
X108903381Y-82503337D01*
X108896620Y-82499071D01*
X108729434Y-82393584D01*
X108729433Y-82393584D01*
X108727891Y-82392611D01*
X134494394Y-82392611D01*
X134512999Y-82561135D01*
X134571266Y-82720356D01*
X134575502Y-82726659D01*
X134575502Y-82726660D01*
X134588574Y-82746113D01*
X134665830Y-82861083D01*
X134671442Y-82866190D01*
X134671445Y-82866193D01*
X134785612Y-82970077D01*
X134785616Y-82970080D01*
X134791233Y-82975191D01*
X134797906Y-82978814D01*
X134797910Y-82978817D01*
X134933558Y-83052467D01*
X134933560Y-83052468D01*
X134940235Y-83056092D01*
X134947584Y-83058020D01*
X135096883Y-83097188D01*
X135096885Y-83097188D01*
X135104233Y-83099116D01*
X135190609Y-83100473D01*
X135266161Y-83101660D01*
X135266164Y-83101660D01*
X135273760Y-83101779D01*
X135281165Y-83100083D01*
X135281166Y-83100083D01*
X135372569Y-83079149D01*
X135439029Y-83063928D01*
X135590498Y-82987747D01*
X135719423Y-82877634D01*
X135818361Y-82739947D01*
X135826237Y-82720356D01*
X135878766Y-82589687D01*
X135878767Y-82589685D01*
X135881601Y-82582634D01*
X135895462Y-82485238D01*
X135904909Y-82418862D01*
X135904909Y-82418859D01*
X135905490Y-82414778D01*
X135905645Y-82400000D01*
X135903840Y-82385080D01*
X135894263Y-82305942D01*
X135885276Y-82231680D01*
X135825345Y-82073077D01*
X135809630Y-82050212D01*
X135775120Y-82000000D01*
X139244750Y-82000000D01*
X139263670Y-82143709D01*
X139319139Y-82277625D01*
X139407379Y-82392621D01*
X139522375Y-82480861D01*
X139656291Y-82536330D01*
X139800000Y-82555250D01*
X139943709Y-82536330D01*
X140077625Y-82480861D01*
X140192621Y-82392621D01*
X140280861Y-82277625D01*
X140302834Y-82224577D01*
X140333170Y-82151339D01*
X140333171Y-82151336D01*
X140336330Y-82143709D01*
X140337408Y-82135520D01*
X140339246Y-82128661D01*
X140376197Y-82068038D01*
X140427971Y-82039768D01*
X140435398Y-82038790D01*
X140569314Y-81983321D01*
X140684310Y-81895081D01*
X140772550Y-81780085D01*
X140788647Y-81741224D01*
X140824859Y-81653799D01*
X140824860Y-81653796D01*
X140828019Y-81646169D01*
X140828618Y-81641619D01*
X140864684Y-81582448D01*
X140928544Y-81551426D01*
X140965886Y-81550759D01*
X140991811Y-81554172D01*
X140991812Y-81554172D01*
X141000000Y-81555250D01*
X141143709Y-81536330D01*
X141277625Y-81480861D01*
X141392621Y-81392621D01*
X141480861Y-81277625D01*
X141536330Y-81143709D01*
X141555250Y-81000000D01*
X141548955Y-80952188D01*
X149505231Y-80952188D01*
X149505329Y-81064133D01*
X149545719Y-81168538D01*
X149561761Y-81188814D01*
X150826982Y-82454035D01*
X150829912Y-82456342D01*
X150829918Y-82456347D01*
X150839890Y-82464197D01*
X150847713Y-82470356D01*
X150856534Y-82473751D01*
X150941334Y-82506388D01*
X150941336Y-82506388D01*
X150952188Y-82510565D01*
X150963818Y-82510555D01*
X150963819Y-82510555D01*
X151007947Y-82510516D01*
X151064133Y-82510467D01*
X151082564Y-82503337D01*
X151159700Y-82473496D01*
X151168538Y-82470077D01*
X151188814Y-82454035D01*
X151690035Y-81952814D01*
X151752347Y-81918788D01*
X151823162Y-81923853D01*
X151879998Y-81966400D01*
X151904809Y-82032920D01*
X151889718Y-82102294D01*
X151878080Y-82119914D01*
X151834925Y-82174657D01*
X151832236Y-82179768D01*
X151832234Y-82179771D01*
X151801784Y-82237647D01*
X151736472Y-82361785D01*
X151673769Y-82563722D01*
X151648916Y-82773703D01*
X151662745Y-82984698D01*
X151664166Y-82990294D01*
X151664167Y-82990299D01*
X151686733Y-83079149D01*
X151714794Y-83189639D01*
X151717211Y-83194882D01*
X151782654Y-83336839D01*
X151803318Y-83381663D01*
X151925354Y-83554340D01*
X151967074Y-83594982D01*
X152069951Y-83695200D01*
X152076814Y-83701886D01*
X152081610Y-83705091D01*
X152081613Y-83705093D01*
X152191949Y-83778817D01*
X152252626Y-83819360D01*
X152257934Y-83821641D01*
X152257935Y-83821641D01*
X152441599Y-83900549D01*
X152441602Y-83900550D01*
X152446902Y-83902827D01*
X152452531Y-83904101D01*
X152452532Y-83904101D01*
X152647499Y-83948218D01*
X152647502Y-83948218D01*
X152653135Y-83949493D01*
X152658906Y-83949720D01*
X152658908Y-83949720D01*
X152720938Y-83952157D01*
X152864419Y-83957795D01*
X152870128Y-83956967D01*
X152870132Y-83956967D01*
X153067964Y-83928282D01*
X153067968Y-83928281D01*
X153073679Y-83927453D01*
X153146225Y-83902827D01*
X153268432Y-83861344D01*
X153268437Y-83861342D01*
X153273904Y-83859486D01*
X153278947Y-83856662D01*
X153453344Y-83758995D01*
X153453348Y-83758992D01*
X153458391Y-83756168D01*
X153529050Y-83697402D01*
X153594212Y-83669222D01*
X153664267Y-83680746D01*
X153716971Y-83728314D01*
X153735591Y-83796826D01*
X153714215Y-83864528D01*
X153708567Y-83872282D01*
X153634557Y-83966165D01*
X153630976Y-83970708D01*
X153628287Y-83975819D01*
X153628285Y-83975822D01*
X153606392Y-84017434D01*
X153532523Y-84157836D01*
X153488418Y-84299879D01*
X153474062Y-84346113D01*
X153469820Y-84359773D01*
X153444967Y-84569754D01*
X153458796Y-84780749D01*
X153460217Y-84786345D01*
X153460218Y-84786350D01*
X153509424Y-84980095D01*
X153510845Y-84985690D01*
X153599369Y-85177714D01*
X153721405Y-85350391D01*
X153872865Y-85497937D01*
X153877661Y-85501142D01*
X153877664Y-85501144D01*
X153993910Y-85578817D01*
X154048677Y-85615411D01*
X154053985Y-85617692D01*
X154053986Y-85617692D01*
X154237650Y-85696600D01*
X154237653Y-85696601D01*
X154242953Y-85698878D01*
X154248582Y-85700152D01*
X154248583Y-85700152D01*
X154443550Y-85744269D01*
X154443553Y-85744269D01*
X154449186Y-85745544D01*
X154454957Y-85745771D01*
X154454959Y-85745771D01*
X154516989Y-85748208D01*
X154660470Y-85753846D01*
X154666179Y-85753018D01*
X154666183Y-85753018D01*
X154864015Y-85724333D01*
X154864019Y-85724332D01*
X154869730Y-85723504D01*
X154938726Y-85700083D01*
X155064483Y-85657395D01*
X155064488Y-85657393D01*
X155069955Y-85655537D01*
X155119942Y-85627543D01*
X155249395Y-85555046D01*
X155249399Y-85555043D01*
X155254442Y-85552219D01*
X155325107Y-85493448D01*
X155390270Y-85465269D01*
X155460325Y-85476793D01*
X155513029Y-85524362D01*
X155531648Y-85592874D01*
X155510272Y-85660576D01*
X155504629Y-85668323D01*
X155427028Y-85766760D01*
X155424339Y-85771871D01*
X155424337Y-85771874D01*
X155410844Y-85797521D01*
X155328575Y-85953888D01*
X155265872Y-86155825D01*
X155241019Y-86365806D01*
X155254848Y-86576801D01*
X155256269Y-86582397D01*
X155256270Y-86582402D01*
X155295370Y-86736354D01*
X155306897Y-86781742D01*
X155309314Y-86786985D01*
X155368351Y-86915046D01*
X155395421Y-86973766D01*
X155517457Y-87146443D01*
X155581290Y-87208626D01*
X155650289Y-87275842D01*
X155668917Y-87293989D01*
X155673713Y-87297194D01*
X155673716Y-87297196D01*
X155756476Y-87352494D01*
X155844729Y-87411463D01*
X155850037Y-87413744D01*
X155850038Y-87413744D01*
X156033702Y-87492652D01*
X156033705Y-87492653D01*
X156039005Y-87494930D01*
X156044634Y-87496204D01*
X156044635Y-87496204D01*
X156239602Y-87540321D01*
X156239605Y-87540321D01*
X156245238Y-87541596D01*
X156251009Y-87541823D01*
X156251011Y-87541823D01*
X156313041Y-87544260D01*
X156456522Y-87549898D01*
X156462231Y-87549070D01*
X156462235Y-87549070D01*
X156660067Y-87520385D01*
X156660071Y-87520384D01*
X156665782Y-87519556D01*
X156745039Y-87492652D01*
X156860535Y-87453447D01*
X156860540Y-87453445D01*
X156866007Y-87451589D01*
X156871237Y-87448660D01*
X157045447Y-87351098D01*
X157045451Y-87351095D01*
X157050494Y-87348271D01*
X157213064Y-87213064D01*
X157348271Y-87050494D01*
X157351095Y-87045451D01*
X157351098Y-87045447D01*
X157448765Y-86871050D01*
X157448766Y-86871048D01*
X157451589Y-86866007D01*
X157453445Y-86860540D01*
X157453447Y-86860535D01*
X157517699Y-86671252D01*
X157519556Y-86665782D01*
X157526356Y-86618888D01*
X157549366Y-86460192D01*
X157549366Y-86460190D01*
X157549898Y-86456522D01*
X157551481Y-86396052D01*
X157551165Y-86392611D01*
X163894394Y-86392611D01*
X163912999Y-86561135D01*
X163971266Y-86720356D01*
X163975502Y-86726659D01*
X163975502Y-86726660D01*
X163988574Y-86746113D01*
X164065830Y-86861083D01*
X164071442Y-86866190D01*
X164071445Y-86866193D01*
X164185612Y-86970077D01*
X164185616Y-86970080D01*
X164191233Y-86975191D01*
X164197906Y-86978814D01*
X164197910Y-86978817D01*
X164333558Y-87052467D01*
X164333560Y-87052468D01*
X164340235Y-87056092D01*
X164347584Y-87058020D01*
X164496883Y-87097188D01*
X164496885Y-87097188D01*
X164504233Y-87099116D01*
X164590609Y-87100473D01*
X164666161Y-87101660D01*
X164666164Y-87101660D01*
X164673760Y-87101779D01*
X164681165Y-87100083D01*
X164681166Y-87100083D01*
X164741586Y-87086245D01*
X164839029Y-87063928D01*
X164990498Y-86987747D01*
X165119423Y-86877634D01*
X165218361Y-86739947D01*
X165228624Y-86714418D01*
X165278766Y-86589687D01*
X165278767Y-86589685D01*
X165281601Y-86582634D01*
X165301071Y-86445828D01*
X165304909Y-86418862D01*
X165304909Y-86418859D01*
X165305490Y-86414778D01*
X165305645Y-86400000D01*
X165303840Y-86385080D01*
X165286188Y-86239220D01*
X165285276Y-86231680D01*
X165225345Y-86073077D01*
X165214997Y-86058020D01*
X165133614Y-85939608D01*
X165133613Y-85939607D01*
X165129312Y-85933349D01*
X165125277Y-85929754D01*
X175344967Y-85929754D01*
X175358796Y-86140749D01*
X175360217Y-86146345D01*
X175360218Y-86146350D01*
X175409424Y-86340095D01*
X175410845Y-86345690D01*
X175499369Y-86537714D01*
X175621405Y-86710391D01*
X175772865Y-86857937D01*
X175777661Y-86861142D01*
X175777664Y-86861144D01*
X175920936Y-86956875D01*
X175948677Y-86975411D01*
X175953985Y-86977692D01*
X175953986Y-86977692D01*
X176137650Y-87056600D01*
X176137653Y-87056601D01*
X176142953Y-87058878D01*
X176148582Y-87060152D01*
X176148583Y-87060152D01*
X176172761Y-87065623D01*
X176321305Y-87099235D01*
X176327368Y-87100607D01*
X176389395Y-87135150D01*
X176422899Y-87197743D01*
X176417245Y-87268514D01*
X176374226Y-87324994D01*
X176307501Y-87349249D01*
X176299560Y-87349500D01*
X175605354Y-87349500D01*
X175601650Y-87349941D01*
X175601647Y-87349941D01*
X175594254Y-87350821D01*
X175579154Y-87352618D01*
X175570514Y-87356456D01*
X175570513Y-87356456D01*
X175489094Y-87392621D01*
X175476847Y-87398061D01*
X175468628Y-87406294D01*
X175468627Y-87406295D01*
X175463468Y-87411463D01*
X175397759Y-87477287D01*
X175393056Y-87487924D01*
X175393055Y-87487926D01*
X175368394Y-87543709D01*
X175352494Y-87579673D01*
X175349500Y-87605354D01*
X175349500Y-89394646D01*
X175352618Y-89420846D01*
X175356456Y-89429486D01*
X175356456Y-89429487D01*
X175377838Y-89477625D01*
X175398061Y-89523153D01*
X175477287Y-89602241D01*
X175487924Y-89606944D01*
X175487926Y-89606945D01*
X175547462Y-89633265D01*
X175579673Y-89647506D01*
X175605354Y-89650500D01*
X177394646Y-89650500D01*
X177398350Y-89650059D01*
X177398353Y-89650059D01*
X177405746Y-89649179D01*
X177420846Y-89647382D01*
X177523153Y-89601939D01*
X177538994Y-89586071D01*
X177594023Y-89530945D01*
X177602241Y-89522713D01*
X177619278Y-89484178D01*
X177643675Y-89428992D01*
X177647506Y-89420327D01*
X177650500Y-89394646D01*
X177650500Y-87605354D01*
X177647382Y-87579154D01*
X177636286Y-87554172D01*
X177606663Y-87487482D01*
X177601939Y-87476847D01*
X177589551Y-87464480D01*
X177530945Y-87405977D01*
X177522713Y-87397759D01*
X177512076Y-87393056D01*
X177512074Y-87393055D01*
X177452538Y-87366735D01*
X177420327Y-87352494D01*
X177394646Y-87349500D01*
X176682291Y-87349500D01*
X176614170Y-87329498D01*
X176567677Y-87275842D01*
X176557573Y-87205568D01*
X176587067Y-87140988D01*
X176646793Y-87102604D01*
X176664211Y-87098804D01*
X176764013Y-87084333D01*
X176764014Y-87084333D01*
X176769730Y-87083504D01*
X176849977Y-87056264D01*
X176964483Y-87017395D01*
X176964488Y-87017393D01*
X176969955Y-87015537D01*
X176983078Y-87008188D01*
X177149395Y-86915046D01*
X177149399Y-86915043D01*
X177154442Y-86912219D01*
X177317012Y-86777012D01*
X177452219Y-86614442D01*
X177455043Y-86609399D01*
X177455046Y-86609395D01*
X177552713Y-86434998D01*
X177552714Y-86434996D01*
X177555537Y-86429955D01*
X177557393Y-86424488D01*
X177557395Y-86424483D01*
X177604173Y-86286676D01*
X177623504Y-86229730D01*
X177629919Y-86185492D01*
X177653314Y-86024140D01*
X177653314Y-86024138D01*
X177653846Y-86020470D01*
X177655429Y-85960000D01*
X177636081Y-85749440D01*
X177633243Y-85739375D01*
X177601703Y-85627543D01*
X177578686Y-85545931D01*
X177568050Y-85524362D01*
X177487719Y-85361469D01*
X177485165Y-85356290D01*
X177397745Y-85239220D01*
X177362104Y-85191491D01*
X177362103Y-85191490D01*
X177358651Y-85186867D01*
X177228784Y-85066819D01*
X177207622Y-85047257D01*
X177207620Y-85047255D01*
X177203381Y-85043337D01*
X177120326Y-84990933D01*
X177029434Y-84933584D01*
X177029433Y-84933584D01*
X177024554Y-84930505D01*
X176828160Y-84852152D01*
X176822503Y-84851027D01*
X176822497Y-84851025D01*
X176626442Y-84812028D01*
X176626440Y-84812028D01*
X176620775Y-84810901D01*
X176615000Y-84810825D01*
X176614996Y-84810825D01*
X176508976Y-84809437D01*
X176409346Y-84808133D01*
X176403649Y-84809112D01*
X176403648Y-84809112D01*
X176206650Y-84842962D01*
X176206649Y-84842962D01*
X176200953Y-84843941D01*
X176002575Y-84917127D01*
X175997614Y-84920079D01*
X175997613Y-84920079D01*
X175980089Y-84930505D01*
X175820856Y-85025238D01*
X175661881Y-85164655D01*
X175530976Y-85330708D01*
X175528287Y-85335819D01*
X175528285Y-85335822D01*
X175485569Y-85417012D01*
X175432523Y-85517836D01*
X175369820Y-85719773D01*
X175344967Y-85929754D01*
X165125277Y-85929754D01*
X165123119Y-85927831D01*
X165008392Y-85825612D01*
X165008388Y-85825610D01*
X165002721Y-85820560D01*
X164852881Y-85741224D01*
X164688441Y-85699919D01*
X164680843Y-85699879D01*
X164680841Y-85699879D01*
X164603668Y-85699475D01*
X164518895Y-85699031D01*
X164511508Y-85700805D01*
X164511504Y-85700805D01*
X164377824Y-85732900D01*
X164354032Y-85738612D01*
X164347288Y-85742093D01*
X164347285Y-85742094D01*
X164249932Y-85792342D01*
X164203369Y-85816375D01*
X164075604Y-85927831D01*
X164057291Y-85953888D01*
X163988009Y-86052467D01*
X163978113Y-86066547D01*
X163916524Y-86224513D01*
X163915532Y-86232046D01*
X163915532Y-86232047D01*
X163897164Y-86371572D01*
X163894394Y-86392611D01*
X157551165Y-86392611D01*
X157532133Y-86185492D01*
X157474738Y-85981983D01*
X157463898Y-85960000D01*
X157383771Y-85797521D01*
X157381217Y-85792342D01*
X157254703Y-85622919D01*
X157135490Y-85512720D01*
X157103674Y-85483309D01*
X157103672Y-85483307D01*
X157099433Y-85479389D01*
X156920606Y-85366557D01*
X156724212Y-85288204D01*
X156718555Y-85287079D01*
X156718549Y-85287077D01*
X156522494Y-85248080D01*
X156522492Y-85248080D01*
X156516827Y-85246953D01*
X156511052Y-85246877D01*
X156511048Y-85246877D01*
X156405028Y-85245489D01*
X156305398Y-85244185D01*
X156299701Y-85245164D01*
X156299700Y-85245164D01*
X156102702Y-85279014D01*
X156102701Y-85279014D01*
X156097005Y-85279993D01*
X155898627Y-85353179D01*
X155893666Y-85356131D01*
X155893665Y-85356131D01*
X155815104Y-85402870D01*
X155716908Y-85461290D01*
X155712568Y-85465096D01*
X155712564Y-85465099D01*
X155676353Y-85496855D01*
X155611949Y-85526731D01*
X155541616Y-85517044D01*
X155487685Y-85470871D01*
X155467279Y-85402870D01*
X155486876Y-85334632D01*
X155496391Y-85321568D01*
X155552219Y-85254442D01*
X155555043Y-85249399D01*
X155555046Y-85249395D01*
X155652713Y-85074998D01*
X155652714Y-85074996D01*
X155655537Y-85069955D01*
X155657393Y-85064488D01*
X155657395Y-85064483D01*
X155712665Y-84901660D01*
X155723504Y-84869730D01*
X155724346Y-84863928D01*
X155753314Y-84664140D01*
X155753314Y-84664138D01*
X155753846Y-84660470D01*
X155755429Y-84600000D01*
X155736081Y-84389440D01*
X155730110Y-84368266D01*
X155715915Y-84317937D01*
X155680570Y-84192611D01*
X163894394Y-84192611D01*
X163912999Y-84361135D01*
X163971266Y-84520356D01*
X163975502Y-84526659D01*
X163975502Y-84526660D01*
X163985573Y-84541647D01*
X164065830Y-84661083D01*
X164071442Y-84666190D01*
X164071445Y-84666193D01*
X164185612Y-84770077D01*
X164185616Y-84770080D01*
X164191233Y-84775191D01*
X164197906Y-84778814D01*
X164197910Y-84778817D01*
X164333558Y-84852467D01*
X164333560Y-84852468D01*
X164340235Y-84856092D01*
X164347584Y-84858020D01*
X164496883Y-84897188D01*
X164496885Y-84897188D01*
X164504233Y-84899116D01*
X164590609Y-84900473D01*
X164666161Y-84901660D01*
X164666164Y-84901660D01*
X164673760Y-84901779D01*
X164681165Y-84900083D01*
X164681166Y-84900083D01*
X164741586Y-84886245D01*
X164839029Y-84863928D01*
X164990498Y-84787747D01*
X165091292Y-84701660D01*
X165113651Y-84682564D01*
X165113652Y-84682563D01*
X165119423Y-84677634D01*
X165218361Y-84539947D01*
X165227747Y-84516600D01*
X165278766Y-84389687D01*
X165278767Y-84389685D01*
X165281601Y-84382634D01*
X165293499Y-84299031D01*
X165304909Y-84218862D01*
X165304909Y-84218859D01*
X165305490Y-84214778D01*
X165305645Y-84200000D01*
X165303943Y-84185931D01*
X165290836Y-84077625D01*
X165285276Y-84031680D01*
X165225345Y-83873077D01*
X165214063Y-83856662D01*
X165133614Y-83739608D01*
X165133613Y-83739607D01*
X165129312Y-83733349D01*
X165117514Y-83722837D01*
X165008392Y-83625612D01*
X165008388Y-83625610D01*
X165002721Y-83620560D01*
X164976756Y-83606812D01*
X164935080Y-83584746D01*
X164852881Y-83541224D01*
X164688441Y-83499919D01*
X164680843Y-83499879D01*
X164680841Y-83499879D01*
X164603668Y-83499475D01*
X164518895Y-83499031D01*
X164511508Y-83500805D01*
X164511504Y-83500805D01*
X164398937Y-83527831D01*
X164354032Y-83538612D01*
X164347288Y-83542093D01*
X164347285Y-83542094D01*
X164292240Y-83570505D01*
X164203369Y-83616375D01*
X164075604Y-83727831D01*
X164053702Y-83758995D01*
X163983076Y-83859486D01*
X163978113Y-83866547D01*
X163916524Y-84024513D01*
X163915532Y-84032046D01*
X163915532Y-84032047D01*
X163895956Y-84180749D01*
X163894394Y-84192611D01*
X155680570Y-84192611D01*
X155678686Y-84185931D01*
X155673009Y-84174418D01*
X155587719Y-84001469D01*
X155585165Y-83996290D01*
X155477767Y-83852467D01*
X155462104Y-83831491D01*
X155462103Y-83831490D01*
X155458651Y-83826867D01*
X155346112Y-83722837D01*
X155307622Y-83687257D01*
X155307620Y-83687255D01*
X155303381Y-83683337D01*
X155298498Y-83680256D01*
X155129434Y-83573584D01*
X155129433Y-83573584D01*
X155124554Y-83570505D01*
X154928160Y-83492152D01*
X154922503Y-83491027D01*
X154922497Y-83491025D01*
X154726442Y-83452028D01*
X154726440Y-83452028D01*
X154720775Y-83450901D01*
X154715000Y-83450825D01*
X154714996Y-83450825D01*
X154608976Y-83449437D01*
X154509346Y-83448133D01*
X154503649Y-83449112D01*
X154503648Y-83449112D01*
X154306650Y-83482962D01*
X154306649Y-83482962D01*
X154300953Y-83483941D01*
X154102575Y-83557127D01*
X154097614Y-83560079D01*
X154097613Y-83560079D01*
X153929106Y-83660330D01*
X153920856Y-83665238D01*
X153886691Y-83695200D01*
X153880309Y-83700797D01*
X153815904Y-83730673D01*
X153745571Y-83720986D01*
X153691641Y-83674813D01*
X153671234Y-83606812D01*
X153690831Y-83538574D01*
X153700354Y-83525501D01*
X153756168Y-83458391D01*
X153758992Y-83453348D01*
X153758995Y-83453344D01*
X153856662Y-83278947D01*
X153856663Y-83278945D01*
X153859486Y-83273904D01*
X153861342Y-83268437D01*
X153861344Y-83268432D01*
X153925596Y-83079149D01*
X153927453Y-83073679D01*
X153932450Y-83039220D01*
X153957263Y-82868089D01*
X153957263Y-82868087D01*
X153957795Y-82864419D01*
X153959378Y-82803949D01*
X153940030Y-82593389D01*
X153928805Y-82553586D01*
X153913430Y-82499071D01*
X153882635Y-82389880D01*
X153871502Y-82367303D01*
X153791668Y-82205418D01*
X153789114Y-82200239D01*
X153675593Y-82048216D01*
X153666053Y-82035440D01*
X153666052Y-82035439D01*
X153662600Y-82030816D01*
X153507330Y-81887286D01*
X153395945Y-81817007D01*
X153333383Y-81777533D01*
X153333382Y-81777533D01*
X153328503Y-81774454D01*
X153132109Y-81696101D01*
X153126452Y-81694976D01*
X153126446Y-81694974D01*
X152930391Y-81655977D01*
X152930389Y-81655977D01*
X152924724Y-81654850D01*
X152918949Y-81654774D01*
X152918945Y-81654774D01*
X152812925Y-81653386D01*
X152713295Y-81652082D01*
X152707598Y-81653061D01*
X152707597Y-81653061D01*
X152510599Y-81686911D01*
X152510598Y-81686911D01*
X152504902Y-81687890D01*
X152306524Y-81761076D01*
X152301563Y-81764028D01*
X152301562Y-81764028D01*
X152206540Y-81820560D01*
X152124805Y-81869187D01*
X152123539Y-81867059D01*
X152066681Y-81887347D01*
X151997529Y-81871268D01*
X151948048Y-81820355D01*
X151933948Y-81750772D01*
X151959705Y-81684613D01*
X151970391Y-81672458D01*
X152454035Y-81188814D01*
X152456342Y-81185884D01*
X152456347Y-81185878D01*
X152464509Y-81175510D01*
X152470356Y-81168083D01*
X152475314Y-81155200D01*
X152506388Y-81074462D01*
X152506388Y-81074460D01*
X152510565Y-81063608D01*
X152510526Y-81018439D01*
X152510482Y-80969291D01*
X152510467Y-80951663D01*
X152470077Y-80847258D01*
X152463718Y-80839220D01*
X152456312Y-80829860D01*
X152454035Y-80826982D01*
X151188814Y-79561761D01*
X151185884Y-79559454D01*
X151185878Y-79559449D01*
X151175510Y-79551287D01*
X151168083Y-79545440D01*
X151159262Y-79542045D01*
X151074462Y-79509408D01*
X151074460Y-79509408D01*
X151063608Y-79505231D01*
X151051978Y-79505241D01*
X151051977Y-79505241D01*
X151007849Y-79505280D01*
X150951663Y-79505329D01*
X150847258Y-79545719D01*
X150826982Y-79561761D01*
X149561761Y-80826982D01*
X149559454Y-80829912D01*
X149559449Y-80829918D01*
X149558062Y-80831680D01*
X149545440Y-80847713D01*
X149542045Y-80856534D01*
X149511168Y-80936763D01*
X149505231Y-80952188D01*
X141548955Y-80952188D01*
X141536330Y-80856291D01*
X141480861Y-80722375D01*
X141392621Y-80607379D01*
X141277625Y-80519139D01*
X141264393Y-80513658D01*
X141162603Y-80471496D01*
X141143709Y-80463670D01*
X141000000Y-80444750D01*
X140856291Y-80463670D01*
X140837397Y-80471496D01*
X140735608Y-80513658D01*
X140722375Y-80519139D01*
X140607379Y-80607379D01*
X140519139Y-80722375D01*
X140515979Y-80730004D01*
X140466831Y-80848660D01*
X140463670Y-80856291D01*
X140463071Y-80860841D01*
X140427005Y-80920012D01*
X140363145Y-80951034D01*
X140325803Y-80951701D01*
X140299878Y-80948288D01*
X140299877Y-80948288D01*
X140291689Y-80947210D01*
X140147980Y-80966130D01*
X140014064Y-81021599D01*
X139899068Y-81109839D01*
X139810828Y-81224835D01*
X139807668Y-81232464D01*
X139760594Y-81346113D01*
X139755359Y-81358751D01*
X139754281Y-81366938D01*
X139752443Y-81373799D01*
X139715492Y-81434422D01*
X139663718Y-81462692D01*
X139656291Y-81463670D01*
X139522375Y-81519139D01*
X139407379Y-81607379D01*
X139319139Y-81722375D01*
X139263670Y-81856291D01*
X139244750Y-82000000D01*
X135775120Y-82000000D01*
X135733614Y-81939608D01*
X135733613Y-81939607D01*
X135729312Y-81933349D01*
X135717514Y-81922837D01*
X135608392Y-81825612D01*
X135608388Y-81825610D01*
X135602721Y-81820560D01*
X135452881Y-81741224D01*
X135288441Y-81699919D01*
X135280843Y-81699879D01*
X135280841Y-81699879D01*
X135203668Y-81699475D01*
X135118895Y-81699031D01*
X135111508Y-81700805D01*
X135111504Y-81700805D01*
X135021662Y-81722375D01*
X134954032Y-81738612D01*
X134947288Y-81742093D01*
X134947285Y-81742094D01*
X134860983Y-81786638D01*
X134803369Y-81816375D01*
X134797647Y-81821367D01*
X134797645Y-81821368D01*
X134742829Y-81869187D01*
X134675604Y-81927831D01*
X134667327Y-81939608D01*
X134590653Y-82048705D01*
X134578113Y-82066547D01*
X134516524Y-82224513D01*
X134515532Y-82232046D01*
X134515532Y-82232047D01*
X134495436Y-82384698D01*
X134494394Y-82392611D01*
X108727891Y-82392611D01*
X108724554Y-82390505D01*
X108528160Y-82312152D01*
X108522503Y-82311027D01*
X108522497Y-82311025D01*
X108325234Y-82271788D01*
X108262324Y-82238881D01*
X108227192Y-82177186D01*
X108230992Y-82106291D01*
X108272517Y-82048705D01*
X108331734Y-82023513D01*
X108464015Y-82004333D01*
X108464019Y-82004332D01*
X108469730Y-82003504D01*
X108542276Y-81978878D01*
X108664483Y-81937395D01*
X108664488Y-81937393D01*
X108669955Y-81935537D01*
X108683715Y-81927831D01*
X108849395Y-81835046D01*
X108849399Y-81835043D01*
X108854442Y-81832219D01*
X109017012Y-81697012D01*
X109152219Y-81534442D01*
X109155043Y-81529399D01*
X109155046Y-81529395D01*
X109252713Y-81354998D01*
X109252714Y-81354996D01*
X109255537Y-81349955D01*
X109257393Y-81344488D01*
X109257395Y-81344483D01*
X109314889Y-81175108D01*
X109323504Y-81149730D01*
X109325565Y-81135520D01*
X109346286Y-80992611D01*
X136094394Y-80992611D01*
X136112999Y-81161135D01*
X136133912Y-81218282D01*
X136158027Y-81284178D01*
X136171266Y-81320356D01*
X136175502Y-81326659D01*
X136175502Y-81326660D01*
X136187479Y-81344483D01*
X136265830Y-81461083D01*
X136271442Y-81466190D01*
X136271445Y-81466193D01*
X136385612Y-81570077D01*
X136385616Y-81570080D01*
X136391233Y-81575191D01*
X136397906Y-81578814D01*
X136397910Y-81578817D01*
X136533558Y-81652467D01*
X136533560Y-81652468D01*
X136540235Y-81656092D01*
X136547584Y-81658020D01*
X136696883Y-81697188D01*
X136696885Y-81697188D01*
X136704233Y-81699116D01*
X136790609Y-81700473D01*
X136866161Y-81701660D01*
X136866164Y-81701660D01*
X136873760Y-81701779D01*
X136881165Y-81700083D01*
X136881166Y-81700083D01*
X137001784Y-81672458D01*
X137039029Y-81663928D01*
X137190498Y-81587747D01*
X137319423Y-81477634D01*
X137418361Y-81339947D01*
X137426237Y-81320356D01*
X137478766Y-81189687D01*
X137478767Y-81189685D01*
X137481601Y-81182634D01*
X137498541Y-81063608D01*
X137504909Y-81018862D01*
X137504909Y-81018859D01*
X137505490Y-81014778D01*
X137505645Y-81000000D01*
X137503840Y-80985080D01*
X137495965Y-80920012D01*
X137485276Y-80831680D01*
X137425345Y-80673077D01*
X137398664Y-80634256D01*
X137333614Y-80539608D01*
X137333613Y-80539607D01*
X137329312Y-80533349D01*
X137317514Y-80522837D01*
X137208392Y-80425612D01*
X137208388Y-80425610D01*
X137202721Y-80420560D01*
X137052881Y-80341224D01*
X136888441Y-80299919D01*
X136880843Y-80299879D01*
X136880841Y-80299879D01*
X136803668Y-80299475D01*
X136718895Y-80299031D01*
X136711508Y-80300805D01*
X136711504Y-80300805D01*
X136568162Y-80335220D01*
X136554032Y-80338612D01*
X136547288Y-80342093D01*
X136547285Y-80342094D01*
X136410117Y-80412892D01*
X136403369Y-80416375D01*
X136397647Y-80421367D01*
X136397645Y-80421368D01*
X136352502Y-80460749D01*
X136275604Y-80527831D01*
X136271237Y-80534045D01*
X136188058Y-80652397D01*
X136178113Y-80666547D01*
X136116524Y-80824513D01*
X136115532Y-80832046D01*
X136115532Y-80832047D01*
X136099716Y-80952188D01*
X136094394Y-80992611D01*
X109346286Y-80992611D01*
X109353314Y-80944140D01*
X109353314Y-80944138D01*
X109353846Y-80940470D01*
X109355429Y-80880000D01*
X109336081Y-80669440D01*
X109331275Y-80652397D01*
X109308398Y-80571282D01*
X109278686Y-80465931D01*
X109275226Y-80458913D01*
X109187719Y-80281469D01*
X109185165Y-80276290D01*
X109058651Y-80106867D01*
X108958286Y-80014090D01*
X108907622Y-79967257D01*
X108907620Y-79967255D01*
X108903381Y-79963337D01*
X108850552Y-79930004D01*
X108729434Y-79853584D01*
X108729433Y-79853584D01*
X108724554Y-79850505D01*
X108528160Y-79772152D01*
X108522503Y-79771027D01*
X108522497Y-79771025D01*
X108325234Y-79731788D01*
X108262324Y-79698881D01*
X108227192Y-79637186D01*
X108230736Y-79571069D01*
X118495164Y-79571069D01*
X118508392Y-79772894D01*
X118509815Y-79778496D01*
X118555976Y-79960256D01*
X118558178Y-79968928D01*
X118642856Y-80152607D01*
X118646189Y-80157323D01*
X118746338Y-80299031D01*
X118759588Y-80317780D01*
X118763730Y-80321815D01*
X118820454Y-80377073D01*
X118904466Y-80458913D01*
X119072637Y-80571282D01*
X119077940Y-80573560D01*
X119077943Y-80573562D01*
X119219213Y-80634256D01*
X119258470Y-80651122D01*
X119455740Y-80695760D01*
X119461509Y-80695987D01*
X119461512Y-80695987D01*
X119537683Y-80698979D01*
X119657842Y-80703700D01*
X119744132Y-80691189D01*
X119852286Y-80675508D01*
X119852291Y-80675507D01*
X119858007Y-80674678D01*
X119863479Y-80672820D01*
X119863481Y-80672820D01*
X120044067Y-80611519D01*
X120044069Y-80611518D01*
X120049531Y-80609664D01*
X120226001Y-80510837D01*
X120288433Y-80458913D01*
X120377073Y-80385191D01*
X120381505Y-80381505D01*
X120510837Y-80226001D01*
X120525398Y-80200000D01*
X144844750Y-80200000D01*
X144863670Y-80343709D01*
X144919139Y-80477625D01*
X145007379Y-80592621D01*
X145122375Y-80680861D01*
X145256291Y-80736330D01*
X145400000Y-80755250D01*
X145543709Y-80736330D01*
X145677625Y-80680861D01*
X145792621Y-80592621D01*
X145880861Y-80477625D01*
X145936330Y-80343709D01*
X145955250Y-80200000D01*
X145936330Y-80056291D01*
X145880861Y-79922375D01*
X145792621Y-79807379D01*
X145677625Y-79719139D01*
X145543709Y-79663670D01*
X145400000Y-79644750D01*
X145256291Y-79663670D01*
X145122375Y-79719139D01*
X145007379Y-79807379D01*
X144919139Y-79922375D01*
X144863670Y-80056291D01*
X144844750Y-80200000D01*
X120525398Y-80200000D01*
X120609664Y-80049531D01*
X120637593Y-79967257D01*
X120672820Y-79863481D01*
X120672820Y-79863479D01*
X120674678Y-79858007D01*
X120675507Y-79852291D01*
X120675508Y-79852286D01*
X120694083Y-79724168D01*
X120703700Y-79657842D01*
X120705215Y-79600000D01*
X120686708Y-79398591D01*
X120631807Y-79203926D01*
X120542351Y-79022527D01*
X120525530Y-79000000D01*
X142244750Y-79000000D01*
X142263670Y-79143709D01*
X142319139Y-79277625D01*
X142407379Y-79392621D01*
X142522375Y-79480861D01*
X142656291Y-79536330D01*
X142800000Y-79555250D01*
X142943709Y-79536330D01*
X143077625Y-79480861D01*
X143192621Y-79392621D01*
X143280861Y-79277625D01*
X143336330Y-79143709D01*
X143355250Y-79000000D01*
X143336330Y-78856291D01*
X143280861Y-78722375D01*
X143192621Y-78607379D01*
X143077625Y-78519139D01*
X142943709Y-78463670D01*
X142800000Y-78444750D01*
X142656291Y-78463670D01*
X142522375Y-78519139D01*
X142407379Y-78607379D01*
X142319139Y-78722375D01*
X142263670Y-78856291D01*
X142244750Y-79000000D01*
X120525530Y-79000000D01*
X120524079Y-78998057D01*
X120424788Y-78865091D01*
X120424787Y-78865090D01*
X120421335Y-78860467D01*
X120417099Y-78856551D01*
X120277053Y-78727094D01*
X120277051Y-78727092D01*
X120272812Y-78723174D01*
X120245374Y-78705862D01*
X120106637Y-78618325D01*
X120101757Y-78615246D01*
X119913898Y-78540298D01*
X119715526Y-78500839D01*
X119709752Y-78500763D01*
X119709748Y-78500763D01*
X119607257Y-78499422D01*
X119513286Y-78498192D01*
X119507589Y-78499171D01*
X119507588Y-78499171D01*
X119319646Y-78531465D01*
X119319645Y-78531465D01*
X119313949Y-78532444D01*
X119124193Y-78602449D01*
X118950371Y-78705862D01*
X118798305Y-78839220D01*
X118673089Y-78998057D01*
X118578914Y-79177053D01*
X118518937Y-79370213D01*
X118495164Y-79571069D01*
X108230736Y-79571069D01*
X108230992Y-79566291D01*
X108272517Y-79508705D01*
X108331734Y-79483513D01*
X108464015Y-79464333D01*
X108464019Y-79464332D01*
X108469730Y-79463504D01*
X108548987Y-79436600D01*
X108664483Y-79397395D01*
X108664488Y-79397393D01*
X108669955Y-79395537D01*
X108704930Y-79375950D01*
X108849395Y-79295046D01*
X108849399Y-79295043D01*
X108854442Y-79292219D01*
X109017012Y-79157012D01*
X109152219Y-78994442D01*
X109155043Y-78989399D01*
X109155046Y-78989395D01*
X109252713Y-78814998D01*
X109252714Y-78814996D01*
X109255537Y-78809955D01*
X109257393Y-78804488D01*
X109257395Y-78804483D01*
X109320586Y-78618325D01*
X109323504Y-78609730D01*
X109324850Y-78600451D01*
X109353314Y-78404140D01*
X109353314Y-78404138D01*
X109353846Y-78400470D01*
X109355429Y-78340000D01*
X109336081Y-78129440D01*
X109278686Y-77925931D01*
X109267553Y-77903354D01*
X109187719Y-77741469D01*
X109185165Y-77736290D01*
X109058651Y-77566867D01*
X108903381Y-77423337D01*
X108724554Y-77310505D01*
X108528160Y-77232152D01*
X108522503Y-77231027D01*
X108522497Y-77231025D01*
X108366916Y-77200079D01*
X108304006Y-77167172D01*
X108268874Y-77105477D01*
X108272674Y-77034582D01*
X108314199Y-76976996D01*
X108380266Y-76951002D01*
X108391497Y-76950500D01*
X109094646Y-76950500D01*
X109098350Y-76950059D01*
X109098353Y-76950059D01*
X109105746Y-76949179D01*
X109120846Y-76947382D01*
X109223153Y-76901939D01*
X109302241Y-76822713D01*
X109347506Y-76720327D01*
X109350500Y-76694646D01*
X109350500Y-74905354D01*
X109347382Y-74879154D01*
X109301939Y-74776847D01*
X109222713Y-74697759D01*
X109212076Y-74693056D01*
X109212074Y-74693055D01*
X109152538Y-74666735D01*
X109120327Y-74652494D01*
X109094646Y-74649500D01*
X107305354Y-74649500D01*
X107301650Y-74649941D01*
X107301647Y-74649941D01*
X107294254Y-74650821D01*
X107279154Y-74652618D01*
X107176847Y-74698061D01*
X107097759Y-74777287D01*
X107052494Y-74879673D01*
X107049500Y-74905354D01*
X107049500Y-76694646D01*
X107052618Y-76720846D01*
X107098061Y-76823153D01*
X107177287Y-76902241D01*
X107187924Y-76906944D01*
X107187926Y-76906945D01*
X107247462Y-76933265D01*
X107279673Y-76947506D01*
X107305354Y-76950500D01*
X108014988Y-76950500D01*
X108083109Y-76970502D01*
X108129602Y-77024158D01*
X108139706Y-77094432D01*
X108110212Y-77159012D01*
X108050486Y-77197396D01*
X108036326Y-77200680D01*
X107906650Y-77222962D01*
X107906649Y-77222962D01*
X107900953Y-77223941D01*
X107702575Y-77297127D01*
X107697614Y-77300079D01*
X107697613Y-77300079D01*
X107680089Y-77310505D01*
X107520856Y-77405238D01*
X107361881Y-77544655D01*
X107230976Y-77710708D01*
X107228287Y-77715819D01*
X107228285Y-77715822D01*
X107214792Y-77741469D01*
X107132523Y-77897836D01*
X107069820Y-78099773D01*
X107044967Y-78309754D01*
X107058796Y-78520749D01*
X107060217Y-78526345D01*
X107060218Y-78526350D01*
X107109424Y-78720095D01*
X107110845Y-78725690D01*
X107113262Y-78730933D01*
X107163183Y-78839220D01*
X107199369Y-78917714D01*
X107321405Y-79090391D01*
X107472865Y-79237937D01*
X107477661Y-79241142D01*
X107477664Y-79241144D01*
X107620936Y-79336875D01*
X107648677Y-79355411D01*
X107653985Y-79357692D01*
X107653986Y-79357692D01*
X107837650Y-79436600D01*
X107837653Y-79436601D01*
X107842953Y-79438878D01*
X107848582Y-79440152D01*
X107848583Y-79440152D01*
X108043550Y-79484269D01*
X108043553Y-79484269D01*
X108049186Y-79485544D01*
X108054958Y-79485771D01*
X108060687Y-79486525D01*
X108060327Y-79489257D01*
X108116604Y-79508216D01*
X108160950Y-79563659D01*
X108168282Y-79634276D01*
X108136271Y-79697647D01*
X108075081Y-79733651D01*
X108065704Y-79735632D01*
X107906650Y-79762962D01*
X107906649Y-79762962D01*
X107900953Y-79763941D01*
X107702575Y-79837127D01*
X107697614Y-79840079D01*
X107697613Y-79840079D01*
X107680089Y-79850505D01*
X107520856Y-79945238D01*
X107361881Y-80084655D01*
X107230976Y-80250708D01*
X107228287Y-80255819D01*
X107228285Y-80255822D01*
X107204111Y-80301770D01*
X107132523Y-80437836D01*
X107069820Y-80639773D01*
X107044967Y-80849754D01*
X107058796Y-81060749D01*
X107060217Y-81066345D01*
X107060218Y-81066350D01*
X107109424Y-81260095D01*
X107110845Y-81265690D01*
X107199369Y-81457714D01*
X107321405Y-81630391D01*
X107345434Y-81653799D01*
X107467239Y-81772456D01*
X107472865Y-81777937D01*
X107477661Y-81781142D01*
X107477664Y-81781144D01*
X107620936Y-81876875D01*
X107648677Y-81895411D01*
X107653985Y-81897692D01*
X107653986Y-81897692D01*
X107837650Y-81976600D01*
X107837653Y-81976601D01*
X107842953Y-81978878D01*
X107848582Y-81980152D01*
X107848583Y-81980152D01*
X108043550Y-82024269D01*
X108043553Y-82024269D01*
X108049186Y-82025544D01*
X108054958Y-82025771D01*
X108060687Y-82026525D01*
X108060327Y-82029257D01*
X108116604Y-82048216D01*
X108160950Y-82103659D01*
X108168282Y-82174276D01*
X108136271Y-82237647D01*
X108075081Y-82273651D01*
X108065704Y-82275632D01*
X107906650Y-82302962D01*
X107906649Y-82302962D01*
X107900953Y-82303941D01*
X107702575Y-82377127D01*
X107697614Y-82380079D01*
X107697613Y-82380079D01*
X107540593Y-82473496D01*
X107520856Y-82485238D01*
X107361881Y-82624655D01*
X107230976Y-82790708D01*
X107228287Y-82795819D01*
X107228285Y-82795822D01*
X107214792Y-82821469D01*
X107132523Y-82977836D01*
X107069820Y-83179773D01*
X107044967Y-83389754D01*
X107058796Y-83600749D01*
X107060217Y-83606345D01*
X107060218Y-83606350D01*
X107107320Y-83791812D01*
X107110845Y-83805690D01*
X107113262Y-83810933D01*
X107177990Y-83951340D01*
X107199369Y-83997714D01*
X107321405Y-84170391D01*
X107371162Y-84218862D01*
X107455279Y-84300805D01*
X107472865Y-84317937D01*
X107477661Y-84321142D01*
X107477664Y-84321144D01*
X107614975Y-84412892D01*
X107648677Y-84435411D01*
X107653985Y-84437692D01*
X107653986Y-84437692D01*
X107837650Y-84516600D01*
X107837653Y-84516601D01*
X107842953Y-84518878D01*
X107848582Y-84520152D01*
X107848583Y-84520152D01*
X108043550Y-84564269D01*
X108043553Y-84564269D01*
X108049186Y-84565544D01*
X108054958Y-84565771D01*
X108060687Y-84566525D01*
X108060327Y-84569257D01*
X108116604Y-84588216D01*
X108160950Y-84643659D01*
X108168282Y-84714276D01*
X108136271Y-84777647D01*
X108075081Y-84813651D01*
X108065704Y-84815632D01*
X107906650Y-84842962D01*
X107906649Y-84842962D01*
X107900953Y-84843941D01*
X107702575Y-84917127D01*
X107697614Y-84920079D01*
X107697613Y-84920079D01*
X107680089Y-84930505D01*
X107520856Y-85025238D01*
X107361881Y-85164655D01*
X107230976Y-85330708D01*
X107228287Y-85335819D01*
X107228285Y-85335822D01*
X107185569Y-85417012D01*
X107132523Y-85517836D01*
X107069820Y-85719773D01*
X107044967Y-85929754D01*
X103300000Y-85929754D01*
X103300000Y-71588753D01*
X139194514Y-71588753D01*
X139195201Y-71595760D01*
X139195201Y-71595763D01*
X139196005Y-71603963D01*
X139212039Y-71767486D01*
X139214262Y-71774168D01*
X139214262Y-71774169D01*
X139222967Y-71800336D01*
X139268726Y-71937896D01*
X139361759Y-72091512D01*
X139486514Y-72220699D01*
X139636789Y-72319036D01*
X139805116Y-72381636D01*
X139812097Y-72382567D01*
X139812099Y-72382568D01*
X139976149Y-72404457D01*
X139976153Y-72404457D01*
X139983130Y-72405388D01*
X139990142Y-72404750D01*
X139990146Y-72404750D01*
X140154960Y-72389751D01*
X140154961Y-72389751D01*
X140161981Y-72389112D01*
X140332782Y-72333615D01*
X140363714Y-72315176D01*
X140480992Y-72245265D01*
X140480994Y-72245264D01*
X140487044Y-72241657D01*
X140617099Y-72117807D01*
X140634570Y-72091512D01*
X140712582Y-71974093D01*
X140716483Y-71968222D01*
X140731168Y-71929564D01*
X140777757Y-71806919D01*
X140777758Y-71806914D01*
X140780257Y-71800336D01*
X140805251Y-71622493D01*
X140805565Y-71600000D01*
X140785546Y-71421528D01*
X140779427Y-71403955D01*
X140728803Y-71258584D01*
X140726485Y-71251927D01*
X140631316Y-71099625D01*
X140567771Y-71035635D01*
X140509733Y-70977190D01*
X140509729Y-70977187D01*
X140504770Y-70972193D01*
X140493761Y-70965206D01*
X140446860Y-70935442D01*
X140353136Y-70875963D01*
X140323352Y-70865357D01*
X140190586Y-70818081D01*
X140190581Y-70818080D01*
X140183951Y-70815719D01*
X140176965Y-70814886D01*
X140176961Y-70814885D01*
X140049177Y-70799648D01*
X140005624Y-70794455D01*
X139998621Y-70795191D01*
X139998620Y-70795191D01*
X139834025Y-70812490D01*
X139834021Y-70812491D01*
X139827017Y-70813227D01*
X139820346Y-70815498D01*
X139663677Y-70868832D01*
X139663674Y-70868833D01*
X139657007Y-70871103D01*
X139651009Y-70874793D01*
X139651007Y-70874794D01*
X139580526Y-70918155D01*
X139504045Y-70965206D01*
X139499014Y-70970132D01*
X139499011Y-70970135D01*
X139491807Y-70977190D01*
X139375732Y-71090859D01*
X139371913Y-71096784D01*
X139371912Y-71096786D01*
X139282265Y-71235891D01*
X139278446Y-71241817D01*
X139217022Y-71410578D01*
X139194514Y-71588753D01*
X103300000Y-71588753D01*
X103300000Y-64037271D01*
X103301914Y-64015392D01*
X103302714Y-64010856D01*
X103302714Y-64010855D01*
X103304628Y-64000000D01*
X103694450Y-64000000D01*
X103714639Y-64462409D01*
X103715000Y-64465148D01*
X103772670Y-64903196D01*
X103775053Y-64921299D01*
X103875232Y-65373177D01*
X103876060Y-65375802D01*
X103876061Y-65375807D01*
X104013369Y-65811290D01*
X104014414Y-65814605D01*
X104191539Y-66242222D01*
X104405259Y-66652775D01*
X104653948Y-67043138D01*
X104798776Y-67231882D01*
X104902624Y-67367219D01*
X104935713Y-67410342D01*
X105248410Y-67751590D01*
X105589658Y-68064287D01*
X105591820Y-68065946D01*
X105591826Y-68065951D01*
X105604874Y-68075963D01*
X105956862Y-68346052D01*
X106347225Y-68594741D01*
X106757778Y-68808461D01*
X106760319Y-68809513D01*
X106760320Y-68809514D01*
X106791654Y-68822493D01*
X107185395Y-68985586D01*
X107188015Y-68986412D01*
X107188023Y-68986415D01*
X107624193Y-69123939D01*
X107624198Y-69123940D01*
X107626823Y-69124768D01*
X108078701Y-69224947D01*
X108081420Y-69225305D01*
X108081426Y-69225306D01*
X108253504Y-69247960D01*
X108537591Y-69285361D01*
X109000000Y-69305550D01*
X109462409Y-69285361D01*
X109746496Y-69247960D01*
X109918574Y-69225306D01*
X109918580Y-69225305D01*
X109921299Y-69224947D01*
X110373177Y-69124768D01*
X110375802Y-69123940D01*
X110375807Y-69123939D01*
X110811977Y-68986415D01*
X110811985Y-68986412D01*
X110814605Y-68985586D01*
X111208346Y-68822493D01*
X111239680Y-68809514D01*
X111239681Y-68809513D01*
X111242222Y-68808461D01*
X111280081Y-68788753D01*
X139794514Y-68788753D01*
X139795201Y-68795760D01*
X139795201Y-68795763D01*
X139797434Y-68818532D01*
X139812039Y-68967486D01*
X139814262Y-68974168D01*
X139814262Y-68974169D01*
X139864558Y-69125365D01*
X139868726Y-69137896D01*
X139872373Y-69143918D01*
X139958107Y-69285481D01*
X139961759Y-69291512D01*
X139966648Y-69296575D01*
X139966649Y-69296576D01*
X139975315Y-69305550D01*
X140086514Y-69420699D01*
X140236789Y-69519036D01*
X140405116Y-69581636D01*
X140412097Y-69582567D01*
X140412099Y-69582568D01*
X140576149Y-69604457D01*
X140576153Y-69604457D01*
X140583130Y-69605388D01*
X140590142Y-69604750D01*
X140590146Y-69604750D01*
X140754960Y-69589751D01*
X140754961Y-69589751D01*
X140761981Y-69589112D01*
X140932782Y-69533615D01*
X140963714Y-69515176D01*
X141080992Y-69445265D01*
X141080994Y-69445264D01*
X141087044Y-69441657D01*
X141217099Y-69317807D01*
X141225323Y-69305430D01*
X141312582Y-69174093D01*
X141316483Y-69168222D01*
X141333305Y-69123939D01*
X141377757Y-69006919D01*
X141377758Y-69006914D01*
X141380257Y-69000336D01*
X141381237Y-68993364D01*
X141404700Y-68826416D01*
X141404700Y-68826411D01*
X141405251Y-68822493D01*
X141405565Y-68800000D01*
X141385546Y-68621528D01*
X141379427Y-68603955D01*
X141328803Y-68458584D01*
X141326485Y-68451927D01*
X141231316Y-68299625D01*
X141167771Y-68235635D01*
X141109733Y-68177190D01*
X141109729Y-68177187D01*
X141104770Y-68172193D01*
X141093761Y-68165206D01*
X141046860Y-68135442D01*
X140953136Y-68075963D01*
X140915148Y-68062436D01*
X140790586Y-68018081D01*
X140790581Y-68018080D01*
X140783951Y-68015719D01*
X140776965Y-68014886D01*
X140776961Y-68014885D01*
X140649177Y-67999648D01*
X140605624Y-67994455D01*
X140598621Y-67995191D01*
X140598620Y-67995191D01*
X140434025Y-68012490D01*
X140434021Y-68012491D01*
X140427017Y-68013227D01*
X140420346Y-68015498D01*
X140263677Y-68068832D01*
X140263674Y-68068833D01*
X140257007Y-68071103D01*
X140251009Y-68074793D01*
X140251007Y-68074794D01*
X140180526Y-68118154D01*
X140104045Y-68165206D01*
X140099014Y-68170132D01*
X140099011Y-68170135D01*
X140091807Y-68177190D01*
X139975732Y-68290859D01*
X139971913Y-68296784D01*
X139971912Y-68296786D01*
X139941238Y-68344383D01*
X139878446Y-68441817D01*
X139817022Y-68610578D01*
X139794514Y-68788753D01*
X111280081Y-68788753D01*
X111652775Y-68594741D01*
X112043138Y-68346052D01*
X112395126Y-68075963D01*
X112408174Y-68065951D01*
X112408180Y-68065946D01*
X112410342Y-68064287D01*
X112751590Y-67751590D01*
X113064287Y-67410342D01*
X113097377Y-67367219D01*
X113201224Y-67231882D01*
X113346052Y-67043138D01*
X113594741Y-66652775D01*
X113808461Y-66242222D01*
X113985586Y-65814605D01*
X113986632Y-65811290D01*
X114123939Y-65375807D01*
X114123940Y-65375802D01*
X114124768Y-65373177D01*
X114224947Y-64921299D01*
X114227331Y-64903196D01*
X114285000Y-64465148D01*
X114285361Y-64462409D01*
X114305550Y-64000000D01*
X114285361Y-63537591D01*
X114247960Y-63253504D01*
X114225306Y-63081426D01*
X114225305Y-63081420D01*
X114224947Y-63078701D01*
X114124768Y-62626823D01*
X114115408Y-62597137D01*
X113986415Y-62188023D01*
X113986412Y-62188015D01*
X113985586Y-62185395D01*
X113810293Y-61762201D01*
X113809514Y-61760320D01*
X113809513Y-61760319D01*
X113808461Y-61757778D01*
X113749568Y-61644646D01*
X119574500Y-61644646D01*
X119577618Y-61670846D01*
X119623061Y-61773153D01*
X119631294Y-61781372D01*
X119631295Y-61781373D01*
X119657363Y-61807395D01*
X119702287Y-61852241D01*
X119712924Y-61856944D01*
X119712926Y-61856945D01*
X119750382Y-61873504D01*
X119804673Y-61897506D01*
X119830354Y-61900500D01*
X121619646Y-61900500D01*
X121623350Y-61900059D01*
X121623353Y-61900059D01*
X121630746Y-61899179D01*
X121645846Y-61897382D01*
X121748153Y-61851939D01*
X121827241Y-61772713D01*
X121834926Y-61755332D01*
X121858265Y-61702538D01*
X121872506Y-61670327D01*
X121875500Y-61644646D01*
X121875500Y-60960673D01*
X121895502Y-60892552D01*
X121949158Y-60846059D01*
X122019432Y-60835955D01*
X122084012Y-60865449D01*
X122122396Y-60925175D01*
X122123658Y-60930784D01*
X122123796Y-60930749D01*
X122175845Y-61135690D01*
X122264369Y-61327714D01*
X122386405Y-61500391D01*
X122390539Y-61504418D01*
X122530727Y-61640983D01*
X122537865Y-61647937D01*
X122542661Y-61651142D01*
X122542664Y-61651144D01*
X122685936Y-61746875D01*
X122713677Y-61765411D01*
X122718985Y-61767692D01*
X122718986Y-61767692D01*
X122902650Y-61846600D01*
X122902653Y-61846601D01*
X122907953Y-61848878D01*
X122913582Y-61850152D01*
X122913583Y-61850152D01*
X123108550Y-61894269D01*
X123108553Y-61894269D01*
X123114186Y-61895544D01*
X123119957Y-61895771D01*
X123119959Y-61895771D01*
X123181989Y-61898208D01*
X123325470Y-61903846D01*
X123331179Y-61903018D01*
X123331183Y-61903018D01*
X123529015Y-61874333D01*
X123529019Y-61874332D01*
X123534730Y-61873504D01*
X123621579Y-61844023D01*
X123729483Y-61807395D01*
X123729488Y-61807393D01*
X123734955Y-61805537D01*
X123778103Y-61781373D01*
X123914395Y-61705046D01*
X123914399Y-61705043D01*
X123919442Y-61702219D01*
X124082012Y-61567012D01*
X124217219Y-61404442D01*
X124220043Y-61399399D01*
X124220046Y-61399395D01*
X124317713Y-61224998D01*
X124317714Y-61224996D01*
X124320537Y-61219955D01*
X124322393Y-61214488D01*
X124322395Y-61214483D01*
X124369173Y-61076676D01*
X124388504Y-61019730D01*
X124406945Y-60892552D01*
X124418314Y-60814140D01*
X124418314Y-60814138D01*
X124418846Y-60810470D01*
X124420429Y-60750000D01*
X124401081Y-60539440D01*
X124343686Y-60335931D01*
X124332553Y-60313354D01*
X124252719Y-60151469D01*
X124250165Y-60146290D01*
X124123651Y-59976867D01*
X123996236Y-59859086D01*
X123972622Y-59837257D01*
X123972620Y-59837255D01*
X123968381Y-59833337D01*
X123935014Y-59812284D01*
X123794434Y-59723584D01*
X123794433Y-59723584D01*
X123789554Y-59720505D01*
X123593160Y-59642152D01*
X123587503Y-59641027D01*
X123587497Y-59641025D01*
X123391442Y-59602028D01*
X123391440Y-59602028D01*
X123385775Y-59600901D01*
X123380000Y-59600825D01*
X123379996Y-59600825D01*
X123273976Y-59599437D01*
X123174346Y-59598133D01*
X123168649Y-59599112D01*
X123168648Y-59599112D01*
X122971650Y-59632962D01*
X122971649Y-59632962D01*
X122965953Y-59633941D01*
X122767575Y-59707127D01*
X122762614Y-59710079D01*
X122762613Y-59710079D01*
X122716553Y-59737482D01*
X122585856Y-59815238D01*
X122426881Y-59954655D01*
X122295976Y-60120708D01*
X122293287Y-60125819D01*
X122293285Y-60125822D01*
X122279792Y-60151469D01*
X122197523Y-60307836D01*
X122134820Y-60509773D01*
X122134141Y-60515510D01*
X122126627Y-60578995D01*
X122098756Y-60644292D01*
X122040008Y-60684156D01*
X121969034Y-60685930D01*
X121908367Y-60649051D01*
X121877269Y-60585227D01*
X121875500Y-60564185D01*
X121875500Y-59855354D01*
X121872382Y-59829154D01*
X121826939Y-59726847D01*
X121818444Y-59718366D01*
X121755945Y-59655977D01*
X121747713Y-59647759D01*
X121737076Y-59643056D01*
X121737074Y-59643055D01*
X121677538Y-59616735D01*
X121645327Y-59602494D01*
X121619646Y-59599500D01*
X119830354Y-59599500D01*
X119826650Y-59599941D01*
X119826647Y-59599941D01*
X119819254Y-59600821D01*
X119804154Y-59602618D01*
X119795514Y-59606456D01*
X119795513Y-59606456D01*
X119729131Y-59635942D01*
X119701847Y-59648061D01*
X119693628Y-59656294D01*
X119693627Y-59656295D01*
X119662142Y-59687835D01*
X119622759Y-59727287D01*
X119577494Y-59829673D01*
X119574500Y-59855354D01*
X119574500Y-61644646D01*
X113749568Y-61644646D01*
X113594741Y-61347225D01*
X113346052Y-60956862D01*
X113136798Y-60684156D01*
X113065951Y-60591826D01*
X113065946Y-60591820D01*
X113064287Y-60589658D01*
X112751590Y-60248410D01*
X112410342Y-59935713D01*
X112408180Y-59934054D01*
X112408174Y-59934049D01*
X112258301Y-59819048D01*
X112043138Y-59653948D01*
X111652775Y-59405259D01*
X111242222Y-59191539D01*
X110814605Y-59014414D01*
X110811985Y-59013588D01*
X110811977Y-59013585D01*
X110375807Y-58876061D01*
X110375802Y-58876060D01*
X110373177Y-58875232D01*
X109921299Y-58775053D01*
X109918580Y-58774695D01*
X109918574Y-58774694D01*
X109716479Y-58748088D01*
X109462409Y-58714639D01*
X109000000Y-58694450D01*
X108537591Y-58714639D01*
X108283521Y-58748088D01*
X108081426Y-58774694D01*
X108081420Y-58774695D01*
X108078701Y-58775053D01*
X107626823Y-58875232D01*
X107624198Y-58876060D01*
X107624193Y-58876061D01*
X107188023Y-59013585D01*
X107188015Y-59013588D01*
X107185395Y-59014414D01*
X106757778Y-59191539D01*
X106347225Y-59405259D01*
X105956862Y-59653948D01*
X105741699Y-59819048D01*
X105591826Y-59934049D01*
X105591820Y-59934054D01*
X105589658Y-59935713D01*
X105248410Y-60248410D01*
X104935713Y-60589658D01*
X104934054Y-60591820D01*
X104934049Y-60591826D01*
X104863202Y-60684156D01*
X104653948Y-60956862D01*
X104405259Y-61347225D01*
X104191539Y-61757778D01*
X104190487Y-61760319D01*
X104190486Y-61760320D01*
X104189707Y-61762201D01*
X104014414Y-62185395D01*
X104013588Y-62188015D01*
X104013585Y-62188023D01*
X103884592Y-62597137D01*
X103875232Y-62626823D01*
X103775053Y-63078701D01*
X103774695Y-63081420D01*
X103774694Y-63081426D01*
X103752040Y-63253504D01*
X103714639Y-63537591D01*
X103694450Y-64000000D01*
X103304628Y-64000000D01*
X103302713Y-63989141D01*
X103302713Y-63984797D01*
X103301374Y-63965027D01*
X103317377Y-63557733D01*
X103318153Y-63547870D01*
X103369595Y-63113234D01*
X103371143Y-63103463D01*
X103456526Y-62674215D01*
X103458836Y-62664594D01*
X103577634Y-62243369D01*
X103580691Y-62233961D01*
X103732173Y-61823348D01*
X103735959Y-61814207D01*
X103739100Y-61807395D01*
X103919188Y-61416755D01*
X103923679Y-61407940D01*
X104137534Y-61026074D01*
X104142704Y-61017638D01*
X104257349Y-60846059D01*
X104385856Y-60653734D01*
X104391666Y-60645738D01*
X104439370Y-60585227D01*
X104639984Y-60330749D01*
X104662620Y-60302036D01*
X104669045Y-60294513D01*
X104829708Y-60120708D01*
X104966141Y-59973115D01*
X104973115Y-59966141D01*
X105219997Y-59737926D01*
X105294513Y-59669045D01*
X105302036Y-59662620D01*
X105626617Y-59406740D01*
X105645746Y-59391660D01*
X105653734Y-59385856D01*
X106017638Y-59142704D01*
X106026074Y-59137534D01*
X106407940Y-58923679D01*
X106416755Y-58919188D01*
X106633256Y-58819379D01*
X106814210Y-58735958D01*
X106823348Y-58732173D01*
X107233961Y-58580691D01*
X107243369Y-58577634D01*
X107664594Y-58458836D01*
X107674215Y-58456526D01*
X108103463Y-58371143D01*
X108113234Y-58369595D01*
X108547870Y-58318153D01*
X108557733Y-58317377D01*
X108965027Y-58301374D01*
X108984797Y-58302713D01*
X108989141Y-58302713D01*
X109000000Y-58304628D01*
X109010855Y-58302714D01*
X109010856Y-58302714D01*
X109015392Y-58301914D01*
X109037271Y-58300000D01*
X128088704Y-58300000D01*
X128156825Y-58320002D01*
G37*
G04 #@! TD.AperFunction*
G04 #@! TA.AperFunction,NonConductor*
G36*
X154840091Y-93647024D02*
G01*
X154892795Y-93694592D01*
X154911415Y-93763104D01*
X154890039Y-93830806D01*
X154884391Y-93838560D01*
X154810381Y-93932443D01*
X154806800Y-93936986D01*
X154804111Y-93942097D01*
X154804109Y-93942100D01*
X154790616Y-93967747D01*
X154708347Y-94124114D01*
X154674136Y-94234292D01*
X154653709Y-94300079D01*
X154645644Y-94326051D01*
X154620791Y-94536032D01*
X154634620Y-94747027D01*
X154636041Y-94752623D01*
X154636042Y-94752628D01*
X154672921Y-94897836D01*
X154686669Y-94951968D01*
X154775193Y-95143992D01*
X154811962Y-95196019D01*
X154854469Y-95256165D01*
X154877450Y-95323339D01*
X154860466Y-95392274D01*
X154808908Y-95441084D01*
X154739147Y-95454271D01*
X154673331Y-95427649D01*
X154662477Y-95417980D01*
X154160689Y-94916192D01*
X154157759Y-94913885D01*
X154157753Y-94913880D01*
X154147385Y-94905718D01*
X154139958Y-94899871D01*
X154131137Y-94896476D01*
X154046337Y-94863839D01*
X154046335Y-94863839D01*
X154035483Y-94859662D01*
X154023853Y-94859672D01*
X154023852Y-94859672D01*
X153979724Y-94859711D01*
X153923538Y-94859760D01*
X153819133Y-94900150D01*
X153798857Y-94916192D01*
X153308297Y-95406752D01*
X153245985Y-95440778D01*
X153175170Y-95435713D01*
X153118334Y-95393166D01*
X153093523Y-95326646D01*
X153108614Y-95257272D01*
X153122328Y-95237088D01*
X153132243Y-95225166D01*
X153135941Y-95220720D01*
X153138765Y-95215677D01*
X153138768Y-95215673D01*
X153236435Y-95041276D01*
X153236436Y-95041274D01*
X153239259Y-95036233D01*
X153241115Y-95030766D01*
X153241117Y-95030761D01*
X153299193Y-94859672D01*
X153307226Y-94836008D01*
X153311005Y-94809951D01*
X153337036Y-94630418D01*
X153337036Y-94630416D01*
X153337568Y-94626748D01*
X153339151Y-94566278D01*
X153319803Y-94355718D01*
X153306449Y-94308366D01*
X153302412Y-94294053D01*
X153262408Y-94152209D01*
X153251275Y-94129632D01*
X153171441Y-93967747D01*
X153168887Y-93962568D01*
X153085458Y-93850843D01*
X153060727Y-93784296D01*
X153075901Y-93714939D01*
X153126163Y-93664797D01*
X153195555Y-93649788D01*
X153256419Y-93670691D01*
X153400748Y-93767128D01*
X153428450Y-93785638D01*
X153433758Y-93787919D01*
X153433759Y-93787919D01*
X153617423Y-93866827D01*
X153617426Y-93866828D01*
X153622726Y-93869105D01*
X153628355Y-93870379D01*
X153628356Y-93870379D01*
X153823323Y-93914496D01*
X153823326Y-93914496D01*
X153828959Y-93915771D01*
X153834730Y-93915998D01*
X153834732Y-93915998D01*
X153896762Y-93918435D01*
X154040243Y-93924073D01*
X154045952Y-93923245D01*
X154045956Y-93923245D01*
X154243788Y-93894560D01*
X154243792Y-93894559D01*
X154249503Y-93893731D01*
X154328760Y-93866827D01*
X154444256Y-93827622D01*
X154444261Y-93827620D01*
X154449728Y-93825764D01*
X154470681Y-93814030D01*
X154629168Y-93725273D01*
X154629172Y-93725270D01*
X154634215Y-93722446D01*
X154704874Y-93663680D01*
X154770036Y-93635500D01*
X154840091Y-93647024D01*
G37*
G04 #@! TD.AperFunction*
G04 #@! TA.AperFunction,Conductor*
G36*
X136401044Y-104399468D02*
G01*
X136401049Y-104399468D01*
X136401567Y-104399471D01*
X136410064Y-104399515D01*
X136440100Y-104403309D01*
X136457602Y-104407705D01*
X136485863Y-104418553D01*
X136501809Y-104426996D01*
X136526664Y-104444272D01*
X136540140Y-104456279D01*
X136560157Y-104478983D01*
X136570375Y-104493850D01*
X136584402Y-104520682D01*
X136590776Y-104537552D01*
X136597996Y-104566946D01*
X136600260Y-104585651D01*
X136599916Y-104618541D01*
X136586589Y-104712185D01*
X136585463Y-104712025D01*
X136584735Y-104727417D01*
X136582398Y-104737021D01*
X136581326Y-104741426D01*
X136577409Y-104782454D01*
X136576420Y-104865646D01*
X136577936Y-104872613D01*
X136577936Y-104872617D01*
X136581762Y-104890203D01*
X136606672Y-105004708D01*
X136608246Y-105008927D01*
X136608248Y-105008935D01*
X136618938Y-105037593D01*
X136631483Y-105071228D01*
X136699686Y-105196132D01*
X136800318Y-105296764D01*
X136804641Y-105300000D01*
X136500000Y-105300000D01*
X135985385Y-104785385D01*
X136011100Y-104771833D01*
X136113207Y-104672700D01*
X136156589Y-104616499D01*
X136208227Y-104525166D01*
X136214822Y-104514730D01*
X136239944Y-104478984D01*
X136241119Y-104477312D01*
X136261373Y-104454817D01*
X136274977Y-104442950D01*
X136300014Y-104425937D01*
X136316043Y-104417663D01*
X136344410Y-104407114D01*
X136361959Y-104402901D01*
X136392031Y-104399421D01*
X136401044Y-104399468D01*
G37*
G04 #@! TD.AperFunction*
G04 #@! TA.AperFunction,Conductor*
G36*
X134288196Y-95888196D02*
G01*
X134276309Y-95894303D01*
X134276307Y-95894305D01*
X134268292Y-95898422D01*
X134165153Y-95996483D01*
X134121186Y-96052227D01*
X134084641Y-96115314D01*
X134061000Y-96156127D01*
X134049852Y-96175371D01*
X134048176Y-96179539D01*
X134048175Y-96179542D01*
X134042697Y-96193169D01*
X134028114Y-96219695D01*
X134017588Y-96234344D01*
X133997098Y-96256628D01*
X133983378Y-96268346D01*
X133958169Y-96285094D01*
X133942045Y-96293204D01*
X133913554Y-96303461D01*
X133904884Y-96305447D01*
X133895970Y-96307488D01*
X133865876Y-96310652D01*
X133858466Y-96310535D01*
X133856418Y-96310503D01*
X133847831Y-96310368D01*
X133817844Y-96306261D01*
X133800386Y-96301681D01*
X133772239Y-96290537D01*
X133756385Y-96281929D01*
X133731706Y-96264390D01*
X133718367Y-96252252D01*
X133698585Y-96229334D01*
X133688522Y-96214358D01*
X133674782Y-96187393D01*
X133668579Y-96170444D01*
X133661667Y-96140970D01*
X133658835Y-96115314D01*
X133658480Y-96091379D01*
X133659722Y-96075949D01*
X133659850Y-96074361D01*
X133660607Y-96048927D01*
X133659554Y-95998380D01*
X133629302Y-95859318D01*
X133627728Y-95855099D01*
X133627726Y-95855091D01*
X133612436Y-95814100D01*
X133604491Y-95792798D01*
X133553819Y-95700000D01*
X134100000Y-95700000D01*
X134288196Y-95888196D01*
G37*
G04 #@! TD.AperFunction*
M02*
