G04 #@! TF.GenerationSoftware,KiCad,Pcbnew,5.99.0-unknown-fecb53b64f~142~ubuntu21.04.1*
G04 #@! TF.CreationDate,2021-10-23T16:59:13+04:00*
G04 #@! TF.ProjectId,BEEIRON v0.03,42454549-524f-44e2-9076-302e30332e6b,rev?*
G04 #@! TF.SameCoordinates,Original*
G04 #@! TF.FileFunction,Soldermask,Bot*
G04 #@! TF.FilePolarity,Negative*
%FSLAX46Y46*%
G04 Gerber Fmt 4.6, Leading zero omitted, Abs format (unit mm)*
G04 Created by KiCad (PCBNEW 5.99.0-unknown-fecb53b64f~142~ubuntu21.04.1) date 2021-10-23 16:59:13*
%MOMM*%
%LPD*%
G01*
G04 APERTURE LIST*
G04 Aperture macros list*
%AMRoundRect*
0 Rectangle with rounded corners*
0 $1 Rounding radius*
0 $2 $3 $4 $5 $6 $7 $8 $9 X,Y pos of 4 corners*
0 Add a 4 corners polygon primitive as box body*
4,1,4,$2,$3,$4,$5,$6,$7,$8,$9,$2,$3,0*
0 Add four circle primitives for the rounded corners*
1,1,$1+$1,$2,$3*
1,1,$1+$1,$4,$5*
1,1,$1+$1,$6,$7*
1,1,$1+$1,$8,$9*
0 Add four rect primitives between the rounded corners*
20,1,$1+$1,$2,$3,$4,$5,0*
20,1,$1+$1,$4,$5,$6,$7,0*
20,1,$1+$1,$6,$7,$8,$9,0*
20,1,$1+$1,$8,$9,$2,$3,0*%
%AMHorizOval*
0 Thick line with rounded ends*
0 $1 width*
0 $2 $3 position (X,Y) of the first rounded end (center of the circle)*
0 $4 $5 position (X,Y) of the second rounded end (center of the circle)*
0 Add line between two ends*
20,1,$1,$2,$3,$4,$5,0*
0 Add two circle primitives to create the rounded ends*
1,1,$1,$2,$3*
1,1,$1,$4,$5*%
G04 Aperture macros list end*
%ADD10C,0.100000*%
%ADD11C,1.250000*%
%ADD12C,1.700000*%
%ADD13C,2.100000*%
%ADD14RoundRect,0.050000X0.850000X0.850000X-0.850000X0.850000X-0.850000X-0.850000X0.850000X-0.850000X0*%
%ADD15O,1.800000X1.800000*%
%ADD16RoundRect,0.050000X0.850000X-0.850000X0.850000X0.850000X-0.850000X0.850000X-0.850000X-0.850000X0*%
%ADD17RoundRect,0.050000X-0.850000X-0.850000X0.850000X-0.850000X0.850000X0.850000X-0.850000X0.850000X0*%
%ADD18C,1.000000*%
%ADD19C,10.100000*%
%ADD20C,2.500000*%
%ADD21HorizOval,2.500000X0.000000X0.000000X0.000000X0.000000X0*%
%ADD22RoundRect,0.050000X0.800000X-0.800000X0.800000X0.800000X-0.800000X0.800000X-0.800000X-0.800000X0*%
%ADD23O,1.700000X1.700000*%
%ADD24RoundRect,0.299999X-0.790001X-1.550001X0.790001X-1.550001X0.790001X1.550001X-0.790001X1.550001X0*%
%ADD25O,2.180000X3.700000*%
%ADD26RoundRect,0.050000X1.202082X0.000000X0.000000X1.202082X-1.202082X0.000000X0.000000X-1.202082X0*%
%ADD27HorizOval,1.800000X0.000000X0.000000X0.000000X0.000000X0*%
%ADD28RoundRect,0.050000X-0.800000X1.200000X-0.800000X-1.200000X0.800000X-1.200000X0.800000X1.200000X0*%
%ADD29O,1.700000X2.500000*%
%ADD30RoundRect,0.050000X1.250000X2.250000X-1.250000X2.250000X-1.250000X-2.250000X1.250000X-2.250000X0*%
%ADD31O,2.600000X4.600000*%
%ADD32RoundRect,0.300000X0.750000X1.550000X-0.750000X1.550000X-0.750000X-1.550000X0.750000X-1.550000X0*%
%ADD33O,2.100000X3.700000*%
%ADD34RoundRect,0.050000X0.800000X0.800000X-0.800000X0.800000X-0.800000X-0.800000X0.800000X-0.800000X0*%
%ADD35C,1.900000*%
%ADD36RoundRect,0.050000X0.000000X-1.202082X1.202082X0.000000X0.000000X1.202082X-1.202082X0.000000X0*%
%ADD37HorizOval,1.800000X0.000000X0.000000X0.000000X0.000000X0*%
G04 APERTURE END LIST*
D10*
X158800000Y-122200000D02*
X156200000Y-124800000D01*
X156200000Y-124800000D02*
X130800000Y-124800000D01*
X130800000Y-124800000D02*
X125100000Y-130500000D01*
X125100000Y-130500000D02*
X125100000Y-128300000D01*
X125100000Y-128300000D02*
X124500000Y-128300000D01*
X124500000Y-128300000D02*
X129900000Y-122900000D01*
X129900000Y-122900000D02*
X155200000Y-122900000D01*
X155200000Y-122900000D02*
X158800000Y-119300000D01*
X158800000Y-119300000D02*
X158800000Y-122200000D01*
G36*
X158800000Y-122200000D02*
G01*
X156200000Y-124800000D01*
X130800000Y-124800000D01*
X125100000Y-130500000D01*
X125100000Y-128300000D01*
X124500000Y-128300000D01*
X129900000Y-122900000D01*
X155200000Y-122900000D01*
X158800000Y-119300000D01*
X158800000Y-122200000D01*
G37*
X158800000Y-122200000D02*
X156200000Y-124800000D01*
X130800000Y-124800000D01*
X125100000Y-130500000D01*
X125100000Y-128300000D01*
X124500000Y-128300000D01*
X129900000Y-122900000D01*
X155200000Y-122900000D01*
X158800000Y-119300000D01*
X158800000Y-122200000D01*
D11*
X131225000Y-129500000D02*
G75*
G03*
X131225000Y-129500000I-625000J0D01*
G01*
D12*
X119600000Y-79600000D03*
X123100000Y-79600000D03*
D13*
X137000000Y-127000000D03*
X147000000Y-127000000D03*
D14*
X176500000Y-88500000D03*
D15*
X176500000Y-85960000D03*
X176500000Y-83420000D03*
D16*
X169060000Y-100800000D03*
D15*
X171600000Y-100800000D03*
X174140000Y-100800000D03*
D17*
X160000000Y-63875000D03*
D15*
X160000000Y-66415000D03*
X160000000Y-68955000D03*
D16*
X120725000Y-60750000D03*
D15*
X123265000Y-60750000D03*
D18*
X177651650Y-66651650D03*
X175000000Y-60250000D03*
X172348350Y-61348350D03*
X178750000Y-64000000D03*
X171250000Y-64000000D03*
X172348350Y-66651650D03*
D19*
X175000000Y-64000000D03*
D18*
X177651650Y-61348350D03*
X175000000Y-67750000D03*
D20*
X127518056Y-121518056D03*
D21*
X132906210Y-126906210D03*
D17*
X155652393Y-63874870D03*
D15*
X155652393Y-66414870D03*
X155652393Y-68954870D03*
D22*
X132975000Y-120800000D03*
D23*
X135515000Y-120800000D03*
X138055000Y-120800000D03*
X138055000Y-113180000D03*
X135515000Y-113180000D03*
X132975000Y-113180000D03*
D24*
X158840000Y-120700000D03*
D25*
X163920000Y-120700000D03*
X169000000Y-120700000D03*
D26*
X153979773Y-96362329D03*
D27*
X152183722Y-94566278D03*
X155775824Y-94566278D03*
X153979773Y-92770227D03*
X157571875Y-92770227D03*
X155775824Y-90974175D03*
D18*
X106348350Y-61348350D03*
X112750000Y-64000000D03*
X106348350Y-66651650D03*
X109000000Y-67750000D03*
X111651650Y-66651650D03*
D19*
X109000000Y-64000000D03*
D18*
X105250000Y-64000000D03*
X111651650Y-61348350D03*
X109000000Y-60250000D03*
D28*
X151525000Y-112880000D03*
D29*
X148985000Y-112880000D03*
X146445000Y-112880000D03*
X146445000Y-120500000D03*
X148985000Y-120500000D03*
X151525000Y-120500000D03*
D30*
X144250000Y-132750000D03*
D31*
X138800000Y-132750000D03*
X133350000Y-132750000D03*
D14*
X108200000Y-110220000D03*
D15*
X108200000Y-107680000D03*
X108200000Y-105140000D03*
X108200000Y-102600000D03*
D18*
X175000000Y-126250000D03*
D19*
X175000000Y-130000000D03*
D18*
X172348350Y-132651650D03*
X175000000Y-133750000D03*
X171250000Y-130000000D03*
X172348350Y-127348350D03*
X178750000Y-130000000D03*
X177651650Y-132651650D03*
X177651650Y-127348350D03*
D14*
X108200000Y-97880000D03*
D15*
X108200000Y-95340000D03*
X108200000Y-92800000D03*
X108200000Y-90260000D03*
D32*
X124200000Y-130000000D03*
D33*
X119200000Y-130000000D03*
D34*
X123580000Y-110500000D03*
D23*
X113420000Y-110500000D03*
D17*
X108200000Y-75800000D03*
D15*
X108200000Y-78340000D03*
X108200000Y-80880000D03*
X108200000Y-83420000D03*
X108200000Y-85960000D03*
D18*
X112750000Y-130000000D03*
X106348350Y-127348350D03*
X109000000Y-126250000D03*
X109000000Y-133750000D03*
X106348350Y-132651650D03*
X111651650Y-127348350D03*
D19*
X109000000Y-130000000D03*
D18*
X111651650Y-132651650D03*
X105250000Y-130000000D03*
D35*
X150350000Y-133500000D03*
X152650000Y-126000000D03*
D36*
X151007898Y-81007898D03*
D37*
X152803949Y-82803949D03*
X154600000Y-84600000D03*
X156396052Y-86396052D03*
M02*
