G04 #@! TF.GenerationSoftware,KiCad,Pcbnew,5.99.0-unknown-fecb53b64f~142~ubuntu21.04.1*
G04 #@! TF.CreationDate,2021-10-23T16:59:13+04:00*
G04 #@! TF.ProjectId,BEEIRON v0.03,42454549-524f-44e2-9076-302e30332e6b,rev?*
G04 #@! TF.SameCoordinates,Original*
G04 #@! TF.FileFunction,Copper,L3,Inr*
G04 #@! TF.FilePolarity,Positive*
%FSLAX46Y46*%
G04 Gerber Fmt 4.6, Leading zero omitted, Abs format (unit mm)*
G04 Created by KiCad (PCBNEW 5.99.0-unknown-fecb53b64f~142~ubuntu21.04.1) date 2021-10-23 16:59:13*
%MOMM*%
%LPD*%
G01*
G04 APERTURE LIST*
G04 Aperture macros list*
%AMRoundRect*
0 Rectangle with rounded corners*
0 $1 Rounding radius*
0 $2 $3 $4 $5 $6 $7 $8 $9 X,Y pos of 4 corners*
0 Add a 4 corners polygon primitive as box body*
4,1,4,$2,$3,$4,$5,$6,$7,$8,$9,$2,$3,0*
0 Add four circle primitives for the rounded corners*
1,1,$1+$1,$2,$3*
1,1,$1+$1,$4,$5*
1,1,$1+$1,$6,$7*
1,1,$1+$1,$8,$9*
0 Add four rect primitives between the rounded corners*
20,1,$1+$1,$2,$3,$4,$5,0*
20,1,$1+$1,$4,$5,$6,$7,0*
20,1,$1+$1,$6,$7,$8,$9,0*
20,1,$1+$1,$8,$9,$2,$3,0*%
%AMHorizOval*
0 Thick line with rounded ends*
0 $1 width*
0 $2 $3 position (X,Y) of the first rounded end (center of the circle)*
0 $4 $5 position (X,Y) of the second rounded end (center of the circle)*
0 Add line between two ends*
20,1,$1,$2,$3,$4,$5,0*
0 Add two circle primitives to create the rounded ends*
1,1,$1,$2,$3*
1,1,$1,$4,$5*%
%AMRotRect*
0 Rectangle, with rotation*
0 The origin of the aperture is its center*
0 $1 length*
0 $2 width*
0 $3 Rotation angle, in degrees counterclockwise*
0 Add horizontal line*
21,1,$1,$2,0,0,$3*%
G04 Aperture macros list end*
G04 #@! TA.AperFunction,ComponentPad*
%ADD10C,1.600000*%
G04 #@! TD*
G04 #@! TA.AperFunction,ComponentPad*
%ADD11C,2.000000*%
G04 #@! TD*
G04 #@! TA.AperFunction,ComponentPad*
%ADD12R,1.700000X1.700000*%
G04 #@! TD*
G04 #@! TA.AperFunction,ComponentPad*
%ADD13O,1.700000X1.700000*%
G04 #@! TD*
G04 #@! TA.AperFunction,ComponentPad*
%ADD14C,0.900000*%
G04 #@! TD*
G04 #@! TA.AperFunction,ComponentPad*
%ADD15C,10.000000*%
G04 #@! TD*
G04 #@! TA.AperFunction,ComponentPad*
%ADD16C,2.400000*%
G04 #@! TD*
G04 #@! TA.AperFunction,ComponentPad*
%ADD17HorizOval,2.400000X0.000000X0.000000X0.000000X0.000000X0*%
G04 #@! TD*
G04 #@! TA.AperFunction,ComponentPad*
%ADD18R,1.600000X1.600000*%
G04 #@! TD*
G04 #@! TA.AperFunction,ComponentPad*
%ADD19O,1.600000X1.600000*%
G04 #@! TD*
G04 #@! TA.AperFunction,ComponentPad*
%ADD20RoundRect,0.249999X-0.790001X-1.550001X0.790001X-1.550001X0.790001X1.550001X-0.790001X1.550001X0*%
G04 #@! TD*
G04 #@! TA.AperFunction,ComponentPad*
%ADD21O,2.080000X3.600000*%
G04 #@! TD*
G04 #@! TA.AperFunction,ComponentPad*
%ADD22RotRect,1.700000X1.700000X135.000000*%
G04 #@! TD*
G04 #@! TA.AperFunction,ComponentPad*
%ADD23HorizOval,1.700000X0.000000X0.000000X0.000000X0.000000X0*%
G04 #@! TD*
G04 #@! TA.AperFunction,ComponentPad*
%ADD24R,1.600000X2.400000*%
G04 #@! TD*
G04 #@! TA.AperFunction,ComponentPad*
%ADD25O,1.600000X2.400000*%
G04 #@! TD*
G04 #@! TA.AperFunction,ComponentPad*
%ADD26R,2.500000X4.500000*%
G04 #@! TD*
G04 #@! TA.AperFunction,ComponentPad*
%ADD27O,2.500000X4.500000*%
G04 #@! TD*
G04 #@! TA.AperFunction,ComponentPad*
%ADD28RoundRect,0.250000X0.750000X1.550000X-0.750000X1.550000X-0.750000X-1.550000X0.750000X-1.550000X0*%
G04 #@! TD*
G04 #@! TA.AperFunction,ComponentPad*
%ADD29O,2.000000X3.600000*%
G04 #@! TD*
G04 #@! TA.AperFunction,ComponentPad*
%ADD30C,1.800000*%
G04 #@! TD*
G04 #@! TA.AperFunction,ComponentPad*
%ADD31RotRect,1.700000X1.700000X45.000000*%
G04 #@! TD*
G04 #@! TA.AperFunction,ComponentPad*
%ADD32HorizOval,1.700000X0.000000X0.000000X0.000000X0.000000X0*%
G04 #@! TD*
G04 #@! TA.AperFunction,ViaPad*
%ADD33C,0.800000*%
G04 #@! TD*
G04 #@! TA.AperFunction,ViaPad*
%ADD34C,1.000000*%
G04 #@! TD*
G04 #@! TA.AperFunction,ViaPad*
%ADD35C,0.500000*%
G04 #@! TD*
G04 #@! TA.AperFunction,ViaPad*
%ADD36C,2.500000*%
G04 #@! TD*
G04 #@! TA.AperFunction,Conductor*
%ADD37C,1.000000*%
G04 #@! TD*
G04 APERTURE END LIST*
D10*
X119600000Y-79600000D03*
X123100000Y-79600000D03*
D11*
X137000000Y-127000000D03*
X147000000Y-127000000D03*
D12*
X176500000Y-88500000D03*
D13*
X176500000Y-85960000D03*
X176500000Y-83420000D03*
D12*
X169060000Y-100800000D03*
D13*
X171600000Y-100800000D03*
X174140000Y-100800000D03*
D12*
X160000000Y-63875000D03*
D13*
X160000000Y-66415000D03*
X160000000Y-68955000D03*
D12*
X120725000Y-60750000D03*
D13*
X123265000Y-60750000D03*
D14*
X177651650Y-66651650D03*
X175000000Y-60250000D03*
X172348350Y-61348350D03*
X178750000Y-64000000D03*
X171250000Y-64000000D03*
X172348350Y-66651650D03*
D15*
X175000000Y-64000000D03*
D14*
X177651650Y-61348350D03*
X175000000Y-67750000D03*
D16*
X127518056Y-121518056D03*
D17*
X132906210Y-126906210D03*
D12*
X155652393Y-63874870D03*
D13*
X155652393Y-66414870D03*
X155652393Y-68954870D03*
D18*
X132975000Y-120800000D03*
D19*
X135515000Y-120800000D03*
X138055000Y-120800000D03*
X138055000Y-113180000D03*
X135515000Y-113180000D03*
X132975000Y-113180000D03*
D20*
X158840000Y-120700000D03*
D21*
X163920000Y-120700000D03*
X169000000Y-120700000D03*
D22*
X153979773Y-96362329D03*
D23*
X152183722Y-94566278D03*
X155775824Y-94566278D03*
X153979773Y-92770227D03*
X157571875Y-92770227D03*
X155775824Y-90974175D03*
D14*
X106348350Y-61348350D03*
X112750000Y-64000000D03*
X106348350Y-66651650D03*
X109000000Y-67750000D03*
X111651650Y-66651650D03*
D15*
X109000000Y-64000000D03*
D14*
X105250000Y-64000000D03*
X111651650Y-61348350D03*
X109000000Y-60250000D03*
D24*
X151525000Y-112880000D03*
D25*
X148985000Y-112880000D03*
X146445000Y-112880000D03*
X146445000Y-120500000D03*
X148985000Y-120500000D03*
X151525000Y-120500000D03*
D26*
X144250000Y-132750000D03*
D27*
X138800000Y-132750000D03*
X133350000Y-132750000D03*
D12*
X108200000Y-110220000D03*
D13*
X108200000Y-107680000D03*
X108200000Y-105140000D03*
X108200000Y-102600000D03*
D14*
X175000000Y-126250000D03*
D15*
X175000000Y-130000000D03*
D14*
X172348350Y-132651650D03*
X175000000Y-133750000D03*
X171250000Y-130000000D03*
X172348350Y-127348350D03*
X178750000Y-130000000D03*
X177651650Y-132651650D03*
X177651650Y-127348350D03*
D12*
X108200000Y-97880000D03*
D13*
X108200000Y-95340000D03*
X108200000Y-92800000D03*
X108200000Y-90260000D03*
D28*
X124200000Y-130000000D03*
D29*
X119200000Y-130000000D03*
D18*
X123580000Y-110500000D03*
D19*
X113420000Y-110500000D03*
D12*
X108200000Y-75800000D03*
D13*
X108200000Y-78340000D03*
X108200000Y-80880000D03*
X108200000Y-83420000D03*
X108200000Y-85960000D03*
D14*
X112750000Y-130000000D03*
X106348350Y-127348350D03*
X109000000Y-126250000D03*
X109000000Y-133750000D03*
X106348350Y-132651650D03*
X111651650Y-127348350D03*
D15*
X109000000Y-130000000D03*
D14*
X111651650Y-132651650D03*
X105250000Y-130000000D03*
D30*
X150350000Y-133500000D03*
X152650000Y-126000000D03*
D31*
X151007898Y-81007898D03*
D32*
X152803949Y-82803949D03*
X154600000Y-84600000D03*
X156396052Y-86396052D03*
D33*
X147400000Y-82200000D03*
X148800000Y-83600000D03*
D34*
X147000000Y-71400000D03*
D33*
X154400000Y-105000000D03*
D34*
X157600000Y-135200000D03*
X149200000Y-71400000D03*
D33*
X158800000Y-106800000D03*
X106125000Y-114500000D03*
X133860000Y-96110000D03*
X139400000Y-91500000D03*
X136400000Y-104600000D03*
D34*
X144200000Y-68800000D03*
D33*
X135500000Y-96500000D03*
X140500000Y-92600000D03*
D34*
X124600000Y-79600000D03*
X124200000Y-74200000D03*
X164400000Y-66000000D03*
D33*
X134300000Y-94500000D03*
D34*
X148000000Y-64800000D03*
X179600000Y-115800000D03*
D33*
X147600000Y-80200000D03*
X157400000Y-112200000D03*
X154400000Y-106400000D03*
X151800000Y-86600000D03*
D35*
X144000000Y-88000000D03*
D34*
X154500000Y-59500000D03*
X159000000Y-61500000D03*
X144000000Y-61500000D03*
D33*
X164600000Y-88600000D03*
X136800000Y-81000000D03*
D34*
X131500000Y-61500000D03*
X161000000Y-61500000D03*
D33*
X150600000Y-100000000D03*
D34*
X165000000Y-59500000D03*
D33*
X126000000Y-94200000D03*
D35*
X141000000Y-93400000D03*
D34*
X159000000Y-59500000D03*
X140000000Y-71600000D03*
X142400000Y-63400000D03*
X131500000Y-59500000D03*
X154500000Y-61500000D03*
D33*
X164600000Y-84200000D03*
D34*
X138800000Y-63400000D03*
X135500000Y-59500000D03*
X165000000Y-61500000D03*
X137500000Y-59500000D03*
X152000000Y-61500000D03*
X149000000Y-62200000D03*
D33*
X135600000Y-93200000D03*
D34*
X140600000Y-62800000D03*
D33*
X149000000Y-101600000D03*
D34*
X137500000Y-61500000D03*
X133500000Y-59500000D03*
X150000000Y-59500000D03*
X163000000Y-59500000D03*
X146000000Y-59500000D03*
X163000000Y-61500000D03*
X147000000Y-62200000D03*
X142000000Y-59200000D03*
X161000000Y-59500000D03*
X133500000Y-61500000D03*
D33*
X130800000Y-85000000D03*
X144200000Y-83200000D03*
D34*
X178000000Y-115800000D03*
X140600000Y-68800000D03*
X156500000Y-61500000D03*
D35*
X144600000Y-88600000D03*
D34*
X144000000Y-59500000D03*
D33*
X133800000Y-84000000D03*
X150200000Y-85400000D03*
X164600000Y-86400000D03*
X129000000Y-88600000D03*
D34*
X129500000Y-61500000D03*
X148000000Y-59500000D03*
D33*
X127800000Y-96000000D03*
D34*
X139600000Y-59200000D03*
D33*
X135200000Y-82400000D03*
D34*
X164400000Y-64200000D03*
X135500000Y-61500000D03*
X156500000Y-59500000D03*
X129500000Y-59500000D03*
X152000000Y-59500000D03*
D35*
X158000000Y-100200000D03*
X159600000Y-99200000D03*
X158452641Y-95347359D03*
X156000000Y-97800000D03*
X136600000Y-87600000D03*
X137400000Y-87400000D03*
X140600000Y-89200000D03*
X139800000Y-88600000D03*
X146939303Y-97939303D03*
X113300000Y-106800000D03*
X150000000Y-102800000D03*
X114700000Y-106200000D03*
X130725000Y-93125000D03*
X139800000Y-82000000D03*
X136000000Y-88400000D03*
X141600000Y-87000000D03*
X145400000Y-80200000D03*
X146800000Y-87400000D03*
X141000000Y-81000000D03*
X142800000Y-79000000D03*
X129000000Y-83800000D03*
D33*
X156815204Y-115349500D03*
X156600000Y-113000000D03*
D35*
X160000000Y-101800000D03*
X163000000Y-98800000D03*
X167000000Y-97800000D03*
X140291689Y-81502460D03*
X164400000Y-108200000D03*
X163400000Y-113200000D03*
X142800000Y-87000000D03*
D33*
X165200000Y-126000000D03*
D36*
X130600000Y-129500000D03*
D37*
X138592963Y-129200000D02*
X143496481Y-124296481D01*
X143496481Y-124296481D02*
X143503519Y-124296481D01*
X144400000Y-123400000D02*
X151000000Y-123400000D01*
X151000000Y-123400000D02*
X151525000Y-122875000D01*
X143503519Y-124296481D02*
X144400000Y-123400000D01*
X151525000Y-122875000D02*
X151525000Y-120500000D01*
X134500000Y-130500000D02*
X134300000Y-130700000D01*
X134500000Y-130500000D02*
X135800000Y-129200000D01*
X133350000Y-131650000D02*
X134500000Y-130500000D01*
X135800000Y-129200000D02*
X138592963Y-129200000D01*
G04 #@! TA.AperFunction,Conductor*
G36*
X166000000Y-64700000D02*
G01*
X161358000Y-64700000D01*
X161358000Y-64147115D01*
X161353525Y-64131876D01*
X161352135Y-64130671D01*
X161344452Y-64129000D01*
X158660116Y-64129000D01*
X158644877Y-64133475D01*
X158643672Y-64134865D01*
X158642001Y-64142548D01*
X158642001Y-64700000D01*
X157010393Y-64700000D01*
X157010393Y-64146985D01*
X157005918Y-64131746D01*
X157004528Y-64130541D01*
X156996845Y-64128870D01*
X154312509Y-64128870D01*
X154297270Y-64133345D01*
X154296065Y-64134735D01*
X154294394Y-64142418D01*
X154294394Y-64700000D01*
X151300000Y-64700000D01*
X151300000Y-63602755D01*
X154294393Y-63602755D01*
X154298868Y-63617994D01*
X154300258Y-63619199D01*
X154307941Y-63620870D01*
X155380278Y-63620870D01*
X155395517Y-63616395D01*
X155396722Y-63615005D01*
X155398393Y-63607322D01*
X155398393Y-63602755D01*
X155906393Y-63602755D01*
X155910868Y-63617994D01*
X155912258Y-63619199D01*
X155919941Y-63620870D01*
X156992277Y-63620870D01*
X157007516Y-63616395D01*
X157008721Y-63615005D01*
X157010392Y-63607322D01*
X157010392Y-63602885D01*
X158642000Y-63602885D01*
X158646475Y-63618124D01*
X158647865Y-63619329D01*
X158655548Y-63621000D01*
X159727885Y-63621000D01*
X159743124Y-63616525D01*
X159744329Y-63615135D01*
X159746000Y-63607452D01*
X159746000Y-63602885D01*
X160254000Y-63602885D01*
X160258475Y-63618124D01*
X160259865Y-63619329D01*
X160267548Y-63621000D01*
X161339884Y-63621000D01*
X161355123Y-63616525D01*
X161356328Y-63615135D01*
X161357999Y-63607452D01*
X161357999Y-62980331D01*
X161357629Y-62973510D01*
X161352105Y-62922648D01*
X161348479Y-62907396D01*
X161303324Y-62786946D01*
X161294786Y-62771351D01*
X161218285Y-62669276D01*
X161205724Y-62656715D01*
X161103649Y-62580214D01*
X161088054Y-62571676D01*
X160967606Y-62526522D01*
X160952351Y-62522895D01*
X160901486Y-62517369D01*
X160894672Y-62517000D01*
X160272115Y-62517000D01*
X160256876Y-62521475D01*
X160255671Y-62522865D01*
X160254000Y-62530548D01*
X160254000Y-63602885D01*
X159746000Y-63602885D01*
X159746000Y-62535116D01*
X159741525Y-62519877D01*
X159740135Y-62518672D01*
X159732452Y-62517001D01*
X159105331Y-62517001D01*
X159098510Y-62517371D01*
X159047648Y-62522895D01*
X159032396Y-62526521D01*
X158911946Y-62571676D01*
X158896351Y-62580214D01*
X158794276Y-62656715D01*
X158781715Y-62669276D01*
X158705214Y-62771351D01*
X158696676Y-62786946D01*
X158651522Y-62907394D01*
X158647895Y-62922649D01*
X158642369Y-62973514D01*
X158642000Y-62980328D01*
X158642000Y-63602885D01*
X157010392Y-63602885D01*
X157010392Y-62980201D01*
X157010022Y-62973380D01*
X157004498Y-62922518D01*
X157000872Y-62907266D01*
X156955717Y-62786816D01*
X156947179Y-62771221D01*
X156870678Y-62669146D01*
X156858117Y-62656585D01*
X156756042Y-62580084D01*
X156740447Y-62571546D01*
X156619999Y-62526392D01*
X156604744Y-62522765D01*
X156553879Y-62517239D01*
X156547065Y-62516870D01*
X155924508Y-62516870D01*
X155909269Y-62521345D01*
X155908064Y-62522735D01*
X155906393Y-62530418D01*
X155906393Y-63602755D01*
X155398393Y-63602755D01*
X155398393Y-62534986D01*
X155393918Y-62519747D01*
X155392528Y-62518542D01*
X155384845Y-62516871D01*
X154757724Y-62516871D01*
X154750903Y-62517241D01*
X154700041Y-62522765D01*
X154684789Y-62526391D01*
X154564339Y-62571546D01*
X154548744Y-62580084D01*
X154446669Y-62656585D01*
X154434108Y-62669146D01*
X154357607Y-62771221D01*
X154349069Y-62786816D01*
X154303915Y-62907264D01*
X154300288Y-62922519D01*
X154294762Y-62973384D01*
X154294393Y-62980198D01*
X154294393Y-63602755D01*
X151300000Y-63602755D01*
X151300000Y-63400000D01*
X143300000Y-63400000D01*
X143300000Y-64500000D01*
X137800000Y-64500000D01*
X137800000Y-63400000D01*
X128300000Y-63400000D01*
X128300000Y-58500000D01*
X166000000Y-58500000D01*
X166000000Y-64700000D01*
G37*
G04 #@! TD.AperFunction*
G04 #@! TA.AperFunction,Conductor*
G36*
X128300000Y-63400000D02*
G01*
X137800000Y-63400000D01*
X137800000Y-64500000D01*
X143300000Y-64500000D01*
X143300000Y-63400000D01*
X151300000Y-63400000D01*
X151300000Y-64700000D01*
X166000000Y-64700000D01*
X166000000Y-64000000D01*
X169694450Y-64000000D01*
X169714639Y-64462409D01*
X169775053Y-64921299D01*
X169875232Y-65373177D01*
X169876060Y-65375802D01*
X169876061Y-65375807D01*
X170013369Y-65811290D01*
X170014414Y-65814605D01*
X170191539Y-66242222D01*
X170405259Y-66652775D01*
X170653948Y-67043138D01*
X170798776Y-67231882D01*
X170902624Y-67367219D01*
X170935713Y-67410342D01*
X171248410Y-67751590D01*
X171589658Y-68064287D01*
X171591820Y-68065946D01*
X171591826Y-68065951D01*
X171604874Y-68075963D01*
X171956862Y-68346052D01*
X172347225Y-68594741D01*
X172757778Y-68808461D01*
X172760319Y-68809513D01*
X172760320Y-68809514D01*
X172791654Y-68822493D01*
X173185395Y-68985586D01*
X173188015Y-68986412D01*
X173188023Y-68986415D01*
X173624193Y-69123939D01*
X173624198Y-69123940D01*
X173626823Y-69124768D01*
X174078701Y-69224947D01*
X174081420Y-69225305D01*
X174081426Y-69225306D01*
X174253504Y-69247960D01*
X174537591Y-69285361D01*
X175000000Y-69305550D01*
X175462409Y-69285361D01*
X175746496Y-69247960D01*
X175918574Y-69225306D01*
X175918580Y-69225305D01*
X175921299Y-69224947D01*
X176373177Y-69124768D01*
X176375802Y-69123940D01*
X176375807Y-69123939D01*
X176811977Y-68986415D01*
X176811985Y-68986412D01*
X176814605Y-68985586D01*
X177208346Y-68822493D01*
X177239680Y-68809514D01*
X177239681Y-68809513D01*
X177242222Y-68808461D01*
X177652775Y-68594741D01*
X178043138Y-68346052D01*
X178395126Y-68075963D01*
X178408174Y-68065951D01*
X178408180Y-68065946D01*
X178410342Y-68064287D01*
X178751590Y-67751590D01*
X179064287Y-67410342D01*
X179097377Y-67367219D01*
X179201224Y-67231882D01*
X179346052Y-67043138D01*
X179594741Y-66652775D01*
X179808461Y-66242222D01*
X179985586Y-65814605D01*
X179986632Y-65811290D01*
X180123939Y-65375807D01*
X180123940Y-65375802D01*
X180124768Y-65373177D01*
X180224947Y-64921299D01*
X180285361Y-64462409D01*
X180305550Y-64000000D01*
X180285361Y-63537591D01*
X180247960Y-63253504D01*
X180225306Y-63081426D01*
X180225305Y-63081420D01*
X180224947Y-63078701D01*
X180124768Y-62626823D01*
X180115408Y-62597137D01*
X179986415Y-62188023D01*
X179986412Y-62188015D01*
X179985586Y-62185395D01*
X179810293Y-61762201D01*
X179809514Y-61760320D01*
X179809513Y-61760319D01*
X179808461Y-61757778D01*
X179594741Y-61347225D01*
X179346052Y-60956862D01*
X179136798Y-60684156D01*
X179065951Y-60591826D01*
X179065946Y-60591820D01*
X179064287Y-60589658D01*
X178751590Y-60248410D01*
X178410342Y-59935713D01*
X178408180Y-59934054D01*
X178408174Y-59934049D01*
X178258301Y-59819048D01*
X178043138Y-59653948D01*
X177652775Y-59405259D01*
X177242222Y-59191539D01*
X176814605Y-59014414D01*
X176811985Y-59013588D01*
X176811977Y-59013585D01*
X176375807Y-58876061D01*
X176375802Y-58876060D01*
X176373177Y-58875232D01*
X175921299Y-58775053D01*
X175918580Y-58774695D01*
X175918574Y-58774694D01*
X175746496Y-58752040D01*
X175462409Y-58714639D01*
X175000000Y-58694450D01*
X174537591Y-58714639D01*
X174253504Y-58752040D01*
X174081426Y-58774694D01*
X174081420Y-58774695D01*
X174078701Y-58775053D01*
X173626823Y-58875232D01*
X173624198Y-58876060D01*
X173624193Y-58876061D01*
X173188023Y-59013585D01*
X173188015Y-59013588D01*
X173185395Y-59014414D01*
X172757778Y-59191539D01*
X172347225Y-59405259D01*
X171956862Y-59653948D01*
X171741699Y-59819048D01*
X171591826Y-59934049D01*
X171591820Y-59934054D01*
X171589658Y-59935713D01*
X171248410Y-60248410D01*
X170935713Y-60589658D01*
X170934054Y-60591820D01*
X170934049Y-60591826D01*
X170863202Y-60684156D01*
X170653948Y-60956862D01*
X170405259Y-61347225D01*
X170191539Y-61757778D01*
X170190487Y-61760319D01*
X170190486Y-61760320D01*
X170189707Y-61762201D01*
X170014414Y-62185395D01*
X170013588Y-62188015D01*
X170013585Y-62188023D01*
X169884592Y-62597137D01*
X169875232Y-62626823D01*
X169775053Y-63078701D01*
X169774695Y-63081420D01*
X169774694Y-63081426D01*
X169752040Y-63253504D01*
X169714639Y-63537591D01*
X169694450Y-64000000D01*
X166000000Y-64000000D01*
X166000000Y-58300000D01*
X174962729Y-58300000D01*
X174984608Y-58301914D01*
X174989144Y-58302714D01*
X174989145Y-58302714D01*
X175000000Y-58304628D01*
X175010859Y-58302713D01*
X175015203Y-58302713D01*
X175034973Y-58301374D01*
X175442267Y-58317377D01*
X175452130Y-58318153D01*
X175886766Y-58369595D01*
X175896537Y-58371143D01*
X176325785Y-58456526D01*
X176335406Y-58458836D01*
X176756631Y-58577634D01*
X176766039Y-58580691D01*
X177176652Y-58732173D01*
X177185790Y-58735958D01*
X177305300Y-58791053D01*
X177583245Y-58919188D01*
X177592060Y-58923679D01*
X177973926Y-59137534D01*
X177982362Y-59142704D01*
X178346266Y-59385856D01*
X178354254Y-59391660D01*
X178373383Y-59406740D01*
X178697964Y-59662620D01*
X178705487Y-59669045D01*
X178780003Y-59737926D01*
X179026885Y-59966141D01*
X179033859Y-59973115D01*
X179170292Y-60120708D01*
X179330955Y-60294513D01*
X179337380Y-60302036D01*
X179360016Y-60330749D01*
X179560631Y-60585227D01*
X179608334Y-60645738D01*
X179614144Y-60653734D01*
X179742651Y-60846059D01*
X179857296Y-61017638D01*
X179862466Y-61026074D01*
X180076321Y-61407940D01*
X180080812Y-61416755D01*
X180260901Y-61807395D01*
X180264041Y-61814207D01*
X180267827Y-61823348D01*
X180419309Y-62233961D01*
X180422366Y-62243369D01*
X180541164Y-62664594D01*
X180543474Y-62674215D01*
X180628857Y-63103463D01*
X180630405Y-63113234D01*
X180681847Y-63547870D01*
X180682623Y-63557733D01*
X180698626Y-63965027D01*
X180697287Y-63984797D01*
X180697287Y-63989141D01*
X180695372Y-64000000D01*
X180697286Y-64010855D01*
X180697286Y-64010856D01*
X180698086Y-64015392D01*
X180700000Y-64037271D01*
X180700000Y-117374000D01*
X180679998Y-117442121D01*
X180626342Y-117488614D01*
X180574000Y-117500000D01*
X165426000Y-117500000D01*
X165357879Y-117479998D01*
X165311386Y-117426342D01*
X165300000Y-117374000D01*
X165300000Y-117052256D01*
X165300562Y-117040756D01*
X165303740Y-117029782D01*
X165300470Y-116992025D01*
X165300000Y-116981153D01*
X165300000Y-116972095D01*
X165298779Y-116965538D01*
X165297121Y-116953352D01*
X165295101Y-116930033D01*
X165294097Y-116918440D01*
X165288988Y-116907989D01*
X165288080Y-116904714D01*
X165286864Y-116901563D01*
X165284735Y-116890130D01*
X165266338Y-116860284D01*
X165260412Y-116849528D01*
X165245017Y-116818034D01*
X165236485Y-116810120D01*
X165234467Y-116807403D01*
X165232197Y-116804900D01*
X165226091Y-116794993D01*
X165198195Y-116773781D01*
X165188784Y-116765871D01*
X165163083Y-116742029D01*
X165152277Y-116737717D01*
X165149410Y-116735905D01*
X165146389Y-116734386D01*
X165137131Y-116727346D01*
X165125963Y-116724112D01*
X165125957Y-116724109D01*
X165103475Y-116717599D01*
X165091833Y-116713602D01*
X165067541Y-116703910D01*
X165067535Y-116703909D01*
X165059280Y-116700615D01*
X165053007Y-116700000D01*
X165049918Y-116700000D01*
X165046855Y-116699850D01*
X165046861Y-116699736D01*
X165040756Y-116699438D01*
X165029782Y-116696260D01*
X165018189Y-116697264D01*
X165018188Y-116697264D01*
X164994482Y-116699317D01*
X164993538Y-116699399D01*
X164992025Y-116699530D01*
X164981153Y-116700000D01*
X132852256Y-116700000D01*
X132840756Y-116699438D01*
X132829782Y-116696260D01*
X132818189Y-116697264D01*
X132818188Y-116697264D01*
X132794482Y-116699317D01*
X132793538Y-116699399D01*
X132792025Y-116699530D01*
X132781153Y-116700000D01*
X132772095Y-116700000D01*
X132766394Y-116701062D01*
X132766391Y-116701062D01*
X132765539Y-116701221D01*
X132753352Y-116702879D01*
X132732860Y-116704654D01*
X132718440Y-116705903D01*
X132707989Y-116711012D01*
X132704714Y-116711920D01*
X132701563Y-116713136D01*
X132690130Y-116715265D01*
X132660284Y-116733662D01*
X132649528Y-116739588D01*
X132618034Y-116754983D01*
X132610120Y-116763515D01*
X132607403Y-116765533D01*
X132604900Y-116767803D01*
X132594993Y-116773909D01*
X132573782Y-116801803D01*
X132565871Y-116811216D01*
X132542029Y-116836917D01*
X132537717Y-116847723D01*
X132535905Y-116850590D01*
X132534386Y-116853611D01*
X132527346Y-116862869D01*
X132524112Y-116874037D01*
X132524109Y-116874043D01*
X132517599Y-116896525D01*
X132513602Y-116908167D01*
X132503910Y-116932459D01*
X132503909Y-116932465D01*
X132500615Y-116940720D01*
X132500000Y-116946993D01*
X132500000Y-116950082D01*
X132499850Y-116953145D01*
X132499736Y-116953139D01*
X132499438Y-116959244D01*
X132496260Y-116970218D01*
X132497264Y-116981811D01*
X132497264Y-116981812D01*
X132499530Y-117007975D01*
X132500000Y-117018847D01*
X132500000Y-117374000D01*
X132479998Y-117442121D01*
X132426342Y-117488614D01*
X132374000Y-117500000D01*
X129826000Y-117500000D01*
X129757879Y-117479998D01*
X129711386Y-117426342D01*
X129700000Y-117374000D01*
X129700000Y-117052256D01*
X129700562Y-117040756D01*
X129703740Y-117029782D01*
X129700470Y-116992025D01*
X129700000Y-116981153D01*
X129700000Y-116972095D01*
X129698779Y-116965538D01*
X129697121Y-116953352D01*
X129695101Y-116930033D01*
X129694097Y-116918440D01*
X129688988Y-116907989D01*
X129688080Y-116904714D01*
X129686864Y-116901563D01*
X129684735Y-116890130D01*
X129666338Y-116860284D01*
X129660412Y-116849528D01*
X129645017Y-116818034D01*
X129636485Y-116810120D01*
X129634467Y-116807403D01*
X129632197Y-116804900D01*
X129626091Y-116794993D01*
X129598195Y-116773781D01*
X129588784Y-116765871D01*
X129563083Y-116742029D01*
X129552277Y-116737717D01*
X129549410Y-116735905D01*
X129546389Y-116734386D01*
X129537131Y-116727346D01*
X129525963Y-116724112D01*
X129525957Y-116724109D01*
X129503475Y-116717599D01*
X129491833Y-116713602D01*
X129467541Y-116703910D01*
X129467535Y-116703909D01*
X129459280Y-116700615D01*
X129453007Y-116700000D01*
X129449918Y-116700000D01*
X129446855Y-116699850D01*
X129446861Y-116699736D01*
X129440756Y-116699438D01*
X129429782Y-116696260D01*
X129418189Y-116697264D01*
X129418188Y-116697264D01*
X129394482Y-116699317D01*
X129393538Y-116699399D01*
X129392025Y-116699530D01*
X129381153Y-116700000D01*
X113052256Y-116700000D01*
X113040756Y-116699438D01*
X113029782Y-116696260D01*
X113018189Y-116697264D01*
X113018188Y-116697264D01*
X112994482Y-116699317D01*
X112993538Y-116699399D01*
X112992025Y-116699530D01*
X112981153Y-116700000D01*
X112972095Y-116700000D01*
X112966394Y-116701062D01*
X112966391Y-116701062D01*
X112965539Y-116701221D01*
X112953352Y-116702879D01*
X112932860Y-116704654D01*
X112918440Y-116705903D01*
X112907989Y-116711012D01*
X112904714Y-116711920D01*
X112901563Y-116713136D01*
X112890130Y-116715265D01*
X112860284Y-116733662D01*
X112849528Y-116739588D01*
X112818034Y-116754983D01*
X112810120Y-116763515D01*
X112807403Y-116765533D01*
X112804900Y-116767803D01*
X112794993Y-116773909D01*
X112773782Y-116801803D01*
X112765871Y-116811216D01*
X112742029Y-116836917D01*
X112737717Y-116847723D01*
X112735905Y-116850590D01*
X112734386Y-116853611D01*
X112727346Y-116862869D01*
X112724112Y-116874037D01*
X112724109Y-116874043D01*
X112717599Y-116896525D01*
X112713602Y-116908167D01*
X112703910Y-116932459D01*
X112703909Y-116932465D01*
X112700615Y-116940720D01*
X112700000Y-116946993D01*
X112700000Y-116950082D01*
X112699850Y-116953145D01*
X112699736Y-116953139D01*
X112699438Y-116959244D01*
X112696260Y-116970218D01*
X112697264Y-116981811D01*
X112697264Y-116981812D01*
X112699530Y-117007975D01*
X112700000Y-117018847D01*
X112700000Y-117374000D01*
X112679998Y-117442121D01*
X112626342Y-117488614D01*
X112574000Y-117500000D01*
X103426000Y-117500000D01*
X103357879Y-117479998D01*
X103311386Y-117426342D01*
X103300000Y-117374000D01*
X103300000Y-115342111D01*
X156109598Y-115342111D01*
X156128203Y-115510635D01*
X156136071Y-115532134D01*
X156171346Y-115628527D01*
X156186470Y-115669856D01*
X156190706Y-115676159D01*
X156190706Y-115676160D01*
X156203778Y-115695613D01*
X156281034Y-115810583D01*
X156286646Y-115815690D01*
X156286649Y-115815693D01*
X156400816Y-115919577D01*
X156400820Y-115919580D01*
X156406437Y-115924691D01*
X156413110Y-115928314D01*
X156413114Y-115928317D01*
X156548762Y-116001967D01*
X156548764Y-116001968D01*
X156555439Y-116005592D01*
X156562788Y-116007520D01*
X156712087Y-116046688D01*
X156712089Y-116046688D01*
X156719437Y-116048616D01*
X156805813Y-116049973D01*
X156881365Y-116051160D01*
X156881368Y-116051160D01*
X156888964Y-116051279D01*
X156896369Y-116049583D01*
X156896370Y-116049583D01*
X156956790Y-116035745D01*
X157054233Y-116013428D01*
X157205702Y-115937247D01*
X157334627Y-115827134D01*
X157362207Y-115788753D01*
X178794514Y-115788753D01*
X178795201Y-115795760D01*
X178795201Y-115795763D01*
X178797434Y-115818532D01*
X178812039Y-115967486D01*
X178814262Y-115974168D01*
X178814262Y-115974169D01*
X178839349Y-116049583D01*
X178868726Y-116137896D01*
X178961759Y-116291512D01*
X179086514Y-116420699D01*
X179236789Y-116519036D01*
X179405116Y-116581636D01*
X179412097Y-116582567D01*
X179412099Y-116582568D01*
X179576149Y-116604457D01*
X179576153Y-116604457D01*
X179583130Y-116605388D01*
X179590142Y-116604750D01*
X179590146Y-116604750D01*
X179754960Y-116589751D01*
X179754961Y-116589751D01*
X179761981Y-116589112D01*
X179932782Y-116533615D01*
X179963714Y-116515176D01*
X180080992Y-116445265D01*
X180080994Y-116445264D01*
X180087044Y-116441657D01*
X180217099Y-116317807D01*
X180234570Y-116291512D01*
X180312582Y-116174093D01*
X180316483Y-116168222D01*
X180361872Y-116048735D01*
X180377757Y-116006919D01*
X180377758Y-116006914D01*
X180380257Y-116000336D01*
X180405251Y-115822493D01*
X180405417Y-115810583D01*
X180405510Y-115803963D01*
X180405510Y-115803958D01*
X180405565Y-115800000D01*
X180385546Y-115621528D01*
X180379427Y-115603955D01*
X180328803Y-115458584D01*
X180326485Y-115451927D01*
X180259915Y-115345392D01*
X180235049Y-115305599D01*
X180231316Y-115299625D01*
X180167771Y-115235635D01*
X180109733Y-115177190D01*
X180109729Y-115177187D01*
X180104770Y-115172193D01*
X180096484Y-115166934D01*
X180046860Y-115135442D01*
X179953136Y-115075963D01*
X179923352Y-115065357D01*
X179790586Y-115018081D01*
X179790581Y-115018080D01*
X179783951Y-115015719D01*
X179776965Y-115014886D01*
X179776961Y-115014885D01*
X179649177Y-114999648D01*
X179605624Y-114994455D01*
X179598621Y-114995191D01*
X179598620Y-114995191D01*
X179434025Y-115012490D01*
X179434021Y-115012491D01*
X179427017Y-115013227D01*
X179420346Y-115015498D01*
X179263677Y-115068832D01*
X179263674Y-115068833D01*
X179257007Y-115071103D01*
X179251009Y-115074793D01*
X179251007Y-115074794D01*
X179224406Y-115091159D01*
X179104045Y-115165206D01*
X179099014Y-115170132D01*
X179099011Y-115170135D01*
X179036883Y-115230976D01*
X178975732Y-115290859D01*
X178971913Y-115296784D01*
X178971912Y-115296786D01*
X178882265Y-115435891D01*
X178878446Y-115441817D01*
X178817022Y-115610578D01*
X178794514Y-115788753D01*
X157362207Y-115788753D01*
X157433565Y-115689447D01*
X157441441Y-115669856D01*
X157493970Y-115539187D01*
X157493971Y-115539185D01*
X157496805Y-115532134D01*
X157520694Y-115364278D01*
X157520849Y-115349500D01*
X157519044Y-115334580D01*
X157513156Y-115285927D01*
X157500480Y-115181180D01*
X157440549Y-115022577D01*
X157344516Y-114882849D01*
X157303285Y-114846113D01*
X157223596Y-114775112D01*
X157223592Y-114775110D01*
X157217925Y-114770060D01*
X157068085Y-114690724D01*
X156903645Y-114649419D01*
X156896047Y-114649379D01*
X156896045Y-114649379D01*
X156818872Y-114648975D01*
X156734099Y-114648531D01*
X156726712Y-114650305D01*
X156726708Y-114650305D01*
X156623400Y-114675108D01*
X156569236Y-114688112D01*
X156562492Y-114691593D01*
X156562489Y-114691594D01*
X156557293Y-114694276D01*
X156418573Y-114765875D01*
X156412851Y-114770867D01*
X156412849Y-114770868D01*
X156341740Y-114832900D01*
X156290808Y-114877331D01*
X156193317Y-115016047D01*
X156131728Y-115174013D01*
X156130736Y-115181546D01*
X156130736Y-115181547D01*
X156114405Y-115305599D01*
X156109598Y-115342111D01*
X103300000Y-115342111D01*
X103300000Y-114492611D01*
X105419394Y-114492611D01*
X105437999Y-114661135D01*
X105496266Y-114820356D01*
X105500502Y-114826659D01*
X105500502Y-114826660D01*
X105513574Y-114846113D01*
X105590830Y-114961083D01*
X105596442Y-114966190D01*
X105596445Y-114966193D01*
X105710612Y-115070077D01*
X105710616Y-115070080D01*
X105716233Y-115075191D01*
X105722906Y-115078814D01*
X105722910Y-115078817D01*
X105858558Y-115152467D01*
X105858560Y-115152468D01*
X105865235Y-115156092D01*
X105872584Y-115158020D01*
X106021883Y-115197188D01*
X106021885Y-115197188D01*
X106029233Y-115199116D01*
X106115609Y-115200473D01*
X106191161Y-115201660D01*
X106191164Y-115201660D01*
X106198760Y-115201779D01*
X106206165Y-115200083D01*
X106206166Y-115200083D01*
X106287099Y-115181547D01*
X106364029Y-115163928D01*
X106515498Y-115087747D01*
X106644423Y-114977634D01*
X106743361Y-114839947D01*
X106751237Y-114820356D01*
X106803766Y-114689687D01*
X106803767Y-114689685D01*
X106806601Y-114682634D01*
X106830490Y-114514778D01*
X106830645Y-114500000D01*
X106828840Y-114485080D01*
X106816596Y-114383908D01*
X106810276Y-114331680D01*
X106750345Y-114173077D01*
X106719607Y-114128353D01*
X106658614Y-114039608D01*
X106658613Y-114039607D01*
X106654312Y-114033349D01*
X106582649Y-113969499D01*
X106533392Y-113925612D01*
X106533388Y-113925610D01*
X106527721Y-113920560D01*
X106475783Y-113893060D01*
X106435833Y-113871908D01*
X106377881Y-113841224D01*
X106213441Y-113799919D01*
X106205843Y-113799879D01*
X106205841Y-113799879D01*
X106128668Y-113799475D01*
X106043895Y-113799031D01*
X106036508Y-113800805D01*
X106036504Y-113800805D01*
X105893162Y-113835220D01*
X105879032Y-113838612D01*
X105872288Y-113842093D01*
X105872285Y-113842094D01*
X105795058Y-113881954D01*
X105728369Y-113916375D01*
X105722647Y-113921367D01*
X105722645Y-113921368D01*
X105651069Y-113983808D01*
X105600604Y-114027831D01*
X105590380Y-114042379D01*
X105508075Y-114159487D01*
X105503113Y-114166547D01*
X105441524Y-114324513D01*
X105440532Y-114332046D01*
X105440532Y-114332047D01*
X105433705Y-114383908D01*
X105419394Y-114492611D01*
X103300000Y-114492611D01*
X103300000Y-113151069D01*
X131870164Y-113151069D01*
X131883392Y-113352894D01*
X131933178Y-113548928D01*
X132017856Y-113732607D01*
X132021189Y-113737323D01*
X132116304Y-113871908D01*
X132134588Y-113897780D01*
X132138730Y-113901815D01*
X132195454Y-113957073D01*
X132279466Y-114038913D01*
X132447637Y-114151282D01*
X132452940Y-114153560D01*
X132452943Y-114153562D01*
X132541291Y-114191519D01*
X132633470Y-114231122D01*
X132830740Y-114275760D01*
X132836509Y-114275987D01*
X132836512Y-114275987D01*
X132912683Y-114278979D01*
X133032842Y-114283700D01*
X133119132Y-114271189D01*
X133227286Y-114255508D01*
X133227291Y-114255507D01*
X133233007Y-114254678D01*
X133238479Y-114252820D01*
X133238481Y-114252820D01*
X133419067Y-114191519D01*
X133419069Y-114191518D01*
X133424531Y-114189664D01*
X133601001Y-114090837D01*
X133663433Y-114038913D01*
X133752073Y-113965191D01*
X133756505Y-113961505D01*
X133885837Y-113806001D01*
X133889266Y-113799879D01*
X133929875Y-113727364D01*
X133984664Y-113629531D01*
X133997194Y-113592621D01*
X134047820Y-113443481D01*
X134047820Y-113443479D01*
X134049678Y-113438007D01*
X134050507Y-113432291D01*
X134050508Y-113432286D01*
X134078167Y-113241516D01*
X134078700Y-113237842D01*
X134080215Y-113180000D01*
X134077557Y-113151069D01*
X134410164Y-113151069D01*
X134423392Y-113352894D01*
X134473178Y-113548928D01*
X134557856Y-113732607D01*
X134561189Y-113737323D01*
X134656304Y-113871908D01*
X134674588Y-113897780D01*
X134678730Y-113901815D01*
X134735454Y-113957073D01*
X134819466Y-114038913D01*
X134987637Y-114151282D01*
X134992940Y-114153560D01*
X134992943Y-114153562D01*
X135081291Y-114191519D01*
X135173470Y-114231122D01*
X135370740Y-114275760D01*
X135376509Y-114275987D01*
X135376512Y-114275987D01*
X135452683Y-114278979D01*
X135572842Y-114283700D01*
X135659132Y-114271189D01*
X135767286Y-114255508D01*
X135767291Y-114255507D01*
X135773007Y-114254678D01*
X135778479Y-114252820D01*
X135778481Y-114252820D01*
X135959067Y-114191519D01*
X135959069Y-114191518D01*
X135964531Y-114189664D01*
X136141001Y-114090837D01*
X136203433Y-114038913D01*
X136292073Y-113965191D01*
X136296505Y-113961505D01*
X136425837Y-113806001D01*
X136429266Y-113799879D01*
X136469875Y-113727364D01*
X136524664Y-113629531D01*
X136537194Y-113592621D01*
X136587820Y-113443481D01*
X136587820Y-113443479D01*
X136589678Y-113438007D01*
X136590507Y-113432291D01*
X136590508Y-113432286D01*
X136618167Y-113241516D01*
X136618700Y-113237842D01*
X136620215Y-113180000D01*
X136617557Y-113151069D01*
X136950164Y-113151069D01*
X136963392Y-113352894D01*
X137013178Y-113548928D01*
X137097856Y-113732607D01*
X137101189Y-113737323D01*
X137196304Y-113871908D01*
X137214588Y-113897780D01*
X137218730Y-113901815D01*
X137275454Y-113957073D01*
X137359466Y-114038913D01*
X137527637Y-114151282D01*
X137532940Y-114153560D01*
X137532943Y-114153562D01*
X137621291Y-114191519D01*
X137713470Y-114231122D01*
X137910740Y-114275760D01*
X137916509Y-114275987D01*
X137916512Y-114275987D01*
X137992683Y-114278979D01*
X138112842Y-114283700D01*
X138199132Y-114271189D01*
X138307286Y-114255508D01*
X138307291Y-114255507D01*
X138313007Y-114254678D01*
X138318479Y-114252820D01*
X138318481Y-114252820D01*
X138499067Y-114191519D01*
X138499069Y-114191518D01*
X138504531Y-114189664D01*
X138681001Y-114090837D01*
X138743433Y-114038913D01*
X138832073Y-113965191D01*
X138836505Y-113961505D01*
X138965837Y-113806001D01*
X138969266Y-113799879D01*
X139009875Y-113727364D01*
X139064664Y-113629531D01*
X139077194Y-113592621D01*
X139127820Y-113443481D01*
X139127820Y-113443479D01*
X139129678Y-113438007D01*
X139130507Y-113432291D01*
X139130508Y-113432286D01*
X139144980Y-113332469D01*
X145344500Y-113332469D01*
X145359439Y-113489046D01*
X145418553Y-113690549D01*
X145442687Y-113737408D01*
X145495204Y-113839375D01*
X145514705Y-113877239D01*
X145518409Y-113881954D01*
X145640718Y-114037662D01*
X145640722Y-114037667D01*
X145644424Y-114042379D01*
X145648954Y-114046310D01*
X145648955Y-114046311D01*
X145798498Y-114176079D01*
X145798503Y-114176083D01*
X145803029Y-114180010D01*
X145984799Y-114285166D01*
X146077722Y-114317434D01*
X146177509Y-114352086D01*
X146177511Y-114352086D01*
X146183174Y-114354053D01*
X146189109Y-114354914D01*
X146189111Y-114354914D01*
X146385056Y-114383325D01*
X146385059Y-114383325D01*
X146390996Y-114384186D01*
X146600767Y-114374477D01*
X146757670Y-114336663D01*
X146799085Y-114326682D01*
X146799087Y-114326681D01*
X146804918Y-114325276D01*
X146810376Y-114322794D01*
X146810380Y-114322793D01*
X146945466Y-114261373D01*
X146996081Y-114238360D01*
X147167360Y-114116863D01*
X147312575Y-113965169D01*
X147359135Y-113893060D01*
X147423233Y-113793791D01*
X147423234Y-113793788D01*
X147426485Y-113788754D01*
X147447613Y-113736330D01*
X147502739Y-113599545D01*
X147502740Y-113599542D01*
X147504981Y-113593981D01*
X147506129Y-113588100D01*
X147506131Y-113588095D01*
X147544362Y-113392324D01*
X147544362Y-113392321D01*
X147545230Y-113387878D01*
X147545500Y-113382357D01*
X147545500Y-113332469D01*
X147884500Y-113332469D01*
X147899439Y-113489046D01*
X147958553Y-113690549D01*
X147982687Y-113737408D01*
X148035204Y-113839375D01*
X148054705Y-113877239D01*
X148058409Y-113881954D01*
X148180718Y-114037662D01*
X148180722Y-114037667D01*
X148184424Y-114042379D01*
X148188954Y-114046310D01*
X148188955Y-114046311D01*
X148338498Y-114176079D01*
X148338503Y-114176083D01*
X148343029Y-114180010D01*
X148524799Y-114285166D01*
X148617722Y-114317434D01*
X148717509Y-114352086D01*
X148717511Y-114352086D01*
X148723174Y-114354053D01*
X148729109Y-114354914D01*
X148729111Y-114354914D01*
X148925056Y-114383325D01*
X148925059Y-114383325D01*
X148930996Y-114384186D01*
X149140767Y-114374477D01*
X149297670Y-114336663D01*
X149339085Y-114326682D01*
X149339087Y-114326681D01*
X149344918Y-114325276D01*
X149350376Y-114322794D01*
X149350380Y-114322793D01*
X149485466Y-114261373D01*
X149536081Y-114238360D01*
X149696388Y-114124646D01*
X150424500Y-114124646D01*
X150427618Y-114150846D01*
X150431456Y-114159486D01*
X150431456Y-114159487D01*
X150464950Y-114234893D01*
X150473061Y-114253153D01*
X150481294Y-114261372D01*
X150481295Y-114261373D01*
X150502831Y-114282871D01*
X150552287Y-114332241D01*
X150562924Y-114336944D01*
X150562926Y-114336945D01*
X150622462Y-114363265D01*
X150654673Y-114377506D01*
X150680354Y-114380500D01*
X152369646Y-114380500D01*
X152373350Y-114380059D01*
X152373353Y-114380059D01*
X152380746Y-114379179D01*
X152395846Y-114377382D01*
X152405550Y-114373072D01*
X152487518Y-114336663D01*
X152498153Y-114331939D01*
X152577241Y-114252713D01*
X152582491Y-114240840D01*
X152615335Y-114166547D01*
X152622506Y-114150327D01*
X152625500Y-114124646D01*
X152625500Y-112992611D01*
X155894394Y-112992611D01*
X155912999Y-113161135D01*
X155971266Y-113320356D01*
X155975502Y-113326659D01*
X155975502Y-113326660D01*
X155986958Y-113343709D01*
X156065830Y-113461083D01*
X156071442Y-113466190D01*
X156071445Y-113466193D01*
X156185612Y-113570077D01*
X156185616Y-113570080D01*
X156191233Y-113575191D01*
X156197906Y-113578814D01*
X156197910Y-113578817D01*
X156333558Y-113652467D01*
X156333560Y-113652468D01*
X156340235Y-113656092D01*
X156347584Y-113658020D01*
X156496883Y-113697188D01*
X156496885Y-113697188D01*
X156504233Y-113699116D01*
X156590609Y-113700473D01*
X156666161Y-113701660D01*
X156666164Y-113701660D01*
X156673760Y-113701779D01*
X156681165Y-113700083D01*
X156681166Y-113700083D01*
X156765094Y-113680861D01*
X156839029Y-113663928D01*
X156990498Y-113587747D01*
X157099320Y-113494804D01*
X157113651Y-113482564D01*
X157113652Y-113482563D01*
X157119423Y-113477634D01*
X157218361Y-113339947D01*
X157226237Y-113320356D01*
X157274620Y-113200000D01*
X162844750Y-113200000D01*
X162863670Y-113343709D01*
X162919139Y-113477625D01*
X163007379Y-113592621D01*
X163122375Y-113680861D01*
X163256291Y-113736330D01*
X163400000Y-113755250D01*
X163543709Y-113736330D01*
X163677625Y-113680861D01*
X163792621Y-113592621D01*
X163880861Y-113477625D01*
X163936330Y-113343709D01*
X163955250Y-113200000D01*
X163936330Y-113056291D01*
X163880861Y-112922375D01*
X163792621Y-112807379D01*
X163677625Y-112719139D01*
X163543709Y-112663670D01*
X163400000Y-112644750D01*
X163256291Y-112663670D01*
X163122375Y-112719139D01*
X163007379Y-112807379D01*
X162919139Y-112922375D01*
X162863670Y-113056291D01*
X162844750Y-113200000D01*
X157274620Y-113200000D01*
X157278766Y-113189687D01*
X157278767Y-113189685D01*
X157281601Y-113182634D01*
X157305490Y-113014778D01*
X157306030Y-113014855D01*
X157330122Y-112951150D01*
X157387150Y-112908862D01*
X157432623Y-112901133D01*
X157466161Y-112901660D01*
X157466164Y-112901660D01*
X157473760Y-112901779D01*
X157481165Y-112900083D01*
X157481166Y-112900083D01*
X157541586Y-112886245D01*
X157639029Y-112863928D01*
X157790498Y-112787747D01*
X157919423Y-112677634D01*
X158018361Y-112539947D01*
X158058352Y-112440467D01*
X158078766Y-112389687D01*
X158078767Y-112389685D01*
X158081601Y-112382634D01*
X158094831Y-112289672D01*
X158104909Y-112218862D01*
X158104909Y-112218859D01*
X158105490Y-112214778D01*
X158105645Y-112200000D01*
X158085276Y-112031680D01*
X158025345Y-111873077D01*
X157929312Y-111733349D01*
X157916954Y-111722338D01*
X157808392Y-111625612D01*
X157808388Y-111625610D01*
X157802721Y-111620560D01*
X157764032Y-111600075D01*
X157716065Y-111574678D01*
X157652881Y-111541224D01*
X157488441Y-111499919D01*
X157480843Y-111499879D01*
X157480841Y-111499879D01*
X157403668Y-111499475D01*
X157318895Y-111499031D01*
X157311508Y-111500805D01*
X157311504Y-111500805D01*
X157210283Y-111525107D01*
X157154032Y-111538612D01*
X157147288Y-111542093D01*
X157147285Y-111542094D01*
X157028366Y-111603473D01*
X157003369Y-111616375D01*
X156997647Y-111621367D01*
X156997645Y-111621368D01*
X156976664Y-111639671D01*
X156875604Y-111727831D01*
X156778113Y-111866547D01*
X156716524Y-112024513D01*
X156698628Y-112160455D01*
X156694772Y-112189742D01*
X156666050Y-112254669D01*
X156606785Y-112293761D01*
X156569191Y-112299294D01*
X156539645Y-112299140D01*
X156518895Y-112299031D01*
X156511508Y-112300805D01*
X156511504Y-112300805D01*
X156368162Y-112335220D01*
X156354032Y-112338612D01*
X156347288Y-112342093D01*
X156347285Y-112342094D01*
X156268741Y-112382634D01*
X156203369Y-112416375D01*
X156197647Y-112421367D01*
X156197645Y-112421368D01*
X156170451Y-112445091D01*
X156075604Y-112527831D01*
X156071237Y-112534045D01*
X155992675Y-112645828D01*
X155978113Y-112666547D01*
X155916524Y-112824513D01*
X155915532Y-112832046D01*
X155915532Y-112832047D01*
X155895482Y-112984348D01*
X155894394Y-112992611D01*
X152625500Y-112992611D01*
X152625500Y-111635354D01*
X152622382Y-111609154D01*
X152617696Y-111598603D01*
X152581663Y-111517482D01*
X152576939Y-111506847D01*
X152547882Y-111477840D01*
X152505945Y-111435977D01*
X152497713Y-111427759D01*
X152487076Y-111423056D01*
X152487074Y-111423055D01*
X152405356Y-111386928D01*
X152395327Y-111382494D01*
X152369646Y-111379500D01*
X150680354Y-111379500D01*
X150676650Y-111379941D01*
X150676647Y-111379941D01*
X150669254Y-111380821D01*
X150654154Y-111382618D01*
X150645514Y-111386456D01*
X150645513Y-111386456D01*
X150598933Y-111407146D01*
X150551847Y-111428061D01*
X150472759Y-111507287D01*
X150468056Y-111517924D01*
X150468055Y-111517926D01*
X150432928Y-111597382D01*
X150427494Y-111609673D01*
X150424500Y-111635354D01*
X150424500Y-114124646D01*
X149696388Y-114124646D01*
X149707360Y-114116863D01*
X149852575Y-113965169D01*
X149899135Y-113893060D01*
X149963233Y-113793791D01*
X149963234Y-113793788D01*
X149966485Y-113788754D01*
X149987613Y-113736330D01*
X150042739Y-113599545D01*
X150042740Y-113599542D01*
X150044981Y-113593981D01*
X150046129Y-113588100D01*
X150046131Y-113588095D01*
X150084362Y-113392324D01*
X150084362Y-113392321D01*
X150085230Y-113387878D01*
X150085500Y-113382357D01*
X150085500Y-112427531D01*
X150070561Y-112270954D01*
X150011447Y-112069451D01*
X149915295Y-111882761D01*
X149842824Y-111790501D01*
X149789282Y-111722338D01*
X149789278Y-111722333D01*
X149785576Y-111717621D01*
X149704728Y-111647464D01*
X149631502Y-111583921D01*
X149631497Y-111583917D01*
X149626971Y-111579990D01*
X149445201Y-111474834D01*
X149310508Y-111428061D01*
X149252491Y-111407914D01*
X149252489Y-111407914D01*
X149246826Y-111405947D01*
X149240891Y-111405086D01*
X149240889Y-111405086D01*
X149044944Y-111376675D01*
X149044941Y-111376675D01*
X149039004Y-111375814D01*
X148829233Y-111385523D01*
X148724197Y-111410837D01*
X148630915Y-111433318D01*
X148630913Y-111433319D01*
X148625082Y-111434724D01*
X148619624Y-111437206D01*
X148619620Y-111437207D01*
X148522482Y-111481373D01*
X148433919Y-111521640D01*
X148262640Y-111643137D01*
X148117425Y-111794831D01*
X148114174Y-111799866D01*
X148063694Y-111878046D01*
X148003515Y-111971246D01*
X148001273Y-111976809D01*
X147959348Y-112080839D01*
X147925019Y-112166019D01*
X147923871Y-112171900D01*
X147923869Y-112171905D01*
X147897972Y-112304518D01*
X147884770Y-112372122D01*
X147884500Y-112377643D01*
X147884500Y-113332469D01*
X147545500Y-113332469D01*
X147545500Y-112427531D01*
X147530561Y-112270954D01*
X147471447Y-112069451D01*
X147375295Y-111882761D01*
X147302824Y-111790501D01*
X147249282Y-111722338D01*
X147249278Y-111722333D01*
X147245576Y-111717621D01*
X147164728Y-111647464D01*
X147091502Y-111583921D01*
X147091497Y-111583917D01*
X147086971Y-111579990D01*
X146905201Y-111474834D01*
X146770508Y-111428061D01*
X146712491Y-111407914D01*
X146712489Y-111407914D01*
X146706826Y-111405947D01*
X146700891Y-111405086D01*
X146700889Y-111405086D01*
X146504944Y-111376675D01*
X146504941Y-111376675D01*
X146499004Y-111375814D01*
X146289233Y-111385523D01*
X146184197Y-111410837D01*
X146090915Y-111433318D01*
X146090913Y-111433319D01*
X146085082Y-111434724D01*
X146079624Y-111437206D01*
X146079620Y-111437207D01*
X145982482Y-111481373D01*
X145893919Y-111521640D01*
X145722640Y-111643137D01*
X145577425Y-111794831D01*
X145574174Y-111799866D01*
X145523694Y-111878046D01*
X145463515Y-111971246D01*
X145461273Y-111976809D01*
X145419348Y-112080839D01*
X145385019Y-112166019D01*
X145383871Y-112171900D01*
X145383869Y-112171905D01*
X145357972Y-112304518D01*
X145344770Y-112372122D01*
X145344500Y-112377643D01*
X145344500Y-113332469D01*
X139144980Y-113332469D01*
X139158167Y-113241516D01*
X139158700Y-113237842D01*
X139160215Y-113180000D01*
X139141708Y-112978591D01*
X139122043Y-112908862D01*
X139109370Y-112863928D01*
X139086807Y-112783926D01*
X138997351Y-112602527D01*
X138979079Y-112578057D01*
X138879788Y-112445091D01*
X138879787Y-112445090D01*
X138876335Y-112440467D01*
X138853350Y-112419220D01*
X138732053Y-112307094D01*
X138732051Y-112307092D01*
X138727812Y-112303174D01*
X138700374Y-112285862D01*
X138561637Y-112198325D01*
X138556757Y-112195246D01*
X138368898Y-112120298D01*
X138170526Y-112080839D01*
X138164752Y-112080763D01*
X138164748Y-112080763D01*
X138062257Y-112079422D01*
X137968286Y-112078192D01*
X137962589Y-112079171D01*
X137962588Y-112079171D01*
X137774646Y-112111465D01*
X137774645Y-112111465D01*
X137768949Y-112112444D01*
X137579193Y-112182449D01*
X137574232Y-112185401D01*
X137574231Y-112185401D01*
X137420383Y-112276931D01*
X137405371Y-112285862D01*
X137253305Y-112419220D01*
X137128089Y-112578057D01*
X137033914Y-112757053D01*
X136973937Y-112950213D01*
X136950164Y-113151069D01*
X136617557Y-113151069D01*
X136601708Y-112978591D01*
X136582043Y-112908862D01*
X136569370Y-112863928D01*
X136546807Y-112783926D01*
X136457351Y-112602527D01*
X136439079Y-112578057D01*
X136339788Y-112445091D01*
X136339787Y-112445090D01*
X136336335Y-112440467D01*
X136313350Y-112419220D01*
X136192053Y-112307094D01*
X136192051Y-112307092D01*
X136187812Y-112303174D01*
X136160374Y-112285862D01*
X136021637Y-112198325D01*
X136016757Y-112195246D01*
X135828898Y-112120298D01*
X135630526Y-112080839D01*
X135624752Y-112080763D01*
X135624748Y-112080763D01*
X135522257Y-112079422D01*
X135428286Y-112078192D01*
X135422589Y-112079171D01*
X135422588Y-112079171D01*
X135234646Y-112111465D01*
X135234645Y-112111465D01*
X135228949Y-112112444D01*
X135039193Y-112182449D01*
X135034232Y-112185401D01*
X135034231Y-112185401D01*
X134880383Y-112276931D01*
X134865371Y-112285862D01*
X134713305Y-112419220D01*
X134588089Y-112578057D01*
X134493914Y-112757053D01*
X134433937Y-112950213D01*
X134410164Y-113151069D01*
X134077557Y-113151069D01*
X134061708Y-112978591D01*
X134042043Y-112908862D01*
X134029370Y-112863928D01*
X134006807Y-112783926D01*
X133917351Y-112602527D01*
X133899079Y-112578057D01*
X133799788Y-112445091D01*
X133799787Y-112445090D01*
X133796335Y-112440467D01*
X133773350Y-112419220D01*
X133652053Y-112307094D01*
X133652051Y-112307092D01*
X133647812Y-112303174D01*
X133620374Y-112285862D01*
X133481637Y-112198325D01*
X133476757Y-112195246D01*
X133288898Y-112120298D01*
X133090526Y-112080839D01*
X133084752Y-112080763D01*
X133084748Y-112080763D01*
X132982257Y-112079422D01*
X132888286Y-112078192D01*
X132882589Y-112079171D01*
X132882588Y-112079171D01*
X132694646Y-112111465D01*
X132694645Y-112111465D01*
X132688949Y-112112444D01*
X132499193Y-112182449D01*
X132494232Y-112185401D01*
X132494231Y-112185401D01*
X132340383Y-112276931D01*
X132325371Y-112285862D01*
X132173305Y-112419220D01*
X132048089Y-112578057D01*
X131953914Y-112757053D01*
X131893937Y-112950213D01*
X131870164Y-113151069D01*
X103300000Y-113151069D01*
X103300000Y-107649754D01*
X107044967Y-107649754D01*
X107058796Y-107860749D01*
X107060217Y-107866345D01*
X107060218Y-107866350D01*
X107082784Y-107955200D01*
X107110845Y-108065690D01*
X107199369Y-108257714D01*
X107321405Y-108430391D01*
X107472865Y-108577937D01*
X107477661Y-108581142D01*
X107477664Y-108581144D01*
X107619375Y-108675832D01*
X107648677Y-108695411D01*
X107653985Y-108697692D01*
X107653986Y-108697692D01*
X107837650Y-108776600D01*
X107837653Y-108776601D01*
X107842953Y-108778878D01*
X107848582Y-108780152D01*
X107848583Y-108780152D01*
X108027368Y-108820607D01*
X108089395Y-108855150D01*
X108122899Y-108917743D01*
X108117245Y-108988514D01*
X108074226Y-109044994D01*
X108007501Y-109069249D01*
X107999560Y-109069500D01*
X107305354Y-109069500D01*
X107301650Y-109069941D01*
X107301647Y-109069941D01*
X107294254Y-109070821D01*
X107279154Y-109072618D01*
X107176847Y-109118061D01*
X107097759Y-109197287D01*
X107052494Y-109299673D01*
X107049500Y-109325354D01*
X107049500Y-111114646D01*
X107052618Y-111140846D01*
X107098061Y-111243153D01*
X107177287Y-111322241D01*
X107187924Y-111326944D01*
X107187926Y-111326945D01*
X107227965Y-111344646D01*
X107279673Y-111367506D01*
X107305354Y-111370500D01*
X109094646Y-111370500D01*
X109098350Y-111370059D01*
X109098353Y-111370059D01*
X109105746Y-111369179D01*
X109120846Y-111367382D01*
X109139913Y-111358913D01*
X109212518Y-111326663D01*
X109223153Y-111321939D01*
X109302241Y-111242713D01*
X109347506Y-111140327D01*
X109350500Y-111114646D01*
X109350500Y-110471069D01*
X112315164Y-110471069D01*
X112328392Y-110672894D01*
X112378178Y-110868928D01*
X112462856Y-111052607D01*
X112466189Y-111057323D01*
X112531324Y-111149487D01*
X112579588Y-111217780D01*
X112724466Y-111358913D01*
X112729270Y-111362123D01*
X112754516Y-111378992D01*
X112892637Y-111471282D01*
X112897940Y-111473560D01*
X112897943Y-111473562D01*
X113063699Y-111544776D01*
X113078470Y-111551122D01*
X113174361Y-111572820D01*
X113266526Y-111593675D01*
X113275740Y-111595760D01*
X113281509Y-111595987D01*
X113281512Y-111595987D01*
X113357683Y-111598979D01*
X113477842Y-111603700D01*
X113564132Y-111591189D01*
X113672286Y-111575508D01*
X113672291Y-111575507D01*
X113678007Y-111574678D01*
X113683479Y-111572820D01*
X113683481Y-111572820D01*
X113864067Y-111511519D01*
X113864069Y-111511518D01*
X113869531Y-111509664D01*
X114015784Y-111427759D01*
X114040964Y-111413658D01*
X114040965Y-111413657D01*
X114046001Y-111410837D01*
X114079931Y-111382618D01*
X114125587Y-111344646D01*
X122479500Y-111344646D01*
X122482618Y-111370846D01*
X122486456Y-111379486D01*
X122486456Y-111379487D01*
X122511548Y-111435977D01*
X122528061Y-111473153D01*
X122536294Y-111481372D01*
X122536295Y-111481373D01*
X122564636Y-111509664D01*
X122607287Y-111552241D01*
X122617924Y-111556944D01*
X122617926Y-111556945D01*
X122659915Y-111575508D01*
X122709673Y-111597506D01*
X122735354Y-111600500D01*
X124424646Y-111600500D01*
X124428350Y-111600059D01*
X124428353Y-111600059D01*
X124435746Y-111599179D01*
X124450846Y-111597382D01*
X124553153Y-111551939D01*
X124563850Y-111541224D01*
X124624023Y-111480945D01*
X124632241Y-111472713D01*
X124647939Y-111437207D01*
X124672612Y-111381397D01*
X124677506Y-111370327D01*
X124680500Y-111344646D01*
X124680500Y-109655354D01*
X124677382Y-109629154D01*
X124668729Y-109609672D01*
X124636663Y-109537482D01*
X124631939Y-109526847D01*
X124607499Y-109502449D01*
X124560945Y-109455977D01*
X124552713Y-109447759D01*
X124542076Y-109443056D01*
X124542074Y-109443055D01*
X124482538Y-109416735D01*
X124450327Y-109402494D01*
X124424646Y-109399500D01*
X122735354Y-109399500D01*
X122731650Y-109399941D01*
X122731647Y-109399941D01*
X122724741Y-109400763D01*
X122709154Y-109402618D01*
X122700514Y-109406456D01*
X122700513Y-109406456D01*
X122618117Y-109443055D01*
X122606847Y-109448061D01*
X122527759Y-109527287D01*
X122482494Y-109629673D01*
X122479500Y-109655354D01*
X122479500Y-111344646D01*
X114125587Y-111344646D01*
X114197073Y-111285191D01*
X114201505Y-111281505D01*
X114311304Y-111149487D01*
X114327146Y-111130439D01*
X114330837Y-111126001D01*
X114339248Y-111110983D01*
X114426845Y-110954564D01*
X114429664Y-110949531D01*
X114494678Y-110758007D01*
X114495507Y-110752291D01*
X114495508Y-110752286D01*
X114523167Y-110561516D01*
X114523700Y-110557842D01*
X114525215Y-110500000D01*
X114506708Y-110298591D01*
X114451807Y-110103926D01*
X114362351Y-109922527D01*
X114344079Y-109898057D01*
X114244788Y-109765091D01*
X114244787Y-109765090D01*
X114241335Y-109760467D01*
X114218350Y-109739220D01*
X114097053Y-109627094D01*
X114097051Y-109627092D01*
X114092812Y-109623174D01*
X114065374Y-109605862D01*
X113926637Y-109518325D01*
X113921757Y-109515246D01*
X113733898Y-109440298D01*
X113535526Y-109400839D01*
X113529752Y-109400763D01*
X113529748Y-109400763D01*
X113427257Y-109399422D01*
X113333286Y-109398192D01*
X113327589Y-109399171D01*
X113327588Y-109399171D01*
X113139646Y-109431465D01*
X113139645Y-109431465D01*
X113133949Y-109432444D01*
X112944193Y-109502449D01*
X112939232Y-109505401D01*
X112939231Y-109505401D01*
X112903184Y-109526847D01*
X112770371Y-109605862D01*
X112618305Y-109739220D01*
X112493089Y-109898057D01*
X112398914Y-110077053D01*
X112338937Y-110270213D01*
X112315164Y-110471069D01*
X109350500Y-110471069D01*
X109350500Y-109325354D01*
X109347382Y-109299154D01*
X109301939Y-109196847D01*
X109222713Y-109117759D01*
X109212076Y-109113056D01*
X109212074Y-109113055D01*
X109152538Y-109086735D01*
X109120327Y-109072494D01*
X109094646Y-109069500D01*
X108382291Y-109069500D01*
X108314170Y-109049498D01*
X108267677Y-108995842D01*
X108257573Y-108925568D01*
X108287067Y-108860988D01*
X108346793Y-108822604D01*
X108364211Y-108818804D01*
X108464013Y-108804333D01*
X108464014Y-108804333D01*
X108469730Y-108803504D01*
X108548987Y-108776600D01*
X108664483Y-108737395D01*
X108664488Y-108737393D01*
X108669955Y-108735537D01*
X108674998Y-108732713D01*
X108849395Y-108635046D01*
X108849399Y-108635043D01*
X108854442Y-108632219D01*
X109017012Y-108497012D01*
X109152219Y-108334442D01*
X109155043Y-108329399D01*
X109155046Y-108329395D01*
X109227511Y-108200000D01*
X163844750Y-108200000D01*
X163863670Y-108343709D01*
X163919139Y-108477625D01*
X164007379Y-108592621D01*
X164122375Y-108680861D01*
X164256291Y-108736330D01*
X164400000Y-108755250D01*
X164543709Y-108736330D01*
X164677625Y-108680861D01*
X164792621Y-108592621D01*
X164880861Y-108477625D01*
X164936330Y-108343709D01*
X164955250Y-108200000D01*
X164936330Y-108056291D01*
X164880861Y-107922375D01*
X164792621Y-107807379D01*
X164677625Y-107719139D01*
X164543709Y-107663670D01*
X164400000Y-107644750D01*
X164256291Y-107663670D01*
X164122375Y-107719139D01*
X164007379Y-107807379D01*
X163919139Y-107922375D01*
X163863670Y-108056291D01*
X163844750Y-108200000D01*
X109227511Y-108200000D01*
X109252713Y-108154998D01*
X109252714Y-108154996D01*
X109255537Y-108149955D01*
X109257393Y-108144488D01*
X109257395Y-108144483D01*
X109321647Y-107955200D01*
X109323504Y-107949730D01*
X109326365Y-107930004D01*
X109353314Y-107744140D01*
X109353314Y-107744138D01*
X109353846Y-107740470D01*
X109355429Y-107680000D01*
X109336081Y-107469440D01*
X109278686Y-107265931D01*
X109273189Y-107254783D01*
X109187719Y-107081469D01*
X109185165Y-107076290D01*
X109058651Y-106906867D01*
X108943043Y-106800000D01*
X112744750Y-106800000D01*
X112763670Y-106943709D01*
X112819139Y-107077625D01*
X112907379Y-107192621D01*
X113022375Y-107280861D01*
X113156291Y-107336330D01*
X113300000Y-107355250D01*
X113443709Y-107336330D01*
X113577625Y-107280861D01*
X113692621Y-107192621D01*
X113780861Y-107077625D01*
X113836330Y-106943709D01*
X113855250Y-106800000D01*
X113836330Y-106656291D01*
X113780861Y-106522375D01*
X113692621Y-106407379D01*
X113577625Y-106319139D01*
X113443709Y-106263670D01*
X113300000Y-106244750D01*
X113156291Y-106263670D01*
X113022375Y-106319139D01*
X112907379Y-106407379D01*
X112819139Y-106522375D01*
X112763670Y-106656291D01*
X112744750Y-106800000D01*
X108943043Y-106800000D01*
X108938599Y-106795892D01*
X108907622Y-106767257D01*
X108907620Y-106767255D01*
X108903381Y-106763337D01*
X108724554Y-106650505D01*
X108528160Y-106572152D01*
X108522503Y-106571027D01*
X108522497Y-106571025D01*
X108326442Y-106532028D01*
X108326440Y-106532028D01*
X108320775Y-106530901D01*
X108315000Y-106530825D01*
X108314996Y-106530825D01*
X108208976Y-106529437D01*
X108109346Y-106528133D01*
X108103649Y-106529112D01*
X108103648Y-106529112D01*
X107906650Y-106562962D01*
X107906649Y-106562962D01*
X107900953Y-106563941D01*
X107702575Y-106637127D01*
X107697614Y-106640079D01*
X107697613Y-106640079D01*
X107656599Y-106664480D01*
X107520856Y-106745238D01*
X107361881Y-106884655D01*
X107230976Y-107050708D01*
X107228287Y-107055819D01*
X107228285Y-107055822D01*
X107204169Y-107101660D01*
X107132523Y-107237836D01*
X107069820Y-107439773D01*
X107044967Y-107649754D01*
X103300000Y-107649754D01*
X103300000Y-106200000D01*
X114144750Y-106200000D01*
X114163670Y-106343709D01*
X114219139Y-106477625D01*
X114307379Y-106592621D01*
X114422375Y-106680861D01*
X114556291Y-106736330D01*
X114700000Y-106755250D01*
X114843709Y-106736330D01*
X114977625Y-106680861D01*
X115092621Y-106592621D01*
X115180861Y-106477625D01*
X115216074Y-106392611D01*
X153694394Y-106392611D01*
X153712999Y-106561135D01*
X153771266Y-106720356D01*
X153775502Y-106726659D01*
X153775502Y-106726660D01*
X153786001Y-106742284D01*
X153865830Y-106861083D01*
X153871442Y-106866190D01*
X153871445Y-106866193D01*
X153985612Y-106970077D01*
X153985616Y-106970080D01*
X153991233Y-106975191D01*
X153997906Y-106978814D01*
X153997910Y-106978817D01*
X154133558Y-107052467D01*
X154133560Y-107052468D01*
X154140235Y-107056092D01*
X154147584Y-107058020D01*
X154296883Y-107097188D01*
X154296885Y-107097188D01*
X154304233Y-107099116D01*
X154390609Y-107100473D01*
X154466161Y-107101660D01*
X154466164Y-107101660D01*
X154473760Y-107101779D01*
X154481165Y-107100083D01*
X154481166Y-107100083D01*
X154550611Y-107084178D01*
X154639029Y-107063928D01*
X154790498Y-106987747D01*
X154919423Y-106877634D01*
X154980518Y-106792611D01*
X158094394Y-106792611D01*
X158112999Y-106961135D01*
X158144118Y-107046171D01*
X158164468Y-107101779D01*
X158171266Y-107120356D01*
X158175502Y-107126659D01*
X158175502Y-107126660D01*
X158188574Y-107146113D01*
X158265830Y-107261083D01*
X158271442Y-107266190D01*
X158271445Y-107266193D01*
X158385612Y-107370077D01*
X158385616Y-107370080D01*
X158391233Y-107375191D01*
X158397906Y-107378814D01*
X158397910Y-107378817D01*
X158533558Y-107452467D01*
X158533560Y-107452468D01*
X158540235Y-107456092D01*
X158547584Y-107458020D01*
X158696883Y-107497188D01*
X158696885Y-107497188D01*
X158704233Y-107499116D01*
X158790609Y-107500473D01*
X158866161Y-107501660D01*
X158866164Y-107501660D01*
X158873760Y-107501779D01*
X158881165Y-107500083D01*
X158881166Y-107500083D01*
X158989825Y-107475197D01*
X159039029Y-107463928D01*
X159190498Y-107387747D01*
X159319423Y-107277634D01*
X159418361Y-107139947D01*
X159426237Y-107120356D01*
X159478766Y-106989687D01*
X159478767Y-106989685D01*
X159481601Y-106982634D01*
X159496087Y-106880850D01*
X159504909Y-106818862D01*
X159504909Y-106818859D01*
X159505490Y-106814778D01*
X159505645Y-106800000D01*
X159503840Y-106785080D01*
X159498378Y-106739947D01*
X159485276Y-106631680D01*
X159425345Y-106473077D01*
X159385277Y-106414778D01*
X159333614Y-106339608D01*
X159333613Y-106339607D01*
X159329312Y-106333349D01*
X159317514Y-106322837D01*
X159208392Y-106225612D01*
X159208388Y-106225610D01*
X159202721Y-106220560D01*
X159179355Y-106208188D01*
X159135080Y-106184746D01*
X159052881Y-106141224D01*
X158888441Y-106099919D01*
X158880843Y-106099879D01*
X158880841Y-106099879D01*
X158803668Y-106099475D01*
X158718895Y-106099031D01*
X158711508Y-106100805D01*
X158711504Y-106100805D01*
X158568162Y-106135220D01*
X158554032Y-106138612D01*
X158547288Y-106142093D01*
X158547285Y-106142094D01*
X158542089Y-106144776D01*
X158403369Y-106216375D01*
X158397647Y-106221367D01*
X158397645Y-106221368D01*
X158377181Y-106239220D01*
X158275604Y-106327831D01*
X158178113Y-106466547D01*
X158116524Y-106624513D01*
X158115532Y-106632046D01*
X158115532Y-106632047D01*
X158097732Y-106767257D01*
X158094394Y-106792611D01*
X154980518Y-106792611D01*
X155018361Y-106739947D01*
X155026237Y-106720356D01*
X155078766Y-106589687D01*
X155078767Y-106589685D01*
X155081601Y-106582634D01*
X155089347Y-106528209D01*
X155104909Y-106418862D01*
X155104909Y-106418859D01*
X155105490Y-106414778D01*
X155105645Y-106400000D01*
X155103840Y-106385080D01*
X155097842Y-106335520D01*
X155085276Y-106231680D01*
X155025345Y-106073077D01*
X154929312Y-105933349D01*
X154916995Y-105922375D01*
X154808392Y-105825612D01*
X154808388Y-105825610D01*
X154802721Y-105820560D01*
X154787013Y-105812243D01*
X154736168Y-105762692D01*
X154720185Y-105693518D01*
X154744137Y-105626683D01*
X154778707Y-105597353D01*
X154777385Y-105595364D01*
X154783714Y-105591159D01*
X154790498Y-105587747D01*
X154919423Y-105477634D01*
X155018361Y-105339947D01*
X155026237Y-105320356D01*
X155078766Y-105189687D01*
X155078767Y-105189685D01*
X155081601Y-105182634D01*
X155105490Y-105014778D01*
X155105645Y-105000000D01*
X155103840Y-104985080D01*
X155086188Y-104839220D01*
X155085276Y-104831680D01*
X155025345Y-104673077D01*
X154929312Y-104533349D01*
X154917514Y-104522837D01*
X154808392Y-104425612D01*
X154808388Y-104425610D01*
X154802721Y-104420560D01*
X154652881Y-104341224D01*
X154488441Y-104299919D01*
X154480843Y-104299879D01*
X154480841Y-104299879D01*
X154403668Y-104299475D01*
X154318895Y-104299031D01*
X154311508Y-104300805D01*
X154311504Y-104300805D01*
X154168162Y-104335220D01*
X154154032Y-104338612D01*
X154147288Y-104342093D01*
X154147285Y-104342094D01*
X154142089Y-104344776D01*
X154003369Y-104416375D01*
X153875604Y-104527831D01*
X153778113Y-104666547D01*
X153716524Y-104824513D01*
X153694394Y-104992611D01*
X153712999Y-105161135D01*
X153771266Y-105320356D01*
X153775502Y-105326659D01*
X153775502Y-105326660D01*
X153788574Y-105346113D01*
X153865830Y-105461083D01*
X153871442Y-105466190D01*
X153871445Y-105466193D01*
X153985612Y-105570077D01*
X153985616Y-105570080D01*
X153991233Y-105575191D01*
X153997911Y-105578817D01*
X153997914Y-105578819D01*
X154015740Y-105588498D01*
X154066061Y-105638581D01*
X154081317Y-105707919D01*
X154056664Y-105774498D01*
X154013407Y-105811194D01*
X154011375Y-105812243D01*
X154003369Y-105816375D01*
X153875604Y-105927831D01*
X153778113Y-106066547D01*
X153716524Y-106224513D01*
X153715532Y-106232046D01*
X153715532Y-106232047D01*
X153701372Y-106339608D01*
X153694394Y-106392611D01*
X115216074Y-106392611D01*
X115236330Y-106343709D01*
X115255250Y-106200000D01*
X115236330Y-106056291D01*
X115180861Y-105922375D01*
X115092621Y-105807379D01*
X114977625Y-105719139D01*
X114843709Y-105663670D01*
X114700000Y-105644750D01*
X114556291Y-105663670D01*
X114422375Y-105719139D01*
X114307379Y-105807379D01*
X114219139Y-105922375D01*
X114163670Y-106056291D01*
X114144750Y-106200000D01*
X103300000Y-106200000D01*
X103300000Y-102569754D01*
X107044967Y-102569754D01*
X107058796Y-102780749D01*
X107060217Y-102786345D01*
X107060218Y-102786350D01*
X107082784Y-102875200D01*
X107110845Y-102985690D01*
X107199369Y-103177714D01*
X107321405Y-103350391D01*
X107472865Y-103497937D01*
X107477661Y-103501142D01*
X107477664Y-103501144D01*
X107620936Y-103596875D01*
X107648677Y-103615411D01*
X107653985Y-103617692D01*
X107653986Y-103617692D01*
X107837650Y-103696600D01*
X107837653Y-103696601D01*
X107842953Y-103698878D01*
X107848582Y-103700152D01*
X107848583Y-103700152D01*
X108043550Y-103744269D01*
X108043553Y-103744269D01*
X108049186Y-103745544D01*
X108054957Y-103745771D01*
X108054959Y-103745771D01*
X108116989Y-103748208D01*
X108260470Y-103753846D01*
X108266179Y-103753018D01*
X108266183Y-103753018D01*
X108464015Y-103724333D01*
X108464019Y-103724332D01*
X108469730Y-103723504D01*
X108548987Y-103696600D01*
X108664483Y-103657395D01*
X108664488Y-103657393D01*
X108669955Y-103655537D01*
X108674998Y-103652713D01*
X108849395Y-103555046D01*
X108849399Y-103555043D01*
X108854442Y-103552219D01*
X109017012Y-103417012D01*
X109152219Y-103254442D01*
X109155043Y-103249399D01*
X109155046Y-103249395D01*
X109252713Y-103074998D01*
X109252714Y-103074996D01*
X109255537Y-103069955D01*
X109257393Y-103064488D01*
X109257395Y-103064483D01*
X109321647Y-102875200D01*
X109323504Y-102869730D01*
X109332428Y-102808188D01*
X109353314Y-102664140D01*
X109353314Y-102664138D01*
X109353846Y-102660470D01*
X109355429Y-102600000D01*
X109336081Y-102389440D01*
X109326135Y-102354172D01*
X109300306Y-102262592D01*
X109278686Y-102185931D01*
X109267553Y-102163354D01*
X109187719Y-102001469D01*
X109185165Y-101996290D01*
X109058651Y-101826867D01*
X108903381Y-101683337D01*
X108870014Y-101662284D01*
X108729434Y-101573584D01*
X108729433Y-101573584D01*
X108724554Y-101570505D01*
X108528160Y-101492152D01*
X108522503Y-101491027D01*
X108522497Y-101491025D01*
X108326442Y-101452028D01*
X108326440Y-101452028D01*
X108320775Y-101450901D01*
X108315000Y-101450825D01*
X108314996Y-101450825D01*
X108208976Y-101449437D01*
X108109346Y-101448133D01*
X108103649Y-101449112D01*
X108103648Y-101449112D01*
X107906650Y-101482962D01*
X107906649Y-101482962D01*
X107900953Y-101483941D01*
X107702575Y-101557127D01*
X107697614Y-101560079D01*
X107697613Y-101560079D01*
X107535895Y-101656291D01*
X107520856Y-101665238D01*
X107361881Y-101804655D01*
X107230976Y-101970708D01*
X107228287Y-101975819D01*
X107228285Y-101975822D01*
X107214792Y-102001469D01*
X107132523Y-102157836D01*
X107099661Y-102263670D01*
X107076765Y-102337408D01*
X107069820Y-102359773D01*
X107044967Y-102569754D01*
X103300000Y-102569754D01*
X103300000Y-99216274D01*
X129977500Y-99216274D01*
X133023265Y-102262592D01*
X136093017Y-105332900D01*
X136300079Y-105540000D01*
X137089997Y-105540000D01*
X137316773Y-105313222D01*
X139209271Y-103420703D01*
X139829967Y-102800000D01*
X149444750Y-102800000D01*
X149463670Y-102943709D01*
X149519139Y-103077625D01*
X149607379Y-103192621D01*
X149722375Y-103280861D01*
X149856291Y-103336330D01*
X150000000Y-103355250D01*
X150143709Y-103336330D01*
X150277625Y-103280861D01*
X150392621Y-103192621D01*
X150480861Y-103077625D01*
X150536330Y-102943709D01*
X150555250Y-102800000D01*
X150536330Y-102656291D01*
X150480861Y-102522375D01*
X150392621Y-102407379D01*
X150277625Y-102319139D01*
X150143709Y-102263670D01*
X150000000Y-102244750D01*
X149856291Y-102263670D01*
X149722375Y-102319139D01*
X149607379Y-102407379D01*
X149519139Y-102522375D01*
X149463670Y-102656291D01*
X149444750Y-102800000D01*
X139829967Y-102800000D01*
X140170000Y-102459963D01*
X140238285Y-101800000D01*
X159444750Y-101800000D01*
X159463670Y-101943709D01*
X159519139Y-102077625D01*
X159607379Y-102192621D01*
X159722375Y-102280861D01*
X159856291Y-102336330D01*
X160000000Y-102355250D01*
X160143709Y-102336330D01*
X160277625Y-102280861D01*
X160392621Y-102192621D01*
X160480861Y-102077625D01*
X160536330Y-101943709D01*
X160555250Y-101800000D01*
X160536330Y-101656291D01*
X160480861Y-101522375D01*
X160392621Y-101407379D01*
X160277625Y-101319139D01*
X160143709Y-101263670D01*
X160000000Y-101244750D01*
X159856291Y-101263670D01*
X159722375Y-101319139D01*
X159607379Y-101407379D01*
X159519139Y-101522375D01*
X159463670Y-101656291D01*
X159444750Y-101800000D01*
X140238285Y-101800000D01*
X140252990Y-101657882D01*
X139367686Y-100769754D01*
X170444967Y-100769754D01*
X170458796Y-100980749D01*
X170460217Y-100986345D01*
X170460218Y-100986350D01*
X170482784Y-101075200D01*
X170510845Y-101185690D01*
X170599369Y-101377714D01*
X170721405Y-101550391D01*
X170725539Y-101554418D01*
X170839299Y-101665238D01*
X170872865Y-101697937D01*
X170877661Y-101701142D01*
X170877664Y-101701144D01*
X171013359Y-101791812D01*
X171048677Y-101815411D01*
X171053985Y-101817692D01*
X171053986Y-101817692D01*
X171237650Y-101896600D01*
X171237653Y-101896601D01*
X171242953Y-101898878D01*
X171248582Y-101900152D01*
X171248583Y-101900152D01*
X171443550Y-101944269D01*
X171443553Y-101944269D01*
X171449186Y-101945544D01*
X171454957Y-101945771D01*
X171454959Y-101945771D01*
X171516989Y-101948208D01*
X171660470Y-101953846D01*
X171666179Y-101953018D01*
X171666183Y-101953018D01*
X171864015Y-101924333D01*
X171864019Y-101924332D01*
X171869730Y-101923504D01*
X171948987Y-101896600D01*
X172064483Y-101857395D01*
X172064488Y-101857393D01*
X172069955Y-101855537D01*
X172074998Y-101852713D01*
X172249395Y-101755046D01*
X172249399Y-101755043D01*
X172254442Y-101752219D01*
X172417012Y-101617012D01*
X172552219Y-101454442D01*
X172555043Y-101449399D01*
X172555046Y-101449395D01*
X172652713Y-101274998D01*
X172652714Y-101274996D01*
X172655537Y-101269955D01*
X172657393Y-101264488D01*
X172657395Y-101264483D01*
X172721647Y-101075200D01*
X172723504Y-101069730D01*
X172737242Y-100974982D01*
X172745090Y-100920860D01*
X172774660Y-100856315D01*
X172834432Y-100818003D01*
X172905429Y-100818087D01*
X172965109Y-100856542D01*
X172994525Y-100921158D01*
X172995515Y-100930695D01*
X172998796Y-100980749D01*
X173000217Y-100986345D01*
X173000218Y-100986350D01*
X173022784Y-101075200D01*
X173050845Y-101185690D01*
X173139369Y-101377714D01*
X173261405Y-101550391D01*
X173265539Y-101554418D01*
X173379299Y-101665238D01*
X173412865Y-101697937D01*
X173417661Y-101701142D01*
X173417664Y-101701144D01*
X173553359Y-101791812D01*
X173588677Y-101815411D01*
X173593985Y-101817692D01*
X173593986Y-101817692D01*
X173777650Y-101896600D01*
X173777653Y-101896601D01*
X173782953Y-101898878D01*
X173788582Y-101900152D01*
X173788583Y-101900152D01*
X173983550Y-101944269D01*
X173983553Y-101944269D01*
X173989186Y-101945544D01*
X173994957Y-101945771D01*
X173994959Y-101945771D01*
X174056989Y-101948208D01*
X174200470Y-101953846D01*
X174206179Y-101953018D01*
X174206183Y-101953018D01*
X174404015Y-101924333D01*
X174404019Y-101924332D01*
X174409730Y-101923504D01*
X174488987Y-101896600D01*
X174604483Y-101857395D01*
X174604488Y-101857393D01*
X174609955Y-101855537D01*
X174614998Y-101852713D01*
X174789395Y-101755046D01*
X174789399Y-101755043D01*
X174794442Y-101752219D01*
X174957012Y-101617012D01*
X175092219Y-101454442D01*
X175095043Y-101449399D01*
X175095046Y-101449395D01*
X175192713Y-101274998D01*
X175192714Y-101274996D01*
X175195537Y-101269955D01*
X175197393Y-101264488D01*
X175197395Y-101264483D01*
X175261647Y-101075200D01*
X175263504Y-101069730D01*
X175277243Y-100974981D01*
X175293314Y-100864140D01*
X175293314Y-100864138D01*
X175293846Y-100860470D01*
X175295429Y-100800000D01*
X175276081Y-100589440D01*
X175218686Y-100385931D01*
X175207553Y-100363354D01*
X175127719Y-100201469D01*
X175125165Y-100196290D01*
X174998651Y-100026867D01*
X174843381Y-99883337D01*
X174733377Y-99813929D01*
X174669434Y-99773584D01*
X174669433Y-99773584D01*
X174664554Y-99770505D01*
X174468160Y-99692152D01*
X174462503Y-99691027D01*
X174462497Y-99691025D01*
X174266442Y-99652028D01*
X174266440Y-99652028D01*
X174260775Y-99650901D01*
X174255000Y-99650825D01*
X174254996Y-99650825D01*
X174148976Y-99649437D01*
X174049346Y-99648133D01*
X174043649Y-99649112D01*
X174043648Y-99649112D01*
X173846650Y-99682962D01*
X173846649Y-99682962D01*
X173840953Y-99683941D01*
X173642575Y-99757127D01*
X173637614Y-99760079D01*
X173637613Y-99760079D01*
X173558109Y-99807379D01*
X173460856Y-99865238D01*
X173301881Y-100004655D01*
X173170976Y-100170708D01*
X173168287Y-100175819D01*
X173168285Y-100175822D01*
X173151257Y-100208188D01*
X173072523Y-100357836D01*
X173009820Y-100559773D01*
X173009141Y-100565510D01*
X172995088Y-100684239D01*
X172967217Y-100749537D01*
X172908469Y-100789401D01*
X172837494Y-100791174D01*
X172776828Y-100754295D01*
X172745730Y-100690471D01*
X172744490Y-100680958D01*
X172744482Y-100680861D01*
X172736081Y-100589440D01*
X172678686Y-100385931D01*
X172667553Y-100363354D01*
X172587719Y-100201469D01*
X172585165Y-100196290D01*
X172458651Y-100026867D01*
X172303381Y-99883337D01*
X172193377Y-99813929D01*
X172129434Y-99773584D01*
X172129433Y-99773584D01*
X172124554Y-99770505D01*
X171928160Y-99692152D01*
X171922503Y-99691027D01*
X171922497Y-99691025D01*
X171726442Y-99652028D01*
X171726440Y-99652028D01*
X171720775Y-99650901D01*
X171715000Y-99650825D01*
X171714996Y-99650825D01*
X171608976Y-99649437D01*
X171509346Y-99648133D01*
X171503649Y-99649112D01*
X171503648Y-99649112D01*
X171306650Y-99682962D01*
X171306649Y-99682962D01*
X171300953Y-99683941D01*
X171102575Y-99757127D01*
X171097614Y-99760079D01*
X171097613Y-99760079D01*
X171018109Y-99807379D01*
X170920856Y-99865238D01*
X170761881Y-100004655D01*
X170630976Y-100170708D01*
X170628287Y-100175819D01*
X170628285Y-100175822D01*
X170611257Y-100208188D01*
X170532523Y-100357836D01*
X170469820Y-100559773D01*
X170444967Y-100769754D01*
X139367686Y-100769754D01*
X138866266Y-100266734D01*
X138832340Y-100204368D01*
X138832452Y-100200000D01*
X157444750Y-100200000D01*
X157463670Y-100343709D01*
X157519139Y-100477625D01*
X157607379Y-100592621D01*
X157722375Y-100680861D01*
X157856291Y-100736330D01*
X158000000Y-100755250D01*
X158143709Y-100736330D01*
X158277625Y-100680861D01*
X158392621Y-100592621D01*
X158480861Y-100477625D01*
X158536330Y-100343709D01*
X158555250Y-100200000D01*
X158536330Y-100056291D01*
X158480861Y-99922375D01*
X158392621Y-99807379D01*
X158277625Y-99719139D01*
X158143709Y-99663670D01*
X158000000Y-99644750D01*
X157856291Y-99663670D01*
X157722375Y-99719139D01*
X157607379Y-99807379D01*
X157519139Y-99922375D01*
X157463670Y-100056291D01*
X157444750Y-100200000D01*
X138832452Y-100200000D01*
X138833860Y-100144933D01*
X138890852Y-99933879D01*
X138925344Y-99875728D01*
X139622360Y-99208188D01*
X139630910Y-99200000D01*
X159044750Y-99200000D01*
X159063670Y-99343709D01*
X159119139Y-99477625D01*
X159207379Y-99592621D01*
X159322375Y-99680861D01*
X159456291Y-99736330D01*
X159600000Y-99755250D01*
X159743709Y-99736330D01*
X159877625Y-99680861D01*
X159992621Y-99592621D01*
X160080861Y-99477625D01*
X160136330Y-99343709D01*
X160155250Y-99200000D01*
X160136330Y-99056291D01*
X160080861Y-98922375D01*
X159992621Y-98807379D01*
X159983005Y-98800000D01*
X162444750Y-98800000D01*
X162463670Y-98943709D01*
X162519139Y-99077625D01*
X162607379Y-99192621D01*
X162722375Y-99280861D01*
X162856291Y-99336330D01*
X163000000Y-99355250D01*
X163143709Y-99336330D01*
X163277625Y-99280861D01*
X163392621Y-99192621D01*
X163480861Y-99077625D01*
X163536330Y-98943709D01*
X163555250Y-98800000D01*
X163536330Y-98656291D01*
X163480861Y-98522375D01*
X163392621Y-98407379D01*
X163277625Y-98319139D01*
X163143709Y-98263670D01*
X163000000Y-98244750D01*
X162856291Y-98263670D01*
X162722375Y-98319139D01*
X162607379Y-98407379D01*
X162519139Y-98522375D01*
X162463670Y-98656291D01*
X162444750Y-98800000D01*
X159983005Y-98800000D01*
X159877625Y-98719139D01*
X159743709Y-98663670D01*
X159600000Y-98644750D01*
X159456291Y-98663670D01*
X159322375Y-98719139D01*
X159207379Y-98807379D01*
X159119139Y-98922375D01*
X159063670Y-99056291D01*
X159044750Y-99200000D01*
X139630910Y-99200000D01*
X140947275Y-97939303D01*
X146384053Y-97939303D01*
X146402973Y-98083012D01*
X146458442Y-98216928D01*
X146546682Y-98331924D01*
X146661678Y-98420164D01*
X146795594Y-98475633D01*
X146939303Y-98494553D01*
X147083012Y-98475633D01*
X147216928Y-98420164D01*
X147331924Y-98331924D01*
X147420164Y-98216928D01*
X147475633Y-98083012D01*
X147494553Y-97939303D01*
X147475633Y-97795594D01*
X147420164Y-97661678D01*
X147331924Y-97546682D01*
X147216928Y-97458442D01*
X147083012Y-97402973D01*
X146939303Y-97384053D01*
X146795594Y-97402973D01*
X146661678Y-97458442D01*
X146546682Y-97546682D01*
X146458442Y-97661678D01*
X146402973Y-97795594D01*
X146384053Y-97939303D01*
X140947275Y-97939303D01*
X141300000Y-97601494D01*
X141300000Y-97100000D01*
X140988929Y-96788929D01*
X140954903Y-96726617D01*
X140959968Y-96655802D01*
X140988763Y-96610905D01*
X141059039Y-96540367D01*
X141291917Y-96306619D01*
X152477106Y-96306619D01*
X152477116Y-96318249D01*
X152477116Y-96318250D01*
X152477146Y-96352201D01*
X152477204Y-96418564D01*
X152481401Y-96429413D01*
X152492933Y-96459221D01*
X152517594Y-96522969D01*
X152533636Y-96543245D01*
X153798857Y-97808466D01*
X153801787Y-97810773D01*
X153801793Y-97810778D01*
X153811765Y-97818628D01*
X153819588Y-97824787D01*
X153828409Y-97828182D01*
X153913209Y-97860819D01*
X153913211Y-97860819D01*
X153924063Y-97864996D01*
X153935693Y-97864986D01*
X153935694Y-97864986D01*
X153979822Y-97864947D01*
X154036008Y-97864898D01*
X154140413Y-97824508D01*
X154160689Y-97808466D01*
X154169155Y-97800000D01*
X155444750Y-97800000D01*
X155463670Y-97943709D01*
X155519139Y-98077625D01*
X155607379Y-98192621D01*
X155722375Y-98280861D01*
X155856291Y-98336330D01*
X156000000Y-98355250D01*
X156143709Y-98336330D01*
X156277625Y-98280861D01*
X156392621Y-98192621D01*
X156480861Y-98077625D01*
X156536330Y-97943709D01*
X156555250Y-97800000D01*
X166444750Y-97800000D01*
X166463670Y-97943709D01*
X166519139Y-98077625D01*
X166607379Y-98192621D01*
X166722375Y-98280861D01*
X166856291Y-98336330D01*
X167000000Y-98355250D01*
X167143709Y-98336330D01*
X167277625Y-98280861D01*
X167392621Y-98192621D01*
X167480861Y-98077625D01*
X167536330Y-97943709D01*
X167555250Y-97800000D01*
X167536330Y-97656291D01*
X167480861Y-97522375D01*
X167392621Y-97407379D01*
X167277625Y-97319139D01*
X167143709Y-97263670D01*
X167000000Y-97244750D01*
X166856291Y-97263670D01*
X166722375Y-97319139D01*
X166607379Y-97407379D01*
X166519139Y-97522375D01*
X166463670Y-97656291D01*
X166444750Y-97800000D01*
X156555250Y-97800000D01*
X156536330Y-97656291D01*
X156480861Y-97522375D01*
X156392621Y-97407379D01*
X156277625Y-97319139D01*
X156143709Y-97263670D01*
X156000000Y-97244750D01*
X155856291Y-97263670D01*
X155722375Y-97319139D01*
X155607379Y-97407379D01*
X155519139Y-97522375D01*
X155463670Y-97656291D01*
X155444750Y-97800000D01*
X154169155Y-97800000D01*
X155425910Y-96543245D01*
X155428217Y-96540315D01*
X155428222Y-96540309D01*
X155436384Y-96529941D01*
X155442231Y-96522514D01*
X155446796Y-96510653D01*
X155478263Y-96428893D01*
X155478263Y-96428891D01*
X155482440Y-96418039D01*
X155482342Y-96306094D01*
X155441952Y-96201689D01*
X155425910Y-96181413D01*
X154928710Y-95684213D01*
X154894684Y-95621901D01*
X154899749Y-95551086D01*
X154942296Y-95494250D01*
X155008816Y-95469439D01*
X155078190Y-95484530D01*
X155087807Y-95490353D01*
X155141680Y-95526350D01*
X155224501Y-95581689D01*
X155229809Y-95583970D01*
X155229810Y-95583970D01*
X155413474Y-95662878D01*
X155413477Y-95662879D01*
X155418777Y-95665156D01*
X155424406Y-95666430D01*
X155424407Y-95666430D01*
X155619374Y-95710547D01*
X155619377Y-95710547D01*
X155625010Y-95711822D01*
X155630781Y-95712049D01*
X155630783Y-95712049D01*
X155692813Y-95714486D01*
X155836294Y-95720124D01*
X155842003Y-95719296D01*
X155842007Y-95719296D01*
X156039839Y-95690611D01*
X156039843Y-95690610D01*
X156045554Y-95689782D01*
X156124811Y-95662878D01*
X156240307Y-95623673D01*
X156240312Y-95623671D01*
X156245779Y-95621815D01*
X156257591Y-95615200D01*
X156425219Y-95521324D01*
X156425223Y-95521321D01*
X156430266Y-95518497D01*
X156592836Y-95383290D01*
X156622719Y-95347359D01*
X157897391Y-95347359D01*
X157916311Y-95491068D01*
X157971780Y-95624984D01*
X158060020Y-95739980D01*
X158175016Y-95828220D01*
X158308932Y-95883689D01*
X158452641Y-95902609D01*
X158596350Y-95883689D01*
X158730266Y-95828220D01*
X158845262Y-95739980D01*
X158933502Y-95624984D01*
X158988971Y-95491068D01*
X159007891Y-95347359D01*
X158988971Y-95203650D01*
X158933502Y-95069734D01*
X158845262Y-94954738D01*
X158730266Y-94866498D01*
X158596350Y-94811029D01*
X158452641Y-94792109D01*
X158308932Y-94811029D01*
X158175016Y-94866498D01*
X158060020Y-94954738D01*
X157971780Y-95069734D01*
X157916311Y-95203650D01*
X157897391Y-95347359D01*
X156622719Y-95347359D01*
X156728043Y-95220720D01*
X156730867Y-95215677D01*
X156730870Y-95215673D01*
X156828537Y-95041276D01*
X156828538Y-95041274D01*
X156831361Y-95036233D01*
X156833217Y-95030766D01*
X156833219Y-95030761D01*
X156891295Y-94859672D01*
X156899328Y-94836008D01*
X156900684Y-94826660D01*
X156929138Y-94630418D01*
X156929138Y-94630416D01*
X156929670Y-94626748D01*
X156931253Y-94566278D01*
X156911905Y-94355718D01*
X156903123Y-94324577D01*
X156894514Y-94294053D01*
X156854510Y-94152209D01*
X156843377Y-94129632D01*
X156763543Y-93967747D01*
X156760989Y-93962568D01*
X156677560Y-93850843D01*
X156652829Y-93784296D01*
X156668003Y-93714939D01*
X156718265Y-93664797D01*
X156787657Y-93649788D01*
X156848521Y-93670691D01*
X156998544Y-93770933D01*
X157020552Y-93785638D01*
X157025860Y-93787919D01*
X157025861Y-93787919D01*
X157209525Y-93866827D01*
X157209528Y-93866828D01*
X157214828Y-93869105D01*
X157220457Y-93870379D01*
X157220458Y-93870379D01*
X157415425Y-93914496D01*
X157415428Y-93914496D01*
X157421061Y-93915771D01*
X157426832Y-93915998D01*
X157426834Y-93915998D01*
X157488864Y-93918435D01*
X157632345Y-93924073D01*
X157638054Y-93923245D01*
X157638058Y-93923245D01*
X157835890Y-93894560D01*
X157835894Y-93894559D01*
X157841605Y-93893731D01*
X157948648Y-93857395D01*
X158036358Y-93827622D01*
X158036363Y-93827620D01*
X158041830Y-93825764D01*
X158060317Y-93815411D01*
X158221270Y-93725273D01*
X158221274Y-93725270D01*
X158226317Y-93722446D01*
X158388887Y-93587239D01*
X158524094Y-93424669D01*
X158526918Y-93419626D01*
X158526921Y-93419622D01*
X158624588Y-93245225D01*
X158624589Y-93245223D01*
X158627412Y-93240182D01*
X158629268Y-93234715D01*
X158629270Y-93234710D01*
X158693522Y-93045427D01*
X158695379Y-93039957D01*
X158703886Y-92981291D01*
X158725189Y-92834367D01*
X158725189Y-92834365D01*
X158725721Y-92830697D01*
X158727304Y-92770227D01*
X158707956Y-92559667D01*
X158650561Y-92356158D01*
X158639428Y-92333581D01*
X158559594Y-92171696D01*
X158557040Y-92166517D01*
X158430526Y-91997094D01*
X158298054Y-91874638D01*
X158279497Y-91857484D01*
X158279495Y-91857482D01*
X158275256Y-91853564D01*
X158261753Y-91845044D01*
X158101309Y-91743811D01*
X158101308Y-91743811D01*
X158096429Y-91740732D01*
X157900035Y-91662379D01*
X157894378Y-91661254D01*
X157894372Y-91661252D01*
X157698317Y-91622255D01*
X157698315Y-91622255D01*
X157692650Y-91621128D01*
X157686875Y-91621052D01*
X157686871Y-91621052D01*
X157580851Y-91619664D01*
X157481221Y-91618360D01*
X157475524Y-91619339D01*
X157475523Y-91619339D01*
X157278525Y-91653189D01*
X157278524Y-91653189D01*
X157272828Y-91654168D01*
X157074450Y-91727354D01*
X157069489Y-91730306D01*
X157069488Y-91730306D01*
X157051964Y-91740732D01*
X156892731Y-91835465D01*
X156875606Y-91850483D01*
X156852181Y-91871026D01*
X156787777Y-91900903D01*
X156717444Y-91891217D01*
X156663513Y-91845044D01*
X156643106Y-91777043D01*
X156662703Y-91708805D01*
X156672230Y-91695725D01*
X156678318Y-91688405D01*
X156728043Y-91628617D01*
X156730867Y-91623574D01*
X156730870Y-91623570D01*
X156828537Y-91449173D01*
X156828538Y-91449171D01*
X156831361Y-91444130D01*
X156833217Y-91438663D01*
X156833219Y-91438658D01*
X156897471Y-91249375D01*
X156899328Y-91243905D01*
X156903513Y-91215046D01*
X156929138Y-91038315D01*
X156929138Y-91038313D01*
X156929670Y-91034645D01*
X156931253Y-90974175D01*
X156911905Y-90763615D01*
X156854510Y-90560106D01*
X156843377Y-90537529D01*
X156763543Y-90375644D01*
X156760989Y-90370465D01*
X156634475Y-90201042D01*
X156479205Y-90057512D01*
X156300378Y-89944680D01*
X156103984Y-89866327D01*
X156098327Y-89865202D01*
X156098321Y-89865200D01*
X155902266Y-89826203D01*
X155902264Y-89826203D01*
X155896599Y-89825076D01*
X155890824Y-89825000D01*
X155890820Y-89825000D01*
X155784800Y-89823612D01*
X155685170Y-89822308D01*
X155679473Y-89823287D01*
X155679472Y-89823287D01*
X155482474Y-89857137D01*
X155482473Y-89857137D01*
X155476777Y-89858116D01*
X155278399Y-89931302D01*
X155273438Y-89934254D01*
X155273437Y-89934254D01*
X155255913Y-89944680D01*
X155096680Y-90039413D01*
X154937705Y-90178830D01*
X154806800Y-90344883D01*
X154804111Y-90349994D01*
X154804109Y-90349997D01*
X154756362Y-90440749D01*
X154708347Y-90532011D01*
X154645644Y-90733948D01*
X154620791Y-90943929D01*
X154634620Y-91154924D01*
X154636041Y-91160520D01*
X154636042Y-91160525D01*
X154658608Y-91249375D01*
X154686669Y-91359865D01*
X154689086Y-91365108D01*
X154718179Y-91428216D01*
X154775193Y-91551889D01*
X154778526Y-91556605D01*
X154871673Y-91688405D01*
X154894654Y-91755579D01*
X154877670Y-91824514D01*
X154826112Y-91873324D01*
X154756351Y-91886511D01*
X154692287Y-91860598D01*
X154691978Y-91861001D01*
X154687394Y-91857484D01*
X154683154Y-91853564D01*
X154669651Y-91845044D01*
X154509207Y-91743811D01*
X154509206Y-91743811D01*
X154504327Y-91740732D01*
X154307933Y-91662379D01*
X154302276Y-91661254D01*
X154302270Y-91661252D01*
X154106215Y-91622255D01*
X154106213Y-91622255D01*
X154100548Y-91621128D01*
X154094773Y-91621052D01*
X154094769Y-91621052D01*
X153988749Y-91619664D01*
X153889119Y-91618360D01*
X153883422Y-91619339D01*
X153883421Y-91619339D01*
X153686423Y-91653189D01*
X153686422Y-91653189D01*
X153680726Y-91654168D01*
X153482348Y-91727354D01*
X153477387Y-91730306D01*
X153477386Y-91730306D01*
X153459862Y-91740732D01*
X153300629Y-91835465D01*
X153141654Y-91974882D01*
X153010749Y-92140935D01*
X153008060Y-92146046D01*
X153008058Y-92146049D01*
X152994565Y-92171696D01*
X152912296Y-92328063D01*
X152849593Y-92530000D01*
X152824740Y-92739981D01*
X152838569Y-92950976D01*
X152839990Y-92956572D01*
X152839991Y-92956577D01*
X152889197Y-93150322D01*
X152890618Y-93155917D01*
X152979142Y-93347941D01*
X153101178Y-93520618D01*
X153126901Y-93545676D01*
X153240817Y-93656648D01*
X153252638Y-93668164D01*
X153257434Y-93671369D01*
X153257437Y-93671371D01*
X153378435Y-93752219D01*
X153428450Y-93785638D01*
X153433758Y-93787919D01*
X153433759Y-93787919D01*
X153617423Y-93866827D01*
X153617426Y-93866828D01*
X153622726Y-93869105D01*
X153628355Y-93870379D01*
X153628356Y-93870379D01*
X153823323Y-93914496D01*
X153823326Y-93914496D01*
X153828959Y-93915771D01*
X153834730Y-93915998D01*
X153834732Y-93915998D01*
X153896762Y-93918435D01*
X154040243Y-93924073D01*
X154045952Y-93923245D01*
X154045956Y-93923245D01*
X154243788Y-93894560D01*
X154243792Y-93894559D01*
X154249503Y-93893731D01*
X154356546Y-93857395D01*
X154444256Y-93827622D01*
X154444261Y-93827620D01*
X154449728Y-93825764D01*
X154468215Y-93815411D01*
X154629168Y-93725273D01*
X154629172Y-93725270D01*
X154634215Y-93722446D01*
X154704874Y-93663680D01*
X154770036Y-93635500D01*
X154840091Y-93647024D01*
X154892795Y-93694592D01*
X154911415Y-93763104D01*
X154890039Y-93830806D01*
X154884391Y-93838560D01*
X154815766Y-93925612D01*
X154806800Y-93936986D01*
X154804111Y-93942097D01*
X154804109Y-93942100D01*
X154761199Y-94023659D01*
X154708347Y-94124114D01*
X154674136Y-94234292D01*
X154653709Y-94300079D01*
X154645644Y-94326051D01*
X154620791Y-94536032D01*
X154634620Y-94747027D01*
X154636041Y-94752623D01*
X154636042Y-94752628D01*
X154664287Y-94863839D01*
X154686669Y-94951968D01*
X154689086Y-94957211D01*
X154698501Y-94977634D01*
X154775193Y-95143992D01*
X154778526Y-95148708D01*
X154854469Y-95256165D01*
X154877450Y-95323339D01*
X154860466Y-95392274D01*
X154808908Y-95441084D01*
X154739147Y-95454271D01*
X154673331Y-95427649D01*
X154662477Y-95417980D01*
X154160689Y-94916192D01*
X154157759Y-94913885D01*
X154157753Y-94913880D01*
X154147385Y-94905718D01*
X154139958Y-94899871D01*
X154121378Y-94892720D01*
X154046337Y-94863839D01*
X154046335Y-94863839D01*
X154035483Y-94859662D01*
X154023853Y-94859672D01*
X154023852Y-94859672D01*
X153979724Y-94859711D01*
X153923538Y-94859760D01*
X153819133Y-94900150D01*
X153798857Y-94916192D01*
X152533636Y-96181413D01*
X152531329Y-96184343D01*
X152531324Y-96184349D01*
X152523524Y-96194257D01*
X152517315Y-96202144D01*
X152477106Y-96306619D01*
X141291917Y-96306619D01*
X142068626Y-95527007D01*
X142559712Y-95034086D01*
X142572500Y-95021250D01*
X141022500Y-93471250D01*
X136830505Y-97669307D01*
X136736916Y-97763031D01*
X136674628Y-97797101D01*
X136647756Y-97800000D01*
X136432676Y-97800000D01*
X136364555Y-97779998D01*
X136342998Y-97762509D01*
X135868338Y-97281576D01*
X135834722Y-97219041D01*
X135840252Y-97148261D01*
X135887303Y-97089354D01*
X135890498Y-97087747D01*
X136006015Y-96989086D01*
X136013651Y-96982564D01*
X136013652Y-96982563D01*
X136019423Y-96977634D01*
X136118361Y-96839947D01*
X136145252Y-96773055D01*
X136178766Y-96689687D01*
X136178767Y-96689685D01*
X136181601Y-96682634D01*
X136201848Y-96540367D01*
X136204909Y-96518862D01*
X136204909Y-96518859D01*
X136205490Y-96514778D01*
X136205645Y-96500000D01*
X136185276Y-96331680D01*
X136125345Y-96173077D01*
X136029312Y-96033349D01*
X135985644Y-95994442D01*
X135908392Y-95925612D01*
X135908388Y-95925610D01*
X135902721Y-95920560D01*
X135893454Y-95915653D01*
X135833084Y-95883689D01*
X135752881Y-95841224D01*
X135588441Y-95799919D01*
X135580843Y-95799879D01*
X135580841Y-95799879D01*
X135503668Y-95799475D01*
X135418895Y-95799031D01*
X135411508Y-95800805D01*
X135411504Y-95800805D01*
X135284155Y-95831380D01*
X135254032Y-95838612D01*
X135247288Y-95842093D01*
X135247285Y-95842094D01*
X135130040Y-95902609D01*
X135103369Y-95916375D01*
X135097647Y-95921367D01*
X135097645Y-95921368D01*
X135053793Y-95959623D01*
X134975604Y-96027831D01*
X134971237Y-96034045D01*
X134919020Y-96108342D01*
X134863485Y-96152573D01*
X134792853Y-96159759D01*
X134726255Y-96124400D01*
X134563628Y-95959623D01*
X134535441Y-95915653D01*
X134522169Y-95880528D01*
X134485345Y-95783077D01*
X134442078Y-95720124D01*
X134393614Y-95649608D01*
X134393613Y-95649607D01*
X134389312Y-95643349D01*
X134368700Y-95624984D01*
X134268392Y-95535612D01*
X134268388Y-95535610D01*
X134262721Y-95530560D01*
X134245278Y-95521324D01*
X134147283Y-95469439D01*
X134112881Y-95451224D01*
X133948441Y-95409919D01*
X133940843Y-95409879D01*
X133940841Y-95409879D01*
X133863668Y-95409475D01*
X133778895Y-95409031D01*
X133771508Y-95410805D01*
X133771504Y-95410805D01*
X133628162Y-95445220D01*
X133614032Y-95448612D01*
X133607288Y-95452093D01*
X133607285Y-95452094D01*
X133541660Y-95485966D01*
X133483870Y-95500000D01*
X133000000Y-95500000D01*
X132999797Y-95503750D01*
X132997459Y-95506065D01*
X129990372Y-98483504D01*
X129990371Y-98483506D01*
X129977500Y-98496250D01*
X129977500Y-99216274D01*
X103300000Y-99216274D01*
X103300000Y-95309754D01*
X107044967Y-95309754D01*
X107058796Y-95520749D01*
X107060217Y-95526345D01*
X107060218Y-95526350D01*
X107095471Y-95665156D01*
X107110845Y-95725690D01*
X107113262Y-95730933D01*
X107196951Y-95912469D01*
X107199369Y-95917714D01*
X107321405Y-96090391D01*
X107325539Y-96094418D01*
X107445178Y-96210965D01*
X107472865Y-96237937D01*
X107477661Y-96241142D01*
X107477664Y-96241144D01*
X107574869Y-96306094D01*
X107648677Y-96355411D01*
X107653985Y-96357692D01*
X107653986Y-96357692D01*
X107837650Y-96436600D01*
X107837653Y-96436601D01*
X107842953Y-96438878D01*
X107848582Y-96440152D01*
X107848583Y-96440152D01*
X108027368Y-96480607D01*
X108089395Y-96515150D01*
X108122899Y-96577743D01*
X108117245Y-96648514D01*
X108074226Y-96704994D01*
X108007501Y-96729249D01*
X107999560Y-96729500D01*
X107305354Y-96729500D01*
X107301650Y-96729941D01*
X107301647Y-96729941D01*
X107294254Y-96730821D01*
X107279154Y-96732618D01*
X107176847Y-96778061D01*
X107097759Y-96857287D01*
X107052494Y-96959673D01*
X107049500Y-96985354D01*
X107049500Y-98774646D01*
X107052618Y-98800846D01*
X107098061Y-98903153D01*
X107106294Y-98911372D01*
X107106295Y-98911373D01*
X107124959Y-98930004D01*
X107177287Y-98982241D01*
X107187924Y-98986944D01*
X107187926Y-98986945D01*
X107247462Y-99013265D01*
X107279673Y-99027506D01*
X107305354Y-99030500D01*
X109094646Y-99030500D01*
X109098350Y-99030059D01*
X109098353Y-99030059D01*
X109105746Y-99029179D01*
X109120846Y-99027382D01*
X109223153Y-98981939D01*
X109302241Y-98902713D01*
X109347506Y-98800327D01*
X109350500Y-98774646D01*
X109350500Y-96985354D01*
X109347382Y-96959154D01*
X109301939Y-96856847D01*
X109291187Y-96846113D01*
X109230945Y-96785977D01*
X109222713Y-96777759D01*
X109212076Y-96773056D01*
X109212074Y-96773055D01*
X109152538Y-96746735D01*
X109120327Y-96732494D01*
X109094646Y-96729500D01*
X108382291Y-96729500D01*
X108314170Y-96709498D01*
X108267677Y-96655842D01*
X108257573Y-96585568D01*
X108287067Y-96520988D01*
X108346793Y-96482604D01*
X108364211Y-96478804D01*
X108464013Y-96464333D01*
X108464014Y-96464333D01*
X108469730Y-96463504D01*
X108548987Y-96436600D01*
X108664483Y-96397395D01*
X108664488Y-96397393D01*
X108669955Y-96395537D01*
X108674998Y-96392713D01*
X108849395Y-96295046D01*
X108849399Y-96295043D01*
X108854442Y-96292219D01*
X109017012Y-96157012D01*
X109152219Y-95994442D01*
X109155043Y-95989399D01*
X109155046Y-95989395D01*
X109252713Y-95814998D01*
X109252714Y-95814996D01*
X109255537Y-95809955D01*
X109257393Y-95804488D01*
X109257395Y-95804483D01*
X109313807Y-95638296D01*
X109323504Y-95609730D01*
X109328036Y-95578479D01*
X109353314Y-95404140D01*
X109353314Y-95404138D01*
X109353846Y-95400470D01*
X109355429Y-95340000D01*
X109336081Y-95129440D01*
X109324323Y-95087747D01*
X109309794Y-95036233D01*
X109278686Y-94925931D01*
X109275189Y-94918838D01*
X109187719Y-94741469D01*
X109185165Y-94736290D01*
X109058651Y-94566867D01*
X108978321Y-94492611D01*
X133594394Y-94492611D01*
X133612999Y-94661135D01*
X133620867Y-94682634D01*
X133667853Y-94811029D01*
X133671266Y-94820356D01*
X133675502Y-94826659D01*
X133675502Y-94826660D01*
X133685459Y-94841478D01*
X133765830Y-94961083D01*
X133771442Y-94966190D01*
X133771445Y-94966193D01*
X133885612Y-95070077D01*
X133885616Y-95070080D01*
X133891233Y-95075191D01*
X133897906Y-95078814D01*
X133897910Y-95078817D01*
X134033558Y-95152467D01*
X134033560Y-95152468D01*
X134040235Y-95156092D01*
X134047584Y-95158020D01*
X134196883Y-95197188D01*
X134196885Y-95197188D01*
X134204233Y-95199116D01*
X134290609Y-95200473D01*
X134366161Y-95201660D01*
X134366164Y-95201660D01*
X134373760Y-95201779D01*
X134381165Y-95200083D01*
X134381166Y-95200083D01*
X134441586Y-95186245D01*
X134539029Y-95163928D01*
X134690498Y-95087747D01*
X134819423Y-94977634D01*
X134918361Y-94839947D01*
X134928715Y-94814190D01*
X134978766Y-94689687D01*
X134978767Y-94689685D01*
X134981601Y-94682634D01*
X134997419Y-94571491D01*
X135004909Y-94518862D01*
X135004909Y-94518859D01*
X135005490Y-94514778D01*
X135005645Y-94500000D01*
X135003840Y-94485080D01*
X134995995Y-94420256D01*
X134985276Y-94331680D01*
X134925345Y-94173077D01*
X134915588Y-94158881D01*
X134833614Y-94039608D01*
X134833613Y-94039607D01*
X134829312Y-94033349D01*
X134823119Y-94027831D01*
X134708392Y-93925612D01*
X134708388Y-93925610D01*
X134702721Y-93920560D01*
X134693677Y-93915771D01*
X134601237Y-93866827D01*
X134552881Y-93841224D01*
X134388441Y-93799919D01*
X134380843Y-93799879D01*
X134380841Y-93799879D01*
X134303668Y-93799475D01*
X134218895Y-93799031D01*
X134211508Y-93800805D01*
X134211504Y-93800805D01*
X134068162Y-93835220D01*
X134054032Y-93838612D01*
X134047288Y-93842093D01*
X134047285Y-93842094D01*
X133941682Y-93896600D01*
X133903369Y-93916375D01*
X133897647Y-93921367D01*
X133897645Y-93921368D01*
X133872260Y-93943513D01*
X133775604Y-94027831D01*
X133771237Y-94034045D01*
X133683501Y-94158881D01*
X133678113Y-94166547D01*
X133616524Y-94324513D01*
X133615532Y-94332046D01*
X133615532Y-94332047D01*
X133602998Y-94427257D01*
X133594394Y-94492611D01*
X108978321Y-94492611D01*
X108903381Y-94423337D01*
X108724554Y-94310505D01*
X108528160Y-94232152D01*
X108522503Y-94231027D01*
X108522497Y-94231025D01*
X108325234Y-94191788D01*
X108262324Y-94158881D01*
X108227192Y-94097186D01*
X108230992Y-94026291D01*
X108272517Y-93968705D01*
X108331734Y-93943513D01*
X108464015Y-93924333D01*
X108464019Y-93924332D01*
X108469730Y-93923504D01*
X108557439Y-93893731D01*
X108664483Y-93857395D01*
X108664488Y-93857393D01*
X108669955Y-93855537D01*
X108674998Y-93852713D01*
X108849395Y-93755046D01*
X108849399Y-93755043D01*
X108854442Y-93752219D01*
X109017012Y-93617012D01*
X109152219Y-93454442D01*
X109155043Y-93449399D01*
X109155046Y-93449395D01*
X109252713Y-93274998D01*
X109252714Y-93274996D01*
X109255537Y-93269955D01*
X109257393Y-93264488D01*
X109257395Y-93264483D01*
X109304742Y-93125000D01*
X130169750Y-93125000D01*
X130188670Y-93268709D01*
X130244139Y-93402625D01*
X130332379Y-93517621D01*
X130447375Y-93605861D01*
X130581291Y-93661330D01*
X130725000Y-93680250D01*
X130868709Y-93661330D01*
X131002625Y-93605861D01*
X131117621Y-93517621D01*
X131205861Y-93402625D01*
X131261330Y-93268709D01*
X131280250Y-93125000D01*
X131261330Y-92981291D01*
X131205861Y-92847375D01*
X131117621Y-92732379D01*
X131002625Y-92644139D01*
X130868709Y-92588670D01*
X130725000Y-92569750D01*
X130581291Y-92588670D01*
X130447375Y-92644139D01*
X130332379Y-92732379D01*
X130244139Y-92847375D01*
X130188670Y-92981291D01*
X130169750Y-93125000D01*
X109304742Y-93125000D01*
X109321647Y-93075200D01*
X109323504Y-93069730D01*
X109325672Y-93054783D01*
X109353314Y-92864140D01*
X109353314Y-92864138D01*
X109353846Y-92860470D01*
X109355429Y-92800000D01*
X109336081Y-92589440D01*
X109278686Y-92385931D01*
X109267553Y-92363354D01*
X109187719Y-92201469D01*
X109185165Y-92196290D01*
X109058651Y-92026867D01*
X108922278Y-91900805D01*
X108907622Y-91887257D01*
X108907620Y-91887255D01*
X108903381Y-91883337D01*
X108889594Y-91874638D01*
X108729434Y-91773584D01*
X108729433Y-91773584D01*
X108724554Y-91770505D01*
X108528160Y-91692152D01*
X108522503Y-91691027D01*
X108522497Y-91691025D01*
X108334600Y-91653651D01*
X108325234Y-91651788D01*
X108262324Y-91618881D01*
X108227192Y-91557186D01*
X108230653Y-91492611D01*
X138694394Y-91492611D01*
X138712999Y-91661135D01*
X138724350Y-91692152D01*
X138760592Y-91791187D01*
X138771266Y-91820356D01*
X138775502Y-91826659D01*
X138775502Y-91826660D01*
X138787856Y-91845044D01*
X138865830Y-91961083D01*
X138871442Y-91966190D01*
X138871445Y-91966193D01*
X138985612Y-92070077D01*
X138985616Y-92070080D01*
X138991233Y-92075191D01*
X138997906Y-92078814D01*
X138997910Y-92078817D01*
X139133558Y-92152467D01*
X139133560Y-92152468D01*
X139140235Y-92156092D01*
X139147584Y-92158020D01*
X139296883Y-92197188D01*
X139296885Y-92197188D01*
X139304233Y-92199116D01*
X139390609Y-92200473D01*
X139466161Y-92201660D01*
X139466164Y-92201660D01*
X139473760Y-92201779D01*
X139481165Y-92200083D01*
X139481166Y-92200083D01*
X139587096Y-92175822D01*
X139639029Y-92163928D01*
X139692957Y-92136805D01*
X139762801Y-92124065D01*
X139828445Y-92151109D01*
X139869048Y-92209350D01*
X139871717Y-92280296D01*
X139866965Y-92295139D01*
X139831567Y-92385931D01*
X139816524Y-92424513D01*
X139815532Y-92432046D01*
X139815532Y-92432047D01*
X139797262Y-92570828D01*
X139794394Y-92592611D01*
X139812999Y-92761135D01*
X139871266Y-92920356D01*
X139875502Y-92926659D01*
X139875502Y-92926660D01*
X139887966Y-92945209D01*
X139965830Y-93061083D01*
X139971442Y-93066190D01*
X139971445Y-93066193D01*
X140085612Y-93170077D01*
X140085616Y-93170080D01*
X140091233Y-93175191D01*
X140097906Y-93178814D01*
X140097910Y-93178817D01*
X140233558Y-93252467D01*
X140233560Y-93252468D01*
X140240235Y-93256092D01*
X140247584Y-93258020D01*
X140396883Y-93297188D01*
X140396885Y-93297188D01*
X140404233Y-93299116D01*
X140490609Y-93300473D01*
X140566161Y-93301660D01*
X140566164Y-93301660D01*
X140573760Y-93301779D01*
X140581165Y-93300083D01*
X140581166Y-93300083D01*
X140684834Y-93276340D01*
X140739029Y-93263928D01*
X140890498Y-93187747D01*
X141019423Y-93077634D01*
X141118361Y-92939947D01*
X141126237Y-92920356D01*
X141178766Y-92789687D01*
X141178767Y-92789685D01*
X141181601Y-92782634D01*
X141200596Y-92649168D01*
X141204909Y-92618862D01*
X141204909Y-92618859D01*
X141205490Y-92614778D01*
X141205645Y-92600000D01*
X141204657Y-92591831D01*
X141186188Y-92439220D01*
X141185276Y-92431680D01*
X141125345Y-92273077D01*
X141120857Y-92266547D01*
X141033614Y-92139608D01*
X141033613Y-92139607D01*
X141029312Y-92133349D01*
X141023119Y-92127831D01*
X140908392Y-92025612D01*
X140908388Y-92025610D01*
X140902721Y-92020560D01*
X140881238Y-92009185D01*
X140816450Y-91974882D01*
X140752881Y-91941224D01*
X140588441Y-91899919D01*
X140580843Y-91899879D01*
X140580841Y-91899879D01*
X140503668Y-91899475D01*
X140418895Y-91899031D01*
X140411508Y-91900805D01*
X140411504Y-91900805D01*
X140320325Y-91922696D01*
X140254032Y-91938612D01*
X140247288Y-91942093D01*
X140247285Y-91942094D01*
X140207680Y-91962536D01*
X140137973Y-91976005D01*
X140072049Y-91949650D01*
X140030839Y-91891837D01*
X140027428Y-91820923D01*
X140032983Y-91803573D01*
X140037963Y-91791187D01*
X140071080Y-91708805D01*
X140078766Y-91689687D01*
X140078767Y-91689685D01*
X140081601Y-91682634D01*
X140099869Y-91554276D01*
X140104909Y-91518862D01*
X140104909Y-91518859D01*
X140105490Y-91514778D01*
X140105645Y-91500000D01*
X140103840Y-91485080D01*
X140094333Y-91406525D01*
X140085276Y-91331680D01*
X140025345Y-91173077D01*
X139929312Y-91033349D01*
X139917514Y-91022837D01*
X139808392Y-90925612D01*
X139808388Y-90925610D01*
X139802721Y-90920560D01*
X139791167Y-90914442D01*
X139735080Y-90884746D01*
X139652881Y-90841224D01*
X139488441Y-90799919D01*
X139480843Y-90799879D01*
X139480841Y-90799879D01*
X139403668Y-90799475D01*
X139318895Y-90799031D01*
X139311508Y-90800805D01*
X139311504Y-90800805D01*
X139179619Y-90832469D01*
X139154032Y-90838612D01*
X139147288Y-90842093D01*
X139147285Y-90842094D01*
X139142089Y-90844776D01*
X139003369Y-90916375D01*
X138875604Y-91027831D01*
X138871237Y-91034045D01*
X138786282Y-91154924D01*
X138778113Y-91166547D01*
X138716524Y-91324513D01*
X138715532Y-91332046D01*
X138715532Y-91332047D01*
X138695573Y-91483659D01*
X138694394Y-91492611D01*
X108230653Y-91492611D01*
X108230992Y-91486291D01*
X108272517Y-91428705D01*
X108331734Y-91403513D01*
X108464015Y-91384333D01*
X108464019Y-91384332D01*
X108469730Y-91383504D01*
X108538523Y-91360152D01*
X108664483Y-91317395D01*
X108664488Y-91317393D01*
X108669955Y-91315537D01*
X108674998Y-91312713D01*
X108849395Y-91215046D01*
X108849399Y-91215043D01*
X108854442Y-91212219D01*
X109017012Y-91077012D01*
X109152219Y-90914442D01*
X109155043Y-90909399D01*
X109155046Y-90909395D01*
X109252713Y-90734998D01*
X109252714Y-90734996D01*
X109255537Y-90729955D01*
X109257393Y-90724488D01*
X109257395Y-90724483D01*
X109314952Y-90554924D01*
X109323504Y-90529730D01*
X109353846Y-90320470D01*
X109355429Y-90260000D01*
X109336081Y-90049440D01*
X109278686Y-89845931D01*
X109268958Y-89826203D01*
X109187719Y-89661469D01*
X109185165Y-89656290D01*
X109085747Y-89523153D01*
X109062104Y-89491491D01*
X109062103Y-89491490D01*
X109058651Y-89486867D01*
X108903381Y-89343337D01*
X108724554Y-89230505D01*
X108528160Y-89152152D01*
X108522503Y-89151027D01*
X108522497Y-89151025D01*
X108326442Y-89112028D01*
X108326440Y-89112028D01*
X108320775Y-89110901D01*
X108315000Y-89110825D01*
X108314996Y-89110825D01*
X108208976Y-89109437D01*
X108109346Y-89108133D01*
X108103649Y-89109112D01*
X108103648Y-89109112D01*
X107906650Y-89142962D01*
X107906649Y-89142962D01*
X107900953Y-89143941D01*
X107702575Y-89217127D01*
X107697614Y-89220079D01*
X107697613Y-89220079D01*
X107680089Y-89230505D01*
X107520856Y-89325238D01*
X107361881Y-89464655D01*
X107230976Y-89630708D01*
X107228287Y-89635819D01*
X107228285Y-89635822D01*
X107178400Y-89730638D01*
X107132523Y-89817836D01*
X107069820Y-90019773D01*
X107044967Y-90229754D01*
X107058796Y-90440749D01*
X107060217Y-90446345D01*
X107060218Y-90446350D01*
X107109424Y-90640095D01*
X107110845Y-90645690D01*
X107199369Y-90837714D01*
X107321405Y-91010391D01*
X107472865Y-91157937D01*
X107477661Y-91161142D01*
X107477664Y-91161144D01*
X107592972Y-91238190D01*
X107648677Y-91275411D01*
X107653985Y-91277692D01*
X107653986Y-91277692D01*
X107837650Y-91356600D01*
X107837653Y-91356601D01*
X107842953Y-91358878D01*
X107848582Y-91360152D01*
X107848583Y-91360152D01*
X108043550Y-91404269D01*
X108043553Y-91404269D01*
X108049186Y-91405544D01*
X108054958Y-91405771D01*
X108060687Y-91406525D01*
X108060327Y-91409257D01*
X108116604Y-91428216D01*
X108160950Y-91483659D01*
X108168282Y-91554276D01*
X108136271Y-91617647D01*
X108075081Y-91653651D01*
X108065704Y-91655632D01*
X107906650Y-91682962D01*
X107906649Y-91682962D01*
X107900953Y-91683941D01*
X107702575Y-91757127D01*
X107697614Y-91760079D01*
X107697613Y-91760079D01*
X107563367Y-91839947D01*
X107520856Y-91865238D01*
X107361881Y-92004655D01*
X107230976Y-92170708D01*
X107228287Y-92175819D01*
X107228285Y-92175822D01*
X107210645Y-92209350D01*
X107132523Y-92357836D01*
X107069820Y-92559773D01*
X107044967Y-92769754D01*
X107058796Y-92980749D01*
X107060217Y-92986345D01*
X107060218Y-92986350D01*
X107104615Y-93161160D01*
X107110845Y-93185690D01*
X107113262Y-93190933D01*
X107187818Y-93352657D01*
X107199369Y-93377714D01*
X107321405Y-93550391D01*
X107381590Y-93609021D01*
X107436394Y-93662408D01*
X107472865Y-93697937D01*
X107477661Y-93701142D01*
X107477664Y-93701144D01*
X107602110Y-93784296D01*
X107648677Y-93815411D01*
X107653985Y-93817692D01*
X107653986Y-93817692D01*
X107837650Y-93896600D01*
X107837653Y-93896601D01*
X107842953Y-93898878D01*
X107848582Y-93900152D01*
X107848583Y-93900152D01*
X108043550Y-93944269D01*
X108043553Y-93944269D01*
X108049186Y-93945544D01*
X108054958Y-93945771D01*
X108060687Y-93946525D01*
X108060327Y-93949257D01*
X108116604Y-93968216D01*
X108160950Y-94023659D01*
X108168282Y-94094276D01*
X108136271Y-94157647D01*
X108075081Y-94193651D01*
X108065704Y-94195632D01*
X107906650Y-94222962D01*
X107906649Y-94222962D01*
X107900953Y-94223941D01*
X107702575Y-94297127D01*
X107697614Y-94300079D01*
X107697613Y-94300079D01*
X107643880Y-94332047D01*
X107520856Y-94405238D01*
X107361881Y-94544655D01*
X107230976Y-94710708D01*
X107228287Y-94715819D01*
X107228285Y-94715822D01*
X107208921Y-94752628D01*
X107132523Y-94897836D01*
X107069820Y-95099773D01*
X107044967Y-95309754D01*
X103300000Y-95309754D01*
X103300000Y-88400000D01*
X135444750Y-88400000D01*
X135463670Y-88543709D01*
X135519139Y-88677625D01*
X135607379Y-88792621D01*
X135722375Y-88880861D01*
X135856291Y-88936330D01*
X136000000Y-88955250D01*
X136143709Y-88936330D01*
X136277625Y-88880861D01*
X136392621Y-88792621D01*
X136480861Y-88677625D01*
X136513014Y-88600000D01*
X139244750Y-88600000D01*
X139263670Y-88743709D01*
X139319139Y-88877625D01*
X139407379Y-88992621D01*
X139522375Y-89080861D01*
X139656291Y-89136330D01*
X139800000Y-89155250D01*
X139808188Y-89154172D01*
X139808189Y-89154172D01*
X139909867Y-89140786D01*
X139980016Y-89151725D01*
X140033114Y-89198854D01*
X140051235Y-89249261D01*
X140063670Y-89343709D01*
X140119139Y-89477625D01*
X140207379Y-89592621D01*
X140322375Y-89680861D01*
X140456291Y-89736330D01*
X140600000Y-89755250D01*
X140743709Y-89736330D01*
X140877625Y-89680861D01*
X140992621Y-89592621D01*
X141080861Y-89477625D01*
X141136330Y-89343709D01*
X141155250Y-89200000D01*
X141136330Y-89056291D01*
X141080861Y-88922375D01*
X140992621Y-88807379D01*
X140877625Y-88719139D01*
X140743709Y-88663670D01*
X140600000Y-88644750D01*
X140591812Y-88645828D01*
X140591811Y-88645828D01*
X140490133Y-88659214D01*
X140419984Y-88648275D01*
X140366886Y-88601146D01*
X140348765Y-88550739D01*
X140337408Y-88464480D01*
X140336330Y-88456291D01*
X140280861Y-88322375D01*
X140192621Y-88207379D01*
X140077625Y-88119139D01*
X139943709Y-88063670D01*
X139800000Y-88044750D01*
X139656291Y-88063670D01*
X139522375Y-88119139D01*
X139407379Y-88207379D01*
X139319139Y-88322375D01*
X139263670Y-88456291D01*
X139244750Y-88600000D01*
X136513014Y-88600000D01*
X136536330Y-88543709D01*
X136555250Y-88400000D01*
X136546035Y-88330004D01*
X136540786Y-88290133D01*
X136551725Y-88219984D01*
X136598854Y-88166886D01*
X136649261Y-88148765D01*
X136717215Y-88139818D01*
X136743709Y-88136330D01*
X136877625Y-88080861D01*
X136983005Y-88000000D01*
X143444750Y-88000000D01*
X143463670Y-88143709D01*
X143519139Y-88277625D01*
X143607379Y-88392621D01*
X143722375Y-88480861D01*
X143856291Y-88536330D01*
X144000000Y-88555250D01*
X144143709Y-88536330D01*
X144277625Y-88480861D01*
X144392621Y-88392621D01*
X144480861Y-88277625D01*
X144536330Y-88143709D01*
X144555250Y-88000000D01*
X144536330Y-87856291D01*
X144480861Y-87722375D01*
X144392621Y-87607379D01*
X144277625Y-87519139D01*
X144143709Y-87463670D01*
X144000000Y-87444750D01*
X143856291Y-87463670D01*
X143722375Y-87519139D01*
X143607379Y-87607379D01*
X143519139Y-87722375D01*
X143463670Y-87856291D01*
X143444750Y-88000000D01*
X136983005Y-88000000D01*
X136992621Y-87992621D01*
X137030132Y-87943736D01*
X137087470Y-87901869D01*
X137158341Y-87897647D01*
X137178311Y-87904031D01*
X137248657Y-87933168D01*
X137256291Y-87936330D01*
X137400000Y-87955250D01*
X137543709Y-87936330D01*
X137677625Y-87880861D01*
X137792621Y-87792621D01*
X137880861Y-87677625D01*
X137936330Y-87543709D01*
X137955250Y-87400000D01*
X137936330Y-87256291D01*
X137886306Y-87135520D01*
X137884021Y-87130004D01*
X137880861Y-87122375D01*
X137792621Y-87007379D01*
X137783005Y-87000000D01*
X141044750Y-87000000D01*
X141063670Y-87143709D01*
X141119139Y-87277625D01*
X141207379Y-87392621D01*
X141322375Y-87480861D01*
X141456291Y-87536330D01*
X141600000Y-87555250D01*
X141743709Y-87536330D01*
X141877625Y-87480861D01*
X141992621Y-87392621D01*
X142080861Y-87277625D01*
X142084022Y-87269994D01*
X142088152Y-87262841D01*
X142089546Y-87263646D01*
X142128138Y-87215754D01*
X142195501Y-87193332D01*
X142264293Y-87210890D01*
X142312672Y-87262851D01*
X142315766Y-87269627D01*
X142315979Y-87269996D01*
X142319139Y-87277625D01*
X142407379Y-87392621D01*
X142522375Y-87480861D01*
X142656291Y-87536330D01*
X142800000Y-87555250D01*
X142943709Y-87536330D01*
X143077625Y-87480861D01*
X143183005Y-87400000D01*
X146244750Y-87400000D01*
X146263670Y-87543709D01*
X146319139Y-87677625D01*
X146407379Y-87792621D01*
X146522375Y-87880861D01*
X146656291Y-87936330D01*
X146800000Y-87955250D01*
X146943709Y-87936330D01*
X147077625Y-87880861D01*
X147192621Y-87792621D01*
X147280861Y-87677625D01*
X147336330Y-87543709D01*
X147355250Y-87400000D01*
X147336330Y-87256291D01*
X147286306Y-87135520D01*
X147284021Y-87130004D01*
X147280861Y-87122375D01*
X147192621Y-87007379D01*
X147077625Y-86919139D01*
X146943709Y-86863670D01*
X146800000Y-86844750D01*
X146656291Y-86863670D01*
X146522375Y-86919139D01*
X146407379Y-87007379D01*
X146319139Y-87122375D01*
X146315979Y-87130004D01*
X146313694Y-87135520D01*
X146263670Y-87256291D01*
X146244750Y-87400000D01*
X143183005Y-87400000D01*
X143192621Y-87392621D01*
X143280861Y-87277625D01*
X143336330Y-87143709D01*
X143355250Y-87000000D01*
X143336330Y-86856291D01*
X143280861Y-86722375D01*
X143192621Y-86607379D01*
X143173375Y-86592611D01*
X151094394Y-86592611D01*
X151112999Y-86761135D01*
X151123448Y-86789687D01*
X151151679Y-86866831D01*
X151171266Y-86920356D01*
X151175502Y-86926659D01*
X151175502Y-86926660D01*
X151188574Y-86946113D01*
X151265830Y-87061083D01*
X151271442Y-87066190D01*
X151271445Y-87066193D01*
X151385612Y-87170077D01*
X151385616Y-87170080D01*
X151391233Y-87175191D01*
X151397906Y-87178814D01*
X151397910Y-87178817D01*
X151533558Y-87252467D01*
X151533560Y-87252468D01*
X151540235Y-87256092D01*
X151547584Y-87258020D01*
X151696883Y-87297188D01*
X151696885Y-87297188D01*
X151704233Y-87299116D01*
X151790609Y-87300473D01*
X151866161Y-87301660D01*
X151866164Y-87301660D01*
X151873760Y-87301779D01*
X151881165Y-87300083D01*
X151881166Y-87300083D01*
X151950611Y-87284178D01*
X152039029Y-87263928D01*
X152190498Y-87187747D01*
X152319423Y-87077634D01*
X152418361Y-86939947D01*
X152428371Y-86915046D01*
X152478766Y-86789687D01*
X152478767Y-86789685D01*
X152481601Y-86782634D01*
X152505490Y-86614778D01*
X152505645Y-86600000D01*
X152503840Y-86585080D01*
X152498678Y-86542430D01*
X152485276Y-86431680D01*
X152425345Y-86273077D01*
X152395553Y-86229730D01*
X152333614Y-86139608D01*
X152333613Y-86139607D01*
X152329312Y-86133349D01*
X152317514Y-86122837D01*
X152208392Y-86025612D01*
X152208388Y-86025610D01*
X152202721Y-86020560D01*
X152052881Y-85941224D01*
X151888441Y-85899919D01*
X151880843Y-85899879D01*
X151880841Y-85899879D01*
X151803668Y-85899475D01*
X151718895Y-85899031D01*
X151711508Y-85900805D01*
X151711504Y-85900805D01*
X151590927Y-85929754D01*
X151554032Y-85938612D01*
X151547288Y-85942093D01*
X151547285Y-85942094D01*
X151505417Y-85963704D01*
X151403369Y-86016375D01*
X151397647Y-86021367D01*
X151397645Y-86021368D01*
X151392780Y-86025612D01*
X151275604Y-86127831D01*
X151178113Y-86266547D01*
X151116524Y-86424513D01*
X151115532Y-86432046D01*
X151115532Y-86432047D01*
X151097235Y-86571034D01*
X151094394Y-86592611D01*
X143173375Y-86592611D01*
X143077625Y-86519139D01*
X142943709Y-86463670D01*
X142800000Y-86444750D01*
X142656291Y-86463670D01*
X142522375Y-86519139D01*
X142407379Y-86607379D01*
X142319139Y-86722375D01*
X142315979Y-86730004D01*
X142311848Y-86737159D01*
X142310454Y-86736354D01*
X142271862Y-86784246D01*
X142204499Y-86806668D01*
X142135707Y-86789110D01*
X142087328Y-86737149D01*
X142084234Y-86730373D01*
X142084021Y-86730004D01*
X142080861Y-86722375D01*
X141992621Y-86607379D01*
X141877625Y-86519139D01*
X141743709Y-86463670D01*
X141600000Y-86444750D01*
X141456291Y-86463670D01*
X141322375Y-86519139D01*
X141207379Y-86607379D01*
X141119139Y-86722375D01*
X141063670Y-86856291D01*
X141044750Y-87000000D01*
X137783005Y-87000000D01*
X137677625Y-86919139D01*
X137543709Y-86863670D01*
X137400000Y-86844750D01*
X137256291Y-86863670D01*
X137122375Y-86919139D01*
X137007379Y-87007379D01*
X137002353Y-87013929D01*
X136969868Y-87056264D01*
X136912530Y-87098131D01*
X136841659Y-87102353D01*
X136821689Y-87095969D01*
X136751343Y-87066832D01*
X136743709Y-87063670D01*
X136600000Y-87044750D01*
X136456291Y-87063670D01*
X136322375Y-87119139D01*
X136207379Y-87207379D01*
X136119139Y-87322375D01*
X136063670Y-87456291D01*
X136044750Y-87600000D01*
X136045828Y-87608188D01*
X136045828Y-87608189D01*
X136059214Y-87709867D01*
X136048275Y-87780016D01*
X136001146Y-87833114D01*
X135950739Y-87851235D01*
X135888390Y-87859444D01*
X135856291Y-87863670D01*
X135722375Y-87919139D01*
X135607379Y-88007379D01*
X135519139Y-88122375D01*
X135463670Y-88256291D01*
X135444750Y-88400000D01*
X103300000Y-88400000D01*
X103300000Y-85929754D01*
X107044967Y-85929754D01*
X107058796Y-86140749D01*
X107060217Y-86146345D01*
X107060218Y-86146350D01*
X107082784Y-86235200D01*
X107110845Y-86345690D01*
X107199369Y-86537714D01*
X107321405Y-86710391D01*
X107325539Y-86714418D01*
X107402805Y-86789687D01*
X107472865Y-86857937D01*
X107477661Y-86861142D01*
X107477664Y-86861144D01*
X107620936Y-86956875D01*
X107648677Y-86975411D01*
X107653985Y-86977692D01*
X107653986Y-86977692D01*
X107837650Y-87056600D01*
X107837653Y-87056601D01*
X107842953Y-87058878D01*
X107848582Y-87060152D01*
X107848583Y-87060152D01*
X108043550Y-87104269D01*
X108043553Y-87104269D01*
X108049186Y-87105544D01*
X108054957Y-87105771D01*
X108054959Y-87105771D01*
X108116989Y-87108208D01*
X108260470Y-87113846D01*
X108266179Y-87113018D01*
X108266183Y-87113018D01*
X108464015Y-87084333D01*
X108464019Y-87084332D01*
X108469730Y-87083504D01*
X108566975Y-87050494D01*
X108664483Y-87017395D01*
X108664488Y-87017393D01*
X108669955Y-87015537D01*
X108683078Y-87008188D01*
X108849395Y-86915046D01*
X108849399Y-86915043D01*
X108854442Y-86912219D01*
X109017012Y-86777012D01*
X109152219Y-86614442D01*
X109155043Y-86609399D01*
X109155046Y-86609395D01*
X109252713Y-86434998D01*
X109252714Y-86434996D01*
X109255537Y-86429955D01*
X109257393Y-86424488D01*
X109257395Y-86424483D01*
X109321647Y-86235200D01*
X109323504Y-86229730D01*
X109329919Y-86185492D01*
X109353314Y-86024140D01*
X109353314Y-86024138D01*
X109353846Y-86020470D01*
X109355429Y-85960000D01*
X109336081Y-85749440D01*
X109322181Y-85700152D01*
X109301703Y-85627543D01*
X109278686Y-85545931D01*
X109268050Y-85524362D01*
X109187719Y-85361469D01*
X109185165Y-85356290D01*
X109058651Y-85186867D01*
X108903381Y-85043337D01*
X108820326Y-84990933D01*
X108729434Y-84933584D01*
X108729433Y-84933584D01*
X108724554Y-84930505D01*
X108528160Y-84852152D01*
X108522503Y-84851027D01*
X108522497Y-84851025D01*
X108325234Y-84811788D01*
X108262324Y-84778881D01*
X108227192Y-84717186D01*
X108230992Y-84646291D01*
X108272517Y-84588705D01*
X108331734Y-84563513D01*
X108464015Y-84544333D01*
X108464019Y-84544332D01*
X108469730Y-84543504D01*
X108548987Y-84516600D01*
X108664483Y-84477395D01*
X108664488Y-84477393D01*
X108669955Y-84475537D01*
X108674998Y-84472713D01*
X108849395Y-84375046D01*
X108849399Y-84375043D01*
X108854442Y-84372219D01*
X109017012Y-84237012D01*
X109152219Y-84074442D01*
X109155043Y-84069399D01*
X109155046Y-84069395D01*
X109252713Y-83894998D01*
X109252714Y-83894996D01*
X109255537Y-83889955D01*
X109257393Y-83884488D01*
X109257395Y-83884483D01*
X109286073Y-83800000D01*
X128444750Y-83800000D01*
X128463670Y-83943709D01*
X128519139Y-84077625D01*
X128607379Y-84192621D01*
X128722375Y-84280861D01*
X128856291Y-84336330D01*
X129000000Y-84355250D01*
X129143709Y-84336330D01*
X129277625Y-84280861D01*
X129392621Y-84192621D01*
X129480861Y-84077625D01*
X129536330Y-83943709D01*
X129555250Y-83800000D01*
X129536330Y-83656291D01*
X129509953Y-83592611D01*
X148094394Y-83592611D01*
X148112999Y-83761135D01*
X148135141Y-83821641D01*
X148164018Y-83900549D01*
X148171266Y-83920356D01*
X148175502Y-83926659D01*
X148175502Y-83926660D01*
X148186958Y-83943709D01*
X148265830Y-84061083D01*
X148271442Y-84066190D01*
X148271445Y-84066193D01*
X148385612Y-84170077D01*
X148385616Y-84170080D01*
X148391233Y-84175191D01*
X148397906Y-84178814D01*
X148397910Y-84178817D01*
X148533558Y-84252467D01*
X148533560Y-84252468D01*
X148540235Y-84256092D01*
X148547584Y-84258020D01*
X148696883Y-84297188D01*
X148696885Y-84297188D01*
X148704233Y-84299116D01*
X148790609Y-84300473D01*
X148866161Y-84301660D01*
X148866164Y-84301660D01*
X148873760Y-84301779D01*
X148881165Y-84300083D01*
X148881166Y-84300083D01*
X148965094Y-84280861D01*
X149039029Y-84263928D01*
X149190498Y-84187747D01*
X149319423Y-84077634D01*
X149418361Y-83939947D01*
X149426237Y-83920356D01*
X149478766Y-83789687D01*
X149478767Y-83789685D01*
X149481601Y-83782634D01*
X149493731Y-83697403D01*
X149504909Y-83618862D01*
X149504909Y-83618859D01*
X149505490Y-83614778D01*
X149505574Y-83606812D01*
X149505602Y-83604135D01*
X149505602Y-83604129D01*
X149505645Y-83600000D01*
X149503840Y-83585080D01*
X149500215Y-83555129D01*
X149485276Y-83431680D01*
X149425345Y-83273077D01*
X149367999Y-83189639D01*
X149333614Y-83139608D01*
X149333613Y-83139607D01*
X149329312Y-83133349D01*
X149268480Y-83079149D01*
X149208392Y-83025612D01*
X149208388Y-83025610D01*
X149202721Y-83020560D01*
X149165305Y-83000749D01*
X149112367Y-82972720D01*
X149052881Y-82941224D01*
X148888441Y-82899919D01*
X148880843Y-82899879D01*
X148880841Y-82899879D01*
X148803668Y-82899475D01*
X148718895Y-82899031D01*
X148711508Y-82900805D01*
X148711504Y-82900805D01*
X148568162Y-82935220D01*
X148554032Y-82938612D01*
X148547288Y-82942093D01*
X148547285Y-82942094D01*
X148475915Y-82978931D01*
X148403369Y-83016375D01*
X148275604Y-83127831D01*
X148271237Y-83134045D01*
X148192675Y-83245828D01*
X148178113Y-83266547D01*
X148116524Y-83424513D01*
X148115532Y-83432046D01*
X148115532Y-83432047D01*
X148096899Y-83573584D01*
X148094394Y-83592611D01*
X129509953Y-83592611D01*
X129480861Y-83522375D01*
X129392621Y-83407379D01*
X129277625Y-83319139D01*
X129143709Y-83263670D01*
X129000000Y-83244750D01*
X128856291Y-83263670D01*
X128722375Y-83319139D01*
X128607379Y-83407379D01*
X128519139Y-83522375D01*
X128463670Y-83656291D01*
X128444750Y-83800000D01*
X109286073Y-83800000D01*
X109309606Y-83730673D01*
X109323504Y-83689730D01*
X109327056Y-83665238D01*
X109353314Y-83484140D01*
X109353314Y-83484138D01*
X109353846Y-83480470D01*
X109355429Y-83420000D01*
X109336081Y-83209440D01*
X109278686Y-83005931D01*
X109270978Y-82990299D01*
X109187719Y-82821469D01*
X109185165Y-82816290D01*
X109058651Y-82646867D01*
X108914075Y-82513222D01*
X108907622Y-82507257D01*
X108907620Y-82507255D01*
X108903381Y-82503337D01*
X108867759Y-82480861D01*
X108729434Y-82393584D01*
X108729433Y-82393584D01*
X108724554Y-82390505D01*
X108528160Y-82312152D01*
X108522503Y-82311027D01*
X108522497Y-82311025D01*
X108325234Y-82271788D01*
X108262324Y-82238881D01*
X108227192Y-82177186D01*
X108230992Y-82106291D01*
X108272517Y-82048705D01*
X108331734Y-82023513D01*
X108464015Y-82004333D01*
X108464019Y-82004332D01*
X108469730Y-82003504D01*
X108480052Y-82000000D01*
X139244750Y-82000000D01*
X139263670Y-82143709D01*
X139319139Y-82277625D01*
X139407379Y-82392621D01*
X139522375Y-82480861D01*
X139656291Y-82536330D01*
X139800000Y-82555250D01*
X139943709Y-82536330D01*
X140077625Y-82480861D01*
X140192621Y-82392621D01*
X140280861Y-82277625D01*
X140306893Y-82214778D01*
X140316075Y-82192611D01*
X146694394Y-82192611D01*
X146712999Y-82361135D01*
X146724874Y-82393584D01*
X146767651Y-82510477D01*
X146771266Y-82520356D01*
X146775502Y-82526659D01*
X146775502Y-82526660D01*
X146788574Y-82546113D01*
X146865830Y-82661083D01*
X146871442Y-82666190D01*
X146871445Y-82666193D01*
X146985612Y-82770077D01*
X146985616Y-82770080D01*
X146991233Y-82775191D01*
X146997906Y-82778814D01*
X146997910Y-82778817D01*
X147133558Y-82852467D01*
X147133560Y-82852468D01*
X147140235Y-82856092D01*
X147147584Y-82858020D01*
X147296883Y-82897188D01*
X147296885Y-82897188D01*
X147304233Y-82899116D01*
X147390609Y-82900473D01*
X147466161Y-82901660D01*
X147466164Y-82901660D01*
X147473760Y-82901779D01*
X147481165Y-82900083D01*
X147481166Y-82900083D01*
X147541586Y-82886245D01*
X147639029Y-82863928D01*
X147790498Y-82787747D01*
X147919423Y-82677634D01*
X148018361Y-82539947D01*
X148026237Y-82520356D01*
X148078766Y-82389687D01*
X148078767Y-82389685D01*
X148081601Y-82382634D01*
X148092516Y-82305942D01*
X148104909Y-82218862D01*
X148104909Y-82218859D01*
X148105490Y-82214778D01*
X148105645Y-82200000D01*
X148103840Y-82185080D01*
X148097012Y-82128661D01*
X148085276Y-82031680D01*
X148025345Y-81873077D01*
X147950397Y-81764028D01*
X147933614Y-81739608D01*
X147933613Y-81739607D01*
X147929312Y-81733349D01*
X147916995Y-81722375D01*
X147808392Y-81625612D01*
X147808388Y-81625610D01*
X147802721Y-81620560D01*
X147790198Y-81613929D01*
X147730740Y-81582448D01*
X147652881Y-81541224D01*
X147488441Y-81499919D01*
X147480843Y-81499879D01*
X147480841Y-81499879D01*
X147403668Y-81499475D01*
X147318895Y-81499031D01*
X147311508Y-81500805D01*
X147311504Y-81500805D01*
X147186133Y-81530905D01*
X147154032Y-81538612D01*
X147147288Y-81542093D01*
X147147285Y-81542094D01*
X147121796Y-81555250D01*
X147003369Y-81616375D01*
X146997647Y-81621367D01*
X146997645Y-81621368D01*
X146926069Y-81683808D01*
X146875604Y-81727831D01*
X146778113Y-81866547D01*
X146716524Y-82024513D01*
X146715532Y-82032046D01*
X146715532Y-82032047D01*
X146696425Y-82177186D01*
X146694394Y-82192611D01*
X140316075Y-82192611D01*
X140333170Y-82151339D01*
X140333171Y-82151336D01*
X140336330Y-82143709D01*
X140337408Y-82135520D01*
X140339246Y-82128661D01*
X140376197Y-82068038D01*
X140427971Y-82039768D01*
X140435398Y-82038790D01*
X140569314Y-81983321D01*
X140684310Y-81895081D01*
X140772550Y-81780085D01*
X140791620Y-81734045D01*
X140824859Y-81653799D01*
X140824860Y-81653796D01*
X140828019Y-81646169D01*
X140828618Y-81641619D01*
X140864684Y-81582448D01*
X140928544Y-81551426D01*
X140965886Y-81550759D01*
X140991811Y-81554172D01*
X140991812Y-81554172D01*
X141000000Y-81555250D01*
X141143709Y-81536330D01*
X141277625Y-81480861D01*
X141392621Y-81392621D01*
X141480861Y-81277625D01*
X141536330Y-81143709D01*
X141555250Y-81000000D01*
X141548955Y-80952188D01*
X149505231Y-80952188D01*
X149505329Y-81064133D01*
X149545719Y-81168538D01*
X149561761Y-81188814D01*
X150826982Y-82454035D01*
X150829912Y-82456342D01*
X150829918Y-82456347D01*
X150839890Y-82464197D01*
X150847713Y-82470356D01*
X150856534Y-82473751D01*
X150941334Y-82506388D01*
X150941336Y-82506388D01*
X150952188Y-82510565D01*
X150963818Y-82510555D01*
X150963819Y-82510555D01*
X151007947Y-82510516D01*
X151064133Y-82510467D01*
X151082564Y-82503337D01*
X151159700Y-82473496D01*
X151168538Y-82470077D01*
X151188814Y-82454035D01*
X151690035Y-81952814D01*
X151752347Y-81918788D01*
X151823162Y-81923853D01*
X151879998Y-81966400D01*
X151904809Y-82032920D01*
X151889718Y-82102294D01*
X151878080Y-82119914D01*
X151834925Y-82174657D01*
X151832236Y-82179768D01*
X151832234Y-82179771D01*
X151801784Y-82237647D01*
X151736472Y-82361785D01*
X151673769Y-82563722D01*
X151648916Y-82773703D01*
X151662745Y-82984698D01*
X151664166Y-82990294D01*
X151664167Y-82990299D01*
X151710887Y-83174256D01*
X151714794Y-83189639D01*
X151717211Y-83194882D01*
X151800900Y-83376418D01*
X151803318Y-83381663D01*
X151925354Y-83554340D01*
X151964640Y-83592611D01*
X152069951Y-83695200D01*
X152076814Y-83701886D01*
X152081610Y-83705091D01*
X152081613Y-83705093D01*
X152186398Y-83775108D01*
X152252626Y-83819360D01*
X152257934Y-83821641D01*
X152257935Y-83821641D01*
X152441599Y-83900549D01*
X152441602Y-83900550D01*
X152446902Y-83902827D01*
X152452531Y-83904101D01*
X152452532Y-83904101D01*
X152647499Y-83948218D01*
X152647502Y-83948218D01*
X152653135Y-83949493D01*
X152658906Y-83949720D01*
X152658908Y-83949720D01*
X152720938Y-83952157D01*
X152864419Y-83957795D01*
X152870128Y-83956967D01*
X152870132Y-83956967D01*
X153067964Y-83928282D01*
X153067968Y-83928281D01*
X153073679Y-83927453D01*
X153169289Y-83894998D01*
X153268432Y-83861344D01*
X153268437Y-83861342D01*
X153273904Y-83859486D01*
X153323893Y-83831491D01*
X153453344Y-83758995D01*
X153453348Y-83758992D01*
X153458391Y-83756168D01*
X153529050Y-83697402D01*
X153594212Y-83669222D01*
X153664267Y-83680746D01*
X153716971Y-83728314D01*
X153735591Y-83796826D01*
X153714215Y-83864528D01*
X153708567Y-83872282D01*
X153634557Y-83966165D01*
X153630976Y-83970708D01*
X153628287Y-83975819D01*
X153628285Y-83975822D01*
X153616767Y-83997714D01*
X153532523Y-84157836D01*
X153488618Y-84299235D01*
X153476765Y-84337408D01*
X153469820Y-84359773D01*
X153444967Y-84569754D01*
X153458796Y-84780749D01*
X153460217Y-84786345D01*
X153460218Y-84786350D01*
X153509424Y-84980095D01*
X153510845Y-84985690D01*
X153599369Y-85177714D01*
X153721405Y-85350391D01*
X153872865Y-85497937D01*
X153877661Y-85501142D01*
X153877664Y-85501144D01*
X154014948Y-85592874D01*
X154048677Y-85615411D01*
X154053985Y-85617692D01*
X154053986Y-85617692D01*
X154237650Y-85696600D01*
X154237653Y-85696601D01*
X154242953Y-85698878D01*
X154248582Y-85700152D01*
X154248583Y-85700152D01*
X154443550Y-85744269D01*
X154443553Y-85744269D01*
X154449186Y-85745544D01*
X154454957Y-85745771D01*
X154454959Y-85745771D01*
X154516989Y-85748208D01*
X154660470Y-85753846D01*
X154666179Y-85753018D01*
X154666183Y-85753018D01*
X154864015Y-85724333D01*
X154864019Y-85724332D01*
X154869730Y-85723504D01*
X154948987Y-85696600D01*
X155064483Y-85657395D01*
X155064488Y-85657393D01*
X155069955Y-85655537D01*
X155119942Y-85627543D01*
X155249395Y-85555046D01*
X155249399Y-85555043D01*
X155254442Y-85552219D01*
X155325107Y-85493448D01*
X155390270Y-85465269D01*
X155460325Y-85476793D01*
X155513029Y-85524362D01*
X155531648Y-85592874D01*
X155510272Y-85660576D01*
X155504629Y-85668323D01*
X155427028Y-85766760D01*
X155424339Y-85771871D01*
X155424337Y-85771874D01*
X155410844Y-85797521D01*
X155328575Y-85953888D01*
X155309052Y-86016763D01*
X155270908Y-86139608D01*
X155265872Y-86155825D01*
X155241019Y-86365806D01*
X155254848Y-86576801D01*
X155256269Y-86582397D01*
X155256270Y-86582402D01*
X155293757Y-86730004D01*
X155306897Y-86781742D01*
X155309314Y-86786985D01*
X155367510Y-86913222D01*
X155395421Y-86973766D01*
X155517457Y-87146443D01*
X155581290Y-87208626D01*
X155650289Y-87275842D01*
X155668917Y-87293989D01*
X155673713Y-87297194D01*
X155673716Y-87297196D01*
X155756476Y-87352494D01*
X155844729Y-87411463D01*
X155850037Y-87413744D01*
X155850038Y-87413744D01*
X156033702Y-87492652D01*
X156033705Y-87492653D01*
X156039005Y-87494930D01*
X156044634Y-87496204D01*
X156044635Y-87496204D01*
X156239602Y-87540321D01*
X156239605Y-87540321D01*
X156245238Y-87541596D01*
X156251009Y-87541823D01*
X156251011Y-87541823D01*
X156313041Y-87544260D01*
X156456522Y-87549898D01*
X156462231Y-87549070D01*
X156462235Y-87549070D01*
X156660067Y-87520385D01*
X156660071Y-87520384D01*
X156665782Y-87519556D01*
X156745039Y-87492652D01*
X156860535Y-87453447D01*
X156860540Y-87453445D01*
X156866007Y-87451589D01*
X156878219Y-87444750D01*
X157045447Y-87351098D01*
X157045451Y-87351095D01*
X157050494Y-87348271D01*
X157213064Y-87213064D01*
X157348271Y-87050494D01*
X157351095Y-87045451D01*
X157351098Y-87045447D01*
X157448765Y-86871050D01*
X157448766Y-86871048D01*
X157451589Y-86866007D01*
X157453445Y-86860540D01*
X157453447Y-86860535D01*
X157517699Y-86671252D01*
X157519556Y-86665782D01*
X157526356Y-86618888D01*
X157549366Y-86460192D01*
X157549366Y-86460190D01*
X157549898Y-86456522D01*
X157551481Y-86396052D01*
X157532133Y-86185492D01*
X157519193Y-86139608D01*
X157514463Y-86122837D01*
X157474738Y-85981983D01*
X157463898Y-85960000D01*
X157448982Y-85929754D01*
X175344967Y-85929754D01*
X175358796Y-86140749D01*
X175360217Y-86146345D01*
X175360218Y-86146350D01*
X175382784Y-86235200D01*
X175410845Y-86345690D01*
X175499369Y-86537714D01*
X175621405Y-86710391D01*
X175625539Y-86714418D01*
X175702805Y-86789687D01*
X175772865Y-86857937D01*
X175777661Y-86861142D01*
X175777664Y-86861144D01*
X175920936Y-86956875D01*
X175948677Y-86975411D01*
X175953985Y-86977692D01*
X175953986Y-86977692D01*
X176137650Y-87056600D01*
X176137653Y-87056601D01*
X176142953Y-87058878D01*
X176148582Y-87060152D01*
X176148583Y-87060152D01*
X176159366Y-87062592D01*
X176316426Y-87098131D01*
X176327368Y-87100607D01*
X176389395Y-87135150D01*
X176422899Y-87197743D01*
X176417245Y-87268514D01*
X176374226Y-87324994D01*
X176307501Y-87349249D01*
X176299560Y-87349500D01*
X175605354Y-87349500D01*
X175601650Y-87349941D01*
X175601647Y-87349941D01*
X175594254Y-87350821D01*
X175579154Y-87352618D01*
X175570514Y-87356456D01*
X175570513Y-87356456D01*
X175489094Y-87392621D01*
X175476847Y-87398061D01*
X175468628Y-87406294D01*
X175468627Y-87406295D01*
X175463468Y-87411463D01*
X175397759Y-87477287D01*
X175393056Y-87487924D01*
X175393055Y-87487926D01*
X175368394Y-87543709D01*
X175352494Y-87579673D01*
X175349500Y-87605354D01*
X175349500Y-89394646D01*
X175352618Y-89420846D01*
X175356456Y-89429486D01*
X175356456Y-89429487D01*
X175377838Y-89477625D01*
X175398061Y-89523153D01*
X175477287Y-89602241D01*
X175487924Y-89606944D01*
X175487926Y-89606945D01*
X175531415Y-89626171D01*
X175579673Y-89647506D01*
X175605354Y-89650500D01*
X177394646Y-89650500D01*
X177398350Y-89650059D01*
X177398353Y-89650059D01*
X177405746Y-89649179D01*
X177420846Y-89647382D01*
X177446872Y-89635822D01*
X177512518Y-89606663D01*
X177523153Y-89601939D01*
X177538994Y-89586071D01*
X177594023Y-89530945D01*
X177602241Y-89522713D01*
X177616045Y-89491491D01*
X177643675Y-89428992D01*
X177647506Y-89420327D01*
X177650500Y-89394646D01*
X177650500Y-87605354D01*
X177647382Y-87579154D01*
X177636286Y-87554172D01*
X177606663Y-87487482D01*
X177601939Y-87476847D01*
X177589551Y-87464480D01*
X177530945Y-87405977D01*
X177522713Y-87397759D01*
X177512076Y-87393056D01*
X177512074Y-87393055D01*
X177452538Y-87366735D01*
X177420327Y-87352494D01*
X177394646Y-87349500D01*
X176682291Y-87349500D01*
X176614170Y-87329498D01*
X176567677Y-87275842D01*
X176557573Y-87205568D01*
X176587067Y-87140988D01*
X176646793Y-87102604D01*
X176664211Y-87098804D01*
X176764013Y-87084333D01*
X176764014Y-87084333D01*
X176769730Y-87083504D01*
X176866975Y-87050494D01*
X176964483Y-87017395D01*
X176964488Y-87017393D01*
X176969955Y-87015537D01*
X176983078Y-87008188D01*
X177149395Y-86915046D01*
X177149399Y-86915043D01*
X177154442Y-86912219D01*
X177317012Y-86777012D01*
X177452219Y-86614442D01*
X177455043Y-86609399D01*
X177455046Y-86609395D01*
X177552713Y-86434998D01*
X177552714Y-86434996D01*
X177555537Y-86429955D01*
X177557393Y-86424488D01*
X177557395Y-86424483D01*
X177621647Y-86235200D01*
X177623504Y-86229730D01*
X177629919Y-86185492D01*
X177653314Y-86024140D01*
X177653314Y-86024138D01*
X177653846Y-86020470D01*
X177655429Y-85960000D01*
X177636081Y-85749440D01*
X177622181Y-85700152D01*
X177601703Y-85627543D01*
X177578686Y-85545931D01*
X177568050Y-85524362D01*
X177487719Y-85361469D01*
X177485165Y-85356290D01*
X177358651Y-85186867D01*
X177203381Y-85043337D01*
X177120326Y-84990933D01*
X177029434Y-84933584D01*
X177029433Y-84933584D01*
X177024554Y-84930505D01*
X176828160Y-84852152D01*
X176822503Y-84851027D01*
X176822497Y-84851025D01*
X176625234Y-84811788D01*
X176562324Y-84778881D01*
X176527192Y-84717186D01*
X176530992Y-84646291D01*
X176572517Y-84588705D01*
X176631734Y-84563513D01*
X176764015Y-84544333D01*
X176764019Y-84544332D01*
X176769730Y-84543504D01*
X176848987Y-84516600D01*
X176964483Y-84477395D01*
X176964488Y-84477393D01*
X176969955Y-84475537D01*
X176974998Y-84472713D01*
X177149395Y-84375046D01*
X177149399Y-84375043D01*
X177154442Y-84372219D01*
X177317012Y-84237012D01*
X177452219Y-84074442D01*
X177455043Y-84069399D01*
X177455046Y-84069395D01*
X177552713Y-83894998D01*
X177552714Y-83894996D01*
X177555537Y-83889955D01*
X177557393Y-83884488D01*
X177557395Y-83884483D01*
X177609606Y-83730673D01*
X177623504Y-83689730D01*
X177627056Y-83665238D01*
X177653314Y-83484140D01*
X177653314Y-83484138D01*
X177653846Y-83480470D01*
X177655429Y-83420000D01*
X177636081Y-83209440D01*
X177578686Y-83005931D01*
X177570978Y-82990299D01*
X177487719Y-82821469D01*
X177485165Y-82816290D01*
X177358651Y-82646867D01*
X177214075Y-82513222D01*
X177207622Y-82507257D01*
X177207620Y-82507255D01*
X177203381Y-82503337D01*
X177167759Y-82480861D01*
X177029434Y-82393584D01*
X177029433Y-82393584D01*
X177024554Y-82390505D01*
X176828160Y-82312152D01*
X176822503Y-82311027D01*
X176822497Y-82311025D01*
X176626442Y-82272028D01*
X176626440Y-82272028D01*
X176620775Y-82270901D01*
X176615000Y-82270825D01*
X176614996Y-82270825D01*
X176508976Y-82269437D01*
X176409346Y-82268133D01*
X176403649Y-82269112D01*
X176403648Y-82269112D01*
X176206650Y-82302962D01*
X176206649Y-82302962D01*
X176200953Y-82303941D01*
X176002575Y-82377127D01*
X175997614Y-82380079D01*
X175997613Y-82380079D01*
X175840593Y-82473496D01*
X175820856Y-82485238D01*
X175661881Y-82624655D01*
X175530976Y-82790708D01*
X175528287Y-82795819D01*
X175528285Y-82795822D01*
X175514792Y-82821469D01*
X175432523Y-82977836D01*
X175369820Y-83179773D01*
X175344967Y-83389754D01*
X175358796Y-83600749D01*
X175360217Y-83606345D01*
X175360218Y-83606350D01*
X175391194Y-83728314D01*
X175410845Y-83805690D01*
X175413262Y-83810933D01*
X175477990Y-83951340D01*
X175499369Y-83997714D01*
X175621405Y-84170391D01*
X175642724Y-84191159D01*
X175751566Y-84297188D01*
X175772865Y-84317937D01*
X175777661Y-84321142D01*
X175777664Y-84321144D01*
X175920936Y-84416875D01*
X175948677Y-84435411D01*
X175953985Y-84437692D01*
X175953986Y-84437692D01*
X176137650Y-84516600D01*
X176137653Y-84516601D01*
X176142953Y-84518878D01*
X176148582Y-84520152D01*
X176148583Y-84520152D01*
X176343550Y-84564269D01*
X176343553Y-84564269D01*
X176349186Y-84565544D01*
X176354958Y-84565771D01*
X176360687Y-84566525D01*
X176360327Y-84569257D01*
X176416604Y-84588216D01*
X176460950Y-84643659D01*
X176468282Y-84714276D01*
X176436271Y-84777647D01*
X176375081Y-84813651D01*
X176365704Y-84815632D01*
X176206650Y-84842962D01*
X176206649Y-84842962D01*
X176200953Y-84843941D01*
X176002575Y-84917127D01*
X175997614Y-84920079D01*
X175997613Y-84920079D01*
X175980089Y-84930505D01*
X175820856Y-85025238D01*
X175661881Y-85164655D01*
X175530976Y-85330708D01*
X175528287Y-85335819D01*
X175528285Y-85335822D01*
X175514792Y-85361469D01*
X175432523Y-85517836D01*
X175369820Y-85719773D01*
X175344967Y-85929754D01*
X157448982Y-85929754D01*
X157383771Y-85797521D01*
X157381217Y-85792342D01*
X157254703Y-85622919D01*
X157135490Y-85512720D01*
X157103674Y-85483309D01*
X157103672Y-85483307D01*
X157099433Y-85479389D01*
X156920606Y-85366557D01*
X156724212Y-85288204D01*
X156718555Y-85287079D01*
X156718549Y-85287077D01*
X156522494Y-85248080D01*
X156522492Y-85248080D01*
X156516827Y-85246953D01*
X156511052Y-85246877D01*
X156511048Y-85246877D01*
X156405028Y-85245489D01*
X156305398Y-85244185D01*
X156299701Y-85245164D01*
X156299700Y-85245164D01*
X156102702Y-85279014D01*
X156102701Y-85279014D01*
X156097005Y-85279993D01*
X155898627Y-85353179D01*
X155893666Y-85356131D01*
X155893665Y-85356131D01*
X155815104Y-85402870D01*
X155716908Y-85461290D01*
X155712568Y-85465096D01*
X155712564Y-85465099D01*
X155676353Y-85496855D01*
X155611949Y-85526731D01*
X155541616Y-85517044D01*
X155487685Y-85470871D01*
X155467279Y-85402870D01*
X155486876Y-85334632D01*
X155496391Y-85321568D01*
X155552219Y-85254442D01*
X155555043Y-85249399D01*
X155555046Y-85249395D01*
X155652713Y-85074998D01*
X155652714Y-85074996D01*
X155655537Y-85069955D01*
X155657393Y-85064488D01*
X155657395Y-85064483D01*
X155721647Y-84875200D01*
X155723504Y-84869730D01*
X155725743Y-84854292D01*
X155753314Y-84664140D01*
X155753314Y-84664138D01*
X155753846Y-84660470D01*
X155755429Y-84600000D01*
X155736081Y-84389440D01*
X155726135Y-84354172D01*
X155715915Y-84317937D01*
X155678686Y-84185931D01*
X155673009Y-84174418D01*
X155587719Y-84001469D01*
X155585165Y-83996290D01*
X155458651Y-83826867D01*
X155352037Y-83728314D01*
X155307622Y-83687257D01*
X155307620Y-83687255D01*
X155303381Y-83683337D01*
X155281010Y-83669222D01*
X155129434Y-83573584D01*
X155129433Y-83573584D01*
X155124554Y-83570505D01*
X154928160Y-83492152D01*
X154922503Y-83491027D01*
X154922497Y-83491025D01*
X154726442Y-83452028D01*
X154726440Y-83452028D01*
X154720775Y-83450901D01*
X154715000Y-83450825D01*
X154714996Y-83450825D01*
X154608976Y-83449437D01*
X154509346Y-83448133D01*
X154503649Y-83449112D01*
X154503648Y-83449112D01*
X154306650Y-83482962D01*
X154306649Y-83482962D01*
X154300953Y-83483941D01*
X154102575Y-83557127D01*
X154097614Y-83560079D01*
X154097613Y-83560079D01*
X153935895Y-83656291D01*
X153920856Y-83665238D01*
X153886691Y-83695200D01*
X153880309Y-83700797D01*
X153815904Y-83730673D01*
X153745571Y-83720986D01*
X153691641Y-83674813D01*
X153671234Y-83606812D01*
X153690831Y-83538574D01*
X153700354Y-83525501D01*
X153756168Y-83458391D01*
X153758992Y-83453348D01*
X153758995Y-83453344D01*
X153856662Y-83278947D01*
X153856663Y-83278945D01*
X153859486Y-83273904D01*
X153861342Y-83268437D01*
X153861344Y-83268432D01*
X153925596Y-83079149D01*
X153927453Y-83073679D01*
X153935671Y-83017007D01*
X153957263Y-82868089D01*
X153957263Y-82868087D01*
X153957795Y-82864419D01*
X153959378Y-82803949D01*
X153940030Y-82593389D01*
X153882635Y-82389880D01*
X153875351Y-82375108D01*
X153791668Y-82205418D01*
X153789114Y-82200239D01*
X153675593Y-82048216D01*
X153666053Y-82035440D01*
X153666052Y-82035439D01*
X153662600Y-82030816D01*
X153507330Y-81887286D01*
X153328503Y-81774454D01*
X153132109Y-81696101D01*
X153126452Y-81694976D01*
X153126446Y-81694974D01*
X152930391Y-81655977D01*
X152930389Y-81655977D01*
X152924724Y-81654850D01*
X152918949Y-81654774D01*
X152918945Y-81654774D01*
X152812925Y-81653386D01*
X152713295Y-81652082D01*
X152707598Y-81653061D01*
X152707597Y-81653061D01*
X152510599Y-81686911D01*
X152510598Y-81686911D01*
X152504902Y-81687890D01*
X152306524Y-81761076D01*
X152301563Y-81764028D01*
X152301562Y-81764028D01*
X152193159Y-81828521D01*
X152124805Y-81869187D01*
X152123539Y-81867059D01*
X152066681Y-81887347D01*
X151997529Y-81871268D01*
X151948048Y-81820355D01*
X151933948Y-81750772D01*
X151959705Y-81684613D01*
X151970391Y-81672458D01*
X152454035Y-81188814D01*
X152456342Y-81185884D01*
X152456347Y-81185878D01*
X152464509Y-81175510D01*
X152470356Y-81168083D01*
X152476800Y-81151340D01*
X152506388Y-81074462D01*
X152506388Y-81074460D01*
X152510565Y-81063608D01*
X152510526Y-81018439D01*
X152510482Y-80969291D01*
X152510467Y-80951663D01*
X152470077Y-80847258D01*
X152454035Y-80826982D01*
X151188814Y-79561761D01*
X151185884Y-79559454D01*
X151185878Y-79559449D01*
X151175510Y-79551287D01*
X151168083Y-79545440D01*
X151157129Y-79541224D01*
X151074462Y-79509408D01*
X151074460Y-79509408D01*
X151063608Y-79505231D01*
X151051978Y-79505241D01*
X151051977Y-79505241D01*
X151007849Y-79505280D01*
X150951663Y-79505329D01*
X150847258Y-79545719D01*
X150826982Y-79561761D01*
X149561761Y-80826982D01*
X149559454Y-80829912D01*
X149559449Y-80829918D01*
X149551649Y-80839826D01*
X149545440Y-80847713D01*
X149542045Y-80856534D01*
X149511168Y-80936763D01*
X149505231Y-80952188D01*
X141548955Y-80952188D01*
X141536330Y-80856291D01*
X141480861Y-80722375D01*
X141392621Y-80607379D01*
X141277625Y-80519139D01*
X141264393Y-80513658D01*
X141162603Y-80471496D01*
X141143709Y-80463670D01*
X141000000Y-80444750D01*
X140856291Y-80463670D01*
X140837397Y-80471496D01*
X140735608Y-80513658D01*
X140722375Y-80519139D01*
X140607379Y-80607379D01*
X140519139Y-80722375D01*
X140515979Y-80730004D01*
X140466831Y-80848660D01*
X140463670Y-80856291D01*
X140463071Y-80860841D01*
X140427005Y-80920012D01*
X140363145Y-80951034D01*
X140325803Y-80951701D01*
X140299878Y-80948288D01*
X140299877Y-80948288D01*
X140291689Y-80947210D01*
X140147980Y-80966130D01*
X140014064Y-81021599D01*
X139899068Y-81109839D01*
X139810828Y-81224835D01*
X139807668Y-81232464D01*
X139793906Y-81265690D01*
X139755359Y-81358751D01*
X139754281Y-81366938D01*
X139752443Y-81373799D01*
X139715492Y-81434422D01*
X139663718Y-81462692D01*
X139656291Y-81463670D01*
X139522375Y-81519139D01*
X139407379Y-81607379D01*
X139319139Y-81722375D01*
X139263670Y-81856291D01*
X139244750Y-82000000D01*
X108480052Y-82000000D01*
X108542276Y-81978878D01*
X108664483Y-81937395D01*
X108664488Y-81937393D01*
X108669955Y-81935537D01*
X108674998Y-81932713D01*
X108849395Y-81835046D01*
X108849399Y-81835043D01*
X108854442Y-81832219D01*
X109017012Y-81697012D01*
X109152219Y-81534442D01*
X109155043Y-81529399D01*
X109155046Y-81529395D01*
X109252713Y-81354998D01*
X109252714Y-81354996D01*
X109255537Y-81349955D01*
X109257393Y-81344488D01*
X109257395Y-81344483D01*
X109314753Y-81175510D01*
X109323504Y-81149730D01*
X109325565Y-81135520D01*
X109353314Y-80944140D01*
X109353314Y-80944138D01*
X109353846Y-80940470D01*
X109355429Y-80880000D01*
X109336081Y-80669440D01*
X109331275Y-80652397D01*
X109308398Y-80571282D01*
X109278686Y-80465931D01*
X109275226Y-80458913D01*
X109187719Y-80281469D01*
X109185165Y-80276290D01*
X109058651Y-80106867D01*
X108958286Y-80014090D01*
X108907622Y-79967257D01*
X108907620Y-79967255D01*
X108903381Y-79963337D01*
X108850552Y-79930004D01*
X108729434Y-79853584D01*
X108729433Y-79853584D01*
X108724554Y-79850505D01*
X108528160Y-79772152D01*
X108522503Y-79771027D01*
X108522497Y-79771025D01*
X108325234Y-79731788D01*
X108262324Y-79698881D01*
X108227192Y-79637186D01*
X108230736Y-79571069D01*
X118495164Y-79571069D01*
X118508392Y-79772894D01*
X118515874Y-79802353D01*
X118555976Y-79960256D01*
X118558178Y-79968928D01*
X118642856Y-80152607D01*
X118646189Y-80157323D01*
X118682137Y-80208188D01*
X118759588Y-80317780D01*
X118763730Y-80321815D01*
X118796344Y-80353586D01*
X118904466Y-80458913D01*
X119072637Y-80571282D01*
X119077940Y-80573560D01*
X119077943Y-80573562D01*
X119219213Y-80634256D01*
X119258470Y-80651122D01*
X119455740Y-80695760D01*
X119461509Y-80695987D01*
X119461512Y-80695987D01*
X119537683Y-80698979D01*
X119657842Y-80703700D01*
X119744132Y-80691189D01*
X119852286Y-80675508D01*
X119852291Y-80675507D01*
X119858007Y-80674678D01*
X119863479Y-80672820D01*
X119863481Y-80672820D01*
X120044067Y-80611519D01*
X120044069Y-80611518D01*
X120049531Y-80609664D01*
X120202197Y-80524168D01*
X120220964Y-80513658D01*
X120220965Y-80513657D01*
X120226001Y-80510837D01*
X120288433Y-80458913D01*
X120377073Y-80385191D01*
X120381505Y-80381505D01*
X120501856Y-80236799D01*
X120507146Y-80230439D01*
X120510837Y-80226001D01*
X120523083Y-80204135D01*
X120574965Y-80111491D01*
X120609664Y-80049531D01*
X120637593Y-79967257D01*
X120672820Y-79863481D01*
X120672820Y-79863479D01*
X120674678Y-79858007D01*
X120675507Y-79852291D01*
X120675508Y-79852286D01*
X120694276Y-79722837D01*
X120703700Y-79657842D01*
X120705215Y-79600000D01*
X120702557Y-79571069D01*
X121995164Y-79571069D01*
X122008392Y-79772894D01*
X122015874Y-79802353D01*
X122055976Y-79960256D01*
X122058178Y-79968928D01*
X122142856Y-80152607D01*
X122146189Y-80157323D01*
X122182137Y-80208188D01*
X122259588Y-80317780D01*
X122263730Y-80321815D01*
X122296344Y-80353586D01*
X122404466Y-80458913D01*
X122572637Y-80571282D01*
X122577940Y-80573560D01*
X122577943Y-80573562D01*
X122719213Y-80634256D01*
X122758470Y-80651122D01*
X122955740Y-80695760D01*
X122961509Y-80695987D01*
X122961512Y-80695987D01*
X123037683Y-80698979D01*
X123157842Y-80703700D01*
X123244132Y-80691189D01*
X123352286Y-80675508D01*
X123352291Y-80675507D01*
X123358007Y-80674678D01*
X123363479Y-80672820D01*
X123363481Y-80672820D01*
X123544067Y-80611519D01*
X123544069Y-80611518D01*
X123549531Y-80609664D01*
X123702197Y-80524168D01*
X123720964Y-80513658D01*
X123720965Y-80513657D01*
X123726001Y-80510837D01*
X123788433Y-80458913D01*
X123877073Y-80385191D01*
X123881505Y-80381505D01*
X123885191Y-80377073D01*
X123885196Y-80377068D01*
X123968516Y-80276887D01*
X124027454Y-80237303D01*
X124098436Y-80235867D01*
X124134380Y-80252022D01*
X124236789Y-80319036D01*
X124405116Y-80381636D01*
X124412097Y-80382567D01*
X124412099Y-80382568D01*
X124576149Y-80404457D01*
X124576153Y-80404457D01*
X124583130Y-80405388D01*
X124590142Y-80404750D01*
X124590146Y-80404750D01*
X124754960Y-80389751D01*
X124754961Y-80389751D01*
X124761981Y-80389112D01*
X124932782Y-80333615D01*
X124967264Y-80313060D01*
X125080992Y-80245265D01*
X125080994Y-80245264D01*
X125087044Y-80241657D01*
X125130788Y-80200000D01*
X144844750Y-80200000D01*
X144863670Y-80343709D01*
X144919139Y-80477625D01*
X145007379Y-80592621D01*
X145122375Y-80680861D01*
X145256291Y-80736330D01*
X145400000Y-80755250D01*
X145543709Y-80736330D01*
X145677625Y-80680861D01*
X145792621Y-80592621D01*
X145880861Y-80477625D01*
X145936330Y-80343709D01*
X145955250Y-80200000D01*
X145954277Y-80192611D01*
X146894394Y-80192611D01*
X146912999Y-80361135D01*
X146939196Y-80432720D01*
X146967783Y-80510837D01*
X146971266Y-80520356D01*
X146975502Y-80526659D01*
X146975502Y-80526660D01*
X146988574Y-80546113D01*
X147065830Y-80661083D01*
X147071442Y-80666190D01*
X147071445Y-80666193D01*
X147185612Y-80770077D01*
X147185616Y-80770080D01*
X147191233Y-80775191D01*
X147197906Y-80778814D01*
X147197910Y-80778817D01*
X147333558Y-80852467D01*
X147333560Y-80852468D01*
X147340235Y-80856092D01*
X147347584Y-80858020D01*
X147496883Y-80897188D01*
X147496885Y-80897188D01*
X147504233Y-80899116D01*
X147590609Y-80900473D01*
X147666161Y-80901660D01*
X147666164Y-80901660D01*
X147673760Y-80901779D01*
X147681165Y-80900083D01*
X147681166Y-80900083D01*
X147752681Y-80883704D01*
X147839029Y-80863928D01*
X147990498Y-80787747D01*
X148089170Y-80703473D01*
X148113651Y-80682564D01*
X148113652Y-80682563D01*
X148119423Y-80677634D01*
X148218361Y-80539947D01*
X148228929Y-80513658D01*
X148278766Y-80389687D01*
X148278767Y-80389685D01*
X148281601Y-80382634D01*
X148299649Y-80255822D01*
X148304909Y-80218862D01*
X148304909Y-80218859D01*
X148305490Y-80214778D01*
X148305645Y-80200000D01*
X148303840Y-80185080D01*
X148301004Y-80161653D01*
X148285276Y-80031680D01*
X148225345Y-79873077D01*
X148209832Y-79850505D01*
X148133614Y-79739608D01*
X148133613Y-79739607D01*
X148129312Y-79733349D01*
X148117514Y-79722837D01*
X148008392Y-79625612D01*
X148008388Y-79625610D01*
X148002721Y-79620560D01*
X147970886Y-79603704D01*
X147920139Y-79576835D01*
X147852881Y-79541224D01*
X147688441Y-79499919D01*
X147680843Y-79499879D01*
X147680841Y-79499879D01*
X147603668Y-79499475D01*
X147518895Y-79499031D01*
X147511508Y-79500805D01*
X147511504Y-79500805D01*
X147376703Y-79533169D01*
X147354032Y-79538612D01*
X147347288Y-79542093D01*
X147347285Y-79542094D01*
X147227417Y-79603963D01*
X147203369Y-79616375D01*
X147197647Y-79621367D01*
X147197645Y-79621368D01*
X147179513Y-79637186D01*
X147075604Y-79727831D01*
X147067327Y-79739608D01*
X146987224Y-79853584D01*
X146978113Y-79866547D01*
X146916524Y-80024513D01*
X146915532Y-80032046D01*
X146915532Y-80032047D01*
X146899040Y-80157323D01*
X146894394Y-80192611D01*
X145954277Y-80192611D01*
X145936330Y-80056291D01*
X145880861Y-79922375D01*
X145792621Y-79807379D01*
X145677625Y-79719139D01*
X145543709Y-79663670D01*
X145400000Y-79644750D01*
X145256291Y-79663670D01*
X145122375Y-79719139D01*
X145007379Y-79807379D01*
X144919139Y-79922375D01*
X144863670Y-80056291D01*
X144844750Y-80200000D01*
X125130788Y-80200000D01*
X125217099Y-80117807D01*
X125221296Y-80111491D01*
X125312582Y-79974093D01*
X125316483Y-79968222D01*
X125349927Y-79880180D01*
X125377757Y-79806919D01*
X125377758Y-79806914D01*
X125380257Y-79800336D01*
X125381237Y-79793364D01*
X125404700Y-79626416D01*
X125404700Y-79626411D01*
X125405251Y-79622493D01*
X125405565Y-79600000D01*
X125385546Y-79421528D01*
X125326485Y-79251927D01*
X125299968Y-79209490D01*
X125235049Y-79105599D01*
X125231316Y-79099625D01*
X125132384Y-79000000D01*
X142244750Y-79000000D01*
X142263670Y-79143709D01*
X142319139Y-79277625D01*
X142407379Y-79392621D01*
X142522375Y-79480861D01*
X142656291Y-79536330D01*
X142800000Y-79555250D01*
X142943709Y-79536330D01*
X143077625Y-79480861D01*
X143192621Y-79392621D01*
X143280861Y-79277625D01*
X143336330Y-79143709D01*
X143355250Y-79000000D01*
X143336330Y-78856291D01*
X143280861Y-78722375D01*
X143192621Y-78607379D01*
X143077625Y-78519139D01*
X142943709Y-78463670D01*
X142800000Y-78444750D01*
X142656291Y-78463670D01*
X142522375Y-78519139D01*
X142407379Y-78607379D01*
X142319139Y-78722375D01*
X142263670Y-78856291D01*
X142244750Y-79000000D01*
X125132384Y-79000000D01*
X125109733Y-78977190D01*
X125109729Y-78977187D01*
X125104770Y-78972193D01*
X125097494Y-78967575D01*
X125018925Y-78917714D01*
X124953136Y-78875963D01*
X124897891Y-78856291D01*
X124790586Y-78818081D01*
X124790581Y-78818080D01*
X124783951Y-78815719D01*
X124776965Y-78814886D01*
X124776961Y-78814885D01*
X124649177Y-78799648D01*
X124605624Y-78794455D01*
X124598621Y-78795191D01*
X124598620Y-78795191D01*
X124434025Y-78812490D01*
X124434021Y-78812491D01*
X124427017Y-78813227D01*
X124420346Y-78815498D01*
X124263677Y-78868832D01*
X124263674Y-78868833D01*
X124257007Y-78871103D01*
X124251009Y-78874793D01*
X124251007Y-78874794D01*
X124130522Y-78948917D01*
X124062021Y-78967575D01*
X123994307Y-78946236D01*
X123963543Y-78916989D01*
X123924790Y-78865093D01*
X123924786Y-78865089D01*
X123921335Y-78860467D01*
X123917099Y-78856551D01*
X123777053Y-78727094D01*
X123777051Y-78727092D01*
X123772812Y-78723174D01*
X123745374Y-78705862D01*
X123606637Y-78618325D01*
X123601757Y-78615246D01*
X123413898Y-78540298D01*
X123215526Y-78500839D01*
X123209752Y-78500763D01*
X123209748Y-78500763D01*
X123107257Y-78499422D01*
X123013286Y-78498192D01*
X123007589Y-78499171D01*
X123007588Y-78499171D01*
X122819646Y-78531465D01*
X122819645Y-78531465D01*
X122813949Y-78532444D01*
X122624193Y-78602449D01*
X122450371Y-78705862D01*
X122298305Y-78839220D01*
X122173089Y-78998057D01*
X122078914Y-79177053D01*
X122018937Y-79370213D01*
X121995164Y-79571069D01*
X120702557Y-79571069D01*
X120686708Y-79398591D01*
X120631807Y-79203926D01*
X120542351Y-79022527D01*
X120524079Y-78998057D01*
X120424788Y-78865091D01*
X120424787Y-78865090D01*
X120421335Y-78860467D01*
X120417099Y-78856551D01*
X120277053Y-78727094D01*
X120277051Y-78727092D01*
X120272812Y-78723174D01*
X120245374Y-78705862D01*
X120106637Y-78618325D01*
X120101757Y-78615246D01*
X119913898Y-78540298D01*
X119715526Y-78500839D01*
X119709752Y-78500763D01*
X119709748Y-78500763D01*
X119607257Y-78499422D01*
X119513286Y-78498192D01*
X119507589Y-78499171D01*
X119507588Y-78499171D01*
X119319646Y-78531465D01*
X119319645Y-78531465D01*
X119313949Y-78532444D01*
X119124193Y-78602449D01*
X118950371Y-78705862D01*
X118798305Y-78839220D01*
X118673089Y-78998057D01*
X118578914Y-79177053D01*
X118518937Y-79370213D01*
X118495164Y-79571069D01*
X108230736Y-79571069D01*
X108230992Y-79566291D01*
X108272517Y-79508705D01*
X108331734Y-79483513D01*
X108464015Y-79464333D01*
X108464019Y-79464332D01*
X108469730Y-79463504D01*
X108548987Y-79436600D01*
X108664483Y-79397395D01*
X108664488Y-79397393D01*
X108669955Y-79395537D01*
X108704930Y-79375950D01*
X108849395Y-79295046D01*
X108849399Y-79295043D01*
X108854442Y-79292219D01*
X109017012Y-79157012D01*
X109152219Y-78994442D01*
X109155043Y-78989399D01*
X109155046Y-78989395D01*
X109252713Y-78814998D01*
X109252714Y-78814996D01*
X109255537Y-78809955D01*
X109257393Y-78804488D01*
X109257395Y-78804483D01*
X109320586Y-78618325D01*
X109323504Y-78609730D01*
X109324850Y-78600451D01*
X109353314Y-78404140D01*
X109353314Y-78404138D01*
X109353846Y-78400470D01*
X109355429Y-78340000D01*
X109336081Y-78129440D01*
X109278686Y-77925931D01*
X109267553Y-77903354D01*
X109187719Y-77741469D01*
X109185165Y-77736290D01*
X109058651Y-77566867D01*
X108903381Y-77423337D01*
X108724554Y-77310505D01*
X108528160Y-77232152D01*
X108522503Y-77231027D01*
X108522497Y-77231025D01*
X108366916Y-77200079D01*
X108304006Y-77167172D01*
X108268874Y-77105477D01*
X108272674Y-77034582D01*
X108314199Y-76976996D01*
X108380266Y-76951002D01*
X108391497Y-76950500D01*
X109094646Y-76950500D01*
X109098350Y-76950059D01*
X109098353Y-76950059D01*
X109105746Y-76949179D01*
X109120846Y-76947382D01*
X109223153Y-76901939D01*
X109302241Y-76822713D01*
X109347506Y-76720327D01*
X109350500Y-76694646D01*
X109350500Y-74905354D01*
X109347382Y-74879154D01*
X109330727Y-74841657D01*
X109306663Y-74787482D01*
X109301939Y-74776847D01*
X109222713Y-74697759D01*
X109212076Y-74693056D01*
X109212074Y-74693055D01*
X109152538Y-74666735D01*
X109120327Y-74652494D01*
X109094646Y-74649500D01*
X107305354Y-74649500D01*
X107301650Y-74649941D01*
X107301647Y-74649941D01*
X107294254Y-74650821D01*
X107279154Y-74652618D01*
X107270514Y-74656456D01*
X107270513Y-74656456D01*
X107191591Y-74691512D01*
X107176847Y-74698061D01*
X107097759Y-74777287D01*
X107052494Y-74879673D01*
X107049500Y-74905354D01*
X107049500Y-76694646D01*
X107052618Y-76720846D01*
X107098061Y-76823153D01*
X107177287Y-76902241D01*
X107187924Y-76906944D01*
X107187926Y-76906945D01*
X107247462Y-76933265D01*
X107279673Y-76947506D01*
X107305354Y-76950500D01*
X108014988Y-76950500D01*
X108083109Y-76970502D01*
X108129602Y-77024158D01*
X108139706Y-77094432D01*
X108110212Y-77159012D01*
X108050486Y-77197396D01*
X108036326Y-77200680D01*
X107906650Y-77222962D01*
X107906649Y-77222962D01*
X107900953Y-77223941D01*
X107702575Y-77297127D01*
X107697614Y-77300079D01*
X107697613Y-77300079D01*
X107680089Y-77310505D01*
X107520856Y-77405238D01*
X107361881Y-77544655D01*
X107230976Y-77710708D01*
X107228287Y-77715819D01*
X107228285Y-77715822D01*
X107214792Y-77741469D01*
X107132523Y-77897836D01*
X107069820Y-78099773D01*
X107044967Y-78309754D01*
X107058796Y-78520749D01*
X107060217Y-78526345D01*
X107060218Y-78526350D01*
X107109424Y-78720095D01*
X107110845Y-78725690D01*
X107113262Y-78730933D01*
X107163183Y-78839220D01*
X107199369Y-78917714D01*
X107321405Y-79090391D01*
X107472865Y-79237937D01*
X107477661Y-79241142D01*
X107477664Y-79241144D01*
X107620936Y-79336875D01*
X107648677Y-79355411D01*
X107653985Y-79357692D01*
X107653986Y-79357692D01*
X107837650Y-79436600D01*
X107837653Y-79436601D01*
X107842953Y-79438878D01*
X107848582Y-79440152D01*
X107848583Y-79440152D01*
X108043550Y-79484269D01*
X108043553Y-79484269D01*
X108049186Y-79485544D01*
X108054958Y-79485771D01*
X108060687Y-79486525D01*
X108060327Y-79489257D01*
X108116604Y-79508216D01*
X108160950Y-79563659D01*
X108168282Y-79634276D01*
X108136271Y-79697647D01*
X108075081Y-79733651D01*
X108065704Y-79735632D01*
X107906650Y-79762962D01*
X107906649Y-79762962D01*
X107900953Y-79763941D01*
X107702575Y-79837127D01*
X107697614Y-79840079D01*
X107697613Y-79840079D01*
X107680089Y-79850505D01*
X107520856Y-79945238D01*
X107361881Y-80084655D01*
X107230976Y-80250708D01*
X107228287Y-80255819D01*
X107228285Y-80255822D01*
X107195688Y-80317780D01*
X107132523Y-80437836D01*
X107069820Y-80639773D01*
X107044967Y-80849754D01*
X107058796Y-81060749D01*
X107060217Y-81066345D01*
X107060218Y-81066350D01*
X107109424Y-81260095D01*
X107110845Y-81265690D01*
X107199369Y-81457714D01*
X107321405Y-81630391D01*
X107345434Y-81653799D01*
X107467239Y-81772456D01*
X107472865Y-81777937D01*
X107477661Y-81781142D01*
X107477664Y-81781144D01*
X107615252Y-81873077D01*
X107648677Y-81895411D01*
X107653985Y-81897692D01*
X107653986Y-81897692D01*
X107837650Y-81976600D01*
X107837653Y-81976601D01*
X107842953Y-81978878D01*
X107848582Y-81980152D01*
X107848583Y-81980152D01*
X108043550Y-82024269D01*
X108043553Y-82024269D01*
X108049186Y-82025544D01*
X108054958Y-82025771D01*
X108060687Y-82026525D01*
X108060327Y-82029257D01*
X108116604Y-82048216D01*
X108160950Y-82103659D01*
X108168282Y-82174276D01*
X108136271Y-82237647D01*
X108075081Y-82273651D01*
X108065704Y-82275632D01*
X107906650Y-82302962D01*
X107906649Y-82302962D01*
X107900953Y-82303941D01*
X107702575Y-82377127D01*
X107697614Y-82380079D01*
X107697613Y-82380079D01*
X107540593Y-82473496D01*
X107520856Y-82485238D01*
X107361881Y-82624655D01*
X107230976Y-82790708D01*
X107228287Y-82795819D01*
X107228285Y-82795822D01*
X107214792Y-82821469D01*
X107132523Y-82977836D01*
X107069820Y-83179773D01*
X107044967Y-83389754D01*
X107058796Y-83600749D01*
X107060217Y-83606345D01*
X107060218Y-83606350D01*
X107091194Y-83728314D01*
X107110845Y-83805690D01*
X107113262Y-83810933D01*
X107177990Y-83951340D01*
X107199369Y-83997714D01*
X107321405Y-84170391D01*
X107342724Y-84191159D01*
X107451566Y-84297188D01*
X107472865Y-84317937D01*
X107477661Y-84321142D01*
X107477664Y-84321144D01*
X107620936Y-84416875D01*
X107648677Y-84435411D01*
X107653985Y-84437692D01*
X107653986Y-84437692D01*
X107837650Y-84516600D01*
X107837653Y-84516601D01*
X107842953Y-84518878D01*
X107848582Y-84520152D01*
X107848583Y-84520152D01*
X108043550Y-84564269D01*
X108043553Y-84564269D01*
X108049186Y-84565544D01*
X108054958Y-84565771D01*
X108060687Y-84566525D01*
X108060327Y-84569257D01*
X108116604Y-84588216D01*
X108160950Y-84643659D01*
X108168282Y-84714276D01*
X108136271Y-84777647D01*
X108075081Y-84813651D01*
X108065704Y-84815632D01*
X107906650Y-84842962D01*
X107906649Y-84842962D01*
X107900953Y-84843941D01*
X107702575Y-84917127D01*
X107697614Y-84920079D01*
X107697613Y-84920079D01*
X107680089Y-84930505D01*
X107520856Y-85025238D01*
X107361881Y-85164655D01*
X107230976Y-85330708D01*
X107228287Y-85335819D01*
X107228285Y-85335822D01*
X107214792Y-85361469D01*
X107132523Y-85517836D01*
X107069820Y-85719773D01*
X107044967Y-85929754D01*
X103300000Y-85929754D01*
X103300000Y-74188753D01*
X123394514Y-74188753D01*
X123395201Y-74195760D01*
X123395201Y-74195763D01*
X123396005Y-74203963D01*
X123412039Y-74367486D01*
X123414262Y-74374168D01*
X123414262Y-74374169D01*
X123422967Y-74400336D01*
X123468726Y-74537896D01*
X123472373Y-74543918D01*
X123537528Y-74651501D01*
X123561759Y-74691512D01*
X123566648Y-74696575D01*
X123566649Y-74696576D01*
X123568083Y-74698061D01*
X123686514Y-74820699D01*
X123836789Y-74919036D01*
X124005116Y-74981636D01*
X124012097Y-74982567D01*
X124012099Y-74982568D01*
X124176149Y-75004457D01*
X124176153Y-75004457D01*
X124183130Y-75005388D01*
X124190142Y-75004750D01*
X124190146Y-75004750D01*
X124354960Y-74989751D01*
X124354961Y-74989751D01*
X124361981Y-74989112D01*
X124532782Y-74933615D01*
X124580191Y-74905354D01*
X124680992Y-74845265D01*
X124680994Y-74845264D01*
X124687044Y-74841657D01*
X124817099Y-74717807D01*
X124834570Y-74691512D01*
X124912582Y-74574093D01*
X124916483Y-74568222D01*
X124931168Y-74529564D01*
X124977757Y-74406919D01*
X124977758Y-74406914D01*
X124980257Y-74400336D01*
X125005251Y-74222493D01*
X125005565Y-74200000D01*
X124985546Y-74021528D01*
X124979427Y-74003955D01*
X124928803Y-73858584D01*
X124926485Y-73851927D01*
X124831316Y-73699625D01*
X124767771Y-73635635D01*
X124709733Y-73577190D01*
X124709729Y-73577187D01*
X124704770Y-73572193D01*
X124693761Y-73565206D01*
X124646860Y-73535442D01*
X124553136Y-73475963D01*
X124523352Y-73465357D01*
X124390586Y-73418081D01*
X124390581Y-73418080D01*
X124383951Y-73415719D01*
X124376965Y-73414886D01*
X124376961Y-73414885D01*
X124249177Y-73399648D01*
X124205624Y-73394455D01*
X124198621Y-73395191D01*
X124198620Y-73395191D01*
X124034025Y-73412490D01*
X124034021Y-73412491D01*
X124027017Y-73413227D01*
X124020346Y-73415498D01*
X123863677Y-73468832D01*
X123863674Y-73468833D01*
X123857007Y-73471103D01*
X123851009Y-73474793D01*
X123851007Y-73474794D01*
X123780526Y-73518155D01*
X123704045Y-73565206D01*
X123699014Y-73570132D01*
X123699011Y-73570135D01*
X123691807Y-73577190D01*
X123575732Y-73690859D01*
X123571913Y-73696784D01*
X123571912Y-73696786D01*
X123482265Y-73835891D01*
X123478446Y-73841817D01*
X123417022Y-74010578D01*
X123394514Y-74188753D01*
X103300000Y-74188753D01*
X103300000Y-71388753D01*
X146194514Y-71388753D01*
X146195201Y-71395760D01*
X146195201Y-71395763D01*
X146196005Y-71403963D01*
X146212039Y-71567486D01*
X146214262Y-71574168D01*
X146214262Y-71574169D01*
X146222967Y-71600336D01*
X146268726Y-71737896D01*
X146361759Y-71891512D01*
X146486514Y-72020699D01*
X146636789Y-72119036D01*
X146805116Y-72181636D01*
X146812097Y-72182567D01*
X146812099Y-72182568D01*
X146976149Y-72204457D01*
X146976153Y-72204457D01*
X146983130Y-72205388D01*
X146990142Y-72204750D01*
X146990146Y-72204750D01*
X147154960Y-72189751D01*
X147154961Y-72189751D01*
X147161981Y-72189112D01*
X147332782Y-72133615D01*
X147363714Y-72115176D01*
X147480992Y-72045265D01*
X147480994Y-72045264D01*
X147487044Y-72041657D01*
X147617099Y-71917807D01*
X147634570Y-71891512D01*
X147712582Y-71774093D01*
X147716483Y-71768222D01*
X147731168Y-71729564D01*
X147777757Y-71606919D01*
X147777758Y-71606914D01*
X147780257Y-71600336D01*
X147805251Y-71422493D01*
X147805565Y-71400000D01*
X147804303Y-71388753D01*
X148394514Y-71388753D01*
X148395201Y-71395760D01*
X148395201Y-71395763D01*
X148396005Y-71403963D01*
X148412039Y-71567486D01*
X148414262Y-71574168D01*
X148414262Y-71574169D01*
X148422967Y-71600336D01*
X148468726Y-71737896D01*
X148561759Y-71891512D01*
X148686514Y-72020699D01*
X148836789Y-72119036D01*
X149005116Y-72181636D01*
X149012097Y-72182567D01*
X149012099Y-72182568D01*
X149176149Y-72204457D01*
X149176153Y-72204457D01*
X149183130Y-72205388D01*
X149190142Y-72204750D01*
X149190146Y-72204750D01*
X149354960Y-72189751D01*
X149354961Y-72189751D01*
X149361981Y-72189112D01*
X149532782Y-72133615D01*
X149563714Y-72115176D01*
X149680992Y-72045265D01*
X149680994Y-72045264D01*
X149687044Y-72041657D01*
X149817099Y-71917807D01*
X149834570Y-71891512D01*
X149912582Y-71774093D01*
X149916483Y-71768222D01*
X149931168Y-71729564D01*
X149977757Y-71606919D01*
X149977758Y-71606914D01*
X149980257Y-71600336D01*
X150005251Y-71422493D01*
X150005565Y-71400000D01*
X149985546Y-71221528D01*
X149979427Y-71203955D01*
X149928803Y-71058584D01*
X149926485Y-71051927D01*
X149831316Y-70899625D01*
X149767771Y-70835635D01*
X149709733Y-70777190D01*
X149709729Y-70777187D01*
X149704770Y-70772193D01*
X149693761Y-70765206D01*
X149646860Y-70735442D01*
X149553136Y-70675963D01*
X149523352Y-70665357D01*
X149390586Y-70618081D01*
X149390581Y-70618080D01*
X149383951Y-70615719D01*
X149376965Y-70614886D01*
X149376961Y-70614885D01*
X149249177Y-70599648D01*
X149205624Y-70594455D01*
X149198621Y-70595191D01*
X149198620Y-70595191D01*
X149034025Y-70612490D01*
X149034021Y-70612491D01*
X149027017Y-70613227D01*
X149020346Y-70615498D01*
X148863677Y-70668832D01*
X148863674Y-70668833D01*
X148857007Y-70671103D01*
X148851009Y-70674793D01*
X148851007Y-70674794D01*
X148780526Y-70718155D01*
X148704045Y-70765206D01*
X148699014Y-70770132D01*
X148699011Y-70770135D01*
X148691807Y-70777190D01*
X148575732Y-70890859D01*
X148571913Y-70896784D01*
X148571912Y-70896786D01*
X148482265Y-71035891D01*
X148478446Y-71041817D01*
X148417022Y-71210578D01*
X148394514Y-71388753D01*
X147804303Y-71388753D01*
X147785546Y-71221528D01*
X147779427Y-71203955D01*
X147728803Y-71058584D01*
X147726485Y-71051927D01*
X147631316Y-70899625D01*
X147567771Y-70835635D01*
X147509733Y-70777190D01*
X147509729Y-70777187D01*
X147504770Y-70772193D01*
X147493761Y-70765206D01*
X147446860Y-70735442D01*
X147353136Y-70675963D01*
X147323352Y-70665357D01*
X147190586Y-70618081D01*
X147190581Y-70618080D01*
X147183951Y-70615719D01*
X147176965Y-70614886D01*
X147176961Y-70614885D01*
X147049177Y-70599648D01*
X147005624Y-70594455D01*
X146998621Y-70595191D01*
X146998620Y-70595191D01*
X146834025Y-70612490D01*
X146834021Y-70612491D01*
X146827017Y-70613227D01*
X146820346Y-70615498D01*
X146663677Y-70668832D01*
X146663674Y-70668833D01*
X146657007Y-70671103D01*
X146651009Y-70674793D01*
X146651007Y-70674794D01*
X146580526Y-70718155D01*
X146504045Y-70765206D01*
X146499014Y-70770132D01*
X146499011Y-70770135D01*
X146491807Y-70777190D01*
X146375732Y-70890859D01*
X146371913Y-70896784D01*
X146371912Y-70896786D01*
X146282265Y-71035891D01*
X146278446Y-71041817D01*
X146217022Y-71210578D01*
X146194514Y-71388753D01*
X103300000Y-71388753D01*
X103300000Y-64037271D01*
X103301914Y-64015392D01*
X103302714Y-64010856D01*
X103302714Y-64010855D01*
X103304628Y-64000000D01*
X103694450Y-64000000D01*
X103714639Y-64462409D01*
X103775053Y-64921299D01*
X103875232Y-65373177D01*
X103876060Y-65375802D01*
X103876061Y-65375807D01*
X104013369Y-65811290D01*
X104014414Y-65814605D01*
X104191539Y-66242222D01*
X104405259Y-66652775D01*
X104653948Y-67043138D01*
X104798776Y-67231882D01*
X104902624Y-67367219D01*
X104935713Y-67410342D01*
X105248410Y-67751590D01*
X105589658Y-68064287D01*
X105591820Y-68065946D01*
X105591826Y-68065951D01*
X105604874Y-68075963D01*
X105956862Y-68346052D01*
X106347225Y-68594741D01*
X106757778Y-68808461D01*
X106760319Y-68809513D01*
X106760320Y-68809514D01*
X106791654Y-68822493D01*
X107185395Y-68985586D01*
X107188015Y-68986412D01*
X107188023Y-68986415D01*
X107624193Y-69123939D01*
X107624198Y-69123940D01*
X107626823Y-69124768D01*
X108078701Y-69224947D01*
X108081420Y-69225305D01*
X108081426Y-69225306D01*
X108253504Y-69247960D01*
X108537591Y-69285361D01*
X109000000Y-69305550D01*
X109462409Y-69285361D01*
X109746496Y-69247960D01*
X109918574Y-69225306D01*
X109918580Y-69225305D01*
X109921299Y-69224947D01*
X110373177Y-69124768D01*
X110375802Y-69123940D01*
X110375807Y-69123939D01*
X110811977Y-68986415D01*
X110811985Y-68986412D01*
X110814605Y-68985586D01*
X111208346Y-68822493D01*
X111239680Y-68809514D01*
X111239681Y-68809513D01*
X111242222Y-68808461D01*
X111280081Y-68788753D01*
X143394514Y-68788753D01*
X143395201Y-68795760D01*
X143395201Y-68795763D01*
X143397434Y-68818532D01*
X143412039Y-68967486D01*
X143414262Y-68974168D01*
X143414262Y-68974169D01*
X143464558Y-69125365D01*
X143468726Y-69137896D01*
X143472373Y-69143918D01*
X143558107Y-69285481D01*
X143561759Y-69291512D01*
X143566648Y-69296575D01*
X143566649Y-69296576D01*
X143575315Y-69305550D01*
X143686514Y-69420699D01*
X143836789Y-69519036D01*
X144005116Y-69581636D01*
X144012097Y-69582567D01*
X144012099Y-69582568D01*
X144176149Y-69604457D01*
X144176153Y-69604457D01*
X144183130Y-69605388D01*
X144190142Y-69604750D01*
X144190146Y-69604750D01*
X144354960Y-69589751D01*
X144354961Y-69589751D01*
X144361981Y-69589112D01*
X144532782Y-69533615D01*
X144563714Y-69515176D01*
X144680992Y-69445265D01*
X144680994Y-69445264D01*
X144687044Y-69441657D01*
X144817099Y-69317807D01*
X144825323Y-69305430D01*
X144878939Y-69224730D01*
X144916483Y-69168222D01*
X144933305Y-69123939D01*
X144977757Y-69006919D01*
X144977758Y-69006914D01*
X144980257Y-69000336D01*
X144981237Y-68993364D01*
X144990898Y-68924624D01*
X154497360Y-68924624D01*
X154511189Y-69135619D01*
X154512610Y-69141215D01*
X154512611Y-69141220D01*
X154550781Y-69291512D01*
X154563238Y-69340560D01*
X154565655Y-69345803D01*
X154643737Y-69515176D01*
X154651762Y-69532584D01*
X154773798Y-69705261D01*
X154925258Y-69852807D01*
X154930054Y-69856012D01*
X154930057Y-69856014D01*
X155010922Y-69910046D01*
X155101070Y-69970281D01*
X155106378Y-69972562D01*
X155106379Y-69972562D01*
X155290043Y-70051470D01*
X155290046Y-70051471D01*
X155295346Y-70053748D01*
X155300975Y-70055022D01*
X155300976Y-70055022D01*
X155495943Y-70099139D01*
X155495946Y-70099139D01*
X155501579Y-70100414D01*
X155507350Y-70100641D01*
X155507352Y-70100641D01*
X155569382Y-70103078D01*
X155712863Y-70108716D01*
X155718572Y-70107888D01*
X155718576Y-70107888D01*
X155916408Y-70079203D01*
X155916412Y-70079202D01*
X155922123Y-70078374D01*
X156001380Y-70051470D01*
X156116876Y-70012265D01*
X156116881Y-70012263D01*
X156122348Y-70010407D01*
X156189693Y-69972692D01*
X156301788Y-69909916D01*
X156301792Y-69909913D01*
X156306835Y-69907089D01*
X156469405Y-69771882D01*
X156604612Y-69609312D01*
X156607436Y-69604269D01*
X156607439Y-69604265D01*
X156705106Y-69429868D01*
X156705107Y-69429866D01*
X156707930Y-69424825D01*
X156709786Y-69419358D01*
X156709788Y-69419353D01*
X156774040Y-69230070D01*
X156775897Y-69224600D01*
X156783221Y-69174093D01*
X156805707Y-69019010D01*
X156805707Y-69019008D01*
X156806239Y-69015340D01*
X156807822Y-68954870D01*
X156805055Y-68924754D01*
X158844967Y-68924754D01*
X158858796Y-69135749D01*
X158860217Y-69141345D01*
X158860218Y-69141350D01*
X158898355Y-69291512D01*
X158910845Y-69340690D01*
X158913262Y-69345933D01*
X158949508Y-69424557D01*
X158999369Y-69532714D01*
X159121405Y-69705391D01*
X159272865Y-69852937D01*
X159277661Y-69856142D01*
X159277664Y-69856144D01*
X159420936Y-69951875D01*
X159448677Y-69970411D01*
X159453985Y-69972692D01*
X159453986Y-69972692D01*
X159637650Y-70051600D01*
X159637653Y-70051601D01*
X159642953Y-70053878D01*
X159648582Y-70055152D01*
X159648583Y-70055152D01*
X159843550Y-70099269D01*
X159843553Y-70099269D01*
X159849186Y-70100544D01*
X159854957Y-70100771D01*
X159854959Y-70100771D01*
X159916989Y-70103208D01*
X160060470Y-70108846D01*
X160066179Y-70108018D01*
X160066183Y-70108018D01*
X160264015Y-70079333D01*
X160264019Y-70079332D01*
X160269730Y-70078504D01*
X160349370Y-70051470D01*
X160464483Y-70012395D01*
X160464488Y-70012393D01*
X160469955Y-70010537D01*
X160475230Y-70007583D01*
X160649395Y-69910046D01*
X160649399Y-69910043D01*
X160654442Y-69907219D01*
X160817012Y-69772012D01*
X160952219Y-69609442D01*
X160955043Y-69604399D01*
X160955046Y-69604395D01*
X161052713Y-69429998D01*
X161052714Y-69429996D01*
X161055537Y-69424955D01*
X161057393Y-69419488D01*
X161057395Y-69419483D01*
X161121647Y-69230200D01*
X161123504Y-69224730D01*
X161131698Y-69168222D01*
X161153314Y-69019140D01*
X161153314Y-69019138D01*
X161153846Y-69015470D01*
X161155429Y-68955000D01*
X161136081Y-68744440D01*
X161129296Y-68720380D01*
X161103390Y-68628527D01*
X161078686Y-68540931D01*
X161076067Y-68535619D01*
X160987719Y-68356469D01*
X160985165Y-68351290D01*
X160858651Y-68181867D01*
X160703381Y-68038337D01*
X160524554Y-67925505D01*
X160328160Y-67847152D01*
X160322503Y-67846027D01*
X160322497Y-67846025D01*
X160125234Y-67806788D01*
X160062324Y-67773881D01*
X160027192Y-67712186D01*
X160030992Y-67641291D01*
X160072517Y-67583705D01*
X160131734Y-67558513D01*
X160264015Y-67539333D01*
X160264019Y-67539332D01*
X160269730Y-67538504D01*
X160349370Y-67511470D01*
X160464483Y-67472395D01*
X160464488Y-67472393D01*
X160469955Y-67470537D01*
X160475230Y-67467583D01*
X160649395Y-67370046D01*
X160649399Y-67370043D01*
X160654442Y-67367219D01*
X160817012Y-67232012D01*
X160952219Y-67069442D01*
X160955043Y-67064399D01*
X160955046Y-67064395D01*
X161052713Y-66889998D01*
X161052714Y-66889996D01*
X161055537Y-66884955D01*
X161057393Y-66879488D01*
X161057395Y-66879483D01*
X161121647Y-66690200D01*
X161123504Y-66684730D01*
X161127801Y-66655099D01*
X161153314Y-66479140D01*
X161153314Y-66479138D01*
X161153846Y-66475470D01*
X161155429Y-66415000D01*
X161136081Y-66204440D01*
X161129296Y-66180380D01*
X161080255Y-66006496D01*
X161078686Y-66000931D01*
X161076067Y-65995619D01*
X161072681Y-65988753D01*
X163594514Y-65988753D01*
X163595201Y-65995760D01*
X163595201Y-65995763D01*
X163597434Y-66018532D01*
X163612039Y-66167486D01*
X163614262Y-66174168D01*
X163614262Y-66174169D01*
X163637714Y-66244668D01*
X163668726Y-66337896D01*
X163672373Y-66343918D01*
X163754188Y-66479010D01*
X163761759Y-66491512D01*
X163886514Y-66620699D01*
X164036789Y-66719036D01*
X164205116Y-66781636D01*
X164212097Y-66782567D01*
X164212099Y-66782568D01*
X164376149Y-66804457D01*
X164376153Y-66804457D01*
X164383130Y-66805388D01*
X164390142Y-66804750D01*
X164390146Y-66804750D01*
X164554960Y-66789751D01*
X164554961Y-66789751D01*
X164561981Y-66789112D01*
X164732782Y-66733615D01*
X164864495Y-66655099D01*
X164880992Y-66645265D01*
X164880994Y-66645264D01*
X164887044Y-66641657D01*
X165017099Y-66517807D01*
X165034570Y-66491512D01*
X165101668Y-66390520D01*
X165116483Y-66368222D01*
X165165312Y-66239680D01*
X165177757Y-66206919D01*
X165177758Y-66206914D01*
X165180257Y-66200336D01*
X165181237Y-66193364D01*
X165204700Y-66026416D01*
X165204700Y-66026411D01*
X165205251Y-66022493D01*
X165205403Y-66011576D01*
X165205510Y-66003963D01*
X165205510Y-66003958D01*
X165205565Y-66000000D01*
X165185546Y-65821528D01*
X165181936Y-65811160D01*
X165128803Y-65658584D01*
X165126485Y-65651927D01*
X165103861Y-65615720D01*
X165035049Y-65505599D01*
X165031316Y-65499625D01*
X164947906Y-65415631D01*
X164909733Y-65377190D01*
X164909729Y-65377187D01*
X164904770Y-65372193D01*
X164893761Y-65365206D01*
X164800301Y-65305895D01*
X164753136Y-65275963D01*
X164723352Y-65265357D01*
X164590586Y-65218081D01*
X164590581Y-65218080D01*
X164583951Y-65215719D01*
X164576965Y-65214886D01*
X164576961Y-65214885D01*
X164449177Y-65199648D01*
X164405624Y-65194455D01*
X164398621Y-65195191D01*
X164398620Y-65195191D01*
X164234025Y-65212490D01*
X164234021Y-65212491D01*
X164227017Y-65213227D01*
X164220346Y-65215498D01*
X164063677Y-65268832D01*
X164063674Y-65268833D01*
X164057007Y-65271103D01*
X164051009Y-65274793D01*
X164051007Y-65274794D01*
X163998410Y-65307152D01*
X163904045Y-65365206D01*
X163899014Y-65370132D01*
X163899011Y-65370135D01*
X163847377Y-65420699D01*
X163775732Y-65490859D01*
X163771913Y-65496784D01*
X163771912Y-65496786D01*
X163718812Y-65579181D01*
X163678446Y-65641817D01*
X163617022Y-65810578D01*
X163594514Y-65988753D01*
X161072681Y-65988753D01*
X160987719Y-65816469D01*
X160985165Y-65811290D01*
X160858651Y-65641867D01*
X160725773Y-65519036D01*
X160707622Y-65502257D01*
X160707620Y-65502255D01*
X160703381Y-65498337D01*
X160691529Y-65490859D01*
X160529434Y-65388584D01*
X160529433Y-65388584D01*
X160524554Y-65385505D01*
X160328160Y-65307152D01*
X160322503Y-65306027D01*
X160322497Y-65306025D01*
X160126442Y-65267028D01*
X160126440Y-65267028D01*
X160120775Y-65265901D01*
X160115000Y-65265825D01*
X160114996Y-65265825D01*
X160008976Y-65264437D01*
X159909346Y-65263133D01*
X159903649Y-65264112D01*
X159903648Y-65264112D01*
X159706650Y-65297962D01*
X159706649Y-65297962D01*
X159700953Y-65298941D01*
X159502575Y-65372127D01*
X159497614Y-65375079D01*
X159497613Y-65375079D01*
X159379641Y-65445265D01*
X159320856Y-65480238D01*
X159161881Y-65619655D01*
X159030976Y-65785708D01*
X159028287Y-65790819D01*
X159028285Y-65790822D01*
X159014213Y-65817569D01*
X158932523Y-65972836D01*
X158869820Y-66174773D01*
X158844967Y-66384754D01*
X158858796Y-66595749D01*
X158860217Y-66601345D01*
X158860218Y-66601350D01*
X158908067Y-66789751D01*
X158910845Y-66800690D01*
X158999369Y-66992714D01*
X159121405Y-67165391D01*
X159272865Y-67312937D01*
X159277661Y-67316142D01*
X159277664Y-67316144D01*
X159415397Y-67408174D01*
X159448677Y-67430411D01*
X159453985Y-67432692D01*
X159453986Y-67432692D01*
X159637650Y-67511600D01*
X159637653Y-67511601D01*
X159642953Y-67513878D01*
X159648582Y-67515152D01*
X159648583Y-67515152D01*
X159843550Y-67559269D01*
X159843553Y-67559269D01*
X159849186Y-67560544D01*
X159854958Y-67560771D01*
X159860687Y-67561525D01*
X159860327Y-67564257D01*
X159916604Y-67583216D01*
X159960950Y-67638659D01*
X159968282Y-67709276D01*
X159936271Y-67772647D01*
X159875081Y-67808651D01*
X159865704Y-67810632D01*
X159706650Y-67837962D01*
X159706649Y-67837962D01*
X159700953Y-67838941D01*
X159502575Y-67912127D01*
X159497614Y-67915079D01*
X159497613Y-67915079D01*
X159329854Y-68014885D01*
X159320856Y-68020238D01*
X159161881Y-68159655D01*
X159030976Y-68325708D01*
X159028287Y-68330819D01*
X159028285Y-68330822D01*
X159014860Y-68356339D01*
X158932523Y-68512836D01*
X158869820Y-68714773D01*
X158844967Y-68924754D01*
X156805055Y-68924754D01*
X156788474Y-68744310D01*
X156731079Y-68540801D01*
X156720010Y-68518354D01*
X156640112Y-68356339D01*
X156637558Y-68351160D01*
X156511044Y-68181737D01*
X156381985Y-68062436D01*
X156360015Y-68042127D01*
X156360013Y-68042125D01*
X156355774Y-68038207D01*
X156350891Y-68035126D01*
X156181827Y-67928454D01*
X156181826Y-67928454D01*
X156176947Y-67925375D01*
X155980553Y-67847022D01*
X155974896Y-67845897D01*
X155974890Y-67845895D01*
X155777627Y-67806658D01*
X155714717Y-67773751D01*
X155679585Y-67712056D01*
X155683385Y-67641161D01*
X155724910Y-67583575D01*
X155784127Y-67558383D01*
X155916408Y-67539203D01*
X155916412Y-67539202D01*
X155922123Y-67538374D01*
X156001380Y-67511470D01*
X156116876Y-67472265D01*
X156116881Y-67472263D01*
X156122348Y-67470407D01*
X156189693Y-67432692D01*
X156301788Y-67369916D01*
X156301792Y-67369913D01*
X156306835Y-67367089D01*
X156469405Y-67231882D01*
X156604612Y-67069312D01*
X156607436Y-67064269D01*
X156607439Y-67064265D01*
X156705106Y-66889868D01*
X156705107Y-66889866D01*
X156707930Y-66884825D01*
X156709786Y-66879358D01*
X156709788Y-66879353D01*
X156774040Y-66690070D01*
X156775897Y-66684600D01*
X156780867Y-66650327D01*
X156805707Y-66479010D01*
X156805707Y-66479008D01*
X156806239Y-66475340D01*
X156807822Y-66414870D01*
X156788474Y-66204310D01*
X156779974Y-66174169D01*
X156738303Y-66026416D01*
X156731079Y-66000801D01*
X156720010Y-65978354D01*
X156640112Y-65816339D01*
X156637558Y-65811160D01*
X156511044Y-65641737D01*
X156363771Y-65505599D01*
X156360015Y-65502127D01*
X156360013Y-65502125D01*
X156355774Y-65498207D01*
X156344128Y-65490859D01*
X156181827Y-65388454D01*
X156181826Y-65388454D01*
X156176947Y-65385375D01*
X155980553Y-65307022D01*
X155974896Y-65305897D01*
X155974890Y-65305895D01*
X155778835Y-65266898D01*
X155778833Y-65266898D01*
X155773168Y-65265771D01*
X155767393Y-65265695D01*
X155767389Y-65265695D01*
X155661369Y-65264307D01*
X155561739Y-65263003D01*
X155556042Y-65263982D01*
X155556041Y-65263982D01*
X155359043Y-65297832D01*
X155359042Y-65297832D01*
X155353346Y-65298811D01*
X155154968Y-65371997D01*
X155150007Y-65374949D01*
X155150006Y-65374949D01*
X155037880Y-65441657D01*
X154973249Y-65480108D01*
X154814274Y-65619525D01*
X154683369Y-65785578D01*
X154680680Y-65790689D01*
X154680678Y-65790692D01*
X154660772Y-65828527D01*
X154584916Y-65972706D01*
X154522213Y-66174643D01*
X154497360Y-66384624D01*
X154511189Y-66595619D01*
X154512610Y-66601215D01*
X154512611Y-66601220D01*
X154560493Y-66789751D01*
X154563238Y-66800560D01*
X154565655Y-66805803D01*
X154604409Y-66889868D01*
X154651762Y-66992584D01*
X154773798Y-67165261D01*
X154925258Y-67312807D01*
X154930054Y-67316012D01*
X154930057Y-67316014D01*
X155010922Y-67370046D01*
X155101070Y-67430281D01*
X155106378Y-67432562D01*
X155106379Y-67432562D01*
X155290043Y-67511470D01*
X155290046Y-67511471D01*
X155295346Y-67513748D01*
X155300975Y-67515022D01*
X155300976Y-67515022D01*
X155495943Y-67559139D01*
X155495946Y-67559139D01*
X155501579Y-67560414D01*
X155507351Y-67560641D01*
X155513080Y-67561395D01*
X155512720Y-67564127D01*
X155568997Y-67583086D01*
X155613343Y-67638529D01*
X155620675Y-67709146D01*
X155588664Y-67772517D01*
X155527474Y-67808521D01*
X155518097Y-67810502D01*
X155359043Y-67837832D01*
X155359042Y-67837832D01*
X155353346Y-67838811D01*
X155154968Y-67911997D01*
X155150007Y-67914949D01*
X155150006Y-67914949D01*
X154980998Y-68015498D01*
X154973249Y-68020108D01*
X154814274Y-68159525D01*
X154683369Y-68325578D01*
X154680680Y-68330689D01*
X154680678Y-68330692D01*
X154669841Y-68351290D01*
X154584916Y-68512706D01*
X154522213Y-68714643D01*
X154497360Y-68924624D01*
X144990898Y-68924624D01*
X145004700Y-68826416D01*
X145004700Y-68826411D01*
X145005251Y-68822493D01*
X145005565Y-68800000D01*
X144985546Y-68621528D01*
X144979427Y-68603955D01*
X144928803Y-68458584D01*
X144926485Y-68451927D01*
X144847615Y-68325708D01*
X144835049Y-68305599D01*
X144831316Y-68299625D01*
X144718969Y-68186491D01*
X144709733Y-68177190D01*
X144709729Y-68177187D01*
X144704770Y-68172193D01*
X144693761Y-68165206D01*
X144646860Y-68135442D01*
X144553136Y-68075963D01*
X144515148Y-68062436D01*
X144390586Y-68018081D01*
X144390581Y-68018080D01*
X144383951Y-68015719D01*
X144376965Y-68014886D01*
X144376961Y-68014885D01*
X144249177Y-67999648D01*
X144205624Y-67994455D01*
X144198621Y-67995191D01*
X144198620Y-67995191D01*
X144034025Y-68012490D01*
X144034021Y-68012491D01*
X144027017Y-68013227D01*
X144020346Y-68015498D01*
X143863677Y-68068832D01*
X143863674Y-68068833D01*
X143857007Y-68071103D01*
X143851009Y-68074793D01*
X143851007Y-68074794D01*
X143780526Y-68118154D01*
X143704045Y-68165206D01*
X143699014Y-68170132D01*
X143699011Y-68170135D01*
X143691030Y-68177951D01*
X143575732Y-68290859D01*
X143571913Y-68296784D01*
X143571912Y-68296786D01*
X143536787Y-68351290D01*
X143478446Y-68441817D01*
X143476037Y-68448437D01*
X143476035Y-68448440D01*
X143452597Y-68512836D01*
X143417022Y-68610578D01*
X143394514Y-68788753D01*
X111280081Y-68788753D01*
X111652775Y-68594741D01*
X112043138Y-68346052D01*
X112395126Y-68075963D01*
X112408174Y-68065951D01*
X112408180Y-68065946D01*
X112410342Y-68064287D01*
X112751590Y-67751590D01*
X113064287Y-67410342D01*
X113097377Y-67367219D01*
X113201224Y-67231882D01*
X113346052Y-67043138D01*
X113594741Y-66652775D01*
X113808461Y-66242222D01*
X113985586Y-65814605D01*
X113986632Y-65811290D01*
X114123939Y-65375807D01*
X114123940Y-65375802D01*
X114124768Y-65373177D01*
X114224947Y-64921299D01*
X114242397Y-64788753D01*
X147194514Y-64788753D01*
X147195201Y-64795760D01*
X147195201Y-64795763D01*
X147196005Y-64803963D01*
X147212039Y-64967486D01*
X147214262Y-64974168D01*
X147214262Y-64974169D01*
X147222967Y-65000336D01*
X147268726Y-65137896D01*
X147272373Y-65143918D01*
X147348024Y-65268832D01*
X147361759Y-65291512D01*
X147366648Y-65296575D01*
X147366649Y-65296576D01*
X147375774Y-65306025D01*
X147486514Y-65420699D01*
X147636789Y-65519036D01*
X147805116Y-65581636D01*
X147812097Y-65582567D01*
X147812099Y-65582568D01*
X147976149Y-65604457D01*
X147976153Y-65604457D01*
X147983130Y-65605388D01*
X147990142Y-65604750D01*
X147990146Y-65604750D01*
X148154960Y-65589751D01*
X148154961Y-65589751D01*
X148161981Y-65589112D01*
X148332782Y-65533615D01*
X148394564Y-65496786D01*
X148480992Y-65445265D01*
X148480994Y-65445264D01*
X148487044Y-65441657D01*
X148617099Y-65317807D01*
X148622757Y-65309292D01*
X148712582Y-65174093D01*
X148716483Y-65168222D01*
X148731168Y-65129564D01*
X148777757Y-65006919D01*
X148777758Y-65006914D01*
X148780257Y-65000336D01*
X148805251Y-64822493D01*
X148805565Y-64800000D01*
X148785546Y-64621528D01*
X148779427Y-64603955D01*
X148728803Y-64458584D01*
X148726485Y-64451927D01*
X148631316Y-64299625D01*
X148567771Y-64235635D01*
X148509733Y-64177190D01*
X148509729Y-64177187D01*
X148504770Y-64172193D01*
X148493761Y-64165206D01*
X148446860Y-64135442D01*
X148353136Y-64075963D01*
X148323352Y-64065357D01*
X148190586Y-64018081D01*
X148190581Y-64018080D01*
X148183951Y-64015719D01*
X148176965Y-64014886D01*
X148176961Y-64014885D01*
X148038901Y-63998423D01*
X148005624Y-63994455D01*
X147998621Y-63995191D01*
X147998620Y-63995191D01*
X147834025Y-64012490D01*
X147834021Y-64012491D01*
X147827017Y-64013227D01*
X147820346Y-64015498D01*
X147663677Y-64068832D01*
X147663674Y-64068833D01*
X147657007Y-64071103D01*
X147651009Y-64074793D01*
X147651007Y-64074794D01*
X147580526Y-64118154D01*
X147504045Y-64165206D01*
X147499014Y-64170132D01*
X147499011Y-64170135D01*
X147491807Y-64177190D01*
X147375732Y-64290859D01*
X147371913Y-64296784D01*
X147371912Y-64296786D01*
X147282265Y-64435891D01*
X147278446Y-64441817D01*
X147276037Y-64448437D01*
X147276035Y-64448440D01*
X147270951Y-64462409D01*
X147217022Y-64610578D01*
X147194514Y-64788753D01*
X114242397Y-64788753D01*
X114285361Y-64462409D01*
X114305550Y-64000000D01*
X114285361Y-63537591D01*
X114247960Y-63253504D01*
X114225306Y-63081426D01*
X114225305Y-63081420D01*
X114224947Y-63078701D01*
X114124768Y-62626823D01*
X114115408Y-62597137D01*
X113986415Y-62188023D01*
X113986412Y-62188015D01*
X113985586Y-62185395D01*
X113810293Y-61762201D01*
X113809514Y-61760320D01*
X113809513Y-61760319D01*
X113808461Y-61757778D01*
X113749568Y-61644646D01*
X119574500Y-61644646D01*
X119577618Y-61670846D01*
X119623061Y-61773153D01*
X119631294Y-61781372D01*
X119631295Y-61781373D01*
X119657363Y-61807395D01*
X119702287Y-61852241D01*
X119712924Y-61856944D01*
X119712926Y-61856945D01*
X119750382Y-61873504D01*
X119804673Y-61897506D01*
X119830354Y-61900500D01*
X121619646Y-61900500D01*
X121623350Y-61900059D01*
X121623353Y-61900059D01*
X121630746Y-61899179D01*
X121645846Y-61897382D01*
X121748153Y-61851939D01*
X121827241Y-61772713D01*
X121834926Y-61755332D01*
X121858265Y-61702538D01*
X121872506Y-61670327D01*
X121875500Y-61644646D01*
X121875500Y-60960673D01*
X121895502Y-60892552D01*
X121949158Y-60846059D01*
X122019432Y-60835955D01*
X122084012Y-60865449D01*
X122122396Y-60925175D01*
X122123658Y-60930784D01*
X122123796Y-60930749D01*
X122175845Y-61135690D01*
X122264369Y-61327714D01*
X122386405Y-61500391D01*
X122390539Y-61504418D01*
X122530727Y-61640983D01*
X122537865Y-61647937D01*
X122542661Y-61651142D01*
X122542664Y-61651144D01*
X122685936Y-61746875D01*
X122713677Y-61765411D01*
X122718985Y-61767692D01*
X122718986Y-61767692D01*
X122902650Y-61846600D01*
X122902653Y-61846601D01*
X122907953Y-61848878D01*
X122913582Y-61850152D01*
X122913583Y-61850152D01*
X123108550Y-61894269D01*
X123108553Y-61894269D01*
X123114186Y-61895544D01*
X123119957Y-61895771D01*
X123119959Y-61895771D01*
X123181989Y-61898208D01*
X123325470Y-61903846D01*
X123331179Y-61903018D01*
X123331183Y-61903018D01*
X123529015Y-61874333D01*
X123529019Y-61874332D01*
X123534730Y-61873504D01*
X123621579Y-61844023D01*
X123729483Y-61807395D01*
X123729488Y-61807393D01*
X123734955Y-61805537D01*
X123778103Y-61781373D01*
X123914395Y-61705046D01*
X123914399Y-61705043D01*
X123919442Y-61702219D01*
X124082012Y-61567012D01*
X124217219Y-61404442D01*
X124220043Y-61399399D01*
X124220046Y-61399395D01*
X124317713Y-61224998D01*
X124317714Y-61224996D01*
X124320537Y-61219955D01*
X124322393Y-61214488D01*
X124322395Y-61214483D01*
X124369173Y-61076676D01*
X124388504Y-61019730D01*
X124406945Y-60892552D01*
X124418314Y-60814140D01*
X124418314Y-60814138D01*
X124418846Y-60810470D01*
X124420429Y-60750000D01*
X124401081Y-60539440D01*
X124343686Y-60335931D01*
X124332553Y-60313354D01*
X124252719Y-60151469D01*
X124250165Y-60146290D01*
X124123651Y-59976867D01*
X123996236Y-59859086D01*
X123972622Y-59837257D01*
X123972620Y-59837255D01*
X123968381Y-59833337D01*
X123935014Y-59812284D01*
X123794434Y-59723584D01*
X123794433Y-59723584D01*
X123789554Y-59720505D01*
X123593160Y-59642152D01*
X123587503Y-59641027D01*
X123587497Y-59641025D01*
X123391442Y-59602028D01*
X123391440Y-59602028D01*
X123385775Y-59600901D01*
X123380000Y-59600825D01*
X123379996Y-59600825D01*
X123273976Y-59599437D01*
X123174346Y-59598133D01*
X123168649Y-59599112D01*
X123168648Y-59599112D01*
X122971650Y-59632962D01*
X122971649Y-59632962D01*
X122965953Y-59633941D01*
X122767575Y-59707127D01*
X122762614Y-59710079D01*
X122762613Y-59710079D01*
X122716553Y-59737482D01*
X122585856Y-59815238D01*
X122426881Y-59954655D01*
X122295976Y-60120708D01*
X122293287Y-60125819D01*
X122293285Y-60125822D01*
X122279792Y-60151469D01*
X122197523Y-60307836D01*
X122134820Y-60509773D01*
X122134141Y-60515510D01*
X122126627Y-60578995D01*
X122098756Y-60644292D01*
X122040008Y-60684156D01*
X121969034Y-60685930D01*
X121908367Y-60649051D01*
X121877269Y-60585227D01*
X121875500Y-60564185D01*
X121875500Y-59855354D01*
X121872382Y-59829154D01*
X121826939Y-59726847D01*
X121818444Y-59718366D01*
X121755945Y-59655977D01*
X121747713Y-59647759D01*
X121737076Y-59643056D01*
X121737074Y-59643055D01*
X121677538Y-59616735D01*
X121645327Y-59602494D01*
X121619646Y-59599500D01*
X119830354Y-59599500D01*
X119826650Y-59599941D01*
X119826647Y-59599941D01*
X119819254Y-59600821D01*
X119804154Y-59602618D01*
X119795514Y-59606456D01*
X119795513Y-59606456D01*
X119729131Y-59635942D01*
X119701847Y-59648061D01*
X119693628Y-59656294D01*
X119693627Y-59656295D01*
X119662142Y-59687835D01*
X119622759Y-59727287D01*
X119577494Y-59829673D01*
X119574500Y-59855354D01*
X119574500Y-61644646D01*
X113749568Y-61644646D01*
X113594741Y-61347225D01*
X113346052Y-60956862D01*
X113136798Y-60684156D01*
X113065951Y-60591826D01*
X113065946Y-60591820D01*
X113064287Y-60589658D01*
X112751590Y-60248410D01*
X112410342Y-59935713D01*
X112408180Y-59934054D01*
X112408174Y-59934049D01*
X112258301Y-59819048D01*
X112043138Y-59653948D01*
X111652775Y-59405259D01*
X111242222Y-59191539D01*
X110814605Y-59014414D01*
X110811985Y-59013588D01*
X110811977Y-59013585D01*
X110375807Y-58876061D01*
X110375802Y-58876060D01*
X110373177Y-58875232D01*
X109921299Y-58775053D01*
X109918580Y-58774695D01*
X109918574Y-58774694D01*
X109746496Y-58752040D01*
X109462409Y-58714639D01*
X109000000Y-58694450D01*
X108537591Y-58714639D01*
X108253504Y-58752040D01*
X108081426Y-58774694D01*
X108081420Y-58774695D01*
X108078701Y-58775053D01*
X107626823Y-58875232D01*
X107624198Y-58876060D01*
X107624193Y-58876061D01*
X107188023Y-59013585D01*
X107188015Y-59013588D01*
X107185395Y-59014414D01*
X106757778Y-59191539D01*
X106347225Y-59405259D01*
X105956862Y-59653948D01*
X105741699Y-59819048D01*
X105591826Y-59934049D01*
X105591820Y-59934054D01*
X105589658Y-59935713D01*
X105248410Y-60248410D01*
X104935713Y-60589658D01*
X104934054Y-60591820D01*
X104934049Y-60591826D01*
X104863202Y-60684156D01*
X104653948Y-60956862D01*
X104405259Y-61347225D01*
X104191539Y-61757778D01*
X104190487Y-61760319D01*
X104190486Y-61760320D01*
X104189707Y-61762201D01*
X104014414Y-62185395D01*
X104013588Y-62188015D01*
X104013585Y-62188023D01*
X103884592Y-62597137D01*
X103875232Y-62626823D01*
X103775053Y-63078701D01*
X103774695Y-63081420D01*
X103774694Y-63081426D01*
X103752040Y-63253504D01*
X103714639Y-63537591D01*
X103694450Y-64000000D01*
X103304628Y-64000000D01*
X103302713Y-63989141D01*
X103302713Y-63984797D01*
X103301374Y-63965027D01*
X103317377Y-63557733D01*
X103318153Y-63547870D01*
X103369595Y-63113234D01*
X103371143Y-63103463D01*
X103456526Y-62674215D01*
X103458836Y-62664594D01*
X103577634Y-62243369D01*
X103580691Y-62233961D01*
X103732173Y-61823348D01*
X103735959Y-61814207D01*
X103739100Y-61807395D01*
X103919188Y-61416755D01*
X103923679Y-61407940D01*
X104137534Y-61026074D01*
X104142704Y-61017638D01*
X104257349Y-60846059D01*
X104385856Y-60653734D01*
X104391666Y-60645738D01*
X104439370Y-60585227D01*
X104639984Y-60330749D01*
X104662620Y-60302036D01*
X104669045Y-60294513D01*
X104829708Y-60120708D01*
X104966141Y-59973115D01*
X104973115Y-59966141D01*
X105219997Y-59737926D01*
X105294513Y-59669045D01*
X105302036Y-59662620D01*
X105626617Y-59406740D01*
X105645746Y-59391660D01*
X105653734Y-59385856D01*
X106017638Y-59142704D01*
X106026074Y-59137534D01*
X106407940Y-58923679D01*
X106416755Y-58919188D01*
X106694700Y-58791053D01*
X106814210Y-58735958D01*
X106823348Y-58732173D01*
X107233961Y-58580691D01*
X107243369Y-58577634D01*
X107664594Y-58458836D01*
X107674215Y-58456526D01*
X108103463Y-58371143D01*
X108113234Y-58369595D01*
X108547870Y-58318153D01*
X108557733Y-58317377D01*
X108965027Y-58301374D01*
X108984797Y-58302713D01*
X108989141Y-58302713D01*
X109000000Y-58304628D01*
X109010855Y-58302714D01*
X109010856Y-58302714D01*
X109015392Y-58301914D01*
X109037271Y-58300000D01*
X128300000Y-58300000D01*
X128300000Y-63400000D01*
G37*
G04 #@! TD.AperFunction*
G04 #@! TA.AperFunction,NonConductor*
G36*
X156636145Y-91850970D02*
G01*
X156688849Y-91898539D01*
X156707469Y-91967050D01*
X156686093Y-92034752D01*
X156680445Y-92042507D01*
X156602851Y-92140935D01*
X156600162Y-92146046D01*
X156600160Y-92146049D01*
X156586667Y-92171696D01*
X156504398Y-92328063D01*
X156441695Y-92530000D01*
X156416842Y-92739981D01*
X156430671Y-92950976D01*
X156432092Y-92956572D01*
X156432093Y-92956577D01*
X156481299Y-93150322D01*
X156482720Y-93155917D01*
X156571244Y-93347941D01*
X156665176Y-93480851D01*
X156667722Y-93484454D01*
X156690703Y-93551628D01*
X156673719Y-93620563D01*
X156622161Y-93669373D01*
X156552400Y-93682560D01*
X156488339Y-93656648D01*
X156488029Y-93657052D01*
X156483445Y-93653535D01*
X156479205Y-93649615D01*
X156456834Y-93635500D01*
X156305258Y-93539862D01*
X156305257Y-93539862D01*
X156300378Y-93536783D01*
X156103984Y-93458430D01*
X156098327Y-93457305D01*
X156098321Y-93457303D01*
X155902266Y-93418306D01*
X155902264Y-93418306D01*
X155896599Y-93417179D01*
X155890824Y-93417103D01*
X155890820Y-93417103D01*
X155784800Y-93415715D01*
X155685170Y-93414411D01*
X155679473Y-93415390D01*
X155679472Y-93415390D01*
X155482474Y-93449240D01*
X155482473Y-93449240D01*
X155476777Y-93450219D01*
X155278399Y-93523405D01*
X155273438Y-93526357D01*
X155273437Y-93526357D01*
X155226271Y-93554418D01*
X155096680Y-93631516D01*
X155056133Y-93667075D01*
X154991728Y-93696951D01*
X154921395Y-93687264D01*
X154867465Y-93641091D01*
X154847058Y-93573090D01*
X154866655Y-93504852D01*
X154876178Y-93491779D01*
X154931992Y-93424669D01*
X154934816Y-93419626D01*
X154934819Y-93419622D01*
X155032486Y-93245225D01*
X155032487Y-93245223D01*
X155035310Y-93240182D01*
X155037166Y-93234715D01*
X155037168Y-93234710D01*
X155101420Y-93045427D01*
X155103277Y-93039957D01*
X155111784Y-92981291D01*
X155133087Y-92834367D01*
X155133087Y-92834365D01*
X155133619Y-92830697D01*
X155135202Y-92770227D01*
X155115854Y-92559667D01*
X155058459Y-92356158D01*
X155047326Y-92333581D01*
X154967492Y-92171696D01*
X154964938Y-92166517D01*
X154881509Y-92054792D01*
X154856777Y-91988242D01*
X154871951Y-91918886D01*
X154922213Y-91868744D01*
X154991605Y-91853735D01*
X155052469Y-91874638D01*
X155145560Y-91936839D01*
X155224501Y-91989586D01*
X155229809Y-91991867D01*
X155229810Y-91991867D01*
X155413474Y-92070775D01*
X155413477Y-92070776D01*
X155418777Y-92073053D01*
X155424406Y-92074327D01*
X155424407Y-92074327D01*
X155619374Y-92118444D01*
X155619377Y-92118444D01*
X155625010Y-92119719D01*
X155630781Y-92119946D01*
X155630783Y-92119946D01*
X155692813Y-92122383D01*
X155836294Y-92128021D01*
X155842003Y-92127193D01*
X155842007Y-92127193D01*
X156039839Y-92098508D01*
X156039843Y-92098507D01*
X156045554Y-92097679D01*
X156126867Y-92070077D01*
X156240307Y-92031570D01*
X156240312Y-92031568D01*
X156245779Y-92029712D01*
X156262121Y-92020560D01*
X156425219Y-91929221D01*
X156425223Y-91929218D01*
X156430266Y-91926394D01*
X156500926Y-91867627D01*
X156566090Y-91839446D01*
X156636145Y-91850970D01*
G37*
G04 #@! TD.AperFunction*
M02*
