%TF.GenerationSoftware,KiCad,Pcbnew,(6.0.1)*%
%TF.CreationDate,2022-01-24T12:15:05+04:00*%
%TF.ProjectId,BEEIRON v0.0,42454549-524f-44e2-9076-302e302e6b69,rev?*%
%TF.SameCoordinates,Original*%
%TF.FileFunction,Paste,Top*%
%TF.FilePolarity,Positive*%
%FSLAX46Y46*%
G04 Gerber Fmt 4.6, Leading zero omitted, Abs format (unit mm)*
G04 Created by KiCad (PCBNEW (6.0.1)) date 2022-01-24 12:15:05*
%MOMM*%
%LPD*%
G01*
G04 APERTURE LIST*
G04 Aperture macros list*
%AMRoundRect*
0 Rectangle with rounded corners*
0 $1 Rounding radius*
0 $2 $3 $4 $5 $6 $7 $8 $9 X,Y pos of 4 corners*
0 Add a 4 corners polygon primitive as box body*
4,1,4,$2,$3,$4,$5,$6,$7,$8,$9,$2,$3,0*
0 Add four circle primitives for the rounded corners*
1,1,$1+$1,$2,$3*
1,1,$1+$1,$4,$5*
1,1,$1+$1,$6,$7*
1,1,$1+$1,$8,$9*
0 Add four rect primitives between the rounded corners*
20,1,$1+$1,$2,$3,$4,$5,0*
20,1,$1+$1,$4,$5,$6,$7,0*
20,1,$1+$1,$6,$7,$8,$9,0*
20,1,$1+$1,$8,$9,$2,$3,0*%
%AMRotRect*
0 Rectangle, with rotation*
0 The origin of the aperture is its center*
0 $1 length*
0 $2 width*
0 $3 Rotation angle, in degrees counterclockwise*
0 Add horizontal line*
21,1,$1,$2,0,0,$3*%
G04 Aperture macros list end*
%TA.AperFunction,Profile*%
%ADD10C,0.100000*%
%TD*%
%ADD11RoundRect,0.250000X0.262500X0.450000X-0.262500X0.450000X-0.262500X-0.450000X0.262500X-0.450000X0*%
%ADD12RoundRect,0.250000X-0.262500X-0.450000X0.262500X-0.450000X0.262500X0.450000X-0.262500X0.450000X0*%
%ADD13R,1.500000X2.000000*%
%ADD14R,3.800000X2.000000*%
%ADD15RoundRect,0.150000X0.587500X0.150000X-0.587500X0.150000X-0.587500X-0.150000X0.587500X-0.150000X0*%
%ADD16RoundRect,0.250000X0.450000X-0.262500X0.450000X0.262500X-0.450000X0.262500X-0.450000X-0.262500X0*%
%ADD17RoundRect,0.250000X0.250000X0.475000X-0.250000X0.475000X-0.250000X-0.475000X0.250000X-0.475000X0*%
%ADD18RoundRect,0.250000X-0.450000X0.262500X-0.450000X-0.262500X0.450000X-0.262500X0.450000X0.262500X0*%
%ADD19RoundRect,0.250000X-0.475000X0.250000X-0.475000X-0.250000X0.475000X-0.250000X0.475000X0.250000X0*%
%ADD20RoundRect,0.150000X-0.150000X0.512500X-0.150000X-0.512500X0.150000X-0.512500X0.150000X0.512500X0*%
%ADD21R,1.500000X1.500000*%
%ADD22RoundRect,0.250000X-0.503814X-0.132583X-0.132583X-0.503814X0.503814X0.132583X0.132583X0.503814X0*%
%ADD23RoundRect,0.250000X-0.159099X0.512652X-0.512652X0.159099X0.159099X-0.512652X0.512652X-0.159099X0*%
%ADD24RoundRect,0.218750X0.218750X0.256250X-0.218750X0.256250X-0.218750X-0.256250X0.218750X-0.256250X0*%
%ADD25RoundRect,0.250000X0.475000X-0.250000X0.475000X0.250000X-0.475000X0.250000X-0.475000X-0.250000X0*%
%ADD26RoundRect,0.250000X-0.625000X0.375000X-0.625000X-0.375000X0.625000X-0.375000X0.625000X0.375000X0*%
%ADD27RotRect,1.600000X0.550000X45.000000*%
%ADD28RotRect,1.600000X0.550000X135.000000*%
%ADD29RoundRect,0.218750X-0.256250X0.218750X-0.256250X-0.218750X0.256250X-0.218750X0.256250X0.218750X0*%
%ADD30RoundRect,0.250000X-0.250000X-0.475000X0.250000X-0.475000X0.250000X0.475000X-0.250000X0.475000X0*%
%ADD31RoundRect,0.250000X0.503814X0.132583X0.132583X0.503814X-0.503814X-0.132583X-0.132583X-0.503814X0*%
%ADD32RoundRect,0.150000X-0.150000X0.825000X-0.150000X-0.825000X0.150000X-0.825000X0.150000X0.825000X0*%
%ADD33RoundRect,0.250000X0.159099X-0.512652X0.512652X-0.159099X-0.159099X0.512652X-0.512652X0.159099X0*%
%ADD34R,1.200000X1.900000*%
%ADD35RoundRect,0.250000X0.132583X-0.503814X0.503814X-0.132583X-0.132583X0.503814X-0.503814X0.132583X0*%
%ADD36RotRect,2.100000X1.800000X315.000000*%
%ADD37RoundRect,0.218750X-0.026517X0.335876X-0.335876X0.026517X0.026517X-0.335876X0.335876X-0.026517X0*%
%ADD38RoundRect,0.250000X-0.707107X-0.176777X-0.176777X-0.707107X0.707107X0.176777X0.176777X0.707107X0*%
%ADD39R,1.200000X0.900000*%
%ADD40RoundRect,0.100000X-0.637500X-0.100000X0.637500X-0.100000X0.637500X0.100000X-0.637500X0.100000X0*%
G04 APERTURE END LIST*
D10*
X181000000Y-64000000D02*
G75*
G03*
X175000000Y-58000000I-5999999J1D01*
G01*
X181000000Y-130000000D02*
X181000000Y-64000000D01*
X103000000Y-64000000D02*
X103000000Y-130000000D01*
X109000000Y-58000000D02*
G75*
G03*
X103000000Y-64000000I-1J-5999999D01*
G01*
X132800000Y-117000000D02*
X165000000Y-117000000D01*
X129400000Y-117000000D02*
X113000000Y-117000000D01*
X132800000Y-117000000D02*
X132800000Y-118000000D01*
X113000000Y-117000000D02*
X113000000Y-118000000D01*
X165000000Y-118000000D02*
X132800000Y-118000000D01*
X103000000Y-130000000D02*
G75*
G03*
X109000000Y-136000000I5999999J-1D01*
G01*
X175000000Y-58000000D02*
X109000000Y-58000000D01*
X113000000Y-118000000D02*
X129400000Y-118000000D01*
X109000000Y-136000000D02*
X175000000Y-136000000D01*
X175000000Y-136000000D02*
G75*
G03*
X181000000Y-130000000I1J5999999D01*
G01*
X129400000Y-117000000D02*
X129400000Y-118000000D01*
X165000000Y-117000000D02*
X165000000Y-118000000D01*
D11*
%TO.C,R11*%
X122578500Y-88900000D03*
X120753500Y-88900000D03*
%TD*%
D12*
%TO.C,R42*%
X117087500Y-106500000D03*
X118912500Y-106500000D03*
%TD*%
D13*
%TO.C,U4*%
X138300000Y-67250000D03*
X140600000Y-67250000D03*
D14*
X140600000Y-60950000D03*
D13*
X142900000Y-67250000D03*
%TD*%
D15*
%TO.C,Q4*%
X173263282Y-97847436D03*
X173263282Y-95947436D03*
X171388282Y-96897436D03*
%TD*%
D16*
%TO.C,R23*%
X169290207Y-101327000D03*
X169290207Y-99502000D03*
%TD*%
D17*
%TO.C,C4*%
X140000000Y-70150000D03*
X138100000Y-70150000D03*
%TD*%
D15*
%TO.C,Q5*%
X173226500Y-87218418D03*
X173226500Y-85318418D03*
X171351500Y-86268418D03*
%TD*%
D12*
%TO.C,R37*%
X165070107Y-78146000D03*
X166895107Y-78146000D03*
%TD*%
D18*
%TO.C,R41*%
X120000000Y-102575000D03*
X120000000Y-104400000D03*
%TD*%
D12*
%TO.C,R40*%
X121087500Y-106500000D03*
X122912500Y-106500000D03*
%TD*%
D19*
%TO.C,C1*%
X149200000Y-68250000D03*
X149200000Y-70150000D03*
%TD*%
D20*
%TO.C,U3*%
X148950000Y-63612500D03*
X148000000Y-63612500D03*
X147050000Y-63612500D03*
X147050000Y-65887500D03*
X148950000Y-65887500D03*
%TD*%
D11*
%TO.C,R34*%
X151600000Y-109800000D03*
X149775000Y-109800000D03*
%TD*%
D18*
%TO.C,R18*%
X175363111Y-92456000D03*
X175363111Y-94281000D03*
%TD*%
D21*
%TO.C,SW1*%
X139700000Y-78770227D03*
X147500000Y-78770227D03*
%TD*%
D18*
%TO.C,R24*%
X175358406Y-96007610D03*
X175358406Y-97832610D03*
%TD*%
D19*
%TO.C,C17*%
X155300000Y-107300000D03*
X155300000Y-109200000D03*
%TD*%
D11*
%TO.C,R12*%
X122572392Y-91418086D03*
X120747392Y-91418086D03*
%TD*%
D19*
%TO.C,C16*%
X168148000Y-111892000D03*
X168148000Y-113792000D03*
%TD*%
%TO.C,C2*%
X147000000Y-68250000D03*
X147000000Y-70150000D03*
%TD*%
D12*
%TO.C,R36*%
X165118500Y-75946000D03*
X166943500Y-75946000D03*
%TD*%
%TO.C,R30*%
X141337500Y-121100000D03*
X143162500Y-121100000D03*
%TD*%
D11*
%TO.C,R17*%
X178129500Y-112474000D03*
X176304500Y-112474000D03*
%TD*%
D16*
%TO.C,R19*%
X169267112Y-94256170D03*
X169267112Y-92431170D03*
%TD*%
D15*
%TO.C,Q2*%
X173226500Y-83662418D03*
X173226500Y-81762418D03*
X171351500Y-82712418D03*
%TD*%
D17*
%TO.C,C15*%
X158500000Y-111000000D03*
X156600000Y-111000000D03*
%TD*%
D22*
%TO.C,R3*%
X136054765Y-83254765D03*
X137345235Y-84545235D03*
%TD*%
D23*
%TO.C,C13*%
X138600000Y-102400000D03*
X137256498Y-103743502D03*
%TD*%
D19*
%TO.C,C8*%
X162950000Y-64177195D03*
X162950000Y-66077195D03*
%TD*%
D16*
%TO.C,R21*%
X169252920Y-83614503D03*
X169252920Y-81789503D03*
%TD*%
D17*
%TO.C,C19*%
X157700000Y-105400000D03*
X155800000Y-105400000D03*
%TD*%
D12*
%TO.C,R39*%
X165131000Y-73796000D03*
X166956000Y-73796000D03*
%TD*%
D16*
%TO.C,R29*%
X169278122Y-90686336D03*
X169278122Y-88861336D03*
%TD*%
D24*
%TO.C,DON1*%
X170331000Y-73796000D03*
X168756000Y-73796000D03*
%TD*%
D25*
%TO.C,C18*%
X157500000Y-109200000D03*
X157500000Y-107300000D03*
%TD*%
D26*
%TO.C,F1*%
X132600000Y-66000000D03*
X132600000Y-68800000D03*
%TD*%
D12*
%TO.C,R38*%
X165218500Y-71546000D03*
X167043500Y-71546000D03*
%TD*%
D18*
%TO.C,R26*%
X175322809Y-85343999D03*
X175322809Y-87168999D03*
%TD*%
D22*
%TO.C,R2*%
X129764295Y-89364295D03*
X131054765Y-90654765D03*
%TD*%
D27*
%TO.C,U5*%
X137151346Y-91441800D03*
X137717032Y-92007485D03*
X138282717Y-92573171D03*
X138848402Y-93138856D03*
X139414088Y-93704542D03*
X139979773Y-94270227D03*
X140545459Y-94835912D03*
X141111144Y-95401598D03*
D28*
X143161754Y-95401598D03*
X143727439Y-94835912D03*
X144293125Y-94270227D03*
X144858810Y-93704542D03*
X145424496Y-93138856D03*
X145990181Y-92573171D03*
X146555866Y-92007485D03*
X147121552Y-91441800D03*
D27*
X147121552Y-89391190D03*
X146555866Y-88825505D03*
X145990181Y-88259819D03*
X145424496Y-87694134D03*
X144858810Y-87128448D03*
X144293125Y-86562763D03*
X143727439Y-85997078D03*
X143161754Y-85431392D03*
D28*
X141111144Y-85431392D03*
X140545459Y-85997078D03*
X139979773Y-86562763D03*
X139414088Y-87128448D03*
X138848402Y-87694134D03*
X138282717Y-88259819D03*
X137717032Y-88825505D03*
X137151346Y-89391190D03*
%TD*%
D15*
%TO.C,Q6*%
X173260349Y-90705366D03*
X173260349Y-88805366D03*
X171385349Y-89755366D03*
%TD*%
D29*
%TO.C,FB1*%
X134800000Y-66625000D03*
X134800000Y-68200000D03*
%TD*%
D30*
%TO.C,C3*%
X142400000Y-70150000D03*
X144300000Y-70150000D03*
%TD*%
D31*
%TO.C,R5*%
X148229773Y-100770227D03*
X146939303Y-99479757D03*
%TD*%
D32*
%TO.C,U6*%
X119073000Y-94249000D03*
X117803000Y-94249000D03*
X116533000Y-94249000D03*
X115263000Y-94249000D03*
X115263000Y-99199000D03*
X116533000Y-99199000D03*
X117803000Y-99199000D03*
X119073000Y-99199000D03*
%TD*%
D17*
%TO.C,C23*%
X159300000Y-133800000D03*
X157400000Y-133800000D03*
%TD*%
D30*
%TO.C,C21*%
X163050000Y-131600000D03*
X164950000Y-131600000D03*
%TD*%
D23*
%TO.C,C10*%
X136500000Y-94000000D03*
X135156498Y-95343502D03*
%TD*%
D18*
%TO.C,R16*%
X161500000Y-103575000D03*
X161500000Y-105400000D03*
%TD*%
D33*
%TO.C,C5*%
X146708022Y-85741978D03*
X148051524Y-84398476D03*
%TD*%
D24*
%TO.C,DL1*%
X170331000Y-71546000D03*
X168756000Y-71546000D03*
%TD*%
D22*
%TO.C,R4*%
X137514295Y-81714295D03*
X138804765Y-83004765D03*
%TD*%
D34*
%TO.C,BR1*%
X119200410Y-72625580D03*
X124300410Y-72625580D03*
X119200410Y-64375580D03*
X124300410Y-64375580D03*
%TD*%
D35*
%TO.C,R1*%
X126689303Y-93560697D03*
X127979773Y-92270227D03*
%TD*%
D36*
%TO.C,Y1*%
X133361522Y-100087868D03*
X135412132Y-102138478D03*
X137038478Y-100512132D03*
X134987868Y-98461522D03*
%TD*%
D16*
%TO.C,R25*%
X169273042Y-97790000D03*
X169273042Y-95965000D03*
%TD*%
D37*
%TO.C,L1*%
X149400000Y-86000000D03*
X148286306Y-87113694D03*
%TD*%
D18*
%TO.C,R13*%
X122936000Y-97790000D03*
X122936000Y-99615000D03*
%TD*%
D24*
%TO.C,RXD1*%
X170231000Y-75946000D03*
X168656000Y-75946000D03*
%TD*%
D38*
%TO.C,D2*%
X131804765Y-86004765D03*
X133784663Y-87984663D03*
%TD*%
D18*
%TO.C,R20*%
X175337000Y-81799918D03*
X175337000Y-83624918D03*
%TD*%
D11*
%TO.C,R10*%
X122578500Y-86360000D03*
X120753500Y-86360000D03*
%TD*%
D32*
%TO.C,U10*%
X161155000Y-126525000D03*
X159885000Y-126525000D03*
X158615000Y-126525000D03*
X157345000Y-126525000D03*
X157345000Y-131475000D03*
X158615000Y-131475000D03*
X159885000Y-131475000D03*
X161155000Y-131475000D03*
%TD*%
D23*
%TO.C,C11*%
X138000000Y-95500000D03*
X136656498Y-96843502D03*
%TD*%
D18*
%TO.C,R15*%
X159500000Y-103575000D03*
X159500000Y-105400000D03*
%TD*%
D12*
%TO.C,R31*%
X141337500Y-119100000D03*
X143162500Y-119100000D03*
%TD*%
D33*
%TO.C,C9*%
X145229773Y-84270227D03*
X146573275Y-82926725D03*
%TD*%
D22*
%TO.C,R8*%
X134554765Y-84754765D03*
X135845235Y-86045235D03*
%TD*%
D15*
%TO.C,Q1*%
X173252611Y-94318500D03*
X173252611Y-92418500D03*
X171377611Y-93368500D03*
%TD*%
D12*
%TO.C,R35*%
X125687500Y-115200000D03*
X127512500Y-115200000D03*
%TD*%
D35*
%TO.C,R9*%
X138604765Y-98645235D03*
X139895235Y-97354765D03*
%TD*%
D12*
%TO.C,R33*%
X141337500Y-123100000D03*
X143162500Y-123100000D03*
%TD*%
D25*
%TO.C,C14*%
X120904000Y-99690000D03*
X120904000Y-97790000D03*
%TD*%
D34*
%TO.C,BR2*%
X120549590Y-114874420D03*
X115449590Y-114874420D03*
X120549590Y-123124420D03*
X115449590Y-123124420D03*
%TD*%
D24*
%TO.C,TXD1*%
X170145107Y-78146000D03*
X168570107Y-78146000D03*
%TD*%
D18*
%TO.C,R28*%
X175332967Y-88831901D03*
X175332967Y-90656901D03*
%TD*%
D15*
%TO.C,Q3*%
X173264955Y-101368238D03*
X173264955Y-99468238D03*
X171389955Y-100418238D03*
%TD*%
D39*
%TO.C,D1*%
X129600000Y-65950000D03*
X129600000Y-69250000D03*
%TD*%
D19*
%TO.C,C22*%
X117200000Y-102500000D03*
X117200000Y-104400000D03*
%TD*%
D16*
%TO.C,R27*%
X169276932Y-87185583D03*
X169276932Y-85360583D03*
%TD*%
D18*
%TO.C,R22*%
X175369042Y-99479203D03*
X175369042Y-101304203D03*
%TD*%
D33*
%TO.C,C12*%
X131728249Y-98271751D03*
X133071751Y-96928249D03*
%TD*%
D35*
%TO.C,R7*%
X128489303Y-95360697D03*
X129779773Y-94070227D03*
%TD*%
D31*
%TO.C,R6*%
X149979773Y-99270227D03*
X148689303Y-97979757D03*
%TD*%
D16*
%TO.C,R14*%
X154800000Y-112712500D03*
X154800000Y-110887500D03*
%TD*%
D40*
%TO.C,U7*%
X160237500Y-107450000D03*
X160237500Y-108100000D03*
X160237500Y-108750000D03*
X160237500Y-109400000D03*
X160237500Y-110050000D03*
X160237500Y-110700000D03*
X160237500Y-111350000D03*
X165962500Y-111350000D03*
X165962500Y-110700000D03*
X165962500Y-110050000D03*
X165962500Y-109400000D03*
X165962500Y-108750000D03*
X165962500Y-108100000D03*
X165962500Y-107450000D03*
%TD*%
D33*
%TO.C,C6*%
X149579773Y-88670227D03*
X150923275Y-87326725D03*
%TD*%
M02*
