G04 #@! TF.GenerationSoftware,KiCad,Pcbnew,6.0.0-rc1-unknown-b471945224~144~ubuntu20.04.1*
G04 #@! TF.CreationDate,2021-11-25T10:13:17+04:00*
G04 #@! TF.ProjectId,BEEIRON v0.03,42454549-524f-44e2-9076-302e30332e6b,rev?*
G04 #@! TF.SameCoordinates,Original*
G04 #@! TF.FileFunction,Soldermask,Top*
G04 #@! TF.FilePolarity,Negative*
%FSLAX46Y46*%
G04 Gerber Fmt 4.6, Leading zero omitted, Abs format (unit mm)*
G04 Created by KiCad (PCBNEW 6.0.0-rc1-unknown-b471945224~144~ubuntu20.04.1) date 2021-11-25 10:13:17*
%MOMM*%
%LPD*%
G01*
G04 APERTURE LIST*
G04 Aperture macros list*
%AMRoundRect*
0 Rectangle with rounded corners*
0 $1 Rounding radius*
0 $2 $3 $4 $5 $6 $7 $8 $9 X,Y pos of 4 corners*
0 Add a 4 corners polygon primitive as box body*
4,1,4,$2,$3,$4,$5,$6,$7,$8,$9,$2,$3,0*
0 Add four circle primitives for the rounded corners*
1,1,$1+$1,$2,$3*
1,1,$1+$1,$4,$5*
1,1,$1+$1,$6,$7*
1,1,$1+$1,$8,$9*
0 Add four rect primitives between the rounded corners*
20,1,$1+$1,$2,$3,$4,$5,0*
20,1,$1+$1,$4,$5,$6,$7,0*
20,1,$1+$1,$6,$7,$8,$9,0*
20,1,$1+$1,$8,$9,$2,$3,0*%
%AMHorizOval*
0 Thick line with rounded ends*
0 $1 width*
0 $2 $3 position (X,Y) of the first rounded end (center of the circle)*
0 $4 $5 position (X,Y) of the second rounded end (center of the circle)*
0 Add line between two ends*
20,1,$1,$2,$3,$4,$5,0*
0 Add two circle primitives to create the rounded ends*
1,1,$1,$2,$3*
1,1,$1,$4,$5*%
%AMFreePoly0*
4,1,16,0.535355,0.785355,0.541603,0.777735,1.041603,0.027735,1.049029,-0.009806,1.041603,-0.027735,0.541603,-0.777735,0.509806,-0.799029,0.500000,-0.800000,-0.500000,-0.800000,-0.535355,-0.785355,-0.550000,-0.750000,-0.550000,0.750000,-0.535355,0.785355,-0.500000,0.800000,0.500000,0.800000,0.535355,0.785355,0.535355,0.785355,$1*%
%AMFreePoly1*
4,1,16,0.535355,0.785355,0.550000,0.750000,0.550000,-0.750000,0.535355,-0.785355,0.500000,-0.800000,-0.650000,-0.800000,-0.685355,-0.785355,-0.700000,-0.750000,-0.691603,-0.722265,-0.210093,0.000000,-0.691603,0.722265,-0.699029,0.759806,-0.677735,0.791603,-0.650000,0.800000,0.500000,0.800000,0.535355,0.785355,0.535355,0.785355,$1*%
G04 Aperture macros list end*
%ADD10C,0.100000*%
%ADD11C,1.250000*%
%ADD12RoundRect,0.300000X0.262500X0.450000X-0.262500X0.450000X-0.262500X-0.450000X0.262500X-0.450000X0*%
%ADD13RoundRect,0.300000X-0.262500X-0.450000X0.262500X-0.450000X0.262500X0.450000X-0.262500X0.450000X0*%
%ADD14RoundRect,0.050000X0.750000X-1.000000X0.750000X1.000000X-0.750000X1.000000X-0.750000X-1.000000X0*%
%ADD15RoundRect,0.050000X1.900000X-1.000000X1.900000X1.000000X-1.900000X1.000000X-1.900000X-1.000000X0*%
%ADD16RoundRect,0.200000X0.587500X0.150000X-0.587500X0.150000X-0.587500X-0.150000X0.587500X-0.150000X0*%
%ADD17RoundRect,0.300000X0.450000X-0.262500X0.450000X0.262500X-0.450000X0.262500X-0.450000X-0.262500X0*%
%ADD18C,1.700000*%
%ADD19RoundRect,0.300000X0.250000X0.475000X-0.250000X0.475000X-0.250000X-0.475000X0.250000X-0.475000X0*%
%ADD20C,2.100000*%
%ADD21RoundRect,0.050000X0.850000X0.850000X-0.850000X0.850000X-0.850000X-0.850000X0.850000X-0.850000X0*%
%ADD22O,1.800000X1.800000*%
%ADD23RoundRect,0.300000X-0.450000X0.262500X-0.450000X-0.262500X0.450000X-0.262500X0.450000X0.262500X0*%
%ADD24R,1.500000X1.500000*%
%ADD25FreePoly0,0.000000*%
%ADD26FreePoly0,180.000000*%
%ADD27RoundRect,0.300000X-0.475000X0.250000X-0.475000X-0.250000X0.475000X-0.250000X0.475000X0.250000X0*%
%ADD28RoundRect,0.200000X-0.150000X0.512500X-0.150000X-0.512500X0.150000X-0.512500X0.150000X0.512500X0*%
%ADD29RoundRect,0.050000X-0.850000X0.850000X-0.850000X-0.850000X0.850000X-0.850000X0.850000X0.850000X0*%
%ADD30RoundRect,0.050000X-0.850000X-0.850000X0.850000X-0.850000X0.850000X0.850000X-0.850000X0.850000X0*%
%ADD31RoundRect,0.050000X0.850000X-0.850000X0.850000X0.850000X-0.850000X0.850000X-0.850000X-0.850000X0*%
%ADD32RoundRect,0.050000X-0.750000X-0.750000X0.750000X-0.750000X0.750000X0.750000X-0.750000X0.750000X0*%
%ADD33C,1.000000*%
%ADD34C,10.100000*%
%ADD35C,2.500000*%
%ADD36HorizOval,2.500000X0.000000X0.000000X0.000000X0.000000X0*%
%ADD37RoundRect,0.050000X0.800000X-0.800000X0.800000X0.800000X-0.800000X0.800000X-0.800000X-0.800000X0*%
%ADD38O,1.700000X1.700000*%
%ADD39RoundRect,0.299999X-0.790001X-1.550001X0.790001X-1.550001X0.790001X1.550001X-0.790001X1.550001X0*%
%ADD40O,2.180000X3.700000*%
%ADD41RoundRect,0.050000X-1.250000X-1.250000X1.250000X-1.250000X1.250000X1.250000X-1.250000X1.250000X0*%
%ADD42RoundRect,0.300000X-0.503814X-0.132583X-0.132583X-0.503814X0.503814X0.132583X0.132583X0.503814X0*%
%ADD43RoundRect,0.050000X1.202082X0.000000X0.000000X1.202082X-1.202082X0.000000X0.000000X-1.202082X0*%
%ADD44HorizOval,1.800000X0.000000X0.000000X0.000000X0.000000X0*%
%ADD45FreePoly1,180.000000*%
%ADD46RoundRect,0.300000X-0.159099X0.512652X-0.512652X0.159099X0.159099X-0.512652X0.512652X-0.159099X0*%
%ADD47RoundRect,0.268750X0.218750X0.256250X-0.218750X0.256250X-0.218750X-0.256250X0.218750X-0.256250X0*%
%ADD48RoundRect,0.300000X0.475000X-0.250000X0.475000X0.250000X-0.475000X0.250000X-0.475000X-0.250000X0*%
%ADD49RoundRect,0.300000X-0.625000X0.375000X-0.625000X-0.375000X0.625000X-0.375000X0.625000X0.375000X0*%
%ADD50FreePoly1,0.000000*%
%ADD51RoundRect,0.050000X-0.371231X-0.760140X0.760140X0.371231X0.371231X0.760140X-0.760140X-0.371231X0*%
%ADD52RoundRect,0.050000X0.760140X-0.371231X-0.371231X0.760140X-0.760140X0.371231X0.371231X-0.760140X0*%
%ADD53RoundRect,0.268750X-0.256250X0.218750X-0.256250X-0.218750X0.256250X-0.218750X0.256250X0.218750X0*%
%ADD54RoundRect,0.300000X-0.250000X-0.475000X0.250000X-0.475000X0.250000X0.475000X-0.250000X0.475000X0*%
%ADD55RoundRect,0.300000X0.503814X0.132583X0.132583X0.503814X-0.503814X-0.132583X-0.132583X-0.503814X0*%
%ADD56RoundRect,0.200000X-0.150000X0.825000X-0.150000X-0.825000X0.150000X-0.825000X0.150000X0.825000X0*%
%ADD57RoundRect,0.050000X-0.800000X1.200000X-0.800000X-1.200000X0.800000X-1.200000X0.800000X1.200000X0*%
%ADD58O,1.700000X2.500000*%
%ADD59RoundRect,0.300000X0.159099X-0.512652X0.512652X-0.159099X-0.159099X0.512652X-0.512652X0.159099X0*%
%ADD60RoundRect,0.050000X1.250000X2.250000X-1.250000X2.250000X-1.250000X-2.250000X1.250000X-2.250000X0*%
%ADD61O,2.600000X4.600000*%
%ADD62RoundRect,0.050000X0.600000X0.950000X-0.600000X0.950000X-0.600000X-0.950000X0.600000X-0.950000X0*%
%ADD63RoundRect,0.300000X0.132583X-0.503814X0.503814X-0.132583X-0.132583X0.503814X-0.503814X0.132583X0*%
%ADD64RoundRect,0.050000X-1.378858X0.106066X0.106066X-1.378858X1.378858X-0.106066X-0.106066X1.378858X0*%
%ADD65RoundRect,0.268750X-0.026517X0.335876X-0.335876X0.026517X0.026517X-0.335876X0.335876X-0.026517X0*%
%ADD66RoundRect,0.300000X-0.707107X-0.176777X-0.176777X-0.707107X0.707107X0.176777X0.176777X0.707107X0*%
%ADD67RoundRect,0.300000X0.750000X1.550000X-0.750000X1.550000X-0.750000X-1.550000X0.750000X-1.550000X0*%
%ADD68O,2.100000X3.700000*%
%ADD69FreePoly0,90.000000*%
%ADD70FreePoly1,90.000000*%
%ADD71RoundRect,0.050000X0.800000X0.800000X-0.800000X0.800000X-0.800000X-0.800000X0.800000X-0.800000X0*%
%ADD72RoundRect,0.050000X-0.600000X-0.950000X0.600000X-0.950000X0.600000X0.950000X-0.600000X0.950000X0*%
%ADD73C,1.900000*%
%ADD74RoundRect,0.050000X-0.600000X0.450000X-0.600000X-0.450000X0.600000X-0.450000X0.600000X0.450000X0*%
%ADD75RoundRect,0.050000X0.000000X-1.202082X1.202082X0.000000X0.000000X1.202082X-1.202082X0.000000X0*%
%ADD76HorizOval,1.800000X0.000000X0.000000X0.000000X0.000000X0*%
%ADD77RoundRect,0.150000X-0.637500X-0.100000X0.637500X-0.100000X0.637500X0.100000X-0.637500X0.100000X0*%
G04 APERTURE END LIST*
D10*
X131000000Y-130500000D02*
X126800000Y-134700000D01*
X126800000Y-134700000D02*
X122621875Y-134700000D01*
X122621875Y-134700000D02*
X118600000Y-130800000D01*
X118600000Y-130800000D02*
X119900000Y-129300000D01*
X119900000Y-129300000D02*
X123300000Y-132700000D01*
X123300000Y-132700000D02*
X126000000Y-132700000D01*
X126000000Y-132700000D02*
X129600000Y-129100000D01*
X129600000Y-129100000D02*
X131000000Y-130500000D01*
G36*
X131000000Y-130500000D02*
G01*
X126800000Y-134700000D01*
X122621875Y-134700000D01*
X118600000Y-130800000D01*
X119900000Y-129300000D01*
X123300000Y-132700000D01*
X126000000Y-132700000D01*
X129600000Y-129100000D01*
X131000000Y-130500000D01*
G37*
X131000000Y-130500000D02*
X126800000Y-134700000D01*
X122621875Y-134700000D01*
X118600000Y-130800000D01*
X119900000Y-129300000D01*
X123300000Y-132700000D01*
X126000000Y-132700000D01*
X129600000Y-129100000D01*
X131000000Y-130500000D01*
X131800001Y-129600000D02*
G75*
G03*
X131800001Y-129600000I-1J0D01*
G01*
D11*
X131225000Y-129500000D02*
G75*
G03*
X131225000Y-129500000I-625000J0D01*
G01*
D10*
X156138857Y-123600000D02*
X156138857Y-125200000D01*
X156138857Y-125200000D02*
X156400000Y-125431581D01*
X156400000Y-125431581D02*
X158912165Y-125431581D01*
X158912165Y-125431581D02*
X158912165Y-127400000D01*
X158912165Y-127400000D02*
X154300000Y-127400000D01*
X154300000Y-127400000D02*
X154100000Y-127200000D01*
X154100000Y-127200000D02*
X154100000Y-124562883D01*
X154100000Y-124562883D02*
X146200000Y-124562883D01*
X146200000Y-124562883D02*
X144000000Y-126800000D01*
X144000000Y-126800000D02*
X141400000Y-129400000D01*
X141400000Y-129400000D02*
X139800000Y-131000000D01*
X139800000Y-131000000D02*
X139900000Y-133000000D01*
X139900000Y-133000000D02*
X137800000Y-133000000D01*
X137800000Y-133000000D02*
X137800000Y-130200000D01*
X137800000Y-130200000D02*
X141000000Y-127000000D01*
X141000000Y-127000000D02*
X143200000Y-124800000D01*
X143200000Y-124800000D02*
X145400000Y-122655154D01*
X145400000Y-122655154D02*
X155200000Y-122655154D01*
X155200000Y-122655154D02*
X156138857Y-123600000D01*
G36*
X156138857Y-123600000D02*
G01*
X156138857Y-125200000D01*
X156400000Y-125431581D01*
X158912165Y-125431581D01*
X158912165Y-127400000D01*
X154300000Y-127400000D01*
X154100000Y-127200000D01*
X154100000Y-124562883D01*
X146200000Y-124562883D01*
X144000000Y-126800000D01*
X139800000Y-131000000D01*
X139900000Y-133000000D01*
X137800000Y-133000000D01*
X137800000Y-130200000D01*
X143200000Y-124800000D01*
X145400000Y-122655154D01*
X155200000Y-122655154D01*
X156138857Y-123600000D01*
G37*
X156138857Y-123600000D02*
X156138857Y-125200000D01*
X156400000Y-125431581D01*
X158912165Y-125431581D01*
X158912165Y-127400000D01*
X154300000Y-127400000D01*
X154100000Y-127200000D01*
X154100000Y-124562883D01*
X146200000Y-124562883D01*
X144000000Y-126800000D01*
X139800000Y-131000000D01*
X139900000Y-133000000D01*
X137800000Y-133000000D01*
X137800000Y-130200000D01*
X143200000Y-124800000D01*
X145400000Y-122655154D01*
X155200000Y-122655154D01*
X156138857Y-123600000D01*
X164600000Y-121600000D02*
X161600000Y-124600000D01*
X161600000Y-124600000D02*
X161600000Y-127524000D01*
X161600000Y-127524000D02*
X159600000Y-127524000D01*
X159600000Y-127524000D02*
X159600000Y-123800000D01*
X159600000Y-123800000D02*
X163200000Y-120200000D01*
X163200000Y-120200000D02*
X164600000Y-121600000D01*
G36*
X164600000Y-121600000D02*
G01*
X161600000Y-124600000D01*
X161600000Y-127524000D01*
X159600000Y-127524000D01*
X159600000Y-123800000D01*
X163200000Y-120200000D01*
X164600000Y-121600000D01*
G37*
X164600000Y-121600000D02*
X161600000Y-124600000D01*
X161600000Y-127524000D01*
X159600000Y-127524000D01*
X159600000Y-123800000D01*
X163200000Y-120200000D01*
X164600000Y-121600000D01*
D12*
X122578500Y-88900000D03*
X120753500Y-88900000D03*
D13*
X117087500Y-106500000D03*
X118912500Y-106500000D03*
D14*
X138300000Y-67250000D03*
X140600000Y-67250000D03*
D15*
X140600000Y-60950000D03*
D14*
X142900000Y-67250000D03*
D16*
X173263282Y-97847436D03*
X173263282Y-95947436D03*
X171388282Y-96897436D03*
D17*
X169290207Y-101327000D03*
X169290207Y-99502000D03*
D18*
X129540000Y-72644000D03*
X129540000Y-76144000D03*
D19*
X140000000Y-70150000D03*
X138100000Y-70150000D03*
D20*
X137000000Y-127000000D03*
X147000000Y-127000000D03*
D16*
X173226500Y-87218418D03*
X173226500Y-85318418D03*
X171351500Y-86268418D03*
D21*
X175731000Y-78046000D03*
D22*
X175731000Y-75506000D03*
X175731000Y-72966000D03*
D13*
X165070107Y-78146000D03*
X166895107Y-78146000D03*
D23*
X120000000Y-102575000D03*
X120000000Y-104400000D03*
D13*
X121087500Y-106500000D03*
X122912500Y-106500000D03*
D24*
X115640000Y-91440000D03*
X118040000Y-91440000D03*
D25*
X114840000Y-91440000D03*
D26*
X118840000Y-91440000D03*
D27*
X149200000Y-68250000D03*
X149200000Y-70150000D03*
D28*
X148950000Y-63612500D03*
X148000000Y-63612500D03*
X147050000Y-63612500D03*
X147050000Y-65887500D03*
X148950000Y-65887500D03*
D29*
X177292000Y-109474000D03*
D22*
X174752000Y-109474000D03*
X172212000Y-109474000D03*
D12*
X151600000Y-109800000D03*
X149775000Y-109800000D03*
D30*
X160000000Y-63875000D03*
D22*
X160000000Y-66415000D03*
X160000000Y-68955000D03*
D23*
X175363111Y-92456000D03*
X175363111Y-94281000D03*
D31*
X120725000Y-60750000D03*
D22*
X123265000Y-60750000D03*
D32*
X139700000Y-78770227D03*
X147500000Y-78770227D03*
D33*
X177651650Y-66651650D03*
X175000000Y-60250000D03*
X172348350Y-61348350D03*
X178750000Y-64000000D03*
X171250000Y-64000000D03*
X172348350Y-66651650D03*
D34*
X175000000Y-64000000D03*
D33*
X177651650Y-61348350D03*
X175000000Y-67750000D03*
D23*
X175358406Y-96007610D03*
X175358406Y-97832610D03*
D27*
X155300000Y-107300000D03*
X155300000Y-109200000D03*
D12*
X122572392Y-91418086D03*
X120747392Y-91418086D03*
D27*
X168148000Y-111892000D03*
X168148000Y-113792000D03*
D35*
X127518056Y-121518056D03*
D36*
X132906210Y-126906210D03*
D27*
X147000000Y-68250000D03*
X147000000Y-70150000D03*
D30*
X155652393Y-63874870D03*
D22*
X155652393Y-66414870D03*
X155652393Y-68954870D03*
D37*
X132975000Y-120800000D03*
D38*
X135515000Y-120800000D03*
X138055000Y-120800000D03*
X138055000Y-113180000D03*
X135515000Y-113180000D03*
X132975000Y-113180000D03*
D13*
X165118500Y-75946000D03*
X166943500Y-75946000D03*
X141337500Y-121100000D03*
X143162500Y-121100000D03*
D12*
X178129500Y-112474000D03*
X176304500Y-112474000D03*
D17*
X169267112Y-94256170D03*
X169267112Y-92431170D03*
D39*
X158840000Y-120700000D03*
D40*
X163920000Y-120700000D03*
X169000000Y-120700000D03*
D41*
X165000000Y-128200000D03*
D16*
X173226500Y-83662418D03*
X173226500Y-81762418D03*
X171351500Y-82712418D03*
D19*
X158500000Y-111000000D03*
X156600000Y-111000000D03*
D42*
X136054765Y-83254765D03*
X137345235Y-84545235D03*
D43*
X153979773Y-96362329D03*
D44*
X152183722Y-94566278D03*
X155775824Y-94566278D03*
X153979773Y-92770227D03*
X157571875Y-92770227D03*
X155775824Y-90974175D03*
D26*
X165825000Y-98044000D03*
D45*
X164375000Y-98044000D03*
D46*
X138600000Y-102400000D03*
X137256498Y-103743502D03*
D27*
X162950000Y-64177195D03*
X162950000Y-66077195D03*
D17*
X169252920Y-83614503D03*
X169252920Y-81789503D03*
D19*
X157700000Y-105400000D03*
X155800000Y-105400000D03*
D13*
X165131000Y-73796000D03*
X166956000Y-73796000D03*
D17*
X169278122Y-90686336D03*
X169278122Y-88861336D03*
D47*
X170331000Y-73796000D03*
X168756000Y-73796000D03*
D48*
X157500000Y-109200000D03*
X157500000Y-107300000D03*
D49*
X132600000Y-66000000D03*
X132600000Y-68800000D03*
D13*
X165218500Y-71546000D03*
X167043500Y-71546000D03*
D23*
X175322809Y-85343999D03*
X175322809Y-87168999D03*
D42*
X129764295Y-89364295D03*
X131054765Y-90654765D03*
D25*
X107600000Y-114600000D03*
D50*
X109050000Y-114600000D03*
D33*
X106348350Y-61348350D03*
X112750000Y-64000000D03*
X106348350Y-66651650D03*
X109000000Y-67750000D03*
X111651650Y-66651650D03*
D34*
X109000000Y-64000000D03*
D33*
X105250000Y-64000000D03*
X111651650Y-61348350D03*
X109000000Y-60250000D03*
D51*
X137151346Y-91441800D03*
X137717032Y-92007485D03*
X138282717Y-92573171D03*
X138848402Y-93138856D03*
X139414088Y-93704542D03*
X139979773Y-94270227D03*
X140545459Y-94835912D03*
X141111144Y-95401598D03*
D52*
X143161754Y-95401598D03*
X143727439Y-94835912D03*
X144293125Y-94270227D03*
X144858810Y-93704542D03*
X145424496Y-93138856D03*
X145990181Y-92573171D03*
X146555866Y-92007485D03*
X147121552Y-91441800D03*
D51*
X147121552Y-89391190D03*
X146555866Y-88825505D03*
X145990181Y-88259819D03*
X145424496Y-87694134D03*
X144858810Y-87128448D03*
X144293125Y-86562763D03*
X143727439Y-85997078D03*
X143161754Y-85431392D03*
D52*
X141111144Y-85431392D03*
X140545459Y-85997078D03*
X139979773Y-86562763D03*
X139414088Y-87128448D03*
X138848402Y-87694134D03*
X138282717Y-88259819D03*
X137717032Y-88825505D03*
X137151346Y-89391190D03*
D16*
X173260349Y-90705366D03*
X173260349Y-88805366D03*
X171385349Y-89755366D03*
D53*
X134800000Y-66625000D03*
X134800000Y-68200000D03*
D54*
X142400000Y-70150000D03*
X144300000Y-70150000D03*
D55*
X148229773Y-100770227D03*
X146939303Y-99479757D03*
D56*
X119073000Y-94249000D03*
X117803000Y-94249000D03*
X116533000Y-94249000D03*
X115263000Y-94249000D03*
X115263000Y-99199000D03*
X116533000Y-99199000D03*
X117803000Y-99199000D03*
X119073000Y-99199000D03*
D19*
X159300000Y-133800000D03*
X157400000Y-133800000D03*
D26*
X165825000Y-95504000D03*
D45*
X164375000Y-95504000D03*
D54*
X163050000Y-131600000D03*
X164950000Y-131600000D03*
D46*
X136500000Y-94000000D03*
X135156498Y-95343502D03*
D26*
X174352000Y-112674000D03*
D45*
X172902000Y-112674000D03*
D57*
X151525000Y-112880000D03*
D58*
X148985000Y-112880000D03*
X146445000Y-112880000D03*
X146445000Y-120500000D03*
X148985000Y-120500000D03*
X151525000Y-120500000D03*
D23*
X161500000Y-103575000D03*
X161500000Y-105400000D03*
D59*
X146708022Y-85741978D03*
X148051524Y-84398476D03*
D60*
X144250000Y-132750000D03*
D61*
X138800000Y-132750000D03*
X133350000Y-132750000D03*
D26*
X165823758Y-85344001D03*
D45*
X164373758Y-85344001D03*
D21*
X108200000Y-110220000D03*
D22*
X108200000Y-107680000D03*
X108200000Y-105140000D03*
X108200000Y-102600000D03*
D47*
X170331000Y-71546000D03*
X168756000Y-71546000D03*
D42*
X137514295Y-81714295D03*
X138804765Y-83004765D03*
D62*
X119200410Y-72625580D03*
X124300410Y-72625580D03*
X119200410Y-64375580D03*
X124300410Y-64375580D03*
D63*
X126689303Y-93560697D03*
X127979773Y-92270227D03*
D64*
X133361522Y-100087868D03*
X135412132Y-102138478D03*
X137038478Y-100512132D03*
X134987868Y-98461522D03*
D33*
X175000000Y-126250000D03*
D34*
X175000000Y-130000000D03*
D33*
X172348350Y-132651650D03*
X175000000Y-133750000D03*
X171250000Y-130000000D03*
X172348350Y-127348350D03*
X178750000Y-130000000D03*
X177651650Y-132651650D03*
X177651650Y-127348350D03*
D17*
X169273042Y-97790000D03*
X169273042Y-95965000D03*
D65*
X149400000Y-86000000D03*
X148286306Y-87113694D03*
D23*
X122936000Y-97790000D03*
X122936000Y-99615000D03*
D47*
X170231000Y-75946000D03*
X168656000Y-75946000D03*
D26*
X165825000Y-90424000D03*
D45*
X164375000Y-90424000D03*
D66*
X131804765Y-86004765D03*
X133784663Y-87984663D03*
D21*
X108200000Y-97880000D03*
D22*
X108200000Y-95340000D03*
X108200000Y-92800000D03*
X108200000Y-90260000D03*
D23*
X175337000Y-81799918D03*
X175337000Y-83624918D03*
D12*
X122578500Y-86360000D03*
X120753500Y-86360000D03*
D56*
X161155000Y-126525000D03*
X159885000Y-126525000D03*
X158615000Y-126525000D03*
X157345000Y-126525000D03*
X157345000Y-131475000D03*
X158615000Y-131475000D03*
X159885000Y-131475000D03*
X161155000Y-131475000D03*
D46*
X138000000Y-95500000D03*
X136656498Y-96843502D03*
D67*
X124200000Y-130000000D03*
D68*
X119200000Y-130000000D03*
D23*
X159500000Y-103575000D03*
X159500000Y-105400000D03*
D13*
X141337500Y-119100000D03*
X143162500Y-119100000D03*
D59*
X145229773Y-84270227D03*
X146573275Y-82926725D03*
D42*
X134554765Y-84754765D03*
X135845235Y-86045235D03*
D69*
X121412000Y-95975000D03*
D70*
X121412000Y-94525000D03*
D16*
X173252611Y-94318500D03*
X173252611Y-92418500D03*
X171377611Y-93368500D03*
D13*
X125687500Y-115200000D03*
X127512500Y-115200000D03*
D24*
X115640000Y-88900000D03*
X118040000Y-88900000D03*
D25*
X114840000Y-88900000D03*
D26*
X118840000Y-88900000D03*
D63*
X138604765Y-98645235D03*
X139895235Y-97354765D03*
D71*
X123580000Y-110500000D03*
D38*
X113420000Y-110500000D03*
D13*
X141337500Y-123100000D03*
X143162500Y-123100000D03*
D48*
X120904000Y-99690000D03*
X120904000Y-97790000D03*
D72*
X120549590Y-114874420D03*
X115449590Y-114874420D03*
X120549590Y-123124420D03*
X115449590Y-123124420D03*
D47*
X170145107Y-78146000D03*
X168570107Y-78146000D03*
D23*
X175332967Y-88831901D03*
X175332967Y-90656901D03*
D24*
X115640000Y-86360000D03*
X118040000Y-86360000D03*
D25*
X114840000Y-86360000D03*
D26*
X118840000Y-86360000D03*
D30*
X108200000Y-75800000D03*
D22*
X108200000Y-78340000D03*
X108200000Y-80880000D03*
X108200000Y-83420000D03*
X108200000Y-85960000D03*
D26*
X165825000Y-87884000D03*
D45*
X164375000Y-87884000D03*
D33*
X112750000Y-130000000D03*
X106348350Y-127348350D03*
X109000000Y-126250000D03*
X109000000Y-133750000D03*
X106348350Y-132651650D03*
X111651650Y-127348350D03*
D34*
X109000000Y-130000000D03*
D33*
X111651650Y-132651650D03*
X105250000Y-130000000D03*
D16*
X173264955Y-101368238D03*
X173264955Y-99468238D03*
X171389955Y-100418238D03*
D73*
X150350000Y-133500000D03*
X152650000Y-126000000D03*
D26*
X165825000Y-92964000D03*
D45*
X164375000Y-92964000D03*
D74*
X129600000Y-65950000D03*
X129600000Y-69250000D03*
D27*
X117200000Y-102500000D03*
X117200000Y-104400000D03*
D17*
X169276932Y-87185583D03*
X169276932Y-85360583D03*
D23*
X175369042Y-99479203D03*
X175369042Y-101304203D03*
D59*
X131728249Y-98271751D03*
X133071751Y-96928249D03*
D63*
X128489303Y-95360697D03*
X129779773Y-94070227D03*
D55*
X149979773Y-99270227D03*
X148689303Y-97979757D03*
D75*
X151007898Y-81007898D03*
D76*
X152803949Y-82803949D03*
X154600000Y-84600000D03*
X156396052Y-86396052D03*
D17*
X154800000Y-112712500D03*
X154800000Y-110887500D03*
D77*
X160237500Y-107450000D03*
X160237500Y-108100000D03*
X160237500Y-108750000D03*
X160237500Y-109400000D03*
X160237500Y-110050000D03*
X160237500Y-110700000D03*
X160237500Y-111350000D03*
X165962500Y-111350000D03*
X165962500Y-110700000D03*
X165962500Y-110050000D03*
X165962500Y-109400000D03*
X165962500Y-108750000D03*
X165962500Y-108100000D03*
X165962500Y-107450000D03*
D59*
X149579773Y-88670227D03*
X150923275Y-87326725D03*
M02*
