%TF.GenerationSoftware,KiCad,Pcbnew,(6.0.1)*%
%TF.CreationDate,2022-01-24T11:40:52+04:00*%
%TF.ProjectId,BEEIRON v0.0,42454549-524f-44e2-9076-302e302e6b69,rev?*%
%TF.SameCoordinates,Original*%
%TF.FileFunction,Legend,Top*%
%TF.FilePolarity,Positive*%
%FSLAX46Y46*%
G04 Gerber Fmt 4.6, Leading zero omitted, Abs format (unit mm)*
G04 Created by KiCad (PCBNEW (6.0.1)) date 2022-01-24 11:40:52*
%MOMM*%
%LPD*%
G01*
G04 APERTURE LIST*
G04 Aperture macros list*
%AMRoundRect*
0 Rectangle with rounded corners*
0 $1 Rounding radius*
0 $2 $3 $4 $5 $6 $7 $8 $9 X,Y pos of 4 corners*
0 Add a 4 corners polygon primitive as box body*
4,1,4,$2,$3,$4,$5,$6,$7,$8,$9,$2,$3,0*
0 Add four circle primitives for the rounded corners*
1,1,$1+$1,$2,$3*
1,1,$1+$1,$4,$5*
1,1,$1+$1,$6,$7*
1,1,$1+$1,$8,$9*
0 Add four rect primitives between the rounded corners*
20,1,$1+$1,$2,$3,$4,$5,0*
20,1,$1+$1,$4,$5,$6,$7,0*
20,1,$1+$1,$6,$7,$8,$9,0*
20,1,$1+$1,$8,$9,$2,$3,0*%
%AMHorizOval*
0 Thick line with rounded ends*
0 $1 width*
0 $2 $3 position (X,Y) of the first rounded end (center of the circle)*
0 $4 $5 position (X,Y) of the second rounded end (center of the circle)*
0 Add line between two ends*
20,1,$1,$2,$3,$4,$5,0*
0 Add two circle primitives to create the rounded ends*
1,1,$1,$2,$3*
1,1,$1,$4,$5*%
%AMRotRect*
0 Rectangle, with rotation*
0 The origin of the aperture is its center*
0 $1 length*
0 $2 width*
0 $3 Rotation angle, in degrees counterclockwise*
0 Add horizontal line*
21,1,$1,$2,0,0,$3*%
%AMFreePoly0*
4,1,6,1.000000,0.000000,0.500000,-0.750000,-0.500000,-0.750000,-0.500000,0.750000,0.500000,0.750000,1.000000,0.000000,1.000000,0.000000,$1*%
%AMFreePoly1*
4,1,6,0.500000,-0.750000,-0.650000,-0.750000,-0.150000,0.000000,-0.650000,0.750000,0.500000,0.750000,0.500000,-0.750000,0.500000,-0.750000,$1*%
G04 Aperture macros list end*
%TA.AperFunction,Profile*%
%ADD10C,0.100000*%
%TD*%
%ADD11C,0.150000*%
%ADD12C,0.250000*%
%ADD13C,0.120000*%
%ADD14C,0.350000*%
%ADD15C,0.300000*%
%ADD16RoundRect,0.250000X0.262500X0.450000X-0.262500X0.450000X-0.262500X-0.450000X0.262500X-0.450000X0*%
%ADD17RoundRect,0.250000X-0.262500X-0.450000X0.262500X-0.450000X0.262500X0.450000X-0.262500X0.450000X0*%
%ADD18R,1.500000X2.000000*%
%ADD19R,3.800000X2.000000*%
%ADD20RoundRect,0.150000X0.587500X0.150000X-0.587500X0.150000X-0.587500X-0.150000X0.587500X-0.150000X0*%
%ADD21RoundRect,0.250000X0.450000X-0.262500X0.450000X0.262500X-0.450000X0.262500X-0.450000X-0.262500X0*%
%ADD22C,1.600000*%
%ADD23RoundRect,0.250000X0.250000X0.475000X-0.250000X0.475000X-0.250000X-0.475000X0.250000X-0.475000X0*%
%ADD24C,2.000000*%
%ADD25R,1.700000X1.700000*%
%ADD26O,1.700000X1.700000*%
%ADD27RoundRect,0.250000X-0.450000X0.262500X-0.450000X-0.262500X0.450000X-0.262500X0.450000X0.262500X0*%
%ADD28R,1.500000X1.500000*%
%ADD29FreePoly0,0.000000*%
%ADD30FreePoly0,180.000000*%
%ADD31RoundRect,0.250000X-0.475000X0.250000X-0.475000X-0.250000X0.475000X-0.250000X0.475000X0.250000X0*%
%ADD32RoundRect,0.150000X-0.150000X0.512500X-0.150000X-0.512500X0.150000X-0.512500X0.150000X0.512500X0*%
%ADD33C,0.900000*%
%ADD34C,10.000000*%
%ADD35C,2.400000*%
%ADD36HorizOval,2.400000X0.000000X0.000000X0.000000X0.000000X0*%
%ADD37R,1.600000X1.600000*%
%ADD38O,1.600000X1.600000*%
%ADD39RoundRect,0.249999X-0.790001X-1.550001X0.790001X-1.550001X0.790001X1.550001X-0.790001X1.550001X0*%
%ADD40O,2.080000X3.600000*%
%ADD41R,2.500000X2.500000*%
%ADD42RoundRect,0.250000X-0.503814X-0.132583X-0.132583X-0.503814X0.503814X0.132583X0.132583X0.503814X0*%
%ADD43RotRect,1.700000X1.700000X135.000000*%
%ADD44HorizOval,1.700000X0.000000X0.000000X0.000000X0.000000X0*%
%ADD45FreePoly1,180.000000*%
%ADD46RoundRect,0.250000X-0.159099X0.512652X-0.512652X0.159099X0.159099X-0.512652X0.512652X-0.159099X0*%
%ADD47RoundRect,0.218750X0.218750X0.256250X-0.218750X0.256250X-0.218750X-0.256250X0.218750X-0.256250X0*%
%ADD48RoundRect,0.250000X0.475000X-0.250000X0.475000X0.250000X-0.475000X0.250000X-0.475000X-0.250000X0*%
%ADD49RoundRect,0.250000X-0.625000X0.375000X-0.625000X-0.375000X0.625000X-0.375000X0.625000X0.375000X0*%
%ADD50FreePoly1,0.000000*%
%ADD51RotRect,1.600000X0.550000X45.000000*%
%ADD52RotRect,1.600000X0.550000X135.000000*%
%ADD53RoundRect,0.218750X-0.256250X0.218750X-0.256250X-0.218750X0.256250X-0.218750X0.256250X0.218750X0*%
%ADD54RoundRect,0.250000X-0.250000X-0.475000X0.250000X-0.475000X0.250000X0.475000X-0.250000X0.475000X0*%
%ADD55RoundRect,0.250000X0.503814X0.132583X0.132583X0.503814X-0.503814X-0.132583X-0.132583X-0.503814X0*%
%ADD56RoundRect,0.150000X-0.150000X0.825000X-0.150000X-0.825000X0.150000X-0.825000X0.150000X0.825000X0*%
%ADD57R,1.600000X2.400000*%
%ADD58O,1.600000X2.400000*%
%ADD59RoundRect,0.250000X0.159099X-0.512652X0.512652X-0.159099X-0.159099X0.512652X-0.512652X0.159099X0*%
%ADD60R,2.500000X4.500000*%
%ADD61O,2.500000X4.500000*%
%ADD62R,1.200000X1.900000*%
%ADD63RoundRect,0.250000X0.132583X-0.503814X0.503814X-0.132583X-0.132583X0.503814X-0.503814X0.132583X0*%
%ADD64RotRect,2.100000X1.800000X315.000000*%
%ADD65RoundRect,0.218750X-0.026517X0.335876X-0.335876X0.026517X0.026517X-0.335876X0.335876X-0.026517X0*%
%ADD66RoundRect,0.250000X-0.707107X-0.176777X-0.176777X-0.707107X0.707107X0.176777X0.176777X0.707107X0*%
%ADD67RoundRect,0.250000X0.750000X1.550000X-0.750000X1.550000X-0.750000X-1.550000X0.750000X-1.550000X0*%
%ADD68O,2.000000X3.600000*%
%ADD69FreePoly0,90.000000*%
%ADD70FreePoly1,90.000000*%
%ADD71C,1.800000*%
%ADD72R,1.200000X0.900000*%
%ADD73RotRect,1.700000X1.700000X45.000000*%
%ADD74HorizOval,1.700000X0.000000X0.000000X0.000000X0.000000X0*%
%ADD75RoundRect,0.100000X-0.637500X-0.100000X0.637500X-0.100000X0.637500X0.100000X-0.637500X0.100000X0*%
G04 APERTURE END LIST*
D10*
X181000000Y-64000000D02*
G75*
G03*
X175000000Y-58000000I-5999999J1D01*
G01*
X181000000Y-130000000D02*
X181000000Y-64000000D01*
X103000000Y-64000000D02*
X103000000Y-130000000D01*
X109000000Y-58000000D02*
G75*
G03*
X103000000Y-64000000I-1J-5999999D01*
G01*
X132800000Y-117000000D02*
X165000000Y-117000000D01*
X129400000Y-117000000D02*
X113000000Y-117000000D01*
X132800000Y-117000000D02*
X132800000Y-118000000D01*
X113000000Y-117000000D02*
X113000000Y-118000000D01*
X165000000Y-118000000D02*
X132800000Y-118000000D01*
X103000000Y-130000000D02*
G75*
G03*
X109000000Y-136000000I5999999J-1D01*
G01*
X175000000Y-58000000D02*
X109000000Y-58000000D01*
X113000000Y-118000000D02*
X129400000Y-118000000D01*
X109000000Y-136000000D02*
X175000000Y-136000000D01*
X175000000Y-136000000D02*
G75*
G03*
X181000000Y-130000000I1J5999999D01*
G01*
X129400000Y-117000000D02*
X129400000Y-118000000D01*
X165000000Y-117000000D02*
X165000000Y-118000000D01*
D11*
X151156599Y-93055583D02*
X150617851Y-92516835D01*
X151156599Y-92516835D02*
X150617851Y-93055583D01*
X149506683Y-92281133D02*
X149843400Y-92617851D01*
X150213790Y-92314805D01*
X150146446Y-92314805D01*
X150045431Y-92281133D01*
X149877072Y-92112774D01*
X149843400Y-92011759D01*
X149843400Y-91944416D01*
X149877072Y-91843400D01*
X150045431Y-91675042D01*
X150146446Y-91641370D01*
X150213790Y-91641370D01*
X150314805Y-91675042D01*
X150483164Y-91843400D01*
X150516835Y-91944416D01*
X150516835Y-92011759D01*
X104285714Y-75966666D02*
X104761904Y-75966666D01*
X104190476Y-76252380D02*
X104523809Y-75252380D01*
X104857142Y-76252380D01*
X105714285Y-76252380D02*
X105142857Y-76252380D01*
X105428571Y-76252380D02*
X105428571Y-75252380D01*
X105333333Y-75395238D01*
X105238095Y-75490476D01*
X105142857Y-75538095D01*
X104285714Y-86166666D02*
X104761904Y-86166666D01*
X104190476Y-86452380D02*
X104523809Y-85452380D01*
X104857142Y-86452380D01*
X105095238Y-85452380D02*
X105761904Y-85452380D01*
X105333333Y-86452380D01*
X104061904Y-93252380D02*
X104061904Y-92252380D01*
X104300000Y-92252380D01*
X104442857Y-92300000D01*
X104538095Y-92395238D01*
X104585714Y-92490476D01*
X104633333Y-92680952D01*
X104633333Y-92823809D01*
X104585714Y-93014285D01*
X104538095Y-93109523D01*
X104442857Y-93204761D01*
X104300000Y-93252380D01*
X104061904Y-93252380D01*
X105490476Y-92585714D02*
X105490476Y-93252380D01*
X105252380Y-92204761D02*
X105014285Y-92919047D01*
X105633333Y-92919047D01*
X174537714Y-107116571D02*
X174871047Y-107116571D01*
X175013904Y-107640380D02*
X174537714Y-107640380D01*
X174537714Y-106640380D01*
X175013904Y-106640380D01*
X105604761Y-116300000D02*
X105509523Y-116252380D01*
X105366666Y-116252380D01*
X105223809Y-116300000D01*
X105128571Y-116395238D01*
X105080952Y-116490476D01*
X105033333Y-116680952D01*
X105033333Y-116823809D01*
X105080952Y-117014285D01*
X105128571Y-117109523D01*
X105223809Y-117204761D01*
X105366666Y-117252380D01*
X105461904Y-117252380D01*
X105604761Y-117204761D01*
X105652380Y-117157142D01*
X105652380Y-116823809D01*
X105461904Y-116823809D01*
X106080952Y-117252380D02*
X106080952Y-116252380D01*
X106652380Y-117252380D01*
X106652380Y-116252380D01*
X107128571Y-117252380D02*
X107128571Y-116252380D01*
X107366666Y-116252380D01*
X107509523Y-116300000D01*
X107604761Y-116395238D01*
X107652380Y-116490476D01*
X107700000Y-116680952D01*
X107700000Y-116823809D01*
X107652380Y-117014285D01*
X107604761Y-117109523D01*
X107509523Y-117204761D01*
X107366666Y-117252380D01*
X107128571Y-117252380D01*
X107890476Y-117347619D02*
X108652380Y-117347619D01*
X109176190Y-116252380D02*
X109176190Y-116966666D01*
X109128571Y-117109523D01*
X109033333Y-117204761D01*
X108890476Y-117252380D01*
X108795238Y-117252380D01*
X109652380Y-117252380D02*
X109652380Y-116252380D01*
X109985714Y-116966666D01*
X110319047Y-116252380D01*
X110319047Y-117252380D01*
X110795238Y-117252380D02*
X110795238Y-116252380D01*
X111176190Y-116252380D01*
X111271428Y-116300000D01*
X111319047Y-116347619D01*
X111366666Y-116442857D01*
X111366666Y-116585714D01*
X111319047Y-116680952D01*
X111271428Y-116728571D01*
X111176190Y-116776190D01*
X110795238Y-116776190D01*
X159410152Y-90370389D02*
X158703045Y-91077496D01*
X159073435Y-90101015D02*
X159006091Y-89966328D01*
X158837732Y-89797969D01*
X158736717Y-89764297D01*
X158669374Y-89764297D01*
X158568358Y-89797969D01*
X158501015Y-89865312D01*
X158467343Y-89966328D01*
X158467343Y-90033671D01*
X158501015Y-90134687D01*
X158602030Y-90303045D01*
X158635702Y-90404061D01*
X158635702Y-90471404D01*
X158602030Y-90572419D01*
X158534687Y-90639763D01*
X158433671Y-90673435D01*
X158366328Y-90673435D01*
X158265312Y-90639763D01*
X158096954Y-90471404D01*
X158029610Y-90336717D01*
X158400000Y-89360236D02*
X157692893Y-90067343D01*
X157423519Y-89797969D01*
X157389847Y-89696954D01*
X157389847Y-89629610D01*
X157423519Y-89528595D01*
X157524534Y-89427580D01*
X157625549Y-89393908D01*
X157692893Y-89393908D01*
X157793908Y-89427580D01*
X158063282Y-89696954D01*
X104285714Y-81166666D02*
X104761904Y-81166666D01*
X104190476Y-81452380D02*
X104523809Y-80452380D01*
X104857142Y-81452380D01*
X105095238Y-80452380D02*
X105714285Y-80452380D01*
X105380952Y-80833333D01*
X105523809Y-80833333D01*
X105619047Y-80880952D01*
X105666666Y-80928571D01*
X105714285Y-81023809D01*
X105714285Y-81261904D01*
X105666666Y-81357142D01*
X105619047Y-81404761D01*
X105523809Y-81452380D01*
X105238095Y-81452380D01*
X105142857Y-81404761D01*
X105095238Y-81357142D01*
X150914285Y-63871428D02*
X151676190Y-63871428D01*
X151295238Y-64252380D02*
X151295238Y-63490476D01*
X152628571Y-63252380D02*
X152152380Y-63252380D01*
X152104761Y-63728571D01*
X152152380Y-63680952D01*
X152247619Y-63633333D01*
X152485714Y-63633333D01*
X152580952Y-63680952D01*
X152628571Y-63728571D01*
X152676190Y-63823809D01*
X152676190Y-64061904D01*
X152628571Y-64157142D01*
X152580952Y-64204761D01*
X152485714Y-64252380D01*
X152247619Y-64252380D01*
X152152380Y-64204761D01*
X152104761Y-64157142D01*
X152961904Y-63252380D02*
X153295238Y-64252380D01*
X153628571Y-63252380D01*
X119342857Y-124747619D02*
X119390476Y-124700000D01*
X119485714Y-124652380D01*
X119723809Y-124652380D01*
X119819047Y-124700000D01*
X119866666Y-124747619D01*
X119914285Y-124842857D01*
X119914285Y-124938095D01*
X119866666Y-125080952D01*
X119295238Y-125652380D01*
X119914285Y-125652380D01*
X120771428Y-124985714D02*
X120771428Y-125652380D01*
X120533333Y-124604761D02*
X120295238Y-125319047D01*
X120914285Y-125319047D01*
X121152380Y-124652380D02*
X121485714Y-125652380D01*
X121819047Y-124652380D01*
X122104761Y-125366666D02*
X122580952Y-125366666D01*
X122009523Y-125652380D02*
X122342857Y-124652380D01*
X122676190Y-125652380D01*
X123580952Y-125557142D02*
X123533333Y-125604761D01*
X123390476Y-125652380D01*
X123295238Y-125652380D01*
X123152380Y-125604761D01*
X123057142Y-125509523D01*
X123009523Y-125414285D01*
X122961904Y-125223809D01*
X122961904Y-125080952D01*
X123009523Y-124890476D01*
X123057142Y-124795238D01*
X123152380Y-124700000D01*
X123295238Y-124652380D01*
X123390476Y-124652380D01*
X123533333Y-124700000D01*
X123580952Y-124747619D01*
X124628571Y-125271428D02*
X124676190Y-125223809D01*
X124771428Y-125176190D01*
X124961904Y-125271428D01*
X125057142Y-125223809D01*
X125104761Y-125176190D01*
X171869095Y-77498380D02*
X172440523Y-77498380D01*
X172154809Y-78498380D02*
X172154809Y-77498380D01*
X172678619Y-77498380D02*
X173345285Y-78498380D01*
X173345285Y-77498380D02*
X172678619Y-78498380D01*
X151161904Y-66052380D02*
X151780952Y-66052380D01*
X151447619Y-66433333D01*
X151590476Y-66433333D01*
X151685714Y-66480952D01*
X151733333Y-66528571D01*
X151780952Y-66623809D01*
X151780952Y-66861904D01*
X151733333Y-66957142D01*
X151685714Y-67004761D01*
X151590476Y-67052380D01*
X151304761Y-67052380D01*
X151209523Y-67004761D01*
X151161904Y-66957142D01*
X152066666Y-66052380D02*
X152400000Y-67052380D01*
X152733333Y-66052380D01*
X152971428Y-66052380D02*
X153590476Y-66052380D01*
X153257142Y-66433333D01*
X153400000Y-66433333D01*
X153495238Y-66480952D01*
X153542857Y-66528571D01*
X153590476Y-66623809D01*
X153590476Y-66861904D01*
X153542857Y-66957142D01*
X153495238Y-67004761D01*
X153400000Y-67052380D01*
X153114285Y-67052380D01*
X153019047Y-67004761D01*
X152971428Y-66957142D01*
X104285714Y-78566666D02*
X104761904Y-78566666D01*
X104190476Y-78852380D02*
X104523809Y-77852380D01*
X104857142Y-78852380D01*
X105142857Y-77947619D02*
X105190476Y-77900000D01*
X105285714Y-77852380D01*
X105523809Y-77852380D01*
X105619047Y-77900000D01*
X105666666Y-77947619D01*
X105714285Y-78042857D01*
X105714285Y-78138095D01*
X105666666Y-78280952D01*
X105095238Y-78852380D01*
X105714285Y-78852380D01*
X172011952Y-73198380D02*
X172202428Y-73198380D01*
X172297666Y-73246000D01*
X172392904Y-73341238D01*
X172440523Y-73531714D01*
X172440523Y-73865047D01*
X172392904Y-74055523D01*
X172297666Y-74150761D01*
X172202428Y-74198380D01*
X172011952Y-74198380D01*
X171916714Y-74150761D01*
X171821476Y-74055523D01*
X171773857Y-73865047D01*
X171773857Y-73531714D01*
X171821476Y-73341238D01*
X171916714Y-73246000D01*
X172011952Y-73198380D01*
X172869095Y-74198380D02*
X172869095Y-73198380D01*
X173440523Y-74198380D01*
X173440523Y-73198380D01*
X167386000Y-128849380D02*
X167386000Y-127849380D01*
X103809523Y-108204761D02*
X103952380Y-108252380D01*
X104190476Y-108252380D01*
X104285714Y-108204761D01*
X104333333Y-108157142D01*
X104380952Y-108061904D01*
X104380952Y-107966666D01*
X104333333Y-107871428D01*
X104285714Y-107823809D01*
X104190476Y-107776190D01*
X104000000Y-107728571D01*
X103904761Y-107680952D01*
X103857142Y-107633333D01*
X103809523Y-107538095D01*
X103809523Y-107442857D01*
X103857142Y-107347619D01*
X103904761Y-107300000D01*
X104000000Y-107252380D01*
X104238095Y-107252380D01*
X104380952Y-107300000D01*
X105380952Y-108157142D02*
X105333333Y-108204761D01*
X105190476Y-108252380D01*
X105095238Y-108252380D01*
X104952380Y-108204761D01*
X104857142Y-108109523D01*
X104809523Y-108014285D01*
X104761904Y-107823809D01*
X104761904Y-107680952D01*
X104809523Y-107490476D01*
X104857142Y-107395238D01*
X104952380Y-107300000D01*
X105095238Y-107252380D01*
X105190476Y-107252380D01*
X105333333Y-107300000D01*
X105380952Y-107347619D01*
X106285714Y-108252380D02*
X105809523Y-108252380D01*
X105809523Y-107252380D01*
X111958380Y-100019714D02*
X111482190Y-100353047D01*
X111958380Y-100591142D02*
X110958380Y-100591142D01*
X110958380Y-100210190D01*
X111006000Y-100114952D01*
X111053619Y-100067333D01*
X111148857Y-100019714D01*
X111291714Y-100019714D01*
X111386952Y-100067333D01*
X111434571Y-100114952D01*
X111482190Y-100210190D01*
X111482190Y-100591142D01*
X110958380Y-99400666D02*
X110958380Y-99210190D01*
X111006000Y-99114952D01*
X111101238Y-99019714D01*
X111291714Y-98972095D01*
X111625047Y-98972095D01*
X111815523Y-99019714D01*
X111910761Y-99114952D01*
X111958380Y-99210190D01*
X111958380Y-99400666D01*
X111910761Y-99495904D01*
X111815523Y-99591142D01*
X111625047Y-99638761D01*
X111291714Y-99638761D01*
X111101238Y-99591142D01*
X111006000Y-99495904D01*
X110958380Y-99400666D01*
X110958380Y-98686380D02*
X110958380Y-98114952D01*
X111958380Y-98400666D02*
X110958380Y-98400666D01*
X111672666Y-97829238D02*
X111672666Y-97353047D01*
X111958380Y-97924476D02*
X110958380Y-97591142D01*
X111958380Y-97257809D01*
X111958380Y-96353047D02*
X111482190Y-96686380D01*
X111958380Y-96924476D02*
X110958380Y-96924476D01*
X110958380Y-96543523D01*
X111006000Y-96448285D01*
X111053619Y-96400666D01*
X111148857Y-96353047D01*
X111291714Y-96353047D01*
X111386952Y-96400666D01*
X111434571Y-96448285D01*
X111482190Y-96543523D01*
X111482190Y-96924476D01*
X111482190Y-95734000D02*
X111958380Y-95734000D01*
X110958380Y-96067333D02*
X111482190Y-95734000D01*
X110958380Y-95400666D01*
X111434571Y-94305428D02*
X111434571Y-93972095D01*
X111958380Y-93829238D02*
X111958380Y-94305428D01*
X110958380Y-94305428D01*
X110958380Y-93829238D01*
X111958380Y-93400666D02*
X110958380Y-93400666D01*
X111958380Y-92829238D01*
X110958380Y-92829238D01*
X111863142Y-91781619D02*
X111910761Y-91829238D01*
X111958380Y-91972095D01*
X111958380Y-92067333D01*
X111910761Y-92210190D01*
X111815523Y-92305428D01*
X111720285Y-92353047D01*
X111529809Y-92400666D01*
X111386952Y-92400666D01*
X111196476Y-92353047D01*
X111101238Y-92305428D01*
X111006000Y-92210190D01*
X110958380Y-92067333D01*
X110958380Y-91972095D01*
X111006000Y-91829238D01*
X111053619Y-91781619D01*
X110958380Y-91162571D02*
X110958380Y-90972095D01*
X111006000Y-90876857D01*
X111101238Y-90781619D01*
X111291714Y-90734000D01*
X111625047Y-90734000D01*
X111815523Y-90781619D01*
X111910761Y-90876857D01*
X111958380Y-90972095D01*
X111958380Y-91162571D01*
X111910761Y-91257809D01*
X111815523Y-91353047D01*
X111625047Y-91400666D01*
X111291714Y-91400666D01*
X111101238Y-91353047D01*
X111006000Y-91257809D01*
X110958380Y-91162571D01*
X111958380Y-90305428D02*
X110958380Y-90305428D01*
X110958380Y-90067333D01*
X111006000Y-89924476D01*
X111101238Y-89829238D01*
X111196476Y-89781619D01*
X111386952Y-89734000D01*
X111529809Y-89734000D01*
X111720285Y-89781619D01*
X111815523Y-89829238D01*
X111910761Y-89924476D01*
X111958380Y-90067333D01*
X111958380Y-90305428D01*
X111434571Y-89305428D02*
X111434571Y-88972095D01*
X111958380Y-88829238D02*
X111958380Y-89305428D01*
X110958380Y-89305428D01*
X110958380Y-88829238D01*
X111958380Y-87829238D02*
X111482190Y-88162571D01*
X111958380Y-88400666D02*
X110958380Y-88400666D01*
X110958380Y-88019714D01*
X111006000Y-87924476D01*
X111053619Y-87876857D01*
X111148857Y-87829238D01*
X111291714Y-87829238D01*
X111386952Y-87876857D01*
X111434571Y-87924476D01*
X111482190Y-88019714D01*
X111482190Y-88400666D01*
X104238095Y-102300000D02*
X104142857Y-102252380D01*
X104000000Y-102252380D01*
X103857142Y-102300000D01*
X103761904Y-102395238D01*
X103714285Y-102490476D01*
X103666666Y-102680952D01*
X103666666Y-102823809D01*
X103714285Y-103014285D01*
X103761904Y-103109523D01*
X103857142Y-103204761D01*
X104000000Y-103252380D01*
X104095238Y-103252380D01*
X104238095Y-103204761D01*
X104285714Y-103157142D01*
X104285714Y-102823809D01*
X104095238Y-102823809D01*
X104714285Y-103252380D02*
X104714285Y-102252380D01*
X105285714Y-103252380D01*
X105285714Y-102252380D01*
X105761904Y-103252380D02*
X105761904Y-102252380D01*
X106000000Y-102252380D01*
X106142857Y-102300000D01*
X106238095Y-102395238D01*
X106285714Y-102490476D01*
X106333333Y-102680952D01*
X106333333Y-102823809D01*
X106285714Y-103014285D01*
X106238095Y-103109523D01*
X106142857Y-103204761D01*
X106000000Y-103252380D01*
X105761904Y-103252380D01*
X177995095Y-72466000D02*
X177899857Y-72418380D01*
X177757000Y-72418380D01*
X177614142Y-72466000D01*
X177518904Y-72561238D01*
X177471285Y-72656476D01*
X177423666Y-72846952D01*
X177423666Y-72989809D01*
X177471285Y-73180285D01*
X177518904Y-73275523D01*
X177614142Y-73370761D01*
X177757000Y-73418380D01*
X177852238Y-73418380D01*
X177995095Y-73370761D01*
X178042714Y-73323142D01*
X178042714Y-72989809D01*
X177852238Y-72989809D01*
X178471285Y-73418380D02*
X178471285Y-72418380D01*
X179042714Y-73418380D01*
X179042714Y-72418380D01*
X179518904Y-73418380D02*
X179518904Y-72418380D01*
X179757000Y-72418380D01*
X179899857Y-72466000D01*
X179995095Y-72561238D01*
X180042714Y-72656476D01*
X180090333Y-72846952D01*
X180090333Y-72989809D01*
X180042714Y-73180285D01*
X179995095Y-73275523D01*
X179899857Y-73370761D01*
X179757000Y-73418380D01*
X179518904Y-73418380D01*
X160261428Y-115218571D02*
X160404285Y-115266190D01*
X160451904Y-115313809D01*
X160499523Y-115409047D01*
X160499523Y-115551904D01*
X160451904Y-115647142D01*
X160404285Y-115694761D01*
X160309047Y-115742380D01*
X159928095Y-115742380D01*
X159928095Y-114742380D01*
X160261428Y-114742380D01*
X160356666Y-114790000D01*
X160404285Y-114837619D01*
X160451904Y-114932857D01*
X160451904Y-115028095D01*
X160404285Y-115123333D01*
X160356666Y-115170952D01*
X160261428Y-115218571D01*
X159928095Y-115218571D01*
X177369095Y-77498380D02*
X177940523Y-77498380D01*
X177654809Y-78498380D02*
X177654809Y-77498380D01*
X178178619Y-77498380D02*
X178845285Y-78498380D01*
X178845285Y-77498380D02*
X178178619Y-78498380D01*
X179226238Y-78498380D02*
X179226238Y-77498380D01*
X179464333Y-77498380D01*
X179607190Y-77546000D01*
X179702428Y-77641238D01*
X179750047Y-77736476D01*
X179797666Y-77926952D01*
X179797666Y-78069809D01*
X179750047Y-78260285D01*
X179702428Y-78355523D01*
X179607190Y-78450761D01*
X179464333Y-78498380D01*
X179226238Y-78498380D01*
X169161904Y-114700000D02*
X169066666Y-114652380D01*
X168923809Y-114652380D01*
X168780952Y-114700000D01*
X168685714Y-114795238D01*
X168638095Y-114890476D01*
X168590476Y-115080952D01*
X168590476Y-115223809D01*
X168638095Y-115414285D01*
X168685714Y-115509523D01*
X168780952Y-115604761D01*
X168923809Y-115652380D01*
X169019047Y-115652380D01*
X169161904Y-115604761D01*
X169209523Y-115557142D01*
X169209523Y-115223809D01*
X169019047Y-115223809D01*
X164309523Y-115652380D02*
X163976190Y-115176190D01*
X163738095Y-115652380D02*
X163738095Y-114652380D01*
X164119047Y-114652380D01*
X164214285Y-114700000D01*
X164261904Y-114747619D01*
X164309523Y-114842857D01*
X164309523Y-114985714D01*
X164261904Y-115080952D01*
X164214285Y-115128571D01*
X164119047Y-115176190D01*
X163738095Y-115176190D01*
X151438095Y-68700000D02*
X151342857Y-68652380D01*
X151200000Y-68652380D01*
X151057142Y-68700000D01*
X150961904Y-68795238D01*
X150914285Y-68890476D01*
X150866666Y-69080952D01*
X150866666Y-69223809D01*
X150914285Y-69414285D01*
X150961904Y-69509523D01*
X151057142Y-69604761D01*
X151200000Y-69652380D01*
X151295238Y-69652380D01*
X151438095Y-69604761D01*
X151485714Y-69557142D01*
X151485714Y-69223809D01*
X151295238Y-69223809D01*
X151914285Y-69652380D02*
X151914285Y-68652380D01*
X152485714Y-69652380D01*
X152485714Y-68652380D01*
X152961904Y-69652380D02*
X152961904Y-68652380D01*
X153200000Y-68652380D01*
X153342857Y-68700000D01*
X153438095Y-68795238D01*
X153485714Y-68890476D01*
X153533333Y-69080952D01*
X153533333Y-69223809D01*
X153485714Y-69414285D01*
X153438095Y-69509523D01*
X153342857Y-69604761D01*
X153200000Y-69652380D01*
X152961904Y-69652380D01*
X171450095Y-106688000D02*
X171354857Y-106640380D01*
X171212000Y-106640380D01*
X171069142Y-106688000D01*
X170973904Y-106783238D01*
X170926285Y-106878476D01*
X170878666Y-107068952D01*
X170878666Y-107211809D01*
X170926285Y-107402285D01*
X170973904Y-107497523D01*
X171069142Y-107592761D01*
X171212000Y-107640380D01*
X171307238Y-107640380D01*
X171450095Y-107592761D01*
X171497714Y-107545142D01*
X171497714Y-107211809D01*
X171307238Y-107211809D01*
X171926285Y-107640380D02*
X171926285Y-106640380D01*
X172497714Y-107640380D01*
X172497714Y-106640380D01*
X172973904Y-107640380D02*
X172973904Y-106640380D01*
X173212000Y-106640380D01*
X173354857Y-106688000D01*
X173450095Y-106783238D01*
X173497714Y-106878476D01*
X173545333Y-107068952D01*
X173545333Y-107211809D01*
X173497714Y-107402285D01*
X173450095Y-107497523D01*
X173354857Y-107592761D01*
X173212000Y-107640380D01*
X172973904Y-107640380D01*
X104238095Y-89900000D02*
X104142857Y-89852380D01*
X104000000Y-89852380D01*
X103857142Y-89900000D01*
X103761904Y-89995238D01*
X103714285Y-90090476D01*
X103666666Y-90280952D01*
X103666666Y-90423809D01*
X103714285Y-90614285D01*
X103761904Y-90709523D01*
X103857142Y-90804761D01*
X104000000Y-90852380D01*
X104095238Y-90852380D01*
X104238095Y-90804761D01*
X104285714Y-90757142D01*
X104285714Y-90423809D01*
X104095238Y-90423809D01*
X104714285Y-90852380D02*
X104714285Y-89852380D01*
X105285714Y-90852380D01*
X105285714Y-89852380D01*
X105761904Y-90852380D02*
X105761904Y-89852380D01*
X106000000Y-89852380D01*
X106142857Y-89900000D01*
X106238095Y-89995238D01*
X106285714Y-90090476D01*
X106333333Y-90280952D01*
X106333333Y-90423809D01*
X106285714Y-90614285D01*
X106238095Y-90709523D01*
X106142857Y-90804761D01*
X106000000Y-90852380D01*
X105761904Y-90852380D01*
X126752380Y-63647619D02*
X126752380Y-64219047D01*
X126752380Y-63933333D02*
X125752380Y-63933333D01*
X125895238Y-64028571D01*
X125990476Y-64123809D01*
X126038095Y-64219047D01*
X125847619Y-63266666D02*
X125800000Y-63219047D01*
X125752380Y-63123809D01*
X125752380Y-62885714D01*
X125800000Y-62790476D01*
X125847619Y-62742857D01*
X125942857Y-62695238D01*
X126038095Y-62695238D01*
X126180952Y-62742857D01*
X126752380Y-63314285D01*
X126752380Y-62695238D01*
X125752380Y-62409523D02*
X126752380Y-62076190D01*
X125752380Y-61742857D01*
X126466666Y-61457142D02*
X126466666Y-60980952D01*
X126752380Y-61552380D02*
X125752380Y-61219047D01*
X126752380Y-60885714D01*
X126657142Y-59980952D02*
X126704761Y-60028571D01*
X126752380Y-60171428D01*
X126752380Y-60266666D01*
X126704761Y-60409523D01*
X126609523Y-60504761D01*
X126514285Y-60552380D01*
X126323809Y-60600000D01*
X126180952Y-60600000D01*
X125990476Y-60552380D01*
X125895238Y-60504761D01*
X125800000Y-60409523D01*
X125752380Y-60266666D01*
X125752380Y-60171428D01*
X125800000Y-60028571D01*
X125847619Y-59980952D01*
X152877072Y-80195347D02*
X153011759Y-80128003D01*
X153180118Y-79959644D01*
X153213790Y-79858629D01*
X153213790Y-79791286D01*
X153180118Y-79690270D01*
X153112774Y-79622927D01*
X153011759Y-79589255D01*
X152944416Y-79589255D01*
X152843400Y-79622927D01*
X152675042Y-79723942D01*
X152574026Y-79757614D01*
X152506683Y-79757614D01*
X152405668Y-79723942D01*
X152338324Y-79656599D01*
X152304652Y-79555583D01*
X152304652Y-79488240D01*
X152338324Y-79387225D01*
X152506683Y-79218866D01*
X152641370Y-79151522D01*
X153954568Y-79050507D02*
X153954568Y-79117851D01*
X153887225Y-79252538D01*
X153819881Y-79319881D01*
X153685194Y-79387225D01*
X153550507Y-79387225D01*
X153449492Y-79353553D01*
X153281133Y-79252538D01*
X153180118Y-79151522D01*
X153079103Y-78983164D01*
X153045431Y-78882148D01*
X153045431Y-78747461D01*
X153112774Y-78612774D01*
X153180118Y-78545431D01*
X153314805Y-78478087D01*
X153382148Y-78478087D01*
X154324957Y-78814805D02*
X153617851Y-78107698D01*
X154729018Y-78410744D02*
X154021912Y-78309729D01*
X154021912Y-77703637D02*
X154021912Y-78511759D01*
X141947619Y-75452380D02*
X141614285Y-74976190D01*
X141376190Y-75452380D02*
X141376190Y-74452380D01*
X141757142Y-74452380D01*
X141852380Y-74500000D01*
X141900000Y-74547619D01*
X141947619Y-74642857D01*
X141947619Y-74785714D01*
X141900000Y-74880952D01*
X141852380Y-74928571D01*
X141757142Y-74976190D01*
X141376190Y-74976190D01*
X142376190Y-74928571D02*
X142709523Y-74928571D01*
X142852380Y-75452380D02*
X142376190Y-75452380D01*
X142376190Y-74452380D01*
X142852380Y-74452380D01*
X143233333Y-75404761D02*
X143376190Y-75452380D01*
X143614285Y-75452380D01*
X143709523Y-75404761D01*
X143757142Y-75357142D01*
X143804761Y-75261904D01*
X143804761Y-75166666D01*
X143757142Y-75071428D01*
X143709523Y-75023809D01*
X143614285Y-74976190D01*
X143423809Y-74928571D01*
X143328571Y-74880952D01*
X143280952Y-74833333D01*
X143233333Y-74738095D01*
X143233333Y-74642857D01*
X143280952Y-74547619D01*
X143328571Y-74500000D01*
X143423809Y-74452380D01*
X143661904Y-74452380D01*
X143804761Y-74500000D01*
X144233333Y-74928571D02*
X144566666Y-74928571D01*
X144709523Y-75452380D02*
X144233333Y-75452380D01*
X144233333Y-74452380D01*
X144709523Y-74452380D01*
X144995238Y-74452380D02*
X145566666Y-74452380D01*
X145280952Y-75452380D02*
X145280952Y-74452380D01*
X103785714Y-110604761D02*
X103928571Y-110652380D01*
X104166666Y-110652380D01*
X104261904Y-110604761D01*
X104309523Y-110557142D01*
X104357142Y-110461904D01*
X104357142Y-110366666D01*
X104309523Y-110271428D01*
X104261904Y-110223809D01*
X104166666Y-110176190D01*
X103976190Y-110128571D01*
X103880952Y-110080952D01*
X103833333Y-110033333D01*
X103785714Y-109938095D01*
X103785714Y-109842857D01*
X103833333Y-109747619D01*
X103880952Y-109700000D01*
X103976190Y-109652380D01*
X104214285Y-109652380D01*
X104357142Y-109700000D01*
X104785714Y-110652380D02*
X104785714Y-109652380D01*
X105023809Y-109652380D01*
X105166666Y-109700000D01*
X105261904Y-109795238D01*
X105309523Y-109890476D01*
X105357142Y-110080952D01*
X105357142Y-110223809D01*
X105309523Y-110414285D01*
X105261904Y-110509523D01*
X105166666Y-110604761D01*
X105023809Y-110652380D01*
X104785714Y-110652380D01*
X105738095Y-110366666D02*
X106214285Y-110366666D01*
X105642857Y-110652380D02*
X105976190Y-109652380D01*
X106309523Y-110652380D01*
X177964333Y-75958380D02*
X177631000Y-75482190D01*
X177392904Y-75958380D02*
X177392904Y-74958380D01*
X177773857Y-74958380D01*
X177869095Y-75006000D01*
X177916714Y-75053619D01*
X177964333Y-75148857D01*
X177964333Y-75291714D01*
X177916714Y-75386952D01*
X177869095Y-75434571D01*
X177773857Y-75482190D01*
X177392904Y-75482190D01*
X178297666Y-74958380D02*
X178964333Y-75958380D01*
X178964333Y-74958380D02*
X178297666Y-75958380D01*
X179345285Y-75958380D02*
X179345285Y-74958380D01*
X179583380Y-74958380D01*
X179726238Y-75006000D01*
X179821476Y-75101238D01*
X179869095Y-75196476D01*
X179916714Y-75386952D01*
X179916714Y-75529809D01*
X179869095Y-75720285D01*
X179821476Y-75815523D01*
X179726238Y-75910761D01*
X179583380Y-75958380D01*
X179345285Y-75958380D01*
X111672666Y-83280095D02*
X111672666Y-82803904D01*
X111958380Y-83375333D02*
X110958380Y-83042000D01*
X111958380Y-82708666D01*
X111958380Y-82375333D02*
X110958380Y-82375333D01*
X110958380Y-82137238D01*
X111006000Y-81994380D01*
X111101238Y-81899142D01*
X111196476Y-81851523D01*
X111386952Y-81803904D01*
X111529809Y-81803904D01*
X111720285Y-81851523D01*
X111815523Y-81899142D01*
X111910761Y-81994380D01*
X111958380Y-82137238D01*
X111958380Y-82375333D01*
X111863142Y-80803904D02*
X111910761Y-80851523D01*
X111958380Y-80994380D01*
X111958380Y-81089619D01*
X111910761Y-81232476D01*
X111815523Y-81327714D01*
X111720285Y-81375333D01*
X111529809Y-81422952D01*
X111386952Y-81422952D01*
X111196476Y-81375333D01*
X111101238Y-81327714D01*
X111006000Y-81232476D01*
X110958380Y-81089619D01*
X110958380Y-80994380D01*
X111006000Y-80851523D01*
X111053619Y-80803904D01*
X172494333Y-75958380D02*
X172161000Y-75482190D01*
X171922904Y-75958380D02*
X171922904Y-74958380D01*
X172303857Y-74958380D01*
X172399095Y-75006000D01*
X172446714Y-75053619D01*
X172494333Y-75148857D01*
X172494333Y-75291714D01*
X172446714Y-75386952D01*
X172399095Y-75434571D01*
X172303857Y-75482190D01*
X171922904Y-75482190D01*
X172827666Y-74958380D02*
X173494333Y-75958380D01*
X173494333Y-74958380D02*
X172827666Y-75958380D01*
X153855194Y-89538301D02*
X153888866Y-89639316D01*
X153989881Y-89740331D01*
X154124568Y-89807675D01*
X154259255Y-89807675D01*
X154360270Y-89774003D01*
X154528629Y-89672988D01*
X154629644Y-89571973D01*
X154730660Y-89403614D01*
X154764331Y-89302599D01*
X154764331Y-89167912D01*
X154696988Y-89033225D01*
X154629644Y-88965881D01*
X154494957Y-88898538D01*
X154427614Y-88898538D01*
X154191912Y-89134240D01*
X154326599Y-89268927D01*
X154191912Y-88528148D02*
X153484805Y-89235255D01*
X153787851Y-88124087D01*
X153080744Y-88831194D01*
X153451133Y-87787370D02*
X152744026Y-88494477D01*
X152575668Y-88326118D01*
X152508324Y-88191431D01*
X152508324Y-88056744D01*
X152541996Y-87955729D01*
X152643011Y-87787370D01*
X152744026Y-87686355D01*
X152912385Y-87585339D01*
X153013400Y-87551668D01*
X153148087Y-87551668D01*
X153282774Y-87619011D01*
X153451133Y-87787370D01*
X157168183Y-99445763D02*
X157100839Y-99311076D01*
X156932480Y-99142717D01*
X156831465Y-99109045D01*
X156764122Y-99109045D01*
X156663106Y-99142717D01*
X156595763Y-99210061D01*
X156562091Y-99311076D01*
X156562091Y-99378419D01*
X156595763Y-99479435D01*
X156696778Y-99647793D01*
X156730450Y-99748809D01*
X156730450Y-99816152D01*
X156696778Y-99917167D01*
X156629435Y-99984511D01*
X156528419Y-100018183D01*
X156461076Y-100018183D01*
X156360061Y-99984511D01*
X156191702Y-99816152D01*
X156124358Y-99681465D01*
X156494748Y-98704984D02*
X155787641Y-99412091D01*
X155619282Y-99243732D01*
X155551938Y-99109045D01*
X155551938Y-98974358D01*
X155585610Y-98873343D01*
X155686625Y-98704984D01*
X155787641Y-98603969D01*
X155956000Y-98502954D01*
X156057015Y-98469282D01*
X156191702Y-98469282D01*
X156326389Y-98536625D01*
X156494748Y-98704984D01*
X154945847Y-98570297D02*
X154811160Y-98435610D01*
X154777488Y-98334595D01*
X154777488Y-98199908D01*
X154878503Y-98031549D01*
X155114206Y-97795847D01*
X155282564Y-97694832D01*
X155417251Y-97694832D01*
X155518267Y-97728503D01*
X155652954Y-97863190D01*
X155686625Y-97964206D01*
X155686625Y-98098893D01*
X155585610Y-98267251D01*
X155349908Y-98502954D01*
X155181549Y-98603969D01*
X155046862Y-98603969D01*
X154945847Y-98570297D01*
D12*
X167650047Y-77017428D02*
X168411952Y-77017428D01*
X168031000Y-77398380D02*
X168031000Y-76636476D01*
D11*
X153156152Y-91115732D02*
X153088809Y-90981045D01*
X152920450Y-90812687D01*
X152819435Y-90779015D01*
X152752091Y-90779015D01*
X152651076Y-90812687D01*
X152583732Y-90880030D01*
X152550061Y-90981045D01*
X152550061Y-91048389D01*
X152583732Y-91149404D01*
X152684748Y-91317763D01*
X152718419Y-91418778D01*
X152718419Y-91486122D01*
X152684748Y-91587137D01*
X152617404Y-91654480D01*
X152516389Y-91688152D01*
X152449045Y-91688152D01*
X152348030Y-91654480D01*
X152179671Y-91486122D01*
X152112328Y-91351435D01*
X152482717Y-90374954D02*
X151775610Y-91082061D01*
X151607251Y-90913702D01*
X151539908Y-90779015D01*
X151539908Y-90644328D01*
X151573580Y-90543312D01*
X151674595Y-90374954D01*
X151775610Y-90273938D01*
X151943969Y-90172923D01*
X152044984Y-90139251D01*
X152179671Y-90139251D01*
X152314358Y-90206595D01*
X152482717Y-90374954D01*
X151775610Y-89667847D02*
X151068503Y-90374954D01*
X172540523Y-71798380D02*
X172064333Y-71798380D01*
X172064333Y-70798380D01*
D12*
X167650047Y-72617428D02*
X168411952Y-72617428D01*
X168031000Y-72998380D02*
X168031000Y-72236476D01*
D11*
X176006285Y-107259428D02*
X176768190Y-107259428D01*
X176387238Y-107640380D02*
X176387238Y-106878476D01*
X177720571Y-106640380D02*
X177244380Y-106640380D01*
X177196761Y-107116571D01*
X177244380Y-107068952D01*
X177339619Y-107021333D01*
X177577714Y-107021333D01*
X177672952Y-107068952D01*
X177720571Y-107116571D01*
X177768190Y-107211809D01*
X177768190Y-107449904D01*
X177720571Y-107545142D01*
X177672952Y-107592761D01*
X177577714Y-107640380D01*
X177339619Y-107640380D01*
X177244380Y-107592761D01*
X177196761Y-107545142D01*
X178053904Y-106640380D02*
X178387238Y-107640380D01*
X178720571Y-106640380D01*
X111831380Y-106767190D02*
X110831380Y-106767190D01*
X110926619Y-106338619D02*
X110879000Y-106291000D01*
X110831380Y-106195761D01*
X110831380Y-105957666D01*
X110879000Y-105862428D01*
X110926619Y-105814809D01*
X111021857Y-105767190D01*
X111117095Y-105767190D01*
X111259952Y-105814809D01*
X111831380Y-106386238D01*
X111831380Y-105767190D01*
X111736142Y-104767190D02*
X111783761Y-104814809D01*
X111831380Y-104957666D01*
X111831380Y-105052904D01*
X111783761Y-105195761D01*
X111688523Y-105291000D01*
X111593285Y-105338619D01*
X111402809Y-105386238D01*
X111259952Y-105386238D01*
X111069476Y-105338619D01*
X110974238Y-105291000D01*
X110879000Y-105195761D01*
X110831380Y-105052904D01*
X110831380Y-104957666D01*
X110879000Y-104814809D01*
X110926619Y-104767190D01*
D12*
X167650047Y-74917428D02*
X168411952Y-74917428D01*
X168031000Y-75298380D02*
X168031000Y-74536476D01*
D11*
X174113761Y-69624380D02*
X174113761Y-70433904D01*
X174161380Y-70529142D01*
X174209000Y-70576761D01*
X174304238Y-70624380D01*
X174494714Y-70624380D01*
X174589952Y-70576761D01*
X174637571Y-70529142D01*
X174685190Y-70433904D01*
X174685190Y-69624380D01*
X175113761Y-70338666D02*
X175589952Y-70338666D01*
X175018523Y-70624380D02*
X175351857Y-69624380D01*
X175685190Y-70624380D01*
X176589952Y-70624380D02*
X176256619Y-70148190D01*
X176018523Y-70624380D02*
X176018523Y-69624380D01*
X176399476Y-69624380D01*
X176494714Y-69672000D01*
X176542333Y-69719619D01*
X176589952Y-69814857D01*
X176589952Y-69957714D01*
X176542333Y-70052952D01*
X176494714Y-70100571D01*
X176399476Y-70148190D01*
X176018523Y-70148190D01*
X176875666Y-69624380D02*
X177447095Y-69624380D01*
X177161380Y-70624380D02*
X177161380Y-69624380D01*
X159359015Y-93695251D02*
X159258000Y-94267671D01*
X159763076Y-94099312D02*
X159055969Y-94806419D01*
X158786595Y-94537045D01*
X158752923Y-94436030D01*
X158752923Y-94368687D01*
X158786595Y-94267671D01*
X158887610Y-94166656D01*
X158988625Y-94132984D01*
X159055969Y-94132984D01*
X159156984Y-94166656D01*
X159426358Y-94436030D01*
X104061904Y-95852380D02*
X104061904Y-94852380D01*
X104300000Y-94852380D01*
X104442857Y-94900000D01*
X104538095Y-94995238D01*
X104585714Y-95090476D01*
X104633333Y-95280952D01*
X104633333Y-95423809D01*
X104585714Y-95614285D01*
X104538095Y-95709523D01*
X104442857Y-95804761D01*
X104300000Y-95852380D01*
X104061904Y-95852380D01*
X105109523Y-95852380D02*
X105300000Y-95852380D01*
X105395238Y-95804761D01*
X105442857Y-95757142D01*
X105538095Y-95614285D01*
X105585714Y-95423809D01*
X105585714Y-95042857D01*
X105538095Y-94947619D01*
X105490476Y-94900000D01*
X105395238Y-94852380D01*
X105204761Y-94852380D01*
X105109523Y-94900000D01*
X105061904Y-94947619D01*
X105014285Y-95042857D01*
X105014285Y-95280952D01*
X105061904Y-95376190D01*
X105109523Y-95423809D01*
X105204761Y-95471428D01*
X105395238Y-95471428D01*
X105490476Y-95423809D01*
X105538095Y-95376190D01*
X105585714Y-95280952D01*
X104061904Y-98452380D02*
X104061904Y-97452380D01*
X104300000Y-97452380D01*
X104442857Y-97500000D01*
X104538095Y-97595238D01*
X104585714Y-97690476D01*
X104633333Y-97880952D01*
X104633333Y-98023809D01*
X104585714Y-98214285D01*
X104538095Y-98309523D01*
X104442857Y-98404761D01*
X104300000Y-98452380D01*
X104061904Y-98452380D01*
X105204761Y-97880952D02*
X105109523Y-97833333D01*
X105061904Y-97785714D01*
X105014285Y-97690476D01*
X105014285Y-97642857D01*
X105061904Y-97547619D01*
X105109523Y-97500000D01*
X105204761Y-97452380D01*
X105395238Y-97452380D01*
X105490476Y-97500000D01*
X105538095Y-97547619D01*
X105585714Y-97642857D01*
X105585714Y-97690476D01*
X105538095Y-97785714D01*
X105490476Y-97833333D01*
X105395238Y-97880952D01*
X105204761Y-97880952D01*
X105109523Y-97928571D01*
X105061904Y-97976190D01*
X105014285Y-98071428D01*
X105014285Y-98261904D01*
X105061904Y-98357142D01*
X105109523Y-98404761D01*
X105204761Y-98452380D01*
X105395238Y-98452380D01*
X105490476Y-98404761D01*
X105538095Y-98357142D01*
X105585714Y-98261904D01*
X105585714Y-98071428D01*
X105538095Y-97976190D01*
X105490476Y-97928571D01*
X105395238Y-97880952D01*
X159183347Y-97396927D02*
X159116003Y-97262240D01*
X158947644Y-97093881D01*
X158846629Y-97060209D01*
X158779286Y-97060209D01*
X158678270Y-97093881D01*
X158610927Y-97161225D01*
X158577255Y-97262240D01*
X158577255Y-97329583D01*
X158610927Y-97430599D01*
X158711942Y-97598957D01*
X158745614Y-97699973D01*
X158745614Y-97767316D01*
X158711942Y-97868331D01*
X158644599Y-97935675D01*
X158543583Y-97969347D01*
X158476240Y-97969347D01*
X158375225Y-97935675D01*
X158206866Y-97767316D01*
X158139522Y-97632629D01*
X158038507Y-96319431D02*
X158105851Y-96319431D01*
X158240538Y-96386774D01*
X158307881Y-96454118D01*
X158375225Y-96588805D01*
X158375225Y-96723492D01*
X158341553Y-96824507D01*
X158240538Y-96992866D01*
X158139522Y-97093881D01*
X157971164Y-97194896D01*
X157870148Y-97228568D01*
X157735461Y-97228568D01*
X157600774Y-97161225D01*
X157533431Y-97093881D01*
X157466087Y-96959194D01*
X157466087Y-96891851D01*
X157802805Y-95949042D02*
X157095698Y-96656148D01*
X157398744Y-95544981D02*
X157297729Y-96252087D01*
X156691637Y-96252087D02*
X157499759Y-96252087D01*
X103514285Y-105271428D02*
X104276190Y-105271428D01*
X103895238Y-105652380D02*
X103895238Y-104890476D01*
X105228571Y-104652380D02*
X104752380Y-104652380D01*
X104704761Y-105128571D01*
X104752380Y-105080952D01*
X104847619Y-105033333D01*
X105085714Y-105033333D01*
X105180952Y-105080952D01*
X105228571Y-105128571D01*
X105276190Y-105223809D01*
X105276190Y-105461904D01*
X105228571Y-105557142D01*
X105180952Y-105604761D01*
X105085714Y-105652380D01*
X104847619Y-105652380D01*
X104752380Y-105604761D01*
X104704761Y-105557142D01*
X105561904Y-104652380D02*
X105895238Y-105652380D01*
X106228571Y-104652380D01*
D12*
X130937047Y-72715428D02*
X131698952Y-72715428D01*
X131318000Y-73096380D02*
X131318000Y-72334476D01*
D11*
X110266666Y-75252380D02*
X110600000Y-76252380D01*
X110933333Y-75252380D01*
X171633047Y-114482571D02*
X171966380Y-114482571D01*
X172109238Y-115006380D02*
X171633047Y-115006380D01*
X171633047Y-114006380D01*
X172109238Y-114006380D01*
X172490190Y-114720666D02*
X172966380Y-114720666D01*
X172394952Y-115006380D02*
X172728285Y-114006380D01*
X173061619Y-115006380D01*
X173966380Y-115006380D02*
X173633047Y-114530190D01*
X173394952Y-115006380D02*
X173394952Y-114006380D01*
X173775904Y-114006380D01*
X173871142Y-114054000D01*
X173918761Y-114101619D01*
X173966380Y-114196857D01*
X173966380Y-114339714D01*
X173918761Y-114434952D01*
X173871142Y-114482571D01*
X173775904Y-114530190D01*
X173394952Y-114530190D01*
X174252095Y-114006380D02*
X174823523Y-114006380D01*
X174537809Y-115006380D02*
X174537809Y-114006380D01*
X175156857Y-115006380D02*
X175156857Y-114006380D01*
X175156857Y-114482571D02*
X175728285Y-114482571D01*
X175728285Y-115006380D02*
X175728285Y-114006380D01*
X175966380Y-115101619D02*
X176728285Y-115101619D01*
X177252095Y-114006380D02*
X177252095Y-114720666D01*
X177204476Y-114863523D01*
X177109238Y-114958761D01*
X176966380Y-115006380D01*
X176871142Y-115006380D01*
X177728285Y-115006380D02*
X177728285Y-114006380D01*
X178061619Y-114720666D01*
X178394952Y-114006380D01*
X178394952Y-115006380D01*
X178871142Y-115006380D02*
X178871142Y-114006380D01*
X179252095Y-114006380D01*
X179347333Y-114054000D01*
X179394952Y-114101619D01*
X179442571Y-114196857D01*
X179442571Y-114339714D01*
X179394952Y-114434952D01*
X179347333Y-114482571D01*
X179252095Y-114530190D01*
X178871142Y-114530190D01*
X154360236Y-81712183D02*
X154494923Y-81644839D01*
X154663282Y-81476480D01*
X154696954Y-81375465D01*
X154696954Y-81308122D01*
X154663282Y-81207106D01*
X154595938Y-81139763D01*
X154494923Y-81106091D01*
X154427580Y-81106091D01*
X154326564Y-81139763D01*
X154158206Y-81240778D01*
X154057190Y-81274450D01*
X153989847Y-81274450D01*
X153888832Y-81240778D01*
X153821488Y-81173435D01*
X153787816Y-81072419D01*
X153787816Y-81005076D01*
X153821488Y-80904061D01*
X153989847Y-80735702D01*
X154124534Y-80668358D01*
X155101015Y-81038748D02*
X154393908Y-80331641D01*
X154562267Y-80163282D01*
X154696954Y-80095938D01*
X154831641Y-80095938D01*
X154932656Y-80129610D01*
X155101015Y-80230625D01*
X155202030Y-80331641D01*
X155303045Y-80500000D01*
X155336717Y-80601015D01*
X155336717Y-80735702D01*
X155269374Y-80870389D01*
X155101015Y-81038748D01*
X155235702Y-79489847D02*
X155370389Y-79355160D01*
X155471404Y-79321488D01*
X155606091Y-79321488D01*
X155774450Y-79422503D01*
X156010152Y-79658206D01*
X156111167Y-79826564D01*
X156111167Y-79961251D01*
X156077496Y-80062267D01*
X155942809Y-80196954D01*
X155841793Y-80230625D01*
X155707106Y-80230625D01*
X155538748Y-80129610D01*
X155303045Y-79893908D01*
X155202030Y-79725549D01*
X155202030Y-79590862D01*
X155235702Y-79489847D01*
X104285714Y-83566666D02*
X104761904Y-83566666D01*
X104190476Y-83852380D02*
X104523809Y-82852380D01*
X104857142Y-83852380D01*
X105619047Y-82852380D02*
X105428571Y-82852380D01*
X105333333Y-82900000D01*
X105285714Y-82947619D01*
X105190476Y-83090476D01*
X105142857Y-83280952D01*
X105142857Y-83661904D01*
X105190476Y-83757142D01*
X105238095Y-83804761D01*
X105333333Y-83852380D01*
X105523809Y-83852380D01*
X105619047Y-83804761D01*
X105666666Y-83757142D01*
X105714285Y-83661904D01*
X105714285Y-83423809D01*
X105666666Y-83328571D01*
X105619047Y-83280952D01*
X105523809Y-83233333D01*
X105333333Y-83233333D01*
X105238095Y-83280952D01*
X105190476Y-83328571D01*
X105142857Y-83423809D01*
X158634687Y-84870389D02*
X158634687Y-84937732D01*
X158567343Y-85072419D01*
X158500000Y-85139763D01*
X158365312Y-85207106D01*
X158230625Y-85207106D01*
X158129610Y-85173435D01*
X157961251Y-85072419D01*
X157860236Y-84971404D01*
X157759221Y-84803045D01*
X157725549Y-84702030D01*
X157725549Y-84567343D01*
X157792893Y-84432656D01*
X157860236Y-84365312D01*
X157994923Y-84297969D01*
X158062267Y-84297969D01*
X158937732Y-84634687D02*
X159072419Y-84567343D01*
X159240778Y-84398984D01*
X159274450Y-84297969D01*
X159274450Y-84230625D01*
X159240778Y-84129610D01*
X159173435Y-84062267D01*
X159072419Y-84028595D01*
X159005076Y-84028595D01*
X158904061Y-84062267D01*
X158735702Y-84163282D01*
X158634687Y-84196954D01*
X158567343Y-84196954D01*
X158466328Y-84163282D01*
X158398984Y-84095938D01*
X158365312Y-83994923D01*
X158365312Y-83927580D01*
X158398984Y-83826564D01*
X158567343Y-83658206D01*
X158702030Y-83590862D01*
X156062267Y-83510152D02*
X156196954Y-83442809D01*
X156365312Y-83274450D01*
X156398984Y-83173435D01*
X156398984Y-83106091D01*
X156365312Y-83005076D01*
X156297969Y-82937732D01*
X156196954Y-82904061D01*
X156129610Y-82904061D01*
X156028595Y-82937732D01*
X155860236Y-83038748D01*
X155759221Y-83072419D01*
X155691877Y-83072419D01*
X155590862Y-83038748D01*
X155523519Y-82971404D01*
X155489847Y-82870389D01*
X155489847Y-82803045D01*
X155523519Y-82702030D01*
X155691877Y-82533671D01*
X155826564Y-82466328D01*
X156803045Y-82836717D02*
X156095938Y-82129610D01*
X156264297Y-81961251D01*
X156398984Y-81893908D01*
X156533671Y-81893908D01*
X156634687Y-81927580D01*
X156803045Y-82028595D01*
X156904061Y-82129610D01*
X157005076Y-82297969D01*
X157038748Y-82398984D01*
X157038748Y-82533671D01*
X156971404Y-82668358D01*
X156803045Y-82836717D01*
X157510152Y-82129610D02*
X156803045Y-81422503D01*
%TO.C,BR1*%
X119592857Y-65828571D02*
X119545238Y-65876190D01*
X119450000Y-65923809D01*
X119259523Y-65828571D01*
X119164285Y-65876190D01*
X119116666Y-65923809D01*
X124592857Y-66028571D02*
X124545238Y-66076190D01*
X124450000Y-66123809D01*
X124259523Y-66028571D01*
X124164285Y-66076190D01*
X124116666Y-66123809D01*
X119730952Y-70628571D02*
X118969047Y-70628571D01*
X119350000Y-70247619D02*
X119350000Y-71009523D01*
X124730952Y-70828571D02*
X123969047Y-70828571D01*
%TO.C,D3*%
X123318095Y-112752380D02*
X123318095Y-111752380D01*
X123889523Y-112752380D02*
X123460952Y-112180952D01*
X123889523Y-111752380D02*
X123318095Y-112323809D01*
%TO.C,BR2*%
X115019047Y-116671428D02*
X115780952Y-116671428D01*
X115157142Y-121471428D02*
X115204761Y-121423809D01*
X115300000Y-121376190D01*
X115490476Y-121471428D01*
X115585714Y-121423809D01*
X115633333Y-121376190D01*
X120019047Y-116871428D02*
X120780952Y-116871428D01*
X120400000Y-117252380D02*
X120400000Y-116490476D01*
X120157142Y-121671428D02*
X120204761Y-121623809D01*
X120300000Y-121576190D01*
X120490476Y-121671428D01*
X120585714Y-121623809D01*
X120633333Y-121576190D01*
D13*
%TO.C,R11*%
X121893064Y-89635000D02*
X121438936Y-89635000D01*
X121893064Y-88165000D02*
X121438936Y-88165000D01*
%TO.C,R42*%
X117772936Y-107235000D02*
X118227064Y-107235000D01*
X117772936Y-105765000D02*
X118227064Y-105765000D01*
%TO.C,U4*%
X144010000Y-62190000D02*
X142750000Y-62190000D01*
X144010000Y-65950000D02*
X144010000Y-62190000D01*
X137190000Y-68200000D02*
X137190000Y-62190000D01*
X137190000Y-62190000D02*
X138450000Y-62190000D01*
%TO.C,Q4*%
X172325782Y-95337436D02*
X172975782Y-95337436D01*
X172325782Y-98457436D02*
X174000782Y-98457436D01*
X172325782Y-95337436D02*
X171675782Y-95337436D01*
X172325782Y-98457436D02*
X171675782Y-98457436D01*
%TO.C,R23*%
X170025207Y-100641564D02*
X170025207Y-100187436D01*
X168555207Y-100641564D02*
X168555207Y-100187436D01*
%TO.C,C7*%
X133660000Y-74394000D02*
G75*
G03*
X133660000Y-74394000I-4120000J0D01*
G01*
%TO.C,C4*%
X139311252Y-69415000D02*
X138788748Y-69415000D01*
X139311252Y-70885000D02*
X138788748Y-70885000D01*
%TO.C,C20*%
X137380000Y-128256000D02*
X137380000Y-129620000D01*
X137380000Y-124380000D02*
X137380000Y-125744000D01*
X137380000Y-129620000D02*
X146620000Y-129620000D01*
X137380000Y-124380000D02*
X146620000Y-124380000D01*
X146620000Y-124380000D02*
X146620000Y-125744000D01*
X146620000Y-128256000D02*
X146620000Y-129620000D01*
%TO.C,Q5*%
X172289000Y-84708418D02*
X171639000Y-84708418D01*
X172289000Y-87828418D02*
X173964000Y-87828418D01*
X172289000Y-84708418D02*
X172939000Y-84708418D01*
X172289000Y-87828418D02*
X171639000Y-87828418D01*
%TO.C,J4*%
X174401000Y-76776000D02*
X174401000Y-71636000D01*
X177061000Y-78046000D02*
X177061000Y-79376000D01*
X177061000Y-79376000D02*
X175731000Y-79376000D01*
X177061000Y-71636000D02*
X174401000Y-71636000D01*
X177061000Y-76776000D02*
X174401000Y-76776000D01*
X177061000Y-76776000D02*
X177061000Y-71636000D01*
%TO.C,R37*%
X165755543Y-77411000D02*
X166209671Y-77411000D01*
X165755543Y-78881000D02*
X166209671Y-78881000D01*
%TO.C,R41*%
X120735000Y-103260436D02*
X120735000Y-103714564D01*
X119265000Y-103260436D02*
X119265000Y-103714564D01*
%TO.C,R40*%
X121772936Y-107235000D02*
X122227064Y-107235000D01*
X121772936Y-105765000D02*
X122227064Y-105765000D01*
%TO.C,kibuzzard-619F1F60*%
G36*
X126367117Y-91440000D02*
G01*
X126797153Y-92085054D01*
X124154847Y-92085054D01*
X124256800Y-91932125D01*
X124717175Y-91932125D01*
X124920375Y-91932125D01*
X124964825Y-91705113D01*
X125226762Y-91705113D01*
X125272800Y-91932125D01*
X125482350Y-91932125D01*
X125456156Y-91820714D01*
X125429645Y-91712542D01*
X125402816Y-91607608D01*
X125375670Y-91505913D01*
X125356841Y-91438412D01*
X125552200Y-91438412D01*
X125557657Y-91560253D01*
X125574028Y-91665425D01*
X125601313Y-91753928D01*
X125639513Y-91825763D01*
X125706540Y-91896318D01*
X125791207Y-91938651D01*
X125893513Y-91952763D01*
X125995818Y-91938651D01*
X126080485Y-91896318D01*
X126147513Y-91825763D01*
X126185712Y-91753928D01*
X126212997Y-91665425D01*
X126229368Y-91560253D01*
X126234825Y-91438412D01*
X126229368Y-91317316D01*
X126212997Y-91212789D01*
X126185712Y-91124832D01*
X126147513Y-91053444D01*
X126080485Y-90983329D01*
X125995818Y-90941260D01*
X125893513Y-90927237D01*
X125792794Y-90941349D01*
X125708657Y-90983682D01*
X125641100Y-91054237D01*
X125602206Y-91125873D01*
X125574425Y-91213781D01*
X125557756Y-91317961D01*
X125552200Y-91438412D01*
X125356841Y-91438412D01*
X125348206Y-91407456D01*
X125313629Y-91288046D01*
X125278952Y-91171911D01*
X125244175Y-91059050D01*
X125209300Y-90949462D01*
X124996575Y-90949462D01*
X124962940Y-91058157D01*
X124928709Y-91169927D01*
X124893884Y-91284772D01*
X124858462Y-91402694D01*
X124829951Y-91500325D01*
X124801566Y-91602084D01*
X124773309Y-91707970D01*
X124745178Y-91817984D01*
X124717175Y-91932125D01*
X124256800Y-91932125D01*
X124584883Y-91440000D01*
X124154847Y-90794946D01*
X126797153Y-90794946D01*
X126367117Y-91440000D01*
G37*
G36*
X126053938Y-91542570D02*
G01*
X126039915Y-91628560D01*
X126016544Y-91696381D01*
X125964752Y-91762461D01*
X125893513Y-91784488D01*
X125823266Y-91762461D01*
X125771275Y-91696381D01*
X125747463Y-91628560D01*
X125733175Y-91542570D01*
X125728412Y-91438412D01*
X125729144Y-91422537D01*
X125806200Y-91422537D01*
X125830013Y-91496356D01*
X125895100Y-91527313D01*
X125957806Y-91496356D01*
X125982413Y-91422537D01*
X125957806Y-91347925D01*
X125895100Y-91316175D01*
X125830013Y-91347925D01*
X125806200Y-91422537D01*
X125729144Y-91422537D01*
X125733175Y-91335137D01*
X125747463Y-91249676D01*
X125771275Y-91182031D01*
X125823266Y-91115952D01*
X125893513Y-91093925D01*
X125964752Y-91115952D01*
X126016544Y-91182031D01*
X126039915Y-91249676D01*
X126053938Y-91335137D01*
X126058613Y-91438412D01*
X126053938Y-91542570D01*
G37*
G36*
X125127544Y-91245531D02*
G01*
X125152944Y-91343956D01*
X125174375Y-91441588D01*
X125193425Y-91543188D01*
X125001337Y-91543188D01*
X125021181Y-91441588D01*
X125043406Y-91343956D01*
X125068806Y-91245531D01*
X125098175Y-91139962D01*
X125127544Y-91245531D01*
G37*
%TO.C,JP2*%
X115740000Y-92940000D02*
X115440000Y-92640000D01*
X114090000Y-90440000D02*
X119590000Y-90440000D01*
X119590000Y-92390000D02*
X114090000Y-92390000D01*
X115140000Y-92940000D02*
X115740000Y-92940000D01*
X119590000Y-90440000D02*
X119590000Y-92390000D01*
X115440000Y-92640000D02*
X115140000Y-92940000D01*
X114090000Y-92390000D02*
X114090000Y-90440000D01*
%TO.C,C1*%
X149935000Y-68938748D02*
X149935000Y-69461252D01*
X148465000Y-68938748D02*
X148465000Y-69461252D01*
%TO.C,kibuzzard-6198C8F1*%
G36*
X159875185Y-95504000D02*
G01*
X160290933Y-94880377D01*
X163212815Y-94880377D01*
X162797067Y-95504000D01*
X163212815Y-96127623D01*
X160290933Y-96127623D01*
X160202738Y-95995331D01*
X160423225Y-95995331D01*
X160618487Y-95995331D01*
X161229675Y-95995331D01*
X161847213Y-95995331D01*
X161847213Y-95833406D01*
X161426525Y-95833406D01*
X161426525Y-95174594D01*
X161950400Y-95174594D01*
X162209163Y-95174594D01*
X162209163Y-95995331D01*
X162406013Y-95995331D01*
X162406013Y-95174594D01*
X162664775Y-95174594D01*
X162664775Y-95012669D01*
X161950400Y-95012669D01*
X161950400Y-95174594D01*
X161426525Y-95174594D01*
X161426525Y-95012669D01*
X161229675Y-95012669D01*
X161229675Y-95995331D01*
X160618487Y-95995331D01*
X160618487Y-95574644D01*
X160974087Y-95574644D01*
X160974087Y-95412719D01*
X160618487Y-95412719D01*
X160618487Y-95174594D01*
X161024887Y-95174594D01*
X161024887Y-95012669D01*
X160423225Y-95012669D01*
X160423225Y-95995331D01*
X160202738Y-95995331D01*
X159875185Y-95504000D01*
G37*
%TO.C,U3*%
X146440000Y-64750000D02*
X146440000Y-65550000D01*
X146440000Y-64750000D02*
X146440000Y-63950000D01*
X149560000Y-64750000D02*
X149560000Y-62950000D01*
X149560000Y-64750000D02*
X149560000Y-65550000D01*
%TO.C,kibuzzard-619F1F9A*%
G36*
X125129925Y-86175850D02*
G01*
X125155325Y-86274275D01*
X125176756Y-86371906D01*
X125195806Y-86473506D01*
X125003719Y-86473506D01*
X125023562Y-86371906D01*
X125045787Y-86274275D01*
X125071187Y-86175850D01*
X125100556Y-86070281D01*
X125129925Y-86175850D01*
G37*
G36*
X126364735Y-86360000D02*
G01*
X126787892Y-86994735D01*
X124164108Y-86994735D01*
X124252302Y-86862444D01*
X124719556Y-86862444D01*
X124922756Y-86862444D01*
X124967206Y-86635431D01*
X125229144Y-86635431D01*
X125275181Y-86862444D01*
X125484731Y-86862444D01*
X125458537Y-86751033D01*
X125432026Y-86642861D01*
X125405197Y-86537927D01*
X125378051Y-86436232D01*
X125350587Y-86337775D01*
X125316010Y-86218365D01*
X125281333Y-86102230D01*
X125246557Y-85989368D01*
X125246036Y-85987731D01*
X125567281Y-85987731D01*
X125664119Y-86124256D01*
X125764131Y-86049644D01*
X125860969Y-86027419D01*
X125953044Y-86059962D01*
X125989556Y-86152831D01*
X125960188Y-86236969D01*
X125885575Y-86322694D01*
X125838744Y-86368136D01*
X125788738Y-86415563D01*
X125738731Y-86465966D01*
X125691900Y-86520338D01*
X125650625Y-86579273D01*
X125617288Y-86643369D01*
X125595261Y-86713219D01*
X125587919Y-86789419D01*
X125587125Y-86822756D01*
X125591094Y-86862444D01*
X126232444Y-86862444D01*
X126232444Y-86700519D01*
X125810169Y-86700519D01*
X125826838Y-86648131D01*
X125867319Y-86591775D01*
X125918119Y-86537800D01*
X125965744Y-86492556D01*
X126046706Y-86413181D01*
X126118144Y-86327456D01*
X126168944Y-86236175D01*
X126187994Y-86138544D01*
X126162594Y-86015512D01*
X126094331Y-85927406D01*
X125995906Y-85875019D01*
X125880019Y-85857556D01*
X125797270Y-85865494D01*
X125714125Y-85889306D01*
X125635742Y-85929787D01*
X125567281Y-85987731D01*
X125246036Y-85987731D01*
X125211681Y-85879781D01*
X124998956Y-85879781D01*
X124965321Y-85988475D01*
X124931091Y-86100245D01*
X124896265Y-86215091D01*
X124860844Y-86333012D01*
X124832332Y-86430644D01*
X124803948Y-86532403D01*
X124775690Y-86638289D01*
X124747560Y-86748303D01*
X124719556Y-86862444D01*
X124252302Y-86862444D01*
X124587265Y-86360000D01*
X124164108Y-85725265D01*
X126787892Y-85725265D01*
X126364735Y-86360000D01*
G37*
%TO.C,J5*%
X176022000Y-108144000D02*
X176022000Y-110804000D01*
X170882000Y-108144000D02*
X170882000Y-110804000D01*
X176022000Y-108144000D02*
X170882000Y-108144000D01*
X176022000Y-110804000D02*
X170882000Y-110804000D01*
X178622000Y-108144000D02*
X178622000Y-109474000D01*
X177292000Y-108144000D02*
X178622000Y-108144000D01*
%TO.C,R34*%
X150914564Y-109065000D02*
X150460436Y-109065000D01*
X150914564Y-110535000D02*
X150460436Y-110535000D01*
%TO.C,J11*%
X158670000Y-65145000D02*
X158670000Y-70285000D01*
X158670000Y-70285000D02*
X161330000Y-70285000D01*
X158670000Y-62545000D02*
X160000000Y-62545000D01*
X161330000Y-65145000D02*
X161330000Y-70285000D01*
X158670000Y-63875000D02*
X158670000Y-62545000D01*
X158670000Y-65145000D02*
X161330000Y-65145000D01*
%TO.C,R18*%
X174628111Y-93141436D02*
X174628111Y-93595564D01*
X176098111Y-93141436D02*
X176098111Y-93595564D01*
%TO.C,J1*%
X121995000Y-62080000D02*
X121995000Y-59420000D01*
X119395000Y-62080000D02*
X119395000Y-60750000D01*
X120725000Y-62080000D02*
X119395000Y-62080000D01*
X121995000Y-62080000D02*
X124595000Y-62080000D01*
X121995000Y-59420000D02*
X124595000Y-59420000D01*
X124595000Y-62080000D02*
X124595000Y-59420000D01*
%TO.C,SW1*%
X146660000Y-80620227D02*
X140540000Y-80620227D01*
X140540000Y-80620227D02*
X140540000Y-76920227D01*
X140540000Y-76920227D02*
X146660000Y-76920227D01*
X146660000Y-76920227D02*
X146660000Y-80620227D01*
%TO.C,R24*%
X176093406Y-96693046D02*
X176093406Y-97147174D01*
X174623406Y-96693046D02*
X174623406Y-97147174D01*
%TO.C,C17*%
X154565000Y-107988748D02*
X154565000Y-108511252D01*
X156035000Y-107988748D02*
X156035000Y-108511252D01*
%TO.C,R12*%
X121886956Y-90683086D02*
X121432828Y-90683086D01*
X121886956Y-92153086D02*
X121432828Y-92153086D01*
%TO.C,C16*%
X167413000Y-112580748D02*
X167413000Y-113103252D01*
X168883000Y-112580748D02*
X168883000Y-113103252D01*
%TO.C,R32*%
X128875701Y-122875701D02*
X131845550Y-125845550D01*
X129438056Y-121518056D02*
G75*
G03*
X129438056Y-121518056I-1920000J0D01*
G01*
%TO.C,G\u002A\u002A\u002A*%
G36*
X136082667Y-109934829D02*
G01*
X135749334Y-109934829D01*
X135749334Y-108267287D01*
X136082667Y-108267287D01*
X136082667Y-109934829D01*
G37*
G36*
X142042667Y-108267287D02*
G01*
X142042667Y-109934829D01*
X141216001Y-109934829D01*
X141216001Y-109601321D01*
X141549334Y-109601321D01*
X141709334Y-109601321D01*
X141709334Y-108600796D01*
X141549334Y-108600796D01*
X141549334Y-109601321D01*
X141216001Y-109601321D01*
X141216001Y-108267287D01*
X142042667Y-108267287D01*
G37*
G36*
X139562667Y-109934829D02*
G01*
X139229334Y-109934829D01*
X139229334Y-108600796D01*
X138896001Y-108600796D01*
X138896001Y-109934829D01*
X138562667Y-109934829D01*
X138562667Y-108267287D01*
X139562667Y-108267287D01*
X139562667Y-109934829D01*
G37*
G36*
X137242667Y-108267287D02*
G01*
X137242667Y-109107729D01*
X137069334Y-109107729D01*
X137069334Y-109267813D01*
X137242667Y-109267813D01*
X137242667Y-109934829D01*
X136909334Y-109934829D01*
X136909334Y-109267813D01*
X136576001Y-109267813D01*
X136576001Y-109934829D01*
X136242667Y-109934829D01*
X136242667Y-108934304D01*
X136576001Y-108934304D01*
X136909334Y-108934304D01*
X136909334Y-108600796D01*
X136576001Y-108600796D01*
X136576001Y-108934304D01*
X136242667Y-108934304D01*
X136242667Y-108267287D01*
X137242667Y-108267287D01*
G37*
G36*
X140549334Y-109601321D02*
G01*
X140709334Y-109601321D01*
X140709334Y-108760880D01*
X141042667Y-108760880D01*
X141042667Y-109601321D01*
X140882667Y-109601321D01*
X140882667Y-109774745D01*
X140709334Y-109774745D01*
X140709334Y-109934829D01*
X140216001Y-109934829D01*
X140216001Y-108760880D01*
X140549334Y-108760880D01*
X140549334Y-109601321D01*
G37*
G36*
X133416001Y-108267287D02*
G01*
X133416001Y-109094388D01*
X133589334Y-109094388D01*
X133589334Y-109934829D01*
X132589334Y-109934829D01*
X132589334Y-109601321D01*
X132922667Y-109601321D01*
X133256001Y-109601321D01*
X133256001Y-109267813D01*
X132922667Y-109267813D01*
X132922667Y-109601321D01*
X132589334Y-109601321D01*
X132589334Y-108934304D01*
X132922667Y-108934304D01*
X133082667Y-108934304D01*
X133082667Y-108600796D01*
X132922667Y-108600796D01*
X132922667Y-108934304D01*
X132589334Y-108934304D01*
X132589334Y-108267287D01*
X133416001Y-108267287D01*
G37*
G36*
X138402667Y-108267287D02*
G01*
X138402667Y-109934829D01*
X137402667Y-109934829D01*
X137402667Y-109601321D01*
X137736001Y-109601321D01*
X138069334Y-109601321D01*
X138069334Y-108600796D01*
X137736001Y-108600796D01*
X137736001Y-109601321D01*
X137402667Y-109601321D01*
X137402667Y-108267287D01*
X138402667Y-108267287D01*
G37*
G36*
X144042667Y-109934829D02*
G01*
X143709334Y-109934829D01*
X143709334Y-109601321D01*
X144042667Y-109601321D01*
X144042667Y-109934829D01*
G37*
G36*
X143536001Y-108267287D02*
G01*
X143536001Y-109934829D01*
X142709334Y-109934829D01*
X142709334Y-109601321D01*
X143042667Y-109601321D01*
X143202667Y-109601321D01*
X143202667Y-108600796D01*
X143042667Y-108600796D01*
X143042667Y-109601321D01*
X142709334Y-109601321D01*
X142709334Y-108267287D01*
X143536001Y-108267287D01*
G37*
G36*
X144536001Y-108934304D02*
G01*
X144696001Y-108934304D01*
X144696001Y-108267287D01*
X145029334Y-108267287D01*
X145029334Y-109934829D01*
X144696001Y-109934829D01*
X144696001Y-109267813D01*
X144202667Y-109267813D01*
X144202667Y-108267287D01*
X144536001Y-108267287D01*
X144536001Y-108934304D01*
G37*
G36*
X135576001Y-108600796D02*
G01*
X135082667Y-108600796D01*
X135082667Y-108934304D01*
X135576001Y-108934304D01*
X135576001Y-109267813D01*
X135082667Y-109267813D01*
X135082667Y-109601321D01*
X135576001Y-109601321D01*
X135576001Y-109934829D01*
X134749334Y-109934829D01*
X134749334Y-108267287D01*
X135576001Y-108267287D01*
X135576001Y-108600796D01*
G37*
G36*
X126243230Y-109205742D02*
G01*
X126243146Y-108947645D01*
X126789334Y-108947645D01*
X131629334Y-108947645D01*
X131629334Y-108400691D01*
X126789334Y-108400691D01*
X126789334Y-108947645D01*
X126243146Y-108947645D01*
X126242760Y-107767521D01*
X126869127Y-107767521D01*
X126870028Y-107770105D01*
X126875331Y-107772446D01*
X126886169Y-107774554D01*
X126903678Y-107776443D01*
X126928989Y-107778124D01*
X126963237Y-107779611D01*
X127007554Y-107780914D01*
X127063075Y-107782046D01*
X127130933Y-107783020D01*
X127212261Y-107783848D01*
X127308193Y-107784543D01*
X127419862Y-107785115D01*
X127548401Y-107785578D01*
X127694945Y-107785945D01*
X127860627Y-107786226D01*
X128046579Y-107786435D01*
X128253937Y-107786584D01*
X128483832Y-107786684D01*
X128737399Y-107786749D01*
X129015770Y-107786791D01*
X129208223Y-107786811D01*
X129457502Y-107786806D01*
X129699461Y-107786747D01*
X129932768Y-107786637D01*
X130156086Y-107786477D01*
X130368083Y-107786270D01*
X130567424Y-107786020D01*
X130752775Y-107785729D01*
X130922802Y-107785400D01*
X131076171Y-107785035D01*
X131211548Y-107784637D01*
X131327599Y-107784209D01*
X131422988Y-107783754D01*
X131496384Y-107783274D01*
X131546450Y-107782772D01*
X131571854Y-107782251D01*
X131574889Y-107781983D01*
X131561261Y-107773368D01*
X131526498Y-107752673D01*
X131472476Y-107720975D01*
X131401073Y-107679354D01*
X131314165Y-107628888D01*
X131213628Y-107570655D01*
X131101340Y-107505735D01*
X130979177Y-107435205D01*
X130849015Y-107360145D01*
X130712731Y-107281632D01*
X130572202Y-107200746D01*
X130429304Y-107118565D01*
X130285915Y-107036168D01*
X130143911Y-106954633D01*
X130005168Y-106875039D01*
X129871563Y-106798464D01*
X129744972Y-106725988D01*
X129627273Y-106658687D01*
X129520343Y-106597642D01*
X129426056Y-106543931D01*
X129346291Y-106498632D01*
X129282925Y-106462824D01*
X129237832Y-106437586D01*
X129212891Y-106423995D01*
X129208413Y-106421874D01*
X129195683Y-106428362D01*
X129161746Y-106447104D01*
X129108491Y-106477013D01*
X129037807Y-106517006D01*
X128951582Y-106565997D01*
X128851706Y-106622902D01*
X128740068Y-106686635D01*
X128618555Y-106756112D01*
X128489057Y-106830249D01*
X128353463Y-106907959D01*
X128213661Y-106988158D01*
X128071540Y-107069762D01*
X127928988Y-107151685D01*
X127787896Y-107232843D01*
X127650151Y-107312151D01*
X127517641Y-107388523D01*
X127392257Y-107460875D01*
X127275887Y-107528123D01*
X127170419Y-107589181D01*
X127077742Y-107642963D01*
X126999745Y-107688387D01*
X126938316Y-107724366D01*
X126895346Y-107749816D01*
X126876001Y-107761569D01*
X126871496Y-107764679D01*
X126869127Y-107767521D01*
X126242760Y-107767521D01*
X126242667Y-107482799D01*
X126674312Y-107234078D01*
X126772728Y-107177271D01*
X126864401Y-107124170D01*
X126946627Y-107076355D01*
X127016702Y-107035405D01*
X127071921Y-107002902D01*
X127109582Y-106980426D01*
X127126980Y-106969557D01*
X127127318Y-106969311D01*
X127137522Y-106958871D01*
X127141940Y-106943204D01*
X127140672Y-106916197D01*
X127133818Y-106871738D01*
X127129325Y-106846542D01*
X127102464Y-106625752D01*
X127101763Y-106554760D01*
X127545537Y-106554760D01*
X127547090Y-106620309D01*
X127551043Y-106669511D01*
X127555262Y-106690801D01*
X127564747Y-106720699D01*
X127607040Y-106694994D01*
X127625616Y-106684050D01*
X127665270Y-106660951D01*
X127723979Y-106626865D01*
X127799721Y-106582966D01*
X127890471Y-106530423D01*
X127994207Y-106470408D01*
X128108907Y-106404092D01*
X128232546Y-106332645D01*
X128363101Y-106257240D01*
X128427442Y-106220093D01*
X128559559Y-106144045D01*
X128685055Y-106072237D01*
X128802004Y-106005745D01*
X128908478Y-105945644D01*
X129002549Y-105893010D01*
X129082290Y-105848919D01*
X129145773Y-105814446D01*
X129191070Y-105790667D01*
X129216254Y-105778656D01*
X129220775Y-105777425D01*
X129234589Y-105785040D01*
X129269585Y-105804935D01*
X129323868Y-105836019D01*
X129395545Y-105877201D01*
X129482721Y-105927389D01*
X129583502Y-105985494D01*
X129695994Y-106050422D01*
X129818303Y-106121084D01*
X129948534Y-106196388D01*
X130042667Y-106250858D01*
X130202109Y-106343033D01*
X130340027Y-106422497D01*
X130457890Y-106490049D01*
X130557168Y-106546491D01*
X130639332Y-106592625D01*
X130705850Y-106629250D01*
X130758191Y-106657168D01*
X130797827Y-106677179D01*
X130826225Y-106690086D01*
X130844857Y-106696687D01*
X130855191Y-106697786D01*
X130858397Y-106695439D01*
X130863806Y-106667139D01*
X130867158Y-106617909D01*
X130868560Y-106553413D01*
X130868121Y-106479315D01*
X130865951Y-106401276D01*
X130862159Y-106324962D01*
X130856854Y-106256034D01*
X130850144Y-106200156D01*
X130848694Y-106191336D01*
X130800733Y-105991989D01*
X130728896Y-105802004D01*
X130634898Y-105623228D01*
X130520452Y-105457511D01*
X130387270Y-105306702D01*
X130237067Y-105172651D01*
X130071555Y-105057206D01*
X129892447Y-104962218D01*
X129701458Y-104889535D01*
X129621779Y-104867035D01*
X129413968Y-104827407D01*
X129206671Y-104814191D01*
X129001341Y-104827133D01*
X128799429Y-104865981D01*
X128602387Y-104930481D01*
X128411666Y-105020382D01*
X128278650Y-105100980D01*
X128115057Y-105225735D01*
X127969236Y-105369494D01*
X127842462Y-105530295D01*
X127736010Y-105706178D01*
X127651155Y-105895185D01*
X127589172Y-106095354D01*
X127568279Y-106192865D01*
X127560189Y-106249695D01*
X127553712Y-106320330D01*
X127549006Y-106398739D01*
X127546228Y-106478893D01*
X127545537Y-106554760D01*
X127101763Y-106554760D01*
X127100235Y-106400050D01*
X127122076Y-106173261D01*
X127167423Y-105949212D01*
X127235713Y-105731732D01*
X127322714Y-105531924D01*
X127361076Y-105461140D01*
X127409250Y-105380636D01*
X127461962Y-105298588D01*
X127513939Y-105223176D01*
X127559907Y-105162576D01*
X127564393Y-105157138D01*
X127591831Y-105122437D01*
X127610548Y-105095322D01*
X127616001Y-105083573D01*
X127606957Y-105070905D01*
X127581816Y-105042758D01*
X127543563Y-105002294D01*
X127495183Y-104952670D01*
X127441289Y-104898660D01*
X127384078Y-104840627D01*
X127332614Y-104785971D01*
X127290366Y-104738570D01*
X127260802Y-104702302D01*
X127247955Y-104682501D01*
X127231434Y-104615943D01*
X127233480Y-104543567D01*
X127252395Y-104473939D01*
X127286481Y-104415629D01*
X127304582Y-104396864D01*
X127373210Y-104353413D01*
X127450116Y-104333740D01*
X127529854Y-104338747D01*
X127573095Y-104352409D01*
X127601111Y-104369899D01*
X127644439Y-104404677D01*
X127700367Y-104454370D01*
X127766182Y-104516604D01*
X127810636Y-104560319D01*
X127998605Y-104747707D01*
X128070636Y-104701643D01*
X128244117Y-104603421D01*
X128434972Y-104518394D01*
X128635959Y-104449492D01*
X128792680Y-104409356D01*
X128844503Y-104398853D01*
X128893351Y-104391096D01*
X128944743Y-104385691D01*
X129004200Y-104382244D01*
X129077239Y-104380361D01*
X129169381Y-104379648D01*
X129209334Y-104379602D01*
X129310094Y-104379988D01*
X129389695Y-104381406D01*
X129453637Y-104384248D01*
X129507421Y-104388903D01*
X129556545Y-104395761D01*
X129606510Y-104405213D01*
X129624637Y-104409081D01*
X129785660Y-104451009D01*
X129948159Y-104506011D01*
X130104690Y-104571063D01*
X130247812Y-104643137D01*
X130344715Y-104701860D01*
X130416757Y-104749719D01*
X130646771Y-104521950D01*
X130723863Y-104445995D01*
X130785406Y-104387018D01*
X130834621Y-104343042D01*
X130874728Y-104312092D01*
X130908948Y-104292192D01*
X130940500Y-104281366D01*
X130972605Y-104277638D01*
X131008484Y-104279034D01*
X131037829Y-104282030D01*
X131103914Y-104302006D01*
X131164291Y-104343503D01*
X131211865Y-104401398D01*
X131217930Y-104412056D01*
X131236783Y-104469261D01*
X131241887Y-104536706D01*
X131232967Y-104601605D01*
X131222641Y-104630218D01*
X131207408Y-104652030D01*
X131176200Y-104689022D01*
X131132145Y-104737761D01*
X131078372Y-104794813D01*
X131018011Y-104856743D01*
X130997314Y-104877530D01*
X130792014Y-105082617D01*
X130853049Y-105157489D01*
X130985829Y-105341174D01*
X131097336Y-105539148D01*
X131186877Y-105748731D01*
X131253761Y-105967245D01*
X131297294Y-106192012D01*
X131316784Y-106420353D01*
X131311537Y-106649589D01*
X131287850Y-106838912D01*
X131278758Y-106896292D01*
X131275490Y-106933159D01*
X131277945Y-106955013D01*
X131285518Y-106966907D01*
X131300633Y-106976880D01*
X131336243Y-106998533D01*
X131389691Y-107030305D01*
X131458319Y-107070635D01*
X131539471Y-107117962D01*
X131630490Y-107170727D01*
X131728719Y-107227368D01*
X131739384Y-107233500D01*
X132176100Y-107484532D01*
X132169334Y-110928034D01*
X130962667Y-111625173D01*
X130790920Y-111724395D01*
X130621058Y-111822520D01*
X130455086Y-111918392D01*
X130295010Y-112010852D01*
X130142836Y-112098741D01*
X130000569Y-112180902D01*
X129870214Y-112256176D01*
X129753778Y-112323405D01*
X129653266Y-112381431D01*
X129570683Y-112429095D01*
X129508036Y-112465239D01*
X129481851Y-112480338D01*
X129207702Y-112638363D01*
X127725748Y-111783524D01*
X126243793Y-110928684D01*
X126243697Y-110635197D01*
X126853547Y-110635197D01*
X127758107Y-111158355D01*
X127900768Y-111240755D01*
X128036905Y-111319175D01*
X128164733Y-111392600D01*
X128282469Y-111460016D01*
X128388327Y-111520407D01*
X128480524Y-111572758D01*
X128557275Y-111616053D01*
X128616795Y-111649279D01*
X128657301Y-111671419D01*
X128677007Y-111681458D01*
X128678530Y-111681963D01*
X128694268Y-111675672D01*
X128729450Y-111657813D01*
X128780521Y-111630315D01*
X128843923Y-111595108D01*
X128916100Y-111554123D01*
X128948140Y-111535670D01*
X129022288Y-111492942D01*
X129088444Y-111455112D01*
X129143212Y-111424095D01*
X129183197Y-111401811D01*
X129205003Y-111390177D01*
X129207958Y-111388926D01*
X129220754Y-111395315D01*
X129253226Y-111413209D01*
X129302002Y-111440701D01*
X129363705Y-111475882D01*
X129434963Y-111516844D01*
X129470615Y-111537447D01*
X129556870Y-111586980D01*
X129623305Y-111624050D01*
X129672878Y-111650069D01*
X129708549Y-111666450D01*
X129733274Y-111674604D01*
X129750014Y-111675943D01*
X129757146Y-111674186D01*
X129773240Y-111665759D01*
X129810568Y-111645008D01*
X129867287Y-111612988D01*
X129941559Y-111570751D01*
X130031542Y-111519351D01*
X130135396Y-111459841D01*
X130251280Y-111393274D01*
X130377355Y-111320704D01*
X130511779Y-111243183D01*
X130652712Y-111161766D01*
X130675134Y-111148800D01*
X131563179Y-110635197D01*
X130390646Y-110631790D01*
X130177960Y-110631268D01*
X129944092Y-110630867D01*
X129694528Y-110630586D01*
X129434753Y-110630426D01*
X129170251Y-110630386D01*
X128906508Y-110630467D01*
X128649009Y-110630668D01*
X128403239Y-110630989D01*
X128174683Y-110631432D01*
X128035830Y-110631790D01*
X126853547Y-110635197D01*
X126243697Y-110635197D01*
X126243439Y-109846634D01*
X126791437Y-109846634D01*
X126791485Y-109910259D01*
X126792381Y-109959998D01*
X126794059Y-109990789D01*
X126795234Y-109997672D01*
X126800186Y-109999858D01*
X126813970Y-110001848D01*
X126837608Y-110003647D01*
X126872121Y-110005261D01*
X126918530Y-110006697D01*
X126977859Y-110007959D01*
X127051127Y-110009055D01*
X127139357Y-110009990D01*
X127243571Y-110010769D01*
X127364790Y-110011399D01*
X127504035Y-110011886D01*
X127662329Y-110012234D01*
X127840693Y-110012452D01*
X128040149Y-110012543D01*
X128261717Y-110012514D01*
X128506421Y-110012371D01*
X128775282Y-110012120D01*
X129069321Y-110011766D01*
X129212263Y-110011573D01*
X131622667Y-110008201D01*
X131622667Y-109567970D01*
X126796001Y-109567970D01*
X126792305Y-109774185D01*
X126791437Y-109846634D01*
X126243439Y-109846634D01*
X126243230Y-109205742D01*
G37*
G36*
X142549334Y-109934829D02*
G01*
X142216001Y-109934829D01*
X142216001Y-109601321D01*
X142549334Y-109601321D01*
X142549334Y-109934829D01*
G37*
G36*
X134576001Y-108600796D02*
G01*
X134082667Y-108600796D01*
X134082667Y-108934304D01*
X134576001Y-108934304D01*
X134576001Y-109267813D01*
X134082667Y-109267813D01*
X134082667Y-109601321D01*
X134576001Y-109601321D01*
X134576001Y-109934829D01*
X133749334Y-109934829D01*
X133749334Y-108267287D01*
X134576001Y-108267287D01*
X134576001Y-108600796D01*
G37*
G36*
X128517974Y-105293247D02*
G01*
X128588767Y-105319571D01*
X128652650Y-105367167D01*
X128687644Y-105408766D01*
X128722098Y-105479576D01*
X128733870Y-105556797D01*
X128724041Y-105634735D01*
X128693694Y-105707698D01*
X128643912Y-105769993D01*
X128614448Y-105793732D01*
X128548984Y-105824544D01*
X128472839Y-105837688D01*
X128395985Y-105832378D01*
X128342553Y-105815197D01*
X128275125Y-105770430D01*
X128223302Y-105709366D01*
X128190244Y-105637671D01*
X128179112Y-105561014D01*
X128181966Y-105527229D01*
X128206519Y-105446466D01*
X128249219Y-105381105D01*
X128305892Y-105332125D01*
X128372360Y-105300502D01*
X128444446Y-105287217D01*
X128517974Y-105293247D01*
G37*
G36*
X130071456Y-105311478D02*
G01*
X130142605Y-105359523D01*
X130151812Y-105368186D01*
X130201548Y-105433583D01*
X130228707Y-105506759D01*
X130234196Y-105582937D01*
X130218922Y-105657342D01*
X130183792Y-105725198D01*
X130129714Y-105781727D01*
X130066247Y-105818699D01*
X129989219Y-105837567D01*
X129907890Y-105834698D01*
X129832426Y-105810534D01*
X129828098Y-105808306D01*
X129763560Y-105760860D01*
X129717903Y-105699834D01*
X129691130Y-105629973D01*
X129683244Y-105556021D01*
X129694251Y-105482722D01*
X129724154Y-105414820D01*
X129772957Y-105357060D01*
X129827678Y-105320292D01*
X129911312Y-105291467D01*
X129993465Y-105288661D01*
X130071456Y-105311478D01*
G37*
%TO.C,C2*%
X146265000Y-68938748D02*
X146265000Y-69461252D01*
X147735000Y-68938748D02*
X147735000Y-69461252D01*
%TO.C,J10*%
X156982393Y-65144870D02*
X156982393Y-70284870D01*
X154322393Y-62544870D02*
X155652393Y-62544870D01*
X154322393Y-65144870D02*
X156982393Y-65144870D01*
X154322393Y-65144870D02*
X154322393Y-70284870D01*
X154322393Y-63874870D02*
X154322393Y-62544870D01*
X154322393Y-70284870D02*
X156982393Y-70284870D01*
%TO.C,U9*%
X139385000Y-119640000D02*
X139385000Y-114340000D01*
X131645000Y-119640000D02*
X139385000Y-119640000D01*
X131645000Y-117990000D02*
X131645000Y-119640000D01*
X139385000Y-114340000D02*
X131645000Y-114340000D01*
X131645000Y-114340000D02*
X131645000Y-115990000D01*
X131645000Y-117990000D02*
G75*
G03*
X131645000Y-115990000I0J1000000D01*
G01*
%TO.C,R36*%
X165803936Y-75211000D02*
X166258064Y-75211000D01*
X165803936Y-76681000D02*
X166258064Y-76681000D01*
%TO.C,R30*%
X142022936Y-120365000D02*
X142477064Y-120365000D01*
X142022936Y-121835000D02*
X142477064Y-121835000D01*
%TO.C,R17*%
X177444064Y-111739000D02*
X176989936Y-111739000D01*
X177444064Y-113209000D02*
X176989936Y-113209000D01*
%TO.C,R19*%
X170002112Y-93570734D02*
X170002112Y-93116606D01*
X168532112Y-93570734D02*
X168532112Y-93116606D01*
%TO.C,J8*%
X159840000Y-116600000D02*
X162920000Y-116600000D01*
X162920000Y-115790000D02*
X164920000Y-115790000D01*
X164920000Y-116600000D02*
X168000000Y-116600000D01*
X172650000Y-115790000D02*
X155190000Y-115790000D01*
X171740000Y-122900000D02*
X171000000Y-122900000D01*
X171740000Y-117600000D02*
X171740000Y-122900000D01*
X157840000Y-115790000D02*
X159840000Y-115790000D01*
X156100000Y-122900000D02*
X156100000Y-117600000D01*
X159140000Y-114990000D02*
X158840000Y-115590000D01*
X155190000Y-116600000D02*
X157730000Y-116600000D01*
X165920000Y-122900000D02*
X167000000Y-122900000D01*
X158840000Y-115590000D02*
X158540000Y-114990000D01*
X155190000Y-124610000D02*
X172650000Y-124610000D01*
X155190000Y-115790000D02*
X155190000Y-124610000D01*
X172650000Y-116600000D02*
X170110000Y-116600000D01*
X172650000Y-124610000D02*
X172650000Y-115790000D01*
X168000000Y-117600000D02*
X168000000Y-115790000D01*
X156100000Y-117600000D02*
X171740000Y-117600000D01*
X160840000Y-122900000D02*
X161920000Y-122900000D01*
X170000000Y-117600000D02*
X168000000Y-117600000D01*
X157840000Y-117600000D02*
X157840000Y-115790000D01*
X158540000Y-114990000D02*
X159140000Y-114990000D01*
X159840000Y-115790000D02*
X159840000Y-117600000D01*
X164920000Y-117600000D02*
X162920000Y-117600000D01*
X159840000Y-117600000D02*
X157840000Y-117600000D01*
X168000000Y-115790000D02*
X170000000Y-115790000D01*
X170000000Y-115790000D02*
X170000000Y-117600000D01*
X156840000Y-122900000D02*
X156100000Y-122900000D01*
X162920000Y-117600000D02*
X162920000Y-115790000D01*
X164920000Y-115790000D02*
X164920000Y-117600000D01*
X167000000Y-122900000D02*
G75*
G03*
X170986842Y-122915821I2000000J1650000D01*
G01*
X161920000Y-122900000D02*
G75*
G03*
X165906842Y-122915821I2000000J1650000D01*
G01*
X156840000Y-122900000D02*
G75*
G03*
X160826842Y-122915821I2000000J1650000D01*
G01*
%TO.C,TP1*%
X166450000Y-129650000D02*
X163550000Y-129650000D01*
X163550000Y-126750000D02*
X166450000Y-126750000D01*
X166450000Y-126750000D02*
X166450000Y-129650000D01*
X163550000Y-129650000D02*
X163550000Y-126750000D01*
%TO.C,Q2*%
X172289000Y-84272418D02*
X171639000Y-84272418D01*
X172289000Y-81152418D02*
X172939000Y-81152418D01*
X172289000Y-84272418D02*
X173964000Y-84272418D01*
X172289000Y-81152418D02*
X171639000Y-81152418D01*
%TO.C,C15*%
X157811252Y-111735000D02*
X157288748Y-111735000D01*
X157811252Y-110265000D02*
X157288748Y-110265000D01*
%TO.C,R3*%
X137059165Y-83219718D02*
X137380282Y-83540835D01*
X136019718Y-84259165D02*
X136340835Y-84580282D01*
%TO.C,J7*%
X153979773Y-94566278D02*
X152141295Y-96404755D01*
X159452779Y-92770227D02*
X155775824Y-89093271D01*
X153979773Y-98243233D02*
X153039321Y-97302781D01*
X150302818Y-94566278D02*
X155775824Y-89093271D01*
X154920225Y-97302781D02*
X153979773Y-98243233D01*
X155818251Y-96404755D02*
X159452779Y-92770227D01*
X155818251Y-96404755D02*
X153979773Y-94566278D01*
X152141295Y-96404755D02*
X150302818Y-94566278D01*
%TO.C,JP5*%
X163700000Y-99044000D02*
X163700000Y-97044000D01*
X166500000Y-97044000D02*
X166500000Y-99044000D01*
X163700000Y-97044000D02*
X166500000Y-97044000D01*
X166500000Y-99044000D02*
X163700000Y-99044000D01*
%TO.C,C13*%
X137593259Y-102367294D02*
X137223792Y-102736761D01*
X138632706Y-103406741D02*
X138263239Y-103776208D01*
%TO.C,C8*%
X163685000Y-64865943D02*
X163685000Y-65388447D01*
X162215000Y-64865943D02*
X162215000Y-65388447D01*
%TO.C,R21*%
X169987920Y-82929067D02*
X169987920Y-82474939D01*
X168517920Y-82929067D02*
X168517920Y-82474939D01*
%TO.C,C19*%
X157011252Y-106135000D02*
X156488748Y-106135000D01*
X157011252Y-104665000D02*
X156488748Y-104665000D01*
%TO.C,R39*%
X165816436Y-74531000D02*
X166270564Y-74531000D01*
X165816436Y-73061000D02*
X166270564Y-73061000D01*
%TO.C,R29*%
X168543122Y-90000900D02*
X168543122Y-89546772D01*
X170013122Y-90000900D02*
X170013122Y-89546772D01*
%TO.C,DON1*%
X168743500Y-74531000D02*
X171028500Y-74531000D01*
X171028500Y-73061000D02*
X168743500Y-73061000D01*
X171028500Y-74531000D02*
X171028500Y-73061000D01*
%TO.C,C18*%
X158235000Y-108511252D02*
X158235000Y-107988748D01*
X156765000Y-108511252D02*
X156765000Y-107988748D01*
%TO.C,F1*%
X133510000Y-66797936D02*
X133510000Y-68002064D01*
X131690000Y-66797936D02*
X131690000Y-68002064D01*
%TO.C,R38*%
X165903936Y-70811000D02*
X166358064Y-70811000D01*
X165903936Y-72281000D02*
X166358064Y-72281000D01*
%TO.C,R26*%
X176057809Y-86029435D02*
X176057809Y-86483563D01*
X174587809Y-86029435D02*
X174587809Y-86483563D01*
%TO.C,R2*%
X130768695Y-89329248D02*
X131089812Y-89650365D01*
X129729248Y-90368695D02*
X130050365Y-90689812D01*
%TO.C,JP12*%
X106925000Y-113600000D02*
X109725000Y-113600000D01*
X109725000Y-115600000D02*
X106925000Y-115600000D01*
X106925000Y-115600000D02*
X106925000Y-113600000D01*
X109725000Y-113600000D02*
X109725000Y-115600000D01*
D11*
%TO.C,U5*%
X147262973Y-90416495D02*
X147033163Y-90186685D01*
X137169024Y-90575594D02*
X136161397Y-91583221D01*
X137009925Y-90416495D02*
X137169024Y-90575594D01*
X142136449Y-85289971D02*
X142366259Y-85519781D01*
X147262973Y-90416495D02*
X147033163Y-90646305D01*
X142136449Y-85289971D02*
X141906639Y-85519781D01*
X142136449Y-95543019D02*
X142366259Y-95313209D01*
X142136449Y-95543019D02*
X141906639Y-95313209D01*
X137009925Y-90416495D02*
X137239735Y-90186685D01*
D13*
%TO.C,Q6*%
X172322849Y-91315366D02*
X173997849Y-91315366D01*
X172322849Y-91315366D02*
X171672849Y-91315366D01*
X172322849Y-88195366D02*
X172972849Y-88195366D01*
X172322849Y-88195366D02*
X171672849Y-88195366D01*
%TO.C,FB1*%
X135310000Y-67249721D02*
X135310000Y-67575279D01*
X134290000Y-67249721D02*
X134290000Y-67575279D01*
%TO.C,C3*%
X143088748Y-69415000D02*
X143611252Y-69415000D01*
X143088748Y-70885000D02*
X143611252Y-70885000D01*
%TO.C,R5*%
X148264820Y-99765827D02*
X147943703Y-99444710D01*
X147225373Y-100805274D02*
X146904256Y-100484157D01*
%TO.C,U6*%
X114608000Y-96724000D02*
X114608000Y-98674000D01*
X119728000Y-96724000D02*
X119728000Y-93274000D01*
X114608000Y-96724000D02*
X114608000Y-94774000D01*
X119728000Y-96724000D02*
X119728000Y-98674000D01*
%TO.C,C23*%
X158611252Y-133065000D02*
X158088748Y-133065000D01*
X158611252Y-134535000D02*
X158088748Y-134535000D01*
%TO.C,JP6*%
X163700000Y-94504000D02*
X166500000Y-94504000D01*
X166500000Y-94504000D02*
X166500000Y-96504000D01*
X163700000Y-96504000D02*
X163700000Y-94504000D01*
X166500000Y-96504000D02*
X163700000Y-96504000D01*
%TO.C,C21*%
X163738748Y-132335000D02*
X164261252Y-132335000D01*
X163738748Y-130865000D02*
X164261252Y-130865000D01*
%TO.C,C10*%
X135493259Y-93967294D02*
X135123792Y-94336761D01*
X136532706Y-95006741D02*
X136163239Y-95376208D01*
%TO.C,JP11*%
X175027000Y-111674000D02*
X175027000Y-113674000D01*
X175027000Y-113674000D02*
X172227000Y-113674000D01*
X172227000Y-111674000D02*
X175027000Y-111674000D01*
X172227000Y-113674000D02*
X172227000Y-111674000D01*
%TO.C,U8*%
X145115000Y-114440000D02*
X145115000Y-118940000D01*
X145115000Y-118940000D02*
X152855000Y-118940000D01*
X152855000Y-115690000D02*
X152855000Y-114440000D01*
X152855000Y-114440000D02*
X145115000Y-114440000D01*
X152855000Y-118940000D02*
X152855000Y-117690000D01*
X152855000Y-115690000D02*
G75*
G03*
X152855000Y-117690000I0J-1000000D01*
G01*
%TO.C,R16*%
X162235000Y-104260436D02*
X162235000Y-104714564D01*
X160765000Y-104260436D02*
X160765000Y-104714564D01*
%TO.C,C5*%
X147714763Y-85774684D02*
X148084230Y-85405217D01*
X146675316Y-84735237D02*
X147044783Y-84365770D01*
%TO.C,kibuzzard-6198C8AE*%
G36*
X162826435Y-90170000D02*
G01*
X163256472Y-90815054D01*
X160261565Y-90815054D01*
X160123629Y-90608150D01*
X160393856Y-90608150D01*
X160503394Y-90656569D01*
X160588722Y-90676214D01*
X160698656Y-90682763D01*
X160810046Y-90674384D01*
X160900798Y-90649249D01*
X160970912Y-90607356D01*
X161038183Y-90516273D01*
X161060606Y-90393838D01*
X161053859Y-90319820D01*
X161033619Y-90259694D01*
X160964562Y-90170794D01*
X160963283Y-90170000D01*
X161166969Y-90170000D01*
X161173815Y-90285987D01*
X161194353Y-90387884D01*
X161228584Y-90475693D01*
X161276506Y-90549413D01*
X161360467Y-90623496D01*
X161466301Y-90667946D01*
X161594006Y-90682763D01*
X161680723Y-90677405D01*
X161752971Y-90662125D01*
X161989294Y-90662125D01*
X162184556Y-90662125D01*
X162184556Y-90212863D01*
X162267900Y-90302556D01*
X162310564Y-90357722D01*
X162351244Y-90416856D01*
X162389145Y-90478769D01*
X162423475Y-90542269D01*
X162473481Y-90662125D01*
X162694144Y-90662125D01*
X162668347Y-90591283D01*
X162635406Y-90518456D01*
X162596711Y-90445431D01*
X162553650Y-90373994D01*
X162507017Y-90305533D01*
X162457606Y-90241438D01*
X162407203Y-90183097D01*
X162357594Y-90131900D01*
X162405814Y-90073559D01*
X162452050Y-90012837D01*
X162495905Y-89951520D01*
X162536981Y-89891394D01*
X162574486Y-89833053D01*
X162607625Y-89777094D01*
X162660806Y-89679462D01*
X162440144Y-89679462D01*
X162392519Y-89774712D01*
X162329813Y-89881075D01*
X162257581Y-89989025D01*
X162184556Y-90087450D01*
X162184556Y-89679462D01*
X161989294Y-89679462D01*
X161989294Y-90662125D01*
X161752971Y-90662125D01*
X161756725Y-90661331D01*
X161868644Y-90614500D01*
X161819431Y-90460513D01*
X161739263Y-90495438D01*
X161613056Y-90512900D01*
X161499748Y-90490477D01*
X161423350Y-90423206D01*
X161391159Y-90354679D01*
X161371844Y-90268690D01*
X161365406Y-90165237D01*
X161370764Y-90076337D01*
X161386837Y-90003312D01*
X161442400Y-89899331D01*
X161520187Y-89843769D01*
X161609881Y-89827100D01*
X161728150Y-89843769D01*
X161816256Y-89884250D01*
X161867056Y-89728675D01*
X161834513Y-89709625D01*
X161781331Y-89685812D01*
X161707513Y-89665969D01*
X161613056Y-89657237D01*
X161519989Y-89665770D01*
X161434462Y-89691369D01*
X161358262Y-89733437D01*
X161293175Y-89791381D01*
X161240192Y-89864605D01*
X161200306Y-89952512D01*
X161175303Y-90054509D01*
X161166969Y-90170000D01*
X160963283Y-90170000D01*
X160872487Y-90113644D01*
X160776444Y-90074750D01*
X160715325Y-90050937D01*
X160659762Y-90021569D01*
X160619281Y-89983469D01*
X160603406Y-89933462D01*
X160620692Y-89870844D01*
X160672551Y-89833274D01*
X160758981Y-89820750D01*
X160870900Y-89836625D01*
X160959006Y-89874725D01*
X161016156Y-89723912D01*
X160902650Y-89677875D01*
X160829427Y-89662397D01*
X160744694Y-89657237D01*
X160647415Y-89665881D01*
X160565130Y-89691810D01*
X160497837Y-89735025D01*
X160430567Y-89827894D01*
X160408144Y-89950925D01*
X160433544Y-90067606D01*
X160497837Y-90146187D01*
X160584356Y-90198575D01*
X160676431Y-90235088D01*
X160743106Y-90262869D01*
X160803431Y-90296206D01*
X160847881Y-90338275D01*
X160865344Y-90392250D01*
X160858200Y-90439081D01*
X160832006Y-90480356D01*
X160780412Y-90508931D01*
X160698656Y-90519250D01*
X160619480Y-90513694D01*
X160553400Y-90497025D01*
X160451006Y-90449400D01*
X160393856Y-90608150D01*
X160123629Y-90608150D01*
X159831528Y-90170000D01*
X160261565Y-89524946D01*
X163256472Y-89524946D01*
X162826435Y-90170000D01*
G37*
%TO.C,Q7*%
X140400000Y-135870000D02*
X140400000Y-134130000D01*
X131950000Y-134130000D02*
X130930000Y-134130000D01*
X137199000Y-135870000D02*
X137199000Y-134130000D01*
X146670000Y-134130000D02*
X145650000Y-134130000D01*
X146670000Y-135870000D02*
X130930000Y-135870000D01*
X146670000Y-135870000D02*
X146670000Y-131130000D01*
X146670000Y-131130000D02*
X145650000Y-131130000D01*
X137400000Y-134130000D02*
X134750000Y-134130000D01*
X142850000Y-131130000D02*
X140199000Y-131130000D01*
X131950000Y-131130000D02*
X130930000Y-131130000D01*
X130930000Y-135870000D02*
X130930000Y-131130000D01*
X137400000Y-131130000D02*
X134750000Y-131130000D01*
X142850000Y-134130000D02*
X140199000Y-134130000D01*
%TO.C,JP10*%
X166498758Y-84344001D02*
X166498758Y-86344001D01*
X166498758Y-86344001D02*
X163698758Y-86344001D01*
X163698758Y-86344001D02*
X163698758Y-84344001D01*
X163698758Y-84344001D02*
X166498758Y-84344001D01*
%TO.C,J2*%
X109530000Y-108950000D02*
X109530000Y-101270000D01*
X109530000Y-101270000D02*
X106870000Y-101270000D01*
X109530000Y-111550000D02*
X108200000Y-111550000D01*
X106870000Y-108950000D02*
X106870000Y-101270000D01*
X109530000Y-110220000D02*
X109530000Y-111550000D01*
X109530000Y-108950000D02*
X106870000Y-108950000D01*
%TO.C,DL1*%
X171028500Y-72281000D02*
X171028500Y-70811000D01*
X168743500Y-72281000D02*
X171028500Y-72281000D01*
X171028500Y-70811000D02*
X168743500Y-70811000D01*
%TO.C,R4*%
X137479248Y-82718695D02*
X137800365Y-83039812D01*
X138518695Y-81679248D02*
X138839812Y-82000365D01*
%TO.C,BR1*%
X117550000Y-65300000D02*
X125950000Y-65300000D01*
X125950000Y-65300000D02*
X125950000Y-71700000D01*
X117550000Y-71700000D02*
X118350000Y-71700000D01*
X117550000Y-71700000D02*
X117550000Y-65300000D01*
X125950000Y-71700000D02*
X117550000Y-71700000D01*
X118350000Y-71700000D02*
X118350000Y-65300000D01*
%TO.C,R1*%
X126654256Y-92556297D02*
X126975373Y-92235180D01*
X127693703Y-93595744D02*
X128014820Y-93274627D01*
%TO.C,Y1*%
X134881802Y-96799821D02*
X131699821Y-99981802D01*
X131699821Y-99981802D02*
X135518198Y-103800179D01*
%TO.C,R25*%
X170008042Y-97104564D02*
X170008042Y-96650436D01*
X168538042Y-97104564D02*
X168538042Y-96650436D01*
%TO.C,L1*%
X149318880Y-86802369D02*
X149088675Y-87032574D01*
X148597631Y-86081120D02*
X148367426Y-86311325D01*
%TO.C,R13*%
X123671000Y-98475436D02*
X123671000Y-98929564D01*
X122201000Y-98475436D02*
X122201000Y-98929564D01*
%TO.C,RXD1*%
X170928500Y-75211000D02*
X168643500Y-75211000D01*
X168643500Y-76681000D02*
X170928500Y-76681000D01*
X170928500Y-76681000D02*
X170928500Y-75211000D01*
%TO.C,G\u002A\u002A\u002A*%
G36*
X176569271Y-121015655D02*
G01*
X176556605Y-121003189D01*
X176555199Y-121001806D01*
X176544568Y-121002431D01*
X176521743Y-121007800D01*
X176511302Y-121010791D01*
X176463326Y-121015726D01*
X176414986Y-121001556D01*
X176365577Y-120967986D01*
X176333842Y-120937026D01*
X176318893Y-120921072D01*
X176291568Y-120892164D01*
X176253304Y-120851813D01*
X176208841Y-120805000D01*
X176741489Y-120805000D01*
X176833047Y-120897500D01*
X176867523Y-120931983D01*
X176896818Y-120960629D01*
X176918164Y-120980779D01*
X176928789Y-120989771D01*
X176929349Y-120990000D01*
X176937268Y-120983120D01*
X176957328Y-120963671D01*
X176987746Y-120933442D01*
X177026738Y-120894219D01*
X177072521Y-120847789D01*
X177123311Y-120795940D01*
X177136427Y-120782500D01*
X177338760Y-120575000D01*
X177245200Y-120480884D01*
X177151641Y-120386769D01*
X176946565Y-120595884D01*
X176741489Y-120805000D01*
X176208841Y-120805000D01*
X176205541Y-120801526D01*
X176149715Y-120742813D01*
X176087265Y-120677183D01*
X176019629Y-120606144D01*
X175948246Y-120531207D01*
X175874552Y-120453879D01*
X175799987Y-120375671D01*
X175725989Y-120298090D01*
X175653996Y-120222646D01*
X175585445Y-120150848D01*
X175521774Y-120084206D01*
X175464423Y-120024227D01*
X175414829Y-119972421D01*
X175374430Y-119930298D01*
X175374151Y-119930007D01*
X175277171Y-119828849D01*
X175193537Y-119741212D01*
X175122568Y-119666356D01*
X175063581Y-119603546D01*
X175015897Y-119552043D01*
X174978834Y-119511111D01*
X174951712Y-119480012D01*
X174933848Y-119458010D01*
X174924562Y-119444366D01*
X174923522Y-119442225D01*
X174916804Y-119419439D01*
X174909386Y-119383697D01*
X174902669Y-119341934D01*
X174901481Y-119333074D01*
X174887544Y-119259481D01*
X174864925Y-119199807D01*
X174830642Y-119149269D01*
X174781712Y-119103080D01*
X174738571Y-119071729D01*
X174677480Y-119022295D01*
X174616614Y-118958009D01*
X174559413Y-118883762D01*
X174509315Y-118804442D01*
X174469760Y-118724937D01*
X174445413Y-118654975D01*
X174435879Y-118603691D01*
X174431025Y-118545589D01*
X174431012Y-118488153D01*
X174436004Y-118438863D01*
X174440331Y-118419933D01*
X174445016Y-118400770D01*
X174443626Y-118386147D01*
X174433574Y-118370762D01*
X174412272Y-118349315D01*
X174400472Y-118338271D01*
X174335495Y-118290767D01*
X174262393Y-118259663D01*
X174184238Y-118244785D01*
X174104100Y-118245960D01*
X174025048Y-118263014D01*
X173950154Y-118295773D01*
X173882488Y-118344063D01*
X173856888Y-118369015D01*
X173802946Y-118439736D01*
X173765701Y-118517403D01*
X173746049Y-118599096D01*
X173744887Y-118681895D01*
X173750201Y-118716656D01*
X173753608Y-118733805D01*
X173756846Y-118749483D01*
X173760601Y-118764438D01*
X173765559Y-118779412D01*
X173772407Y-118795151D01*
X173781831Y-118812401D01*
X173794516Y-118831906D01*
X173811149Y-118854411D01*
X173832415Y-118880661D01*
X173859001Y-118911401D01*
X173891593Y-118947376D01*
X173930877Y-118989331D01*
X173977539Y-119038010D01*
X174032265Y-119094160D01*
X174095741Y-119158524D01*
X174168652Y-119231848D01*
X174251687Y-119314877D01*
X174345529Y-119408355D01*
X174450866Y-119513028D01*
X174568383Y-119629640D01*
X174698766Y-119758937D01*
X174829179Y-119888252D01*
X174951662Y-120009719D01*
X175072463Y-120129522D01*
X175190588Y-120246678D01*
X175305046Y-120360202D01*
X175414845Y-120469111D01*
X175518993Y-120572419D01*
X175616497Y-120669143D01*
X175706366Y-120758299D01*
X175787608Y-120838903D01*
X175859230Y-120909971D01*
X175920241Y-120970517D01*
X175969648Y-121019559D01*
X176006460Y-121056113D01*
X176022504Y-121072053D01*
X176079788Y-121129344D01*
X176124585Y-121175157D01*
X176158889Y-121211815D01*
X176184692Y-121241636D01*
X176203987Y-121266943D01*
X176218764Y-121290057D01*
X176231018Y-121313298D01*
X176232816Y-121317053D01*
X176247508Y-121349590D01*
X176256898Y-121376522D01*
X176262160Y-121404162D01*
X176264469Y-121438821D01*
X176264999Y-121486809D01*
X176265000Y-121490000D01*
X176264514Y-121539102D01*
X176262304Y-121574447D01*
X176257236Y-121602269D01*
X176248179Y-121628801D01*
X176234134Y-121660000D01*
X176187244Y-121736421D01*
X176125639Y-121799314D01*
X176049507Y-121848490D01*
X176044593Y-121850946D01*
X176012040Y-121866352D01*
X175985662Y-121876246D01*
X175959235Y-121881840D01*
X175926534Y-121884350D01*
X175881333Y-121884989D01*
X175870000Y-121885000D01*
X175821255Y-121884567D01*
X175786362Y-121882496D01*
X175759178Y-121877628D01*
X175733559Y-121868801D01*
X175703363Y-121854857D01*
X175698986Y-121852708D01*
X175687008Y-121846931D01*
X175676410Y-121841787D01*
X175666249Y-121836388D01*
X175655582Y-121829846D01*
X175643469Y-121821273D01*
X175628965Y-121809778D01*
X175611131Y-121794474D01*
X175589022Y-121774473D01*
X175561697Y-121748885D01*
X175528214Y-121716822D01*
X175487631Y-121677396D01*
X175439005Y-121629717D01*
X175381394Y-121572898D01*
X175313856Y-121506049D01*
X175235450Y-121428282D01*
X175145232Y-121338709D01*
X175042260Y-121236441D01*
X174980000Y-121174610D01*
X174880695Y-121076041D01*
X174794456Y-120990575D01*
X174720186Y-120917193D01*
X174656788Y-120854877D01*
X174603166Y-120802608D01*
X174558223Y-120759365D01*
X174520862Y-120724131D01*
X174489988Y-120695886D01*
X174464503Y-120673611D01*
X174443311Y-120656288D01*
X174425316Y-120642897D01*
X174409420Y-120632419D01*
X174394528Y-120623835D01*
X174379543Y-120616126D01*
X174378459Y-120615591D01*
X174291120Y-120583326D01*
X174200824Y-120570426D01*
X174109487Y-120576858D01*
X174019029Y-120602594D01*
X173975746Y-120622169D01*
X173913237Y-120664026D01*
X173855953Y-120721261D01*
X173807225Y-120789343D01*
X173770383Y-120863740D01*
X173751017Y-120927992D01*
X173748672Y-120948777D01*
X173746614Y-120987363D01*
X173744840Y-121044023D01*
X173743347Y-121119032D01*
X173742131Y-121212663D01*
X173741187Y-121325189D01*
X173740514Y-121456886D01*
X173740107Y-121608027D01*
X173739962Y-121778887D01*
X173739962Y-121782992D01*
X173739945Y-121928422D01*
X173739886Y-122055195D01*
X173739754Y-122164655D01*
X173739514Y-122258146D01*
X173739136Y-122337010D01*
X173738586Y-122402592D01*
X173737831Y-122456234D01*
X173736840Y-122499281D01*
X173735580Y-122533076D01*
X173734018Y-122558961D01*
X173732122Y-122578281D01*
X173729859Y-122592380D01*
X173727197Y-122602600D01*
X173724102Y-122610284D01*
X173720544Y-122616778D01*
X173719743Y-122618101D01*
X173687786Y-122652853D01*
X173646103Y-122673194D01*
X173599925Y-122677989D01*
X173554485Y-122666104D01*
X173538978Y-122657300D01*
X173526905Y-122649558D01*
X173516311Y-122642634D01*
X173507106Y-122635246D01*
X173499196Y-122626109D01*
X173492491Y-122613937D01*
X173486897Y-122597448D01*
X173482325Y-122575357D01*
X173478680Y-122546379D01*
X173475872Y-122509231D01*
X173473809Y-122462627D01*
X173472398Y-122405283D01*
X173471549Y-122335916D01*
X173471168Y-122253241D01*
X173471164Y-122155973D01*
X173471445Y-122042828D01*
X173471920Y-121912522D01*
X173472496Y-121763771D01*
X173472621Y-121730000D01*
X173475681Y-120895000D01*
X173498523Y-120820163D01*
X173543105Y-120704801D01*
X173602336Y-120603040D01*
X173676350Y-120514721D01*
X173765284Y-120439682D01*
X173869272Y-120377765D01*
X173875000Y-120374947D01*
X173987086Y-120330837D01*
X174101159Y-120306109D01*
X174215499Y-120300573D01*
X174328387Y-120314042D01*
X174438105Y-120346328D01*
X174542933Y-120397243D01*
X174630000Y-120457491D01*
X174646616Y-120472158D01*
X174676028Y-120499630D01*
X174716876Y-120538583D01*
X174767798Y-120587694D01*
X174827434Y-120645639D01*
X174894423Y-120711096D01*
X174967405Y-120782742D01*
X175045019Y-120859252D01*
X175125904Y-120939303D01*
X175150069Y-120963279D01*
X175233372Y-121045939D01*
X175315065Y-121126918D01*
X175393609Y-121204696D01*
X175467468Y-121277756D01*
X175535104Y-121344578D01*
X175594981Y-121403646D01*
X175645562Y-121453439D01*
X175685309Y-121492441D01*
X175712685Y-121519132D01*
X175716168Y-121522500D01*
X175817198Y-121620000D01*
X175869775Y-121620000D01*
X175902386Y-121618500D01*
X175925084Y-121611445D01*
X175946898Y-121594999D01*
X175961176Y-121581176D01*
X175984463Y-121555571D01*
X175996045Y-121533910D01*
X175999809Y-121507614D01*
X176000000Y-121495519D01*
X175997863Y-121462949D01*
X175992489Y-121436329D01*
X175989783Y-121429596D01*
X175981197Y-121419659D01*
X175959493Y-121396789D01*
X175925787Y-121362108D01*
X175881191Y-121316737D01*
X175826818Y-121261798D01*
X175763782Y-121198413D01*
X175693196Y-121127702D01*
X175616173Y-121050788D01*
X175533826Y-120968792D01*
X175447270Y-120882835D01*
X175432283Y-120867975D01*
X175326788Y-120763396D01*
X175211383Y-120648994D01*
X175089057Y-120527730D01*
X174962795Y-120402566D01*
X174835586Y-120276463D01*
X174710418Y-120152383D01*
X174590277Y-120033286D01*
X174478151Y-119922136D01*
X174377028Y-119821893D01*
X174370299Y-119815222D01*
X174249813Y-119695779D01*
X174142702Y-119589567D01*
X174048135Y-119495736D01*
X173965283Y-119413435D01*
X173893316Y-119341815D01*
X173831403Y-119280026D01*
X173778715Y-119227220D01*
X173734423Y-119182545D01*
X173697695Y-119145154D01*
X173667703Y-119114195D01*
X173643616Y-119088819D01*
X173624604Y-119068177D01*
X173609838Y-119051418D01*
X173598487Y-119037694D01*
X173589722Y-119026155D01*
X173582713Y-119015951D01*
X173576629Y-119006232D01*
X173571228Y-118997143D01*
X173520814Y-118893550D01*
X173489028Y-118787631D01*
X173475016Y-118681152D01*
X173477926Y-118575880D01*
X173496907Y-118473581D01*
X173531106Y-118376021D01*
X173579670Y-118284966D01*
X173641747Y-118202183D01*
X173716486Y-118129438D01*
X173803033Y-118068497D01*
X173900538Y-118021126D01*
X174008146Y-117989092D01*
X174062110Y-117979817D01*
X174176555Y-117974374D01*
X174288284Y-117988519D01*
X174396067Y-118021895D01*
X174498678Y-118074147D01*
X174575709Y-118128887D01*
X174635130Y-118176967D01*
X174675065Y-118162234D01*
X174723402Y-118151230D01*
X174782762Y-118147955D01*
X174845752Y-118152341D01*
X174904975Y-118164321D01*
X174905000Y-118164328D01*
X174967139Y-118186659D01*
X175036510Y-118219022D01*
X175108449Y-118258560D01*
X175178295Y-118302412D01*
X175241386Y-118347720D01*
X175293061Y-118391624D01*
X175317908Y-118417572D01*
X175374362Y-118482075D01*
X175422278Y-118532149D01*
X175464601Y-118569738D01*
X175504277Y-118596790D01*
X175544251Y-118615248D01*
X175587469Y-118627059D01*
X175636876Y-118634168D01*
X175647364Y-118635162D01*
X175688241Y-118640499D01*
X175724123Y-118648189D01*
X175747950Y-118656678D01*
X175749698Y-118657699D01*
X175764845Y-118669113D01*
X175792387Y-118691675D01*
X175830196Y-118723520D01*
X175876145Y-118762783D01*
X175928104Y-118807600D01*
X175983947Y-118856107D01*
X176041544Y-118906438D01*
X176098770Y-118956730D01*
X176153494Y-119005117D01*
X176203590Y-119049735D01*
X176246929Y-119088719D01*
X176281384Y-119120205D01*
X176304826Y-119142329D01*
X176314996Y-119153029D01*
X176326289Y-119182734D01*
X176329379Y-119222237D01*
X176324310Y-119263112D01*
X176314290Y-119291372D01*
X176289976Y-119319737D01*
X176253386Y-119341945D01*
X176212060Y-119354518D01*
X176176916Y-119354699D01*
X176165321Y-119351957D01*
X176153126Y-119347331D01*
X176138734Y-119339566D01*
X176120549Y-119327407D01*
X176096973Y-119309598D01*
X176066410Y-119284885D01*
X176027263Y-119252011D01*
X175977936Y-119209723D01*
X175916831Y-119156764D01*
X175842351Y-119091879D01*
X175840197Y-119090000D01*
X175778065Y-119035871D01*
X175728905Y-118993418D01*
X175690632Y-118961149D01*
X175661165Y-118937574D01*
X175638418Y-118921201D01*
X175620310Y-118910539D01*
X175604757Y-118904097D01*
X175589675Y-118900385D01*
X175572982Y-118897910D01*
X175571562Y-118897727D01*
X175475021Y-118875532D01*
X175380777Y-118834897D01*
X175291294Y-118777380D01*
X175209032Y-118704540D01*
X175142371Y-118626044D01*
X175109024Y-118590093D01*
X175061590Y-118550944D01*
X175004991Y-118511626D01*
X174944149Y-118475163D01*
X174883985Y-118444582D01*
X174829420Y-118422910D01*
X174799228Y-118415023D01*
X174775821Y-118412610D01*
X174758562Y-118418354D01*
X174739707Y-118435643D01*
X174731728Y-118444559D01*
X174712110Y-118470200D01*
X174702698Y-118494689D01*
X174700032Y-118527785D01*
X174700000Y-118534004D01*
X174708532Y-118590943D01*
X174732495Y-118653094D01*
X174769440Y-118716712D01*
X174816918Y-118778047D01*
X174872478Y-118833354D01*
X174919359Y-118869565D01*
X174996281Y-118932631D01*
X175061865Y-119008317D01*
X175113648Y-119092937D01*
X175149167Y-119182808D01*
X175160321Y-119230000D01*
X175167009Y-119266870D01*
X175172697Y-119298092D01*
X175175800Y-119315000D01*
X175177129Y-119319155D01*
X175180261Y-119324901D01*
X175185930Y-119333021D01*
X175194869Y-119344297D01*
X175207811Y-119359513D01*
X175225490Y-119379451D01*
X175248640Y-119404895D01*
X175277994Y-119436626D01*
X175314286Y-119475428D01*
X175358249Y-119522084D01*
X175410616Y-119577376D01*
X175472121Y-119642088D01*
X175543498Y-119717002D01*
X175625481Y-119802901D01*
X175718801Y-119900569D01*
X175824194Y-120010787D01*
X175942393Y-120134339D01*
X175994769Y-120189076D01*
X176074186Y-120271933D01*
X176149644Y-120350395D01*
X176219994Y-120423286D01*
X176284089Y-120489427D01*
X176340780Y-120547643D01*
X176388919Y-120596755D01*
X176427358Y-120635587D01*
X176454949Y-120662962D01*
X176470544Y-120677702D01*
X176473622Y-120680000D01*
X176482415Y-120673097D01*
X176503608Y-120653415D01*
X176535639Y-120622493D01*
X176576944Y-120581872D01*
X176625961Y-120533090D01*
X176681127Y-120477687D01*
X176740878Y-120417203D01*
X176755336Y-120402500D01*
X177027966Y-120125000D01*
X176953950Y-120055000D01*
X176920488Y-120022942D01*
X176899021Y-120000242D01*
X176886890Y-119982645D01*
X176881439Y-119965896D01*
X176880009Y-119945740D01*
X176879967Y-119936542D01*
X176887869Y-119882451D01*
X176911241Y-119840466D01*
X176940398Y-119816355D01*
X176974634Y-119804304D01*
X177016459Y-119800441D01*
X177055931Y-119805126D01*
X177073157Y-119811541D01*
X177090216Y-119823342D01*
X177118421Y-119845800D01*
X177154327Y-119875890D01*
X177194494Y-119910589D01*
X177235478Y-119946869D01*
X177273836Y-119981708D01*
X177306128Y-120012079D01*
X177328909Y-120034959D01*
X177334367Y-120041072D01*
X177353964Y-120077933D01*
X177360553Y-120121437D01*
X177353155Y-120162852D01*
X177349034Y-120171804D01*
X177346684Y-120179655D01*
X177348712Y-120189462D01*
X177356678Y-120203127D01*
X177372142Y-120222552D01*
X177396665Y-120249639D01*
X177431807Y-120286292D01*
X177479129Y-120334412D01*
X177498194Y-120353646D01*
X177552183Y-120408493D01*
X177593368Y-120451522D01*
X177623424Y-120484715D01*
X177644028Y-120510052D01*
X177656853Y-120529515D01*
X177663574Y-120545084D01*
X177664970Y-120550883D01*
X177663714Y-120595230D01*
X177645724Y-120643689D01*
X177627765Y-120672478D01*
X177623513Y-120682167D01*
X177626323Y-120693730D01*
X177638294Y-120710309D01*
X177661521Y-120735049D01*
X177685064Y-120758381D01*
X177853997Y-120923772D01*
X178008820Y-121075581D01*
X178149828Y-121214101D01*
X178277314Y-121339625D01*
X178391573Y-121452447D01*
X178492898Y-121552860D01*
X178581583Y-121641157D01*
X178657923Y-121717632D01*
X178722211Y-121782578D01*
X178774740Y-121836290D01*
X178815806Y-121879059D01*
X178845702Y-121911180D01*
X178864722Y-121932946D01*
X178872920Y-121944177D01*
X178890636Y-121995651D01*
X178896554Y-122055702D01*
X178890841Y-122116880D01*
X178873662Y-122171734D01*
X178867589Y-122183599D01*
X178853448Y-122211755D01*
X178845837Y-122233201D01*
X178845679Y-122241099D01*
X178855577Y-122250645D01*
X178877741Y-122269100D01*
X178908417Y-122293397D01*
X178929662Y-122309742D01*
X178977557Y-122347200D01*
X179011118Y-122376749D01*
X179032612Y-122401630D01*
X179044310Y-122425085D01*
X179048480Y-122450354D01*
X179047603Y-122478187D01*
X179034897Y-122529070D01*
X179007203Y-122568368D01*
X178966394Y-122593803D01*
X178947912Y-122599343D01*
X178917537Y-122602483D01*
X178886164Y-122596992D01*
X178850516Y-122581449D01*
X178807317Y-122554437D01*
X178754911Y-122515789D01*
X178718239Y-122487945D01*
X178686481Y-122464688D01*
X178663498Y-122448792D01*
X178654022Y-122443241D01*
X178638147Y-122445768D01*
X178616042Y-122458647D01*
X178610542Y-122463008D01*
X178559620Y-122494015D01*
X178498303Y-122513065D01*
X178432716Y-122519480D01*
X178368982Y-122512580D01*
X178319920Y-122495273D01*
X178304035Y-122483872D01*
X178276113Y-122460266D01*
X178238262Y-122426387D01*
X178192594Y-122384166D01*
X178141219Y-122335534D01*
X178086246Y-122282423D01*
X178070000Y-122266525D01*
X178006169Y-122203890D01*
X177932186Y-122131307D01*
X177852184Y-122052830D01*
X177770293Y-121972512D01*
X177690646Y-121894405D01*
X177617374Y-121822562D01*
X177605000Y-121810430D01*
X177537826Y-121744559D01*
X177467512Y-121675578D01*
X177397290Y-121606661D01*
X177330391Y-121540978D01*
X177270046Y-121481703D01*
X177219486Y-121432007D01*
X177203011Y-121415802D01*
X177051023Y-121266264D01*
X177000154Y-121293950D01*
X176966638Y-121310257D01*
X176940539Y-121316776D01*
X176913082Y-121315464D01*
X176907538Y-121314584D01*
X176892116Y-121310821D01*
X176876156Y-121303687D01*
X176857393Y-121291346D01*
X176833565Y-121271965D01*
X176802408Y-121243709D01*
X176761657Y-121204746D01*
X176712122Y-121156265D01*
X176666808Y-121111660D01*
X176626486Y-121071971D01*
X176622376Y-121067925D01*
X177240000Y-121067925D01*
X177246921Y-121076547D01*
X177266636Y-121097495D01*
X177297566Y-121129183D01*
X177338137Y-121170024D01*
X177386771Y-121218434D01*
X177441892Y-121272825D01*
X177501925Y-121331613D01*
X177507500Y-121337050D01*
X177575623Y-121403571D01*
X177654559Y-121480810D01*
X177740900Y-121565425D01*
X177831236Y-121654070D01*
X177922162Y-121743400D01*
X178010268Y-121830073D01*
X178092148Y-121910743D01*
X178105000Y-121923419D01*
X178172187Y-121989602D01*
X178235003Y-122051293D01*
X178292022Y-122107105D01*
X178341816Y-122155650D01*
X178382961Y-122195542D01*
X178414030Y-122225393D01*
X178433597Y-122243815D01*
X178440197Y-122249478D01*
X178448784Y-122242986D01*
X178468610Y-122224850D01*
X178496899Y-122197694D01*
X178530877Y-122164143D01*
X178538106Y-122156901D01*
X178630818Y-122063802D01*
X178177909Y-121619776D01*
X178093392Y-121536911D01*
X178008938Y-121454092D01*
X177926347Y-121373087D01*
X177847416Y-121295661D01*
X177773948Y-121223579D01*
X177707740Y-121158608D01*
X177650592Y-121102512D01*
X177604305Y-121057058D01*
X177573364Y-121026652D01*
X177421729Y-120877554D01*
X177330864Y-120968592D01*
X177296734Y-121003398D01*
X177268454Y-121033402D01*
X177248700Y-121055677D01*
X177240150Y-121067296D01*
X177240000Y-121067925D01*
X176622376Y-121067925D01*
X176593269Y-121039275D01*
X176569271Y-121015655D01*
G37*
G36*
X176626354Y-119445961D02*
G01*
X176667925Y-119463146D01*
X176703815Y-119492269D01*
X176729372Y-119529469D01*
X176739941Y-119570887D01*
X176740000Y-119574134D01*
X176730779Y-119619833D01*
X176705923Y-119660196D01*
X176669637Y-119690991D01*
X176626129Y-119707984D01*
X176605000Y-119710000D01*
X176575356Y-119705126D01*
X176543543Y-119693241D01*
X176540616Y-119691727D01*
X176502689Y-119661356D01*
X176479514Y-119621660D01*
X176471689Y-119577198D01*
X176479816Y-119532528D01*
X176504494Y-119492210D01*
X176513208Y-119483447D01*
X176542648Y-119462044D01*
X176574164Y-119447135D01*
X176583758Y-119444573D01*
X176626354Y-119445961D01*
G37*
G36*
X176030037Y-123842292D02*
G01*
X176030000Y-123619585D01*
X175827500Y-123622292D01*
X175625000Y-123625000D01*
X175622410Y-123975000D01*
X175621257Y-124085236D01*
X175619570Y-124177128D01*
X175617362Y-124250330D01*
X175614647Y-124304497D01*
X175611436Y-124339285D01*
X175608589Y-124352759D01*
X175585475Y-124385572D01*
X175549329Y-124410444D01*
X175506475Y-124424475D01*
X175463236Y-124424766D01*
X175455416Y-124423007D01*
X175413955Y-124402985D01*
X175381429Y-124370499D01*
X175374488Y-124359011D01*
X175370940Y-124349248D01*
X175367999Y-124333777D01*
X175365613Y-124310882D01*
X175363729Y-124278842D01*
X175362295Y-124235940D01*
X175361259Y-124180457D01*
X175360567Y-124110676D01*
X175360168Y-124024876D01*
X175360008Y-123921340D01*
X175360000Y-123884540D01*
X175360020Y-123778440D01*
X175360136Y-123690493D01*
X175360431Y-123618852D01*
X175360989Y-123561671D01*
X175361893Y-123517102D01*
X175363225Y-123483298D01*
X175365070Y-123458412D01*
X175367511Y-123440598D01*
X175370630Y-123428008D01*
X175374511Y-123418795D01*
X175379238Y-123411113D01*
X175381486Y-123407912D01*
X175393832Y-123391988D01*
X175407259Y-123379277D01*
X175424057Y-123369418D01*
X175446512Y-123362051D01*
X175476913Y-123356817D01*
X175517549Y-123353356D01*
X175570707Y-123351308D01*
X175638675Y-123350312D01*
X175723742Y-123350009D01*
X175749678Y-123350000D01*
X176030000Y-123350000D01*
X176030000Y-123129042D01*
X176030165Y-123079419D01*
X176030266Y-123049283D01*
X176031482Y-122986934D01*
X176034268Y-122939407D01*
X176039246Y-122904116D01*
X176047038Y-122878472D01*
X176058266Y-122859889D01*
X176073552Y-122845778D01*
X176093517Y-122833553D01*
X176102101Y-122829048D01*
X176114237Y-122823524D01*
X176128259Y-122819177D01*
X176146583Y-122815868D01*
X176171624Y-122813458D01*
X176205795Y-122811807D01*
X176251512Y-122810777D01*
X176311190Y-122810227D01*
X176387242Y-122810019D01*
X176432257Y-122810000D01*
X176517586Y-122810096D01*
X176585306Y-122810475D01*
X176637809Y-122811270D01*
X176677485Y-122812616D01*
X176706725Y-122814648D01*
X176727921Y-122817500D01*
X176743463Y-122821306D01*
X176755743Y-122826201D01*
X176760156Y-122828430D01*
X176793728Y-122856215D01*
X176821153Y-122898634D01*
X176834197Y-122932500D01*
X176836013Y-122935680D01*
X176840314Y-122938452D01*
X176848393Y-122940842D01*
X176861539Y-122942879D01*
X176881046Y-122944591D01*
X176908204Y-122946006D01*
X176944305Y-122947152D01*
X176990640Y-122948056D01*
X177048501Y-122948748D01*
X177119179Y-122949255D01*
X177203965Y-122949605D01*
X177304153Y-122949826D01*
X177421031Y-122949946D01*
X177555893Y-122949994D01*
X177640000Y-122950000D01*
X177785529Y-122949980D01*
X177912350Y-122949904D01*
X178021754Y-122949743D01*
X178115034Y-122949469D01*
X178193481Y-122949053D01*
X178258386Y-122948468D01*
X178311042Y-122947687D01*
X178352740Y-122946679D01*
X178384771Y-122945419D01*
X178408428Y-122943877D01*
X178425003Y-122942025D01*
X178435786Y-122939836D01*
X178442070Y-122937282D01*
X178445147Y-122934334D01*
X178445951Y-122932500D01*
X178469101Y-122879160D01*
X178501398Y-122842699D01*
X178524921Y-122828646D01*
X178538421Y-122823308D01*
X178554337Y-122819111D01*
X178575118Y-122815917D01*
X178603207Y-122813592D01*
X178641050Y-122811997D01*
X178691094Y-122810997D01*
X178755783Y-122810456D01*
X178837563Y-122810236D01*
X178855156Y-122810219D01*
X178946542Y-122810308D01*
X179020175Y-122811009D01*
X179078299Y-122812740D01*
X179123161Y-122815920D01*
X179157005Y-122820969D01*
X179182078Y-122828306D01*
X179200624Y-122838350D01*
X179214890Y-122851520D01*
X179227119Y-122868236D01*
X179235000Y-122881130D01*
X179242193Y-122895201D01*
X179247536Y-122911687D01*
X179251361Y-122933799D01*
X179253998Y-122964748D01*
X179255777Y-123007748D01*
X179257030Y-123066008D01*
X179257537Y-123100000D01*
X179258350Y-123161134D01*
X179259051Y-123217379D01*
X179259595Y-123264861D01*
X179259937Y-123299706D01*
X179260037Y-123317067D01*
X179260000Y-123349134D01*
X179549287Y-123352067D01*
X179633240Y-123352984D01*
X179699559Y-123353956D01*
X179750607Y-123355160D01*
X179788750Y-123356770D01*
X179816353Y-123358964D01*
X179835779Y-123361918D01*
X179849395Y-123365806D01*
X179859565Y-123370807D01*
X179866787Y-123375710D01*
X179881504Y-123386795D01*
X179893737Y-123397745D01*
X179903716Y-123410422D01*
X179911671Y-123426687D01*
X179917831Y-123448399D01*
X179922426Y-123477419D01*
X179925686Y-123515608D01*
X179927839Y-123564826D01*
X179929116Y-123626934D01*
X179929746Y-123703792D01*
X179929960Y-123797260D01*
X179929984Y-123887821D01*
X179929932Y-123996636D01*
X179929635Y-124087301D01*
X179928895Y-124161665D01*
X179927513Y-124221577D01*
X179925290Y-124268886D01*
X179922028Y-124305442D01*
X179917528Y-124333093D01*
X179911592Y-124353690D01*
X179904021Y-124369081D01*
X179894616Y-124381117D01*
X179883180Y-124391645D01*
X179875197Y-124398058D01*
X179832980Y-124419732D01*
X179786403Y-124425134D01*
X179740753Y-124415152D01*
X179701316Y-124390672D01*
X179680192Y-124365310D01*
X179674863Y-124355859D01*
X179670563Y-124345117D01*
X179667182Y-124330968D01*
X179664610Y-124311291D01*
X179662737Y-124283969D01*
X179661452Y-124246883D01*
X179660646Y-124197913D01*
X179660208Y-124134942D01*
X179660030Y-124055851D01*
X179660000Y-123976319D01*
X179660000Y-123620000D01*
X179460000Y-123620000D01*
X179388373Y-123620293D01*
X179334751Y-123621257D01*
X179297145Y-123623016D01*
X179273568Y-123625693D01*
X179262032Y-123629414D01*
X179260048Y-123632500D01*
X179259946Y-123645872D01*
X179259632Y-123676085D01*
X179259142Y-123719982D01*
X179258512Y-123774405D01*
X179257776Y-123836196D01*
X179257548Y-123855000D01*
X179256613Y-123925107D01*
X179255528Y-123978157D01*
X179253971Y-124017090D01*
X179251623Y-124044849D01*
X179248162Y-124064375D01*
X179243270Y-124078608D01*
X179236625Y-124090492D01*
X179231013Y-124098631D01*
X179218386Y-124115189D01*
X179205134Y-124128470D01*
X179189006Y-124138835D01*
X179167751Y-124146644D01*
X179139120Y-124152257D01*
X179100863Y-124156034D01*
X179050729Y-124158336D01*
X178986468Y-124159522D01*
X178905830Y-124159953D01*
X178847665Y-124160000D01*
X178762348Y-124159903D01*
X178694639Y-124159524D01*
X178642147Y-124158728D01*
X178602481Y-124157381D01*
X178573248Y-124155349D01*
X178552059Y-124152496D01*
X178536520Y-124148688D01*
X178524242Y-124143791D01*
X178519843Y-124141569D01*
X178486271Y-124113784D01*
X178458846Y-124071365D01*
X178445802Y-124037500D01*
X178443986Y-124034319D01*
X178439685Y-124031547D01*
X178431606Y-124029157D01*
X178418460Y-124027120D01*
X178398953Y-124025408D01*
X178371795Y-124023993D01*
X178335694Y-124022847D01*
X178289359Y-124021943D01*
X178231498Y-124021251D01*
X178160820Y-124020744D01*
X178076034Y-124020394D01*
X177975846Y-124020173D01*
X177858968Y-124020053D01*
X177724106Y-124020005D01*
X177639999Y-124020000D01*
X177494472Y-124020019D01*
X177367653Y-124020095D01*
X177258251Y-124020256D01*
X177164974Y-124020530D01*
X177086532Y-124020945D01*
X177021632Y-124021530D01*
X176968983Y-124022312D01*
X176927294Y-124023318D01*
X176895273Y-124024579D01*
X176871628Y-124026120D01*
X176855069Y-124027971D01*
X176844303Y-124030160D01*
X176838040Y-124032714D01*
X176834987Y-124035661D01*
X176834197Y-124037500D01*
X176812481Y-124088749D01*
X176782630Y-124126697D01*
X176760000Y-124142484D01*
X176747885Y-124147589D01*
X176732742Y-124151607D01*
X176712194Y-124154665D01*
X176683868Y-124156890D01*
X176645389Y-124158407D01*
X176594383Y-124159344D01*
X176528474Y-124159826D01*
X176445289Y-124159981D01*
X176431511Y-124159984D01*
X176331378Y-124160102D01*
X176249418Y-124159486D01*
X176183814Y-124156700D01*
X176132752Y-124150306D01*
X176094415Y-124138869D01*
X176066989Y-124120952D01*
X176048657Y-124095119D01*
X176037605Y-124059931D01*
X176032017Y-124013954D01*
X176030077Y-123955751D01*
X176029980Y-123890580D01*
X178720000Y-123890580D01*
X178850623Y-123887790D01*
X178981247Y-123885000D01*
X178980712Y-123485000D01*
X178980176Y-123085000D01*
X178850088Y-123082209D01*
X178720000Y-123079419D01*
X178720000Y-123890580D01*
X176029980Y-123890580D01*
X176029979Y-123890000D01*
X176300000Y-123890000D01*
X176430000Y-123890000D01*
X176485546Y-123889257D01*
X176527115Y-123887138D01*
X176552620Y-123883801D01*
X176560121Y-123880000D01*
X176560149Y-123868076D01*
X176560174Y-123838386D01*
X176560196Y-123793162D01*
X176560215Y-123734637D01*
X176560229Y-123665044D01*
X176560236Y-123612940D01*
X176832045Y-123612940D01*
X176832154Y-123666894D01*
X176832541Y-123708782D01*
X176833195Y-123735812D01*
X176833942Y-123745000D01*
X176844678Y-123747029D01*
X176875251Y-123748760D01*
X176925501Y-123750192D01*
X176995265Y-123751324D01*
X177084384Y-123752154D01*
X177192697Y-123752680D01*
X177320043Y-123752901D01*
X177466261Y-123752816D01*
X177631190Y-123752422D01*
X177643725Y-123752382D01*
X178450000Y-123749765D01*
X178450000Y-123219881D01*
X177642500Y-123222440D01*
X176835000Y-123225000D01*
X176832717Y-123480000D01*
X176832228Y-123549711D01*
X176832045Y-123612940D01*
X176560236Y-123612940D01*
X176560239Y-123586617D01*
X176560243Y-123501587D01*
X176560243Y-123485000D01*
X176560240Y-123398976D01*
X176560232Y-123319133D01*
X176560218Y-123247703D01*
X176560200Y-123186921D01*
X176560178Y-123139018D01*
X176560154Y-123106229D01*
X176560127Y-123090785D01*
X176560121Y-123090000D01*
X176550422Y-123085727D01*
X176522829Y-123082532D01*
X176479429Y-123080573D01*
X176430000Y-123080000D01*
X176300000Y-123080000D01*
X176300000Y-123890000D01*
X176029979Y-123890000D01*
X176029970Y-123883884D01*
X176030037Y-123842292D01*
G37*
G36*
X179033961Y-117977486D02*
G01*
X179073338Y-117995205D01*
X179104796Y-118025817D01*
X179124732Y-118067860D01*
X179129962Y-118107729D01*
X179126742Y-118136853D01*
X179115743Y-118169540D01*
X179095030Y-118211023D01*
X179085622Y-118227729D01*
X179050822Y-118293255D01*
X179025775Y-118353802D01*
X179009135Y-118414927D01*
X178999557Y-118482189D01*
X178995694Y-118561146D01*
X178995455Y-118600000D01*
X178995984Y-118659486D01*
X178997548Y-118703993D01*
X179000762Y-118738537D01*
X179006239Y-118768136D01*
X179014593Y-118797805D01*
X179022542Y-118821481D01*
X179039533Y-118865048D01*
X179062632Y-118917388D01*
X179087977Y-118969939D01*
X179099663Y-118992455D01*
X179148325Y-119092378D01*
X179183829Y-119186939D01*
X179208691Y-119283201D01*
X179214832Y-119315642D01*
X179228718Y-119452419D01*
X179223620Y-119590632D01*
X179200078Y-119727377D01*
X179158631Y-119859750D01*
X179099818Y-119984847D01*
X179086119Y-120008569D01*
X179053935Y-120057788D01*
X179024451Y-120090759D01*
X178994015Y-120110197D01*
X178958974Y-120118819D01*
X178936323Y-120119934D01*
X178905531Y-120118219D01*
X178883183Y-120110396D01*
X178860555Y-120092600D01*
X178848823Y-120081176D01*
X178825657Y-120055800D01*
X178814092Y-120034367D01*
X178810260Y-120008148D01*
X178810025Y-119993676D01*
X178813694Y-119956194D01*
X178826562Y-119919945D01*
X178842856Y-119890000D01*
X178898537Y-119782277D01*
X178935612Y-119675722D01*
X178954952Y-119566948D01*
X178957425Y-119452571D01*
X178957054Y-119445408D01*
X178953081Y-119392234D01*
X178946751Y-119345566D01*
X178936767Y-119301243D01*
X178921831Y-119255099D01*
X178900644Y-119202972D01*
X178871909Y-119140697D01*
X178844709Y-119085000D01*
X178805982Y-119004437D01*
X178776457Y-118936067D01*
X178754938Y-118874994D01*
X178740230Y-118816325D01*
X178731137Y-118755167D01*
X178726463Y-118686626D01*
X178725014Y-118605808D01*
X178725000Y-118595000D01*
X178725366Y-118527951D01*
X178726743Y-118476242D01*
X178729550Y-118435222D01*
X178734205Y-118400239D01*
X178741127Y-118366641D01*
X178747937Y-118340000D01*
X178765514Y-118284507D01*
X178788993Y-118224024D01*
X178816171Y-118163110D01*
X178844844Y-118106324D01*
X178872809Y-118058225D01*
X178897863Y-118023374D01*
X178904372Y-118016294D01*
X178945872Y-117986569D01*
X178990271Y-117974120D01*
X179033961Y-117977486D01*
G37*
G36*
X178324465Y-118925264D02*
G01*
X178363701Y-118951674D01*
X178402066Y-118995379D01*
X178440768Y-119057363D01*
X178465267Y-119105000D01*
X178502910Y-119190614D01*
X178529006Y-119270717D01*
X178545097Y-119352182D01*
X178552725Y-119441882D01*
X178553878Y-119500000D01*
X178551972Y-119578922D01*
X178545180Y-119650028D01*
X178532315Y-119717202D01*
X178512192Y-119784328D01*
X178483623Y-119855292D01*
X178445421Y-119933977D01*
X178396400Y-120024269D01*
X178390548Y-120034632D01*
X178348308Y-120128925D01*
X178323240Y-120230051D01*
X178315365Y-120334561D01*
X178324702Y-120439003D01*
X178351271Y-120539928D01*
X178387214Y-120620000D01*
X178419725Y-120679686D01*
X178443417Y-120724953D01*
X178459159Y-120758877D01*
X178467823Y-120784534D01*
X178470279Y-120805001D01*
X178467397Y-120823353D01*
X178460048Y-120842668D01*
X178453935Y-120855831D01*
X178425844Y-120893541D01*
X178386366Y-120918482D01*
X178340629Y-120929168D01*
X178293759Y-120924116D01*
X178263789Y-120910893D01*
X178238528Y-120888275D01*
X178209212Y-120850416D01*
X178177959Y-120801100D01*
X178146885Y-120744111D01*
X178118107Y-120683234D01*
X178093741Y-120622250D01*
X178081466Y-120585000D01*
X178060676Y-120495870D01*
X178048272Y-120400303D01*
X178045024Y-120306657D01*
X178049569Y-120238464D01*
X178062948Y-120153562D01*
X178081891Y-120076172D01*
X178108320Y-120000967D01*
X178144154Y-119922621D01*
X178191316Y-119835806D01*
X178200495Y-119820000D01*
X178242029Y-119737208D01*
X178268733Y-119653859D01*
X178282186Y-119563844D01*
X178284569Y-119495000D01*
X178283637Y-119440564D01*
X178280472Y-119398870D01*
X178274009Y-119362691D01*
X178263180Y-119324804D01*
X178256504Y-119305000D01*
X178237567Y-119257381D01*
X178214009Y-119207757D01*
X178190750Y-119166449D01*
X178189528Y-119164547D01*
X178158614Y-119109999D01*
X178143059Y-119064394D01*
X178142013Y-119024965D01*
X178143820Y-119016138D01*
X178161728Y-118979115D01*
X178192470Y-118945912D01*
X178229130Y-118923518D01*
X178238545Y-118920391D01*
X178283149Y-118915164D01*
X178324465Y-118925264D01*
G37*
%TO.C,JP8*%
X166500000Y-91424000D02*
X163700000Y-91424000D01*
X163700000Y-89424000D02*
X166500000Y-89424000D01*
X163700000Y-91424000D02*
X163700000Y-89424000D01*
X166500000Y-89424000D02*
X166500000Y-91424000D01*
%TO.C,D2*%
X131981541Y-84576409D02*
X130376409Y-86181541D01*
X130376409Y-86181541D02*
X133123519Y-88928651D01*
X134728651Y-87323519D02*
X131981541Y-84576409D01*
%TO.C,J6*%
X109530000Y-96610000D02*
X109530000Y-88930000D01*
X109530000Y-88930000D02*
X106870000Y-88930000D01*
X109530000Y-99210000D02*
X108200000Y-99210000D01*
X109530000Y-97880000D02*
X109530000Y-99210000D01*
X106870000Y-96610000D02*
X106870000Y-88930000D01*
X109530000Y-96610000D02*
X106870000Y-96610000D01*
%TO.C,R20*%
X174602000Y-82485354D02*
X174602000Y-82939482D01*
X176072000Y-82485354D02*
X176072000Y-82939482D01*
%TO.C,R10*%
X121893064Y-87095000D02*
X121438936Y-87095000D01*
X121893064Y-85625000D02*
X121438936Y-85625000D01*
%TO.C,U10*%
X156690000Y-129000000D02*
X156690000Y-127050000D01*
X161810000Y-129000000D02*
X161810000Y-125550000D01*
X161810000Y-129000000D02*
X161810000Y-130950000D01*
X156690000Y-129000000D02*
X156690000Y-130950000D01*
%TO.C,C11*%
X136993259Y-95467294D02*
X136623792Y-95836761D01*
X138032706Y-96506741D02*
X137663239Y-96876208D01*
%TO.C,J12*%
X115590000Y-134910000D02*
X127810000Y-134910000D01*
X125200000Y-133100000D02*
X125200000Y-134910000D01*
X123200000Y-134910000D02*
X123200000Y-133100000D01*
X115590000Y-134100000D02*
X118090000Y-134100000D01*
X127810000Y-134100000D02*
X125310000Y-134100000D01*
X125200000Y-134910000D02*
X123200000Y-134910000D01*
X123900000Y-135710000D02*
X124200000Y-135110000D01*
X120200000Y-133100000D02*
X120200000Y-134910000D01*
X126900000Y-127800000D02*
X126900000Y-133100000D01*
X118200000Y-134910000D02*
X118200000Y-133100000D01*
X126900000Y-133100000D02*
X116500000Y-133100000D01*
X116500000Y-133100000D02*
X116500000Y-127800000D01*
X124500000Y-135710000D02*
X123900000Y-135710000D01*
X118200000Y-133100000D02*
X120200000Y-133100000D01*
X123200000Y-134100000D02*
X120200000Y-134100000D01*
X120200000Y-134910000D02*
X118200000Y-134910000D01*
X115590000Y-126090000D02*
X115590000Y-134910000D01*
X116500000Y-127800000D02*
X117200000Y-127800000D01*
X127810000Y-134910000D02*
X127810000Y-126090000D01*
X123200000Y-133100000D02*
X125200000Y-133100000D01*
X124200000Y-135110000D02*
X124500000Y-135710000D01*
X127810000Y-126090000D02*
X115590000Y-126090000D01*
X126200000Y-127800000D02*
X126900000Y-127800000D01*
X122200000Y-127800000D02*
X121200000Y-127800000D01*
X121200000Y-127800000D02*
G75*
G03*
X117213158Y-127784179I-2000000J-1650000D01*
G01*
X126200000Y-127800000D02*
G75*
G03*
X122213158Y-127784179I-2000000J-1650000D01*
G01*
%TO.C,R15*%
X158765000Y-104260436D02*
X158765000Y-104714564D01*
X160235000Y-104260436D02*
X160235000Y-104714564D01*
%TO.C,R31*%
X142022936Y-119835000D02*
X142477064Y-119835000D01*
X142022936Y-118365000D02*
X142477064Y-118365000D01*
%TO.C,C9*%
X145197067Y-83263486D02*
X145566534Y-82894019D01*
X146236514Y-84302933D02*
X146605981Y-83933466D01*
%TO.C,R8*%
X135559165Y-84719718D02*
X135880282Y-85040835D01*
X134519718Y-85759165D02*
X134840835Y-86080282D01*
%TO.C,kibuzzard-619F1F8F*%
G36*
X126362354Y-88900000D02*
G01*
X126778103Y-89523623D01*
X124173897Y-89523623D01*
X124262092Y-89391331D01*
X124721937Y-89391331D01*
X124925137Y-89391331D01*
X124969587Y-89164319D01*
X125231525Y-89164319D01*
X125277562Y-89391331D01*
X125487113Y-89391331D01*
X125460919Y-89279921D01*
X125434407Y-89171748D01*
X125407579Y-89066815D01*
X125380432Y-88965119D01*
X125352969Y-88866662D01*
X125318391Y-88747253D01*
X125283714Y-88631117D01*
X125278272Y-88613456D01*
X125577600Y-88613456D01*
X125641100Y-88775381D01*
X125737938Y-88736487D01*
X125839538Y-88680131D01*
X125839538Y-89229406D01*
X125633163Y-89229406D01*
X125633163Y-89391331D01*
X126230063Y-89391331D01*
X126230063Y-89229406D01*
X126034800Y-89229406D01*
X126034800Y-88408669D01*
X125901450Y-88408669D01*
X125833188Y-88470581D01*
X125749050Y-88527731D01*
X125660150Y-88576944D01*
X125577600Y-88613456D01*
X125278272Y-88613456D01*
X125248938Y-88518256D01*
X125214062Y-88408669D01*
X125001337Y-88408669D01*
X124967702Y-88517363D01*
X124933472Y-88629133D01*
X124898646Y-88743979D01*
X124863225Y-88861900D01*
X124834713Y-88959531D01*
X124806329Y-89061290D01*
X124778071Y-89167176D01*
X124749941Y-89277190D01*
X124721937Y-89391331D01*
X124262092Y-89391331D01*
X124589646Y-88900000D01*
X124173897Y-88276377D01*
X126778103Y-88276377D01*
X126362354Y-88900000D01*
G37*
G36*
X125132306Y-88704737D02*
G01*
X125157706Y-88803162D01*
X125179137Y-88900794D01*
X125198187Y-89002394D01*
X125006100Y-89002394D01*
X125025944Y-88900794D01*
X125048169Y-88803162D01*
X125073569Y-88704737D01*
X125102937Y-88599169D01*
X125132306Y-88704737D01*
G37*
%TO.C,JP1*%
X122412000Y-93850000D02*
X122412000Y-96650000D01*
X122412000Y-96650000D02*
X120412000Y-96650000D01*
X120412000Y-93850000D02*
X122412000Y-93850000D01*
X120412000Y-96650000D02*
X120412000Y-93850000D01*
%TO.C,Q1*%
X172315111Y-91808500D02*
X171665111Y-91808500D01*
X172315111Y-94928500D02*
X171665111Y-94928500D01*
X172315111Y-91808500D02*
X172965111Y-91808500D01*
X172315111Y-94928500D02*
X173990111Y-94928500D01*
%TO.C,R35*%
X126372936Y-114465000D02*
X126827064Y-114465000D01*
X126372936Y-115935000D02*
X126827064Y-115935000D01*
%TO.C,JP3*%
X114090000Y-89850000D02*
X114090000Y-87900000D01*
X119590000Y-87900000D02*
X119590000Y-89850000D01*
X115740000Y-90400000D02*
X115440000Y-90100000D01*
X114090000Y-87900000D02*
X119590000Y-87900000D01*
X115140000Y-90400000D02*
X115740000Y-90400000D01*
X119590000Y-89850000D02*
X114090000Y-89850000D01*
X115440000Y-90100000D02*
X115140000Y-90400000D01*
%TO.C,R9*%
X138569718Y-97640835D02*
X138890835Y-97319718D01*
X139609165Y-98680282D02*
X139930282Y-98359165D01*
%TO.C,kibuzzard-6198C929*%
G36*
X160653412Y-97738406D02*
G01*
X160718500Y-97812225D01*
X160751837Y-97918587D01*
X160761362Y-98042412D01*
X160758386Y-98112461D01*
X160749456Y-98176556D01*
X160709769Y-98282125D01*
X160636744Y-98351975D01*
X160524825Y-98377375D01*
X160507362Y-98377375D01*
X160489900Y-98375788D01*
X160489900Y-97715387D01*
X160518475Y-97711419D01*
X160547050Y-97710625D01*
X160653412Y-97738406D01*
G37*
G36*
X161412634Y-97719753D02*
G01*
X161467800Y-97747137D01*
X161503519Y-97793969D01*
X161515425Y-97861437D01*
X161470975Y-97971769D01*
X161412634Y-98000939D01*
X161326513Y-98010662D01*
X161283650Y-98010662D01*
X161283650Y-97715387D01*
X161315400Y-97711419D01*
X161342388Y-97710625D01*
X161412634Y-97719753D01*
G37*
G36*
X159859662Y-97738406D02*
G01*
X159924750Y-97812225D01*
X159958087Y-97918587D01*
X159967612Y-98042412D01*
X159964636Y-98112461D01*
X159955706Y-98176556D01*
X159916019Y-98282125D01*
X159842994Y-98351975D01*
X159731075Y-98377375D01*
X159713612Y-98377375D01*
X159696150Y-98375788D01*
X159696150Y-97715387D01*
X159724725Y-97711419D01*
X159753300Y-97710625D01*
X159859662Y-97738406D01*
G37*
G36*
X158944910Y-98044000D02*
G01*
X159368596Y-97408471D01*
X163127090Y-97408471D01*
X162703404Y-98044000D01*
X163127090Y-98679529D01*
X159368596Y-98679529D01*
X159264527Y-98523425D01*
X159500887Y-98523425D01*
X159608044Y-98541681D01*
X159710437Y-98547238D01*
X159806283Y-98540292D01*
X159877124Y-98523425D01*
X160294637Y-98523425D01*
X160401794Y-98541681D01*
X160504187Y-98547238D01*
X160600033Y-98540292D01*
X160624200Y-98534538D01*
X161088388Y-98534538D01*
X161283650Y-98534538D01*
X161283650Y-98172588D01*
X161385250Y-98172588D01*
X161439027Y-98262480D01*
X161489231Y-98351181D01*
X161534673Y-98441073D01*
X161574163Y-98534538D01*
X161778950Y-98534538D01*
X161733706Y-98430556D01*
X161678938Y-98321019D01*
X161620200Y-98216244D01*
X161563050Y-98124963D01*
X161632503Y-98080116D01*
X161678938Y-98018600D01*
X161705131Y-97944781D01*
X161713863Y-97863025D01*
X161707314Y-97785833D01*
X161687669Y-97719356D01*
X161612263Y-97618550D01*
X161558288Y-97584022D01*
X161494788Y-97559812D01*
X161454660Y-97551875D01*
X161817050Y-97551875D01*
X161857884Y-97658149D01*
X161899953Y-97761072D01*
X161943256Y-97860644D01*
X161989558Y-97959333D01*
X162040623Y-98059610D01*
X162096450Y-98161475D01*
X162096450Y-98534538D01*
X162293300Y-98534538D01*
X162293300Y-98159888D01*
X162336163Y-98083092D01*
X162375850Y-98008281D01*
X162412759Y-97934264D01*
X162447288Y-97859850D01*
X162479831Y-97784841D01*
X162510788Y-97709037D01*
X162540950Y-97631647D01*
X162571113Y-97551875D01*
X162369500Y-97551875D01*
X162330606Y-97666175D01*
X162308778Y-97729278D01*
X162286156Y-97791588D01*
X162240119Y-97909062D01*
X162199638Y-98001137D01*
X162152806Y-97897752D01*
X162107563Y-97784444D01*
X162065097Y-97667167D01*
X162026600Y-97551875D01*
X161817050Y-97551875D01*
X161454660Y-97551875D01*
X161422556Y-97545525D01*
X161342388Y-97540762D01*
X161286825Y-97542350D01*
X161220150Y-97546319D01*
X161151094Y-97554256D01*
X161088388Y-97566162D01*
X161088388Y-98534538D01*
X160624200Y-98534538D01*
X160687544Y-98519456D01*
X160765133Y-98483539D01*
X160831212Y-98431350D01*
X160884989Y-98362095D01*
X160925669Y-98274981D01*
X160951267Y-98168817D01*
X160959800Y-98042412D01*
X160952061Y-97918786D01*
X160928844Y-97814606D01*
X160891736Y-97728484D01*
X160842325Y-97659031D01*
X160780611Y-97606048D01*
X160706594Y-97569337D01*
X160622258Y-97547906D01*
X160529587Y-97540762D01*
X160420050Y-97545525D01*
X160294637Y-97564575D01*
X160294637Y-98523425D01*
X159877124Y-98523425D01*
X159893794Y-98519456D01*
X159971383Y-98483539D01*
X160037462Y-98431350D01*
X160091239Y-98362095D01*
X160131919Y-98274981D01*
X160157517Y-98168817D01*
X160166050Y-98042412D01*
X160158311Y-97918786D01*
X160135094Y-97814606D01*
X160097986Y-97728484D01*
X160048575Y-97659031D01*
X159986861Y-97606048D01*
X159912844Y-97569337D01*
X159828508Y-97547906D01*
X159735837Y-97540762D01*
X159626300Y-97545525D01*
X159500887Y-97564575D01*
X159500887Y-98523425D01*
X159264527Y-98523425D01*
X158944910Y-98044000D01*
G37*
%TO.C,D3*%
X120620000Y-109380000D02*
X116380000Y-109380000D01*
X116380000Y-109380000D02*
X116380000Y-111620000D01*
X119780000Y-111620000D02*
X119780000Y-109380000D01*
X120020000Y-111620000D02*
X120020000Y-109380000D01*
X120620000Y-111620000D02*
X120620000Y-109380000D01*
X116380000Y-111620000D02*
X120620000Y-111620000D01*
X114460000Y-110500000D02*
X116380000Y-110500000D01*
X122540000Y-110500000D02*
X120620000Y-110500000D01*
X119900000Y-111620000D02*
X119900000Y-109380000D01*
%TO.C,R33*%
X142022936Y-123835000D02*
X142477064Y-123835000D01*
X142022936Y-122365000D02*
X142477064Y-122365000D01*
%TO.C,C14*%
X121639000Y-99001252D02*
X121639000Y-98478748D01*
X120169000Y-99001252D02*
X120169000Y-98478748D01*
%TO.C,BR2*%
X122200000Y-115800000D02*
X121400000Y-115800000D01*
X121400000Y-115800000D02*
X121400000Y-122200000D01*
X113800000Y-115800000D02*
X122200000Y-115800000D01*
X122200000Y-115800000D02*
X122200000Y-122200000D01*
X122200000Y-122200000D02*
X113800000Y-122200000D01*
X113800000Y-122200000D02*
X113800000Y-115800000D01*
%TO.C,TXD1*%
X170842607Y-78881000D02*
X170842607Y-77411000D01*
X168557607Y-78881000D02*
X170842607Y-78881000D01*
X170842607Y-77411000D02*
X168557607Y-77411000D01*
%TO.C,R28*%
X174597967Y-89517337D02*
X174597967Y-89971465D01*
X176067967Y-89517337D02*
X176067967Y-89971465D01*
%TO.C,JP4*%
X115740000Y-87860000D02*
X115440000Y-87560000D01*
X114090000Y-85360000D02*
X119590000Y-85360000D01*
X119590000Y-87310000D02*
X114090000Y-87310000D01*
X115140000Y-87860000D02*
X115740000Y-87860000D01*
X114090000Y-87310000D02*
X114090000Y-85360000D01*
X119590000Y-85360000D02*
X119590000Y-87310000D01*
X115440000Y-87560000D02*
X115140000Y-87860000D01*
%TO.C,J9*%
X106870000Y-75800000D02*
X106870000Y-74470000D01*
X106870000Y-87290000D02*
X109530000Y-87290000D01*
X109530000Y-77070000D02*
X109530000Y-87290000D01*
X106870000Y-74470000D02*
X108200000Y-74470000D01*
X106870000Y-77070000D02*
X106870000Y-87290000D01*
X106870000Y-77070000D02*
X109530000Y-77070000D01*
%TO.C,kibuzzard-6198C8D5*%
G36*
X162802848Y-92970714D02*
G01*
X163232885Y-93615768D01*
X161057128Y-93615768D01*
X160627091Y-92970714D01*
X161189419Y-92970714D01*
X161196265Y-93086701D01*
X161216804Y-93188598D01*
X161251034Y-93276407D01*
X161298957Y-93350127D01*
X161382918Y-93424210D01*
X161488751Y-93468660D01*
X161616457Y-93483477D01*
X161703174Y-93478119D01*
X161779175Y-93462045D01*
X161891094Y-93415214D01*
X161889065Y-93408864D01*
X162003807Y-93408864D01*
X162113344Y-93457283D01*
X162198672Y-93476928D01*
X162308607Y-93483477D01*
X162419996Y-93475098D01*
X162510748Y-93449963D01*
X162580863Y-93408070D01*
X162648133Y-93316987D01*
X162670557Y-93194552D01*
X162663810Y-93120534D01*
X162643569Y-93060408D01*
X162574513Y-92971508D01*
X162482438Y-92914358D01*
X162386394Y-92875464D01*
X162325276Y-92851651D01*
X162269713Y-92822283D01*
X162229232Y-92784183D01*
X162213357Y-92734176D01*
X162230643Y-92671558D01*
X162282501Y-92633988D01*
X162368932Y-92621464D01*
X162480851Y-92637339D01*
X162568957Y-92675439D01*
X162626107Y-92524626D01*
X162512601Y-92478589D01*
X162439377Y-92463111D01*
X162354644Y-92457951D01*
X162257366Y-92466595D01*
X162175080Y-92492524D01*
X162107788Y-92535739D01*
X162040518Y-92628608D01*
X162018094Y-92751639D01*
X162043494Y-92868320D01*
X162107788Y-92946901D01*
X162194307Y-92999289D01*
X162286382Y-93035802D01*
X162353057Y-93063583D01*
X162413382Y-93096920D01*
X162457832Y-93138989D01*
X162475294Y-93192964D01*
X162468151Y-93239795D01*
X162441957Y-93281070D01*
X162390363Y-93309645D01*
X162308607Y-93319964D01*
X162229430Y-93314408D01*
X162163351Y-93297739D01*
X162060957Y-93250114D01*
X162003807Y-93408864D01*
X161889065Y-93408864D01*
X161841882Y-93261227D01*
X161761713Y-93296152D01*
X161635507Y-93313614D01*
X161522199Y-93291191D01*
X161445800Y-93223920D01*
X161413610Y-93155393D01*
X161394295Y-93069404D01*
X161387857Y-92965951D01*
X161393215Y-92877051D01*
X161409288Y-92804026D01*
X161464850Y-92700045D01*
X161542638Y-92644483D01*
X161632332Y-92627814D01*
X161750600Y-92644483D01*
X161838707Y-92684964D01*
X161889507Y-92529389D01*
X161856963Y-92510339D01*
X161803782Y-92486526D01*
X161729963Y-92466683D01*
X161635507Y-92457951D01*
X161542440Y-92466484D01*
X161456913Y-92492083D01*
X161380713Y-92534151D01*
X161315625Y-92592095D01*
X161262643Y-92665319D01*
X161222757Y-92753226D01*
X161197754Y-92855223D01*
X161189419Y-92970714D01*
X160627091Y-92970714D01*
X161057128Y-92325660D01*
X163232885Y-92325660D01*
X162802848Y-92970714D01*
G37*
%TO.C,JP9*%
X163700000Y-88884000D02*
X163700000Y-86884000D01*
X166500000Y-88884000D02*
X163700000Y-88884000D01*
X163700000Y-86884000D02*
X166500000Y-86884000D01*
X166500000Y-86884000D02*
X166500000Y-88884000D01*
%TO.C,Q3*%
X172327455Y-98858238D02*
X171677455Y-98858238D01*
X172327455Y-101978238D02*
X171677455Y-101978238D01*
X172327455Y-101978238D02*
X174002455Y-101978238D01*
X172327455Y-98858238D02*
X172977455Y-98858238D01*
D11*
%TO.C,RV1*%
X154050000Y-135750000D02*
X154050000Y-123750000D01*
X148950000Y-123750000D02*
X154050000Y-123750000D01*
X148950000Y-135750000D02*
X154050000Y-135750000D01*
X148950000Y-135750000D02*
X148950000Y-123750000D01*
D13*
%TO.C,JP7*%
X163700000Y-91964000D02*
X166500000Y-91964000D01*
X166500000Y-93964000D02*
X163700000Y-93964000D01*
X166500000Y-91964000D02*
X166500000Y-93964000D01*
X163700000Y-93964000D02*
X163700000Y-91964000D01*
%TO.C,D1*%
X130600000Y-65350000D02*
X128600000Y-65350000D01*
X130600000Y-65350000D02*
X130600000Y-69250000D01*
X128600000Y-65350000D02*
X128600000Y-69250000D01*
%TO.C,C22*%
X117935000Y-103188748D02*
X117935000Y-103711252D01*
X116465000Y-103188748D02*
X116465000Y-103711252D01*
%TO.C,R27*%
X168541932Y-86500147D02*
X168541932Y-86046019D01*
X170011932Y-86500147D02*
X170011932Y-86046019D01*
%TO.C,kibuzzard-6198C8A0*%
G36*
X161601944Y-85039994D02*
G01*
X161667031Y-85113812D01*
X161700369Y-85220175D01*
X161709894Y-85344000D01*
X161706917Y-85414048D01*
X161697988Y-85478144D01*
X161658300Y-85583713D01*
X161585275Y-85653563D01*
X161473356Y-85678963D01*
X161455894Y-85678963D01*
X161438431Y-85677375D01*
X161438431Y-85016975D01*
X161467006Y-85013006D01*
X161495581Y-85012212D01*
X161601944Y-85039994D01*
G37*
G36*
X160294902Y-84698946D02*
G01*
X163223134Y-84698946D01*
X162793098Y-85344000D01*
X163223134Y-85989054D01*
X160294902Y-85989054D01*
X160156966Y-85782150D01*
X160427194Y-85782150D01*
X160536731Y-85830569D01*
X160622059Y-85850214D01*
X160731994Y-85856763D01*
X160843383Y-85848384D01*
X160927766Y-85825013D01*
X161243169Y-85825013D01*
X161350325Y-85843269D01*
X161452719Y-85848825D01*
X161548564Y-85841880D01*
X161572735Y-85836125D01*
X162036919Y-85836125D01*
X162660806Y-85836125D01*
X162660806Y-85674200D01*
X162448081Y-85674200D01*
X162448081Y-85015387D01*
X162660806Y-85015387D01*
X162660806Y-84853462D01*
X162036919Y-84853462D01*
X162036919Y-85015387D01*
X162251231Y-85015387D01*
X162251231Y-85674200D01*
X162036919Y-85674200D01*
X162036919Y-85836125D01*
X161572735Y-85836125D01*
X161636075Y-85821044D01*
X161713664Y-85785127D01*
X161779744Y-85732938D01*
X161833520Y-85663683D01*
X161874200Y-85576569D01*
X161899798Y-85470405D01*
X161908331Y-85344000D01*
X161900592Y-85220373D01*
X161877375Y-85116194D01*
X161840267Y-85030072D01*
X161790856Y-84960619D01*
X161729142Y-84907636D01*
X161655125Y-84870925D01*
X161570789Y-84849494D01*
X161478119Y-84842350D01*
X161368581Y-84847112D01*
X161243169Y-84866162D01*
X161243169Y-85825013D01*
X160927766Y-85825013D01*
X160934135Y-85823249D01*
X161004250Y-85781356D01*
X161071520Y-85690273D01*
X161093944Y-85567838D01*
X161087197Y-85493820D01*
X161066956Y-85433694D01*
X160997900Y-85344794D01*
X160905825Y-85287644D01*
X160809781Y-85248750D01*
X160748662Y-85224937D01*
X160693100Y-85195569D01*
X160652619Y-85157469D01*
X160636744Y-85107462D01*
X160654030Y-85044844D01*
X160705888Y-85007274D01*
X160792319Y-84994750D01*
X160904237Y-85010625D01*
X160992344Y-85048725D01*
X161049494Y-84897912D01*
X160935987Y-84851875D01*
X160862764Y-84836397D01*
X160778031Y-84831237D01*
X160680753Y-84839881D01*
X160598467Y-84865810D01*
X160531175Y-84909025D01*
X160463905Y-85001894D01*
X160441481Y-85124925D01*
X160466881Y-85241606D01*
X160531175Y-85320187D01*
X160617694Y-85372575D01*
X160709769Y-85409088D01*
X160776444Y-85436869D01*
X160836769Y-85470206D01*
X160881219Y-85512275D01*
X160898681Y-85566250D01*
X160891537Y-85613081D01*
X160865344Y-85654356D01*
X160813750Y-85682931D01*
X160731994Y-85693250D01*
X160652817Y-85687694D01*
X160586737Y-85671025D01*
X160484344Y-85623400D01*
X160427194Y-85782150D01*
X160156966Y-85782150D01*
X159864866Y-85344000D01*
X160294902Y-84698946D01*
G37*
%TO.C,R22*%
X174634042Y-100164639D02*
X174634042Y-100618767D01*
X176104042Y-100164639D02*
X176104042Y-100618767D01*
%TO.C,C12*%
X132734990Y-98304457D02*
X133104457Y-97934990D01*
X131695543Y-97265010D02*
X132065010Y-96895543D01*
%TO.C,kibuzzard-6198C887*%
G36*
X162408394Y-87568087D02*
G01*
X162455225Y-87641112D01*
X162477450Y-87749856D01*
X162481617Y-87814745D01*
X162483006Y-87884000D01*
X162481617Y-87953056D01*
X162477450Y-88017350D01*
X162455225Y-88126094D01*
X162407600Y-88199913D01*
X162327431Y-88226900D01*
X162246469Y-88199913D01*
X162199638Y-88126888D01*
X162177413Y-88018144D01*
X162173245Y-87953255D01*
X162171856Y-87884000D01*
X162173245Y-87814944D01*
X162177413Y-87750650D01*
X162199638Y-87641906D01*
X162246469Y-87568087D01*
X162327431Y-87541100D01*
X162408394Y-87568087D01*
G37*
G36*
X161581306Y-87579994D02*
G01*
X161646394Y-87653812D01*
X161679731Y-87760175D01*
X161689256Y-87884000D01*
X161686280Y-87954048D01*
X161677350Y-88018144D01*
X161637663Y-88123713D01*
X161564638Y-88193563D01*
X161452719Y-88218963D01*
X161435256Y-88218963D01*
X161417794Y-88217375D01*
X161417794Y-87556975D01*
X161446369Y-87553006D01*
X161474944Y-87552212D01*
X161581306Y-87579994D01*
G37*
G36*
X162813735Y-87884000D02*
G01*
X163243772Y-88529054D01*
X160274265Y-88529054D01*
X160136329Y-88322150D01*
X160406556Y-88322150D01*
X160516094Y-88370569D01*
X160601422Y-88390214D01*
X160711356Y-88396763D01*
X160822746Y-88388384D01*
X160907129Y-88365013D01*
X161222531Y-88365013D01*
X161329687Y-88383269D01*
X161432081Y-88388825D01*
X161527927Y-88381880D01*
X161615438Y-88361044D01*
X161693027Y-88325127D01*
X161759106Y-88272938D01*
X161812883Y-88203683D01*
X161853563Y-88116569D01*
X161879161Y-88010405D01*
X161887694Y-87884000D01*
X161973419Y-87884000D01*
X161979124Y-88003211D01*
X161996239Y-88106845D01*
X162024764Y-88194902D01*
X162064700Y-88267381D01*
X162134638Y-88339260D01*
X162222744Y-88382387D01*
X162329019Y-88396763D01*
X162432735Y-88382387D01*
X162519519Y-88339260D01*
X162589369Y-88267381D01*
X162629652Y-88194902D01*
X162658425Y-88106845D01*
X162675689Y-88003211D01*
X162681444Y-87884000D01*
X162675788Y-87764789D01*
X162658822Y-87661155D01*
X162630545Y-87573098D01*
X162590956Y-87500619D01*
X162521459Y-87428740D01*
X162433617Y-87385613D01*
X162327431Y-87371237D01*
X162224420Y-87385613D01*
X162137637Y-87428740D01*
X162067081Y-87500619D01*
X162026104Y-87573098D01*
X161996834Y-87661155D01*
X161979273Y-87764789D01*
X161973419Y-87884000D01*
X161887694Y-87884000D01*
X161879955Y-87760373D01*
X161856738Y-87656194D01*
X161819630Y-87570072D01*
X161770219Y-87500619D01*
X161708505Y-87447636D01*
X161634488Y-87410925D01*
X161550152Y-87389494D01*
X161457481Y-87382350D01*
X161347944Y-87387112D01*
X161222531Y-87406162D01*
X161222531Y-88365013D01*
X160907129Y-88365013D01*
X160913498Y-88363249D01*
X160983612Y-88321356D01*
X161050883Y-88230273D01*
X161073306Y-88107838D01*
X161066559Y-88033820D01*
X161046319Y-87973694D01*
X160977262Y-87884794D01*
X160885187Y-87827644D01*
X160789144Y-87788750D01*
X160728025Y-87764937D01*
X160672462Y-87735569D01*
X160631981Y-87697469D01*
X160616106Y-87647462D01*
X160633392Y-87584844D01*
X160685251Y-87547274D01*
X160771681Y-87534750D01*
X160883600Y-87550625D01*
X160971706Y-87588725D01*
X161028856Y-87437912D01*
X160915350Y-87391875D01*
X160842127Y-87376397D01*
X160757394Y-87371237D01*
X160660115Y-87379881D01*
X160577830Y-87405810D01*
X160510537Y-87449025D01*
X160443267Y-87541894D01*
X160420844Y-87664925D01*
X160446244Y-87781606D01*
X160510537Y-87860187D01*
X160597056Y-87912575D01*
X160689131Y-87949088D01*
X160755806Y-87976869D01*
X160816131Y-88010206D01*
X160860581Y-88052275D01*
X160878044Y-88106250D01*
X160870900Y-88153081D01*
X160844706Y-88194356D01*
X160793112Y-88222931D01*
X160711356Y-88233250D01*
X160632180Y-88227694D01*
X160566100Y-88211025D01*
X160463706Y-88163400D01*
X160406556Y-88322150D01*
X160136329Y-88322150D01*
X159844228Y-87884000D01*
X160274265Y-87238946D01*
X163243772Y-87238946D01*
X162813735Y-87884000D01*
G37*
%TO.C,R7*%
X129493703Y-95395744D02*
X129814820Y-95074627D01*
X128454256Y-94356297D02*
X128775373Y-94035180D01*
%TO.C,R6*%
X150014820Y-98265827D02*
X149693703Y-97944710D01*
X148975373Y-99305274D02*
X148654256Y-98984157D01*
%TO.C,J3*%
X150965472Y-82846376D02*
X152846376Y-80965472D01*
X149126994Y-81007898D02*
X150067446Y-80067446D01*
X156396052Y-88276956D02*
X158276956Y-86396052D01*
X152846376Y-80965472D02*
X158276956Y-86396052D01*
X150965472Y-82846376D02*
X156396052Y-88276956D01*
X150067446Y-81948350D02*
X149126994Y-81007898D01*
%TO.C,R14*%
X155535000Y-112027064D02*
X155535000Y-111572936D01*
X154065000Y-112027064D02*
X154065000Y-111572936D01*
%TO.C,U7*%
X163100000Y-112010000D02*
X165300000Y-112010000D01*
X163100000Y-112010000D02*
X160900000Y-112010000D01*
X163100000Y-106790000D02*
X165300000Y-106790000D01*
X163100000Y-106790000D02*
X159500000Y-106790000D01*
%TO.C,C6*%
X149547067Y-87663486D02*
X149916534Y-87294019D01*
X150586514Y-88702933D02*
X150955981Y-88333466D01*
%TD*%
D14*
X167132000Y-59436000D03*
X147400000Y-82200000D03*
X114808000Y-79248000D03*
X148800000Y-83600000D03*
X114808000Y-76200000D03*
X131064000Y-75946000D03*
X142748000Y-116332000D03*
X147000000Y-71400000D03*
X133604000Y-64008000D03*
X154400000Y-105000000D03*
X113792000Y-88900000D03*
X113792000Y-116332000D03*
X175768000Y-116332000D03*
X149200000Y-71400000D03*
X114808000Y-82296000D03*
X158800000Y-106800000D03*
X139700000Y-116332000D03*
X106125000Y-114500000D03*
X124460000Y-116332000D03*
D15*
X133860000Y-96110000D03*
X139192000Y-91694000D03*
D14*
X127508000Y-60960000D03*
X161036000Y-116332000D03*
X159512000Y-116332000D03*
X141224000Y-116332000D03*
X150368000Y-116332000D03*
X144272000Y-116332000D03*
X130556000Y-64008000D03*
X111760000Y-76200000D03*
X162560000Y-116332000D03*
X136400000Y-104600000D03*
X147320000Y-116332000D03*
X144200000Y-68800000D03*
D15*
X135500000Y-96500000D03*
D14*
X127508000Y-64008000D03*
X153416000Y-116332000D03*
X138176000Y-116332000D03*
X113792000Y-91440000D03*
X167132000Y-63500000D03*
D15*
X140208000Y-92710000D03*
D14*
X127508000Y-59436000D03*
X114300000Y-93726000D03*
X164084000Y-116332000D03*
X154940000Y-116332000D03*
D15*
X119888000Y-96901000D03*
D14*
X122936000Y-116332000D03*
X167132000Y-61468000D03*
X113538000Y-86360000D03*
X151892000Y-116332000D03*
X167355492Y-116332000D03*
X113284000Y-79248000D03*
X124200000Y-74200000D03*
X167132000Y-65532000D03*
X164400000Y-66000000D03*
X133604000Y-116332000D03*
X136652000Y-116332000D03*
X132080000Y-64008000D03*
X137922000Y-71628000D03*
X129032000Y-64008000D03*
X135128000Y-116332000D03*
X118364000Y-116332000D03*
X111760000Y-79248000D03*
X135636000Y-64008000D03*
D15*
X134300000Y-94500000D03*
D14*
X148000000Y-64800000D03*
X179600000Y-115800000D03*
X147600000Y-80200000D03*
X145796000Y-116332000D03*
X127508000Y-62484000D03*
X113284000Y-82296000D03*
X148844000Y-116332000D03*
X124206000Y-99568000D03*
X157400000Y-112200000D03*
X154400000Y-106400000D03*
X174244000Y-116332000D03*
X116840000Y-116332000D03*
X112268000Y-116840000D03*
X151800000Y-86600000D03*
X113284000Y-76200000D03*
D15*
X144000000Y-88000000D03*
D14*
X156464000Y-116332000D03*
X116332000Y-82296000D03*
X157988000Y-116332000D03*
X176530000Y-94234000D03*
X176530000Y-87122000D03*
X174244000Y-102120500D03*
X169926000Y-111760000D03*
X176508023Y-101367977D03*
X176530000Y-97790000D03*
X176530000Y-90678000D03*
X176530000Y-83566000D03*
X154500000Y-59500000D03*
X159000000Y-61500000D03*
X144000000Y-61500000D03*
X163831000Y-78146000D03*
X170688000Y-87884000D03*
X136800000Y-81000000D03*
X131500000Y-61500000D03*
X161000000Y-61500000D03*
X150600000Y-100000000D03*
X165000000Y-59500000D03*
X126000000Y-94200000D03*
D15*
X141026963Y-93122456D03*
D14*
X159000000Y-59500000D03*
X140000000Y-71600000D03*
X142400000Y-63400000D03*
X123952000Y-91440000D03*
X131500000Y-59500000D03*
X123952000Y-86360000D03*
X154500000Y-61500000D03*
X163831000Y-73746000D03*
X170688000Y-94996000D03*
X138800000Y-63400000D03*
X135500000Y-59500000D03*
X170688000Y-84582000D03*
X165000000Y-61500000D03*
X137500000Y-59500000D03*
X152000000Y-61500000D03*
X149000000Y-62200000D03*
D15*
X135600000Y-93200000D03*
D14*
X140600000Y-62800000D03*
X149000000Y-101600000D03*
X137500000Y-61500000D03*
X133500000Y-59500000D03*
X150000000Y-59500000D03*
X163000000Y-59500000D03*
X146000000Y-59500000D03*
X170688000Y-98806000D03*
X163000000Y-61500000D03*
X147000000Y-62200000D03*
X142000000Y-59200000D03*
X161000000Y-59500000D03*
X133500000Y-61500000D03*
X130800000Y-85000000D03*
X144200000Y-83200000D03*
X178000000Y-115800000D03*
X140600000Y-68800000D03*
X156500000Y-61500000D03*
D15*
X144600000Y-88600000D03*
X120904000Y-98806000D03*
D14*
X144000000Y-59500000D03*
X133800000Y-84000000D03*
X150200000Y-85400000D03*
X170688000Y-91440000D03*
X163831000Y-75946000D03*
X129000000Y-88600000D03*
X129500000Y-61500000D03*
D15*
X122936000Y-94488000D03*
D14*
X148000000Y-59500000D03*
X127800000Y-96000000D03*
X169275211Y-80742988D03*
X139600000Y-59200000D03*
X135200000Y-82400000D03*
X164400000Y-64200000D03*
D15*
X118999000Y-97663000D03*
D14*
X135500000Y-61500000D03*
X156500000Y-59500000D03*
X129500000Y-59500000D03*
X123952000Y-88900000D03*
X152000000Y-59500000D03*
D15*
X155194000Y-99822000D03*
X159857000Y-91857000D03*
X163068000Y-110998000D03*
X171704000Y-102870000D03*
X161036000Y-89154000D03*
X161036000Y-83058000D03*
X158452641Y-95347359D03*
X156000000Y-97800000D03*
X180031978Y-92456000D03*
X177229500Y-92476502D03*
X136600000Y-87600000D03*
X137400000Y-87400000D03*
D14*
X115824000Y-101600000D03*
D15*
X140600000Y-89200000D03*
X139800000Y-88600000D03*
D14*
X116624000Y-100800000D03*
D15*
X160274000Y-86868000D03*
X159766000Y-83058000D03*
X146939303Y-97939303D03*
X113300000Y-106800000D03*
X147027207Y-100831793D03*
X114700000Y-106200000D03*
X130725000Y-93125000D03*
X179432478Y-88900000D03*
X177292000Y-88900000D03*
X139800000Y-82000000D03*
X136000000Y-88400000D03*
X141600000Y-87000000D03*
X145400000Y-80200000D03*
X146800000Y-87400000D03*
X141000000Y-81000000D03*
X142800000Y-79000000D03*
X129000000Y-84019500D03*
X179070000Y-85344000D03*
X177546000Y-85344000D03*
D14*
X156815204Y-115349500D03*
X156600000Y-113000000D03*
D15*
X163068000Y-104140000D03*
X164592000Y-109474000D03*
X164592000Y-104140000D03*
X140291689Y-81502460D03*
X163830000Y-101854000D03*
X163830000Y-109220000D03*
X163068000Y-96774000D03*
X163830000Y-111506000D03*
X142800000Y-87000000D03*
D14*
X167005000Y-125857000D03*
X161239200Y-133781800D03*
X129540000Y-72644000D03*
X129540000Y-76144000D03*
X137000000Y-127000000D03*
X147000000Y-127000000D03*
X175731000Y-78046000D03*
X175731000Y-75506000D03*
X175731000Y-72966000D03*
X177292000Y-109474000D03*
X174752000Y-109474000D03*
X172212000Y-109474000D03*
X160000000Y-63875000D03*
X160000000Y-66415000D03*
X160000000Y-68955000D03*
X120725000Y-60750000D03*
X123265000Y-60750000D03*
X177651650Y-66651650D03*
X175000000Y-60250000D03*
X172348350Y-61348350D03*
X178750000Y-64000000D03*
X171250000Y-64000000D03*
X172348350Y-66651650D03*
X175000000Y-64000000D03*
X177651650Y-61348350D03*
X175000000Y-67750000D03*
X127518056Y-121518056D03*
X132906210Y-126906210D03*
X155652393Y-63874870D03*
X155652393Y-66414870D03*
X155652393Y-68954870D03*
X132975000Y-120800000D03*
X135515000Y-120800000D03*
X138055000Y-120800000D03*
X138055000Y-113180000D03*
X135515000Y-113180000D03*
X132975000Y-113180000D03*
X158840000Y-120700000D03*
X163920000Y-120700000D03*
X169000000Y-120700000D03*
X153979773Y-96362329D03*
X152183722Y-94566278D03*
X155775824Y-94566278D03*
X153979773Y-92770227D03*
X157571875Y-92770227D03*
X155775824Y-90974175D03*
X106348350Y-61348350D03*
X112750000Y-64000000D03*
X106348350Y-66651650D03*
X109000000Y-67750000D03*
X111651650Y-66651650D03*
X109000000Y-64000000D03*
X105250000Y-64000000D03*
X111651650Y-61348350D03*
X109000000Y-60250000D03*
X151525000Y-112880000D03*
X148985000Y-112880000D03*
X146445000Y-112880000D03*
X146445000Y-120500000D03*
X148985000Y-120500000D03*
X151525000Y-120500000D03*
X144250000Y-132750000D03*
X138800000Y-132750000D03*
X133350000Y-132750000D03*
X108200000Y-110220000D03*
X108200000Y-107680000D03*
X108200000Y-105140000D03*
X108200000Y-102600000D03*
X175000000Y-126250000D03*
X175000000Y-130000000D03*
X172348350Y-132651650D03*
X175000000Y-133750000D03*
X171250000Y-130000000D03*
X172348350Y-127348350D03*
X178750000Y-130000000D03*
X177651650Y-132651650D03*
X177651650Y-127348350D03*
X108200000Y-97880000D03*
X108200000Y-95340000D03*
X108200000Y-92800000D03*
X108200000Y-90260000D03*
X124200000Y-130000000D03*
X119200000Y-130000000D03*
X123580000Y-110500000D03*
X113420000Y-110500000D03*
X108200000Y-75800000D03*
X108200000Y-78340000D03*
X108200000Y-80880000D03*
X108200000Y-83420000D03*
X108200000Y-85960000D03*
X112750000Y-130000000D03*
X106348350Y-127348350D03*
X109000000Y-126250000D03*
X109000000Y-133750000D03*
X106348350Y-132651650D03*
X111651650Y-127348350D03*
X109000000Y-130000000D03*
X111651650Y-132651650D03*
X105250000Y-130000000D03*
X150350000Y-133500000D03*
X152650000Y-126000000D03*
X151007898Y-81007898D03*
X152803949Y-82803949D03*
X154600000Y-84600000D03*
X156396052Y-86396052D03*
%LPC*%
D11*
X164951365Y-118554089D02*
X165227000Y-118745000D01*
X165227000Y-118745000D02*
X165481000Y-118999000D01*
X165481000Y-118999000D02*
X165481000Y-119380000D01*
X165481000Y-119380000D02*
X165481000Y-125603000D01*
X165481000Y-125603000D02*
X164973071Y-126111000D01*
X164973071Y-126111000D02*
X162397085Y-126109560D01*
X162397085Y-126109560D02*
X161798000Y-127254000D01*
X161798000Y-127254000D02*
X159639000Y-127254000D01*
X159639000Y-127254000D02*
X159639000Y-125603000D01*
X159639000Y-125603000D02*
X159639578Y-125513337D01*
X159639578Y-125513337D02*
X159685592Y-125509814D01*
X159685592Y-125509814D02*
X159715673Y-125422465D01*
X159715673Y-125422465D02*
X159778147Y-125300408D01*
X159778147Y-125300408D02*
X159903075Y-125136743D01*
X159903075Y-125136743D02*
X160044585Y-125018134D01*
X160044585Y-125018134D02*
X160268126Y-124895280D01*
X160268126Y-124895280D02*
X160528000Y-124841000D01*
X160528000Y-124841000D02*
X161544000Y-124841000D01*
X161544000Y-124841000D02*
X161545999Y-119451971D01*
X161545999Y-119451971D02*
X161556994Y-119327021D01*
X161556994Y-119327021D02*
X161608211Y-119136191D01*
X161608211Y-119136191D02*
X161722213Y-118908187D01*
X161722213Y-118908187D02*
X161937781Y-118705056D01*
X161937781Y-118705056D02*
X162169931Y-118568253D01*
X162169931Y-118568253D02*
X162560000Y-118491000D01*
X162560000Y-118491000D02*
X164719000Y-118491000D01*
X164719000Y-118491000D02*
X164951365Y-118554089D01*
G36*
X164951365Y-118554089D02*
G01*
X165227000Y-118745000D01*
X165481000Y-118999000D01*
X165481000Y-125603000D01*
X164973071Y-126111000D01*
X162397085Y-126109560D01*
X161798000Y-127254000D01*
X159639000Y-127254000D01*
X159639000Y-125603000D01*
X159639578Y-125513337D01*
X159685592Y-125509814D01*
X159715673Y-125422465D01*
X159778147Y-125300408D01*
X159903075Y-125136743D01*
X160044585Y-125018134D01*
X160268126Y-124895280D01*
X160528000Y-124841000D01*
X161544000Y-124841000D01*
X161545999Y-119451971D01*
X161556994Y-119327021D01*
X161608211Y-119136191D01*
X161722213Y-118908187D01*
X161937781Y-118705056D01*
X162169931Y-118568253D01*
X162560000Y-118491000D01*
X164719000Y-118491000D01*
X164951365Y-118554089D01*
G37*
X164951365Y-118554089D02*
X165227000Y-118745000D01*
X165481000Y-118999000D01*
X165481000Y-125603000D01*
X164973071Y-126111000D01*
X162397085Y-126109560D01*
X161798000Y-127254000D01*
X159639000Y-127254000D01*
X159639000Y-125603000D01*
X159639578Y-125513337D01*
X159685592Y-125509814D01*
X159715673Y-125422465D01*
X159778147Y-125300408D01*
X159903075Y-125136743D01*
X160044585Y-125018134D01*
X160268126Y-124895280D01*
X160528000Y-124841000D01*
X161544000Y-124841000D01*
X161545999Y-119451971D01*
X161556994Y-119327021D01*
X161608211Y-119136191D01*
X161722213Y-118908187D01*
X161937781Y-118705056D01*
X162169931Y-118568253D01*
X162560000Y-118491000D01*
X164719000Y-118491000D01*
X164951365Y-118554089D01*
X154609800Y-127279400D02*
X153593800Y-128193800D01*
X153593800Y-128193800D02*
X146583400Y-128193800D01*
X146583400Y-128193800D02*
X144348200Y-126085600D01*
X144348200Y-126085600D02*
X144348200Y-122631200D01*
X144348200Y-122631200D02*
X154609800Y-122631200D01*
X154609800Y-122631200D02*
X154609800Y-127279400D01*
G36*
X154609800Y-127279400D02*
G01*
X153593800Y-128193800D01*
X146583400Y-128193800D01*
X144348200Y-126085600D01*
X144348200Y-122631200D01*
X154609800Y-122631200D01*
X154609800Y-127279400D01*
G37*
X154609800Y-127279400D02*
X153593800Y-128193800D01*
X146583400Y-128193800D01*
X144348200Y-126085600D01*
X144348200Y-122631200D01*
X154609800Y-122631200D01*
X154609800Y-127279400D01*
X138684000Y-126873000D02*
X137287000Y-128143000D01*
X137287000Y-128143000D02*
X130683000Y-128143000D01*
X130683000Y-128143000D02*
X130683000Y-124714000D01*
X130683000Y-124714000D02*
X138684000Y-124714000D01*
X138684000Y-124714000D02*
X138684000Y-126873000D01*
G36*
X138684000Y-126873000D02*
G01*
X137287000Y-128143000D01*
X130683000Y-128143000D01*
X130683000Y-124714000D01*
X138684000Y-124714000D01*
X138684000Y-126873000D01*
G37*
X138684000Y-126873000D02*
X137287000Y-128143000D01*
X130683000Y-128143000D01*
X130683000Y-124714000D01*
X138684000Y-124714000D01*
X138684000Y-126873000D01*
X141722618Y-124333000D02*
X143814800Y-124333000D01*
X143814800Y-124333000D02*
X143814800Y-126314200D01*
X143814800Y-126314200D02*
X146278600Y-128778000D01*
X146278600Y-128778000D02*
X153787618Y-128778000D01*
X153787618Y-128778000D02*
X155057618Y-127518695D01*
X155057618Y-127518695D02*
X155057618Y-125613695D01*
X155057618Y-125613695D02*
X155184618Y-125486695D01*
X155184618Y-125486695D02*
X158740618Y-125486695D01*
X158740618Y-125486695D02*
X158867618Y-125613695D01*
X158867618Y-125613695D02*
X158867618Y-127264695D01*
X158867618Y-127264695D02*
X156454618Y-127264695D01*
X156454618Y-127264695D02*
X156454618Y-130058695D01*
X156454618Y-130058695D02*
X155438618Y-130058695D01*
X155438618Y-130058695D02*
X155438618Y-134757695D01*
X155438618Y-134757695D02*
X146421618Y-134757695D01*
X146421618Y-134757695D02*
X146421618Y-129804695D01*
X146421618Y-129804695D02*
X141976618Y-129804695D01*
X141976618Y-129804695D02*
X141976618Y-134757695D01*
X141976618Y-134757695D02*
X136515618Y-134757695D01*
X136515618Y-134757695D02*
X136515618Y-128915695D01*
X136515618Y-128915695D02*
X137531618Y-128915695D01*
X137531618Y-128915695D02*
X139700000Y-126746000D01*
X139700000Y-126746000D02*
X139690618Y-123962695D01*
X139690618Y-123962695D02*
X124323618Y-123962695D01*
X124323618Y-123962695D02*
X124323618Y-119263695D01*
X124323618Y-119263695D02*
X130292618Y-119263695D01*
X130292618Y-119263695D02*
X130292618Y-122057695D01*
X130292618Y-122057695D02*
X140833618Y-122057695D01*
X140833618Y-122057695D02*
X140833618Y-118247695D01*
X140833618Y-118247695D02*
X141722618Y-118247695D01*
X141722618Y-118247695D02*
X141722618Y-124333000D01*
G36*
X141722618Y-124333000D02*
G01*
X143814800Y-124333000D01*
X143814800Y-126314200D01*
X146278600Y-128778000D01*
X153787618Y-128778000D01*
X155057618Y-127518695D01*
X155057618Y-125613695D01*
X155184618Y-125486695D01*
X158740618Y-125486695D01*
X158867618Y-125613695D01*
X158867618Y-127264695D01*
X156454618Y-127264695D01*
X156454618Y-130058695D01*
X155438618Y-130058695D01*
X155438618Y-134757695D01*
X146421618Y-134757695D01*
X146421618Y-129804695D01*
X141976618Y-129804695D01*
X141976618Y-134757695D01*
X136515618Y-134757695D01*
X136515618Y-128915695D01*
X137531618Y-128915695D01*
X139700000Y-126746000D01*
X139690618Y-123962695D01*
X124323618Y-123962695D01*
X124323618Y-119263695D01*
X130292618Y-119263695D01*
X130292618Y-122057695D01*
X140833618Y-122057695D01*
X140833618Y-118247695D01*
X141722618Y-118247695D01*
X141722618Y-124333000D01*
G37*
X141722618Y-124333000D02*
X143814800Y-124333000D01*
X143814800Y-126314200D01*
X146278600Y-128778000D01*
X153787618Y-128778000D01*
X155057618Y-127518695D01*
X155057618Y-125613695D01*
X155184618Y-125486695D01*
X158740618Y-125486695D01*
X158867618Y-125613695D01*
X158867618Y-127264695D01*
X156454618Y-127264695D01*
X156454618Y-130058695D01*
X155438618Y-130058695D01*
X155438618Y-134757695D01*
X146421618Y-134757695D01*
X146421618Y-129804695D01*
X141976618Y-129804695D01*
X141976618Y-134757695D01*
X136515618Y-134757695D01*
X136515618Y-128915695D01*
X137531618Y-128915695D01*
X139700000Y-126746000D01*
X139690618Y-123962695D01*
X124323618Y-123962695D01*
X124323618Y-119263695D01*
X130292618Y-119263695D01*
X130292618Y-122057695D01*
X140833618Y-122057695D01*
X140833618Y-118247695D01*
X141722618Y-118247695D01*
X141722618Y-124333000D01*
D16*
%TO.C,R11*%
X122578500Y-88900000D03*
X120753500Y-88900000D03*
%TD*%
D17*
%TO.C,R42*%
X117087500Y-106500000D03*
X118912500Y-106500000D03*
%TD*%
D18*
%TO.C,U4*%
X138300000Y-67250000D03*
X140600000Y-67250000D03*
D19*
X140600000Y-60950000D03*
D18*
X142900000Y-67250000D03*
%TD*%
D20*
%TO.C,Q4*%
X173263282Y-97847436D03*
X173263282Y-95947436D03*
X171388282Y-96897436D03*
%TD*%
D21*
%TO.C,R23*%
X169290207Y-101327000D03*
X169290207Y-99502000D03*
%TD*%
D22*
%TO.C,C7*%
X129540000Y-72644000D03*
X129540000Y-76144000D03*
%TD*%
D23*
%TO.C,C4*%
X140000000Y-70150000D03*
X138100000Y-70150000D03*
%TD*%
D24*
%TO.C,C20*%
X137000000Y-127000000D03*
X147000000Y-127000000D03*
%TD*%
D20*
%TO.C,Q5*%
X173226500Y-87218418D03*
X173226500Y-85318418D03*
X171351500Y-86268418D03*
%TD*%
D25*
%TO.C,J4*%
X175731000Y-78046000D03*
D26*
X175731000Y-75506000D03*
X175731000Y-72966000D03*
%TD*%
D17*
%TO.C,R37*%
X165070107Y-78146000D03*
X166895107Y-78146000D03*
%TD*%
D27*
%TO.C,R41*%
X120000000Y-102575000D03*
X120000000Y-104400000D03*
%TD*%
D17*
%TO.C,R40*%
X121087500Y-106500000D03*
X122912500Y-106500000D03*
%TD*%
D28*
%TO.C,JP2*%
X115640000Y-91440000D03*
X118040000Y-91440000D03*
D29*
X114840000Y-91440000D03*
D30*
X118840000Y-91440000D03*
%TD*%
D31*
%TO.C,C1*%
X149200000Y-68250000D03*
X149200000Y-70150000D03*
%TD*%
D32*
%TO.C,U3*%
X148950000Y-63612500D03*
X148000000Y-63612500D03*
X147050000Y-63612500D03*
X147050000Y-65887500D03*
X148950000Y-65887500D03*
%TD*%
D25*
%TO.C,J5*%
X177292000Y-109474000D03*
D26*
X174752000Y-109474000D03*
X172212000Y-109474000D03*
%TD*%
D16*
%TO.C,R34*%
X151600000Y-109800000D03*
X149775000Y-109800000D03*
%TD*%
D25*
%TO.C,J11*%
X160000000Y-63875000D03*
D26*
X160000000Y-66415000D03*
X160000000Y-68955000D03*
%TD*%
D27*
%TO.C,R18*%
X175363111Y-92456000D03*
X175363111Y-94281000D03*
%TD*%
D25*
%TO.C,J1*%
X120725000Y-60750000D03*
D26*
X123265000Y-60750000D03*
%TD*%
D28*
%TO.C,SW1*%
X139700000Y-78770227D03*
X147500000Y-78770227D03*
%TD*%
D33*
%TO.C,H2*%
X177651650Y-66651650D03*
X175000000Y-60250000D03*
X172348350Y-61348350D03*
X178750000Y-64000000D03*
X171250000Y-64000000D03*
X172348350Y-66651650D03*
D34*
X175000000Y-64000000D03*
D33*
X177651650Y-61348350D03*
X175000000Y-67750000D03*
%TD*%
D27*
%TO.C,R24*%
X175358406Y-96007610D03*
X175358406Y-97832610D03*
%TD*%
D31*
%TO.C,C17*%
X155300000Y-107300000D03*
X155300000Y-109200000D03*
%TD*%
D16*
%TO.C,R12*%
X122572392Y-91418086D03*
X120747392Y-91418086D03*
%TD*%
D31*
%TO.C,C16*%
X168148000Y-111892000D03*
X168148000Y-113792000D03*
%TD*%
D35*
%TO.C,R32*%
X127518056Y-121518056D03*
D36*
X132906210Y-126906210D03*
%TD*%
D31*
%TO.C,C2*%
X147000000Y-68250000D03*
X147000000Y-70150000D03*
%TD*%
D25*
%TO.C,J10*%
X155652393Y-63874870D03*
D26*
X155652393Y-66414870D03*
X155652393Y-68954870D03*
%TD*%
D37*
%TO.C,U9*%
X132975000Y-120800000D03*
D38*
X135515000Y-120800000D03*
X138055000Y-120800000D03*
X138055000Y-113180000D03*
X135515000Y-113180000D03*
X132975000Y-113180000D03*
%TD*%
D17*
%TO.C,R36*%
X165118500Y-75946000D03*
X166943500Y-75946000D03*
%TD*%
%TO.C,R30*%
X141337500Y-121100000D03*
X143162500Y-121100000D03*
%TD*%
D16*
%TO.C,R17*%
X178129500Y-112474000D03*
X176304500Y-112474000D03*
%TD*%
D21*
%TO.C,R19*%
X169267112Y-94256170D03*
X169267112Y-92431170D03*
%TD*%
D39*
%TO.C,J8*%
X158840000Y-120700000D03*
D40*
X163920000Y-120700000D03*
X169000000Y-120700000D03*
%TD*%
D41*
%TO.C,TP1*%
X165000000Y-128200000D03*
%TD*%
D20*
%TO.C,Q2*%
X173226500Y-83662418D03*
X173226500Y-81762418D03*
X171351500Y-82712418D03*
%TD*%
D23*
%TO.C,C15*%
X158500000Y-111000000D03*
X156600000Y-111000000D03*
%TD*%
D42*
%TO.C,R3*%
X136054765Y-83254765D03*
X137345235Y-84545235D03*
%TD*%
D43*
%TO.C,J7*%
X153979773Y-96362329D03*
D44*
X152183722Y-94566278D03*
X155775824Y-94566278D03*
X153979773Y-92770227D03*
X157571875Y-92770227D03*
X155775824Y-90974175D03*
%TD*%
D30*
%TO.C,JP5*%
X165825000Y-98044000D03*
D45*
X164375000Y-98044000D03*
%TD*%
D46*
%TO.C,C13*%
X138600000Y-102400000D03*
X137256498Y-103743502D03*
%TD*%
D31*
%TO.C,C8*%
X162950000Y-64177195D03*
X162950000Y-66077195D03*
%TD*%
D21*
%TO.C,R21*%
X169252920Y-83614503D03*
X169252920Y-81789503D03*
%TD*%
D23*
%TO.C,C19*%
X157700000Y-105400000D03*
X155800000Y-105400000D03*
%TD*%
D17*
%TO.C,R39*%
X165131000Y-73796000D03*
X166956000Y-73796000D03*
%TD*%
D21*
%TO.C,R29*%
X169278122Y-90686336D03*
X169278122Y-88861336D03*
%TD*%
D47*
%TO.C,DON1*%
X170331000Y-73796000D03*
X168756000Y-73796000D03*
%TD*%
D48*
%TO.C,C18*%
X157500000Y-109200000D03*
X157500000Y-107300000D03*
%TD*%
D49*
%TO.C,F1*%
X132600000Y-66000000D03*
X132600000Y-68800000D03*
%TD*%
D17*
%TO.C,R38*%
X165218500Y-71546000D03*
X167043500Y-71546000D03*
%TD*%
D27*
%TO.C,R26*%
X175322809Y-85343999D03*
X175322809Y-87168999D03*
%TD*%
D42*
%TO.C,R2*%
X129764295Y-89364295D03*
X131054765Y-90654765D03*
%TD*%
D29*
%TO.C,JP12*%
X107600000Y-114600000D03*
D50*
X109050000Y-114600000D03*
%TD*%
D33*
%TO.C,H1*%
X106348350Y-61348350D03*
X112750000Y-64000000D03*
X106348350Y-66651650D03*
X109000000Y-67750000D03*
X111651650Y-66651650D03*
D34*
X109000000Y-64000000D03*
D33*
X105250000Y-64000000D03*
X111651650Y-61348350D03*
X109000000Y-60250000D03*
%TD*%
D51*
%TO.C,U5*%
X137151346Y-91441800D03*
X137717032Y-92007485D03*
X138282717Y-92573171D03*
X138848402Y-93138856D03*
X139414088Y-93704542D03*
X139979773Y-94270227D03*
X140545459Y-94835912D03*
X141111144Y-95401598D03*
D52*
X143161754Y-95401598D03*
X143727439Y-94835912D03*
X144293125Y-94270227D03*
X144858810Y-93704542D03*
X145424496Y-93138856D03*
X145990181Y-92573171D03*
X146555866Y-92007485D03*
X147121552Y-91441800D03*
D51*
X147121552Y-89391190D03*
X146555866Y-88825505D03*
X145990181Y-88259819D03*
X145424496Y-87694134D03*
X144858810Y-87128448D03*
X144293125Y-86562763D03*
X143727439Y-85997078D03*
X143161754Y-85431392D03*
D52*
X141111144Y-85431392D03*
X140545459Y-85997078D03*
X139979773Y-86562763D03*
X139414088Y-87128448D03*
X138848402Y-87694134D03*
X138282717Y-88259819D03*
X137717032Y-88825505D03*
X137151346Y-89391190D03*
%TD*%
D20*
%TO.C,Q6*%
X173260349Y-90705366D03*
X173260349Y-88805366D03*
X171385349Y-89755366D03*
%TD*%
D53*
%TO.C,FB1*%
X134800000Y-66625000D03*
X134800000Y-68200000D03*
%TD*%
D54*
%TO.C,C3*%
X142400000Y-70150000D03*
X144300000Y-70150000D03*
%TD*%
D55*
%TO.C,R5*%
X148229773Y-100770227D03*
X146939303Y-99479757D03*
%TD*%
D56*
%TO.C,U6*%
X119073000Y-94249000D03*
X117803000Y-94249000D03*
X116533000Y-94249000D03*
X115263000Y-94249000D03*
X115263000Y-99199000D03*
X116533000Y-99199000D03*
X117803000Y-99199000D03*
X119073000Y-99199000D03*
%TD*%
D23*
%TO.C,C23*%
X159300000Y-133800000D03*
X157400000Y-133800000D03*
%TD*%
D30*
%TO.C,JP6*%
X165825000Y-95504000D03*
D45*
X164375000Y-95504000D03*
%TD*%
D54*
%TO.C,C21*%
X163050000Y-131600000D03*
X164950000Y-131600000D03*
%TD*%
D46*
%TO.C,C10*%
X136500000Y-94000000D03*
X135156498Y-95343502D03*
%TD*%
D30*
%TO.C,JP11*%
X174352000Y-112674000D03*
D45*
X172902000Y-112674000D03*
%TD*%
D57*
%TO.C,U8*%
X151525000Y-112880000D03*
D58*
X148985000Y-112880000D03*
X146445000Y-112880000D03*
X146445000Y-120500000D03*
X148985000Y-120500000D03*
X151525000Y-120500000D03*
%TD*%
D27*
%TO.C,R16*%
X161500000Y-103575000D03*
X161500000Y-105400000D03*
%TD*%
D59*
%TO.C,C5*%
X146708022Y-85741978D03*
X148051524Y-84398476D03*
%TD*%
D60*
%TO.C,Q7*%
X144250000Y-132750000D03*
D61*
X138800000Y-132750000D03*
X133350000Y-132750000D03*
%TD*%
D30*
%TO.C,JP10*%
X165823758Y-85344001D03*
D45*
X164373758Y-85344001D03*
%TD*%
D25*
%TO.C,J2*%
X108200000Y-110220000D03*
D26*
X108200000Y-107680000D03*
X108200000Y-105140000D03*
X108200000Y-102600000D03*
%TD*%
D47*
%TO.C,DL1*%
X170331000Y-71546000D03*
X168756000Y-71546000D03*
%TD*%
D42*
%TO.C,R4*%
X137514295Y-81714295D03*
X138804765Y-83004765D03*
%TD*%
D62*
%TO.C,BR1*%
X119200410Y-72625580D03*
X124300410Y-72625580D03*
X119200410Y-64375580D03*
X124300410Y-64375580D03*
%TD*%
D63*
%TO.C,R1*%
X126689303Y-93560697D03*
X127979773Y-92270227D03*
%TD*%
D64*
%TO.C,Y1*%
X133361522Y-100087868D03*
X135412132Y-102138478D03*
X137038478Y-100512132D03*
X134987868Y-98461522D03*
%TD*%
D33*
%TO.C,H3*%
X175000000Y-126250000D03*
D34*
X175000000Y-130000000D03*
D33*
X172348350Y-132651650D03*
X175000000Y-133750000D03*
X171250000Y-130000000D03*
X172348350Y-127348350D03*
X178750000Y-130000000D03*
X177651650Y-132651650D03*
X177651650Y-127348350D03*
%TD*%
D21*
%TO.C,R25*%
X169273042Y-97790000D03*
X169273042Y-95965000D03*
%TD*%
D65*
%TO.C,L1*%
X149400000Y-86000000D03*
X148286306Y-87113694D03*
%TD*%
D27*
%TO.C,R13*%
X122936000Y-97790000D03*
X122936000Y-99615000D03*
%TD*%
D47*
%TO.C,RXD1*%
X170231000Y-75946000D03*
X168656000Y-75946000D03*
%TD*%
D30*
%TO.C,JP8*%
X165825000Y-90424000D03*
D45*
X164375000Y-90424000D03*
%TD*%
D66*
%TO.C,D2*%
X131804765Y-86004765D03*
X133784663Y-87984663D03*
%TD*%
D25*
%TO.C,J6*%
X108200000Y-97880000D03*
D26*
X108200000Y-95340000D03*
X108200000Y-92800000D03*
X108200000Y-90260000D03*
%TD*%
D27*
%TO.C,R20*%
X175337000Y-81799918D03*
X175337000Y-83624918D03*
%TD*%
D16*
%TO.C,R10*%
X122578500Y-86360000D03*
X120753500Y-86360000D03*
%TD*%
D56*
%TO.C,U10*%
X161155000Y-126525000D03*
X159885000Y-126525000D03*
X158615000Y-126525000D03*
X157345000Y-126525000D03*
X157345000Y-131475000D03*
X158615000Y-131475000D03*
X159885000Y-131475000D03*
X161155000Y-131475000D03*
%TD*%
D46*
%TO.C,C11*%
X138000000Y-95500000D03*
X136656498Y-96843502D03*
%TD*%
D67*
%TO.C,J12*%
X124200000Y-130000000D03*
D68*
X119200000Y-130000000D03*
%TD*%
D27*
%TO.C,R15*%
X159500000Y-103575000D03*
X159500000Y-105400000D03*
%TD*%
D17*
%TO.C,R31*%
X141337500Y-119100000D03*
X143162500Y-119100000D03*
%TD*%
D59*
%TO.C,C9*%
X145229773Y-84270227D03*
X146573275Y-82926725D03*
%TD*%
D42*
%TO.C,R8*%
X134554765Y-84754765D03*
X135845235Y-86045235D03*
%TD*%
D69*
%TO.C,JP1*%
X121412000Y-95975000D03*
D70*
X121412000Y-94525000D03*
%TD*%
D20*
%TO.C,Q1*%
X173252611Y-94318500D03*
X173252611Y-92418500D03*
X171377611Y-93368500D03*
%TD*%
D17*
%TO.C,R35*%
X125687500Y-115200000D03*
X127512500Y-115200000D03*
%TD*%
D28*
%TO.C,JP3*%
X115640000Y-88900000D03*
X118040000Y-88900000D03*
D29*
X114840000Y-88900000D03*
D30*
X118840000Y-88900000D03*
%TD*%
D63*
%TO.C,R9*%
X138604765Y-98645235D03*
X139895235Y-97354765D03*
%TD*%
D37*
%TO.C,D3*%
X123580000Y-110500000D03*
D38*
X113420000Y-110500000D03*
%TD*%
D17*
%TO.C,R33*%
X141337500Y-123100000D03*
X143162500Y-123100000D03*
%TD*%
D48*
%TO.C,C14*%
X120904000Y-99690000D03*
X120904000Y-97790000D03*
%TD*%
D62*
%TO.C,BR2*%
X120549590Y-114874420D03*
X115449590Y-114874420D03*
X120549590Y-123124420D03*
X115449590Y-123124420D03*
%TD*%
D47*
%TO.C,TXD1*%
X170145107Y-78146000D03*
X168570107Y-78146000D03*
%TD*%
D27*
%TO.C,R28*%
X175332967Y-88831901D03*
X175332967Y-90656901D03*
%TD*%
D28*
%TO.C,JP4*%
X115640000Y-86360000D03*
X118040000Y-86360000D03*
D29*
X114840000Y-86360000D03*
D30*
X118840000Y-86360000D03*
%TD*%
D25*
%TO.C,J9*%
X108200000Y-75800000D03*
D26*
X108200000Y-78340000D03*
X108200000Y-80880000D03*
X108200000Y-83420000D03*
X108200000Y-85960000D03*
%TD*%
D30*
%TO.C,JP9*%
X165825000Y-87884000D03*
D45*
X164375000Y-87884000D03*
%TD*%
D33*
%TO.C,H4*%
X112750000Y-130000000D03*
X106348350Y-127348350D03*
X109000000Y-126250000D03*
X109000000Y-133750000D03*
X106348350Y-132651650D03*
X111651650Y-127348350D03*
D34*
X109000000Y-130000000D03*
D33*
X111651650Y-132651650D03*
X105250000Y-130000000D03*
%TD*%
D20*
%TO.C,Q3*%
X173264955Y-101368238D03*
X173264955Y-99468238D03*
X171389955Y-100418238D03*
%TD*%
D71*
%TO.C,RV1*%
X150350000Y-133500000D03*
X152650000Y-126000000D03*
%TD*%
D30*
%TO.C,JP7*%
X165825000Y-92964000D03*
D45*
X164375000Y-92964000D03*
%TD*%
D72*
%TO.C,D1*%
X129600000Y-65950000D03*
X129600000Y-69250000D03*
%TD*%
D31*
%TO.C,C22*%
X117200000Y-102500000D03*
X117200000Y-104400000D03*
%TD*%
D21*
%TO.C,R27*%
X169276932Y-87185583D03*
X169276932Y-85360583D03*
%TD*%
D27*
%TO.C,R22*%
X175369042Y-99479203D03*
X175369042Y-101304203D03*
%TD*%
D59*
%TO.C,C12*%
X131728249Y-98271751D03*
X133071751Y-96928249D03*
%TD*%
D63*
%TO.C,R7*%
X128489303Y-95360697D03*
X129779773Y-94070227D03*
%TD*%
D55*
%TO.C,R6*%
X149979773Y-99270227D03*
X148689303Y-97979757D03*
%TD*%
D73*
%TO.C,J3*%
X151007898Y-81007898D03*
D74*
X152803949Y-82803949D03*
X154600000Y-84600000D03*
X156396052Y-86396052D03*
%TD*%
D21*
%TO.C,R14*%
X154800000Y-112712500D03*
X154800000Y-110887500D03*
%TD*%
D75*
%TO.C,U7*%
X160237500Y-107450000D03*
X160237500Y-108100000D03*
X160237500Y-108750000D03*
X160237500Y-109400000D03*
X160237500Y-110050000D03*
X160237500Y-110700000D03*
X160237500Y-111350000D03*
X165962500Y-111350000D03*
X165962500Y-110700000D03*
X165962500Y-110050000D03*
X165962500Y-109400000D03*
X165962500Y-108750000D03*
X165962500Y-108100000D03*
X165962500Y-107450000D03*
%TD*%
D59*
%TO.C,C6*%
X149579773Y-88670227D03*
X150923275Y-87326725D03*
%TD*%
M02*
