M48
; DRILL file {KiCad 5.99.0-unknown-fecb53b64f~142~ubuntu21.04.1} date Sat 23 Oct 2021 04:59:13 PM +04
; FORMAT={-:-/ absolute / inch / decimal}
; #@! TF.CreationDate,2021-10-23T16:59:13+04:00
; #@! TF.GenerationSoftware,Kicad,Pcbnew,5.99.0-unknown-fecb53b64f~142~ubuntu21.04.1
; #@! TF.FileFunction,Plated,1,4,PTH
FMAT,2
INCH
; #@! TA.AperFunction,Plated,PTH,ViaDrill
T1C0.0118
; #@! TA.AperFunction,Plated,PTH,ViaDrill
T2C0.0157
; #@! TA.AperFunction,Plated,PTH,ComponentDrill
T3C0.0236
; #@! TA.AperFunction,Plated,PTH,ViaDrill
T4C0.0315
; #@! TA.AperFunction,Plated,PTH,ComponentDrill
T5C0.0315
; #@! TA.AperFunction,Plated,PTH,ComponentDrill
T6C0.0394
; #@! TA.AperFunction,Plated,PTH,ComponentDrill
T7C0.0472
; #@! TA.AperFunction,Plated,PTH,ComponentDrill
T8C0.0551
; #@! TA.AperFunction,Plated,PTH,ComponentDrill
T9C0.0591
; #@! TA.AperFunction,Plated,PTH,ComponentDrill
T10C0.1969
%
G90
G05
T1
X4.4606Y-4.2047
X4.5157Y-4.1811
X5.0787Y-3.2992
X5.1467Y-3.6663
X5.3543Y-3.4803
X5.378Y-3.4488
X5.4094Y-3.4409
X5.5039Y-3.2283
X5.5039Y-3.4882
X5.5233Y-3.2088
X5.5354Y-3.5118
X5.5512Y-3.189
X5.5512Y-3.6772
X5.5748Y-3.4252
X5.622Y-3.1102
X5.622Y-3.4252
X5.6693Y-3.4646
X5.6929Y-3.4882
X5.7244Y-3.1575
X5.7795Y-3.4409
X5.785Y-3.8559
X5.9055Y-4.0472
X6.1417Y-3.8504
X6.2205Y-3.9449
X6.2383Y-3.7538
X6.2835Y-3.9055
X6.2992Y-4.0079
X6.4173Y-3.8898
X6.4331Y-4.4567
X6.4724Y-4.2598
X6.5748Y-3.8504
T2
X4.1781Y-4.5079
X4.8898Y-2.9213
X4.9055Y-3.1339
X4.9606Y-3.7087
X5.0315Y-3.7795
X5.0787Y-3.4882
X5.0984Y-2.3425
X5.0984Y-2.4213
X5.1496Y-3.3465
X5.1772Y-2.3425
X5.1772Y-2.4213
X5.2559Y-2.3425
X5.2559Y-2.4213
X5.2677Y-3.3071
X5.2701Y-3.7839
X5.2874Y-3.7205
X5.3228Y-3.2441
X5.3346Y-2.3425
X5.3346Y-2.4213
X5.3346Y-3.7992
X5.3386Y-3.6693
X5.3701Y-4.1181
X5.3858Y-3.189
X5.4134Y-2.3425
X5.4134Y-2.4213
X5.4646Y-2.4961
X5.4882Y-3.6024
X5.4961Y-2.3307
X5.5118Y-2.8189
X5.5315Y-3.6457
X5.5354Y-2.4724
X5.5354Y-2.7087
X5.5906Y-2.3307
X5.6063Y-2.4961
X5.6693Y-2.3425
X5.6693Y-2.4213
X5.6772Y-2.7087
X5.6772Y-3.2756
X5.748Y-2.3425
X5.7874Y-2.4488
X5.7874Y-2.811
X5.8031Y-3.2362
X5.811Y-3.1575
X5.8268Y-2.3425
X5.8268Y-2.5512
X5.8583Y-3.2913
X5.8661Y-2.4488
X5.8661Y-4.0
X5.874Y-2.811
X5.9055Y-2.3425
X5.9134Y-3.3622
X5.9291Y-3.937
X5.9764Y-3.4094
X5.9843Y-2.3425
X5.9843Y-2.4213
X6.0787Y-4.1339
X6.0787Y-4.189
X6.0827Y-2.3425
X6.0827Y-2.4213
X6.1614Y-2.3425
X6.1614Y-2.4213
X6.1654Y-4.4488
X6.1738Y-4.5413
X6.1969Y-4.4173
X6.2047Y-5.3228
X6.252Y-4.2047
X6.2598Y-2.3425
X6.2598Y-2.4213
X6.3386Y-2.3425
X6.3386Y-2.4213
X6.4173Y-2.3425
X6.4173Y-2.4213
X6.4724Y-2.5276
X6.4724Y-2.5984
X6.4803Y-3.315
X6.4803Y-3.4016
X6.4803Y-3.4882
X6.4961Y-2.3425
X6.4961Y-2.4213
X6.5039Y-4.9606
X7.0079Y-4.5591
X7.0709Y-4.5591
T3
X4.1437Y-2.5197
X4.1437Y-5.1181
X4.1869Y-2.4153
X4.1869Y-2.6241
X4.1869Y-5.0137
X4.1869Y-5.2225
X4.2913Y-2.372
X4.2913Y-2.6673
X4.2913Y-4.9705
X4.2913Y-5.2657
X4.3957Y-2.4153
X4.3957Y-2.6241
X4.3957Y-5.0137
X4.3957Y-5.2225
X4.439Y-2.5197
X4.439Y-5.1181
X6.7421Y-2.5197
X6.7421Y-5.1181
X6.7854Y-2.4153
X6.7854Y-2.6241
X6.7854Y-5.0137
X6.7854Y-5.2225
X6.8898Y-2.372
X6.8898Y-2.6673
X6.8898Y-4.9705
X6.8898Y-5.2657
X6.9942Y-2.4153
X6.9942Y-2.6241
X6.9942Y-5.0137
X6.9942Y-5.2225
X7.0374Y-2.5197
X7.0374Y-5.1181
T4
X5.1417Y-5.0984
T5
X4.4654Y-4.3504
X4.7087Y-3.1339
X4.8465Y-3.1339
X4.8654Y-4.3504
X5.2352Y-4.4559
X5.2352Y-4.7559
X5.3352Y-4.4559
X5.3352Y-4.7559
X5.4352Y-4.4559
X5.4352Y-4.7559
X5.7656Y-4.4441
X5.7656Y-4.7441
X5.8656Y-4.4441
X5.8656Y-4.7441
X5.9193Y-5.2559
X5.9656Y-4.4441
X5.9656Y-4.7441
X6.0098Y-4.9606
T6
X4.2598Y-2.9843
X4.2598Y-3.0843
X4.2598Y-3.1843
X4.2598Y-3.2843
X4.2598Y-3.3843
X4.2598Y-3.5535
X4.2598Y-3.6535
X4.2598Y-3.7535
X4.2598Y-3.8535
X4.2598Y-4.0394
X4.2598Y-4.1394
X4.2598Y-4.2394
X4.2598Y-4.3394
X4.753Y-2.3917
X4.853Y-2.3917
X5.3937Y-5.0
X5.7874Y-5.0
X5.9452Y-3.1893
X5.9915Y-3.7231
X6.0159Y-3.26
X6.0622Y-3.6524
X6.0622Y-3.7938
X6.0866Y-3.3307
X6.128Y-2.5148
X6.128Y-2.6148
X6.128Y-2.7148
X6.1329Y-3.5817
X6.1329Y-3.7231
X6.1573Y-3.4014
X6.2036Y-3.6524
X6.2992Y-2.5148
X6.2992Y-2.6148
X6.2992Y-2.7148
X6.6559Y-3.9685
X6.7559Y-3.9685
X6.8559Y-3.9685
X6.9488Y-3.2843
X6.9488Y-3.3843
X6.9488Y-3.4843
T7
X5.0204Y-4.7842
X5.2325Y-4.9963
T8
X4.6929Y-5.1181
X4.8898Y-5.1181
X6.2535Y-4.752
X6.4535Y-4.752
X6.6535Y-4.752
T9
X5.25Y-5.2264
X5.4646Y-5.2264
X5.6791Y-5.2264
T10
X4.2913Y-2.5197
X4.2913Y-5.1181
X6.8898Y-2.5197
X6.8898Y-5.1181
T0
M30
