M48
; DRILL file {KiCad (6.0.1)} date Monday 24 January 2022 11:40:52 AM
; FORMAT={-:-/ absolute / metric / decimal}
; #@! TF.CreationDate,2022-01-24T11:40:52+04:00
; #@! TF.GenerationSoftware,Kicad,Pcbnew,(6.0.1)
; #@! TF.FileFunction,Plated,1,4,PTH
FMAT,2
METRIC
; #@! TA.AperFunction,Plated,PTH,ViaDrill
T1C0.300
; #@! TA.AperFunction,Plated,PTH,ViaDrill
T2C0.400
; #@! TA.AperFunction,Plated,PTH,ComponentDrill
T3C0.600
; #@! TA.AperFunction,Plated,PTH,ComponentDrill
T4C0.800
; #@! TA.AperFunction,Plated,PTH,ComponentDrill
T5C1.000
; #@! TA.AperFunction,Plated,PTH,ComponentDrill
T6C1.200
; #@! TA.AperFunction,Plated,PTH,ComponentDrill
T7C1.400
; #@! TA.AperFunction,Plated,PTH,ComponentDrill
T8C1.500
; #@! TA.AperFunction,Plated,PTH,ComponentDrill
T9C5.000
%
G90
G05
T1
X113.3Y-106.8
X114.7Y-106.2
X118.999Y-97.663
X119.888Y-96.901
X120.904Y-98.806
X122.936Y-94.488
X129.0Y-84.019
X130.725Y-93.125
X133.86Y-96.11
X134.3Y-94.5
X135.5Y-96.5
X135.6Y-93.2
X136.0Y-88.4
X136.6Y-87.6
X137.4Y-87.4
X139.192Y-91.694
X139.8Y-82.0
X139.8Y-88.6
X140.208Y-92.71
X140.292Y-81.502
X140.6Y-89.2
X141.0Y-81.0
X141.027Y-93.122
X141.6Y-87.0
X142.8Y-79.0
X142.8Y-87.0
X144.0Y-88.0
X144.6Y-88.6
X145.4Y-80.2
X146.8Y-87.4
X146.939Y-97.939
X147.027Y-100.832
X155.194Y-99.822
X156.0Y-97.8
X158.453Y-95.347
X159.766Y-83.058
X159.857Y-91.857
X160.274Y-86.868
X161.036Y-83.058
X161.036Y-89.154
X163.068Y-96.774
X163.068Y-104.14
X163.068Y-110.998
X163.83Y-101.854
X163.83Y-109.22
X163.83Y-111.506
X164.592Y-104.14
X164.592Y-109.474
X171.704Y-102.87
X177.23Y-92.477
X177.292Y-88.9
X177.546Y-85.344
X179.07Y-85.344
X179.432Y-88.9
X180.032Y-92.456
T2
X106.125Y-114.5
X111.76Y-76.2
X111.76Y-79.248
X112.268Y-116.84
X113.284Y-76.2
X113.284Y-79.248
X113.284Y-82.296
X113.538Y-86.36
X113.792Y-88.9
X113.792Y-91.44
X113.792Y-116.332
X114.3Y-93.726
X114.808Y-76.2
X114.808Y-79.248
X114.808Y-82.296
X115.824Y-101.6
X116.332Y-82.296
X116.624Y-100.8
X116.84Y-116.332
X118.364Y-116.332
X122.936Y-116.332
X123.952Y-86.36
X123.952Y-88.9
X123.952Y-91.44
X124.2Y-74.2
X124.206Y-99.568
X124.46Y-116.332
X126.0Y-94.2
X127.508Y-59.436
X127.508Y-60.96
X127.508Y-62.484
X127.508Y-64.008
X127.8Y-96.0
X129.0Y-88.6
X129.032Y-64.008
X129.5Y-59.5
X129.5Y-61.5
X130.556Y-64.008
X130.8Y-85.0
X131.064Y-75.946
X131.5Y-59.5
X131.5Y-61.5
X132.08Y-64.008
X133.5Y-59.5
X133.5Y-61.5
X133.604Y-64.008
X133.604Y-116.332
X133.8Y-84.0
X135.128Y-116.332
X135.2Y-82.4
X135.5Y-59.5
X135.5Y-61.5
X135.636Y-64.008
X136.4Y-104.6
X136.652Y-116.332
X136.8Y-81.0
X137.5Y-59.5
X137.5Y-61.5
X137.922Y-71.628
X138.176Y-116.332
X138.8Y-63.4
X139.6Y-59.2
X139.7Y-116.332
X140.0Y-71.6
X140.6Y-62.8
X140.6Y-68.8
X141.224Y-116.332
X142.0Y-59.2
X142.4Y-63.4
X142.748Y-116.332
X144.0Y-59.5
X144.0Y-61.5
X144.2Y-68.8
X144.2Y-83.2
X144.272Y-116.332
X145.796Y-116.332
X146.0Y-59.5
X147.0Y-62.2
X147.0Y-71.4
X147.32Y-116.332
X147.4Y-82.2
X147.6Y-80.2
X148.0Y-59.5
X148.0Y-64.8
X148.8Y-83.6
X148.844Y-116.332
X149.0Y-62.2
X149.0Y-101.6
X149.2Y-71.4
X150.0Y-59.5
X150.2Y-85.4
X150.368Y-116.332
X150.6Y-100.0
X151.8Y-86.6
X151.892Y-116.332
X152.0Y-59.5
X152.0Y-61.5
X153.416Y-116.332
X154.4Y-105.0
X154.4Y-106.4
X154.5Y-59.5
X154.5Y-61.5
X154.94Y-116.332
X156.464Y-116.332
X156.5Y-59.5
X156.5Y-61.5
X156.6Y-113.0
X156.815Y-115.349
X157.4Y-112.2
X157.988Y-116.332
X158.8Y-106.8
X159.0Y-59.5
X159.0Y-61.5
X159.512Y-116.332
X161.0Y-59.5
X161.0Y-61.5
X161.036Y-116.332
X161.239Y-133.782
X162.56Y-116.332
X163.0Y-59.5
X163.0Y-61.5
X163.831Y-73.746
X163.831Y-75.946
X163.831Y-78.146
X164.084Y-116.332
X164.4Y-64.2
X164.4Y-66.0
X165.0Y-59.5
X165.0Y-61.5
X167.005Y-125.857
X167.132Y-59.436
X167.132Y-61.468
X167.132Y-63.5
X167.132Y-65.532
X167.355Y-116.332
X169.275Y-80.743
X169.926Y-111.76
X170.688Y-84.582
X170.688Y-87.884
X170.688Y-91.44
X170.688Y-94.996
X170.688Y-98.806
X174.244Y-102.12
X174.244Y-116.332
X175.768Y-116.332
X176.508Y-101.368
X176.53Y-83.566
X176.53Y-87.122
X176.53Y-90.678
X176.53Y-94.234
X176.53Y-97.79
X178.0Y-115.8
X179.6Y-115.8
T3
X105.25Y-64.0
X105.25Y-130.0
X106.348Y-61.348
X106.348Y-66.652
X106.348Y-127.348
X106.348Y-132.652
X109.0Y-60.25
X109.0Y-67.75
X109.0Y-126.25
X109.0Y-133.75
X111.652Y-61.348
X111.652Y-66.652
X111.652Y-127.348
X111.652Y-132.652
X112.75Y-64.0
X112.75Y-130.0
X171.25Y-64.0
X171.25Y-130.0
X172.348Y-61.348
X172.348Y-66.652
X172.348Y-127.348
X172.348Y-132.652
X175.0Y-60.25
X175.0Y-67.75
X175.0Y-126.25
X175.0Y-133.75
X177.652Y-61.348
X177.652Y-66.652
X177.652Y-127.348
X177.652Y-132.652
X178.75Y-64.0
X178.75Y-130.0
T4
X113.42Y-110.5
X123.58Y-110.5
X129.54Y-72.644
X129.54Y-76.144
X132.975Y-113.18
X132.975Y-120.8
X135.515Y-113.18
X135.515Y-120.8
X138.055Y-113.18
X138.055Y-120.8
X146.445Y-112.88
X146.445Y-120.5
X148.985Y-112.88
X148.985Y-120.5
X150.35Y-133.5
X151.525Y-112.88
X151.525Y-120.5
X152.65Y-126.0
T5
X108.2Y-75.8
X108.2Y-78.34
X108.2Y-80.88
X108.2Y-83.42
X108.2Y-85.96
X108.2Y-90.26
X108.2Y-92.8
X108.2Y-95.34
X108.2Y-97.88
X108.2Y-102.6
X108.2Y-105.14
X108.2Y-107.68
X108.2Y-110.22
X120.725Y-60.75
X123.265Y-60.75
X137.0Y-127.0
X147.0Y-127.0
X151.008Y-81.008
X152.184Y-94.566
X152.804Y-82.804
X153.98Y-92.77
X153.98Y-96.362
X154.6Y-84.6
X155.652Y-63.875
X155.652Y-66.415
X155.652Y-68.955
X155.776Y-90.974
X155.776Y-94.566
X156.396Y-86.396
X157.572Y-92.77
X160.0Y-63.875
X160.0Y-66.415
X160.0Y-68.955
X172.212Y-109.474
X174.752Y-109.474
X175.731Y-72.966
X175.731Y-75.506
X175.731Y-78.046
X177.292Y-109.474
T6
X127.518Y-121.518
X132.906Y-126.906
T7
X119.2Y-130.0
X124.2Y-130.0
X158.84Y-120.7
X163.92Y-120.7
X169.0Y-120.7
T8
X133.35Y-132.75
X138.8Y-132.75
X144.25Y-132.75
T9
X109.0Y-64.0
X109.0Y-130.0
X175.0Y-64.0
X175.0Y-130.0
T0
M30
